  0
SECTION
  2
HEADER
  9
$ACADVER
  1
AC1014
  9
$HANDSEED
  5
FFFF
  9
$MEASUREMENT
 70
     1
  0
ENDSEC
  0
SECTION
  2
TABLES
  0
TABLE
  2
VPORT
  5
8
330
0
100
AcDbSymbolTable
 70
     4
  0
VPORT
  5
2E
330
8
100
AcDbSymbolTableRecord
100
AcDbViewportTableRecord
  2
*ACTIVE
 70
     0
 10
0.0
 20
0.0
 11
1.0
 21
1.0
 12
210.0
 22
148.5
 13
0.0
 23
0.0
 14
10.0
 24
10.0
 15
10.0
 25
10.0
 16
0.0
 26
0.0
 36
1.0
 17
0.0
 27
0.0
 37
0.0
 40
341.0
 41
1.24
 42
50.0
 43
0.0
 44
0.0
 50
0.0
 51
0.0
 71
     0
 72
   100
 73
     1
 74
     3
 75
     0
 76
     0
 77
     0
 78
     0
  0
ENDTAB
  0
TABLE
  2
LTYPE
  5
5
330
0
100
AcDbSymbolTable
 70
     1
  0
LTYPE
  5
14
330
5
100
AcDbSymbolTableRecord
100
AcDbLinetypeTableRecord
  2
BYBLOCK
 70
     0
  3

 72
    65
 73
     0
 40
0.0
  0
LTYPE
  5
15
330
5
100
AcDbSymbolTableRecord
100
AcDbLinetypeTableRecord
  2
BYLAYER
 70
     0
  3

 72
    65
 73
     0
 40
0.0
  0
LTYPE
  5
16
330
5
100
AcDbSymbolTableRecord
100
AcDbLinetypeTableRecord
  2
CONTINUOUS
 70
     0
  3
Solid line
 72
    65
 73
     0
 40
0.0
  0
ENDTAB
  0
TABLE
  2
LAYER
  5
2
100
AcDbSymbolTable
 70
2
  0
LAYER
  5
50
100
AcDbSymbolTableRecord
100
AcDbLayerTableRecord
  2
0
 70
0
  6
CONTINUOUS
  0
LAYER
  5
51
100
AcDbSymbolTableRecord
100
AcDbLayerTableRecord
  2
Layer_1
 70
0
  6
CONTINUOUS
  0
ENDTAB
  0
TABLE
  2
STYLE
  5
3
330
0
100
AcDbSymbolTable
 70
     1
  0
STYLE
  5
11
330
3
100
AcDbSymbolTableRecord
100
AcDbTextStyleTableRecord
  2
STANDARD
 70
     0
 40
0.0
 41
1.0
 50
0.0
 71
     0
 42
2.5
  3
txt
  4

  0
ENDTAB
  0
TABLE
  2
VIEW
  5
6
330
0
100
AcDbSymbolTable
 70
     0
  0
ENDTAB
  0
TABLE
  2
UCS
  5
7
330
0
100
AcDbSymbolTable
 70
     0
  0
ENDTAB
  0
TABLE
  2
APPID
  5
9
330
0
100
AcDbSymbolTable
 70
     2
  0
APPID
  5
12
330
9
100
AcDbSymbolTableRecord
100
AcDbRegAppTableRecord
  2
ACAD
 70
     0
  0
ENDTAB
  0
TABLE
  2
DIMSTYLE
  5
A
330
0
100
AcDbSymbolTable
 70
     1
  0
DIMSTYLE
105
27
330
A
100
AcDbSymbolTableRecord
100
AcDbDimStyleTableRecord
  2
ISO-25
 70
     0
  3

  4

  5

  6

  7

 40
1.0
 41
2.5
 42
0.625
 43
3.75
 44
1.25
 45
0.0
 46
0.0
 47
0.0
 48
0.0
140
2.5
141
2.5
142
0.0
143
0.03937007874016
144
1.0
145
0.0
146
1.0
147
0.625
 71
     0
 72
     0
 73
     0
 74
     0
 75
     0
 76
     0
 77
     1
 78
     8
170
     0
171
     3
172
     1
173
     0
174
     0
175
     0
176
     0
177
     0
178
     0
270
     2
271
     2
272
     2
273
     2
274
     3
340
11
275
     0
280
     0
281
     0
282
     0
283
     0
284
     8
285
     0
286
     0
287
     3
288
     0
  0
ENDTAB
  0
TABLE
  2
BLOCK_RECORD
  5
1
330
0
100
AcDbSymbolTable
 70
     1
  0
BLOCK_RECORD
  5
1F
330
1
100
AcDbSymbolTableRecord
100
AcDbBlockTableRecord
  2
*MODEL_SPACE
  0
BLOCK_RECORD
  5
1B
330
1
100
AcDbSymbolTableRecord
100
AcDbBlockTableRecord
  2
*PAPER_SPACE
  0
ENDTAB
  0
ENDSEC
  0
SECTION
  2
BLOCKS
  0
BLOCK
  5
20
330
1F
100
AcDbEntity
  8
0
100
AcDbBlockBegin
  2
*MODEL_SPACE
 70
     0
 10
0.0
 20
0.0
 30
0.0
  3
*MODEL_SPACE
  1

  0
ENDBLK
  5
21
330
1F
100
AcDbEntity
  8
0
100
AcDbBlockEnd
  0
BLOCK
  5
1C
330
1B
100
AcDbEntity
 67
     1
  8
0
100
AcDbBlockBegin
  2
*PAPER_SPACE
  1

  0
ENDBLK
  5
1D
330
1B
100
AcDbEntity
 67
     1
  8
0
100
AcDbBlockEnd
  0
ENDSEC
  0
SECTION
  2
ENTITIES
  0
SPLINE
  5
100
100
AcDbEntity
  8
Layer_1
 62
7
100
AcDbSpline
 70
8
 71
3
 72
8
 73
4
 74
0
 40
0
 40
0
 40
0
 40
0
 40
1
 40
1
 40
1
 40
1
 10
-81.722481
 20
209.819829
 30
0.0
 10
-81.722481
 20
208.994994
 30
0.0
 10
-82.177210
 20
208.232815
 30
0.0
 10
-82.915376
 20
207.820397
 30
0.0
  0
SPLINE
  5
101
100
AcDbEntity
  8
Layer_1
 62
7
100
AcDbSpline
 70
8
 71
3
 72
8
 73
4
 74
0
 40
0
 40
0
 40
0
 40
0
 40
1
 40
1
 40
1
 40
1
 10
-82.915376
 20
207.820397
 30
0.0
 10
-83.653542
 20
207.407980
 30
0.0
 10
-84.563001
 20
207.407980
 30
0.0
 10
-85.301167
 20
207.820397
 30
0.0
  0
SPLINE
  5
102
100
AcDbEntity
  8
Layer_1
 62
7
100
AcDbSpline
 70
8
 71
3
 72
8
 73
4
 74
0
 40
0
 40
0
 40
0
 40
0
 40
1
 40
1
 40
1
 40
1
 10
-85.301167
 20
207.820397
 30
0.0
 10
-86.039333
 20
208.232815
 30
0.0
 10
-86.494062
 20
208.994994
 30
0.0
 10
-86.494062
 20
209.819829
 30
0.0
  0
SPLINE
  5
103
100
AcDbEntity
  8
Layer_1
 62
7
100
AcDbSpline
 70
8
 71
3
 72
8
 73
4
 74
0
 40
0
 40
0
 40
0
 40
0
 40
1
 40
1
 40
1
 40
1
 10
-86.494062
 20
209.819829
 30
0.0
 10
-86.494062
 20
210.644663
 30
0.0
 10
-86.039333
 20
211.406842
 30
0.0
 10
-85.301167
 20
211.819260
 30
0.0
  0
SPLINE
  5
104
100
AcDbEntity
  8
Layer_1
 62
7
100
AcDbSpline
 70
8
 71
3
 72
8
 73
4
 74
0
 40
0
 40
0
 40
0
 40
0
 40
1
 40
1
 40
1
 40
1
 10
-85.301167
 20
211.819260
 30
0.0
 10
-84.563001
 20
212.231677
 30
0.0
 10
-83.653542
 20
212.231677
 30
0.0
 10
-82.915376
 20
211.819260
 30
0.0
  0
SPLINE
  5
105
100
AcDbEntity
  8
Layer_1
 62
7
100
AcDbSpline
 70
8
 71
3
 72
8
 73
4
 74
0
 40
0
 40
0
 40
0
 40
0
 40
1
 40
1
 40
1
 40
1
 10
-82.915376
 20
211.819260
 30
0.0
 10
-82.177210
 20
211.406842
 30
0.0
 10
-81.722481
 20
210.644663
 30
0.0
 10
-81.722481
 20
209.819829
 30
0.0
  0
SPLINE
  5
106
100
AcDbEntity
  8
Layer_1
 62
7
100
AcDbSpline
 70
8
 71
3
 72
8
 73
4
 74
0
 40
0
 40
0
 40
0
 40
0
 40
1
 40
1
 40
1
 40
1
 10
-16.703967
 20
144.801312
 30
0.0
 10
-16.703967
 20
143.976477
 30
0.0
 10
-17.158696
 20
143.214298
 30
0.0
 10
-17.896863
 20
142.801881
 30
0.0
  0
SPLINE
  5
107
100
AcDbEntity
  8
Layer_1
 62
7
100
AcDbSpline
 70
8
 71
3
 72
8
 73
4
 74
0
 40
0
 40
0
 40
0
 40
0
 40
1
 40
1
 40
1
 40
1
 10
-17.896863
 20
142.801881
 30
0.0
 10
-18.635029
 20
142.389464
 30
0.0
 10
-19.544487
 20
142.389464
 30
0.0
 10
-20.282653
 20
142.801881
 30
0.0
  0
SPLINE
  5
108
100
AcDbEntity
  8
Layer_1
 62
7
100
AcDbSpline
 70
8
 71
3
 72
8
 73
4
 74
0
 40
0
 40
0
 40
0
 40
0
 40
1
 40
1
 40
1
 40
1
 10
-20.282653
 20
142.801881
 30
0.0
 10
-21.020820
 20
143.214298
 30
0.0
 10
-21.475549
 20
143.976477
 30
0.0
 10
-21.475549
 20
144.801312
 30
0.0
  0
SPLINE
  5
109
100
AcDbEntity
  8
Layer_1
 62
7
100
AcDbSpline
 70
8
 71
3
 72
8
 73
4
 74
0
 40
0
 40
0
 40
0
 40
0
 40
1
 40
1
 40
1
 40
1
 10
-21.475549
 20
144.801312
 30
0.0
 10
-21.475549
 20
145.626147
 30
0.0
 10
-21.020820
 20
146.388326
 30
0.0
 10
-20.282653
 20
146.800743
 30
0.0
  0
SPLINE
  5
10a
100
AcDbEntity
  8
Layer_1
 62
7
100
AcDbSpline
 70
8
 71
3
 72
8
 73
4
 74
0
 40
0
 40
0
 40
0
 40
0
 40
1
 40
1
 40
1
 40
1
 10
-20.282653
 20
146.800743
 30
0.0
 10
-19.544487
 20
147.213161
 30
0.0
 10
-18.635029
 20
147.213161
 30
0.0
 10
-17.896863
 20
146.800743
 30
0.0
  0
SPLINE
  5
10b
100
AcDbEntity
  8
Layer_1
 62
7
100
AcDbSpline
 70
8
 71
3
 72
8
 73
4
 74
0
 40
0
 40
0
 40
0
 40
0
 40
1
 40
1
 40
1
 40
1
 10
-17.896863
 20
146.800743
 30
0.0
 10
-17.158696
 20
146.388326
 30
0.0
 10
-16.703967
 20
145.626147
 30
0.0
 10
-16.703967
 20
144.801312
 30
0.0
  0
LWPOLYLINE
  5
10c
100
AcDbEntity
  8
Layer_1
 62
7
100
AcDbPolyline
 90
2
 70
1
 10
-81.722481
 20
209.819829
 30
0.0
 10
-81.722481
 20
209.819829
 30
0.0
  0
SPLINE
  5
10d
100
AcDbEntity
  8
Layer_1
 62
7
100
AcDbSpline
 70
8
 71
3
 72
8
 73
4
 74
0
 40
0
 40
0
 40
0
 40
0
 40
1
 40
1
 40
1
 40
1
 10
-81.722481
 20
144.801312
 30
0.0
 10
-81.722481
 20
143.976477
 30
0.0
 10
-82.177210
 20
143.214298
 30
0.0
 10
-82.915376
 20
142.801881
 30
0.0
  0
SPLINE
  5
10e
100
AcDbEntity
  8
Layer_1
 62
7
100
AcDbSpline
 70
8
 71
3
 72
8
 73
4
 74
0
 40
0
 40
0
 40
0
 40
0
 40
1
 40
1
 40
1
 40
1
 10
-82.915376
 20
142.801881
 30
0.0
 10
-83.653542
 20
142.389464
 30
0.0
 10
-84.563001
 20
142.389464
 30
0.0
 10
-85.301167
 20
142.801881
 30
0.0
  0
SPLINE
  5
10f
100
AcDbEntity
  8
Layer_1
 62
7
100
AcDbSpline
 70
8
 71
3
 72
8
 73
4
 74
0
 40
0
 40
0
 40
0
 40
0
 40
1
 40
1
 40
1
 40
1
 10
-85.301167
 20
142.801881
 30
0.0
 10
-86.039333
 20
143.214298
 30
0.0
 10
-86.494062
 20
143.976477
 30
0.0
 10
-86.494062
 20
144.801312
 30
0.0
  0
SPLINE
  5
110
100
AcDbEntity
  8
Layer_1
 62
7
100
AcDbSpline
 70
8
 71
3
 72
8
 73
4
 74
0
 40
0
 40
0
 40
0
 40
0
 40
1
 40
1
 40
1
 40
1
 10
-86.494062
 20
144.801312
 30
0.0
 10
-86.494062
 20
145.626147
 30
0.0
 10
-86.039333
 20
146.388326
 30
0.0
 10
-85.301167
 20
146.800743
 30
0.0
  0
SPLINE
  5
111
100
AcDbEntity
  8
Layer_1
 62
7
100
AcDbSpline
 70
8
 71
3
 72
8
 73
4
 74
0
 40
0
 40
0
 40
0
 40
0
 40
1
 40
1
 40
1
 40
1
 10
-85.301167
 20
146.800743
 30
0.0
 10
-84.563001
 20
147.213161
 30
0.0
 10
-83.653542
 20
147.213161
 30
0.0
 10
-82.915376
 20
146.800743
 30
0.0
  0
SPLINE
  5
112
100
AcDbEntity
  8
Layer_1
 62
7
100
AcDbSpline
 70
8
 71
3
 72
8
 73
4
 74
0
 40
0
 40
0
 40
0
 40
0
 40
1
 40
1
 40
1
 40
1
 10
-82.915376
 20
146.800743
 30
0.0
 10
-82.177210
 20
146.388326
 30
0.0
 10
-81.722481
 20
145.626147
 30
0.0
 10
-81.722481
 20
144.801312
 30
0.0
  0
LWPOLYLINE
  5
113
100
AcDbEntity
  8
Layer_1
 62
7
100
AcDbPolyline
 90
2
 70
1
 10
-16.703967
 20
144.801312
 30
0.0
 10
-16.703967
 20
144.801312
 30
0.0
  0
SPLINE
  5
114
100
AcDbEntity
  8
Layer_1
 62
7
100
AcDbSpline
 70
8
 71
3
 72
8
 73
4
 74
0
 40
0
 40
0
 40
0
 40
0
 40
1
 40
1
 40
1
 40
1
 10
-16.703967
 20
209.819826
 30
0.0
 10
-16.703967
 20
208.994991
 30
0.0
 10
-17.158696
 20
208.232812
 30
0.0
 10
-17.896863
 20
207.820395
 30
0.0
  0
SPLINE
  5
115
100
AcDbEntity
  8
Layer_1
 62
7
100
AcDbSpline
 70
8
 71
3
 72
8
 73
4
 74
0
 40
0
 40
0
 40
0
 40
0
 40
1
 40
1
 40
1
 40
1
 10
-17.896863
 20
207.820395
 30
0.0
 10
-18.635029
 20
207.407977
 30
0.0
 10
-19.544487
 20
207.407977
 30
0.0
 10
-20.282653
 20
207.820395
 30
0.0
  0
SPLINE
  5
116
100
AcDbEntity
  8
Layer_1
 62
7
100
AcDbSpline
 70
8
 71
3
 72
8
 73
4
 74
0
 40
0
 40
0
 40
0
 40
0
 40
1
 40
1
 40
1
 40
1
 10
-20.282653
 20
207.820395
 30
0.0
 10
-21.020820
 20
208.232812
 30
0.0
 10
-21.475549
 20
208.994991
 30
0.0
 10
-21.475549
 20
209.819826
 30
0.0
  0
SPLINE
  5
117
100
AcDbEntity
  8
Layer_1
 62
7
100
AcDbSpline
 70
8
 71
3
 72
8
 73
4
 74
0
 40
0
 40
0
 40
0
 40
0
 40
1
 40
1
 40
1
 40
1
 10
-21.475549
 20
209.819826
 30
0.0
 10
-21.475549
 20
210.644661
 30
0.0
 10
-21.020820
 20
211.406839
 30
0.0
 10
-20.282653
 20
211.819257
 30
0.0
  0
SPLINE
  5
118
100
AcDbEntity
  8
Layer_1
 62
7
100
AcDbSpline
 70
8
 71
3
 72
8
 73
4
 74
0
 40
0
 40
0
 40
0
 40
0
 40
1
 40
1
 40
1
 40
1
 10
-20.282653
 20
211.819257
 30
0.0
 10
-19.544487
 20
212.231674
 30
0.0
 10
-18.635029
 20
212.231674
 30
0.0
 10
-17.896863
 20
211.819257
 30
0.0
  0
SPLINE
  5
119
100
AcDbEntity
  8
Layer_1
 62
7
100
AcDbSpline
 70
8
 71
3
 72
8
 73
4
 74
0
 40
0
 40
0
 40
0
 40
0
 40
1
 40
1
 40
1
 40
1
 10
-17.896863
 20
211.819257
 30
0.0
 10
-17.158696
 20
211.406839
 30
0.0
 10
-16.703967
 20
210.644661
 30
0.0
 10
-16.703967
 20
209.819826
 30
0.0
  0
LWPOLYLINE
  5
11a
100
AcDbEntity
  8
Layer_1
 62
7
100
AcDbPolyline
 90
2
 70
1
 10
-81.722481
 20
144.801312
 30
0.0
 10
-81.722481
 20
144.801312
 30
0.0
  0
SPLINE
  5
11b
100
AcDbEntity
  8
Layer_1
 62
7
100
AcDbSpline
 70
8
 71
3
 72
8
 73
4
 74
0
 40
0
 40
0
 40
0
 40
0
 40
1
 40
1
 40
1
 40
1
 10
-81.829614
 20
177.310574
 30
0.0
 10
-81.828954
 20
176.329905
 30
0.0
 10
-82.351756
 20
175.423447
 30
0.0
 10
-83.200930
 20
174.932922
 30
0.0
  0
SPLINE
  5
11c
100
AcDbEntity
  8
Layer_1
 62
7
100
AcDbSpline
 70
8
 71
3
 72
8
 73
4
 74
0
 40
0
 40
0
 40
0
 40
0
 40
1
 40
1
 40
1
 40
1
 10
-83.200930
 20
174.932922
 30
0.0
 10
-84.050105
 20
174.442397
 30
0.0
 10
-85.096522
 20
174.442397
 30
0.0
 10
-85.945696
 20
174.932922
 30
0.0
  0
SPLINE
  5
11d
100
AcDbEntity
  8
Layer_1
 62
7
100
AcDbSpline
 70
8
 71
3
 72
8
 73
4
 74
0
 40
0
 40
0
 40
0
 40
0
 40
1
 40
1
 40
1
 40
1
 10
-85.945696
 20
174.932922
 30
0.0
 10
-86.794871
 20
175.423447
 30
0.0
 10
-87.317672
 20
176.329905
 30
0.0
 10
-87.317013
 20
177.310574
 30
0.0
  0
SPLINE
  5
11e
100
AcDbEntity
  8
Layer_1
 62
7
100
AcDbSpline
 70
8
 71
3
 72
8
 73
4
 74
0
 40
0
 40
0
 40
0
 40
0
 40
1
 40
1
 40
1
 40
1
 10
-87.317013
 20
177.310574
 30
0.0
 10
-87.317672
 20
178.291243
 30
0.0
 10
-86.794871
 20
179.197701
 30
0.0
 10
-85.945696
 20
179.688227
 30
0.0
  0
SPLINE
  5
11f
100
AcDbEntity
  8
Layer_1
 62
7
100
AcDbSpline
 70
8
 71
3
 72
8
 73
4
 74
0
 40
0
 40
0
 40
0
 40
0
 40
1
 40
1
 40
1
 40
1
 10
-85.945696
 20
179.688227
 30
0.0
 10
-85.096522
 20
180.178752
 30
0.0
 10
-84.050105
 20
180.178752
 30
0.0
 10
-83.200930
 20
179.688227
 30
0.0
  0
SPLINE
  5
120
100
AcDbEntity
  8
Layer_1
 62
7
100
AcDbSpline
 70
8
 71
3
 72
8
 73
4
 74
0
 40
0
 40
0
 40
0
 40
0
 40
1
 40
1
 40
1
 40
1
 10
-83.200930
 20
179.688227
 30
0.0
 10
-82.351756
 20
179.197701
 30
0.0
 10
-81.828954
 20
178.291243
 30
0.0
 10
-81.829614
 20
177.310574
 30
0.0
  0
LWPOLYLINE
  5
121
100
AcDbEntity
  8
Layer_1
 62
7
100
AcDbPolyline
 90
2
 70
1
 10
-16.703967
 20
209.819826
 30
0.0
 10
-16.703967
 20
209.819826
 30
0.0
  0
SPLINE
  5
122
100
AcDbEntity
  8
Layer_1
 62
7
100
AcDbSpline
 70
8
 71
3
 72
8
 73
4
 74
0
 40
0
 40
0
 40
0
 40
0
 40
1
 40
1
 40
1
 40
1
 10
154.254293
 20
177.316715
 30
0.0
 10
154.254293
 20
175.801410
 30
0.0
 10
153.025896
 20
174.573015
 30
0.0
 10
151.510594
 20
174.573015
 30
0.0
  0
SPLINE
  5
123
100
AcDbEntity
  8
Layer_1
 62
7
100
AcDbSpline
 70
8
 71
3
 72
8
 73
4
 74
0
 40
0
 40
0
 40
0
 40
0
 40
1
 40
1
 40
1
 40
1
 10
151.510594
 20
174.573015
 30
0.0
 10
149.995289
 20
174.573015
 30
0.0
 10
148.766894
 20
175.801410
 30
0.0
 10
148.766894
 20
177.316715
 30
0.0
  0
SPLINE
  5
124
100
AcDbEntity
  8
Layer_1
 62
7
100
AcDbSpline
 70
8
 71
3
 72
8
 73
4
 74
0
 40
0
 40
0
 40
0
 40
0
 40
1
 40
1
 40
1
 40
1
 10
148.766894
 20
177.316715
 30
0.0
 10
148.766894
 20
178.832017
 30
0.0
 10
149.995289
 20
180.060414
 30
0.0
 10
151.510594
 20
180.060414
 30
0.0
  0
SPLINE
  5
125
100
AcDbEntity
  8
Layer_1
 62
7
100
AcDbSpline
 70
8
 71
3
 72
8
 73
4
 74
0
 40
0
 40
0
 40
0
 40
0
 40
1
 40
1
 40
1
 40
1
 10
151.510594
 20
180.060414
 30
0.0
 10
153.025896
 20
180.060414
 30
0.0
 10
154.254293
 20
178.832017
 30
0.0
 10
154.254293
 20
177.316715
 30
0.0
  0
LWPOLYLINE
  5
126
100
AcDbEntity
  8
Layer_1
 62
7
100
AcDbPolyline
 90
2
 70
1
 10
-81.829614
 20
177.310574
 30
0.0
 10
-81.829614
 20
177.310574
 30
0.0
  0
SPLINE
  5
127
100
AcDbEntity
  8
Layer_1
 62
7
100
AcDbSpline
 70
8
 71
3
 72
8
 73
4
 74
0
 40
0
 40
0
 40
0
 40
0
 40
1
 40
1
 40
1
 40
1
 10
123.457341
 20
195.097536
 30
0.0
 10
124.769633
 20
195.855188
 30
0.0
 10
126.447653
 20
195.405562
 30
0.0
 10
127.205304
 20
194.093272
 30
0.0
  0
SPLINE
  5
128
100
AcDbEntity
  8
Layer_1
 62
7
100
AcDbSpline
 70
8
 71
3
 72
8
 73
4
 74
0
 40
0
 40
0
 40
0
 40
0
 40
1
 40
1
 40
1
 40
1
 10
127.205304
 20
194.093272
 30
0.0
 10
127.962956
 20
192.780980
 30
0.0
 10
127.513332
 20
191.102962
 30
0.0
 10
126.201040
 20
190.345309
 30
0.0
  0
SPLINE
  5
129
100
AcDbEntity
  8
Layer_1
 62
7
100
AcDbSpline
 70
8
 71
3
 72
8
 73
4
 74
0
 40
0
 40
0
 40
0
 40
0
 40
1
 40
1
 40
1
 40
1
 10
126.201040
 20
190.345309
 30
0.0
 10
124.888750
 20
189.587658
 30
0.0
 10
123.210729
 20
190.037280
 30
0.0
 10
122.453077
 20
191.349573
 30
0.0
  0
SPLINE
  5
12a
100
AcDbEntity
  8
Layer_1
 62
7
100
AcDbSpline
 70
8
 71
3
 72
8
 73
4
 74
0
 40
0
 40
0
 40
0
 40
0
 40
1
 40
1
 40
1
 40
1
 10
122.453077
 20
191.349573
 30
0.0
 10
121.695426
 20
192.661863
 30
0.0
 10
122.145051
 20
194.339885
 30
0.0
 10
123.457341
 20
195.097536
 30
0.0
  0
LWPOLYLINE
  5
12b
100
AcDbEntity
  8
Layer_1
 62
7
100
AcDbPolyline
 90
2
 70
1
 10
154.254293
 20
177.316715
 30
0.0
 10
154.254293
 20
177.316715
 30
0.0
  0
SPLINE
  5
12c
100
AcDbEntity
  8
Layer_1
 62
7
100
AcDbSpline
 70
8
 71
3
 72
8
 73
4
 74
0
 40
0
 40
0
 40
0
 40
0
 40
1
 40
1
 40
1
 40
1
 10
123.457344
 20
159.535892
 30
0.0
 10
122.145051
 20
160.293544
 30
0.0
 10
121.695429
 20
161.971565
 30
0.0
 10
122.453080
 20
163.283855
 30
0.0
  0
SPLINE
  5
12d
100
AcDbEntity
  8
Layer_1
 62
7
100
AcDbSpline
 70
8
 71
3
 72
8
 73
4
 74
0
 40
0
 40
0
 40
0
 40
0
 40
1
 40
1
 40
1
 40
1
 10
122.453080
 20
163.283855
 30
0.0
 10
123.210732
 20
164.596148
 30
0.0
 10
124.888751
 20
165.045771
 30
0.0
 10
126.201043
 20
164.288119
 30
0.0
  0
SPLINE
  5
12e
100
AcDbEntity
  8
Layer_1
 62
7
100
AcDbSpline
 70
8
 71
3
 72
8
 73
4
 74
0
 40
0
 40
0
 40
0
 40
0
 40
1
 40
1
 40
1
 40
1
 10
126.201043
 20
164.288119
 30
0.0
 10
127.513333
 20
163.530468
 30
0.0
 10
127.962959
 20
161.852448
 30
0.0
 10
127.205307
 20
160.540156
 30
0.0
  0
SPLINE
  5
12f
100
AcDbEntity
  8
Layer_1
 62
7
100
AcDbSpline
 70
8
 71
3
 72
8
 73
4
 74
0
 40
0
 40
0
 40
0
 40
0
 40
1
 40
1
 40
1
 40
1
 10
127.205307
 20
160.540156
 30
0.0
 10
126.447656
 20
159.227866
 30
0.0
 10
124.769634
 20
158.778241
 30
0.0
 10
123.457344
 20
159.535892
 30
0.0
  0
LWPOLYLINE
  5
130
100
AcDbEntity
  8
Layer_1
 62
7
100
AcDbPolyline
 90
2
 70
1
 10
123.457341
 20
195.097536
 30
0.0
 10
123.457341
 20
195.097536
 30
0.0
  0
SPLINE
  5
131
100
AcDbEntity
  8
Layer_1
 62
7
100
AcDbSpline
 70
8
 71
3
 72
8
 73
4
 74
0
 40
0
 40
0
 40
0
 40
0
 40
1
 40
1
 40
1
 40
1
 10
124.675810
 20
200.089955
 30
0.0
 10
122.185856
 20
200.033756
 30
0.0
 10
119.784658
 20
198.716371
 30
0.0
 10
118.449282
 20
196.403427
 30
0.0
  0
SPLINE
  5
132
100
AcDbEntity
  8
Layer_1
 62
7
100
AcDbSpline
 70
8
 71
3
 72
8
 73
4
 74
0
 40
0
 40
0
 40
0
 40
0
 40
1
 40
1
 40
1
 40
1
 10
118.449282
 20
196.403427
 30
0.0
 10
117.061172
 20
193.999150
 30
0.0
 10
117.184026
 20
191.146502
 30
0.0
 10
118.519837
 20
188.924538
 30
0.0
  0
LWPOLYLINE
  5
133
100
AcDbEntity
  8
Layer_1
 62
7
100
AcDbPolyline
 90
2
 70
1
 10
123.457344
 20
159.535892
 30
0.0
 10
123.457344
 20
159.535892
 30
0.0
  0
SPLINE
  5
134
100
AcDbEntity
  8
Layer_1
 62
7
100
AcDbSpline
 70
8
 71
3
 72
8
 73
4
 74
0
 40
0
 40
0
 40
0
 40
0
 40
1
 40
1
 40
1
 40
1
 10
118.511018
 20
165.711774
 30
0.0
 10
117.839721
 20
164.600934
 30
0.0
 10
117.461504
 20
163.303203
 30
0.0
 10
117.461504
 20
161.910594
 30
0.0
  0
SPLINE
  5
135
100
AcDbEntity
  8
Layer_1
 62
7
100
AcDbSpline
 70
8
 71
3
 72
8
 73
4
 74
0
 40
0
 40
0
 40
0
 40
0
 40
1
 40
1
 40
1
 40
1
 10
117.461504
 20
161.910594
 30
0.0
 10
117.461502
 20
157.840873
 30
0.0
 10
120.764837
 20
154.537536
 30
0.0
 10
124.834560
 20
154.537538
 30
0.0
  0
SPLINE
  5
136
100
AcDbEntity
  8
Layer_1
 62
7
100
AcDbSpline
 70
8
 71
3
 72
8
 73
4
 74
0
 40
0
 40
0
 40
0
 40
0
 40
1
 40
1
 40
1
 40
1
 10
124.834560
 20
154.537538
 30
0.0
 10
127.610780
 20
154.537538
 30
0.0
 10
130.016383
 20
156.079711
 30
0.0
 10
131.272754
 20
158.347538
 30
0.0
  0
LWPOLYLINE
  5
137
100
AcDbEntity
  8
Layer_1
 62
7
100
AcDbPolyline
 90
5
 70
1
 10
118.519837
 20
188.924538
 30
0.0
 10
118.511018
 20
188.915733
 30
0.0
 10
125.213796
 20
177.318163
 30
0.0
 10
118.519837
 20
165.729413
 30
0.0
 10
118.511018
 20
165.711774
 30
0.0
  0
SPLINE
  5
138
100
AcDbEntity
  8
Layer_1
 62
7
100
AcDbSpline
 70
8
 71
3
 72
8
 73
4
 74
0
 40
0
 40
0
 40
0
 40
0
 40
1
 40
1
 40
1
 40
1
 10
151.372254
 20
169.945122
 30
0.0
 10
152.669917
 20
169.919186
 30
0.0
 10
153.985039
 20
170.236595
 30
0.0
 10
155.191073
 20
170.932900
 30
0.0
  0
SPLINE
  5
139
100
AcDbEntity
  8
Layer_1
 62
7
100
AcDbSpline
 70
8
 71
3
 72
8
 73
4
 74
0
 40
0
 40
0
 40
0
 40
0
 40
1
 40
1
 40
1
 40
1
 10
155.191073
 20
170.932900
 30
0.0
 10
158.715555
 20
172.967761
 30
0.0
 10
159.924685
 20
177.480224
 30
0.0
 10
157.889823
 20
181.004705
 30
0.0
  0
SPLINE
  5
13a
100
AcDbEntity
  8
Layer_1
 62
7
100
AcDbSpline
 70
8
 71
3
 72
8
 73
4
 74
0
 40
0
 40
0
 40
0
 40
0
 40
1
 40
1
 40
1
 40
1
 10
157.889823
 20
181.004705
 30
0.0
 10
156.501713
 20
183.408982
 30
0.0
 10
153.964437
 20
184.728277
 30
0.0
 10
151.372254
 20
184.682414
 30
0.0
  0
LWPOLYLINE
  5
13b
100
AcDbEntity
  8
Layer_1
 62
7
100
AcDbPolyline
 90
5
 70
1
 10
131.272754
 20
158.347538
 30
0.0
 10
131.281559
 20
158.338733
 30
0.0
 10
137.984337
 20
169.945122
 30
0.0
 10
151.354615
 20
169.945122
 30
0.0
 10
151.372254
 20
169.945122
 30
0.0
  0
SPLINE
  5
13c
100
AcDbEntity
  8
Layer_1
 62
7
100
AcDbSpline
 70
8
 71
3
 72
8
 73
4
 74
0
 40
0
 40
0
 40
0
 40
0
 40
1
 40
1
 40
1
 40
1
 10
131.281574
 20
196.288788
 30
0.0
 10
130.655207
 20
197.425568
 30
0.0
 10
129.727122
 20
198.405887
 30
0.0
 10
128.521087
 20
199.102191
 30
0.0
  0
SPLINE
  5
13d
100
AcDbEntity
  8
Layer_1
 62
7
100
AcDbSpline
 70
8
 71
3
 72
8
 73
4
 74
0
 40
0
 40
0
 40
0
 40
0
 40
1
 40
1
 40
1
 40
1
 10
128.521087
 20
199.102191
 30
0.0
 10
127.309547
 20
199.801676
 30
0.0
 10
125.980071
 20
200.119405
 30
0.0
 10
124.675810
 20
200.089969
 30
0.0
  0
LWPOLYLINE
  5
13e
100
AcDbEntity
  8
Layer_1
 62
7
100
AcDbPolyline
 90
5
 70
1
 10
151.372254
 20
184.682414
 30
0.0
 10
151.372254
 20
184.691219
 30
0.0
 10
137.975518
 20
184.691219
 30
0.0
 10
131.290379
 20
196.271149
 30
0.0
 10
131.281574
 20
196.288788
 30
0.0
  0
SPLINE
  5
13f
100
AcDbEntity
  8
Layer_1
 62
7
100
AcDbSpline
 70
8
 71
3
 72
8
 73
4
 74
0
 40
0
 40
0
 40
0
 40
0
 40
1
 40
1
 40
1
 40
1
 10
131.055418
 20
179.473074
 30
0.0
 10
130.577734
 20
178.883221
 30
0.0
 10
130.288126
 20
178.139278
 30
0.0
 10
130.288126
 20
177.321129
 30
0.0
  0
SPLINE
  5
140
100
AcDbEntity
  8
Layer_1
 62
7
100
AcDbSpline
 70
8
 71
3
 72
8
 73
4
 74
0
 40
0
 40
0
 40
0
 40
0
 40
1
 40
1
 40
1
 40
1
 10
130.288126
 20
177.321129
 30
0.0
 10
130.288126
 20
176.502981
 30
0.0
 10
130.577734
 20
175.750219
 30
0.0
 10
131.055418
 20
175.160366
 30
0.0
  0
LWPOLYLINE
  5
141
100
AcDbEntity
  8
Layer_1
 62
7
100
AcDbPolyline
 90
2
 70
1
 10
124.675810
 20
200.089969
 30
0.0
 10
124.675810
 20
200.089955
 30
0.0
  0
SPLINE
  5
142
100
AcDbEntity
  8
Layer_1
 62
7
100
AcDbSpline
 70
8
 71
3
 72
8
 73
4
 74
0
 40
0
 40
0
 40
0
 40
0
 40
1
 40
1
 40
1
 40
1
 10
136.391179
 20
175.160366
 30
0.0
 10
136.868862
 20
175.750219
 30
0.0
 10
137.158470
 20
176.502981
 30
0.0
 10
137.158470
 20
177.321129
 30
0.0
  0
SPLINE
  5
143
100
AcDbEntity
  8
Layer_1
 62
7
100
AcDbSpline
 70
8
 71
3
 72
8
 73
4
 74
0
 40
0
 40
0
 40
0
 40
0
 40
1
 40
1
 40
1
 40
1
 10
137.158470
 20
177.321129
 30
0.0
 10
137.158470
 20
178.139278
 30
0.0
 10
136.868862
 20
178.883221
 30
0.0
 10
136.391179
 20
179.473074
 30
0.0
  0
LWPOLYLINE
  5
144
100
AcDbEntity
  8
Layer_1
 62
7
100
AcDbPolyline
 90
2
 70
1
 10
131.055418
 20
175.160366
 30
0.0
 10
136.391179
 20
175.160366
 30
0.0
  0
SPLINE
  5
145
100
AcDbEntity
  8
Layer_1
 62
7
100
AcDbSpline
 70
8
 71
3
 72
8
 73
4
 74
0
 40
0
 40
0
 40
0
 40
0
 40
1
 40
1
 40
1
 40
1
 10
117.020362
 20
177.314687
 30
0.0
 10
117.020362
 20
163.331849
 30
0.0
 10
105.685030
 20
151.996545
 30
0.0
 10
91.702220
 20
151.996545
 30
0.0
  0
SPLINE
  5
146
100
AcDbEntity
  8
Layer_1
 62
7
100
AcDbSpline
 70
8
 71
3
 72
8
 73
4
 74
0
 40
0
 40
0
 40
0
 40
0
 40
1
 40
1
 40
1
 40
1
 10
91.702220
 20
151.996545
 30
0.0
 10
77.719382
 20
151.996545
 30
0.0
 10
66.384079
 20
163.331849
 30
0.0
 10
66.384079
 20
177.314687
 30
0.0
  0
SPLINE
  5
147
100
AcDbEntity
  8
Layer_1
 62
7
100
AcDbSpline
 70
8
 71
3
 72
8
 73
4
 74
0
 40
0
 40
0
 40
0
 40
0
 40
1
 40
1
 40
1
 40
1
 10
66.384079
 20
177.314687
 30
0.0
 10
66.384079
 20
191.297497
 30
0.0
 10
77.719382
 20
202.632828
 30
0.0
 10
91.702220
 20
202.632828
 30
0.0
  0
SPLINE
  5
148
100
AcDbEntity
  8
Layer_1
 62
7
100
AcDbSpline
 70
8
 71
3
 72
8
 73
4
 74
0
 40
0
 40
0
 40
0
 40
0
 40
1
 40
1
 40
1
 40
1
 10
91.702220
 20
202.632828
 30
0.0
 10
105.685030
 20
202.632828
 30
0.0
 10
117.020362
 20
191.297497
 30
0.0
 10
117.020362
 20
177.314687
 30
0.0
  0
LWPOLYLINE
  5
149
100
AcDbEntity
  8
Layer_1
 62
7
100
AcDbPolyline
 90
3
 70
1
 10
136.391179
 20
179.473074
 30
0.0
 10
131.055418
 20
179.473074
 30
0.0
 10
131.055418
 20
179.473074
 30
0.0
  0
SPLINE
  5
14a
100
AcDbEntity
  8
Layer_1
 62
7
100
AcDbSpline
 70
8
 71
3
 72
8
 73
4
 74
0
 40
0
 40
0
 40
0
 40
0
 40
1
 40
1
 40
1
 40
1
 10
89.034340
 20
179.471040
 30
0.0
 10
88.556656
 20
178.881187
 30
0.0
 10
88.267048
 20
178.137243
 30
0.0
 10
88.267048
 20
177.319095
 30
0.0
  0
SPLINE
  5
14b
100
AcDbEntity
  8
Layer_1
 62
7
100
AcDbSpline
 70
8
 71
3
 72
8
 73
4
 74
0
 40
0
 40
0
 40
0
 40
0
 40
1
 40
1
 40
1
 40
1
 10
88.267048
 20
177.319095
 30
0.0
 10
88.267048
 20
176.500947
 30
0.0
 10
88.556656
 20
175.748184
 30
0.0
 10
89.034340
 20
175.158331
 30
0.0
  0
LWPOLYLINE
  5
14c
100
AcDbEntity
  8
Layer_1
 62
7
100
AcDbPolyline
 90
2
 70
1
 10
117.020362
 20
177.314687
 30
0.0
 10
117.020362
 20
177.314687
 30
0.0
  0
SPLINE
  5
14d
100
AcDbEntity
  8
Layer_1
 62
7
100
AcDbSpline
 70
8
 71
3
 72
8
 73
4
 74
0
 40
0
 40
0
 40
0
 40
0
 40
1
 40
1
 40
1
 40
1
 10
94.370101
 20
175.158331
 30
0.0
 10
94.847785
 20
175.748184
 30
0.0
 10
95.137392
 20
176.500947
 30
0.0
 10
95.137392
 20
177.319095
 30
0.0
  0
SPLINE
  5
14e
100
AcDbEntity
  8
Layer_1
 62
7
100
AcDbSpline
 70
8
 71
3
 72
8
 73
4
 74
0
 40
0
 40
0
 40
0
 40
0
 40
1
 40
1
 40
1
 40
1
 10
95.137392
 20
177.319095
 30
0.0
 10
95.137392
 20
178.137243
 30
0.0
 10
94.847785
 20
178.881187
 30
0.0
 10
94.370101
 20
179.471040
 30
0.0
  0
LWPOLYLINE
  5
14f
100
AcDbEntity
  8
Layer_1
 62
7
100
AcDbPolyline
 90
2
 70
1
 10
89.034340
 20
175.158331
 30
0.0
 10
94.370101
 20
175.158331
 30
0.0
  0
SPLINE
  5
150
100
AcDbEntity
  8
Layer_1
 62
7
100
AcDbSpline
 70
8
 71
3
 72
8
 73
4
 74
0
 40
0
 40
0
 40
0
 40
0
 40
1
 40
1
 40
1
 40
1
 10
110.789855
 20
127.122300
 30
0.0
 10
110.789855
 20
125.606995
 30
0.0
 10
109.561458
 20
124.378600
 30
0.0
 10
108.046156
 20
124.378600
 30
0.0
  0
SPLINE
  5
151
100
AcDbEntity
  8
Layer_1
 62
7
100
AcDbSpline
 70
8
 71
3
 72
8
 73
4
 74
0
 40
0
 40
0
 40
0
 40
0
 40
1
 40
1
 40
1
 40
1
 10
108.046156
 20
124.378600
 30
0.0
 10
106.530851
 20
124.378600
 30
0.0
 10
105.302456
 20
125.606995
 30
0.0
 10
105.302456
 20
127.122300
 30
0.0
  0
SPLINE
  5
152
100
AcDbEntity
  8
Layer_1
 62
7
100
AcDbSpline
 70
8
 71
3
 72
8
 73
4
 74
0
 40
0
 40
0
 40
0
 40
0
 40
1
 40
1
 40
1
 40
1
 10
105.302456
 20
127.122300
 30
0.0
 10
105.302456
 20
128.637601
 30
0.0
 10
106.530851
 20
129.865999
 30
0.0
 10
108.046156
 20
129.865999
 30
0.0
  0
SPLINE
  5
153
100
AcDbEntity
  8
Layer_1
 62
7
100
AcDbSpline
 70
8
 71
3
 72
8
 73
4
 74
0
 40
0
 40
0
 40
0
 40
0
 40
1
 40
1
 40
1
 40
1
 10
108.046156
 20
129.865999
 30
0.0
 10
109.561458
 20
129.865999
 30
0.0
 10
110.789855
 20
128.637601
 30
0.0
 10
110.789855
 20
127.122300
 30
0.0
  0
LWPOLYLINE
  5
154
100
AcDbEntity
  8
Layer_1
 62
7
100
AcDbPolyline
 90
3
 70
1
 10
94.370101
 20
179.471040
 30
0.0
 10
89.034340
 20
179.471040
 30
0.0
 10
89.034340
 20
179.471040
 30
0.0
  0
SPLINE
  5
155
100
AcDbEntity
  8
Layer_1
 62
7
100
AcDbSpline
 70
8
 71
3
 72
8
 73
4
 74
0
 40
0
 40
0
 40
0
 40
0
 40
1
 40
1
 40
1
 40
1
 10
79.992903
 20
144.903121
 30
0.0
 10
81.305194
 20
145.660772
 30
0.0
 10
82.983214
 20
145.211147
 30
0.0
 10
83.740865
 20
143.898856
 30
0.0
  0
SPLINE
  5
156
100
AcDbEntity
  8
Layer_1
 62
7
100
AcDbSpline
 70
8
 71
3
 72
8
 73
4
 74
0
 40
0
 40
0
 40
0
 40
0
 40
1
 40
1
 40
1
 40
1
 10
83.740865
 20
143.898856
 30
0.0
 10
84.498519
 20
142.586565
 30
0.0
 10
84.048894
 20
140.908545
 30
0.0
 10
82.736603
 20
140.150894
 30
0.0
  0
SPLINE
  5
157
100
AcDbEntity
  8
Layer_1
 62
7
100
AcDbSpline
 70
8
 71
3
 72
8
 73
4
 74
0
 40
0
 40
0
 40
0
 40
0
 40
1
 40
1
 40
1
 40
1
 10
82.736603
 20
140.150894
 30
0.0
 10
81.424312
 20
139.393243
 30
0.0
 10
79.746292
 20
139.842865
 30
0.0
 10
78.988638
 20
141.155156
 30
0.0
  0
SPLINE
  5
158
100
AcDbEntity
  8
Layer_1
 62
7
100
AcDbSpline
 70
8
 71
3
 72
8
 73
4
 74
0
 40
0
 40
0
 40
0
 40
0
 40
1
 40
1
 40
1
 40
1
 10
78.988638
 20
141.155156
 30
0.0
 10
78.230987
 20
142.467447
 30
0.0
 10
78.680612
 20
144.145470
 30
0.0
 10
79.992903
 20
144.903121
 30
0.0
  0
LWPOLYLINE
  5
159
100
AcDbEntity
  8
Layer_1
 62
7
100
AcDbPolyline
 90
2
 70
1
 10
110.789855
 20
127.122300
 30
0.0
 10
110.789855
 20
127.122300
 30
0.0
  0
SPLINE
  5
15a
100
AcDbEntity
  8
Layer_1
 62
7
100
AcDbSpline
 70
8
 71
3
 72
8
 73
4
 74
0
 40
0
 40
0
 40
0
 40
0
 40
1
 40
1
 40
1
 40
1
 10
79.992906
 20
109.341475
 30
0.0
 10
78.680615
 20
110.099129
 30
0.0
 10
78.230992
 20
111.777149
 30
0.0
 10
78.988643
 20
113.089440
 30
0.0
  0
SPLINE
  5
15b
100
AcDbEntity
  8
Layer_1
 62
7
100
AcDbSpline
 70
8
 71
3
 72
8
 73
4
 74
0
 40
0
 40
0
 40
0
 40
0
 40
1
 40
1
 40
1
 40
1
 10
78.988643
 20
113.089440
 30
0.0
 10
79.746294
 20
114.401731
 30
0.0
 10
81.424314
 20
114.851356
 30
0.0
 10
82.736605
 20
114.093703
 30
0.0
  0
SPLINE
  5
15c
100
AcDbEntity
  8
Layer_1
 62
7
100
AcDbSpline
 70
8
 71
3
 72
8
 73
4
 74
0
 40
0
 40
0
 40
0
 40
0
 40
1
 40
1
 40
1
 40
1
 10
82.736605
 20
114.093703
 30
0.0
 10
84.048896
 20
113.336052
 30
0.0
 10
84.498521
 20
111.658032
 30
0.0
 10
83.740871
 20
110.345741
 30
0.0
  0
SPLINE
  5
15d
100
AcDbEntity
  8
Layer_1
 62
7
100
AcDbSpline
 70
8
 71
3
 72
8
 73
4
 74
0
 40
0
 40
0
 40
0
 40
0
 40
1
 40
1
 40
1
 40
1
 10
83.740871
 20
110.345741
 30
0.0
 10
82.983220
 20
109.033450
 30
0.0
 10
81.305197
 20
108.583824
 30
0.0
 10
79.992906
 20
109.341475
 30
0.0
  0
LWPOLYLINE
  5
15e
100
AcDbEntity
  8
Layer_1
 62
7
100
AcDbPolyline
 90
2
 70
1
 10
79.992903
 20
144.903121
 30
0.0
 10
79.992903
 20
144.903121
 30
0.0
  0
SPLINE
  5
15f
100
AcDbEntity
  8
Layer_1
 62
7
100
AcDbSpline
 70
8
 71
3
 72
8
 73
4
 74
0
 40
0
 40
0
 40
0
 40
0
 40
1
 40
1
 40
1
 40
1
 10
81.211372
 20
149.895539
 30
0.0
 10
78.721418
 20
149.839340
 30
0.0
 10
76.320221
 20
148.521955
 30
0.0
 10
74.984844
 20
146.209011
 30
0.0
  0
SPLINE
  5
160
100
AcDbEntity
  8
Layer_1
 62
7
100
AcDbSpline
 70
8
 71
3
 72
8
 73
4
 74
0
 40
0
 40
0
 40
0
 40
0
 40
1
 40
1
 40
1
 40
1
 10
74.984844
 20
146.209011
 30
0.0
 10
73.596734
 20
143.804734
 30
0.0
 10
73.719588
 20
140.952086
 30
0.0
 10
75.055400
 20
138.730122
 30
0.0
  0
LWPOLYLINE
  5
161
100
AcDbEntity
  8
Layer_1
 62
7
100
AcDbPolyline
 90
2
 70
1
 10
79.992906
 20
109.341475
 30
0.0
 10
79.992906
 20
109.341475
 30
0.0
  0
SPLINE
  5
162
100
AcDbEntity
  8
Layer_1
 62
7
100
AcDbSpline
 70
8
 71
3
 72
8
 73
4
 74
0
 40
0
 40
0
 40
0
 40
0
 40
1
 40
1
 40
1
 40
1
 10
75.046609
 20
115.517358
 30
0.0
 10
74.375312
 20
114.406518
 30
0.0
 10
73.997095
 20
113.108786
 30
0.0
 10
73.997095
 20
111.716178
 30
0.0
  0
SPLINE
  5
163
100
AcDbEntity
  8
Layer_1
 62
7
100
AcDbSpline
 70
8
 71
3
 72
8
 73
4
 74
0
 40
0
 40
0
 40
0
 40
0
 40
1
 40
1
 40
1
 40
1
 10
73.997095
 20
111.716178
 30
0.0
 10
73.997092
 20
107.646457
 30
0.0
 10
77.300427
 20
104.343119
 30
0.0
 10
81.370150
 20
104.343122
 30
0.0
  0
SPLINE
  5
164
100
AcDbEntity
  8
Layer_1
 62
7
100
AcDbSpline
 70
8
 71
3
 72
8
 73
4
 74
0
 40
0
 40
0
 40
0
 40
0
 40
1
 40
1
 40
1
 40
1
 10
81.370150
 20
104.343122
 30
0.0
 10
84.146370
 20
104.343122
 30
0.0
 10
86.551973
 20
105.885295
 30
0.0
 10
87.808345
 20
108.153122
 30
0.0
  0
LWPOLYLINE
  5
165
100
AcDbEntity
  8
Layer_1
 62
7
100
AcDbPolyline
 90
5
 70
1
 10
75.055400
 20
138.730122
 30
0.0
 10
75.046594
 20
138.721317
 30
0.0
 10
81.749372
 20
127.123747
 30
0.0
 10
75.055414
 20
115.534997
 30
0.0
 10
75.046609
 20
115.517358
 30
0.0
  0
SPLINE
  5
166
100
AcDbEntity
  8
Layer_1
 62
7
100
AcDbSpline
 70
8
 71
3
 72
8
 73
4
 74
0
 40
0
 40
0
 40
0
 40
0
 40
1
 40
1
 40
1
 40
1
 10
107.907844
 20
119.750706
 30
0.0
 10
109.205508
 20
119.724770
 30
0.0
 10
110.520630
 20
120.042179
 30
0.0
 10
111.726664
 20
120.738484
 30
0.0
  0
SPLINE
  5
167
100
AcDbEntity
  8
Layer_1
 62
7
100
AcDbSpline
 70
8
 71
3
 72
8
 73
4
 74
0
 40
0
 40
0
 40
0
 40
0
 40
1
 40
1
 40
1
 40
1
 10
111.726664
 20
120.738484
 30
0.0
 10
115.251145
 20
122.773345
 30
0.0
 10
116.460276
 20
127.285808
 30
0.0
 10
114.425414
 20
130.810289
 30
0.0
  0
SPLINE
  5
168
100
AcDbEntity
  8
Layer_1
 62
7
100
AcDbSpline
 70
8
 71
3
 72
8
 73
4
 74
0
 40
0
 40
0
 40
0
 40
0
 40
1
 40
1
 40
1
 40
1
 10
114.425414
 20
130.810289
 30
0.0
 10
113.037304
 20
133.214566
 30
0.0
 10
110.500027
 20
134.533861
 30
0.0
 10
107.907844
 20
134.487998
 30
0.0
  0
LWPOLYLINE
  5
169
100
AcDbEntity
  8
Layer_1
 62
7
100
AcDbPolyline
 90
5
 70
1
 10
87.808345
 20
108.153122
 30
0.0
 10
87.817150
 20
108.144317
 30
0.0
 10
94.519928
 20
119.750706
 30
0.0
 10
107.890206
 20
119.750706
 30
0.0
 10
107.907844
 20
119.750706
 30
0.0
  0
SPLINE
  5
16a
100
AcDbEntity
  8
Layer_1
 62
7
100
AcDbSpline
 70
8
 71
3
 72
8
 73
4
 74
0
 40
0
 40
0
 40
0
 40
0
 40
1
 40
1
 40
1
 40
1
 10
87.817164
 20
146.094372
 30
0.0
 10
87.190797
 20
147.231152
 30
0.0
 10
86.262712
 20
148.211471
 30
0.0
 10
85.056678
 20
148.907775
 30
0.0
  0
SPLINE
  5
16b
100
AcDbEntity
  8
Layer_1
 62
7
100
AcDbSpline
 70
8
 71
3
 72
8
 73
4
 74
0
 40
0
 40
0
 40
0
 40
0
 40
1
 40
1
 40
1
 40
1
 10
85.056678
 20
148.907775
 30
0.0
 10
83.845138
 20
149.607260
 30
0.0
 10
82.515662
 20
149.924989
 30
0.0
 10
81.211400
 20
149.895553
 30
0.0
  0
LWPOLYLINE
  5
16c
100
AcDbEntity
  8
Layer_1
 62
7
100
AcDbPolyline
 90
5
 70
1
 10
107.907844
 20
134.487998
 30
0.0
 10
107.907844
 20
134.496803
 30
0.0
 10
94.511108
 20
134.496803
 30
0.0
 10
87.825969
 20
146.076733
 30
0.0
 10
87.817164
 20
146.094372
 30
0.0
  0
SPLINE
  5
16d
100
AcDbEntity
  8
Layer_1
 62
7
100
AcDbSpline
 70
8
 71
3
 72
8
 73
4
 74
0
 40
0
 40
0
 40
0
 40
0
 40
1
 40
1
 40
1
 40
1
 10
-34.801751
 20
222.390147
 30
0.0
 10
-40.351704
 20
222.347879
 30
0.0
 10
-45.741313
 20
219.547193
 30
0.0
 10
-48.886404
 20
214.523203
 30
0.0
  0
SPLINE
  5
16e
100
AcDbEntity
  8
Layer_1
 62
7
100
AcDbSpline
 70
8
 71
3
 72
8
 73
4
 74
0
 40
0
 40
0
 40
0
 40
0
 40
1
 40
1
 40
1
 40
1
 10
-48.886404
 20
214.523203
 30
0.0
 10
-49.839118
 20
214.571830
 30
0.0
 10
-50.749564
 20
214.602578
 30
0.0
 10
-51.593973
 20
214.602578
 30
0.0
  0
SPLINE
  5
16f
100
AcDbEntity
  8
Layer_1
 62
7
100
AcDbSpline
 70
8
 71
3
 72
8
 73
4
 74
0
 40
0
 40
0
 40
0
 40
0
 40
1
 40
1
 40
1
 40
1
 10
-51.593973
 20
214.602578
 30
0.0
 10
-59.053657
 20
214.602578
 30
0.0
 10
-71.291300
 20
212.541348
 30
0.0
 10
-78.502098
 20
211.198272
 30
0.0
  0
SPLINE
  5
170
100
AcDbEntity
  8
Layer_1
 62
7
100
AcDbSpline
 70
8
 71
3
 72
8
 73
4
 74
0
 40
0
 40
0
 40
0
 40
0
 40
1
 40
1
 40
1
 40
1
 10
-78.502098
 20
211.198272
 30
0.0
 10
-79.116815
 20
213.722414
 30
0.0
 10
-81.389087
 20
215.599175
 30
0.0
 10
-84.102445
 20
215.599175
 30
0.0
  0
SPLINE
  5
171
100
AcDbEntity
  8
Layer_1
 62
7
100
AcDbSpline
 70
8
 71
3
 72
8
 73
4
 74
0
 40
0
 40
0
 40
0
 40
0
 40
1
 40
1
 40
1
 40
1
 10
-84.102445
 20
215.599175
 30
0.0
 10
-87.287673
 20
215.599175
 30
0.0
 10
-89.870362
 20
213.016486
 30
0.0
 10
-89.870362
 20
209.831258
 30
0.0
  0
SPLINE
  5
172
100
AcDbEntity
  8
Layer_1
 62
7
100
AcDbSpline
 70
8
 71
3
 72
8
 73
4
 74
0
 40
0
 40
0
 40
0
 40
0
 40
1
 40
1
 40
1
 40
1
 10
-89.870362
 20
209.831258
 30
0.0
 10
-89.870362
 20
207.115908
 30
0.0
 10
-87.996409
 20
204.843638
 30
0.0
 10
-85.469459
 20
204.230911
 30
0.0
  0
SPLINE
  5
173
100
AcDbEntity
  8
Layer_1
 62
7
100
AcDbSpline
 70
8
 71
3
 72
8
 73
4
 74
0
 40
0
 40
0
 40
0
 40
0
 40
1
 40
1
 40
1
 40
1
 10
-85.469459
 20
204.230911
 30
0.0
 10
-86.471435
 20
198.851942
 30
0.0
 10
-87.873597
 20
190.674401
 30
0.0
 10
-88.520987
 20
183.769803
 30
0.0
  0
SPLINE
  5
174
100
AcDbEntity
  8
Layer_1
 62
7
100
AcDbSpline
 70
8
 71
3
 72
8
 73
4
 74
0
 40
0
 40
0
 40
0
 40
0
 40
1
 40
1
 40
1
 40
1
 10
-88.520987
 20
183.769803
 30
0.0
 10
-90.688578
 20
182.440384
 30
0.0
 10
-92.136959
 20
180.051931
 30
0.0
 10
-92.136959
 20
177.322789
 30
0.0
  0
SPLINE
  5
175
100
AcDbEntity
  8
Layer_1
 62
7
100
AcDbSpline
 70
8
 71
3
 72
8
 73
4
 74
0
 40
0
 40
0
 40
0
 40
0
 40
1
 40
1
 40
1
 40
1
 10
-92.136959
 20
177.322789
 30
0.0
 10
-92.136959
 20
174.593646
 30
0.0
 10
-90.688578
 20
172.196375
 30
0.0
 10
-88.520987
 20
170.866956
 30
0.0
  0
SPLINE
  5
176
100
AcDbEntity
  8
Layer_1
 62
7
100
AcDbSpline
 70
8
 71
3
 72
8
 73
4
 74
0
 40
0
 40
0
 40
0
 40
0
 40
1
 40
1
 40
1
 40
1
 10
-88.520987
 20
170.866956
 30
0.0
 10
-87.875923
 20
163.963634
 30
0.0
 10
-86.479637
 20
155.795208
 30
0.0
 10
-85.478279
 20
150.414664
 30
0.0
  0
SPLINE
  5
177
100
AcDbEntity
  8
Layer_1
 62
7
100
AcDbSpline
 70
8
 71
3
 72
8
 73
4
 74
0
 40
0
 40
0
 40
0
 40
0
 40
1
 40
1
 40
1
 40
1
 10
-85.478279
 20
150.414664
 30
0.0
 10
-88.001331
 20
149.799174
 30
0.0
 10
-89.870362
 20
147.526901
 30
0.0
 10
-89.870362
 20
144.814305
 30
0.0
  0
SPLINE
  5
178
100
AcDbEntity
  8
Layer_1
 62
7
100
AcDbSpline
 70
8
 71
3
 72
8
 73
4
 74
0
 40
0
 40
0
 40
0
 40
0
 40
1
 40
1
 40
1
 40
1
 10
-89.870362
 20
144.814305
 30
0.0
 10
-89.870362
 20
141.629089
 30
0.0
 10
-87.287673
 20
139.046389
 30
0.0
 10
-84.102445
 20
139.046389
 30
0.0
  0
SPLINE
  5
179
100
AcDbEntity
  8
Layer_1
 62
7
100
AcDbSpline
 70
8
 71
3
 72
8
 73
4
 74
0
 40
0
 40
0
 40
0
 40
0
 40
1
 40
1
 40
1
 40
1
 10
-84.102445
 20
139.046389
 30
0.0
 10
-81.389861
 20
139.046389
 30
0.0
 10
-79.117588
 20
140.915434
 30
0.0
 10
-78.502098
 20
143.438472
 30
0.0
  0
SPLINE
  5
17a
100
AcDbEntity
  8
Layer_1
 62
7
100
AcDbSpline
 70
8
 71
3
 72
8
 73
4
 74
0
 40
0
 40
0
 40
0
 40
0
 40
1
 40
1
 40
1
 40
1
 10
-78.502098
 20
143.438472
 30
0.0
 10
-71.290005
 20
142.096251
 30
0.0
 10
-59.052166
 20
140.043000
 30
0.0
 10
-51.593973
 20
140.043000
 30
0.0
  0
SPLINE
  5
17b
100
AcDbEntity
  8
Layer_1
 62
7
100
AcDbSpline
 70
8
 71
3
 72
8
 73
4
 74
0
 40
0
 40
0
 40
0
 40
0
 40
1
 40
1
 40
1
 40
1
 10
-51.593973
 20
140.043000
 30
0.0
 10
-50.752316
 20
140.043000
 30
0.0
 10
-49.844525
 20
140.065296
 30
0.0
 10
-48.895223
 20
140.113556
 30
0.0
  0
SPLINE
  5
17c
100
AcDbEntity
  8
Layer_1
 62
7
100
AcDbSpline
 70
8
 71
3
 72
8
 73
4
 74
0
 40
0
 40
0
 40
0
 40
0
 40
1
 40
1
 40
1
 40
1
 10
-48.895223
 20
140.113556
 30
0.0
 10
-44.070614
 20
132.401975
 30
0.0
 10
-33.943615
 20
129.923922
 30
0.0
 10
-26.096959
 20
134.610222
 30
0.0
  0
SPLINE
  5
17d
100
AcDbEntity
  8
Layer_1
 62
7
100
AcDbSpline
 70
8
 71
3
 72
8
 73
4
 74
0
 40
0
 40
0
 40
0
 40
0
 40
1
 40
1
 40
1
 40
1
 10
-26.096959
 20
134.610222
 30
0.0
 10
-24.009598
 20
135.856854
 30
0.0
 10
-22.294596
 20
137.495324
 30
0.0
 10
-20.981681
 20
139.363889
 30
0.0
  0
SPLINE
  5
17e
100
AcDbEntity
  8
Layer_1
 62
7
100
AcDbSpline
 70
8
 71
3
 72
8
 73
4
 74
0
 40
0
 40
0
 40
0
 40
0
 40
1
 40
1
 40
1
 40
1
 10
-20.981681
 20
139.363889
 30
0.0
 10
-20.387310
 20
139.156935
 30
0.0
 10
-19.750778
 20
139.046389
 30
0.0
 10
-19.085501
 20
139.046389
 30
0.0
  0
SPLINE
  5
17f
100
AcDbEntity
  8
Layer_1
 62
7
100
AcDbSpline
 70
8
 71
3
 72
8
 73
4
 74
0
 40
0
 40
0
 40
0
 40
0
 40
1
 40
1
 40
1
 40
1
 10
-19.085501
 20
139.046389
 30
0.0
 10
-15.900273
 20
139.046389
 30
0.0
 10
-13.317584
 20
141.629089
 30
0.0
 10
-13.317584
 20
144.814305
 30
0.0
  0
SPLINE
  5
180
100
AcDbEntity
  8
Layer_1
 62
7
100
AcDbSpline
 70
8
 71
3
 72
8
 73
4
 74
0
 40
0
 40
0
 40
0
 40
0
 40
1
 40
1
 40
1
 40
1
 10
-13.317584
 20
144.814305
 30
0.0
 10
-13.317584
 20
147.524618
 30
0.0
 10
-15.189832
 20
149.796905
 30
0.0
 10
-17.709667
 20
150.414664
 30
0.0
  0
SPLINE
  5
181
100
AcDbEntity
  8
Layer_1
 62
7
100
AcDbSpline
 70
8
 71
3
 72
8
 73
4
 74
0
 40
0
 40
0
 40
0
 40
0
 40
1
 40
1
 40
1
 40
1
 10
-17.709667
 20
150.414664
 30
0.0
 10
-16.367447
 20
157.626757
 30
0.0
 10
-14.314181
 20
169.864593
 30
0.0
 10
-14.314181
 20
177.322789
 30
0.0
  0
SPLINE
  5
182
100
AcDbEntity
  8
Layer_1
 62
7
100
AcDbSpline
 70
8
 71
3
 72
8
 73
4
 74
0
 40
0
 40
0
 40
0
 40
0
 40
1
 40
1
 40
1
 40
1
 10
-14.314181
 20
177.322789
 30
0.0
 10
-14.314181
 20
184.780985
 30
0.0
 10
-16.367447
 20
197.018818
 30
0.0
 10
-17.709667
 20
204.230911
 30
0.0
  0
SPLINE
  5
183
100
AcDbEntity
  8
Layer_1
 62
7
100
AcDbSpline
 70
8
 71
3
 72
8
 73
4
 74
0
 40
0
 40
0
 40
0
 40
0
 40
1
 40
1
 40
1
 40
1
 10
-17.709667
 20
204.230911
 30
0.0
 10
-15.190027
 20
204.848808
 30
0.0
 10
-13.317584
 20
207.121095
 30
0.0
 10
-13.317584
 20
209.831258
 30
0.0
  0
SPLINE
  5
184
100
AcDbEntity
  8
Layer_1
 62
7
100
AcDbSpline
 70
8
 71
3
 72
8
 73
4
 74
0
 40
0
 40
0
 40
0
 40
0
 40
1
 40
1
 40
1
 40
1
 10
-13.317584
 20
209.831258
 30
0.0
 10
-13.317584
 20
213.016486
 30
0.0
 10
-15.900273
 20
215.599175
 30
0.0
 10
-19.085501
 20
215.599175
 30
0.0
  0
SPLINE
  5
185
100
AcDbEntity
  8
Layer_1
 62
7
100
AcDbSpline
 70
8
 71
3
 72
8
 73
4
 74
0
 40
0
 40
0
 40
0
 40
0
 40
1
 40
1
 40
1
 40
1
 10
-19.085501
 20
215.599175
 30
0.0
 10
-19.750309
 20
215.599175
 30
0.0
 10
-20.387527
 20
215.480111
 30
0.0
 10
-20.981681
 20
215.272856
 30
0.0
  0
SPLINE
  5
186
100
AcDbEntity
  8
Layer_1
 62
7
100
AcDbSpline
 70
8
 71
3
 72
8
 73
4
 74
0
 40
0
 40
0
 40
0
 40
0
 40
1
 40
1
 40
1
 40
1
 10
-20.981681
 20
215.272856
 30
0.0
 10
-22.294277
 20
217.139959
 30
0.0
 10
-24.010922
 20
218.771864
 30
0.0
 10
-26.096959
 20
220.017717
 30
0.0
  0
SPLINE
  5
187
100
AcDbEntity
  8
Layer_1
 62
7
100
AcDbSpline
 70
8
 71
3
 72
8
 73
4
 74
0
 40
0
 40
0
 40
0
 40
0
 40
1
 40
1
 40
1
 40
1
 10
-26.096959
 20
220.017717
 30
0.0
 10
-28.829082
 20
221.649435
 30
0.0
 10
-31.836250
 20
222.412733
 30
0.0
 10
-34.801751
 20
222.390147
 30
0.0
  0
LWPOLYLINE
  5
188
100
AcDbEntity
  8
Layer_1
 62
7
100
AcDbPolyline
 90
2
 70
1
 10
81.211400
 20
149.895553
 30
0.0
 10
81.211372
 20
149.895539
 30
0.0
  0
SPLINE
  5
189
100
AcDbEntity
  8
Layer_1
 62
7
100
AcDbSpline
 70
8
 71
3
 72
8
 73
4
 74
0
 40
0
 40
0
 40
0
 40
0
 40
1
 40
1
 40
1
 40
1
 10
-16.703064
 20
144.806801
 30
0.0
 10
-16.703064
 20
143.981967
 30
0.0
 10
-17.157793
 20
143.219788
 30
0.0
 10
-17.895959
 20
142.807370
 30
0.0
  0
SPLINE
  5
18a
100
AcDbEntity
  8
Layer_1
 62
7
100
AcDbSpline
 70
8
 71
3
 72
8
 73
4
 74
0
 40
0
 40
0
 40
0
 40
0
 40
1
 40
1
 40
1
 40
1
 10
-17.895959
 20
142.807370
 30
0.0
 10
-18.634126
 20
142.394953
 30
0.0
 10
-19.543584
 20
142.394953
 30
0.0
 10
-20.281750
 20
142.807370
 30
0.0
  0
SPLINE
  5
18b
100
AcDbEntity
  8
Layer_1
 62
7
100
AcDbSpline
 70
8
 71
3
 72
8
 73
4
 74
0
 40
0
 40
0
 40
0
 40
0
 40
1
 40
1
 40
1
 40
1
 10
-20.281750
 20
142.807370
 30
0.0
 10
-21.019917
 20
143.219788
 30
0.0
 10
-21.474646
 20
143.981967
 30
0.0
 10
-21.474646
 20
144.806801
 30
0.0
  0
SPLINE
  5
18c
100
AcDbEntity
  8
Layer_1
 62
7
100
AcDbSpline
 70
8
 71
3
 72
8
 73
4
 74
0
 40
0
 40
0
 40
0
 40
0
 40
1
 40
1
 40
1
 40
1
 10
-21.474646
 20
144.806801
 30
0.0
 10
-21.474646
 20
145.631636
 30
0.0
 10
-21.019917
 20
146.393815
 30
0.0
 10
-20.281750
 20
146.806233
 30
0.0
  0
SPLINE
  5
18d
100
AcDbEntity
  8
Layer_1
 62
7
100
AcDbSpline
 70
8
 71
3
 72
8
 73
4
 74
0
 40
0
 40
0
 40
0
 40
0
 40
1
 40
1
 40
1
 40
1
 10
-20.281750
 20
146.806233
 30
0.0
 10
-19.543584
 20
147.218650
 30
0.0
 10
-18.634126
 20
147.218650
 30
0.0
 10
-17.895959
 20
146.806233
 30
0.0
  0
SPLINE
  5
18e
100
AcDbEntity
  8
Layer_1
 62
7
100
AcDbSpline
 70
8
 71
3
 72
8
 73
4
 74
0
 40
0
 40
0
 40
0
 40
0
 40
1
 40
1
 40
1
 40
1
 10
-17.895959
 20
146.806233
 30
0.0
 10
-17.157793
 20
146.393815
 30
0.0
 10
-16.703064
 20
145.631636
 30
0.0
 10
-16.703064
 20
144.806801
 30
0.0
  0
LWPOLYLINE
  5
18f
100
AcDbEntity
  8
Layer_1
 62
7
100
AcDbPolyline
 90
2
 70
1
 10
-34.801751
 20
222.390147
 30
0.0
 10
-34.801751
 20
222.390147
 30
0.0
  0
SPLINE
  5
190
100
AcDbEntity
  8
Layer_1
 62
7
100
AcDbSpline
 70
8
 71
3
 72
8
 73
4
 74
0
 40
0
 40
0
 40
0
 40
0
 40
1
 40
1
 40
1
 40
1
 10
-16.703064
 20
209.825312
 30
0.0
 10
-16.703064
 20
209.000477
 30
0.0
 10
-17.157793
 20
208.238298
 30
0.0
 10
-17.895959
 20
207.825881
 30
0.0
  0
SPLINE
  5
191
100
AcDbEntity
  8
Layer_1
 62
7
100
AcDbSpline
 70
8
 71
3
 72
8
 73
4
 74
0
 40
0
 40
0
 40
0
 40
0
 40
1
 40
1
 40
1
 40
1
 10
-17.895959
 20
207.825881
 30
0.0
 10
-18.634126
 20
207.413464
 30
0.0
 10
-19.543584
 20
207.413464
 30
0.0
 10
-20.281750
 20
207.825881
 30
0.0
  0
SPLINE
  5
192
100
AcDbEntity
  8
Layer_1
 62
7
100
AcDbSpline
 70
8
 71
3
 72
8
 73
4
 74
0
 40
0
 40
0
 40
0
 40
0
 40
1
 40
1
 40
1
 40
1
 10
-20.281750
 20
207.825881
 30
0.0
 10
-21.019917
 20
208.238298
 30
0.0
 10
-21.474646
 20
209.000477
 30
0.0
 10
-21.474646
 20
209.825312
 30
0.0
  0
SPLINE
  5
193
100
AcDbEntity
  8
Layer_1
 62
7
100
AcDbSpline
 70
8
 71
3
 72
8
 73
4
 74
0
 40
0
 40
0
 40
0
 40
0
 40
1
 40
1
 40
1
 40
1
 10
-21.474646
 20
209.825312
 30
0.0
 10
-21.474646
 20
210.650147
 30
0.0
 10
-21.019917
 20
211.412326
 30
0.0
 10
-20.281750
 20
211.824743
 30
0.0
  0
SPLINE
  5
194
100
AcDbEntity
  8
Layer_1
 62
7
100
AcDbSpline
 70
8
 71
3
 72
8
 73
4
 74
0
 40
0
 40
0
 40
0
 40
0
 40
1
 40
1
 40
1
 40
1
 10
-20.281750
 20
211.824743
 30
0.0
 10
-19.543584
 20
212.237161
 30
0.0
 10
-18.634126
 20
212.237161
 30
0.0
 10
-17.895959
 20
211.824743
 30
0.0
  0
SPLINE
  5
195
100
AcDbEntity
  8
Layer_1
 62
7
100
AcDbSpline
 70
8
 71
3
 72
8
 73
4
 74
0
 40
0
 40
0
 40
0
 40
0
 40
1
 40
1
 40
1
 40
1
 10
-17.895959
 20
211.824743
 30
0.0
 10
-17.157793
 20
211.412326
 30
0.0
 10
-16.703064
 20
210.650147
 30
0.0
 10
-16.703064
 20
209.825312
 30
0.0
  0
LWPOLYLINE
  5
196
100
AcDbEntity
  8
Layer_1
 62
7
100
AcDbPolyline
 90
2
 70
1
 10
-16.703064
 20
144.806801
 30
0.0
 10
-16.703064
 20
144.806801
 30
0.0
  0
SPLINE
  5
197
100
AcDbEntity
  8
Layer_1
 62
7
100
AcDbSpline
 70
8
 71
3
 72
8
 73
4
 74
0
 40
0
 40
0
 40
0
 40
0
 40
1
 40
1
 40
1
 40
1
 10
-36.096266
 20
203.271333
 30
0.0
 10
-36.938546
 20
203.773604
 30
0.0
 10
-37.448709
 20
204.687235
 30
0.0
 10
-37.434431
 20
205.667800
 30
0.0
  0
SPLINE
  5
198
100
AcDbEntity
  8
Layer_1
 62
7
100
AcDbSpline
 70
8
 71
3
 72
8
 73
4
 74
0
 40
0
 40
0
 40
0
 40
0
 40
1
 40
1
 40
1
 40
1
 10
-37.434431
 20
205.667800
 30
0.0
 10
-37.420152
 20
206.648365
 30
0.0
 10
-36.883603
 20
207.546755
 30
0.0
 10
-36.027055
 20
208.024287
 30
0.0
  0
SPLINE
  5
199
100
AcDbEntity
  8
Layer_1
 62
7
100
AcDbSpline
 70
8
 71
3
 72
8
 73
4
 74
0
 40
0
 40
0
 40
0
 40
0
 40
1
 40
1
 40
1
 40
1
 10
-36.027055
 20
208.024287
 30
0.0
 10
-35.170506
 20
208.501820
 30
0.0
 10
-34.124211
 20
208.485880
 30
0.0
 10
-33.282607
 20
207.982477
 30
0.0
  0
SPLINE
  5
19a
100
AcDbEntity
  8
Layer_1
 62
7
100
AcDbSpline
 70
8
 71
3
 72
8
 73
4
 74
0
 40
0
 40
0
 40
0
 40
0
 40
1
 40
1
 40
1
 40
1
 10
-33.282607
 20
207.982477
 30
0.0
 10
-32.440327
 20
207.480206
 30
0.0
 10
-31.930164
 20
206.566575
 30
0.0
 10
-31.944443
 20
205.586010
 30
0.0
  0
SPLINE
  5
19b
100
AcDbEntity
  8
Layer_1
 62
7
100
AcDbSpline
 70
8
 71
3
 72
8
 73
4
 74
0
 40
0
 40
0
 40
0
 40
0
 40
1
 40
1
 40
1
 40
1
 10
-31.944443
 20
205.586010
 30
0.0
 10
-31.958721
 20
204.605444
 30
0.0
 10
-32.495271
 20
203.707055
 30
0.0
 10
-33.351819
 20
203.229522
 30
0.0
  0
SPLINE
  5
19c
100
AcDbEntity
  8
Layer_1
 62
7
100
AcDbSpline
 70
8
 71
3
 72
8
 73
4
 74
0
 40
0
 40
0
 40
0
 40
0
 40
1
 40
1
 40
1
 40
1
 10
-33.351819
 20
203.229522
 30
0.0
 10
-34.208367
 20
202.751990
 30
0.0
 10
-35.254662
 20
202.767930
 30
0.0
 10
-36.096266
 20
203.271333
 30
0.0
  0
LWPOLYLINE
  5
19d
100
AcDbEntity
  8
Layer_1
 62
7
100
AcDbPolyline
 90
2
 70
1
 10
-16.703064
 20
209.825312
 30
0.0
 10
-16.703064
 20
209.825312
 30
0.0
  0
SPLINE
  5
19e
100
AcDbEntity
  8
Layer_1
 62
7
100
AcDbSpline
 70
8
 71
3
 72
8
 73
4
 74
0
 40
0
 40
0
 40
0
 40
0
 40
1
 40
1
 40
1
 40
1
 10
-36.096266
 20
151.360794
 30
0.0
 10
-36.938546
 20
150.858523
 30
0.0
 10
-37.448709
 20
149.944892
 30
0.0
 10
-37.434431
 20
148.964327
 30
0.0
  0
SPLINE
  5
19f
100
AcDbEntity
  8
Layer_1
 62
7
100
AcDbSpline
 70
8
 71
3
 72
8
 73
4
 74
0
 40
0
 40
0
 40
0
 40
0
 40
1
 40
1
 40
1
 40
1
 10
-37.434431
 20
148.964327
 30
0.0
 10
-37.420152
 20
147.983762
 30
0.0
 10
-36.883603
 20
147.085373
 30
0.0
 10
-36.027055
 20
146.607840
 30
0.0
  0
SPLINE
  5
1a0
100
AcDbEntity
  8
Layer_1
 62
7
100
AcDbSpline
 70
8
 71
3
 72
8
 73
4
 74
0
 40
0
 40
0
 40
0
 40
0
 40
1
 40
1
 40
1
 40
1
 10
-36.027055
 20
146.607840
 30
0.0
 10
-35.170506
 20
146.130307
 30
0.0
 10
-34.124211
 20
146.146247
 30
0.0
 10
-33.282607
 20
146.649651
 30
0.0
  0
SPLINE
  5
1a1
100
AcDbEntity
  8
Layer_1
 62
7
100
AcDbSpline
 70
8
 71
3
 72
8
 73
4
 74
0
 40
0
 40
0
 40
0
 40
0
 40
1
 40
1
 40
1
 40
1
 10
-33.282607
 20
146.649651
 30
0.0
 10
-32.440327
 20
147.151921
 30
0.0
 10
-31.930164
 20
148.065552
 30
0.0
 10
-31.944443
 20
149.046118
 30
0.0
  0
SPLINE
  5
1a2
100
AcDbEntity
  8
Layer_1
 62
7
100
AcDbSpline
 70
8
 71
3
 72
8
 73
4
 74
0
 40
0
 40
0
 40
0
 40
0
 40
1
 40
1
 40
1
 40
1
 10
-31.944443
 20
149.046118
 30
0.0
 10
-31.958721
 20
150.026683
 30
0.0
 10
-32.495271
 20
150.925072
 30
0.0
 10
-33.351819
 20
151.402605
 30
0.0
  0
SPLINE
  5
1a3
100
AcDbEntity
  8
Layer_1
 62
7
100
AcDbSpline
 70
8
 71
3
 72
8
 73
4
 74
0
 40
0
 40
0
 40
0
 40
0
 40
1
 40
1
 40
1
 40
1
 10
-33.351819
 20
151.402605
 30
0.0
 10
-34.208367
 20
151.880138
 30
0.0
 10
-35.254662
 20
151.864198
 30
0.0
 10
-36.096266
 20
151.360794
 30
0.0
  0
LWPOLYLINE
  5
1a4
100
AcDbEntity
  8
Layer_1
 62
7
100
AcDbPolyline
 90
2
 70
1
 10
-36.096266
 20
203.271333
 30
0.0
 10
-36.096266
 20
203.271333
 30
0.0
  0
SPLINE
  5
1a5
100
AcDbEntity
  8
Layer_1
 62
7
100
AcDbSpline
 70
8
 71
3
 72
8
 73
4
 74
0
 40
0
 40
0
 40
0
 40
0
 40
1
 40
1
 40
1
 40
1
 10
-2.084414
 20
205.333178
 30
0.0
 10
-2.084414
 20
204.508343
 30
0.0
 10
-2.539143
 20
203.746165
 30
0.0
 10
-3.277309
 20
203.333747
 30
0.0
  0
SPLINE
  5
1a6
100
AcDbEntity
  8
Layer_1
 62
7
100
AcDbSpline
 70
8
 71
3
 72
8
 73
4
 74
0
 40
0
 40
0
 40
0
 40
0
 40
1
 40
1
 40
1
 40
1
 10
-3.277309
 20
203.333747
 30
0.0
 10
-4.015476
 20
202.921330
 30
0.0
 10
-4.924934
 20
202.921330
 30
0.0
 10
-5.663100
 20
203.333747
 30
0.0
  0
SPLINE
  5
1a7
100
AcDbEntity
  8
Layer_1
 62
7
100
AcDbSpline
 70
8
 71
3
 72
8
 73
4
 74
0
 40
0
 40
0
 40
0
 40
0
 40
1
 40
1
 40
1
 40
1
 10
-5.663100
 20
203.333747
 30
0.0
 10
-6.401267
 20
203.746165
 30
0.0
 10
-6.855996
 20
204.508343
 30
0.0
 10
-6.855996
 20
205.333178
 30
0.0
  0
SPLINE
  5
1a8
100
AcDbEntity
  8
Layer_1
 62
7
100
AcDbSpline
 70
8
 71
3
 72
8
 73
4
 74
0
 40
0
 40
0
 40
0
 40
0
 40
1
 40
1
 40
1
 40
1
 10
-6.855996
 20
205.333178
 30
0.0
 10
-6.855996
 20
206.158013
 30
0.0
 10
-6.401267
 20
206.920192
 30
0.0
 10
-5.663100
 20
207.332609
 30
0.0
  0
SPLINE
  5
1a9
100
AcDbEntity
  8
Layer_1
 62
7
100
AcDbSpline
 70
8
 71
3
 72
8
 73
4
 74
0
 40
0
 40
0
 40
0
 40
0
 40
1
 40
1
 40
1
 40
1
 10
-5.663100
 20
207.332609
 30
0.0
 10
-4.924934
 20
207.745027
 30
0.0
 10
-4.015476
 20
207.745027
 30
0.0
 10
-3.277309
 20
207.332609
 30
0.0
  0
SPLINE
  5
1aa
100
AcDbEntity
  8
Layer_1
 62
7
100
AcDbSpline
 70
8
 71
3
 72
8
 73
4
 74
0
 40
0
 40
0
 40
0
 40
0
 40
1
 40
1
 40
1
 40
1
 10
-3.277309
 20
207.332609
 30
0.0
 10
-2.539143
 20
206.920192
 30
0.0
 10
-2.084414
 20
206.158013
 30
0.0
 10
-2.084414
 20
205.333178
 30
0.0
  0
LWPOLYLINE
  5
1ab
100
AcDbEntity
  8
Layer_1
 62
7
100
AcDbPolyline
 90
2
 70
1
 10
-36.096266
 20
151.360794
 30
0.0
 10
-36.096266
 20
151.360794
 30
0.0
  0
SPLINE
  5
1ac
100
AcDbEntity
  8
Layer_1
 62
7
100
AcDbSpline
 70
8
 71
3
 72
8
 73
4
 74
0
 40
0
 40
0
 40
0
 40
0
 40
1
 40
1
 40
1
 40
1
 10
62.934101
 20
140.314662
 30
0.0
 10
62.934101
 20
139.489827
 30
0.0
 10
62.479372
 20
138.727648
 30
0.0
 10
61.741205
 20
138.315231
 30
0.0
  0
SPLINE
  5
1ad
100
AcDbEntity
  8
Layer_1
 62
7
100
AcDbSpline
 70
8
 71
3
 72
8
 73
4
 74
0
 40
0
 40
0
 40
0
 40
0
 40
1
 40
1
 40
1
 40
1
 10
61.741205
 20
138.315231
 30
0.0
 10
61.003039
 20
137.902813
 30
0.0
 10
60.093581
 20
137.902813
 30
0.0
 10
59.355414
 20
138.315231
 30
0.0
  0
SPLINE
  5
1ae
100
AcDbEntity
  8
Layer_1
 62
7
100
AcDbSpline
 70
8
 71
3
 72
8
 73
4
 74
0
 40
0
 40
0
 40
0
 40
0
 40
1
 40
1
 40
1
 40
1
 10
59.355414
 20
138.315231
 30
0.0
 10
58.617248
 20
138.727648
 30
0.0
 10
58.162519
 20
139.489827
 30
0.0
 10
58.162519
 20
140.314662
 30
0.0
  0
SPLINE
  5
1af
100
AcDbEntity
  8
Layer_1
 62
7
100
AcDbSpline
 70
8
 71
3
 72
8
 73
4
 74
0
 40
0
 40
0
 40
0
 40
0
 40
1
 40
1
 40
1
 40
1
 10
58.162519
 20
140.314662
 30
0.0
 10
58.162519
 20
141.139497
 30
0.0
 10
58.617248
 20
141.901676
 30
0.0
 10
59.355414
 20
142.314093
 30
0.0
  0
SPLINE
  5
1b0
100
AcDbEntity
  8
Layer_1
 62
7
100
AcDbSpline
 70
8
 71
3
 72
8
 73
4
 74
0
 40
0
 40
0
 40
0
 40
0
 40
1
 40
1
 40
1
 40
1
 10
59.355414
 20
142.314093
 30
0.0
 10
60.093581
 20
142.726510
 30
0.0
 10
61.003039
 20
142.726510
 30
0.0
 10
61.741205
 20
142.314093
 30
0.0
  0
SPLINE
  5
1b1
100
AcDbEntity
  8
Layer_1
 62
7
100
AcDbSpline
 70
8
 71
3
 72
8
 73
4
 74
0
 40
0
 40
0
 40
0
 40
0
 40
1
 40
1
 40
1
 40
1
 10
61.741205
 20
142.314093
 30
0.0
 10
62.479372
 20
141.901676
 30
0.0
 10
62.934101
 20
141.139497
 30
0.0
 10
62.934101
 20
140.314662
 30
0.0
  0
LWPOLYLINE
  5
1b2
100
AcDbEntity
  8
Layer_1
 62
7
100
AcDbPolyline
 90
2
 70
1
 10
-2.084414
 20
205.333178
 30
0.0
 10
-2.084414
 20
205.333178
 30
0.0
  0
SPLINE
  5
1b3
100
AcDbEntity
  8
Layer_1
 62
7
100
AcDbSpline
 70
8
 71
3
 72
8
 73
4
 74
0
 40
0
 40
0
 40
0
 40
0
 40
1
 40
1
 40
1
 40
1
 10
-2.084414
 20
140.314662
 30
0.0
 10
-2.084414
 20
139.489827
 30
0.0
 10
-2.539143
 20
138.727648
 30
0.0
 10
-3.277309
 20
138.315231
 30
0.0
  0
SPLINE
  5
1b4
100
AcDbEntity
  8
Layer_1
 62
7
100
AcDbSpline
 70
8
 71
3
 72
8
 73
4
 74
0
 40
0
 40
0
 40
0
 40
0
 40
1
 40
1
 40
1
 40
1
 10
-3.277309
 20
138.315231
 30
0.0
 10
-4.015476
 20
137.902813
 30
0.0
 10
-4.924934
 20
137.902813
 30
0.0
 10
-5.663100
 20
138.315231
 30
0.0
  0
SPLINE
  5
1b5
100
AcDbEntity
  8
Layer_1
 62
7
100
AcDbSpline
 70
8
 71
3
 72
8
 73
4
 74
0
 40
0
 40
0
 40
0
 40
0
 40
1
 40
1
 40
1
 40
1
 10
-5.663100
 20
138.315231
 30
0.0
 10
-6.401267
 20
138.727648
 30
0.0
 10
-6.855996
 20
139.489827
 30
0.0
 10
-6.855996
 20
140.314662
 30
0.0
  0
SPLINE
  5
1b6
100
AcDbEntity
  8
Layer_1
 62
7
100
AcDbSpline
 70
8
 71
3
 72
8
 73
4
 74
0
 40
0
 40
0
 40
0
 40
0
 40
1
 40
1
 40
1
 40
1
 10
-6.855996
 20
140.314662
 30
0.0
 10
-6.855996
 20
141.139497
 30
0.0
 10
-6.401267
 20
141.901676
 30
0.0
 10
-5.663100
 20
142.314093
 30
0.0
  0
SPLINE
  5
1b7
100
AcDbEntity
  8
Layer_1
 62
7
100
AcDbSpline
 70
8
 71
3
 72
8
 73
4
 74
0
 40
0
 40
0
 40
0
 40
0
 40
1
 40
1
 40
1
 40
1
 10
-5.663100
 20
142.314093
 30
0.0
 10
-4.924934
 20
142.726510
 30
0.0
 10
-4.015476
 20
142.726510
 30
0.0
 10
-3.277309
 20
142.314093
 30
0.0
  0
SPLINE
  5
1b8
100
AcDbEntity
  8
Layer_1
 62
7
100
AcDbSpline
 70
8
 71
3
 72
8
 73
4
 74
0
 40
0
 40
0
 40
0
 40
0
 40
1
 40
1
 40
1
 40
1
 10
-3.277309
 20
142.314093
 30
0.0
 10
-2.539143
 20
141.901676
 30
0.0
 10
-2.084414
 20
141.139497
 30
0.0
 10
-2.084414
 20
140.314662
 30
0.0
  0
LWPOLYLINE
  5
1b9
100
AcDbEntity
  8
Layer_1
 62
7
100
AcDbPolyline
 90
2
 70
1
 10
62.934101
 20
140.314662
 30
0.0
 10
62.934101
 20
140.314662
 30
0.0
  0
SPLINE
  5
1ba
100
AcDbEntity
  8
Layer_1
 62
7
100
AcDbSpline
 70
8
 71
3
 72
8
 73
4
 74
0
 40
0
 40
0
 40
0
 40
0
 40
1
 40
1
 40
1
 40
1
 10
62.934101
 20
205.333175
 30
0.0
 10
62.934101
 20
204.508341
 30
0.0
 10
62.479372
 20
203.746162
 30
0.0
 10
61.741205
 20
203.333744
 30
0.0
  0
SPLINE
  5
1bb
100
AcDbEntity
  8
Layer_1
 62
7
100
AcDbSpline
 70
8
 71
3
 72
8
 73
4
 74
0
 40
0
 40
0
 40
0
 40
0
 40
1
 40
1
 40
1
 40
1
 10
61.741205
 20
203.333744
 30
0.0
 10
61.003039
 20
202.921327
 30
0.0
 10
60.093581
 20
202.921327
 30
0.0
 10
59.355414
 20
203.333744
 30
0.0
  0
SPLINE
  5
1bc
100
AcDbEntity
  8
Layer_1
 62
7
100
AcDbSpline
 70
8
 71
3
 72
8
 73
4
 74
0
 40
0
 40
0
 40
0
 40
0
 40
1
 40
1
 40
1
 40
1
 10
59.355414
 20
203.333744
 30
0.0
 10
58.617248
 20
203.746162
 30
0.0
 10
58.162519
 20
204.508341
 30
0.0
 10
58.162519
 20
205.333175
 30
0.0
  0
SPLINE
  5
1bd
100
AcDbEntity
  8
Layer_1
 62
7
100
AcDbSpline
 70
8
 71
3
 72
8
 73
4
 74
0
 40
0
 40
0
 40
0
 40
0
 40
1
 40
1
 40
1
 40
1
 10
58.162519
 20
205.333175
 30
0.0
 10
58.162519
 20
206.158010
 30
0.0
 10
58.617248
 20
206.920189
 30
0.0
 10
59.355414
 20
207.332607
 30
0.0
  0
SPLINE
  5
1be
100
AcDbEntity
  8
Layer_1
 62
7
100
AcDbSpline
 70
8
 71
3
 72
8
 73
4
 74
0
 40
0
 40
0
 40
0
 40
0
 40
1
 40
1
 40
1
 40
1
 10
59.355414
 20
207.332607
 30
0.0
 10
60.093581
 20
207.745024
 30
0.0
 10
61.003039
 20
207.745024
 30
0.0
 10
61.741205
 20
207.332607
 30
0.0
  0
SPLINE
  5
1bf
100
AcDbEntity
  8
Layer_1
 62
7
100
AcDbSpline
 70
8
 71
3
 72
8
 73
4
 74
0
 40
0
 40
0
 40
0
 40
0
 40
1
 40
1
 40
1
 40
1
 10
61.741205
 20
207.332607
 30
0.0
 10
62.479372
 20
206.920189
 30
0.0
 10
62.934101
 20
206.158010
 30
0.0
 10
62.934101
 20
205.333175
 30
0.0
  0
LWPOLYLINE
  5
1c0
100
AcDbEntity
  8
Layer_1
 62
7
100
AcDbPolyline
 90
2
 70
1
 10
-2.084414
 20
140.314662
 30
0.0
 10
-2.084414
 20
140.314662
 30
0.0
  0
SPLINE
  5
1c1
100
AcDbEntity
  8
Layer_1
 62
7
100
AcDbSpline
 70
8
 71
3
 72
8
 73
4
 74
0
 40
0
 40
0
 40
0
 40
0
 40
1
 40
1
 40
1
 40
1
 10
-2.191546
 20
172.823924
 30
0.0
 10
-2.190886
 20
171.843255
 30
0.0
 10
-2.713688
 20
170.936797
 30
0.0
 10
-3.562863
 20
170.446272
 30
0.0
  0
SPLINE
  5
1c2
100
AcDbEntity
  8
Layer_1
 62
7
100
AcDbSpline
 70
8
 71
3
 72
8
 73
4
 74
0
 40
0
 40
0
 40
0
 40
0
 40
1
 40
1
 40
1
 40
1
 10
-3.562863
 20
170.446272
 30
0.0
 10
-4.412037
 20
169.955747
 30
0.0
 10
-5.458454
 20
169.955747
 30
0.0
 10
-6.307628
 20
170.446272
 30
0.0
  0
SPLINE
  5
1c3
100
AcDbEntity
  8
Layer_1
 62
7
100
AcDbSpline
 70
8
 71
3
 72
8
 73
4
 74
0
 40
0
 40
0
 40
0
 40
0
 40
1
 40
1
 40
1
 40
1
 10
-6.307628
 20
170.446272
 30
0.0
 10
-7.156803
 20
170.936797
 30
0.0
 10
-7.679605
 20
171.843255
 30
0.0
 10
-7.678945
 20
172.823924
 30
0.0
  0
SPLINE
  5
1c4
100
AcDbEntity
  8
Layer_1
 62
7
100
AcDbSpline
 70
8
 71
3
 72
8
 73
4
 74
0
 40
0
 40
0
 40
0
 40
0
 40
1
 40
1
 40
1
 40
1
 10
-7.678945
 20
172.823924
 30
0.0
 10
-7.679605
 20
173.804593
 30
0.0
 10
-7.156803
 20
174.711051
 30
0.0
 10
-6.307628
 20
175.201576
 30
0.0
  0
SPLINE
  5
1c5
100
AcDbEntity
  8
Layer_1
 62
7
100
AcDbSpline
 70
8
 71
3
 72
8
 73
4
 74
0
 40
0
 40
0
 40
0
 40
0
 40
1
 40
1
 40
1
 40
1
 10
-6.307628
 20
175.201576
 30
0.0
 10
-5.458454
 20
175.692101
 30
0.0
 10
-4.412037
 20
175.692101
 30
0.0
 10
-3.562863
 20
175.201576
 30
0.0
  0
SPLINE
  5
1c6
100
AcDbEntity
  8
Layer_1
 62
7
100
AcDbSpline
 70
8
 71
3
 72
8
 73
4
 74
0
 40
0
 40
0
 40
0
 40
0
 40
1
 40
1
 40
1
 40
1
 10
-3.562863
 20
175.201576
 30
0.0
 10
-2.713688
 20
174.711051
 30
0.0
 10
-2.190886
 20
173.804593
 30
0.0
 10
-2.191546
 20
172.823924
 30
0.0
  0
LWPOLYLINE
  5
1c7
100
AcDbEntity
  8
Layer_1
 62
7
100
AcDbPolyline
 90
2
 70
1
 10
62.934101
 20
205.333175
 30
0.0
 10
62.934101
 20
205.333175
 30
0.0
  0
SPLINE
  5
1c8
100
AcDbEntity
  8
Layer_1
 62
7
100
AcDbSpline
 70
8
 71
3
 72
8
 73
4
 74
0
 40
0
 40
0
 40
0
 40
0
 40
1
 40
1
 40
1
 40
1
 10
44.836317
 20
217.903497
 30
0.0
 10
39.286363
 20
217.861228
 30
0.0
 10
33.896754
 20
215.060543
 30
0.0
 10
30.751664
 20
210.036552
 30
0.0
  0
SPLINE
  5
1c9
100
AcDbEntity
  8
Layer_1
 62
7
100
AcDbSpline
 70
8
 71
3
 72
8
 73
4
 74
0
 40
0
 40
0
 40
0
 40
0
 40
1
 40
1
 40
1
 40
1
 10
30.751664
 20
210.036552
 30
0.0
 10
29.798950
 20
210.085179
 30
0.0
 10
28.888504
 20
210.115927
 30
0.0
 10
28.044094
 20
210.115927
 30
0.0
  0
SPLINE
  5
1ca
100
AcDbEntity
  8
Layer_1
 62
7
100
AcDbSpline
 70
8
 71
3
 72
8
 73
4
 74
0
 40
0
 40
0
 40
0
 40
0
 40
1
 40
1
 40
1
 40
1
 10
28.044094
 20
210.115927
 30
0.0
 10
20.584410
 20
210.115927
 30
0.0
 10
8.346766
 20
208.054698
 30
0.0
 10
1.135969
 20
206.711622
 30
0.0
  0
SPLINE
  5
1cb
100
AcDbEntity
  8
Layer_1
 62
7
100
AcDbSpline
 70
8
 71
3
 72
8
 73
4
 74
0
 40
0
 40
0
 40
0
 40
0
 40
1
 40
1
 40
1
 40
1
 10
1.135969
 20
206.711622
 30
0.0
 10
0.521252
 20
209.235764
 30
0.0
 10
-1.751021
 20
211.112525
 30
0.0
 10
-4.464379
 20
211.112525
 30
0.0
  0
SPLINE
  5
1cc
100
AcDbEntity
  8
Layer_1
 62
7
100
AcDbSpline
 70
8
 71
3
 72
8
 73
4
 74
0
 40
0
 40
0
 40
0
 40
0
 40
1
 40
1
 40
1
 40
1
 10
-4.464379
 20
211.112525
 30
0.0
 10
-7.649606
 20
211.112525
 30
0.0
 10
-10.232295
 20
208.529836
 30
0.0
 10
-10.232295
 20
205.344608
 30
0.0
  0
SPLINE
  5
1cd
100
AcDbEntity
  8
Layer_1
 62
7
100
AcDbSpline
 70
8
 71
3
 72
8
 73
4
 74
0
 40
0
 40
0
 40
0
 40
0
 40
1
 40
1
 40
1
 40
1
 10
-10.232295
 20
205.344608
 30
0.0
 10
-10.232295
 20
202.629258
 30
0.0
 10
-8.358342
 20
200.356988
 30
0.0
 10
-5.831392
 20
199.744261
 30
0.0
  0
SPLINE
  5
1ce
100
AcDbEntity
  8
Layer_1
 62
7
100
AcDbSpline
 70
8
 71
3
 72
8
 73
4
 74
0
 40
0
 40
0
 40
0
 40
0
 40
1
 40
1
 40
1
 40
1
 10
-5.831392
 20
199.744261
 30
0.0
 10
-6.833369
 20
194.365291
 30
0.0
 10
-8.235531
 20
186.187750
 30
0.0
 10
-8.882920
 20
179.283152
 30
0.0
  0
SPLINE
  5
1cf
100
AcDbEntity
  8
Layer_1
 62
7
100
AcDbSpline
 70
8
 71
3
 72
8
 73
4
 74
0
 40
0
 40
0
 40
0
 40
0
 40
1
 40
1
 40
1
 40
1
 10
-8.882920
 20
179.283152
 30
0.0
 10
-11.050511
 20
177.953733
 30
0.0
 10
-12.498892
 20
175.565281
 30
0.0
 10
-12.498892
 20
172.836139
 30
0.0
  0
SPLINE
  5
1d0
100
AcDbEntity
  8
Layer_1
 62
7
100
AcDbSpline
 70
8
 71
3
 72
8
 73
4
 74
0
 40
0
 40
0
 40
0
 40
0
 40
1
 40
1
 40
1
 40
1
 10
-12.498892
 20
172.836139
 30
0.0
 10
-12.498892
 20
170.106996
 30
0.0
 10
-11.050511
 20
167.709724
 30
0.0
 10
-8.882920
 20
166.380305
 30
0.0
  0
SPLINE
  5
1d1
100
AcDbEntity
  8
Layer_1
 62
7
100
AcDbSpline
 70
8
 71
3
 72
8
 73
4
 74
0
 40
0
 40
0
 40
0
 40
0
 40
1
 40
1
 40
1
 40
1
 10
-8.882920
 20
166.380305
 30
0.0
 10
-8.237856
 20
159.476983
 30
0.0
 10
-6.841570
 20
151.308558
 30
0.0
 10
-5.840212
 20
145.928014
 30
0.0
  0
SPLINE
  5
1d2
100
AcDbEntity
  8
Layer_1
 62
7
100
AcDbSpline
 70
8
 71
3
 72
8
 73
4
 74
0
 40
0
 40
0
 40
0
 40
0
 40
1
 40
1
 40
1
 40
1
 10
-5.840212
 20
145.928014
 30
0.0
 10
-8.363264
 20
145.312524
 30
0.0
 10
-10.232295
 20
143.040251
 30
0.0
 10
-10.232295
 20
140.327655
 30
0.0
  0
SPLINE
  5
1d3
100
AcDbEntity
  8
Layer_1
 62
7
100
AcDbSpline
 70
8
 71
3
 72
8
 73
4
 74
0
 40
0
 40
0
 40
0
 40
0
 40
1
 40
1
 40
1
 40
1
 10
-10.232295
 20
140.327655
 30
0.0
 10
-10.232295
 20
137.142439
 30
0.0
 10
-7.649606
 20
134.559738
 30
0.0
 10
-4.464379
 20
134.559738
 30
0.0
  0
SPLINE
  5
1d4
100
AcDbEntity
  8
Layer_1
 62
7
100
AcDbSpline
 70
8
 71
3
 72
8
 73
4
 74
0
 40
0
 40
0
 40
0
 40
0
 40
1
 40
1
 40
1
 40
1
 10
-4.464379
 20
134.559738
 30
0.0
 10
-1.751794
 20
134.559738
 30
0.0
 10
0.520479
 20
136.428783
 30
0.0
 10
1.135969
 20
138.951822
 30
0.0
  0
SPLINE
  5
1d5
100
AcDbEntity
  8
Layer_1
 62
7
100
AcDbSpline
 70
8
 71
3
 72
8
 73
4
 74
0
 40
0
 40
0
 40
0
 40
0
 40
1
 40
1
 40
1
 40
1
 10
1.135969
 20
138.951822
 30
0.0
 10
8.348062
 20
137.609601
 30
0.0
 10
20.585900
 20
135.556350
 30
0.0
 10
28.044094
 20
135.556350
 30
0.0
  0
SPLINE
  5
1d6
100
AcDbEntity
  8
Layer_1
 62
7
100
AcDbSpline
 70
8
 71
3
 72
8
 73
4
 74
0
 40
0
 40
0
 40
0
 40
0
 40
1
 40
1
 40
1
 40
1
 10
28.044094
 20
135.556350
 30
0.0
 10
28.885752
 20
135.556350
 30
0.0
 10
29.793542
 20
135.578645
 30
0.0
 10
30.742845
 20
135.626905
 30
0.0
  0
SPLINE
  5
1d7
100
AcDbEntity
  8
Layer_1
 62
7
100
AcDbSpline
 70
8
 71
3
 72
8
 73
4
 74
0
 40
0
 40
0
 40
0
 40
0
 40
1
 40
1
 40
1
 40
1
 10
30.742845
 20
135.626905
 30
0.0
 10
35.567453
 20
127.915324
 30
0.0
 10
45.694453
 20
125.437272
 30
0.0
 10
53.541109
 20
130.123572
 30
0.0
  0
SPLINE
  5
1d8
100
AcDbEntity
  8
Layer_1
 62
7
100
AcDbSpline
 70
8
 71
3
 72
8
 73
4
 74
0
 40
0
 40
0
 40
0
 40
0
 40
1
 40
1
 40
1
 40
1
 10
53.541109
 20
130.123572
 30
0.0
 10
55.628469
 20
131.370204
 30
0.0
 10
57.343472
 20
133.008673
 30
0.0
 10
58.656387
 20
134.877238
 30
0.0
  0
SPLINE
  5
1d9
100
AcDbEntity
  8
Layer_1
 62
7
100
AcDbSpline
 70
8
 71
3
 72
8
 73
4
 74
0
 40
0
 40
0
 40
0
 40
0
 40
1
 40
1
 40
1
 40
1
 10
58.656387
 20
134.877238
 30
0.0
 10
59.250758
 20
134.670285
 30
0.0
 10
59.887290
 20
134.559738
 30
0.0
 10
60.552567
 20
134.559738
 30
0.0
  0
SPLINE
  5
1da
100
AcDbEntity
  8
Layer_1
 62
7
100
AcDbSpline
 70
8
 71
3
 72
8
 73
4
 74
0
 40
0
 40
0
 40
0
 40
0
 40
1
 40
1
 40
1
 40
1
 10
60.552567
 20
134.559738
 30
0.0
 10
63.737795
 20
134.559738
 30
0.0
 10
66.320484
 20
137.142439
 30
0.0
 10
66.320484
 20
140.327655
 30
0.0
  0
SPLINE
  5
1db
100
AcDbEntity
  8
Layer_1
 62
7
100
AcDbSpline
 70
8
 71
3
 72
8
 73
4
 74
0
 40
0
 40
0
 40
0
 40
0
 40
1
 40
1
 40
1
 40
1
 10
66.320484
 20
140.327655
 30
0.0
 10
66.320484
 20
143.037968
 30
0.0
 10
64.448236
 20
145.310255
 30
0.0
 10
61.928400
 20
145.928014
 30
0.0
  0
SPLINE
  5
1dc
100
AcDbEntity
  8
Layer_1
 62
7
100
AcDbSpline
 70
8
 71
3
 72
8
 73
4
 74
0
 40
0
 40
0
 40
0
 40
0
 40
1
 40
1
 40
1
 40
1
 10
61.928400
 20
145.928014
 30
0.0
 10
63.270621
 20
153.140107
 30
0.0
 10
65.323887
 20
165.377942
 30
0.0
 10
65.323887
 20
172.836139
 30
0.0
  0
SPLINE
  5
1dd
100
AcDbEntity
  8
Layer_1
 62
7
100
AcDbSpline
 70
8
 71
3
 72
8
 73
4
 74
0
 40
0
 40
0
 40
0
 40
0
 40
1
 40
1
 40
1
 40
1
 10
65.323887
 20
172.836139
 30
0.0
 10
65.323887
 20
180.294335
 30
0.0
 10
63.270621
 20
192.532168
 30
0.0
 10
61.928400
 20
199.744261
 30
0.0
  0
SPLINE
  5
1de
100
AcDbEntity
  8
Layer_1
 62
7
100
AcDbSpline
 70
8
 71
3
 72
8
 73
4
 74
0
 40
0
 40
0
 40
0
 40
0
 40
1
 40
1
 40
1
 40
1
 10
61.928400
 20
199.744261
 30
0.0
 10
64.448041
 20
200.362158
 30
0.0
 10
66.320484
 20
202.634445
 30
0.0
 10
66.320484
 20
205.344608
 30
0.0
  0
SPLINE
  5
1df
100
AcDbEntity
  8
Layer_1
 62
7
100
AcDbSpline
 70
8
 71
3
 72
8
 73
4
 74
0
 40
0
 40
0
 40
0
 40
0
 40
1
 40
1
 40
1
 40
1
 10
66.320484
 20
205.344608
 30
0.0
 10
66.320484
 20
208.529836
 30
0.0
 10
63.737795
 20
211.112525
 30
0.0
 10
60.552567
 20
211.112525
 30
0.0
  0
SPLINE
  5
1e0
100
AcDbEntity
  8
Layer_1
 62
7
100
AcDbSpline
 70
8
 71
3
 72
8
 73
4
 74
0
 40
0
 40
0
 40
0
 40
0
 40
1
 40
1
 40
1
 40
1
 10
60.552567
 20
211.112525
 30
0.0
 10
59.887759
 20
211.112525
 30
0.0
 10
59.250540
 20
210.993461
 30
0.0
 10
58.656387
 20
210.786205
 30
0.0
  0
SPLINE
  5
1e1
100
AcDbEntity
  8
Layer_1
 62
7
100
AcDbSpline
 70
8
 71
3
 72
8
 73
4
 74
0
 40
0
 40
0
 40
0
 40
0
 40
1
 40
1
 40
1
 40
1
 10
58.656387
 20
210.786205
 30
0.0
 10
57.343791
 20
212.653308
 30
0.0
 10
55.627146
 20
214.285213
 30
0.0
 10
53.541109
 20
215.531066
 30
0.0
  0
SPLINE
  5
1e2
100
AcDbEntity
  8
Layer_1
 62
7
100
AcDbSpline
 70
8
 71
3
 72
8
 73
4
 74
0
 40
0
 40
0
 40
0
 40
0
 40
1
 40
1
 40
1
 40
1
 10
53.541109
 20
215.531066
 30
0.0
 10
50.808986
 20
217.162785
 30
0.0
 10
47.801818
 20
217.926083
 30
0.0
 10
44.836317
 20
217.903497
 30
0.0
  0
LWPOLYLINE
  5
1e3
100
AcDbEntity
  8
Layer_1
 62
7
100
AcDbPolyline
 90
2
 70
1
 10
-2.191546
 20
172.823924
 30
0.0
 10
-2.191546
 20
172.823924
 30
0.0
  0
SPLINE
  5
1e4
100
AcDbEntity
  8
Layer_1
 62
7
100
AcDbSpline
 70
8
 71
3
 72
8
 73
4
 74
0
 40
0
 40
0
 40
0
 40
0
 40
1
 40
1
 40
1
 40
1
 10
62.935004
 20
140.320151
 30
0.0
 10
62.935004
 20
139.495316
 30
0.0
 10
62.480275
 20
138.733137
 30
0.0
 10
61.742108
 20
138.320720
 30
0.0
  0
SPLINE
  5
1e5
100
AcDbEntity
  8
Layer_1
 62
7
100
AcDbSpline
 70
8
 71
3
 72
8
 73
4
 74
0
 40
0
 40
0
 40
0
 40
0
 40
1
 40
1
 40
1
 40
1
 10
61.742108
 20
138.320720
 30
0.0
 10
61.003942
 20
137.908302
 30
0.0
 10
60.094484
 20
137.908302
 30
0.0
 10
59.356318
 20
138.320720
 30
0.0
  0
SPLINE
  5
1e6
100
AcDbEntity
  8
Layer_1
 62
7
100
AcDbSpline
 70
8
 71
3
 72
8
 73
4
 74
0
 40
0
 40
0
 40
0
 40
0
 40
1
 40
1
 40
1
 40
1
 10
59.356318
 20
138.320720
 30
0.0
 10
58.618151
 20
138.733137
 30
0.0
 10
58.163422
 20
139.495316
 30
0.0
 10
58.163422
 20
140.320151
 30
0.0
  0
SPLINE
  5
1e7
100
AcDbEntity
  8
Layer_1
 62
7
100
AcDbSpline
 70
8
 71
3
 72
8
 73
4
 74
0
 40
0
 40
0
 40
0
 40
0
 40
1
 40
1
 40
1
 40
1
 10
58.163422
 20
140.320151
 30
0.0
 10
58.163422
 20
141.144986
 30
0.0
 10
58.618151
 20
141.907165
 30
0.0
 10
59.356318
 20
142.319582
 30
0.0
  0
SPLINE
  5
1e8
100
AcDbEntity
  8
Layer_1
 62
7
100
AcDbSpline
 70
8
 71
3
 72
8
 73
4
 74
0
 40
0
 40
0
 40
0
 40
0
 40
1
 40
1
 40
1
 40
1
 10
59.356318
 20
142.319582
 30
0.0
 10
60.094484
 20
142.732000
 30
0.0
 10
61.003942
 20
142.732000
 30
0.0
 10
61.742108
 20
142.319582
 30
0.0
  0
SPLINE
  5
1e9
100
AcDbEntity
  8
Layer_1
 62
7
100
AcDbSpline
 70
8
 71
3
 72
8
 73
4
 74
0
 40
0
 40
0
 40
0
 40
0
 40
1
 40
1
 40
1
 40
1
 10
61.742108
 20
142.319582
 30
0.0
 10
62.480275
 20
141.907165
 30
0.0
 10
62.935004
 20
141.144986
 30
0.0
 10
62.935004
 20
140.320151
 30
0.0
  0
LWPOLYLINE
  5
1ea
100
AcDbEntity
  8
Layer_1
 62
7
100
AcDbPolyline
 90
2
 70
1
 10
44.836317
 20
217.903497
 30
0.0
 10
44.836317
 20
217.903497
 30
0.0
  0
SPLINE
  5
1eb
100
AcDbEntity
  8
Layer_1
 62
7
100
AcDbSpline
 70
8
 71
3
 72
8
 73
4
 74
0
 40
0
 40
0
 40
0
 40
0
 40
1
 40
1
 40
1
 40
1
 10
62.935004
 20
205.338662
 30
0.0
 10
62.935004
 20
204.513827
 30
0.0
 10
62.480275
 20
203.751648
 30
0.0
 10
61.742108
 20
203.339231
 30
0.0
  0
SPLINE
  5
1ec
100
AcDbEntity
  8
Layer_1
 62
7
100
AcDbSpline
 70
8
 71
3
 72
8
 73
4
 74
0
 40
0
 40
0
 40
0
 40
0
 40
1
 40
1
 40
1
 40
1
 10
61.742108
 20
203.339231
 30
0.0
 10
61.003942
 20
202.926813
 30
0.0
 10
60.094484
 20
202.926813
 30
0.0
 10
59.356318
 20
203.339231
 30
0.0
  0
SPLINE
  5
1ed
100
AcDbEntity
  8
Layer_1
 62
7
100
AcDbSpline
 70
8
 71
3
 72
8
 73
4
 74
0
 40
0
 40
0
 40
0
 40
0
 40
1
 40
1
 40
1
 40
1
 10
59.356318
 20
203.339231
 30
0.0
 10
58.618151
 20
203.751648
 30
0.0
 10
58.163422
 20
204.513827
 30
0.0
 10
58.163422
 20
205.338662
 30
0.0
  0
SPLINE
  5
1ee
100
AcDbEntity
  8
Layer_1
 62
7
100
AcDbSpline
 70
8
 71
3
 72
8
 73
4
 74
0
 40
0
 40
0
 40
0
 40
0
 40
1
 40
1
 40
1
 40
1
 10
58.163422
 20
205.338662
 30
0.0
 10
58.163422
 20
206.163497
 30
0.0
 10
58.618151
 20
206.925676
 30
0.0
 10
59.356318
 20
207.338093
 30
0.0
  0
SPLINE
  5
1ef
100
AcDbEntity
  8
Layer_1
 62
7
100
AcDbSpline
 70
8
 71
3
 72
8
 73
4
 74
0
 40
0
 40
0
 40
0
 40
0
 40
1
 40
1
 40
1
 40
1
 10
59.356318
 20
207.338093
 30
0.0
 10
60.094484
 20
207.750510
 30
0.0
 10
61.003942
 20
207.750510
 30
0.0
 10
61.742108
 20
207.338093
 30
0.0
  0
SPLINE
  5
1f0
100
AcDbEntity
  8
Layer_1
 62
7
100
AcDbSpline
 70
8
 71
3
 72
8
 73
4
 74
0
 40
0
 40
0
 40
0
 40
0
 40
1
 40
1
 40
1
 40
1
 10
61.742108
 20
207.338093
 30
0.0
 10
62.480275
 20
206.925676
 30
0.0
 10
62.935004
 20
206.163497
 30
0.0
 10
62.935004
 20
205.338662
 30
0.0
  0
LWPOLYLINE
  5
1f1
100
AcDbEntity
  8
Layer_1
 62
7
100
AcDbPolyline
 90
2
 70
1
 10
62.935004
 20
140.320151
 30
0.0
 10
62.935004
 20
140.320151
 30
0.0
  0
SPLINE
  5
1f2
100
AcDbEntity
  8
Layer_1
 62
7
100
AcDbSpline
 70
8
 71
3
 72
8
 73
4
 74
0
 40
0
 40
0
 40
0
 40
0
 40
1
 40
1
 40
1
 40
1
 10
35.445383
 20
172.829415
 30
0.0
 10
35.447164
 20
170.182525
 30
0.0
 10
34.036087
 20
167.735935
 30
0.0
 10
31.744110
 20
166.411976
 30
0.0
  0
SPLINE
  5
1f3
100
AcDbEntity
  8
Layer_1
 62
7
100
AcDbSpline
 70
8
 71
3
 72
8
 73
4
 74
0
 40
0
 40
0
 40
0
 40
0
 40
1
 40
1
 40
1
 40
1
 10
31.744110
 20
166.411976
 30
0.0
 10
29.452132
 20
165.088017
 30
0.0
 10
26.627784
 20
165.088017
 30
0.0
 10
24.335807
 20
166.411976
 30
0.0
  0
SPLINE
  5
1f4
100
AcDbEntity
  8
Layer_1
 62
7
100
AcDbSpline
 70
8
 71
3
 72
8
 73
4
 74
0
 40
0
 40
0
 40
0
 40
0
 40
1
 40
1
 40
1
 40
1
 10
24.335807
 20
166.411976
 30
0.0
 10
22.043829
 20
167.735935
 30
0.0
 10
20.632752
 20
170.182525
 30
0.0
 10
20.634533
 20
172.829415
 30
0.0
  0
SPLINE
  5
1f5
100
AcDbEntity
  8
Layer_1
 62
7
100
AcDbSpline
 70
8
 71
3
 72
8
 73
4
 74
0
 40
0
 40
0
 40
0
 40
0
 40
1
 40
1
 40
1
 40
1
 10
20.634533
 20
172.829415
 30
0.0
 10
20.632752
 20
175.476305
 30
0.0
 10
22.043829
 20
177.922895
 30
0.0
 10
24.335807
 20
179.246854
 30
0.0
  0
SPLINE
  5
1f6
100
AcDbEntity
  8
Layer_1
 62
7
100
AcDbSpline
 70
8
 71
3
 72
8
 73
4
 74
0
 40
0
 40
0
 40
0
 40
0
 40
1
 40
1
 40
1
 40
1
 10
24.335807
 20
179.246854
 30
0.0
 10
26.627784
 20
180.570814
 30
0.0
 10
29.452132
 20
180.570814
 30
0.0
 10
31.744110
 20
179.246854
 30
0.0
  0
SPLINE
  5
1f7
100
AcDbEntity
  8
Layer_1
 62
7
100
AcDbSpline
 70
8
 71
3
 72
8
 73
4
 74
0
 40
0
 40
0
 40
0
 40
0
 40
1
 40
1
 40
1
 40
1
 10
31.744110
 20
179.246854
 30
0.0
 10
34.036087
 20
177.922895
 30
0.0
 10
35.447164
 20
175.476305
 30
0.0
 10
35.445383
 20
172.829415
 30
0.0
  0
LWPOLYLINE
  5
1f8
100
AcDbEntity
  8
Layer_1
 62
7
100
AcDbPolyline
 90
2
 70
1
 10
62.935004
 20
205.338662
 30
0.0
 10
62.935004
 20
205.338662
 30
0.0
  0
SPLINE
  5
1f9
100
AcDbEntity
  8
Layer_1
 62
7
100
AcDbSpline
 70
8
 71
3
 72
8
 73
4
 74
0
 40
0
 40
0
 40
0
 40
0
 40
1
 40
1
 40
1
 40
1
 10
43.541802
 20
198.784683
 30
0.0
 10
42.699521
 20
199.286953
 30
0.0
 10
42.189358
 20
200.200584
 30
0.0
 10
42.203637
 20
201.181150
 30
0.0
  0
SPLINE
  5
1fa
100
AcDbEntity
  8
Layer_1
 62
7
100
AcDbSpline
 70
8
 71
3
 72
8
 73
4
 74
0
 40
0
 40
0
 40
0
 40
0
 40
1
 40
1
 40
1
 40
1
 10
42.203637
 20
201.181150
 30
0.0
 10
42.217916
 20
202.161715
 30
0.0
 10
42.754465
 20
203.060104
 30
0.0
 10
43.611013
 20
203.537637
 30
0.0
  0
SPLINE
  5
1fb
100
AcDbEntity
  8
Layer_1
 62
7
100
AcDbSpline
 70
8
 71
3
 72
8
 73
4
 74
0
 40
0
 40
0
 40
0
 40
0
 40
1
 40
1
 40
1
 40
1
 10
43.611013
 20
203.537637
 30
0.0
 10
44.467561
 20
204.015170
 30
0.0
 10
45.513857
 20
203.999230
 30
0.0
 10
46.355461
 20
203.495826
 30
0.0
  0
SPLINE
  5
1fc
100
AcDbEntity
  8
Layer_1
 62
7
100
AcDbSpline
 70
8
 71
3
 72
8
 73
4
 74
0
 40
0
 40
0
 40
0
 40
0
 40
1
 40
1
 40
1
 40
1
 10
46.355461
 20
203.495826
 30
0.0
 10
47.197741
 20
202.993556
 30
0.0
 10
47.707904
 20
202.079925
 30
0.0
 10
47.693625
 20
201.099359
 30
0.0
  0
SPLINE
  5
1fd
100
AcDbEntity
  8
Layer_1
 62
7
100
AcDbSpline
 70
8
 71
3
 72
8
 73
4
 74
0
 40
0
 40
0
 40
0
 40
0
 40
1
 40
1
 40
1
 40
1
 10
47.693625
 20
201.099359
 30
0.0
 10
47.679346
 20
200.118794
 30
0.0
 10
47.142797
 20
199.220405
 30
0.0
 10
46.286249
 20
198.742872
 30
0.0
  0
SPLINE
  5
1fe
100
AcDbEntity
  8
Layer_1
 62
7
100
AcDbSpline
 70
8
 71
3
 72
8
 73
4
 74
0
 40
0
 40
0
 40
0
 40
0
 40
1
 40
1
 40
1
 40
1
 10
46.286249
 20
198.742872
 30
0.0
 10
45.429701
 20
198.265339
 30
0.0
 10
44.383406
 20
198.281279
 30
0.0
 10
43.541802
 20
198.784683
 30
0.0
  0
LWPOLYLINE
  5
1ff
100
AcDbEntity
  8
Layer_1
 62
7
100
AcDbPolyline
 90
2
 70
1
 10
35.445383
 20
172.829415
 30
0.0
 10
35.445383
 20
172.829415
 30
0.0
  0
SPLINE
  5
200
100
AcDbEntity
  8
Layer_1
 62
7
100
AcDbSpline
 70
8
 71
3
 72
8
 73
4
 74
0
 40
0
 40
0
 40
0
 40
0
 40
1
 40
1
 40
1
 40
1
 10
43.541802
 20
146.874144
 30
0.0
 10
42.699521
 20
146.371873
 30
0.0
 10
42.189358
 20
145.458242
 30
0.0
 10
42.203637
 20
144.477677
 30
0.0
  0
SPLINE
  5
201
100
AcDbEntity
  8
Layer_1
 62
7
100
AcDbSpline
 70
8
 71
3
 72
8
 73
4
 74
0
 40
0
 40
0
 40
0
 40
0
 40
1
 40
1
 40
1
 40
1
 10
42.203637
 20
144.477677
 30
0.0
 10
42.217916
 20
143.497111
 30
0.0
 10
42.754465
 20
142.598722
 30
0.0
 10
43.611013
 20
142.121190
 30
0.0
  0
SPLINE
  5
202
100
AcDbEntity
  8
Layer_1
 62
7
100
AcDbSpline
 70
8
 71
3
 72
8
 73
4
 74
0
 40
0
 40
0
 40
0
 40
0
 40
1
 40
1
 40
1
 40
1
 10
43.611013
 20
142.121190
 30
0.0
 10
44.467561
 20
141.643657
 30
0.0
 10
45.513857
 20
141.659597
 30
0.0
 10
46.355461
 20
142.163000
 30
0.0
  0
SPLINE
  5
203
100
AcDbEntity
  8
Layer_1
 62
7
100
AcDbSpline
 70
8
 71
3
 72
8
 73
4
 74
0
 40
0
 40
0
 40
0
 40
0
 40
1
 40
1
 40
1
 40
1
 10
46.355461
 20
142.163000
 30
0.0
 10
47.197741
 20
142.665271
 30
0.0
 10
47.707904
 20
143.578902
 30
0.0
 10
47.693625
 20
144.559467
 30
0.0
  0
SPLINE
  5
204
100
AcDbEntity
  8
Layer_1
 62
7
100
AcDbSpline
 70
8
 71
3
 72
8
 73
4
 74
0
 40
0
 40
0
 40
0
 40
0
 40
1
 40
1
 40
1
 40
1
 10
47.693625
 20
144.559467
 30
0.0
 10
47.679346
 20
145.540033
 30
0.0
 10
47.142797
 20
146.438422
 30
0.0
 10
46.286249
 20
146.915954
 30
0.0
  0
SPLINE
  5
205
100
AcDbEntity
  8
Layer_1
 62
7
100
AcDbSpline
 70
8
 71
3
 72
8
 73
4
 74
0
 40
0
 40
0
 40
0
 40
0
 40
1
 40
1
 40
1
 40
1
 10
46.286249
 20
146.915954
 30
0.0
 10
45.429701
 20
147.393487
 30
0.0
 10
44.383406
 20
147.377547
 30
0.0
 10
43.541802
 20
146.874144
 30
0.0
  0
LWPOLYLINE
  5
206
100
AcDbEntity
  8
Layer_1
 62
7
100
AcDbPolyline
 90
2
 70
1
 10
43.541802
 20
198.784683
 30
0.0
 10
43.541802
 20
198.784683
 30
0.0
  0
LWPOLYLINE
  5
207
100
AcDbEntity
  8
Layer_1
 62
7
100
AcDbPolyline
 90
2
 70
1
 10
43.541802
 20
146.874144
 30
0.0
 10
43.541802
 20
146.874144
 30
0.0
  0
ENDSEC
  0
SECTION
  2
OBJECTS
  0
DICTIONARY
  5
C
330
0
100
AcDbDictionary
  3
ACAD_GROUP
350
D
  3
ACAD_MLINESTYLE
350
17
  0
DICTIONARY
  5
D
330
C
100
AcDbDictionary
  0
DICTIONARY
  5
1A
330
C
100
AcDbDictionary
  0
DICTIONARY
  5
17
330
C
100
AcDbDictionary
  3
STANDARD
350
18
  0
DICTIONARY
  5
19
330
C
100
AcDbDictionary
  0
ENDSEC
  0
EOF
