  0
SECTION
  2
HEADER
  9
$ACADVER
  1
AC1014
  9
$HANDSEED
  5
FFFF
  9
$MEASUREMENT
 70
     1
  0
ENDSEC
  0
SECTION
  2
TABLES
  0
TABLE
  2
VPORT
  5
8
330
0
100
AcDbSymbolTable
 70
     4
  0
VPORT
  5
2E
330
8
100
AcDbSymbolTableRecord
100
AcDbViewportTableRecord
  2
*ACTIVE
 70
     0
 10
0.0
 20
0.0
 11
1.0
 21
1.0
 12
210.0
 22
148.5
 13
0.0
 23
0.0
 14
10.0
 24
10.0
 15
10.0
 25
10.0
 16
0.0
 26
0.0
 36
1.0
 17
0.0
 27
0.0
 37
0.0
 40
341.0
 41
1.24
 42
50.0
 43
0.0
 44
0.0
 50
0.0
 51
0.0
 71
     0
 72
   100
 73
     1
 74
     3
 75
     0
 76
     0
 77
     0
 78
     0
  0
ENDTAB
  0
TABLE
  2
LTYPE
  5
5
330
0
100
AcDbSymbolTable
 70
     1
  0
LTYPE
  5
14
330
5
100
AcDbSymbolTableRecord
100
AcDbLinetypeTableRecord
  2
BYBLOCK
 70
     0
  3

 72
    65
 73
     0
 40
0.0
  0
LTYPE
  5
15
330
5
100
AcDbSymbolTableRecord
100
AcDbLinetypeTableRecord
  2
BYLAYER
 70
     0
  3

 72
    65
 73
     0
 40
0.0
  0
LTYPE
  5
16
330
5
100
AcDbSymbolTableRecord
100
AcDbLinetypeTableRecord
  2
CONTINUOUS
 70
     0
  3
Solid line
 72
    65
 73
     0
 40
0.0
  0
ENDTAB
  0
TABLE
  2
LAYER
  5
2
100
AcDbSymbolTable
 70
2
  0
LAYER
  5
50
100
AcDbSymbolTableRecord
100
AcDbLayerTableRecord
  2
0
 70
0
  6
CONTINUOUS
  0
LAYER
  5
51
100
AcDbSymbolTableRecord
100
AcDbLayerTableRecord
  2
Layer_1
 70
0
  6
CONTINUOUS
  0
ENDTAB
  0
TABLE
  2
STYLE
  5
3
330
0
100
AcDbSymbolTable
 70
     1
  0
STYLE
  5
11
330
3
100
AcDbSymbolTableRecord
100
AcDbTextStyleTableRecord
  2
STANDARD
 70
     0
 40
0.0
 41
1.0
 50
0.0
 71
     0
 42
2.5
  3
txt
  4

  0
ENDTAB
  0
TABLE
  2
VIEW
  5
6
330
0
100
AcDbSymbolTable
 70
     0
  0
ENDTAB
  0
TABLE
  2
UCS
  5
7
330
0
100
AcDbSymbolTable
 70
     0
  0
ENDTAB
  0
TABLE
  2
APPID
  5
9
330
0
100
AcDbSymbolTable
 70
     2
  0
APPID
  5
12
330
9
100
AcDbSymbolTableRecord
100
AcDbRegAppTableRecord
  2
ACAD
 70
     0
  0
ENDTAB
  0
TABLE
  2
DIMSTYLE
  5
A
330
0
100
AcDbSymbolTable
 70
     1
  0
DIMSTYLE
105
27
330
A
100
AcDbSymbolTableRecord
100
AcDbDimStyleTableRecord
  2
ISO-25
 70
     0
  3

  4

  5

  6

  7

 40
1.0
 41
2.5
 42
0.625
 43
3.75
 44
1.25
 45
0.0
 46
0.0
 47
0.0
 48
0.0
140
2.5
141
2.5
142
0.0
143
0.03937007874016
144
1.0
145
0.0
146
1.0
147
0.625
 71
     0
 72
     0
 73
     0
 74
     0
 75
     0
 76
     0
 77
     1
 78
     8
170
     0
171
     3
172
     1
173
     0
174
     0
175
     0
176
     0
177
     0
178
     0
270
     2
271
     2
272
     2
273
     2
274
     3
340
11
275
     0
280
     0
281
     0
282
     0
283
     0
284
     8
285
     0
286
     0
287
     3
288
     0
  0
ENDTAB
  0
TABLE
  2
BLOCK_RECORD
  5
1
330
0
100
AcDbSymbolTable
 70
     1
  0
BLOCK_RECORD
  5
1F
330
1
100
AcDbSymbolTableRecord
100
AcDbBlockTableRecord
  2
*MODEL_SPACE
  0
BLOCK_RECORD
  5
1B
330
1
100
AcDbSymbolTableRecord
100
AcDbBlockTableRecord
  2
*PAPER_SPACE
  0
ENDTAB
  0
ENDSEC
  0
SECTION
  2
BLOCKS
  0
BLOCK
  5
20
330
1F
100
AcDbEntity
  8
0
100
AcDbBlockBegin
  2
*MODEL_SPACE
 70
     0
 10
0.0
 20
0.0
 30
0.0
  3
*MODEL_SPACE
  1

  0
ENDBLK
  5
21
330
1F
100
AcDbEntity
  8
0
100
AcDbBlockEnd
  0
BLOCK
  5
1C
330
1B
100
AcDbEntity
 67
     1
  8
0
100
AcDbBlockBegin
  2
*PAPER_SPACE
  1

  0
ENDBLK
  5
1D
330
1B
100
AcDbEntity
 67
     1
  8
0
100
AcDbBlockEnd
  0
ENDSEC
  0
SECTION
  2
ENTITIES
  0
SPLINE
  5
100
100
AcDbEntity
  8
Layer_1
 62
7
100
AcDbSpline
 70
8
 71
3
 72
8
 73
4
 74
0
 40
0
 40
0
 40
0
 40
0
 40
1
 40
1
 40
1
 40
1
 10
49.842018
 20
177.248660
 30
0.0
 10
49.364335
 20
176.658808
 30
0.0
 10
49.074727
 20
175.914864
 30
0.0
 10
49.074727
 20
175.096716
 30
0.0
  0
SPLINE
  5
101
100
AcDbEntity
  8
Layer_1
 62
7
100
AcDbSpline
 70
8
 71
3
 72
8
 73
4
 74
0
 40
0
 40
0
 40
0
 40
0
 40
1
 40
1
 40
1
 40
1
 10
49.074727
 20
175.096716
 30
0.0
 10
49.074727
 20
174.278568
 30
0.0
 10
49.364335
 20
173.525805
 30
0.0
 10
49.842018
 20
172.935952
 30
0.0
  0
SPLINE
  5
102
100
AcDbEntity
  8
Layer_1
 62
7
100
AcDbSpline
 70
8
 71
3
 72
8
 73
4
 74
0
 40
0
 40
0
 40
0
 40
0
 40
1
 40
1
 40
1
 40
1
 10
55.177779
 20
172.935952
 30
0.0
 10
55.655463
 20
173.525805
 30
0.0
 10
55.945071
 20
174.278568
 30
0.0
 10
55.945071
 20
175.096716
 30
0.0
  0
SPLINE
  5
103
100
AcDbEntity
  8
Layer_1
 62
7
100
AcDbSpline
 70
8
 71
3
 72
8
 73
4
 74
0
 40
0
 40
0
 40
0
 40
0
 40
1
 40
1
 40
1
 40
1
 10
55.945071
 20
175.096716
 30
0.0
 10
55.945071
 20
175.914864
 30
0.0
 10
55.655463
 20
176.658808
 30
0.0
 10
55.177779
 20
177.248660
 30
0.0
  0
LWPOLYLINE
  5
104
100
AcDbEntity
  8
Layer_1
 62
7
100
AcDbPolyline
 90
2
 70
1
 10
49.842018
 20
172.935952
 30
0.0
 10
55.177779
 20
172.935952
 30
0.0
  0
LWPOLYLINE
  5
105
100
AcDbEntity
  8
Layer_1
 62
7
100
AcDbPolyline
 90
3
 70
1
 10
55.177779
 20
177.248660
 30
0.0
 10
49.842018
 20
177.248660
 30
0.0
 10
49.842018
 20
177.248660
 30
0.0
  0
LWPOLYLINE
  5
106
100
AcDbEntity
  8
Layer_1
 62
7
100
AcDbPolyline
 90
145
 70
1
 10
58.801197
 20
175.737462
 30
0.0
 10
59.160748
 20
175.774151
 30
0.0
 10
59.597628
 20
175.712344
 30
0.0
 10
60.410710
 20
175.361824
 30
0.0
 10
60.410710
 20
174.822780
 30
0.0
 10
59.597628
 20
174.472260
 30
0.0
 10
59.160748
 20
174.410453
 30
0.0
 10
58.801197
 20
174.447142
 30
0.0
 10
58.642306
 20
173.546571
 30
0.0
 10
58.992826
 20
173.458235
 30
0.0
 10
59.382292
 20
173.250802
 30
0.0
 10
60.026323
 20
172.643178
 30
0.0
 10
59.842032
 20
172.136871
 30
0.0
 10
58.958112
 20
172.085507
 30
0.0
 10
58.526594
 20
172.176664
 30
0.0
 10
58.201192
 20
172.334427
 30
0.0
 10
57.743992
 20
171.542511
 30
0.0
 10
58.043148
 20
171.339593
 30
0.0
 10
58.338070
 20
171.011369
 30
0.0
 10
58.735439
 20
170.220018
 30
0.0
 10
58.389152
 20
169.807409
 30
0.0
 10
57.540792
 20
170.061409
 30
0.0
 10
57.166566
 20
170.294807
 30
0.0
 10
56.914823
 20
170.554169
 30
0.0
 10
56.214066
 20
169.966300
 30
0.0
 10
56.426014
 20
169.673353
 30
0.0
 10
56.590832
 20
169.264131
 30
0.0
 10
56.693561
 20
168.384727
 30
0.0
 10
56.227048
 20
168.115204
 30
0.0
 10
55.516694
 20
168.644089
 30
0.0
 10
55.244914
 20
168.991504
 30
0.0
 10
55.097030
 20
169.321422
 30
0.0
 10
54.237663
 20
169.008438
 30
0.0
 10
54.336441
 20
168.660740
 30
0.0
 10
54.351399
 20
168.219909
 30
0.0
 10
54.147070
 20
167.358284
 30
0.0
 10
53.616492
 20
167.264869
 30
0.0
 10
53.129941
 20
168.004573
 30
0.0
 10
52.993346
 20
168.423955
 30
0.0
 10
52.967099
 20
168.784635
 30
0.0
 10
52.052699
 20
168.784635
 30
0.0
 10
52.026452
 20
168.423955
 30
0.0
 10
51.889857
 20
168.004573
 30
0.0
 10
51.403306
 20
167.264869
 30
0.0
 10
50.872728
 20
167.358284
 30
0.0
 10
50.668399
 20
168.219909
 30
0.0
 10
50.683357
 20
168.660740
 30
0.0
 10
50.782134
 20
169.008438
 30
0.0
 10
49.922768
 20
169.321422
 30
0.0
 10
49.774883
 20
168.991504
 30
0.0
 10
49.503103
 20
168.644089
 30
0.0
 10
48.792750
 20
168.115204
 30
0.0
 10
48.326237
 20
168.384727
 30
0.0
 10
48.428966
 20
169.264131
 30
0.0
 10
48.593783
 20
169.673353
 30
0.0
 10
48.805732
 20
169.966300
 30
0.0
 10
48.104974
 20
170.554169
 30
0.0
 10
47.853232
 20
170.294807
 30
0.0
 10
47.479006
 20
170.061409
 30
0.0
 10
46.630646
 20
169.807409
 30
0.0
 10
46.284359
 20
170.220018
 30
0.0
 10
46.681728
 20
171.011369
 30
0.0
 10
46.976650
 20
171.339593
 30
0.0
 10
47.275806
 20
171.542511
 30
0.0
 10
46.818606
 20
172.334427
 30
0.0
 10
46.493203
 20
172.176664
 30
0.0
 10
46.061686
 20
172.085507
 30
0.0
 10
45.177766
 20
172.136871
 30
0.0
 10
44.993474
 20
172.643178
 30
0.0
 10
45.637506
 20
173.250802
 30
0.0
 10
46.026972
 20
173.458235
 30
0.0
 10
46.377492
 20
173.546571
 30
0.0
 10
46.218601
 20
174.447142
 30
0.0
 10
45.859050
 20
174.410453
 30
0.0
 10
45.422170
 20
174.472260
 30
0.0
 10
44.609088
 20
174.822780
 30
0.0
 10
44.609088
 20
175.361824
 30
0.0
 10
45.422170
 20
175.712344
 30
0.0
 10
45.859050
 20
175.774151
 30
0.0
 10
46.218601
 20
175.737462
 30
0.0
 10
46.377492
 20
176.638033
 30
0.0
 10
46.026972
 20
176.726369
 30
0.0
 10
45.637506
 20
176.933802
 30
0.0
 10
44.993474
 20
177.541427
 30
0.0
 10
45.177766
 20
178.047733
 30
0.0
 10
46.061686
 20
178.099098
 30
0.0
 10
46.493203
 20
178.007940
 30
0.0
 10
46.818606
 20
177.850178
 30
0.0
 10
47.275806
 20
178.642093
 30
0.0
 10
46.976650
 20
178.845011
 30
0.0
 10
46.681728
 20
179.173235
 30
0.0
 10
46.284359
 20
179.964587
 30
0.0
 10
46.630646
 20
180.377195
 30
0.0
 10
47.479006
 20
180.123195
 30
0.0
 10
47.853232
 20
179.889798
 30
0.0
 10
48.104974
 20
179.630435
 30
0.0
 10
48.805732
 20
180.218304
 30
0.0
 10
48.593783
 20
180.511251
 30
0.0
 10
48.428966
 20
180.920473
 30
0.0
 10
48.326237
 20
181.799878
 30
0.0
 10
48.792750
 20
182.069400
 30
0.0
 10
49.503103
 20
181.540515
 30
0.0
 10
49.774883
 20
181.193100
 30
0.0
 10
49.922768
 20
180.863182
 30
0.0
 10
50.782134
 20
181.176167
 30
0.0
 10
50.683357
 20
181.523864
 30
0.0
 10
50.668399
 20
181.964695
 30
0.0
 10
50.872728
 20
182.826320
 30
0.0
 10
51.403306
 20
182.919735
 30
0.0
 10
51.889857
 20
182.180031
 30
0.0
 10
52.026452
 20
181.760649
 30
0.0
 10
52.052699
 20
181.399969
 30
0.0
 10
52.967099
 20
181.399969
 30
0.0
 10
52.993346
 20
181.760649
 30
0.0
 10
53.129941
 20
182.180031
 30
0.0
 10
53.616492
 20
182.919735
 30
0.0
 10
54.147070
 20
182.826320
 30
0.0
 10
54.351399
 20
181.964695
 30
0.0
 10
54.336441
 20
181.523864
 30
0.0
 10
54.237663
 20
181.176167
 30
0.0
 10
55.097030
 20
180.863182
 30
0.0
 10
55.244914
 20
181.193100
 30
0.0
 10
55.516694
 20
181.540515
 30
0.0
 10
56.227048
 20
182.069400
 30
0.0
 10
56.693561
 20
181.799878
 30
0.0
 10
56.590832
 20
180.920473
 30
0.0
 10
56.426014
 20
180.511251
 30
0.0
 10
56.214066
 20
180.218304
 30
0.0
 10
56.914823
 20
179.630435
 30
0.0
 10
57.166566
 20
179.889798
 30
0.0
 10
57.540792
 20
180.123195
 30
0.0
 10
58.389152
 20
180.377195
 30
0.0
 10
58.735439
 20
179.964587
 30
0.0
 10
58.338070
 20
179.173235
 30
0.0
 10
58.043148
 20
178.845011
 30
0.0
 10
57.743992
 20
178.642093
 30
0.0
 10
58.201192
 20
177.850178
 30
0.0
 10
58.526594
 20
178.007940
 30
0.0
 10
58.958112
 20
178.099098
 30
0.0
 10
59.842032
 20
178.047733
 30
0.0
 10
60.026323
 20
177.541427
 30
0.0
 10
59.382292
 20
176.933802
 30
0.0
 10
58.992826
 20
176.726369
 30
0.0
 10
58.642306
 20
176.638033
 30
0.0
 10
58.801197
 20
175.737462
 30
0.0
  0
SPLINE
  5
107
100
AcDbEntity
  8
Layer_1
 62
7
100
AcDbSpline
 70
8
 71
3
 72
8
 73
4
 74
0
 40
0
 40
0
 40
0
 40
0
 40
1
 40
1
 40
1
 40
1
 10
157.313940
 20
216.868552
 30
0.0
 10
157.313940
 20
215.353247
 30
0.0
 10
156.085543
 20
214.124852
 30
0.0
 10
154.570241
 20
214.124852
 30
0.0
  0
SPLINE
  5
108
100
AcDbEntity
  8
Layer_1
 62
7
100
AcDbSpline
 70
8
 71
3
 72
8
 73
4
 74
0
 40
0
 40
0
 40
0
 40
0
 40
1
 40
1
 40
1
 40
1
 10
154.570241
 20
214.124852
 30
0.0
 10
153.054936
 20
214.124852
 30
0.0
 10
151.826541
 20
215.353247
 30
0.0
 10
151.826541
 20
216.868552
 30
0.0
  0
SPLINE
  5
109
100
AcDbEntity
  8
Layer_1
 62
7
100
AcDbSpline
 70
8
 71
3
 72
8
 73
4
 74
0
 40
0
 40
0
 40
0
 40
0
 40
1
 40
1
 40
1
 40
1
 10
151.826541
 20
216.868552
 30
0.0
 10
151.826541
 20
218.383854
 30
0.0
 10
153.054936
 20
219.612251
 30
0.0
 10
154.570241
 20
219.612251
 30
0.0
  0
SPLINE
  5
10a
100
AcDbEntity
  8
Layer_1
 62
7
100
AcDbSpline
 70
8
 71
3
 72
8
 73
4
 74
0
 40
0
 40
0
 40
0
 40
0
 40
1
 40
1
 40
1
 40
1
 10
154.570241
 20
219.612251
 30
0.0
 10
156.085543
 20
219.612251
 30
0.0
 10
157.313940
 20
218.383854
 30
0.0
 10
157.313940
 20
216.868552
 30
0.0
  0
LWPOLYLINE
  5
10b
100
AcDbEntity
  8
Layer_1
 62
7
100
AcDbPolyline
 90
217
 70
1
 10
164.425723
 20
217.590190
 30
0.0
 10
164.572196
 20
217.600914
 30
0.0
 10
165.224412
 20
217.489154
 30
0.0
 10
166.029592
 20
217.156132
 30
0.0
 10
166.029592
 20
216.580963
 30
0.0
 10
165.224412
 20
216.247941
 30
0.0
 10
164.572196
 20
216.136181
 30
0.0
 10
164.425723
 20
216.146905
 30
0.0
 10
164.326381
 20
215.297698
 30
0.0
 10
164.471443
 20
215.274556
 30
0.0
 10
165.080479
 20
215.015194
 30
0.0
 10
165.786881
 20
214.505783
 30
0.0
 10
165.654236
 20
213.946136
 30
0.0
 10
164.794305
 20
213.807565
 30
0.0
 10
164.133623
 20
213.849334
 30
0.0
 10
163.993641
 20
213.893643
 30
0.0
 10
163.701259
 20
213.090156
 30
0.0
 10
163.837008
 20
213.033994
 30
0.0
 10
164.369843
 20
212.641423
 30
0.0
 10
164.939650
 20
211.982716
 30
0.0
 10
164.681416
 20
211.468790
 30
0.0
 10
163.812736
 20
211.532290
 30
0.0
 10
163.179712
 20
211.725330
 30
0.0
 10
163.053559
 20
211.800683
 30
0.0
 10
162.583659
 20
211.086378
 30
0.0
 10
162.702756
 20
211.000301
 30
0.0
 10
163.130605
 20
210.495405
 30
0.0
 10
163.533336
 20
209.722963
 30
0.0
 10
163.163625
 20
209.282414
 30
0.0
 10
162.333045
 20
209.544881
 30
0.0
 10
161.761545
 20
209.878467
 30
0.0
 10
161.655994
 20
209.980914
 30
0.0
 10
161.034259
 20
209.394174
 30
0.0
 10
161.130214
 20
209.282978
 30
0.0
 10
161.430216
 20
208.693134
 30
0.0
 10
161.643859
 20
207.848443
 30
0.0
 10
161.182708
 20
207.505261
 30
0.0
 10
160.434819
 20
207.952018
 30
0.0
 10
159.955605
 20
208.408372
 30
0.0
 10
159.876583
 20
208.532550
 30
0.0
 10
159.136314
 20
208.104983
 30
0.0
 10
159.204048
 20
207.974596
 30
0.0
 10
159.359834
 20
207.331412
 30
0.0
 10
159.373099
 20
206.460474
 30
0.0
 10
158.845061
 20
206.232721
 30
0.0
 10
158.220503
 20
206.839781
 30
0.0
 10
157.859541
 20
207.394630
 30
0.0
 10
157.811281
 20
207.533483
 30
0.0
 10
156.992272
 20
207.288232
 30
0.0
 10
157.028114
 20
207.145710
 30
0.0
 10
157.031501
 20
206.483898
 30
0.0
 10
156.843259
 20
205.633281
 30
0.0
 10
156.276839
 20
205.533374
 30
0.0
 10
155.809196
 20
206.268281
 30
0.0
 10
155.585959
 20
206.891427
 30
0.0
 10
155.571001
 20
207.037618
 30
0.0
 10
154.717561
 20
206.987947
 30
0.0
 10
154.719819
 20
206.840910
 30
0.0
 10
154.570241
 20
206.196314
 30
0.0
 10
154.190934
 20
205.412018
 30
0.0
 10
153.616894
 20
205.445321
 30
0.0
 10
153.331285
 20
206.268281
 30
0.0
 10
153.257625
 20
206.926141
 30
0.0
 10
153.276816
 20
207.071767
 30
0.0
 10
152.434948
 20
207.220216
 30
0.0
 10
152.403056
 20
207.076847
 30
0.0
 10
152.108981
 20
206.483898
 30
0.0
 10
151.559212
 20
205.808258
 30
0.0
 10
151.008314
 20
205.973076
 30
0.0
 10
150.919979
 20
206.839781
 30
0.0
 10
151.000130
 20
207.496794
 30
0.0
 10
151.052341
 20
207.634236
 30
0.0
 10
150.267481
 20
207.972903
 30
0.0
 10
150.203416
 20
207.840541
 30
0.0
 10
149.780648
 20
207.331412
 30
0.0
 10
149.089768
 20
206.800834
 30
0.0
 10
148.591645
 20
207.088418
 30
0.0
 10
148.705663
 20
207.952018
 30
0.0
 10
148.935110
 20
208.572907
 30
0.0
 10
149.017801
 20
208.694263
 30
0.0
 10
148.332001
 20
209.204803
 30
0.0
 10
148.239150
 20
209.090785
 30
0.0
 10
147.710265
 20
208.693134
 30
0.0
 10
146.915528
 20
208.336123
 30
0.0
 10
146.497274
 20
208.730670
 30
0.0
 10
146.807436
 20
209.544881
 30
0.0
 10
147.173761
 20
210.096061
 30
0.0
 10
147.282134
 20
210.195121
 30
0.0
 10
146.732648
 20
210.850158
 30
0.0
 10
146.616090
 20
210.760694
 30
0.0
 10
146.009876
 20
210.495405
 30
0.0
 10
145.154179
 20
210.331434
 30
0.0
 10
144.838090
 20
210.811776
 30
0.0
 10
145.327745
 20
211.532290
 30
0.0
 10
145.811474
 20
211.984127
 30
0.0
 10
145.939603
 20
212.055812
 30
0.0
 10
145.556063
 20
212.819787
 30
0.0
 10
145.422008
 20
212.759674
 30
0.0
 10
144.770639
 20
212.641423
 30
0.0
 10
143.900548
 20
212.678958
 30
0.0
 10
143.703839
 20
213.219414
 30
0.0
 10
144.346176
 20
213.807565
 30
0.0
 10
144.921063
 20
214.135790
 30
0.0
 10
145.062456
 20
214.175865
 30
0.0
 10
144.865183
 20
215.007856
 30
0.0
 10
144.720968
 20
214.980198
 30
0.0
 10
144.060003
 20
215.015194
 30
0.0
 10
143.221803
 20
215.252543
 30
0.0
 10
143.155199
 20
215.823761
 30
0.0
 10
143.916070
 20
216.247941
 30
0.0
 10
144.551070
 20
216.434772
 30
0.0
 10
144.697825
 20
216.440981
 30
0.0
 10
144.697825
 20
217.296114
 30
0.0
 10
144.551070
 20
217.302323
 30
0.0
 10
143.916070
 20
217.489154
 30
0.0
 10
143.155199
 20
217.913334
 30
0.0
 10
143.221803
 20
218.484552
 30
0.0
 10
144.060003
 20
218.721901
 30
0.0
 10
144.720968
 20
218.756896
 30
0.0
 10
144.865183
 20
218.729238
 30
0.0
 10
145.062456
 20
219.561230
 30
0.0
 10
144.921063
 20
219.601305
 30
0.0
 10
144.346176
 20
219.929530
 30
0.0
 10
143.703839
 20
220.517681
 30
0.0
 10
143.900548
 20
221.058136
 30
0.0
 10
144.770639
 20
221.095672
 30
0.0
 10
145.422008
 20
220.977421
 30
0.0
 10
145.556063
 20
220.917307
 30
0.0
 10
145.939603
 20
221.681283
 30
0.0
 10
145.811474
 20
221.752967
 30
0.0
 10
145.327745
 20
222.204805
 30
0.0
 10
144.838090
 20
222.925318
 30
0.0
 10
145.154179
 20
223.405661
 30
0.0
 10
146.009876
 20
223.241690
 30
0.0
 10
146.616090
 20
222.976401
 30
0.0
 10
146.732648
 20
222.886936
 30
0.0
 10
147.282134
 20
223.541974
 30
0.0
 10
147.173761
 20
223.641034
 30
0.0
 10
146.807436
 20
224.192214
 30
0.0
 10
146.497274
 20
225.006425
 30
0.0
 10
146.915528
 20
225.400972
 30
0.0
 10
147.710265
 20
225.043961
 30
0.0
 10
148.239150
 20
224.646310
 30
0.0
 10
148.332001
 20
224.532292
 30
0.0
 10
149.017801
 20
225.042832
 30
0.0
 10
148.935110
 20
225.164187
 30
0.0
 10
148.705663
 20
225.785076
 30
0.0
 10
148.591645
 20
226.648676
 30
0.0
 10
149.089768
 20
226.936261
 30
0.0
 10
149.780648
 20
226.405683
 30
0.0
 10
150.203416
 20
225.896554
 30
0.0
 10
150.267481
 20
225.764192
 30
0.0
 10
151.052341
 20
226.102858
 30
0.0
 10
151.000130
 20
226.240301
 30
0.0
 10
150.919979
 20
226.897314
 30
0.0
 10
151.008314
 20
227.764018
 30
0.0
 10
151.559212
 20
227.928836
 30
0.0
 10
152.108981
 20
227.253196
 30
0.0
 10
152.403056
 20
226.660247
 30
0.0
 10
152.434948
 20
226.516878
 30
0.0
 10
153.276816
 20
226.665327
 30
0.0
 10
153.257625
 20
226.810954
 30
0.0
 10
153.331285
 20
227.468814
 30
0.0
 10
153.616894
 20
228.291774
 30
0.0
 10
154.190934
 20
228.325076
 30
0.0
 10
154.570241
 20
227.540781
 30
0.0
 10
154.719819
 20
226.896185
 30
0.0
 10
154.717561
 20
226.749147
 30
0.0
 10
155.571001
 20
226.699476
 30
0.0
 10
155.585959
 20
226.845667
 30
0.0
 10
155.809196
 20
227.468814
 30
0.0
 10
156.276839
 20
228.203721
 30
0.0
 10
156.843259
 20
228.103814
 30
0.0
 10
157.031501
 20
227.253196
 30
0.0
 10
157.028114
 20
226.591385
 30
0.0
 10
156.992272
 20
226.448863
 30
0.0
 10
157.811281
 20
226.203612
 30
0.0
 10
157.859541
 20
226.342465
 30
0.0
 10
158.220503
 20
226.897314
 30
0.0
 10
158.845061
 20
227.504374
 30
0.0
 10
159.373099
 20
227.276621
 30
0.0
 10
159.359834
 20
226.405683
 30
0.0
 10
159.204048
 20
225.762498
 30
0.0
 10
159.136314
 20
225.632112
 30
0.0
 10
159.876583
 20
225.204545
 30
0.0
 10
159.955605
 20
225.328723
 30
0.0
 10
160.434819
 20
225.785076
 30
0.0
 10
161.182708
 20
226.231834
 30
0.0
 10
161.643859
 20
225.888652
 30
0.0
 10
161.430216
 20
225.043961
 30
0.0
 10
161.130214
 20
224.454116
 30
0.0
 10
161.034259
 20
224.342921
 30
0.0
 10
161.655994
 20
223.756181
 30
0.0
 10
161.761545
 20
223.858627
 30
0.0
 10
162.333045
 20
224.192214
 30
0.0
 10
163.163625
 20
224.454681
 30
0.0
 10
163.533336
 20
224.014132
 30
0.0
 10
163.130605
 20
223.241690
 30
0.0
 10
162.702756
 20
222.736794
 30
0.0
 10
162.583659
 20
222.650716
 30
0.0
 10
163.053559
 20
221.936412
 30
0.0
 10
163.179712
 20
222.011765
 30
0.0
 10
163.812736
 20
222.204805
 30
0.0
 10
164.681416
 20
222.268305
 30
0.0
 10
164.939650
 20
221.754378
 30
0.0
 10
164.369843
 20
221.095672
 30
0.0
 10
163.837008
 20
220.703101
 30
0.0
 10
163.701259
 20
220.646938
 30
0.0
 10
163.993641
 20
219.843452
 30
0.0
 10
164.133623
 20
219.887761
 30
0.0
 10
164.794305
 20
219.929530
 30
0.0
 10
165.654236
 20
219.790958
 30
0.0
 10
165.786881
 20
219.231312
 30
0.0
 10
165.080479
 20
218.721901
 30
0.0
 10
164.471443
 20
218.462538
 30
0.0
 10
164.326381
 20
218.439396
 30
0.0
 10
164.425723
 20
217.590190
 30
0.0
  0
LWPOLYLINE
  5
10c
100
AcDbEntity
  8
Layer_1
 62
7
100
AcDbPolyline
 90
2
 70
1
 10
157.313940
 20
216.868552
 30
0.0
 10
157.313940
 20
216.868552
 30
0.0
  0
SPLINE
  5
10d
100
AcDbEntity
  8
Layer_1
 62
7
100
AcDbSpline
 70
8
 71
3
 72
8
 73
4
 74
0
 40
0
 40
0
 40
0
 40
0
 40
1
 40
1
 40
1
 40
1
 10
19.300898
 20
213.383289
 30
0.0
 10
16.115670
 20
213.383289
 30
0.0
 10
13.532981
 20
210.800600
 30
0.0
 10
13.532981
 20
207.615373
 30
0.0
  0
SPLINE
  5
10e
100
AcDbEntity
  8
Layer_1
 62
7
100
AcDbSpline
 70
8
 71
3
 72
8
 73
4
 74
0
 40
0
 40
0
 40
0
 40
0
 40
1
 40
1
 40
1
 40
1
 10
13.532981
 20
207.615373
 30
0.0
 10
13.532981
 20
204.900022
 30
0.0
 10
15.406936
 20
202.627752
 30
0.0
 10
17.933884
 20
202.015025
 30
0.0
  0
SPLINE
  5
10f
100
AcDbEntity
  8
Layer_1
 62
7
100
AcDbSpline
 70
8
 71
3
 72
8
 73
4
 74
0
 40
0
 40
0
 40
0
 40
0
 40
1
 40
1
 40
1
 40
1
 10
17.933884
 20
202.015025
 30
0.0
 10
16.590845
 20
194.805100
 30
0.0
 10
14.529578
 20
182.568681
 30
0.0
 10
14.529578
 20
175.106900
 30
0.0
  0
SPLINE
  5
110
100
AcDbEntity
  8
Layer_1
 62
7
100
AcDbSpline
 70
8
 71
3
 72
8
 73
4
 74
0
 40
0
 40
0
 40
0
 40
0
 40
1
 40
1
 40
1
 40
1
 10
14.529578
 20
175.106900
 30
0.0
 10
14.529578
 20
167.648704
 30
0.0
 10
16.582846
 20
155.410868
 30
0.0
 10
17.925064
 20
148.198775
 30
0.0
  0
SPLINE
  5
111
100
AcDbEntity
  8
Layer_1
 62
7
100
AcDbSpline
 70
8
 71
3
 72
8
 73
4
 74
0
 40
0
 40
0
 40
0
 40
0
 40
1
 40
1
 40
1
 40
1
 10
17.925064
 20
148.198775
 30
0.0
 10
15.402014
 20
147.583285
 30
0.0
 10
13.532981
 20
145.311013
 30
0.0
 10
13.532981
 20
142.598428
 30
0.0
  0
SPLINE
  5
112
100
AcDbEntity
  8
Layer_1
 62
7
100
AcDbSpline
 70
8
 71
3
 72
8
 73
4
 74
0
 40
0
 40
0
 40
0
 40
0
 40
1
 40
1
 40
1
 40
1
 10
13.532981
 20
142.598428
 30
0.0
 10
13.532981
 20
139.413200
 30
0.0
 10
16.115670
 20
136.830511
 30
0.0
 10
19.300898
 20
136.830511
 30
0.0
  0
SPLINE
  5
113
100
AcDbEntity
  8
Layer_1
 62
7
100
AcDbSpline
 70
8
 71
3
 72
8
 73
4
 74
0
 40
0
 40
0
 40
0
 40
0
 40
1
 40
1
 40
1
 40
1
 10
19.300898
 20
136.830511
 30
0.0
 10
22.013482
 20
136.830511
 30
0.0
 10
24.285758
 20
138.699542
 30
0.0
 10
24.901245
 20
141.222595
 30
0.0
  0
SPLINE
  5
114
100
AcDbEntity
  8
Layer_1
 62
7
100
AcDbSpline
 70
8
 71
3
 72
8
 73
4
 74
0
 40
0
 40
0
 40
0
 40
0
 40
1
 40
1
 40
1
 40
1
 10
24.901245
 20
141.222595
 30
0.0
 10
32.113338
 20
139.880374
 30
0.0
 10
44.351173
 20
137.827109
 30
0.0
 10
51.809370
 20
137.827109
 30
0.0
  0
SPLINE
  5
115
100
AcDbEntity
  8
Layer_1
 62
7
100
AcDbSpline
 70
8
 71
3
 72
8
 73
4
 74
0
 40
0
 40
0
 40
0
 40
0
 40
1
 40
1
 40
1
 40
1
 10
51.809370
 20
137.827109
 30
0.0
 10
59.267566
 20
137.827109
 30
0.0
 10
71.505402
 20
139.880374
 30
0.0
 10
78.717495
 20
141.222595
 30
0.0
  0
SPLINE
  5
116
100
AcDbEntity
  8
Layer_1
 62
7
100
AcDbSpline
 70
8
 71
3
 72
8
 73
4
 74
0
 40
0
 40
0
 40
0
 40
0
 40
1
 40
1
 40
1
 40
1
 10
78.717495
 20
141.222595
 30
0.0
 10
79.333146
 20
138.699771
 30
0.0
 10
81.605421
 20
136.830511
 30
0.0
 10
84.317842
 20
136.830511
 30
0.0
  0
SPLINE
  5
117
100
AcDbEntity
  8
Layer_1
 62
7
100
AcDbSpline
 70
8
 71
3
 72
8
 73
4
 74
0
 40
0
 40
0
 40
0
 40
0
 40
1
 40
1
 40
1
 40
1
 10
84.317842
 20
136.830511
 30
0.0
 10
87.503070
 20
136.830511
 30
0.0
 10
90.085759
 20
139.413200
 30
0.0
 10
90.085759
 20
142.598428
 30
0.0
  0
SPLINE
  5
118
100
AcDbEntity
  8
Layer_1
 62
7
100
AcDbSpline
 70
8
 71
3
 72
8
 73
4
 74
0
 40
0
 40
0
 40
0
 40
0
 40
1
 40
1
 40
1
 40
1
 10
90.085759
 20
142.598428
 30
0.0
 10
90.085759
 20
145.308729
 30
0.0
 10
88.213511
 20
147.581016
 30
0.0
 10
85.693675
 20
148.198775
 30
0.0
  0
SPLINE
  5
119
100
AcDbEntity
  8
Layer_1
 62
7
100
AcDbSpline
 70
8
 71
3
 72
8
 73
4
 74
0
 40
0
 40
0
 40
0
 40
0
 40
1
 40
1
 40
1
 40
1
 10
85.693675
 20
148.198775
 30
0.0
 10
87.035896
 20
155.410868
 30
0.0
 10
89.089161
 20
167.648704
 30
0.0
 10
89.089161
 20
175.106900
 30
0.0
  0
SPLINE
  5
11a
100
AcDbEntity
  8
Layer_1
 62
7
100
AcDbSpline
 70
8
 71
3
 72
8
 73
4
 74
0
 40
0
 40
0
 40
0
 40
0
 40
1
 40
1
 40
1
 40
1
 10
89.089161
 20
175.106900
 30
0.0
 10
89.089161
 20
182.565097
 30
0.0
 10
87.035896
 20
194.802932
 30
0.0
 10
85.693675
 20
202.015025
 30
0.0
  0
SPLINE
  5
11b
100
AcDbEntity
  8
Layer_1
 62
7
100
AcDbSpline
 70
8
 71
3
 72
8
 73
4
 74
0
 40
0
 40
0
 40
0
 40
0
 40
1
 40
1
 40
1
 40
1
 10
85.693675
 20
202.015025
 30
0.0
 10
88.213316
 20
202.632923
 30
0.0
 10
90.085759
 20
204.905209
 30
0.0
 10
90.085759
 20
207.615373
 30
0.0
  0
SPLINE
  5
11c
100
AcDbEntity
  8
Layer_1
 62
7
100
AcDbSpline
 70
8
 71
3
 72
8
 73
4
 74
0
 40
0
 40
0
 40
0
 40
0
 40
1
 40
1
 40
1
 40
1
 10
90.085759
 20
207.615373
 30
0.0
 10
90.085759
 20
210.800600
 30
0.0
 10
87.503070
 20
213.383289
 30
0.0
 10
84.317842
 20
213.383289
 30
0.0
  0
SPLINE
  5
11d
100
AcDbEntity
  8
Layer_1
 62
7
100
AcDbSpline
 70
8
 71
3
 72
8
 73
4
 74
0
 40
0
 40
0
 40
0
 40
0
 40
1
 40
1
 40
1
 40
1
 10
84.317842
 20
213.383289
 30
0.0
 10
81.607679
 20
213.383289
 30
0.0
 10
79.335392
 20
211.510846
 30
0.0
 10
78.717495
 20
208.991206
 30
0.0
  0
SPLINE
  5
11e
100
AcDbEntity
  8
Layer_1
 62
7
100
AcDbSpline
 70
8
 71
3
 72
8
 73
4
 74
0
 40
0
 40
0
 40
0
 40
0
 40
1
 40
1
 40
1
 40
1
 10
78.717495
 20
208.991206
 30
0.0
 10
71.505402
 20
210.333427
 30
0.0
 10
59.267566
 20
212.386692
 30
0.0
 10
51.809370
 20
212.386692
 30
0.0
  0
SPLINE
  5
11f
100
AcDbEntity
  8
Layer_1
 62
7
100
AcDbSpline
 70
8
 71
3
 72
8
 73
4
 74
0
 40
0
 40
0
 40
0
 40
0
 40
1
 40
1
 40
1
 40
1
 10
51.809370
 20
212.386692
 30
0.0
 10
44.349683
 20
212.386692
 30
0.0
 10
32.112045
 20
210.325462
 30
0.0
 10
24.901245
 20
208.982386
 30
0.0
  0
SPLINE
  5
120
100
AcDbEntity
  8
Layer_1
 62
7
100
AcDbSpline
 70
8
 71
3
 72
8
 73
4
 74
0
 40
0
 40
0
 40
0
 40
0
 40
1
 40
1
 40
1
 40
1
 10
24.901245
 20
208.982386
 30
0.0
 10
24.286528
 20
211.506528
 30
0.0
 10
22.014255
 20
213.383289
 30
0.0
 10
19.300898
 20
213.383289
 30
0.0
  0
LWPOLYLINE
  5
121
100
AcDbEntity
  8
Layer_1
 62
7
100
AcDbPolyline
 90
433
 70
1
 10
79.463910
 20
175.955802
 30
0.0
 10
80.260906
 20
175.726355
 30
0.0
 10
81.056490
 20
175.419580
 30
0.0
 10
81.056490
 20
174.791353
 30
0.0
 10
80.260906
 20
174.484578
 30
0.0
 10
79.463910
 20
174.255131
 30
0.0
 10
79.432866
 20
173.542238
 30
0.0
 10
80.206719
 20
173.244211
 30
0.0
 10
80.972388
 20
172.869138
 30
0.0
 10
80.917637
 20
172.243451
 30
0.0
 10
80.098346
 20
172.007231
 30
0.0
 10
79.284699
 20
171.847775
 30
0.0
 10
79.191566
 20
171.140527
 30
0.0
 10
79.936350
 20
170.776178
 30
0.0
 10
80.666459
 20
170.335911
 30
0.0
 10
80.557522
 20
169.717280
 30
0.0
 10
79.720733
 20
169.553309
 30
0.0
 10
78.896079
 20
169.465538
 30
0.0
 10
78.741704
 20
168.769013
 30
0.0
 10
79.452057
 20
168.341164
 30
0.0
 10
80.140962
 20
167.838809
 30
0.0
 10
79.978402
 20
167.232031
 30
0.0
 10
79.130606
 20
167.141720
 30
0.0
 10
78.301437
 20
167.126198
 30
0.0
 10
78.086948
 20
166.445760
 30
0.0
 10
78.757226
 20
165.957515
 30
0.0
 10
79.399846
 20
165.397022
 30
0.0
 10
79.185075
 20
164.806895
 30
0.0
 10
78.332482
 20
164.790809
 30
0.0
 10
77.505288
 20
164.847535
 30
0.0
 10
77.232097
 20
164.188264
 30
0.0
 10
77.857502
 20
163.643575
 30
0.0
 10
78.448757
 20
163.029178
 30
0.0
 10
78.183468
 20
162.459935
 30
0.0
 10
77.332568
 20
162.518073
 30
0.0
 10
76.513277
 20
162.646767
 30
0.0
 10
76.183924
 20
162.014024
 30
0.0
 10
76.759375
 20
161.416842
 30
0.0
 10
77.295033
 20
160.753338
 30
0.0
 10
76.980919
 20
160.209495
 30
0.0
 10
76.138486
 20
160.341575
 30
0.0
 10
75.333588
 20
160.541107
 30
0.0
 10
74.950330
 20
159.939409
 30
0.0
 10
75.471313
 20
159.294249
 30
0.0
 10
75.947139
 20
158.586435
 30
0.0
 10
75.586742
 20
158.072227
 30
0.0
 10
74.758984
 20
158.277120
 30
0.0
 10
73.974688
 20
158.546078
 30
0.0
 10
73.540348
 20
157.980222
 30
0.0
 10
74.003193
 20
157.292164
 30
0.0
 10
74.415519
 20
156.545687
 30
0.0
 10
74.011659
 20
156.064498
 30
0.0
 10
73.205068
 20
156.340793
 30
0.0
 10
72.447019
 20
156.677202
 30
0.0
 10
71.964984
 20
156.151140
 30
0.0
 10
72.366304
 20
155.425264
 30
0.0
 10
72.711744
 20
154.645767
 30
0.0
 10
72.267808
 20
154.201831
 30
0.0
 10
71.488310
 20
154.547271
 30
0.0
 10
70.762435
 20
154.948591
 30
0.0
 10
70.236373
 20
154.466555
 30
0.0
 10
70.572782
 20
153.708507
 30
0.0
 10
70.849077
 20
152.901915
 30
0.0
 10
70.367888
 20
152.498055
 30
0.0
 10
69.621410
 20
152.910382
 30
0.0
 10
68.933353
 20
153.373227
 30
0.0
 10
68.367497
 20
152.938887
 30
0.0
 10
68.636455
 20
152.154591
 30
0.0
 10
68.841348
 20
151.326833
 30
0.0
 10
68.327139
 20
150.966435
 30
0.0
 10
67.619326
 20
151.442262
 30
0.0
 10
66.974166
 20
151.963244
 30
0.0
 10
66.372468
 20
151.579987
 30
0.0
 10
66.571999
 20
150.775089
 30
0.0
 10
66.704079
 20
149.932655
 30
0.0
 10
66.160237
 20
149.618542
 30
0.0
 10
65.496733
 20
150.154200
 30
0.0
 10
64.899550
 20
150.729651
 30
0.0
 10
64.266808
 20
150.400298
 30
0.0
 10
64.395502
 20
149.581007
 30
0.0
 10
64.453639
 20
148.730107
 30
0.0
 10
63.884397
 20
148.464818
 30
0.0
 10
63.269999
 20
149.056073
 30
0.0
 10
62.725310
 20
149.681478
 30
0.0
 10
62.066039
 20
149.408287
 30
0.0
 10
62.122766
 20
148.581093
 30
0.0
 10
62.106679
 20
147.728500
 30
0.0
 10
61.516553
 20
147.513729
 30
0.0
 10
60.956059
 20
148.156349
 30
0.0
 10
60.467815
 20
148.826627
 30
0.0
 10
59.787377
 20
148.612138
 30
0.0
 10
59.771855
 20
147.782969
 30
0.0
 10
59.681544
 20
146.935173
 30
0.0
 10
59.074766
 20
146.772613
 30
0.0
 10
58.572410
 20
147.461518
 30
0.0
 10
58.144562
 20
148.171871
 30
0.0
 10
57.448037
 20
148.017495
 30
0.0
 10
57.360266
 20
147.192842
 30
0.0
 10
57.196295
 20
146.356053
 30
0.0
 10
56.577664
 20
146.247115
 30
0.0
 10
56.137397
 20
146.977224
 30
0.0
 10
55.773048
 20
147.722009
 30
0.0
 10
55.065799
 20
147.628875
 30
0.0
 10
54.906344
 20
146.815229
 30
0.0
 10
54.670124
 20
145.995938
 30
0.0
 10
54.044437
 20
145.941187
 30
0.0
 10
53.669364
 20
146.706855
 30
0.0
 10
53.371337
 20
147.480709
 30
0.0
 10
52.658444
 20
147.449664
 30
0.0
 10
52.428997
 20
146.652669
 30
0.0
 10
52.122222
 20
145.857084
 30
0.0
 10
51.493995
 20
145.857084
 30
0.0
 10
51.187219
 20
146.652669
 30
0.0
 10
50.957773
 20
147.449664
 30
0.0
 10
50.244879
 20
147.480709
 30
0.0
 10
49.946853
 20
146.706855
 30
0.0
 10
49.571779
 20
145.941187
 30
0.0
 10
48.946093
 20
145.995938
 30
0.0
 10
48.709873
 20
146.815229
 30
0.0
 10
48.550417
 20
147.628875
 30
0.0
 10
47.843168
 20
147.722009
 30
0.0
 10
47.478819
 20
146.977224
 30
0.0
 10
47.038553
 20
146.247115
 30
0.0
 10
46.419922
 20
146.356053
 30
0.0
 10
46.255950
 20
147.192842
 30
0.0
 10
46.168179
 20
148.017495
 30
0.0
 10
45.471655
 20
148.171871
 30
0.0
 10
45.043806
 20
147.461518
 30
0.0
 10
44.541450
 20
146.772613
 30
0.0
 10
43.934673
 20
146.935173
 30
0.0
 10
43.844362
 20
147.782969
 30
0.0
 10
43.828839
 20
148.612138
 30
0.0
 10
43.148402
 20
148.826627
 30
0.0
 10
42.660157
 20
148.156349
 30
0.0
 10
42.099664
 20
147.513729
 30
0.0
 10
41.509537
 20
147.728500
 30
0.0
 10
41.493450
 20
148.581093
 30
0.0
 10
41.550177
 20
149.408287
 30
0.0
 10
40.890906
 20
149.681478
 30
0.0
 10
40.346217
 20
149.056073
 30
0.0
 10
39.731819
 20
148.464818
 30
0.0
 10
39.162577
 20
148.730107
 30
0.0
 10
39.220715
 20
149.581007
 30
0.0
 10
39.349408
 20
150.400298
 30
0.0
 10
38.716666
 20
150.729651
 30
0.0
 10
38.119484
 20
150.154200
 30
0.0
 10
37.455979
 20
149.618542
 30
0.0
 10
36.912137
 20
149.932655
 30
0.0
 10
37.044217
 20
150.775089
 30
0.0
 10
37.243748
 20
151.579987
 30
0.0
 10
36.642050
 20
151.963244
 30
0.0
 10
35.996890
 20
151.442262
 30
0.0
 10
35.289077
 20
150.966435
 30
0.0
 10
34.774868
 20
151.326833
 30
0.0
 10
34.979762
 20
152.154591
 30
0.0
 10
35.248719
 20
152.938887
 30
0.0
 10
34.682864
 20
153.373227
 30
0.0
 10
33.994806
 20
152.910382
 30
0.0
 10
33.248328
 20
152.498055
 30
0.0
 10
32.767139
 20
152.901915
 30
0.0
 10
33.043435
 20
153.708507
 30
0.0
 10
33.379844
 20
154.466555
 30
0.0
 10
32.853782
 20
154.948591
 30
0.0
 10
32.127906
 20
154.547271
 30
0.0
 10
31.348408
 20
154.201831
 30
0.0
 10
30.904473
 20
154.645767
 30
0.0
 10
31.249913
 20
155.425264
 30
0.0
 10
31.651233
 20
156.151140
 30
0.0
 10
31.169197
 20
156.677202
 30
0.0
 10
30.411148
 20
156.340793
 30
0.0
 10
29.604557
 20
156.064498
 30
0.0
 10
29.200697
 20
156.545687
 30
0.0
 10
29.613024
 20
157.292164
 30
0.0
 10
30.075868
 20
157.980222
 30
0.0
 10
29.641528
 20
158.546078
 30
0.0
 10
28.857233
 20
158.277120
 30
0.0
 10
28.029475
 20
158.072227
 30
0.0
 10
27.669077
 20
158.586435
 30
0.0
 10
28.144904
 20
159.294249
 30
0.0
 10
28.665886
 20
159.939409
 30
0.0
 10
28.282628
 20
160.541107
 30
0.0
 10
27.477730
 20
160.341575
 30
0.0
 10
26.635297
 20
160.209495
 30
0.0
 10
26.321184
 20
160.753338
 30
0.0
 10
26.856842
 20
161.416842
 30
0.0
 10
27.432293
 20
162.014024
 30
0.0
 10
27.102939
 20
162.646767
 30
0.0
 10
26.283648
 20
162.518073
 30
0.0
 10
25.432748
 20
162.459935
 30
0.0
 10
25.167459
 20
163.029178
 30
0.0
 10
25.758715
 20
163.643575
 30
0.0
 10
26.384119
 20
164.188264
 30
0.0
 10
26.110928
 20
164.847535
 30
0.0
 10
25.283735
 20
164.790809
 30
0.0
 10
24.431142
 20
164.806895
 30
0.0
 10
24.216370
 20
165.397022
 30
0.0
 10
24.858990
 20
165.957515
 30
0.0
 10
25.529268
 20
166.445760
 30
0.0
 10
25.314779
 20
167.126198
 30
0.0
 10
24.485610
 20
167.141720
 30
0.0
 10
23.637815
 20
167.232031
 30
0.0
 10
23.475255
 20
167.838809
 30
0.0
 10
24.164159
 20
168.341164
 30
0.0
 10
24.874513
 20
168.769013
 30
0.0
 10
24.720137
 20
169.465538
 30
0.0
 10
23.895484
 20
169.553309
 30
0.0
 10
23.058695
 20
169.717280
 30
0.0
 10
22.949757
 20
170.335911
 30
0.0
 10
23.679866
 20
170.776178
 30
0.0
 10
24.424650
 20
171.140527
 30
0.0
 10
24.331517
 20
171.847775
 30
0.0
 10
23.517870
 20
172.007231
 30
0.0
 10
22.698579
 20
172.243451
 30
0.0
 10
22.643828
 20
172.869138
 30
0.0
 10
23.409497
 20
173.244211
 30
0.0
 10
24.183350
 20
173.542238
 30
0.0
 10
24.152306
 20
174.255131
 30
0.0
 10
23.355310
 20
174.484578
 30
0.0
 10
22.559726
 20
174.791353
 30
0.0
 10
22.559726
 20
175.419580
 30
0.0
 10
23.355310
 20
175.726355
 30
0.0
 10
24.152306
 20
175.955802
 30
0.0
 10
24.183350
 20
176.668695
 30
0.0
 10
23.409497
 20
176.966722
 30
0.0
 10
22.643828
 20
177.341795
 30
0.0
 10
22.698579
 20
177.967482
 30
0.0
 10
23.517870
 20
178.203702
 30
0.0
 10
24.331517
 20
178.363158
 30
0.0
 10
24.424650
 20
179.070407
 30
0.0
 10
23.679866
 20
179.434755
 30
0.0
 10
22.949757
 20
179.875022
 30
0.0
 10
23.058695
 20
180.493653
 30
0.0
 10
23.895484
 20
180.657624
 30
0.0
 10
24.720137
 20
180.745395
 30
0.0
 10
24.874513
 20
181.441920
 30
0.0
 10
24.164159
 20
181.869769
 30
0.0
 10
23.475255
 20
182.372124
 30
0.0
 10
23.637815
 20
182.978902
 30
0.0
 10
24.485610
 20
183.069213
 30
0.0
 10
25.314779
 20
183.084735
 30
0.0
 10
25.529268
 20
183.765173
 30
0.0
 10
24.858990
 20
184.253418
 30
0.0
 10
24.216370
 20
184.813911
 30
0.0
 10
24.431142
 20
185.404038
 30
0.0
 10
25.283735
 20
185.420124
 30
0.0
 10
26.110928
 20
185.363398
 30
0.0
 10
26.384119
 20
186.022669
 30
0.0
 10
25.758715
 20
186.567358
 30
0.0
 10
25.167459
 20
187.181755
 30
0.0
 10
25.432748
 20
187.750998
 30
0.0
 10
26.283648
 20
187.692860
 30
0.0
 10
27.102939
 20
187.564167
 30
0.0
 10
27.432293
 20
188.196909
 30
0.0
 10
26.856842
 20
188.794091
 30
0.0
 10
26.321184
 20
189.457595
 30
0.0
 10
26.635297
 20
190.001438
 30
0.0
 10
27.477730
 20
189.869358
 30
0.0
 10
28.282628
 20
189.669827
 30
0.0
 10
28.665886
 20
190.271524
 30
0.0
 10
28.144904
 20
190.916684
 30
0.0
 10
27.669077
 20
191.624498
 30
0.0
 10
28.029475
 20
192.138707
 30
0.0
 10
28.857233
 20
191.933813
 30
0.0
 10
29.641528
 20
191.664855
 30
0.0
 10
30.075868
 20
192.230711
 30
0.0
 10
29.613024
 20
192.918769
 30
0.0
 10
29.200697
 20
193.665247
 30
0.0
 10
29.604557
 20
194.146435
 30
0.0
 10
30.411148
 20
193.870140
 30
0.0
 10
31.169197
 20
193.533731
 30
0.0
 10
31.651233
 20
194.059793
 30
0.0
 10
31.249913
 20
194.785669
 30
0.0
 10
30.904473
 20
195.565167
 30
0.0
 10
31.348408
 20
196.009102
 30
0.0
 10
32.127906
 20
195.663662
 30
0.0
 10
32.853782
 20
195.262342
 30
0.0
 10
33.379844
 20
195.744378
 30
0.0
 10
33.043435
 20
196.502427
 30
0.0
 10
32.767139
 20
197.309018
 30
0.0
 10
33.248328
 20
197.712878
 30
0.0
 10
33.994806
 20
197.300551
 30
0.0
 10
34.682864
 20
196.837707
 30
0.0
 10
35.248719
 20
197.272047
 30
0.0
 10
34.979762
 20
198.056342
 30
0.0
 10
34.774868
 20
198.884100
 30
0.0
 10
35.289077
 20
199.244498
 30
0.0
 10
35.996890
 20
198.768671
 30
0.0
 10
36.642050
 20
198.247689
 30
0.0
 10
37.243748
 20
198.630947
 30
0.0
 10
37.044217
 20
199.435844
 30
0.0
 10
36.912137
 20
200.278278
 30
0.0
 10
37.455979
 20
200.592391
 30
0.0
 10
38.119484
 20
200.056733
 30
0.0
 10
38.716666
 20
199.481282
 30
0.0
 10
39.349408
 20
199.810635
 30
0.0
 10
39.220715
 20
200.629927
 30
0.0
 10
39.162577
 20
201.480827
 30
0.0
 10
39.731819
 20
201.746115
 30
0.0
 10
40.346217
 20
201.154860
 30
0.0
 10
40.890906
 20
200.529455
 30
0.0
 10
41.550177
 20
200.802647
 30
0.0
 10
41.493450
 20
201.629840
 30
0.0
 10
41.509537
 20
202.482433
 30
0.0
 10
42.099664
 20
202.697204
 30
0.0
 10
42.660157
 20
202.054584
 30
0.0
 10
43.148402
 20
201.384307
 30
0.0
 10
43.828839
 20
201.598795
 30
0.0
 10
43.844362
 20
202.427964
 30
0.0
 10
43.934673
 20
203.275760
 30
0.0
 10
44.541450
 20
203.438320
 30
0.0
 10
45.043806
 20
202.749415
 30
0.0
 10
45.471655
 20
202.039062
 30
0.0
 10
46.168179
 20
202.193438
 30
0.0
 10
46.255950
 20
203.018091
 30
0.0
 10
46.419922
 20
203.854880
 30
0.0
 10
47.038553
 20
203.963818
 30
0.0
 10
47.478819
 20
203.233709
 30
0.0
 10
47.843168
 20
202.488924
 30
0.0
 10
48.550417
 20
202.582058
 30
0.0
 10
48.709873
 20
203.395704
 30
0.0
 10
48.946093
 20
204.214995
 30
0.0
 10
49.571779
 20
204.269747
 30
0.0
 10
49.946853
 20
203.504078
 30
0.0
 10
50.244879
 20
202.730224
 30
0.0
 10
50.957773
 20
202.761269
 30
0.0
 10
51.187219
 20
203.558264
 30
0.0
 10
51.493995
 20
204.353849
 30
0.0
 10
52.122222
 20
204.353849
 30
0.0
 10
52.428997
 20
203.558264
 30
0.0
 10
52.658444
 20
202.761269
 30
0.0
 10
53.371337
 20
202.730224
 30
0.0
 10
53.669364
 20
203.504078
 30
0.0
 10
54.044437
 20
204.269747
 30
0.0
 10
54.670124
 20
204.214995
 30
0.0
 10
54.906344
 20
203.395704
 30
0.0
 10
55.065799
 20
202.582058
 30
0.0
 10
55.773048
 20
202.488924
 30
0.0
 10
56.137397
 20
203.233709
 30
0.0
 10
56.577664
 20
203.963818
 30
0.0
 10
57.196295
 20
203.854880
 30
0.0
 10
57.360266
 20
203.018091
 30
0.0
 10
57.448037
 20
202.193438
 30
0.0
 10
58.144562
 20
202.039062
 30
0.0
 10
58.572410
 20
202.749415
 30
0.0
 10
59.074766
 20
203.438320
 30
0.0
 10
59.681544
 20
203.275760
 30
0.0
 10
59.771855
 20
202.427964
 30
0.0
 10
59.787377
 20
201.598795
 30
0.0
 10
60.467815
 20
201.384307
 30
0.0
 10
60.956059
 20
202.054584
 30
0.0
 10
61.516553
 20
202.697204
 30
0.0
 10
62.106679
 20
202.482433
 30
0.0
 10
62.122766
 20
201.629840
 30
0.0
 10
62.066039
 20
200.802647
 30
0.0
 10
62.725310
 20
200.529455
 30
0.0
 10
63.269999
 20
201.154860
 30
0.0
 10
63.884397
 20
201.746115
 30
0.0
 10
64.453639
 20
201.480827
 30
0.0
 10
64.395502
 20
200.629927
 30
0.0
 10
64.266808
 20
199.810635
 30
0.0
 10
64.899550
 20
199.481282
 30
0.0
 10
65.496733
 20
200.056733
 30
0.0
 10
66.160237
 20
200.592391
 30
0.0
 10
66.704079
 20
200.278278
 30
0.0
 10
66.571999
 20
199.435844
 30
0.0
 10
66.372468
 20
198.630947
 30
0.0
 10
66.974166
 20
198.247689
 30
0.0
 10
67.619326
 20
198.768671
 30
0.0
 10
68.327139
 20
199.244498
 30
0.0
 10
68.841348
 20
198.884100
 30
0.0
 10
68.636455
 20
198.056342
 30
0.0
 10
68.367497
 20
197.272047
 30
0.0
 10
68.933353
 20
196.837707
 30
0.0
 10
69.621410
 20
197.300551
 30
0.0
 10
70.367888
 20
197.712878
 30
0.0
 10
70.849077
 20
197.309018
 30
0.0
 10
70.572782
 20
196.502427
 30
0.0
 10
70.236373
 20
195.744378
 30
0.0
 10
70.762435
 20
195.262342
 30
0.0
 10
71.488310
 20
195.663662
 30
0.0
 10
72.267808
 20
196.009102
 30
0.0
 10
72.711744
 20
195.565167
 30
0.0
 10
72.366304
 20
194.785669
 30
0.0
 10
71.964984
 20
194.059793
 30
0.0
 10
72.447019
 20
193.533731
 30
0.0
 10
73.205068
 20
193.870140
 30
0.0
 10
74.011659
 20
194.146435
 30
0.0
 10
74.415519
 20
193.665247
 30
0.0
 10
74.003193
 20
192.918769
 30
0.0
 10
73.540348
 20
192.230711
 30
0.0
 10
73.974688
 20
191.664855
 30
0.0
 10
74.758984
 20
191.933813
 30
0.0
 10
75.586742
 20
192.138707
 30
0.0
 10
75.947139
 20
191.624498
 30
0.0
 10
75.471313
 20
190.916684
 30
0.0
 10
74.950330
 20
190.271524
 30
0.0
 10
75.333588
 20
189.669827
 30
0.0
 10
76.138486
 20
189.869358
 30
0.0
 10
76.980919
 20
190.001438
 30
0.0
 10
77.295033
 20
189.457595
 30
0.0
 10
76.759375
 20
188.794091
 30
0.0
 10
76.183924
 20
188.196909
 30
0.0
 10
76.513277
 20
187.564167
 30
0.0
 10
77.332568
 20
187.692860
 30
0.0
 10
78.183468
 20
187.750998
 30
0.0
 10
78.448757
 20
187.181755
 30
0.0
 10
77.857502
 20
186.567358
 30
0.0
 10
77.232097
 20
186.022669
 30
0.0
 10
77.505288
 20
185.363398
 30
0.0
 10
78.332482
 20
185.420124
 30
0.0
 10
79.185075
 20
185.404038
 30
0.0
 10
79.399846
 20
184.813911
 30
0.0
 10
78.757226
 20
184.253418
 30
0.0
 10
78.086948
 20
183.765173
 30
0.0
 10
78.301437
 20
183.084735
 30
0.0
 10
79.130606
 20
183.069213
 30
0.0
 10
79.978402
 20
182.978902
 30
0.0
 10
80.140962
 20
182.372124
 30
0.0
 10
79.452057
 20
181.869769
 30
0.0
 10
78.741704
 20
181.441920
 30
0.0
 10
78.896079
 20
180.745395
 30
0.0
 10
79.720733
 20
180.657624
 30
0.0
 10
80.557522
 20
180.493653
 30
0.0
 10
80.666459
 20
179.875022
 30
0.0
 10
79.936350
 20
179.434755
 30
0.0
 10
79.191566
 20
179.070407
 30
0.0
 10
79.284699
 20
178.363158
 30
0.0
 10
80.098346
 20
178.203702
 30
0.0
 10
80.917637
 20
177.967482
 30
0.0
 10
80.972388
 20
177.341795
 30
0.0
 10
80.206719
 20
176.966722
 30
0.0
 10
79.432866
 20
176.668695
 30
0.0
 10
79.463910
 20
175.955802
 30
0.0
  0
SPLINE
  5
122
100
AcDbEntity
  8
Layer_1
 62
7
100
AcDbSpline
 70
8
 71
3
 72
8
 73
4
 74
0
 40
0
 40
0
 40
0
 40
0
 40
1
 40
1
 40
1
 40
1
 10
21.684642
 20
207.614726
 30
0.0
 10
21.684642
 20
206.339642
 30
0.0
 10
20.616487
 20
205.305982
 30
0.0
 10
19.298851
 20
205.305982
 30
0.0
  0
SPLINE
  5
123
100
AcDbEntity
  8
Layer_1
 62
7
100
AcDbSpline
 70
8
 71
3
 72
8
 73
4
 74
0
 40
0
 40
0
 40
0
 40
0
 40
1
 40
1
 40
1
 40
1
 10
19.298851
 20
205.305982
 30
0.0
 10
17.981215
 20
205.305982
 30
0.0
 10
16.913060
 20
206.339642
 30
0.0
 10
16.913060
 20
207.614726
 30
0.0
  0
SPLINE
  5
124
100
AcDbEntity
  8
Layer_1
 62
7
100
AcDbSpline
 70
8
 71
3
 72
8
 73
4
 74
0
 40
0
 40
0
 40
0
 40
0
 40
1
 40
1
 40
1
 40
1
 10
16.913060
 20
207.614726
 30
0.0
 10
16.913060
 20
208.889811
 30
0.0
 10
17.981215
 20
209.923471
 30
0.0
 10
19.298851
 20
209.923471
 30
0.0
  0
SPLINE
  5
125
100
AcDbEntity
  8
Layer_1
 62
7
100
AcDbSpline
 70
8
 71
3
 72
8
 73
4
 74
0
 40
0
 40
0
 40
0
 40
0
 40
1
 40
1
 40
1
 40
1
 10
19.298851
 20
209.923471
 30
0.0
 10
20.616487
 20
209.923471
 30
0.0
 10
21.684642
 20
208.889811
 30
0.0
 10
21.684642
 20
207.614726
 30
0.0
  0
LWPOLYLINE
  5
126
100
AcDbEntity
  8
Layer_1
 62
7
100
AcDbPolyline
 90
2
 70
1
 10
19.300898
 20
213.383289
 30
0.0
 10
19.300898
 20
213.383289
 30
0.0
  0
SPLINE
  5
127
100
AcDbEntity
  8
Layer_1
 62
7
100
AcDbSpline
 70
8
 71
3
 72
8
 73
4
 74
0
 40
0
 40
0
 40
0
 40
0
 40
1
 40
1
 40
1
 40
1
 10
86.703157
 20
142.596207
 30
0.0
 10
86.703157
 20
141.321123
 30
0.0
 10
85.635002
 20
140.287463
 30
0.0
 10
84.317367
 20
140.287463
 30
0.0
  0
SPLINE
  5
128
100
AcDbEntity
  8
Layer_1
 62
7
100
AcDbSpline
 70
8
 71
3
 72
8
 73
4
 74
0
 40
0
 40
0
 40
0
 40
0
 40
1
 40
1
 40
1
 40
1
 10
84.317367
 20
140.287463
 30
0.0
 10
82.999731
 20
140.287463
 30
0.0
 10
81.931576
 20
141.321123
 30
0.0
 10
81.931576
 20
142.596207
 30
0.0
  0
SPLINE
  5
129
100
AcDbEntity
  8
Layer_1
 62
7
100
AcDbSpline
 70
8
 71
3
 72
8
 73
4
 74
0
 40
0
 40
0
 40
0
 40
0
 40
1
 40
1
 40
1
 40
1
 10
81.931576
 20
142.596207
 30
0.0
 10
81.931576
 20
143.871291
 30
0.0
 10
82.999731
 20
144.904951
 30
0.0
 10
84.317367
 20
144.904951
 30
0.0
  0
SPLINE
  5
12a
100
AcDbEntity
  8
Layer_1
 62
7
100
AcDbSpline
 70
8
 71
3
 72
8
 73
4
 74
0
 40
0
 40
0
 40
0
 40
0
 40
1
 40
1
 40
1
 40
1
 10
84.317367
 20
144.904951
 30
0.0
 10
85.635002
 20
144.904951
 30
0.0
 10
86.703157
 20
143.871291
 30
0.0
 10
86.703157
 20
142.596207
 30
0.0
  0
LWPOLYLINE
  5
12b
100
AcDbEntity
  8
Layer_1
 62
7
100
AcDbPolyline
 90
2
 70
1
 10
21.684642
 20
207.614726
 30
0.0
 10
21.684642
 20
207.614726
 30
0.0
  0
SPLINE
  5
12c
100
AcDbEntity
  8
Layer_1
 62
7
100
AcDbSpline
 70
8
 71
3
 72
8
 73
4
 74
0
 40
0
 40
0
 40
0
 40
0
 40
1
 40
1
 40
1
 40
1
 10
21.684642
 20
142.596207
 30
0.0
 10
21.684642
 20
141.321123
 30
0.0
 10
20.616487
 20
140.287463
 30
0.0
 10
19.298851
 20
140.287463
 30
0.0
  0
SPLINE
  5
12d
100
AcDbEntity
  8
Layer_1
 62
7
100
AcDbSpline
 70
8
 71
3
 72
8
 73
4
 74
0
 40
0
 40
0
 40
0
 40
0
 40
1
 40
1
 40
1
 40
1
 10
19.298851
 20
140.287463
 30
0.0
 10
17.981215
 20
140.287463
 30
0.0
 10
16.913060
 20
141.321123
 30
0.0
 10
16.913060
 20
142.596207
 30
0.0
  0
SPLINE
  5
12e
100
AcDbEntity
  8
Layer_1
 62
7
100
AcDbSpline
 70
8
 71
3
 72
8
 73
4
 74
0
 40
0
 40
0
 40
0
 40
0
 40
1
 40
1
 40
1
 40
1
 10
16.913060
 20
142.596207
 30
0.0
 10
16.913060
 20
143.871291
 30
0.0
 10
17.981215
 20
144.904951
 30
0.0
 10
19.298851
 20
144.904951
 30
0.0
  0
SPLINE
  5
12f
100
AcDbEntity
  8
Layer_1
 62
7
100
AcDbSpline
 70
8
 71
3
 72
8
 73
4
 74
0
 40
0
 40
0
 40
0
 40
0
 40
1
 40
1
 40
1
 40
1
 10
19.298851
 20
144.904951
 30
0.0
 10
20.616487
 20
144.904951
 30
0.0
 10
21.684642
 20
143.871291
 30
0.0
 10
21.684642
 20
142.596207
 30
0.0
  0
LWPOLYLINE
  5
130
100
AcDbEntity
  8
Layer_1
 62
7
100
AcDbPolyline
 90
2
 70
1
 10
86.703157
 20
142.596207
 30
0.0
 10
86.703157
 20
142.596207
 30
0.0
  0
SPLINE
  5
131
100
AcDbEntity
  8
Layer_1
 62
7
100
AcDbSpline
 70
8
 71
3
 72
8
 73
4
 74
0
 40
0
 40
0
 40
0
 40
0
 40
1
 40
1
 40
1
 40
1
 10
86.703157
 20
207.614724
 30
0.0
 10
86.703157
 20
206.339639
 30
0.0
 10
85.635002
 20
205.305979
 30
0.0
 10
84.317367
 20
205.305979
 30
0.0
  0
SPLINE
  5
132
100
AcDbEntity
  8
Layer_1
 62
7
100
AcDbSpline
 70
8
 71
3
 72
8
 73
4
 74
0
 40
0
 40
0
 40
0
 40
0
 40
1
 40
1
 40
1
 40
1
 10
84.317367
 20
205.305979
 30
0.0
 10
82.999731
 20
205.305979
 30
0.0
 10
81.931576
 20
206.339639
 30
0.0
 10
81.931576
 20
207.614724
 30
0.0
  0
SPLINE
  5
133
100
AcDbEntity
  8
Layer_1
 62
7
100
AcDbSpline
 70
8
 71
3
 72
8
 73
4
 74
0
 40
0
 40
0
 40
0
 40
0
 40
1
 40
1
 40
1
 40
1
 10
81.931576
 20
207.614724
 30
0.0
 10
81.931576
 20
208.889808
 30
0.0
 10
82.999731
 20
209.923468
 30
0.0
 10
84.317367
 20
209.923468
 30
0.0
  0
SPLINE
  5
134
100
AcDbEntity
  8
Layer_1
 62
7
100
AcDbSpline
 70
8
 71
3
 72
8
 73
4
 74
0
 40
0
 40
0
 40
0
 40
0
 40
1
 40
1
 40
1
 40
1
 10
84.317367
 20
209.923468
 30
0.0
 10
85.635002
 20
209.923468
 30
0.0
 10
86.703157
 20
208.889808
 30
0.0
 10
86.703157
 20
207.614724
 30
0.0
  0
LWPOLYLINE
  5
135
100
AcDbEntity
  8
Layer_1
 62
7
100
AcDbPolyline
 90
2
 70
1
 10
21.684642
 20
142.596207
 30
0.0
 10
21.684642
 20
142.596207
 30
0.0
  0
SPLINE
  5
136
100
AcDbEntity
  8
Layer_1
 62
7
100
AcDbSpline
 70
8
 71
3
 72
8
 73
4
 74
0
 40
0
 40
0
 40
0
 40
0
 40
1
 40
1
 40
1
 40
1
 10
134.351799
 20
249.375511
 30
0.0
 10
133.874115
 20
248.785658
 30
0.0
 10
133.584507
 20
248.041714
 30
0.0
 10
133.584507
 20
247.223566
 30
0.0
  0
SPLINE
  5
137
100
AcDbEntity
  8
Layer_1
 62
7
100
AcDbSpline
 70
8
 71
3
 72
8
 73
4
 74
0
 40
0
 40
0
 40
0
 40
0
 40
1
 40
1
 40
1
 40
1
 10
133.584507
 20
247.223566
 30
0.0
 10
133.584507
 20
246.405418
 30
0.0
 10
133.874115
 20
245.652655
 30
0.0
 10
134.351799
 20
245.062802
 30
0.0
  0
LWPOLYLINE
  5
138
100
AcDbEntity
  8
Layer_1
 62
7
100
AcDbPolyline
 90
2
 70
1
 10
86.703157
 20
207.614724
 30
0.0
 10
86.703157
 20
207.614724
 30
0.0
  0
SPLINE
  5
139
100
AcDbEntity
  8
Layer_1
 62
7
100
AcDbSpline
 70
8
 71
3
 72
8
 73
4
 74
0
 40
0
 40
0
 40
0
 40
0
 40
1
 40
1
 40
1
 40
1
 10
139.687560
 20
245.062802
 30
0.0
 10
140.165243
 20
245.652655
 30
0.0
 10
140.454851
 20
246.405418
 30
0.0
 10
140.454851
 20
247.223566
 30
0.0
  0
SPLINE
  5
13a
100
AcDbEntity
  8
Layer_1
 62
7
100
AcDbSpline
 70
8
 71
3
 72
8
 73
4
 74
0
 40
0
 40
0
 40
0
 40
0
 40
1
 40
1
 40
1
 40
1
 10
140.454851
 20
247.223566
 30
0.0
 10
140.454851
 20
248.041714
 30
0.0
 10
140.165243
 20
248.785658
 30
0.0
 10
139.687560
 20
249.375511
 30
0.0
  0
LWPOLYLINE
  5
13b
100
AcDbEntity
  8
Layer_1
 62
7
100
AcDbPolyline
 90
2
 70
1
 10
134.351799
 20
245.062802
 30
0.0
 10
139.687560
 20
245.062802
 30
0.0
  0
LWPOLYLINE
  5
13c
100
AcDbEntity
  8
Layer_1
 62
7
100
AcDbPolyline
 90
3
 70
1
 10
139.687560
 20
249.375511
 30
0.0
 10
134.351799
 20
249.375511
 30
0.0
 10
134.351799
 20
249.375511
 30
0.0
  0
SPLINE
  5
13d
100
AcDbEntity
  8
Layer_1
 62
7
100
AcDbSpline
 70
8
 71
3
 72
8
 73
4
 74
0
 40
0
 40
0
 40
0
 40
0
 40
1
 40
1
 40
1
 40
1
 10
154.331458
 20
290.191389
 30
0.0
 10
148.781505
 20
290.149120
 30
0.0
 10
143.391896
 20
287.348435
 30
0.0
 10
140.246806
 20
282.324444
 30
0.0
  0
SPLINE
  5
13e
100
AcDbEntity
  8
Layer_1
 62
7
100
AcDbSpline
 70
8
 71
3
 72
8
 73
4
 74
0
 40
0
 40
0
 40
0
 40
0
 40
1
 40
1
 40
1
 40
1
 10
140.246806
 20
282.324444
 30
0.0
 10
139.818725
 20
282.346294
 30
0.0
 10
139.403300
 20
282.363899
 30
0.0
 10
138.994444
 20
282.377361
 30
0.0
  0
SPLINE
  5
13f
100
AcDbEntity
  8
Layer_1
 62
7
100
AcDbSpline
 70
8
 71
3
 72
8
 73
4
 74
0
 40
0
 40
0
 40
0
 40
0
 40
1
 40
1
 40
1
 40
1
 10
138.994444
 20
282.377361
 30
0.0
 10
138.493370
 20
282.393860
 30
0.0
 10
138.004231
 20
282.403819
 30
0.0
 10
137.539236
 20
282.403819
 30
0.0
  0
SPLINE
  5
140
100
AcDbEntity
  8
Layer_1
 62
7
100
AcDbSpline
 70
8
 71
3
 72
8
 73
4
 74
0
 40
0
 40
0
 40
0
 40
0
 40
1
 40
1
 40
1
 40
1
 10
137.539236
 20
282.403819
 30
0.0
 10
137.304709
 20
282.403819
 30
0.0
 10
137.050890
 20
282.398979
 30
0.0
 10
136.807222
 20
282.395000
 30
0.0
  0
LWPOLYLINE
  5
141
100
AcDbEntity
  8
Layer_1
 62
7
100
AcDbPolyline
 90
337
 70
1
 10
158.348059
 20
248.051431
 30
0.0
 10
159.146184
 20
247.840047
 30
0.0
 10
159.943179
 20
247.528191
 30
0.0
 10
159.943179
 20
246.910125
 30
0.0
 10
159.146184
 20
246.598269
 30
0.0
 10
158.348059
 20
246.386885
 30
0.0
 10
158.307137
 20
245.658187
 30
0.0
 10
159.076475
 20
245.358749
 30
0.0
 10
159.833677
 20
244.959687
 30
0.0
 10
159.764532
 20
244.345289
 30
0.0
 10
158.937339
 20
244.124874
 30
0.0
 10
158.120588
 20
244.004083
 30
0.0
 10
157.998386
 20
243.284698
 30
0.0
 10
158.729624
 20
242.900876
 30
0.0
 10
159.437437
 20
242.419405
 30
0.0
 10
159.299712
 20
241.816860
 30
0.0
 10
158.453328
 20
241.690425
 30
0.0
 10
157.628110
 20
241.661638
 30
0.0
 10
157.426039
 20
240.960598
 30
0.0
 10
158.109581
 20
240.497189
 30
0.0
 10
158.758975
 20
239.939800
 30
0.0
 10
158.554646
 20
239.356165
 30
0.0
 10
157.699512
 20
239.325403
 30
0.0
 10
156.876270
 20
239.389185
 30
0.0
 10
156.597152
 20
238.715238
 30
0.0
 10
157.224250
 20
238.178169
 30
0.0
 10
157.807321
 20
237.551354
 30
0.0
 10
157.538928
 20
236.994529
 30
0.0
 10
156.685488
 20
237.059440
 30
0.0
 10
155.874664
 20
237.215227
 30
0.0
 10
155.521886
 20
236.576558
 30
0.0
 10
156.084919
 20
235.972885
 30
0.0
 10
156.594048
 20
235.284827
 30
0.0
 10
156.265259
 20
234.761305
 30
0.0
 10
155.424237
 20
234.921607
 30
0.0
 10
154.635990
 20
235.166858
 30
0.0
 10
154.213786
 20
234.571934
 30
0.0
 10
154.705981
 20
233.908994
 30
0.0
 10
155.134677
 20
233.168160
 30
0.0
 10
154.749444
 20
232.684996
 30
0.0
 10
153.931846
 20
232.938149
 30
0.0
 10
153.175772
 20
233.270325
 30
0.0
 10
152.689786
 20
232.726483
 30
0.0
 10
153.104370
 20
232.012460
 30
0.0
 10
153.447552
 20
231.228165
 30
0.0
 10
153.010672
 20
230.791285
 30
0.0
 10
152.226377
 20
231.134467
 30
0.0
 10
151.512355
 20
231.549051
 30
0.0
 10
150.968512
 20
231.063065
 30
0.0
 10
151.300688
 20
230.306991
 30
0.0
 10
151.553841
 20
229.489394
 30
0.0
 10
151.070677
 20
229.104160
 30
0.0
 10
150.329844
 20
229.532856
 30
0.0
 10
149.666904
 20
230.025051
 30
0.0
 10
149.071979
 20
229.602847
 30
0.0
 10
149.317230
 20
228.814600
 30
0.0
 10
149.477532
 20
227.973578
 30
0.0
 10
148.954010
 20
227.644789
 30
0.0
 10
148.265952
 20
228.153918
 30
0.0
 10
147.662279
 20
228.716951
 30
0.0
 10
147.023610
 20
228.364174
 30
0.0
 10
147.179397
 20
227.553349
 30
0.0
 10
147.244308
 20
226.699909
 30
0.0
 10
146.687484
 20
226.431516
 30
0.0
 10
146.060668
 20
227.014587
 30
0.0
 10
145.523599
 20
227.641685
 30
0.0
 10
144.849652
 20
227.362567
 30
0.0
 10
144.913435
 20
226.539325
 30
0.0
 10
144.882672
 20
225.684191
 30
0.0
 10
144.299037
 20
225.479863
 30
0.0
 10
143.741648
 20
226.129256
 30
0.0
 10
143.278239
 20
226.812798
 30
0.0
 10
142.577199
 20
226.610727
 30
0.0
 10
142.548412
 20
225.785509
 30
0.0
 10
142.421977
 20
224.939125
 30
0.0
 10
141.819432
 20
224.801400
 30
0.0
 10
141.337961
 20
225.509214
 30
0.0
 10
140.954139
 20
226.240451
 30
0.0
 10
140.234755
 20
226.118249
 30
0.0
 10
140.113964
 20
225.301498
 30
0.0
 10
139.893548
 20
224.474305
 30
0.0
 10
139.279150
 20
224.405160
 30
0.0
 10
138.880088
 20
225.162363
 30
0.0
 10
138.580650
 20
225.931700
 30
0.0
 10
137.851952
 20
225.890778
 30
0.0
 10
137.640568
 20
225.092654
 30
0.0
 10
137.328712
 20
224.295658
 30
0.0
 10
136.710646
 20
224.295658
 30
0.0
 10
136.398790
 20
225.092654
 30
0.0
 10
136.187406
 20
225.890778
 30
0.0
 10
135.458708
 20
225.931700
 30
0.0
 10
135.159270
 20
225.162363
 30
0.0
 10
134.760208
 20
224.405160
 30
0.0
 10
134.145810
 20
224.474305
 30
0.0
 10
133.925395
 20
225.301498
 30
0.0
 10
133.804604
 20
226.118249
 30
0.0
 10
133.085219
 20
226.240451
 30
0.0
 10
132.701397
 20
225.509214
 30
0.0
 10
132.219926
 20
224.801400
 30
0.0
 10
131.617381
 20
224.939125
 30
0.0
 10
131.490946
 20
225.785509
 30
0.0
 10
131.462159
 20
226.610727
 30
0.0
 10
130.761119
 20
226.812798
 30
0.0
 10
130.297710
 20
226.129256
 30
0.0
 10
129.740321
 20
225.479863
 30
0.0
 10
129.156686
 20
225.684191
 30
0.0
 10
129.125924
 20
226.539325
 30
0.0
 10
129.189706
 20
227.362567
 30
0.0
 10
128.515759
 20
227.641685
 30
0.0
 10
127.978690
 20
227.014587
 30
0.0
 10
127.351875
 20
226.431516
 30
0.0
 10
126.795050
 20
226.699909
 30
0.0
 10
126.859961
 20
227.553349
 30
0.0
 10
127.015748
 20
228.364174
 30
0.0
 10
126.377079
 20
228.716951
 30
0.0
 10
125.773406
 20
228.153918
 30
0.0
 10
125.085348
 20
227.644789
 30
0.0
 10
124.561826
 20
227.973578
 30
0.0
 10
124.722128
 20
228.814600
 30
0.0
 10
124.967379
 20
229.602847
 30
0.0
 10
124.372455
 20
230.025051
 30
0.0
 10
123.709515
 20
229.532856
 30
0.0
 10
122.968681
 20
229.104160
 30
0.0
 10
122.485517
 20
229.489394
 30
0.0
 10
122.738670
 20
230.306991
 30
0.0
 10
123.070846
 20
231.063065
 30
0.0
 10
122.527004
 20
231.549051
 30
0.0
 10
121.812981
 20
231.134467
 30
0.0
 10
121.028686
 20
230.791285
 30
0.0
 10
120.591806
 20
231.228165
 30
0.0
 10
120.934988
 20
232.012460
 30
0.0
 10
121.349572
 20
232.726483
 30
0.0
 10
120.863586
 20
233.270325
 30
0.0
 10
120.107512
 20
232.938149
 30
0.0
 10
119.289915
 20
232.684996
 30
0.0
 10
118.904681
 20
233.168160
 30
0.0
 10
119.333377
 20
233.908994
 30
0.0
 10
119.825572
 20
234.571934
 30
0.0
 10
119.403368
 20
235.166858
 30
0.0
 10
118.615121
 20
234.921607
 30
0.0
 10
117.774099
 20
234.761305
 30
0.0
 10
117.445310
 20
235.284827
 30
0.0
 10
117.954439
 20
235.972885
 30
0.0
 10
118.517472
 20
236.576558
 30
0.0
 10
118.164695
 20
237.215227
 30
0.0
 10
117.353870
 20
237.059440
 30
0.0
 10
116.500430
 20
236.994529
 30
0.0
 10
116.232037
 20
237.551354
 30
0.0
 10
116.815108
 20
238.178169
 30
0.0
 10
117.442206
 20
238.715238
 30
0.0
 10
117.163088
 20
239.389185
 30
0.0
 10
116.339846
 20
239.325403
 30
0.0
 10
115.484712
 20
239.356165
 30
0.0
 10
115.280384
 20
239.939800
 30
0.0
 10
115.929777
 20
240.497189
 30
0.0
 10
116.613319
 20
240.960598
 30
0.0
 10
116.411248
 20
241.661638
 30
0.0
 10
115.586030
 20
241.690425
 30
0.0
 10
114.739646
 20
241.816860
 30
0.0
 10
114.601921
 20
242.419405
 30
0.0
 10
115.309735
 20
242.900876
 30
0.0
 10
116.040972
 20
243.284698
 30
0.0
 10
115.918770
 20
244.004083
 30
0.0
 10
115.102019
 20
244.124874
 30
0.0
 10
114.274826
 20
244.345289
 30
0.0
 10
114.205681
 20
244.959687
 30
0.0
 10
114.962884
 20
245.358749
 30
0.0
 10
115.732221
 20
245.658187
 30
0.0
 10
115.691299
 20
246.386885
 30
0.0
 10
114.893175
 20
246.598269
 30
0.0
 10
114.096179
 20
246.910125
 30
0.0
 10
114.096179
 20
247.528191
 30
0.0
 10
114.893175
 20
247.840047
 30
0.0
 10
115.691299
 20
248.051431
 30
0.0
 10
115.732221
 20
248.780129
 30
0.0
 10
114.962884
 20
249.079567
 30
0.0
 10
114.205681
 20
249.478629
 30
0.0
 10
114.274826
 20
250.093027
 30
0.0
 10
115.102019
 20
250.313443
 30
0.0
 10
115.918770
 20
250.434234
 30
0.0
 10
116.040972
 20
251.153618
 30
0.0
 10
115.309735
 20
251.537440
 30
0.0
 10
114.601921
 20
252.018911
 30
0.0
 10
114.739646
 20
252.621456
 30
0.0
 10
115.586030
 20
252.747891
 30
0.0
 10
116.411248
 20
252.776678
 30
0.0
 10
116.613319
 20
253.477718
 30
0.0
 10
115.929777
 20
253.941127
 30
0.0
 10
115.280384
 20
254.498516
 30
0.0
 10
115.484712
 20
255.082151
 30
0.0
 10
116.339846
 20
255.112914
 30
0.0
 10
117.163088
 20
255.049131
 30
0.0
 10
117.442206
 20
255.723078
 30
0.0
 10
116.815108
 20
256.260147
 30
0.0
 10
116.232037
 20
256.886963
 30
0.0
 10
116.500430
 20
257.443787
 30
0.0
 10
117.353870
 20
257.378876
 30
0.0
 10
118.164695
 20
257.223089
 30
0.0
 10
118.517472
 20
257.861758
 30
0.0
 10
117.954439
 20
258.465431
 30
0.0
 10
117.445310
 20
259.153489
 30
0.0
 10
117.774099
 20
259.677011
 30
0.0
 10
118.615121
 20
259.516709
 30
0.0
 10
119.403368
 20
259.271458
 30
0.0
 10
119.825572
 20
259.866383
 30
0.0
 10
119.333377
 20
260.529323
 30
0.0
 10
118.904681
 20
261.270156
 30
0.0
 10
119.289915
 20
261.753320
 30
0.0
 10
120.107512
 20
261.500167
 30
0.0
 10
120.863586
 20
261.167991
 30
0.0
 10
121.349572
 20
261.711834
 30
0.0
 10
120.934988
 20
262.425856
 30
0.0
 10
120.591806
 20
263.210151
 30
0.0
 10
121.028686
 20
263.647031
 30
0.0
 10
121.812981
 20
263.303849
 30
0.0
 10
122.527004
 20
262.889265
 30
0.0
 10
123.070846
 20
263.375251
 30
0.0
 10
122.738670
 20
264.131325
 30
0.0
 10
122.485517
 20
264.948923
 30
0.0
 10
122.968681
 20
265.334156
 30
0.0
 10
123.709515
 20
264.905460
 30
0.0
 10
124.372455
 20
264.413265
 30
0.0
 10
124.967379
 20
264.835469
 30
0.0
 10
124.722128
 20
265.623716
 30
0.0
 10
124.561826
 20
266.464738
 30
0.0
 10
125.085348
 20
266.793527
 30
0.0
 10
125.773406
 20
266.284398
 30
0.0
 10
126.377079
 20
265.721365
 30
0.0
 10
127.015748
 20
266.074143
 30
0.0
 10
126.859961
 20
266.884967
 30
0.0
 10
126.795050
 20
267.738407
 30
0.0
 10
127.351875
 20
268.006800
 30
0.0
 10
127.978690
 20
267.423729
 30
0.0
 10
128.515759
 20
266.796631
 30
0.0
 10
129.189706
 20
267.075749
 30
0.0
 10
129.125924
 20
267.898991
 30
0.0
 10
129.156686
 20
268.754125
 30
0.0
 10
129.740321
 20
268.958454
 30
0.0
 10
130.297710
 20
268.309060
 30
0.0
 10
130.761119
 20
267.625518
 30
0.0
 10
131.462159
 20
267.827589
 30
0.0
 10
131.490946
 20
268.652807
 30
0.0
 10
131.617381
 20
269.499191
 30
0.0
 10
132.219926
 20
269.636916
 30
0.0
 10
132.701397
 20
268.929103
 30
0.0
 10
133.085219
 20
268.197865
 30
0.0
 10
133.804604
 20
268.320067
 30
0.0
 10
133.925395
 20
269.136818
 30
0.0
 10
134.145810
 20
269.964011
 30
0.0
 10
134.760208
 20
270.033156
 30
0.0
 10
135.159270
 20
269.275954
 30
0.0
 10
135.458708
 20
268.506616
 30
0.0
 10
136.187406
 20
268.547538
 30
0.0
 10
136.398790
 20
269.345663
 30
0.0
 10
136.710646
 20
270.142658
 30
0.0
 10
137.328712
 20
270.142658
 30
0.0
 10
137.640568
 20
269.345663
 30
0.0
 10
137.851952
 20
268.547538
 30
0.0
 10
138.580650
 20
268.506616
 30
0.0
 10
138.880088
 20
269.275954
 30
0.0
 10
139.279150
 20
270.033156
 30
0.0
 10
139.893548
 20
269.964011
 30
0.0
 10
140.113964
 20
269.136818
 30
0.0
 10
140.234755
 20
268.320067
 30
0.0
 10
140.954139
 20
268.197865
 30
0.0
 10
141.337961
 20
268.929103
 30
0.0
 10
141.819432
 20
269.636916
 30
0.0
 10
142.421977
 20
269.499191
 30
0.0
 10
142.548412
 20
268.652807
 30
0.0
 10
142.577199
 20
267.827589
 30
0.0
 10
143.278239
 20
267.625518
 30
0.0
 10
143.741648
 20
268.309060
 30
0.0
 10
144.299037
 20
268.958454
 30
0.0
 10
144.882672
 20
268.754125
 30
0.0
 10
144.913435
 20
267.898991
 30
0.0
 10
144.849652
 20
267.075749
 30
0.0
 10
145.523599
 20
266.796631
 30
0.0
 10
146.060668
 20
267.423729
 30
0.0
 10
146.687484
 20
268.006800
 30
0.0
 10
147.244308
 20
267.738407
 30
0.0
 10
147.179397
 20
266.884967
 30
0.0
 10
147.023610
 20
266.074143
 30
0.0
 10
147.662279
 20
265.721365
 30
0.0
 10
148.265952
 20
266.284398
 30
0.0
 10
148.954010
 20
266.793527
 30
0.0
 10
149.477532
 20
266.464738
 30
0.0
 10
149.317230
 20
265.623716
 30
0.0
 10
149.071979
 20
264.835469
 30
0.0
 10
149.666904
 20
264.413265
 30
0.0
 10
150.329844
 20
264.905460
 30
0.0
 10
151.070677
 20
265.334156
 30
0.0
 10
151.553841
 20
264.948923
 30
0.0
 10
151.300688
 20
264.131325
 30
0.0
 10
150.968512
 20
263.375251
 30
0.0
 10
151.512355
 20
262.889265
 30
0.0
 10
152.226377
 20
263.303849
 30
0.0
 10
153.010672
 20
263.647031
 30
0.0
 10
153.447552
 20
263.210151
 30
0.0
 10
153.104370
 20
262.425856
 30
0.0
 10
152.689786
 20
261.711834
 30
0.0
 10
153.175772
 20
261.167991
 30
0.0
 10
153.931846
 20
261.500167
 30
0.0
 10
154.749444
 20
261.753320
 30
0.0
 10
155.134677
 20
261.270156
 30
0.0
 10
154.705981
 20
260.529323
 30
0.0
 10
154.213786
 20
259.866383
 30
0.0
 10
154.635990
 20
259.271458
 30
0.0
 10
155.424237
 20
259.516709
 30
0.0
 10
156.265259
 20
259.677011
 30
0.0
 10
156.594048
 20
259.153489
 30
0.0
 10
156.084919
 20
258.465431
 30
0.0
 10
155.521886
 20
257.861758
 30
0.0
 10
155.874664
 20
257.223089
 30
0.0
 10
156.685488
 20
257.378876
 30
0.0
 10
157.538928
 20
257.443787
 30
0.0
 10
157.807321
 20
256.886963
 30
0.0
 10
157.224250
 20
256.260147
 30
0.0
 10
156.597152
 20
255.723078
 30
0.0
 10
156.876270
 20
255.049131
 30
0.0
 10
157.699512
 20
255.112914
 30
0.0
 10
158.554646
 20
255.082151
 30
0.0
 10
158.758975
 20
254.498516
 30
0.0
 10
158.109581
 20
253.941127
 30
0.0
 10
157.426039
 20
253.477718
 30
0.0
 10
157.628110
 20
252.776678
 30
0.0
 10
158.453328
 20
252.747891
 30
0.0
 10
159.299712
 20
252.621456
 30
0.0
 10
159.437437
 20
252.018911
 30
0.0
 10
158.729624
 20
251.537440
 30
0.0
 10
157.998386
 20
251.153618
 30
0.0
 10
158.120588
 20
250.434234
 30
0.0
 10
158.937339
 20
250.313443
 30
0.0
 10
159.764532
 20
250.093027
 30
0.0
 10
159.833677
 20
249.478629
 30
0.0
 10
159.076475
 20
249.079567
 30
0.0
 10
158.307137
 20
248.780129
 30
0.0
 10
158.348059
 20
248.051431
 30
0.0
  0
SPLINE
  5
142
100
AcDbEntity
  8
Layer_1
 62
7
100
AcDbSpline
 70
8
 71
3
 72
8
 73
4
 74
0
 40
0
 40
0
 40
0
 40
0
 40
1
 40
1
 40
1
 40
1
 10
136.807222
 20
282.386181
 30
0.0
 10
129.300467
 20
282.263309
 30
0.0
 10
117.615205
 20
280.291545
 30
0.0
 10
110.631111
 20
278.990694
 30
0.0
  0
SPLINE
  5
143
100
AcDbEntity
  8
Layer_1
 62
7
100
AcDbSpline
 70
8
 71
3
 72
8
 73
4
 74
0
 40
0
 40
0
 40
0
 40
0
 40
1
 40
1
 40
1
 40
1
 10
110.631111
 20
278.990694
 30
0.0
 10
110.016394
 20
281.514836
 30
0.0
 10
107.744122
 20
283.391597
 30
0.0
 10
105.030764
 20
283.391597
 30
0.0
  0
SPLINE
  5
144
100
AcDbEntity
  8
Layer_1
 62
7
100
AcDbSpline
 70
8
 71
3
 72
8
 73
4
 74
0
 40
0
 40
0
 40
0
 40
0
 40
1
 40
1
 40
1
 40
1
 10
105.030764
 20
283.391597
 30
0.0
 10
101.845536
 20
283.391597
 30
0.0
 10
99.262847
 20
280.808908
 30
0.0
 10
99.262847
 20
277.623681
 30
0.0
  0
SPLINE
  5
145
100
AcDbEntity
  8
Layer_1
 62
7
100
AcDbSpline
 70
8
 71
3
 72
8
 73
4
 74
0
 40
0
 40
0
 40
0
 40
0
 40
1
 40
1
 40
1
 40
1
 10
99.262847
 20
277.623681
 30
0.0
 10
99.262847
 20
274.908330
 30
0.0
 10
101.136800
 20
272.636060
 30
0.0
 10
103.663750
 20
272.023333
 30
0.0
  0
SPLINE
  5
146
100
AcDbEntity
  8
Layer_1
 62
7
100
AcDbSpline
 70
8
 71
3
 72
8
 73
4
 74
0
 40
0
 40
0
 40
0
 40
0
 40
1
 40
1
 40
1
 40
1
 10
103.663750
 20
272.023333
 30
0.0
 10
102.956160
 20
268.224741
 30
0.0
 10
102.053037
 20
263.032958
 30
0.0
 10
101.353056
 20
257.876944
 30
0.0
  0
SPLINE
  5
147
100
AcDbEntity
  8
Layer_1
 62
7
100
AcDbSpline
 70
8
 71
3
 72
8
 73
4
 74
0
 40
0
 40
0
 40
0
 40
0
 40
1
 40
1
 40
1
 40
1
 10
101.353056
 20
257.876944
 30
0.0
 10
102.374336
 20
258.131359
 30
0.0
 10
103.436838
 20
258.265000
 30
0.0
 10
104.536875
 20
258.265000
 30
0.0
  0
SPLINE
  5
148
100
AcDbEntity
  8
Layer_1
 62
7
100
AcDbSpline
 70
8
 71
3
 72
8
 73
4
 74
0
 40
0
 40
0
 40
0
 40
0
 40
1
 40
1
 40
1
 40
1
 10
104.536875
 20
258.265000
 30
0.0
 10
107.739640
 20
258.265000
 30
0.0
 10
110.676975
 20
257.124331
 30
0.0
 10
112.959444
 20
255.222292
 30
0.0
  0
SPLINE
  5
149
100
AcDbEntity
  8
Layer_1
 62
7
100
AcDbSpline
 70
8
 71
3
 72
8
 73
4
 74
0
 40
0
 40
0
 40
0
 40
0
 40
1
 40
1
 40
1
 40
1
 10
112.959444
 20
255.222292
 30
0.0
 10
116.937395
 20
264.879595
 30
0.0
 10
126.446664
 20
271.679375
 30
0.0
 10
137.539236
 20
271.679375
 30
0.0
  0
SPLINE
  5
14a
100
AcDbEntity
  8
Layer_1
 62
7
100
AcDbSpline
 70
8
 71
3
 72
8
 73
4
 74
0
 40
0
 40
0
 40
0
 40
0
 40
1
 40
1
 40
1
 40
1
 10
137.539236
 20
271.679375
 30
0.0
 10
139.187640
 20
271.679375
 30
0.0
 10
140.798194
 20
271.525656
 30
0.0
 10
142.363472
 20
271.238403
 30
0.0
  0
SPLINE
  5
14b
100
AcDbEntity
  8
Layer_1
 62
7
100
AcDbSpline
 70
8
 71
3
 72
8
 73
4
 74
0
 40
0
 40
0
 40
0
 40
0
 40
1
 40
1
 40
1
 40
1
 10
142.363472
 20
271.238403
 30
0.0
 10
141.850852
 20
274.058881
 30
0.0
 10
142.321520
 20
277.068214
 30
0.0
 10
143.906875
 20
279.722708
 30
0.0
  0
SPLINE
  5
14c
100
AcDbEntity
  8
Layer_1
 62
7
100
AcDbSpline
 70
8
 71
3
 72
8
 73
4
 74
0
 40
0
 40
0
 40
0
 40
0
 40
1
 40
1
 40
1
 40
1
 10
143.906875
 20
279.722708
 30
0.0
 10
147.383850
 20
285.544500
 30
0.0
 10
154.921404
 20
287.450657
 30
0.0
 10
160.743194
 20
283.973681
 30
0.0
  0
SPLINE
  5
14d
100
AcDbEntity
  8
Layer_1
 62
7
100
AcDbSpline
 70
8
 71
3
 72
8
 73
4
 74
0
 40
0
 40
0
 40
0
 40
0
 40
1
 40
1
 40
1
 40
1
 10
160.743194
 20
283.973681
 30
0.0
 10
166.564985
 20
280.496704
 30
0.0
 10
168.462322
 20
272.950333
 30
0.0
 10
164.985347
 20
267.128542
 30
0.0
  0
SPLINE
  5
14e
100
AcDbEntity
  8
Layer_1
 62
7
100
AcDbSpline
 70
8
 71
3
 72
8
 73
4
 74
0
 40
0
 40
0
 40
0
 40
0
 40
1
 40
1
 40
1
 40
1
 10
164.985347
 20
267.128542
 30
0.0
 10
163.400528
 20
264.474947
 30
0.0
 10
160.972469
 20
262.643926
 30
0.0
 10
158.247292
 20
261.757500
 30
0.0
  0
SPLINE
  5
14f
100
AcDbEntity
  8
Layer_1
 62
7
100
AcDbSpline
 70
8
 71
3
 72
8
 73
4
 74
0
 40
0
 40
0
 40
0
 40
0
 40
1
 40
1
 40
1
 40
1
 10
158.247292
 20
261.757500
 30
0.0
 10
161.910940
 20
257.204056
 30
0.0
 10
164.103403
 20
251.415453
 30
0.0
 10
164.103403
 20
245.115208
 30
0.0
  0
SPLINE
  5
150
100
AcDbEntity
  8
Layer_1
 62
7
100
AcDbSpline
 70
8
 71
3
 72
8
 73
4
 74
0
 40
0
 40
0
 40
0
 40
0
 40
1
 40
1
 40
1
 40
1
 10
164.103403
 20
245.115208
 30
0.0
 10
164.103403
 20
238.814964
 30
0.0
 10
161.910940
 20
233.028218
 30
0.0
 10
158.247292
 20
228.472917
 30
0.0
  0
SPLINE
  5
151
100
AcDbEntity
  8
Layer_1
 62
7
100
AcDbSpline
 70
8
 71
3
 72
8
 73
4
 74
0
 40
0
 40
0
 40
0
 40
0
 40
1
 40
1
 40
1
 40
1
 10
158.247292
 20
228.472917
 30
0.0
 10
160.970598
 20
227.585915
 30
0.0
 10
163.401423
 20
225.753971
 30
0.0
 10
164.985347
 20
223.101875
 30
0.0
  0
SPLINE
  5
152
100
AcDbEntity
  8
Layer_1
 62
7
100
AcDbSpline
 70
8
 71
3
 72
8
 73
4
 74
0
 40
0
 40
0
 40
0
 40
0
 40
1
 40
1
 40
1
 40
1
 10
164.985347
 20
223.101875
 30
0.0
 10
168.462325
 20
217.280079
 30
0.0
 10
166.564990
 20
209.742533
 30
0.0
 10
160.743194
 20
206.265556
 30
0.0
  0
SPLINE
  5
153
100
AcDbEntity
  8
Layer_1
 62
7
100
AcDbSpline
 70
8
 71
3
 72
8
 73
4
 74
0
 40
0
 40
0
 40
0
 40
0
 40
1
 40
1
 40
1
 40
1
 10
160.743194
 20
206.265556
 30
0.0
 10
154.921399
 20
202.788578
 30
0.0
 10
147.375033
 20
204.685913
 30
0.0
 10
143.898056
 20
210.507708
 30
0.0
  0
SPLINE
  5
154
100
AcDbEntity
  8
Layer_1
 62
7
100
AcDbSpline
 70
8
 71
3
 72
8
 73
4
 74
0
 40
0
 40
0
 40
0
 40
0
 40
1
 40
1
 40
1
 40
1
 10
143.898056
 20
210.507708
 30
0.0
 10
142.314978
 20
213.158390
 30
0.0
 10
141.854403
 20
216.166222
 30
0.0
 10
142.363472
 20
218.983194
 30
0.0
  0
SPLINE
  5
155
100
AcDbEntity
  8
Layer_1
 62
7
100
AcDbSpline
 70
8
 71
3
 72
8
 73
4
 74
0
 40
0
 40
0
 40
0
 40
0
 40
1
 40
1
 40
1
 40
1
 10
142.363472
 20
218.983194
 30
0.0
 10
140.798194
 20
218.695743
 30
0.0
 10
139.187640
 20
218.542222
 30
0.0
 10
137.539236
 20
218.542222
 30
0.0
  0
SPLINE
  5
156
100
AcDbEntity
  8
Layer_1
 62
7
100
AcDbSpline
 70
8
 71
3
 72
8
 73
4
 74
0
 40
0
 40
0
 40
0
 40
0
 40
1
 40
1
 40
1
 40
1
 10
137.539236
 20
218.542222
 30
0.0
 10
126.443782
 20
218.542222
 30
0.0
 10
116.935555
 20
225.346826
 30
0.0
 10
112.959444
 20
235.008125
 30
0.0
  0
SPLINE
  5
157
100
AcDbEntity
  8
Layer_1
 62
7
100
AcDbSpline
 70
8
 71
3
 72
8
 73
4
 74
0
 40
0
 40
0
 40
0
 40
0
 40
1
 40
1
 40
1
 40
1
 10
112.959444
 20
235.008125
 30
0.0
 10
110.676975
 20
233.106083
 30
0.0
 10
107.739640
 20
231.965417
 30
0.0
 10
104.536875
 20
231.965417
 30
0.0
  0
SPLINE
  5
158
100
AcDbEntity
  8
Layer_1
 62
7
100
AcDbSpline
 70
8
 71
3
 72
8
 73
4
 74
0
 40
0
 40
0
 40
0
 40
0
 40
1
 40
1
 40
1
 40
1
 10
104.536875
 20
231.965417
 30
0.0
 10
103.436256
 20
231.965417
 30
0.0
 10
102.374824
 20
232.098798
 30
0.0
 10
101.353056
 20
232.353472
 30
0.0
  0
SPLINE
  5
159
100
AcDbEntity
  8
Layer_1
 62
7
100
AcDbSpline
 70
8
 71
3
 72
8
 73
4
 74
0
 40
0
 40
0
 40
0
 40
0
 40
1
 40
1
 40
1
 40
1
 10
101.353056
 20
232.353472
 30
0.0
 10
102.050461
 20
227.200484
 30
0.0
 10
102.947778
 20
222.006788
 30
0.0
 10
103.654931
 20
218.207083
 30
0.0
  0
SPLINE
  5
15a
100
AcDbEntity
  8
Layer_1
 62
7
100
AcDbSpline
 70
8
 71
3
 72
8
 73
4
 74
0
 40
0
 40
0
 40
0
 40
0
 40
1
 40
1
 40
1
 40
1
 10
103.654931
 20
218.207083
 30
0.0
 10
101.131878
 20
217.591593
 30
0.0
 10
99.262847
 20
215.319321
 30
0.0
 10
99.262847
 20
212.606736
 30
0.0
  0
SPLINE
  5
15b
100
AcDbEntity
  8
Layer_1
 62
7
100
AcDbSpline
 70
8
 71
3
 72
8
 73
4
 74
0
 40
0
 40
0
 40
0
 40
0
 40
1
 40
1
 40
1
 40
1
 10
99.262847
 20
212.606736
 30
0.0
 10
99.262847
 20
209.421508
 30
0.0
 10
101.845536
 20
206.838819
 30
0.0
 10
105.030764
 20
206.838819
 30
0.0
  0
SPLINE
  5
15c
100
AcDbEntity
  8
Layer_1
 62
7
100
AcDbSpline
 70
8
 71
3
 72
8
 73
4
 74
0
 40
0
 40
0
 40
0
 40
0
 40
1
 40
1
 40
1
 40
1
 10
105.030764
 20
206.838819
 30
0.0
 10
107.743348
 20
206.838819
 30
0.0
 10
110.015621
 20
208.707850
 30
0.0
 10
110.631111
 20
211.230903
 30
0.0
  0
SPLINE
  5
15d
100
AcDbEntity
  8
Layer_1
 62
7
100
AcDbSpline
 70
8
 71
3
 72
8
 73
4
 74
0
 40
0
 40
0
 40
0
 40
0
 40
1
 40
1
 40
1
 40
1
 10
110.631111
 20
211.230903
 30
0.0
 10
117.843204
 20
209.888682
 30
0.0
 10
130.081043
 20
207.835417
 30
0.0
 10
137.539236
 20
207.835417
 30
0.0
  0
SPLINE
  5
15e
100
AcDbEntity
  8
Layer_1
 62
7
100
AcDbSpline
 70
8
 71
3
 72
8
 73
4
 74
0
 40
0
 40
0
 40
0
 40
0
 40
1
 40
1
 40
1
 40
1
 10
137.539236
 20
207.835417
 30
0.0
 10
137.960187
 20
207.835417
 30
0.0
 10
138.403694
 20
207.849291
 30
0.0
 10
138.853333
 20
207.861875
 30
0.0
  0
SPLINE
  5
15f
100
AcDbEntity
  8
Layer_1
 62
7
100
AcDbSpline
 70
8
 71
3
 72
8
 73
4
 74
0
 40
0
 40
0
 40
0
 40
0
 40
1
 40
1
 40
1
 40
1
 10
138.853333
 20
207.861875
 30
0.0
 10
139.134937
 20
207.869757
 30
0.0
 10
139.425909
 20
207.884653
 30
0.0
 10
139.717639
 20
207.897153
 30
0.0
  0
SPLINE
  5
160
100
AcDbEntity
  8
Layer_1
 62
7
100
AcDbSpline
 70
8
 71
3
 72
8
 73
4
 74
0
 40
0
 40
0
 40
0
 40
0
 40
1
 40
1
 40
1
 40
1
 10
139.717639
 20
207.897153
 30
0.0
 10
139.891448
 20
207.904601
 30
0.0
 10
140.060827
 20
207.905775
 30
0.0
 10
140.237986
 20
207.914792
 30
0.0
  0
SPLINE
  5
161
100
AcDbEntity
  8
Layer_1
 62
7
100
AcDbSpline
 70
8
 71
3
 72
8
 73
4
 74
0
 40
0
 40
0
 40
0
 40
0
 40
1
 40
1
 40
1
 40
1
 10
140.237986
 20
207.914792
 30
0.0
 10
145.062592
 20
200.203216
 30
0.0
 10
155.189595
 20
197.725164
 30
0.0
 10
163.036250
 20
202.411458
 30
0.0
  0
SPLINE
  5
162
100
AcDbEntity
  8
Layer_1
 62
7
100
AcDbSpline
 70
8
 71
3
 72
8
 73
4
 74
0
 40
0
 40
0
 40
0
 40
0
 40
1
 40
1
 40
1
 40
1
 10
163.036250
 20
202.411458
 30
0.0
 10
165.123611
 20
203.658102
 30
0.0
 10
166.838613
 20
205.296548
 30
0.0
 10
168.151528
 20
207.165139
 30
0.0
  0
SPLINE
  5
163
100
AcDbEntity
  8
Layer_1
 62
7
100
AcDbSpline
 70
8
 71
3
 72
8
 73
4
 74
0
 40
0
 40
0
 40
0
 40
0
 40
1
 40
1
 40
1
 40
1
 10
168.151528
 20
207.165139
 30
0.0
 10
168.450971
 20
207.060872
 30
0.0
 10
168.757868
 20
206.981011
 30
0.0
 10
169.077569
 20
206.927014
 30
0.0
  0
SPLINE
  5
164
100
AcDbEntity
  8
Layer_1
 62
7
100
AcDbSpline
 70
8
 71
3
 72
8
 73
4
 74
0
 40
0
 40
0
 40
0
 40
0
 40
1
 40
1
 40
1
 40
1
 10
169.077569
 20
206.927014
 30
0.0
 10
169.392448
 20
206.873832
 30
0.0
 10
169.717599
 20
206.838819
 30
0.0
 10
170.047708
 20
206.838819
 30
0.0
  0
SPLINE
  5
165
100
AcDbEntity
  8
Layer_1
 62
7
100
AcDbSpline
 70
8
 71
3
 72
8
 73
4
 74
0
 40
0
 40
0
 40
0
 40
0
 40
1
 40
1
 40
1
 40
1
 10
170.047708
 20
206.838819
 30
0.0
 10
170.445862
 20
206.838819
 30
0.0
 10
170.836418
 20
206.885451
 30
0.0
 10
171.211875
 20
206.962292
 30
0.0
  0
SPLINE
  5
166
100
AcDbEntity
  8
Layer_1
 62
7
100
AcDbSpline
 70
8
 71
3
 72
8
 73
4
 74
0
 40
0
 40
0
 40
0
 40
0
 40
1
 40
1
 40
1
 40
1
 10
171.211875
 20
206.962292
 30
0.0
 10
172.340470
 20
207.193271
 30
0.0
 10
173.347583
 20
207.755669
 30
0.0
 10
174.131111
 20
208.540972
 30
0.0
  0
SPLINE
  5
167
100
AcDbEntity
  8
Layer_1
 62
7
100
AcDbSpline
 70
8
 71
3
 72
8
 73
4
 74
0
 40
0
 40
0
 40
0
 40
0
 40
1
 40
1
 40
1
 40
1
 10
174.131111
 20
208.540972
 30
0.0
 10
174.260042
 20
208.669903
 30
0.0
 10
174.385213
 20
208.797233
 30
0.0
 10
174.501528
 20
208.937847
 30
0.0
  0
SPLINE
  5
168
100
AcDbEntity
  8
Layer_1
 62
7
100
AcDbSpline
 70
8
 71
3
 72
8
 73
4
 74
0
 40
0
 40
0
 40
0
 40
0
 40
1
 40
1
 40
1
 40
1
 10
174.501528
 20
208.937847
 30
0.0
 10
174.503038
 20
208.939676
 30
0.0
 10
174.500021
 20
208.944835
 30
0.0
 10
174.501528
 20
208.946667
 30
0.0
  0
SPLINE
  5
169
100
AcDbEntity
  8
Layer_1
 62
7
100
AcDbSpline
 70
8
 71
3
 72
8
 73
4
 74
0
 40
0
 40
0
 40
0
 40
0
 40
1
 40
1
 40
1
 40
1
 10
174.501528
 20
208.946667
 30
0.0
 10
174.617569
 20
209.087273
 30
0.0
 10
174.725336
 20
209.236314
 30
0.0
 10
174.827847
 20
209.387639
 30
0.0
  0
SPLINE
  5
16a
100
AcDbEntity
  8
Layer_1
 62
7
100
AcDbSpline
 70
8
 71
3
 72
8
 73
4
 74
0
 40
0
 40
0
 40
0
 40
0
 40
1
 40
1
 40
1
 40
1
 10
174.827847
 20
209.387639
 30
0.0
 10
174.829244
 20
209.389708
 30
0.0
 10
174.826453
 20
209.394387
 30
0.0
 10
174.827847
 20
209.396458
 30
0.0
  0
SPLINE
  5
16b
100
AcDbEntity
  8
Layer_1
 62
7
100
AcDbSpline
 70
8
 71
3
 72
8
 73
4
 74
0
 40
0
 40
0
 40
0
 40
0
 40
1
 40
1
 40
1
 40
1
 10
174.827847
 20
209.396458
 30
0.0
 10
175.033717
 20
209.701171
 30
0.0
 10
175.220452
 20
210.024222
 30
0.0
 10
175.365833
 20
210.366597
 30
0.0
  0
SPLINE
  5
16c
100
AcDbEntity
  8
Layer_1
 62
7
100
AcDbSpline
 70
8
 71
3
 72
8
 73
4
 74
0
 40
0
 40
0
 40
0
 40
0
 40
1
 40
1
 40
1
 40
1
 10
175.365833
 20
210.366597
 30
0.0
 10
175.366906
 20
210.369132
 30
0.0
 10
175.364764
 20
210.372879
 30
0.0
 10
175.365833
 20
210.375417
 30
0.0
  0
SPLINE
  5
16d
100
AcDbEntity
  8
Layer_1
 62
7
100
AcDbSpline
 70
8
 71
3
 72
8
 73
4
 74
0
 40
0
 40
0
 40
0
 40
0
 40
1
 40
1
 40
1
 40
1
 10
175.365833
 20
210.375417
 30
0.0
 10
175.437735
 20
210.545393
 30
0.0
 10
175.504255
 20
210.717924
 30
0.0
 10
175.559861
 20
210.895764
 30
0.0
  0
SPLINE
  5
16e
100
AcDbEntity
  8
Layer_1
 62
7
100
AcDbSpline
 70
8
 71
3
 72
8
 73
4
 74
0
 40
0
 40
0
 40
0
 40
0
 40
1
 40
1
 40
1
 40
1
 10
175.559861
 20
210.895764
 30
0.0
 10
175.560696
 20
210.898451
 30
0.0
 10
175.559029
 20
210.901894
 30
0.0
 10
175.559861
 20
210.904583
 30
0.0
  0
SPLINE
  5
16f
100
AcDbEntity
  8
Layer_1
 62
7
100
AcDbSpline
 70
8
 71
3
 72
8
 73
4
 74
0
 40
0
 40
0
 40
0
 40
0
 40
1
 40
1
 40
1
 40
1
 10
175.559861
 20
210.904583
 30
0.0
 10
175.587115
 20
210.992199
 30
0.0
 10
175.616102
 20
211.079815
 30
0.0
 10
175.639236
 20
211.169167
 30
0.0
  0
SPLINE
  5
170
100
AcDbEntity
  8
Layer_1
 62
7
100
AcDbSpline
 70
8
 71
3
 72
8
 73
4
 74
0
 40
0
 40
0
 40
0
 40
0
 40
1
 40
1
 40
1
 40
1
 10
175.639236
 20
211.169167
 30
0.0
 10
175.639964
 20
211.171995
 30
0.0
 10
175.638514
 20
211.175155
 30
0.0
 10
175.639236
 20
211.177986
 30
0.0
  0
SPLINE
  5
171
100
AcDbEntity
  8
Layer_1
 62
7
100
AcDbSpline
 70
8
 71
3
 72
8
 73
4
 74
0
 40
0
 40
0
 40
0
 40
0
 40
1
 40
1
 40
1
 40
1
 10
175.639236
 20
211.177986
 30
0.0
 10
175.662220
 20
211.267301
 30
0.0
 10
175.682216
 20
211.351635
 30
0.0
 10
175.700972
 20
211.442569
 30
0.0
  0
SPLINE
  5
172
100
AcDbEntity
  8
Layer_1
 62
7
100
AcDbSpline
 70
8
 71
3
 72
8
 73
4
 74
0
 40
0
 40
0
 40
0
 40
0
 40
1
 40
1
 40
1
 40
1
 10
175.700972
 20
211.442569
 30
0.0
 10
175.701537
 20
211.445324
 30
0.0
 10
175.700413
 20
211.448634
 30
0.0
 10
175.700972
 20
211.451389
 30
0.0
  0
SPLINE
  5
173
100
AcDbEntity
  8
Layer_1
 62
7
100
AcDbSpline
 70
8
 71
3
 72
8
 73
4
 74
0
 40
0
 40
0
 40
0
 40
0
 40
1
 40
1
 40
1
 40
1
 10
175.700972
 20
211.451389
 30
0.0
 10
175.719619
 20
211.542499
 30
0.0
 10
175.739594
 20
211.640991
 30
0.0
 10
175.753889
 20
211.733611
 30
0.0
  0
SPLINE
  5
174
100
AcDbEntity
  8
Layer_1
 62
7
100
AcDbSpline
 70
8
 71
3
 72
8
 73
4
 74
0
 40
0
 40
0
 40
0
 40
0
 40
1
 40
1
 40
1
 40
1
 10
175.753889
 20
211.733611
 30
0.0
 10
175.754338
 20
211.736549
 30
0.0
 10
175.753446
 20
211.739493
 30
0.0
 10
175.753889
 20
211.742431
 30
0.0
  0
SPLINE
  5
175
100
AcDbEntity
  8
Layer_1
 62
7
100
AcDbSpline
 70
8
 71
3
 72
8
 73
4
 74
0
 40
0
 40
0
 40
0
 40
0
 40
1
 40
1
 40
1
 40
1
 10
175.753889
 20
211.742431
 30
0.0
 10
175.768028
 20
211.834957
 30
0.0
 10
175.779481
 20
211.921915
 30
0.0
 10
175.789167
 20
212.015833
 30
0.0
  0
SPLINE
  5
176
100
AcDbEntity
  8
Layer_1
 62
7
100
AcDbSpline
 70
8
 71
3
 72
8
 73
4
 74
0
 40
0
 40
0
 40
0
 40
0
 40
1
 40
1
 40
1
 40
1
 10
175.789167
 20
212.015833
 30
0.0
 10
175.789455
 20
212.018675
 30
0.0
 10
175.788882
 20
212.021811
 30
0.0
 10
175.789167
 20
212.024653
 30
0.0
  0
SPLINE
  5
177
100
AcDbEntity
  8
Layer_1
 62
7
100
AcDbSpline
 70
8
 71
3
 72
8
 73
4
 74
0
 40
0
 40
0
 40
0
 40
0
 40
1
 40
1
 40
1
 40
1
 10
175.789167
 20
212.024653
 30
0.0
 10
175.798726
 20
212.118754
 30
0.0
 10
175.801827
 20
212.220312
 30
0.0
 10
175.806806
 20
212.315694
 30
0.0
  0
SPLINE
  5
178
100
AcDbEntity
  8
Layer_1
 62
7
100
AcDbSpline
 70
8
 71
3
 72
8
 73
4
 74
0
 40
0
 40
0
 40
0
 40
0
 40
1
 40
1
 40
1
 40
1
 10
175.806806
 20
212.315694
 30
0.0
 10
175.806955
 20
212.318672
 30
0.0
 10
175.806659
 20
212.321536
 30
0.0
 10
175.806806
 20
212.324514
 30
0.0
  0
SPLINE
  5
179
100
AcDbEntity
  8
Layer_1
 62
7
100
AcDbSpline
 70
8
 71
3
 72
8
 73
4
 74
0
 40
0
 40
0
 40
0
 40
0
 40
1
 40
1
 40
1
 40
1
 10
175.806806
 20
212.324514
 30
0.0
 10
175.811637
 20
212.419840
 30
0.0
 10
175.815478
 20
212.510247
 30
0.0
 10
175.815625
 20
212.606736
 30
0.0
  0
SPLINE
  5
17a
100
AcDbEntity
  8
Layer_1
 62
7
100
AcDbSpline
 70
8
 71
3
 72
8
 73
4
 74
0
 40
0
 40
0
 40
0
 40
0
 40
1
 40
1
 40
1
 40
1
 10
175.815625
 20
212.606736
 30
0.0
 10
175.815625
 20
212.609705
 30
0.0
 10
175.815631
 20
212.612589
 30
0.0
 10
175.815625
 20
212.615556
 30
0.0
  0
SPLINE
  5
17b
100
AcDbEntity
  8
Layer_1
 62
7
100
AcDbSpline
 70
8
 71
3
 72
8
 73
4
 74
0
 40
0
 40
0
 40
0
 40
0
 40
1
 40
1
 40
1
 40
1
 10
175.815625
 20
212.615556
 30
0.0
 10
175.815625
 20
212.781982
 30
0.0
 10
175.811821
 20
212.946602
 30
0.0
 10
175.797986
 20
213.109444
 30
0.0
  0
SPLINE
  5
17c
100
AcDbEntity
  8
Layer_1
 62
7
100
AcDbSpline
 70
8
 71
3
 72
8
 73
4
 74
0
 40
0
 40
0
 40
0
 40
0
 40
1
 40
1
 40
1
 40
1
 10
175.797986
 20
213.109444
 30
0.0
 10
175.797735
 20
213.112343
 30
0.0
 10
175.798240
 20
213.115365
 30
0.0
 10
175.797986
 20
213.118264
 30
0.0
  0
SPLINE
  5
17d
100
AcDbEntity
  8
Layer_1
 62
7
100
AcDbSpline
 70
8
 71
3
 72
8
 73
4
 74
0
 40
0
 40
0
 40
0
 40
0
 40
1
 40
1
 40
1
 40
1
 10
175.797986
 20
213.118264
 30
0.0
 10
175.783909
 20
213.281038
 30
0.0
 10
175.754767
 20
213.444716
 30
0.0
 10
175.727431
 20
213.603333
 30
0.0
  0
SPLINE
  5
17e
100
AcDbEntity
  8
Layer_1
 62
7
100
AcDbSpline
 70
8
 71
3
 72
8
 73
4
 74
0
 40
0
 40
0
 40
0
 40
0
 40
1
 40
1
 40
1
 40
1
 10
175.727431
 20
213.603333
 30
0.0
 10
175.726931
 20
213.606204
 30
0.0
 10
175.727933
 20
213.609285
 30
0.0
 10
175.727431
 20
213.612153
 30
0.0
  0
SPLINE
  5
17f
100
AcDbEntity
  8
Layer_1
 62
7
100
AcDbSpline
 70
8
 71
3
 72
8
 73
4
 74
0
 40
0
 40
0
 40
0
 40
0
 40
1
 40
1
 40
1
 40
1
 10
175.727431
 20
213.612153
 30
0.0
 10
175.699872
 20
213.770646
 30
0.0
 10
175.670650
 20
213.925820
 30
0.0
 10
175.630417
 20
214.079583
 30
0.0
  0
SPLINE
  5
180
100
AcDbEntity
  8
Layer_1
 62
7
100
AcDbSpline
 70
8
 71
3
 72
8
 73
4
 74
0
 40
0
 40
0
 40
0
 40
0
 40
1
 40
1
 40
1
 40
1
 10
175.630417
 20
214.079583
 30
0.0
 10
175.629700
 20
214.082301
 30
0.0
 10
175.631136
 20
214.085685
 30
0.0
 10
175.630417
 20
214.088403
 30
0.0
  0
SPLINE
  5
181
100
AcDbEntity
  8
Layer_1
 62
7
100
AcDbSpline
 70
8
 71
3
 72
8
 73
4
 74
0
 40
0
 40
0
 40
0
 40
0
 40
1
 40
1
 40
1
 40
1
 10
175.630417
 20
214.088403
 30
0.0
 10
175.589943
 20
214.242141
 30
0.0
 10
175.533067
 20
214.389765
 30
0.0
 10
175.480486
 20
214.538194
 30
0.0
  0
SPLINE
  5
182
100
AcDbEntity
  8
Layer_1
 62
7
100
AcDbSpline
 70
8
 71
3
 72
8
 73
4
 74
0
 40
0
 40
0
 40
0
 40
0
 40
1
 40
1
 40
1
 40
1
 10
175.480486
 20
214.538194
 30
0.0
 10
175.479572
 20
214.540760
 30
0.0
 10
175.481403
 20
214.544451
 30
0.0
 10
175.480486
 20
214.547014
 30
0.0
  0
SPLINE
  5
183
100
AcDbEntity
  8
Layer_1
 62
7
100
AcDbSpline
 70
8
 71
3
 72
8
 73
4
 74
0
 40
0
 40
0
 40
0
 40
0
 40
1
 40
1
 40
1
 40
1
 10
175.480486
 20
214.547014
 30
0.0
 10
175.427674
 20
214.695404
 30
0.0
 10
175.368447
 20
214.845484
 30
0.0
 10
175.304097
 20
214.987986
 30
0.0
  0
SPLINE
  5
184
100
AcDbEntity
  8
Layer_1
 62
7
100
AcDbSpline
 70
8
 71
3
 72
8
 73
4
 74
0
 40
0
 40
0
 40
0
 40
0
 40
1
 40
1
 40
1
 40
1
 10
175.304097
 20
214.987986
 30
0.0
 10
175.303002
 20
214.990399
 30
0.0
 10
175.305195
 20
214.994393
 30
0.0
 10
175.304097
 20
214.996806
 30
0.0
  0
SPLINE
  5
185
100
AcDbEntity
  8
Layer_1
 62
7
100
AcDbSpline
 70
8
 71
3
 72
8
 73
4
 74
0
 40
0
 40
0
 40
0
 40
0
 40
1
 40
1
 40
1
 40
1
 10
175.304097
 20
214.996806
 30
0.0
 10
175.239530
 20
215.139249
 30
0.0
 10
175.167965
 20
215.275339
 30
0.0
 10
175.092431
 20
215.411319
 30
0.0
  0
SPLINE
  5
186
100
AcDbEntity
  8
Layer_1
 62
7
100
AcDbSpline
 70
8
 71
3
 72
8
 73
4
 74
0
 40
0
 40
0
 40
0
 40
0
 40
1
 40
1
 40
1
 40
1
 10
175.092431
 20
215.411319
 30
0.0
 10
175.091209
 20
215.413512
 30
0.0
 10
175.093655
 20
215.417949
 30
0.0
 10
175.092431
 20
215.420139
 30
0.0
  0
SPLINE
  5
187
100
AcDbEntity
  8
Layer_1
 62
7
100
AcDbSpline
 70
8
 71
3
 72
8
 73
4
 74
0
 40
0
 40
0
 40
0
 40
0
 40
1
 40
1
 40
1
 40
1
 10
175.092431
 20
215.420139
 30
0.0
 10
174.939579
 20
215.694425
 30
0.0
 10
174.757278
 20
215.951817
 30
0.0
 10
174.563264
 20
216.196250
 30
0.0
  0
SPLINE
  5
188
100
AcDbEntity
  8
Layer_1
 62
7
100
AcDbSpline
 70
8
 71
3
 72
8
 73
4
 74
0
 40
0
 40
0
 40
0
 40
0
 40
1
 40
1
 40
1
 40
1
 10
174.563264
 20
216.196250
 30
0.0
 10
174.561878
 20
216.197991
 30
0.0
 10
174.564652
 20
216.203328
 30
0.0
 10
174.563264
 20
216.205069
 30
0.0
  0
SPLINE
  5
189
100
AcDbEntity
  8
Layer_1
 62
7
100
AcDbSpline
 70
8
 71
3
 72
8
 73
4
 74
0
 40
0
 40
0
 40
0
 40
0
 40
1
 40
1
 40
1
 40
1
 10
174.563264
 20
216.205069
 30
0.0
 10
174.466769
 20
216.326338
 30
0.0
 10
174.360357
 20
216.435989
 30
0.0
 10
174.254583
 20
216.549028
 30
0.0
  0
SPLINE
  5
18a
100
AcDbEntity
  8
Layer_1
 62
7
100
AcDbSpline
 70
8
 71
3
 72
8
 73
4
 74
0
 40
0
 40
0
 40
0
 40
0
 40
1
 40
1
 40
1
 40
1
 10
174.254583
 20
216.549028
 30
0.0
 10
174.253169
 20
216.550535
 30
0.0
 10
174.255997
 20
216.556343
 30
0.0
 10
174.254583
 20
216.557847
 30
0.0
  0
SPLINE
  5
18b
100
AcDbEntity
  8
Layer_1
 62
7
100
AcDbSpline
 70
8
 71
3
 72
8
 73
4
 74
0
 40
0
 40
0
 40
0
 40
0
 40
1
 40
1
 40
1
 40
1
 10
174.254583
 20
216.557847
 30
0.0
 10
174.148572
 20
216.670880
 30
0.0
 10
174.034171
 20
216.779959
 30
0.0
 10
173.919444
 20
216.884167
 30
0.0
  0
SPLINE
  5
18c
100
AcDbEntity
  8
Layer_1
 62
7
100
AcDbSpline
 70
8
 71
3
 72
8
 73
4
 74
0
 40
0
 40
0
 40
0
 40
0
 40
1
 40
1
 40
1
 40
1
 10
173.919444
 20
216.884167
 30
0.0
 10
173.220374
 20
217.519138
 30
0.0
 10
172.370552
 20
217.983735
 30
0.0
 10
171.423542
 20
218.215903
 30
0.0
  0
SPLINE
  5
18d
100
AcDbEntity
  8
Layer_1
 62
7
100
AcDbSpline
 70
8
 71
3
 72
8
 73
4
 74
0
 40
0
 40
0
 40
0
 40
0
 40
1
 40
1
 40
1
 40
1
 10
171.423542
 20
218.215903
 30
0.0
 10
171.590829
 20
219.114778
 30
0.0
 10
171.768683
 20
220.090290
 30
0.0
 10
171.952708
 20
221.126319
 30
0.0
  0
SPLINE
  5
18e
100
AcDbEntity
  8
Layer_1
 62
7
100
AcDbSpline
 70
8
 71
3
 72
8
 73
4
 74
0
 40
0
 40
0
 40
0
 40
0
 40
1
 40
1
 40
1
 40
1
 10
171.952708
 20
221.126319
 30
0.0
 10
171.953191
 20
221.129034
 30
0.0
 10
171.952226
 20
221.132424
 30
0.0
 10
171.952708
 20
221.135139
 30
0.0
  0
SPLINE
  5
18f
100
AcDbEntity
  8
Layer_1
 62
7
100
AcDbSpline
 70
8
 71
3
 72
8
 73
4
 74
0
 40
0
 40
0
 40
0
 40
0
 40
1
 40
1
 40
1
 40
1
 10
171.952708
 20
221.135139
 30
0.0
 10
172.136824
 20
222.171840
 30
0.0
 10
172.327031
 20
223.271321
 30
0.0
 10
172.517153
 20
224.407153
 30
0.0
  0
SPLINE
  5
190
100
AcDbEntity
  8
Layer_1
 62
7
100
AcDbSpline
 70
8
 71
3
 72
8
 73
4
 74
0
 40
0
 40
0
 40
0
 40
0
 40
1
 40
1
 40
1
 40
1
 10
172.517153
 20
224.407153
 30
0.0
 10
172.517618
 20
224.409933
 30
0.0
 10
172.516687
 20
224.413190
 30
0.0
 10
172.517153
 20
224.415972
 30
0.0
  0
SPLINE
  5
191
100
AcDbEntity
  8
Layer_1
 62
7
100
AcDbSpline
 70
8
 71
3
 72
8
 73
4
 74
0
 40
0
 40
0
 40
0
 40
0
 40
1
 40
1
 40
1
 40
1
 10
172.517153
 20
224.415972
 30
0.0
 10
172.707308
 20
225.552207
 30
0.0
 10
172.904999
 20
226.728828
 30
0.0
 10
173.090417
 20
227.926111
 30
0.0
  0
SPLINE
  5
192
100
AcDbEntity
  8
Layer_1
 62
7
100
AcDbSpline
 70
8
 71
3
 72
8
 73
4
 74
0
 40
0
 40
0
 40
0
 40
0
 40
1
 40
1
 40
1
 40
1
 10
173.090417
 20
227.926111
 30
0.0
 10
173.090857
 20
227.928959
 30
0.0
 10
173.089976
 20
227.932080
 30
0.0
 10
173.090417
 20
227.934931
 30
0.0
  0
SPLINE
  5
193
100
AcDbEntity
  8
Layer_1
 62
7
100
AcDbSpline
 70
8
 71
3
 72
8
 73
4
 74
0
 40
0
 40
0
 40
0
 40
0
 40
1
 40
1
 40
1
 40
1
 10
173.090417
 20
227.934931
 30
0.0
 10
173.182898
 20
228.532240
 30
0.0
 10
173.274522
 20
229.137530
 30
0.0
 10
173.363819
 20
229.742917
 30
0.0
  0
SPLINE
  5
194
100
AcDbEntity
  8
Layer_1
 62
7
100
AcDbSpline
 70
8
 71
3
 72
8
 73
4
 74
0
 40
0
 40
0
 40
0
 40
0
 40
1
 40
1
 40
1
 40
1
 10
173.363819
 20
229.742917
 30
0.0
 10
173.364243
 20
229.745795
 30
0.0
 10
173.363396
 20
229.748857
 30
0.0
 10
173.363819
 20
229.751736
 30
0.0
  0
SPLINE
  5
195
100
AcDbEntity
  8
Layer_1
 62
7
100
AcDbSpline
 70
8
 71
3
 72
8
 73
4
 74
0
 40
0
 40
0
 40
0
 40
0
 40
1
 40
1
 40
1
 40
1
 10
173.363819
 20
229.751736
 30
0.0
 10
173.453100
 20
230.357159
 30
0.0
 10
173.543643
 20
230.959786
 30
0.0
 10
173.628403
 20
231.568542
 30
0.0
  0
SPLINE
  5
196
100
AcDbEntity
  8
Layer_1
 62
7
100
AcDbSpline
 70
8
 71
3
 72
8
 73
4
 74
0
 40
0
 40
0
 40
0
 40
0
 40
1
 40
1
 40
1
 40
1
 10
173.628403
 20
231.568542
 30
0.0
 10
173.628804
 20
231.571429
 30
0.0
 10
173.628002
 20
231.574474
 30
0.0
 10
173.628403
 20
231.577361
 30
0.0
  0
SPLINE
  5
197
100
AcDbEntity
  8
Layer_1
 62
7
100
AcDbSpline
 70
8
 71
3
 72
8
 73
4
 74
0
 40
0
 40
0
 40
0
 40
0
 40
1
 40
1
 40
1
 40
1
 10
173.628403
 20
231.577361
 30
0.0
 10
173.713137
 20
232.186129
 30
0.0
 10
173.796472
 20
232.795627
 30
0.0
 10
173.875347
 20
233.402986
 30
0.0
  0
SPLINE
  5
198
100
AcDbEntity
  8
Layer_1
 62
7
100
AcDbSpline
 70
8
 71
3
 72
8
 73
4
 74
0
 40
0
 40
0
 40
0
 40
0
 40
1
 40
1
 40
1
 40
1
 10
173.875347
 20
233.402986
 30
0.0
 10
173.875725
 20
233.405893
 30
0.0
 10
173.874969
 20
233.408901
 30
0.0
 10
173.875347
 20
233.411806
 30
0.0
  0
SPLINE
  5
199
100
AcDbEntity
  8
Layer_1
 62
7
100
AcDbSpline
 70
8
 71
3
 72
8
 73
4
 74
0
 40
0
 40
0
 40
0
 40
0
 40
1
 40
1
 40
1
 40
1
 10
173.875347
 20
233.411806
 30
0.0
 10
173.954189
 20
234.019122
 30
0.0
 10
174.024188
 20
234.627444
 30
0.0
 10
174.095833
 20
235.228611
 30
0.0
  0
SPLINE
  5
19a
100
AcDbEntity
  8
Layer_1
 62
7
100
AcDbSpline
 70
8
 71
3
 72
8
 73
4
 74
0
 40
0
 40
0
 40
0
 40
0
 40
1
 40
1
 40
1
 40
1
 10
174.095833
 20
235.228611
 30
0.0
 10
174.096180
 20
235.231535
 30
0.0
 10
174.095486
 20
235.234507
 30
0.0
 10
174.095833
 20
235.237431
 30
0.0
  0
SPLINE
  5
19b
100
AcDbEntity
  8
Layer_1
 62
7
100
AcDbSpline
 70
8
 71
3
 72
8
 73
4
 74
0
 40
0
 40
0
 40
0
 40
0
 40
1
 40
1
 40
1
 40
1
 10
174.095833
 20
235.237431
 30
0.0
 10
174.167436
 20
235.838510
 30
0.0
 10
174.235610
 20
236.437589
 30
0.0
 10
174.298681
 20
237.027778
 30
0.0
  0
SPLINE
  5
19c
100
AcDbEntity
  8
Layer_1
 62
7
100
AcDbSpline
 70
8
 71
3
 72
8
 73
4
 74
0
 40
0
 40
0
 40
0
 40
0
 40
1
 40
1
 40
1
 40
1
 10
174.298681
 20
237.027778
 30
0.0
 10
174.298997
 20
237.030727
 30
0.0
 10
174.298364
 20
237.033648
 30
0.0
 10
174.298681
 20
237.036597
 30
0.0
  0
SPLINE
  5
19d
100
AcDbEntity
  8
Layer_1
 62
7
100
AcDbSpline
 70
8
 71
3
 72
8
 73
4
 74
0
 40
0
 40
0
 40
0
 40
0
 40
1
 40
1
 40
1
 40
1
 10
174.298681
 20
237.036597
 30
0.0
 10
174.361698
 20
237.626642
 30
0.0
 10
174.421916
 20
238.208429
 30
0.0
 10
174.475069
 20
238.782847
 30
0.0
  0
SPLINE
  5
19e
100
AcDbEntity
  8
Layer_1
 62
7
100
AcDbSpline
 70
8
 71
3
 72
8
 73
4
 74
0
 40
0
 40
0
 40
0
 40
0
 40
1
 40
1
 40
1
 40
1
 10
174.475069
 20
238.782847
 30
0.0
 10
174.475343
 20
238.785816
 30
0.0
 10
174.474796
 20
238.788701
 30
0.0
 10
174.475069
 20
238.791667
 30
0.0
  0
SPLINE
  5
19f
100
AcDbEntity
  8
Layer_1
 62
7
100
AcDbSpline
 70
8
 71
3
 72
8
 73
4
 74
0
 40
0
 40
0
 40
0
 40
0
 40
1
 40
1
 40
1
 40
1
 10
174.475069
 20
238.791667
 30
0.0
 10
174.528161
 20
239.365899
 30
0.0
 10
174.583104
 20
239.931130
 30
0.0
 10
174.625000
 20
240.485000
 30
0.0
  0
SPLINE
  5
1a0
100
AcDbEntity
  8
Layer_1
 62
7
100
AcDbSpline
 70
8
 71
3
 72
8
 73
4
 74
0
 40
0
 40
0
 40
0
 40
0
 40
1
 40
1
 40
1
 40
1
 10
174.625000
 20
240.485000
 30
0.0
 10
174.625226
 20
240.487997
 30
0.0
 10
174.624774
 20
240.490825
 30
0.0
 10
174.625000
 20
240.493819
 30
0.0
  0
SPLINE
  5
1a1
100
AcDbEntity
  8
Layer_1
 62
7
100
AcDbSpline
 70
8
 71
3
 72
8
 73
4
 74
0
 40
0
 40
0
 40
0
 40
0
 40
1
 40
1
 40
1
 40
1
 10
174.625000
 20
240.493819
 30
0.0
 10
174.666823
 20
241.047438
 30
0.0
 10
174.701539
 20
241.588066
 30
0.0
 10
174.730833
 20
242.116597
 30
0.0
  0
SPLINE
  5
1a2
100
AcDbEntity
  8
Layer_1
 62
7
100
AcDbSpline
 70
8
 71
3
 72
8
 73
4
 74
0
 40
0
 40
0
 40
0
 40
0
 40
1
 40
1
 40
1
 40
1
 10
174.730833
 20
242.116597
 30
0.0
 10
174.731000
 20
242.119611
 30
0.0
 10
174.730667
 20
242.122403
 30
0.0
 10
174.730833
 20
242.125417
 30
0.0
  0
SPLINE
  5
1a3
100
AcDbEntity
  8
Layer_1
 62
7
100
AcDbSpline
 70
8
 71
3
 72
8
 73
4
 74
0
 40
0
 40
0
 40
0
 40
0
 40
1
 40
1
 40
1
 40
1
 10
174.730833
 20
242.125417
 30
0.0
 10
174.760049
 20
242.653646
 30
0.0
 10
174.777208
 20
243.170395
 30
0.0
 10
174.792569
 20
243.668819
 30
0.0
  0
SPLINE
  5
1a4
100
AcDbEntity
  8
Layer_1
 62
7
100
AcDbSpline
 70
8
 71
3
 72
8
 73
4
 74
0
 40
0
 40
0
 40
0
 40
0
 40
1
 40
1
 40
1
 40
1
 10
174.792569
 20
243.668819
 30
0.0
 10
174.792663
 20
243.671873
 30
0.0
 10
174.792476
 20
243.674585
 30
0.0
 10
174.792569
 20
243.677639
 30
0.0
  0
SPLINE
  5
1a5
100
AcDbEntity
  8
Layer_1
 62
7
100
AcDbSpline
 70
8
 71
3
 72
8
 73
4
 74
0
 40
0
 40
0
 40
0
 40
0
 40
1
 40
1
 40
1
 40
1
 10
174.792569
 20
243.677639
 30
0.0
 10
174.807843
 20
244.175668
 30
0.0
 10
174.818932
 20
244.651687
 30
0.0
 10
174.819028
 20
245.115208
 30
0.0
  0
LWPOLYLINE
  5
1a6
100
AcDbEntity
  8
Layer_1
 62
7
100
AcDbPolyline
 90
2
 70
0
 10
136.807222
 20
282.395000
 30
0.0
 10
136.807222
 20
282.386181
 30
0.0
  0
SPLINE
  5
1a7
100
AcDbEntity
  8
Layer_1
 62
7
100
AcDbSpline
 70
8
 71
3
 72
8
 73
4
 74
0
 40
0
 40
0
 40
0
 40
0
 40
1
 40
1
 40
1
 40
1
 10
174.819028
 20
245.124028
 30
0.0
 10
174.819028
 20
245.587341
 30
0.0
 10
174.807753
 20
246.072565
 30
0.0
 10
174.792569
 20
246.570417
 30
0.0
  0
SPLINE
  5
1a8
100
AcDbEntity
  8
Layer_1
 62
7
100
AcDbSpline
 70
8
 71
3
 72
8
 73
4
 74
0
 40
0
 40
0
 40
0
 40
0
 40
1
 40
1
 40
1
 40
1
 10
174.792569
 20
246.570417
 30
0.0
 10
174.792482
 20
246.573259
 30
0.0
 10
174.792657
 20
246.576391
 30
0.0
 10
174.792569
 20
246.579236
 30
0.0
  0
SPLINE
  5
1a9
100
AcDbEntity
  8
Layer_1
 62
7
100
AcDbSpline
 70
8
 71
3
 72
8
 73
4
 74
0
 40
0
 40
0
 40
0
 40
0
 40
1
 40
1
 40
1
 40
1
 10
174.792569
 20
246.579236
 30
0.0
 10
174.777290
 20
247.077477
 30
0.0
 10
174.759973
 20
247.594564
 30
0.0
 10
174.730833
 20
248.122639
 30
0.0
  0
SPLINE
  5
1aa
100
AcDbEntity
  8
Layer_1
 62
7
100
AcDbSpline
 70
8
 71
3
 72
8
 73
4
 74
0
 40
0
 40
0
 40
0
 40
0
 40
1
 40
1
 40
1
 40
1
 10
174.730833
 20
248.122639
 30
0.0
 10
174.730675
 20
248.125498
 30
0.0
 10
174.730991
 20
248.128597
 30
0.0
 10
174.730833
 20
248.131458
 30
0.0
  0
SPLINE
  5
1ab
100
AcDbEntity
  8
Layer_1
 62
7
100
AcDbSpline
 70
8
 71
3
 72
8
 73
4
 74
0
 40
0
 40
0
 40
0
 40
0
 40
1
 40
1
 40
1
 40
1
 10
174.730833
 20
248.131458
 30
0.0
 10
174.701609
 20
248.659843
 30
0.0
 10
174.666758
 20
249.200739
 30
0.0
 10
174.625000
 20
249.754236
 30
0.0
  0
SPLINE
  5
1ac
100
AcDbEntity
  8
Layer_1
 62
7
100
AcDbSpline
 70
8
 71
3
 72
8
 73
4
 74
0
 40
0
 40
0
 40
0
 40
0
 40
1
 40
1
 40
1
 40
1
 10
174.625000
 20
249.754236
 30
0.0
 10
174.624783
 20
249.757098
 30
0.0
 10
174.625217
 20
249.760194
 30
0.0
 10
174.625000
 20
249.763056
 30
0.0
  0
SPLINE
  5
1ad
100
AcDbEntity
  8
Layer_1
 62
7
100
AcDbSpline
 70
8
 71
3
 72
8
 73
4
 74
0
 40
0
 40
0
 40
0
 40
0
 40
1
 40
1
 40
1
 40
1
 10
174.625000
 20
249.763056
 30
0.0
 10
174.583166
 20
250.316809
 30
0.0
 10
174.528107
 20
250.882250
 30
0.0
 10
174.475069
 20
251.456389
 30
0.0
  0
SPLINE
  5
1ae
100
AcDbEntity
  8
Layer_1
 62
7
100
AcDbSpline
 70
8
 71
3
 72
8
 73
4
 74
0
 40
0
 40
0
 40
0
 40
0
 40
1
 40
1
 40
1
 40
1
 10
174.475069
 20
251.456389
 30
0.0
 10
174.474804
 20
251.459259
 30
0.0
 10
174.475335
 20
251.462335
 30
0.0
 10
174.475069
 20
251.465208
 30
0.0
  0
SPLINE
  5
1af
100
AcDbEntity
  8
Layer_1
 62
7
100
AcDbSpline
 70
8
 71
3
 72
8
 73
4
 74
0
 40
0
 40
0
 40
0
 40
0
 40
1
 40
1
 40
1
 40
1
 10
174.475069
 20
251.465208
 30
0.0
 10
174.421969
 20
252.039536
 30
0.0
 10
174.361653
 20
252.621481
 30
0.0
 10
174.298681
 20
253.211458
 30
0.0
  0
SPLINE
  5
1b0
100
AcDbEntity
  8
Layer_1
 62
7
100
AcDbSpline
 70
8
 71
3
 72
8
 73
4
 74
0
 40
0
 40
0
 40
0
 40
0
 40
1
 40
1
 40
1
 40
1
 10
174.298681
 20
253.211458
 30
0.0
 10
174.298373
 20
253.214329
 30
0.0
 10
174.298988
 20
253.217408
 30
0.0
 10
174.298681
 20
253.220278
 30
0.0
  0
SPLINE
  5
1b1
100
AcDbEntity
  8
Layer_1
 62
7
100
AcDbSpline
 70
8
 71
3
 72
8
 73
4
 74
0
 40
0
 40
0
 40
0
 40
0
 40
1
 40
1
 40
1
 40
1
 10
174.298681
 20
253.220278
 30
0.0
 10
174.235655
 20
253.810402
 30
0.0
 10
174.167399
 20
254.409588
 30
0.0
 10
174.095833
 20
255.010625
 30
0.0
  0
SPLINE
  5
1b2
100
AcDbEntity
  8
Layer_1
 62
7
100
AcDbSpline
 70
8
 71
3
 72
8
 73
4
 74
0
 40
0
 40
0
 40
0
 40
0
 40
1
 40
1
 40
1
 40
1
 10
174.095833
 20
255.010625
 30
0.0
 10
174.095489
 20
255.013515
 30
0.0
 10
174.096178
 20
255.016554
 30
0.0
 10
174.095833
 20
255.019444
 30
0.0
  0
SPLINE
  5
1b3
100
AcDbEntity
  8
Layer_1
 62
7
100
AcDbSpline
 70
8
 71
3
 72
8
 73
4
 74
0
 40
0
 40
0
 40
0
 40
0
 40
1
 40
1
 40
1
 40
1
 10
174.095833
 20
255.019444
 30
0.0
 10
174.024225
 20
255.620558
 30
0.0
 10
173.954155
 20
256.220145
 30
0.0
 10
173.875347
 20
256.827431
 30
0.0
  0
SPLINE
  5
1b4
100
AcDbEntity
  8
Layer_1
 62
7
100
AcDbSpline
 70
8
 71
3
 72
8
 73
4
 74
0
 40
0
 40
0
 40
0
 40
0
 40
1
 40
1
 40
1
 40
1
 10
173.875347
 20
256.827431
 30
0.0
 10
173.874972
 20
256.830312
 30
0.0
 10
173.875723
 20
256.833369
 30
0.0
 10
173.875347
 20
256.836250
 30
0.0
  0
SPLINE
  5
1b5
100
AcDbEntity
  8
Layer_1
 62
7
100
AcDbSpline
 70
8
 71
3
 72
8
 73
4
 74
0
 40
0
 40
0
 40
0
 40
0
 40
1
 40
1
 40
1
 40
1
 10
173.875347
 20
256.836250
 30
0.0
 10
173.796503
 20
257.443592
 30
0.0
 10
173.713112
 20
258.053102
 30
0.0
 10
173.628403
 20
258.661875
 30
0.0
  0
SPLINE
  5
1b6
100
AcDbEntity
  8
Layer_1
 62
7
100
AcDbSpline
 70
8
 71
3
 72
8
 73
4
 74
0
 40
0
 40
0
 40
0
 40
0
 40
1
 40
1
 40
1
 40
1
 10
173.628403
 20
258.661875
 30
0.0
 10
173.628002
 20
258.664756
 30
0.0
 10
173.628804
 20
258.667813
 30
0.0
 10
173.628403
 20
258.670694
 30
0.0
  0
SPLINE
  5
1b7
100
AcDbEntity
  8
Layer_1
 62
7
100
AcDbSpline
 70
8
 71
3
 72
8
 73
4
 74
0
 40
0
 40
0
 40
0
 40
0
 40
1
 40
1
 40
1
 40
1
 10
173.628403
 20
258.670694
 30
0.0
 10
173.543668
 20
259.279470
 30
0.0
 10
173.453084
 20
259.890857
 30
0.0
 10
173.363819
 20
260.496319
 30
0.0
  0
SPLINE
  5
1b8
100
AcDbEntity
  8
Layer_1
 62
7
100
AcDbSpline
 70
8
 71
3
 72
8
 73
4
 74
0
 40
0
 40
0
 40
0
 40
0
 40
1
 40
1
 40
1
 40
1
 10
173.363819
 20
260.496319
 30
0.0
 10
173.363393
 20
260.499207
 30
0.0
 10
173.364246
 20
260.502252
 30
0.0
 10
173.363819
 20
260.505139
 30
0.0
  0
SPLINE
  5
1b9
100
AcDbEntity
  8
Layer_1
 62
7
100
AcDbSpline
 70
8
 71
3
 72
8
 73
4
 74
0
 40
0
 40
0
 40
0
 40
0
 40
1
 40
1
 40
1
 40
1
 10
173.363819
 20
260.505139
 30
0.0
 10
173.095144
 20
262.327070
 30
0.0
 10
172.802623
 20
264.117228
 30
0.0
 10
172.517153
 20
265.823264
 30
0.0
  0
SPLINE
  5
1ba
100
AcDbEntity
  8
Layer_1
 62
7
100
AcDbSpline
 70
8
 71
3
 72
8
 73
4
 74
0
 40
0
 40
0
 40
0
 40
0
 40
1
 40
1
 40
1
 40
1
 10
172.517153
 20
265.823264
 30
0.0
 10
172.516656
 20
265.826239
 30
0.0
 10
172.517649
 20
265.829109
 30
0.0
 10
172.517153
 20
265.832083
 30
0.0
  0
SPLINE
  5
1bb
100
AcDbEntity
  8
Layer_1
 62
7
100
AcDbSpline
 70
8
 71
3
 72
8
 73
4
 74
0
 40
0
 40
0
 40
0
 40
0
 40
1
 40
1
 40
1
 40
1
 10
172.517153
 20
265.832083
 30
0.0
 10
172.327028
 20
266.968127
 30
0.0
 10
172.136856
 20
268.067086
 30
0.0
 10
171.952708
 20
269.104097
 30
0.0
  0
SPLINE
  5
1bc
100
AcDbEntity
  8
Layer_1
 62
7
100
AcDbSpline
 70
8
 71
3
 72
8
 73
4
 74
0
 40
0
 40
0
 40
0
 40
0
 40
1
 40
1
 40
1
 40
1
 10
171.952708
 20
269.104097
 30
0.0
 10
171.952169
 20
269.107138
 30
0.0
 10
171.953247
 20
269.109877
 30
0.0
 10
171.952708
 20
269.112917
 30
0.0
  0
SPLINE
  5
1bd
100
AcDbEntity
  8
Layer_1
 62
7
100
AcDbSpline
 70
8
 71
3
 72
8
 73
4
 74
0
 40
0
 40
0
 40
0
 40
0
 40
1
 40
1
 40
1
 40
1
 10
171.952708
 20
269.112917
 30
0.0
 10
171.768649
 20
270.149291
 30
0.0
 10
171.590894
 20
271.124001
 30
0.0
 10
171.423542
 20
272.023333
 30
0.0
  0
SPLINE
  5
1be
100
AcDbEntity
  8
Layer_1
 62
7
100
AcDbSpline
 70
8
 71
3
 72
8
 73
4
 74
0
 40
0
 40
0
 40
0
 40
0
 40
1
 40
1
 40
1
 40
1
 10
171.423542
 20
272.023333
 30
0.0
 10
171.581019
 20
272.061952
 30
0.0
 10
171.738849
 20
272.113198
 30
0.0
 10
171.890972
 20
272.164444
 30
0.0
  0
SPLINE
  5
1bf
100
AcDbEntity
  8
Layer_1
 62
7
100
AcDbSpline
 70
8
 71
3
 72
8
 73
4
 74
0
 40
0
 40
0
 40
0
 40
0
 40
1
 40
1
 40
1
 40
1
 10
171.890972
 20
272.164444
 30
0.0
 10
172.195216
 20
272.266937
 30
0.0
 10
172.484864
 20
272.394240
 30
0.0
 10
172.764097
 20
272.543681
 30
0.0
  0
SPLINE
  5
1c0
100
AcDbEntity
  8
Layer_1
 62
7
100
AcDbSpline
 70
8
 71
3
 72
8
 73
4
 74
0
 40
0
 40
0
 40
0
 40
0
 40
1
 40
1
 40
1
 40
1
 10
172.764097
 20
272.543681
 30
0.0
 10
173.324534
 20
272.843616
 30
0.0
 10
173.823887
 20
273.229936
 30
0.0
 10
174.254583
 20
273.690208
 30
0.0
  0
SPLINE
  5
1c1
100
AcDbEntity
  8
Layer_1
 62
7
100
AcDbSpline
 70
8
 71
3
 72
8
 73
4
 74
0
 40
0
 40
0
 40
0
 40
0
 40
1
 40
1
 40
1
 40
1
 10
174.254583
 20
273.690208
 30
0.0
 10
174.360493
 20
273.803132
 30
0.0
 10
174.466625
 20
273.921826
 30
0.0
 10
174.563264
 20
274.042986
 30
0.0
  0
SPLINE
  5
1c2
100
AcDbEntity
  8
Layer_1
 62
7
100
AcDbSpline
 70
8
 71
3
 72
8
 73
4
 74
0
 40
0
 40
0
 40
0
 40
0
 40
1
 40
1
 40
1
 40
1
 10
174.563264
 20
274.042986
 30
0.0
 10
174.564729
 20
274.044827
 30
0.0
 10
174.561802
 20
274.049963
 30
0.0
 10
174.563264
 20
274.051806
 30
0.0
  0
SPLINE
  5
1c3
100
AcDbEntity
  8
Layer_1
 62
7
100
AcDbSpline
 70
8
 71
3
 72
8
 73
4
 74
0
 40
0
 40
0
 40
0
 40
0
 40
1
 40
1
 40
1
 40
1
 10
174.563264
 20
274.051806
 30
0.0
 10
174.659682
 20
274.172974
 30
0.0
 10
174.758903
 20
274.293407
 30
0.0
 10
174.845486
 20
274.422222
 30
0.0
  0
SPLINE
  5
1c4
100
AcDbEntity
  8
Layer_1
 62
7
100
AcDbSpline
 70
8
 71
3
 72
8
 73
4
 74
0
 40
0
 40
0
 40
0
 40
0
 40
1
 40
1
 40
1
 40
1
 10
174.845486
 20
274.422222
 30
0.0
 10
174.846877
 20
274.424298
 30
0.0
 10
174.844098
 20
274.428964
 30
0.0
 10
174.845486
 20
274.431042
 30
0.0
  0
SPLINE
  5
1c5
100
AcDbEntity
  8
Layer_1
 62
7
100
AcDbSpline
 70
8
 71
3
 72
8
 73
4
 74
0
 40
0
 40
0
 40
0
 40
0
 40
1
 40
1
 40
1
 40
1
 10
174.845486
 20
274.431042
 30
0.0
 10
174.931835
 20
274.559851
 30
0.0
 10
175.016479
 20
274.692050
 30
0.0
 10
175.092431
 20
274.827917
 30
0.0
  0
SPLINE
  5
1c6
100
AcDbEntity
  8
Layer_1
 62
7
100
AcDbSpline
 70
8
 71
3
 72
8
 73
4
 74
0
 40
0
 40
0
 40
0
 40
0
 40
1
 40
1
 40
1
 40
1
 10
175.092431
 20
274.827917
 30
0.0
 10
175.093715
 20
274.830220
 30
0.0
 10
175.091149
 20
274.834431
 30
0.0
 10
175.092431
 20
274.836736
 30
0.0
  0
SPLINE
  5
1c7
100
AcDbEntity
  8
Layer_1
 62
7
100
AcDbSpline
 70
8
 71
3
 72
8
 73
4
 74
0
 40
0
 40
0
 40
0
 40
0
 40
1
 40
1
 40
1
 40
1
 10
175.092431
 20
274.836736
 30
0.0
 10
175.168148
 20
274.972601
 30
0.0
 10
175.239336
 20
275.108913
 30
0.0
 10
175.304097
 20
275.251250
 30
0.0
  0
SPLINE
  5
1c8
100
AcDbEntity
  8
Layer_1
 62
7
100
AcDbSpline
 70
8
 71
3
 72
8
 73
4
 74
0
 40
0
 40
0
 40
0
 40
0
 40
1
 40
1
 40
1
 40
1
 10
175.304097
 20
275.251250
 30
0.0
 10
175.305229
 20
275.253747
 30
0.0
 10
175.302968
 20
275.257570
 30
0.0
 10
175.304097
 20
275.260069
 30
0.0
  0
SPLINE
  5
1c9
100
AcDbEntity
  8
Layer_1
 62
7
100
AcDbSpline
 70
8
 71
3
 72
8
 73
4
 74
0
 40
0
 40
0
 40
0
 40
0
 40
1
 40
1
 40
1
 40
1
 10
175.304097
 20
275.260069
 30
0.0
 10
175.368630
 20
275.402428
 30
0.0
 10
175.427476
 20
275.543973
 30
0.0
 10
175.480486
 20
275.692222
 30
0.0
  0
SPLINE
  5
1ca
100
AcDbEntity
  8
Layer_1
 62
7
100
AcDbSpline
 70
8
 71
3
 72
8
 73
4
 74
0
 40
0
 40
0
 40
0
 40
0
 40
1
 40
1
 40
1
 40
1
 10
175.480486
 20
275.692222
 30
0.0
 10
175.481406
 20
275.694805
 30
0.0
 10
175.479572
 20
275.698458
 30
0.0
 10
175.480486
 20
275.701042
 30
0.0
  0
SPLINE
  5
1cb
100
AcDbEntity
  8
Layer_1
 62
7
100
AcDbSpline
 70
8
 71
3
 72
8
 73
4
 74
0
 40
0
 40
0
 40
0
 40
0
 40
1
 40
1
 40
1
 40
1
 10
175.480486
 20
275.701042
 30
0.0
 10
175.587002
 20
276.000302
 30
0.0
 10
175.671336
 20
276.316173
 30
0.0
 10
175.727431
 20
276.635903
 30
0.0
  0
SPLINE
  5
1cc
100
AcDbEntity
  8
Layer_1
 62
7
100
AcDbSpline
 70
8
 71
3
 72
8
 73
4
 74
0
 40
0
 40
0
 40
0
 40
0
 40
1
 40
1
 40
1
 40
1
 10
175.727431
 20
276.635903
 30
0.0
 10
175.727930
 20
276.638776
 30
0.0
 10
175.726934
 20
276.641848
 30
0.0
 10
175.727431
 20
276.644722
 30
0.0
  0
SPLINE
  5
1cd
100
AcDbEntity
  8
Layer_1
 62
7
100
AcDbSpline
 70
8
 71
3
 72
8
 73
4
 74
0
 40
0
 40
0
 40
0
 40
0
 40
1
 40
1
 40
1
 40
1
 10
175.727431
 20
276.644722
 30
0.0
 10
175.754992
 20
276.803205
 30
0.0
 10
175.783666
 20
276.958325
 30
0.0
 10
175.797986
 20
277.120972
 30
0.0
  0
SPLINE
  5
1ce
100
AcDbEntity
  8
Layer_1
 62
7
100
AcDbSpline
 70
8
 71
3
 72
8
 73
4
 74
0
 40
0
 40
0
 40
0
 40
0
 40
1
 40
1
 40
1
 40
1
 10
175.797986
 20
277.120972
 30
0.0
 10
175.798237
 20
277.123875
 30
0.0
 10
175.797741
 20
277.126888
 30
0.0
 10
175.797986
 20
277.129792
 30
0.0
  0
SPLINE
  5
1cf
100
AcDbEntity
  8
Layer_1
 62
7
100
AcDbSpline
 70
8
 71
3
 72
8
 73
4
 74
0
 40
0
 40
0
 40
0
 40
0
 40
1
 40
1
 40
1
 40
1
 10
175.797986
 20
277.129792
 30
0.0
 10
175.812063
 20
277.292556
 30
0.0
 10
175.815374
 20
277.457322
 30
0.0
 10
175.815625
 20
277.623681
 30
0.0
  0
SPLINE
  5
1d0
100
AcDbEntity
  8
Layer_1
 62
7
100
AcDbSpline
 70
8
 71
3
 72
8
 73
4
 74
0
 40
0
 40
0
 40
0
 40
0
 40
1
 40
1
 40
1
 40
1
 10
175.815625
 20
277.623681
 30
0.0
 10
175.815625
 20
277.626605
 30
0.0
 10
175.815631
 20
277.629576
 30
0.0
 10
175.815625
 20
277.632500
 30
0.0
  0
SPLINE
  5
1d1
100
AcDbEntity
  8
Layer_1
 62
7
100
AcDbSpline
 70
8
 71
3
 72
8
 73
4
 74
0
 40
0
 40
0
 40
0
 40
0
 40
1
 40
1
 40
1
 40
1
 10
175.815625
 20
277.632500
 30
0.0
 10
175.815625
 20
277.729113
 30
0.0
 10
175.811502
 20
277.828092
 30
0.0
 10
175.806806
 20
277.923542
 30
0.0
  0
SPLINE
  5
1d2
100
AcDbEntity
  8
Layer_1
 62
7
100
AcDbSpline
 70
8
 71
3
 72
8
 73
4
 74
0
 40
0
 40
0
 40
0
 40
0
 40
1
 40
1
 40
1
 40
1
 10
175.806806
 20
277.923542
 30
0.0
 10
175.806656
 20
277.926510
 30
0.0
 10
175.806961
 20
277.929394
 30
0.0
 10
175.806806
 20
277.932361
 30
0.0
  0
SPLINE
  5
1d3
100
AcDbEntity
  8
Layer_1
 62
7
100
AcDbSpline
 70
8
 71
3
 72
8
 73
4
 74
0
 40
0
 40
0
 40
0
 40
0
 40
1
 40
1
 40
1
 40
1
 10
175.806806
 20
277.932361
 30
0.0
 10
175.801971
 20
278.027694
 30
0.0
 10
175.798576
 20
278.120526
 30
0.0
 10
175.789167
 20
278.214583
 30
0.0
  0
SPLINE
  5
1d4
100
AcDbEntity
  8
Layer_1
 62
7
100
AcDbSpline
 70
8
 71
3
 72
8
 73
4
 74
0
 40
0
 40
0
 40
0
 40
0
 40
1
 40
1
 40
1
 40
1
 10
175.789167
 20
278.214583
 30
0.0
 10
175.788873
 20
278.217478
 30
0.0
 10
175.789466
 20
278.220509
 30
0.0
 10
175.789167
 20
278.223403
 30
0.0
  0
SPLINE
  5
1d5
100
AcDbEntity
  8
Layer_1
 62
7
100
AcDbSpline
 70
8
 71
3
 72
8
 73
4
 74
0
 40
0
 40
0
 40
0
 40
0
 40
1
 40
1
 40
1
 40
1
 10
175.789167
 20
278.223403
 30
0.0
 10
175.779613
 20
278.317451
 30
0.0
 10
175.767907
 20
278.412967
 30
0.0
 10
175.753889
 20
278.505625
 30
0.0
  0
SPLINE
  5
1d6
100
AcDbEntity
  8
Layer_1
 62
7
100
AcDbSpline
 70
8
 71
3
 72
8
 73
4
 74
0
 40
0
 40
0
 40
0
 40
0
 40
1
 40
1
 40
1
 40
1
 10
175.753889
 20
278.505625
 30
0.0
 10
175.753449
 20
278.508507
 30
0.0
 10
175.754335
 20
278.511564
 30
0.0
 10
175.753889
 20
278.514444
 30
0.0
  0
SPLINE
  5
1d7
100
AcDbEntity
  8
Layer_1
 62
7
100
AcDbSpline
 70
8
 71
3
 72
8
 73
4
 74
0
 40
0
 40
0
 40
0
 40
0
 40
1
 40
1
 40
1
 40
1
 10
175.753889
 20
278.514444
 30
0.0
 10
175.739741
 20
278.607027
 30
0.0
 10
175.719469
 20
278.696768
 30
0.0
 10
175.700972
 20
278.787847
 30
0.0
  0
SPLINE
  5
1d8
100
AcDbEntity
  8
Layer_1
 62
7
100
AcDbSpline
 70
8
 71
3
 72
8
 73
4
 74
0
 40
0
 40
0
 40
0
 40
0
 40
1
 40
1
 40
1
 40
1
 10
175.700972
 20
278.787847
 30
0.0
 10
175.700399
 20
278.790647
 30
0.0
 10
175.701548
 20
278.793869
 30
0.0
 10
175.700972
 20
278.796667
 30
0.0
  0
SPLINE
  5
1d9
100
AcDbEntity
  8
Layer_1
 62
7
100
AcDbSpline
 70
8
 71
3
 72
8
 73
4
 74
0
 40
0
 40
0
 40
0
 40
0
 40
1
 40
1
 40
1
 40
1
 10
175.700972
 20
278.796667
 30
0.0
 10
175.682334
 20
278.887732
 30
0.0
 10
175.662110
 20
278.980622
 30
0.0
 10
175.639236
 20
279.070069
 30
0.0
  0
SPLINE
  5
1da
100
AcDbEntity
  8
Layer_1
 62
7
100
AcDbSpline
 70
8
 71
3
 72
8
 73
4
 74
0
 40
0
 40
0
 40
0
 40
0
 40
1
 40
1
 40
1
 40
1
 10
175.639236
 20
279.070069
 30
0.0
 10
175.638531
 20
279.072811
 30
0.0
 10
175.639944
 20
279.076149
 30
0.0
 10
175.639236
 20
279.078889
 30
0.0
  0
SPLINE
  5
1db
100
AcDbEntity
  8
Layer_1
 62
7
100
AcDbSpline
 70
8
 71
3
 72
8
 73
4
 74
0
 40
0
 40
0
 40
0
 40
0
 40
1
 40
1
 40
1
 40
1
 10
175.639236
 20
279.078889
 30
0.0
 10
175.616229
 20
279.168291
 30
0.0
 10
175.586991
 20
279.255802
 30
0.0
 10
175.559861
 20
279.343472
 30
0.0
  0
SPLINE
  5
1dc
100
AcDbEntity
  8
Layer_1
 62
7
100
AcDbSpline
 70
8
 71
3
 72
8
 73
4
 74
0
 40
0
 40
0
 40
0
 40
0
 40
1
 40
1
 40
1
 40
1
 10
175.559861
 20
279.343472
 30
0.0
 10
175.559037
 20
279.346126
 30
0.0
 10
175.560691
 20
279.349640
 30
0.0
 10
175.559861
 20
279.352292
 30
0.0
  0
SPLINE
  5
1dd
100
AcDbEntity
  8
Layer_1
 62
7
100
AcDbSpline
 70
8
 71
3
 72
8
 73
4
 74
0
 40
0
 40
0
 40
0
 40
0
 40
1
 40
1
 40
1
 40
1
 10
175.559861
 20
279.352292
 30
0.0
 10
175.504506
 20
279.530242
 30
0.0
 10
175.437498
 20
279.702537
 30
0.0
 10
175.365833
 20
279.872639
 30
0.0
  0
SPLINE
  5
1de
100
AcDbEntity
  8
Layer_1
 62
7
100
AcDbSpline
 70
8
 71
3
 72
8
 73
4
 74
0
 40
0
 40
0
 40
0
 40
0
 40
1
 40
1
 40
1
 40
1
 10
175.365833
 20
279.872639
 30
0.0
 10
175.364803
 20
279.875077
 30
0.0
 10
175.366869
 20
279.879022
 30
0.0
 10
175.365833
 20
279.881458
 30
0.0
  0
SPLINE
  5
1df
100
AcDbEntity
  8
Layer_1
 62
7
100
AcDbSpline
 70
8
 71
3
 72
8
 73
4
 74
0
 40
0
 40
0
 40
0
 40
0
 40
1
 40
1
 40
1
 40
1
 10
175.365833
 20
279.881458
 30
0.0
 10
175.293892
 20
280.051532
 30
0.0
 10
175.206220
 20
280.214070
 30
0.0
 10
175.118889
 20
280.375347
 30
0.0
  0
SPLINE
  5
1e0
100
AcDbEntity
  8
Layer_1
 62
7
100
AcDbSpline
 70
8
 71
3
 72
8
 73
4
 74
0
 40
0
 40
0
 40
0
 40
0
 40
1
 40
1
 40
1
 40
1
 10
175.118889
 20
280.375347
 30
0.0
 10
175.117692
 20
280.377551
 30
0.0
 10
175.120088
 20
280.381964
 30
0.0
 10
175.118889
 20
280.384167
 30
0.0
  0
SPLINE
  5
1e1
100
AcDbEntity
  8
Layer_1
 62
7
100
AcDbSpline
 70
8
 71
3
 72
8
 73
4
 74
0
 40
0
 40
0
 40
0
 40
0
 40
1
 40
1
 40
1
 40
1
 10
175.118889
 20
280.384167
 30
0.0
 10
175.031287
 20
280.545417
 30
0.0
 10
174.929919
 20
280.700097
 30
0.0
 10
174.827847
 20
280.851597
 30
0.0
  0
SPLINE
  5
1e2
100
AcDbEntity
  8
Layer_1
 62
7
100
AcDbSpline
 70
8
 71
3
 72
8
 73
4
 74
0
 40
0
 40
0
 40
0
 40
0
 40
1
 40
1
 40
1
 40
1
 10
174.827847
 20
280.851597
 30
0.0
 10
174.826507
 20
280.853580
 30
0.0
 10
174.829191
 20
280.858436
 30
0.0
 10
174.827847
 20
280.860417
 30
0.0
  0
SPLINE
  5
1e3
100
AcDbEntity
  8
Layer_1
 62
7
100
AcDbSpline
 70
8
 71
3
 72
8
 73
4
 74
0
 40
0
 40
0
 40
0
 40
0
 40
1
 40
1
 40
1
 40
1
 10
174.827847
 20
280.860417
 30
0.0
 10
174.725528
 20
281.011863
 30
0.0
 10
174.617391
 20
281.151827
 30
0.0
 10
174.501528
 20
281.292569
 30
0.0
  0
SPLINE
  5
1e4
100
AcDbEntity
  8
Layer_1
 62
7
100
AcDbSpline
 70
8
 71
3
 72
8
 73
4
 74
0
 40
0
 40
0
 40
0
 40
0
 40
1
 40
1
 40
1
 40
1
 10
174.501528
 20
281.292569
 30
0.0
 10
174.500136
 20
281.294255
 30
0.0
 10
174.502919
 20
281.299705
 30
0.0
 10
174.501528
 20
281.301389
 30
0.0
  0
SPLINE
  5
1e5
100
AcDbEntity
  8
Layer_1
 62
7
100
AcDbSpline
 70
8
 71
3
 72
8
 73
4
 74
0
 40
0
 40
0
 40
0
 40
0
 40
1
 40
1
 40
1
 40
1
 10
174.501528
 20
281.301389
 30
0.0
 10
174.385365
 20
281.442141
 30
0.0
 10
174.259900
 20
281.578003
 30
0.0
 10
174.131111
 20
281.707083
 30
0.0
  0
SPLINE
  5
1e6
100
AcDbEntity
  8
Layer_1
 62
7
100
AcDbSpline
 70
8
 71
3
 72
8
 73
4
 74
0
 40
0
 40
0
 40
0
 40
0
 40
1
 40
1
 40
1
 40
1
 10
174.131111
 20
281.707083
 30
0.0
 10
173.868907
 20
281.969879
 30
0.0
 10
173.584297
 20
282.204093
 30
0.0
 10
173.275625
 20
282.412639
 30
0.0
  0
SPLINE
  5
1e7
100
AcDbEntity
  8
Layer_1
 62
7
100
AcDbSpline
 70
8
 71
3
 72
8
 73
4
 74
0
 40
0
 40
0
 40
0
 40
0
 40
1
 40
1
 40
1
 40
1
 10
173.275625
 20
282.412639
 30
0.0
 10
172.355050
 20
283.034598
 30
0.0
 10
171.242169
 20
283.400417
 30
0.0
 10
170.047708
 20
283.400417
 30
0.0
  0
SPLINE
  5
1e8
100
AcDbEntity
  8
Layer_1
 62
7
100
AcDbSpline
 70
8
 71
3
 72
8
 73
4
 74
0
 40
0
 40
0
 40
0
 40
0
 40
1
 40
1
 40
1
 40
1
 10
170.047708
 20
283.400417
 30
0.0
 10
169.705680
 20
283.400417
 30
0.0
 10
169.376426
 20
283.371047
 30
0.0
 10
169.051111
 20
283.312222
 30
0.0
  0
SPLINE
  5
1e9
100
AcDbEntity
  8
Layer_1
 62
7
100
AcDbSpline
 70
8
 71
3
 72
8
 73
4
 74
0
 40
0
 40
0
 40
0
 40
0
 40
1
 40
1
 40
1
 40
1
 10
169.051111
 20
283.312222
 30
0.0
 10
168.902185
 20
283.285293
 30
0.0
 10
168.754919
 20
283.253182
 30
0.0
 10
168.610139
 20
283.215208
 30
0.0
  0
SPLINE
  5
1ea
100
AcDbEntity
  8
Layer_1
 62
7
100
AcDbSpline
 70
8
 71
3
 72
8
 73
4
 74
0
 40
0
 40
0
 40
0
 40
0
 40
1
 40
1
 40
1
 40
1
 10
168.610139
 20
283.215208
 30
0.0
 10
168.453486
 20
283.175020
 30
0.0
 10
168.302737
 20
283.126836
 30
0.0
 10
168.151528
 20
283.074097
 30
0.0
  0
SPLINE
  5
1eb
100
AcDbEntity
  8
Layer_1
 62
7
100
AcDbSpline
 70
8
 71
3
 72
8
 73
4
 74
0
 40
0
 40
0
 40
0
 40
0
 40
1
 40
1
 40
1
 40
1
 10
168.151528
 20
283.074097
 30
0.0
 10
166.838932
 20
284.941200
 30
0.0
 10
165.122287
 20
286.573105
 30
0.0
 10
163.036250
 20
287.818958
 30
0.0
  0
SPLINE
  5
1ec
100
AcDbEntity
  8
Layer_1
 62
7
100
AcDbSpline
 70
8
 71
3
 72
8
 73
4
 74
0
 40
0
 40
0
 40
0
 40
0
 40
1
 40
1
 40
1
 40
1
 10
163.036250
 20
287.818958
 30
0.0
 10
160.304127
 20
289.450677
 30
0.0
 10
157.296959
 20
290.213975
 30
0.0
 10
154.331458
 20
290.191389
 30
0.0
  0
LWPOLYLINE
  5
1ed
100
AcDbEntity
  8
Layer_1
 62
7
100
AcDbPolyline
 90
2
 70
0
 10
174.819028
 20
245.115208
 30
0.0
 10
174.819028
 20
245.124028
 30
0.0
  0
SPLINE
  5
1ee
100
AcDbEntity
  8
Layer_1
 62
7
100
AcDbSpline
 70
8
 71
3
 72
8
 73
4
 74
0
 40
0
 40
0
 40
0
 40
0
 40
1
 40
1
 40
1
 40
1
 10
107.415001
 20
277.625628
 30
0.0
 10
107.415001
 20
276.800793
 30
0.0
 10
106.960272
 20
276.038614
 30
0.0
 10
106.222106
 20
275.626197
 30
0.0
  0
SPLINE
  5
1ef
100
AcDbEntity
  8
Layer_1
 62
7
100
AcDbSpline
 70
8
 71
3
 72
8
 73
4
 74
0
 40
0
 40
0
 40
0
 40
0
 40
1
 40
1
 40
1
 40
1
 10
106.222106
 20
275.626197
 30
0.0
 10
105.483940
 20
275.213779
 30
0.0
 10
104.574481
 20
275.213779
 30
0.0
 10
103.836315
 20
275.626197
 30
0.0
  0
SPLINE
  5
1f0
100
AcDbEntity
  8
Layer_1
 62
7
100
AcDbSpline
 70
8
 71
3
 72
8
 73
4
 74
0
 40
0
 40
0
 40
0
 40
0
 40
1
 40
1
 40
1
 40
1
 10
103.836315
 20
275.626197
 30
0.0
 10
103.098149
 20
276.038614
 30
0.0
 10
102.643419
 20
276.800793
 30
0.0
 10
102.643419
 20
277.625628
 30
0.0
  0
SPLINE
  5
1f1
100
AcDbEntity
  8
Layer_1
 62
7
100
AcDbSpline
 70
8
 71
3
 72
8
 73
4
 74
0
 40
0
 40
0
 40
0
 40
0
 40
1
 40
1
 40
1
 40
1
 10
102.643419
 20
277.625628
 30
0.0
 10
102.643419
 20
278.450463
 30
0.0
 10
103.098149
 20
279.212642
 30
0.0
 10
103.836315
 20
279.625059
 30
0.0
  0
SPLINE
  5
1f2
100
AcDbEntity
  8
Layer_1
 62
7
100
AcDbSpline
 70
8
 71
3
 72
8
 73
4
 74
0
 40
0
 40
0
 40
0
 40
0
 40
1
 40
1
 40
1
 40
1
 10
103.836315
 20
279.625059
 30
0.0
 10
104.574481
 20
280.037476
 30
0.0
 10
105.483940
 20
280.037476
 30
0.0
 10
106.222106
 20
279.625059
 30
0.0
  0
SPLINE
  5
1f3
100
AcDbEntity
  8
Layer_1
 62
7
100
AcDbSpline
 70
8
 71
3
 72
8
 73
4
 74
0
 40
0
 40
0
 40
0
 40
0
 40
1
 40
1
 40
1
 40
1
 10
106.222106
 20
279.625059
 30
0.0
 10
106.960272
 20
279.212642
 30
0.0
 10
107.415001
 20
278.450463
 30
0.0
 10
107.415001
 20
277.625628
 30
0.0
  0
LWPOLYLINE
  5
1f4
100
AcDbEntity
  8
Layer_1
 62
7
100
AcDbPolyline
 90
2
 70
0
 10
154.331458
 20
290.191389
 30
0.0
 10
154.331458
 20
290.191389
 30
0.0
  0
SPLINE
  5
1f5
100
AcDbEntity
  8
Layer_1
 62
7
100
AcDbSpline
 70
8
 71
3
 72
8
 73
4
 74
0
 40
0
 40
0
 40
0
 40
0
 40
1
 40
1
 40
1
 40
1
 10
172.433515
 20
212.607112
 30
0.0
 10
172.433515
 20
211.782277
 30
0.0
 10
171.978786
 20
211.020098
 30
0.0
 10
171.240619
 20
210.607681
 30
0.0
  0
SPLINE
  5
1f6
100
AcDbEntity
  8
Layer_1
 62
7
100
AcDbSpline
 70
8
 71
3
 72
8
 73
4
 74
0
 40
0
 40
0
 40
0
 40
0
 40
1
 40
1
 40
1
 40
1
 10
171.240619
 20
210.607681
 30
0.0
 10
170.502453
 20
210.195263
 30
0.0
 10
169.592995
 20
210.195263
 30
0.0
 10
168.854829
 20
210.607681
 30
0.0
  0
SPLINE
  5
1f7
100
AcDbEntity
  8
Layer_1
 62
7
100
AcDbSpline
 70
8
 71
3
 72
8
 73
4
 74
0
 40
0
 40
0
 40
0
 40
0
 40
1
 40
1
 40
1
 40
1
 10
168.854829
 20
210.607681
 30
0.0
 10
168.116662
 20
211.020098
 30
0.0
 10
167.661933
 20
211.782277
 30
0.0
 10
167.661933
 20
212.607112
 30
0.0
  0
SPLINE
  5
1f8
100
AcDbEntity
  8
Layer_1
 62
7
100
AcDbSpline
 70
8
 71
3
 72
8
 73
4
 74
0
 40
0
 40
0
 40
0
 40
0
 40
1
 40
1
 40
1
 40
1
 10
167.661933
 20
212.607112
 30
0.0
 10
167.661933
 20
213.431947
 30
0.0
 10
168.116662
 20
214.194125
 30
0.0
 10
168.854829
 20
214.606543
 30
0.0
  0
SPLINE
  5
1f9
100
AcDbEntity
  8
Layer_1
 62
7
100
AcDbSpline
 70
8
 71
3
 72
8
 73
4
 74
0
 40
0
 40
0
 40
0
 40
0
 40
1
 40
1
 40
1
 40
1
 10
168.854829
 20
214.606543
 30
0.0
 10
169.592995
 20
215.018960
 30
0.0
 10
170.502453
 20
215.018960
 30
0.0
 10
171.240619
 20
214.606543
 30
0.0
  0
SPLINE
  5
1fa
100
AcDbEntity
  8
Layer_1
 62
7
100
AcDbSpline
 70
8
 71
3
 72
8
 73
4
 74
0
 40
0
 40
0
 40
0
 40
0
 40
1
 40
1
 40
1
 40
1
 10
171.240619
 20
214.606543
 30
0.0
 10
171.978786
 20
214.194125
 30
0.0
 10
172.433515
 20
213.431947
 30
0.0
 10
172.433515
 20
212.607112
 30
0.0
  0
LWPOLYLINE
  5
1fb
100
AcDbEntity
  8
Layer_1
 62
7
100
AcDbPolyline
 90
2
 70
1
 10
107.415001
 20
277.625628
 30
0.0
 10
107.415001
 20
277.625628
 30
0.0
  0
SPLINE
  5
1fc
100
AcDbEntity
  8
Layer_1
 62
7
100
AcDbSpline
 70
8
 71
3
 72
8
 73
4
 74
0
 40
0
 40
0
 40
0
 40
0
 40
1
 40
1
 40
1
 40
1
 10
107.415001
 20
212.607112
 30
0.0
 10
107.415001
 20
211.782277
 30
0.0
 10
106.960272
 20
211.020098
 30
0.0
 10
106.222106
 20
210.607681
 30
0.0
  0
SPLINE
  5
1fd
100
AcDbEntity
  8
Layer_1
 62
7
100
AcDbSpline
 70
8
 71
3
 72
8
 73
4
 74
0
 40
0
 40
0
 40
0
 40
0
 40
1
 40
1
 40
1
 40
1
 10
106.222106
 20
210.607681
 30
0.0
 10
105.483940
 20
210.195263
 30
0.0
 10
104.574481
 20
210.195263
 30
0.0
 10
103.836315
 20
210.607681
 30
0.0
  0
SPLINE
  5
1fe
100
AcDbEntity
  8
Layer_1
 62
7
100
AcDbSpline
 70
8
 71
3
 72
8
 73
4
 74
0
 40
0
 40
0
 40
0
 40
0
 40
1
 40
1
 40
1
 40
1
 10
103.836315
 20
210.607681
 30
0.0
 10
103.098149
 20
211.020098
 30
0.0
 10
102.643419
 20
211.782277
 30
0.0
 10
102.643419
 20
212.607112
 30
0.0
  0
SPLINE
  5
1ff
100
AcDbEntity
  8
Layer_1
 62
7
100
AcDbSpline
 70
8
 71
3
 72
8
 73
4
 74
0
 40
0
 40
0
 40
0
 40
0
 40
1
 40
1
 40
1
 40
1
 10
102.643419
 20
212.607112
 30
0.0
 10
102.643419
 20
213.431947
 30
0.0
 10
103.098149
 20
214.194125
 30
0.0
 10
103.836315
 20
214.606543
 30
0.0
  0
SPLINE
  5
200
100
AcDbEntity
  8
Layer_1
 62
7
100
AcDbSpline
 70
8
 71
3
 72
8
 73
4
 74
0
 40
0
 40
0
 40
0
 40
0
 40
1
 40
1
 40
1
 40
1
 10
103.836315
 20
214.606543
 30
0.0
 10
104.574481
 20
215.018960
 30
0.0
 10
105.483940
 20
215.018960
 30
0.0
 10
106.222106
 20
214.606543
 30
0.0
  0
SPLINE
  5
201
100
AcDbEntity
  8
Layer_1
 62
7
100
AcDbSpline
 70
8
 71
3
 72
8
 73
4
 74
0
 40
0
 40
0
 40
0
 40
0
 40
1
 40
1
 40
1
 40
1
 10
106.222106
 20
214.606543
 30
0.0
 10
106.960272
 20
214.194125
 30
0.0
 10
107.415001
 20
213.431947
 30
0.0
 10
107.415001
 20
212.607112
 30
0.0
  0
LWPOLYLINE
  5
202
100
AcDbEntity
  8
Layer_1
 62
7
100
AcDbPolyline
 90
2
 70
1
 10
172.433515
 20
212.607112
 30
0.0
 10
172.433515
 20
212.607112
 30
0.0
  0
SPLINE
  5
203
100
AcDbEntity
  8
Layer_1
 62
7
100
AcDbSpline
 70
8
 71
3
 72
8
 73
4
 74
0
 40
0
 40
0
 40
0
 40
0
 40
1
 40
1
 40
1
 40
1
 10
172.433515
 20
277.625625
 30
0.0
 10
172.433515
 20
276.800790
 30
0.0
 10
171.978786
 20
276.038611
 30
0.0
 10
171.240619
 20
275.626194
 30
0.0
  0
SPLINE
  5
204
100
AcDbEntity
  8
Layer_1
 62
7
100
AcDbSpline
 70
8
 71
3
 72
8
 73
4
 74
0
 40
0
 40
0
 40
0
 40
0
 40
1
 40
1
 40
1
 40
1
 10
171.240619
 20
275.626194
 30
0.0
 10
170.502453
 20
275.213776
 30
0.0
 10
169.592995
 20
275.213776
 30
0.0
 10
168.854829
 20
275.626194
 30
0.0
  0
SPLINE
  5
205
100
AcDbEntity
  8
Layer_1
 62
7
100
AcDbSpline
 70
8
 71
3
 72
8
 73
4
 74
0
 40
0
 40
0
 40
0
 40
0
 40
1
 40
1
 40
1
 40
1
 10
168.854829
 20
275.626194
 30
0.0
 10
168.116662
 20
276.038611
 30
0.0
 10
167.661933
 20
276.800790
 30
0.0
 10
167.661933
 20
277.625625
 30
0.0
  0
SPLINE
  5
206
100
AcDbEntity
  8
Layer_1
 62
7
100
AcDbSpline
 70
8
 71
3
 72
8
 73
4
 74
0
 40
0
 40
0
 40
0
 40
0
 40
1
 40
1
 40
1
 40
1
 10
167.661933
 20
277.625625
 30
0.0
 10
167.661933
 20
278.450460
 30
0.0
 10
168.116662
 20
279.212639
 30
0.0
 10
168.854829
 20
279.625056
 30
0.0
  0
SPLINE
  5
207
100
AcDbEntity
  8
Layer_1
 62
7
100
AcDbSpline
 70
8
 71
3
 72
8
 73
4
 74
0
 40
0
 40
0
 40
0
 40
0
 40
1
 40
1
 40
1
 40
1
 10
168.854829
 20
279.625056
 30
0.0
 10
169.592995
 20
280.037474
 30
0.0
 10
170.502453
 20
280.037474
 30
0.0
 10
171.240619
 20
279.625056
 30
0.0
  0
SPLINE
  5
208
100
AcDbEntity
  8
Layer_1
 62
7
100
AcDbSpline
 70
8
 71
3
 72
8
 73
4
 74
0
 40
0
 40
0
 40
0
 40
0
 40
1
 40
1
 40
1
 40
1
 10
171.240619
 20
279.625056
 30
0.0
 10
171.978786
 20
279.212639
 30
0.0
 10
172.433515
 20
278.450460
 30
0.0
 10
172.433515
 20
277.625625
 30
0.0
  0
LWPOLYLINE
  5
209
100
AcDbEntity
  8
Layer_1
 62
7
100
AcDbPolyline
 90
2
 70
1
 10
107.415001
 20
212.607112
 30
0.0
 10
107.415001
 20
212.607112
 30
0.0
  0
SPLINE
  5
20a
100
AcDbEntity
  8
Layer_1
 62
7
100
AcDbSpline
 70
8
 71
3
 72
8
 73
4
 74
0
 40
0
 40
0
 40
0
 40
0
 40
1
 40
1
 40
1
 40
1
 10
172.430148
 20
212.608043
 30
0.0
 10
172.430148
 20
211.783208
 30
0.0
 10
171.975419
 20
211.021029
 30
0.0
 10
171.237252
 20
210.608612
 30
0.0
  0
SPLINE
  5
20b
100
AcDbEntity
  8
Layer_1
 62
7
100
AcDbSpline
 70
8
 71
3
 72
8
 73
4
 74
0
 40
0
 40
0
 40
0
 40
0
 40
1
 40
1
 40
1
 40
1
 10
171.237252
 20
210.608612
 30
0.0
 10
170.499086
 20
210.196194
 30
0.0
 10
169.589628
 20
210.196194
 30
0.0
 10
168.851462
 20
210.608612
 30
0.0
  0
SPLINE
  5
20c
100
AcDbEntity
  8
Layer_1
 62
7
100
AcDbSpline
 70
8
 71
3
 72
8
 73
4
 74
0
 40
0
 40
0
 40
0
 40
0
 40
1
 40
1
 40
1
 40
1
 10
168.851462
 20
210.608612
 30
0.0
 10
168.113295
 20
211.021029
 30
0.0
 10
167.658566
 20
211.783208
 30
0.0
 10
167.658566
 20
212.608043
 30
0.0
  0
SPLINE
  5
20d
100
AcDbEntity
  8
Layer_1
 62
7
100
AcDbSpline
 70
8
 71
3
 72
8
 73
4
 74
0
 40
0
 40
0
 40
0
 40
0
 40
1
 40
1
 40
1
 40
1
 10
167.658566
 20
212.608043
 30
0.0
 10
167.658566
 20
213.432878
 30
0.0
 10
168.113295
 20
214.195057
 30
0.0
 10
168.851462
 20
214.607474
 30
0.0
  0
SPLINE
  5
20e
100
AcDbEntity
  8
Layer_1
 62
7
100
AcDbSpline
 70
8
 71
3
 72
8
 73
4
 74
0
 40
0
 40
0
 40
0
 40
0
 40
1
 40
1
 40
1
 40
1
 10
168.851462
 20
214.607474
 30
0.0
 10
169.589628
 20
215.019892
 30
0.0
 10
170.499086
 20
215.019892
 30
0.0
 10
171.237252
 20
214.607474
 30
0.0
  0
SPLINE
  5
20f
100
AcDbEntity
  8
Layer_1
 62
7
100
AcDbSpline
 70
8
 71
3
 72
8
 73
4
 74
0
 40
0
 40
0
 40
0
 40
0
 40
1
 40
1
 40
1
 40
1
 10
171.237252
 20
214.607474
 30
0.0
 10
171.975419
 20
214.195057
 30
0.0
 10
172.430148
 20
213.432878
 30
0.0
 10
172.430148
 20
212.608043
 30
0.0
  0
LWPOLYLINE
  5
210
100
AcDbEntity
  8
Layer_1
 62
7
100
AcDbPolyline
 90
2
 70
1
 10
172.433515
 20
277.625625
 30
0.0
 10
172.433515
 20
277.625625
 30
0.0
  0
SPLINE
  5
211
100
AcDbEntity
  8
Layer_1
 62
7
100
AcDbSpline
 70
8
 71
3
 72
8
 73
4
 74
0
 40
0
 40
0
 40
0
 40
0
 40
1
 40
1
 40
1
 40
1
 10
172.430148
 20
277.626554
 30
0.0
 10
172.430148
 20
276.801719
 30
0.0
 10
171.975419
 20
276.039540
 30
0.0
 10
171.237252
 20
275.627123
 30
0.0
  0
SPLINE
  5
212
100
AcDbEntity
  8
Layer_1
 62
7
100
AcDbSpline
 70
8
 71
3
 72
8
 73
4
 74
0
 40
0
 40
0
 40
0
 40
0
 40
1
 40
1
 40
1
 40
1
 10
171.237252
 20
275.627123
 30
0.0
 10
170.499086
 20
275.214705
 30
0.0
 10
169.589628
 20
275.214705
 30
0.0
 10
168.851462
 20
275.627123
 30
0.0
  0
SPLINE
  5
213
100
AcDbEntity
  8
Layer_1
 62
7
100
AcDbSpline
 70
8
 71
3
 72
8
 73
4
 74
0
 40
0
 40
0
 40
0
 40
0
 40
1
 40
1
 40
1
 40
1
 10
168.851462
 20
275.627123
 30
0.0
 10
168.113295
 20
276.039540
 30
0.0
 10
167.658566
 20
276.801719
 30
0.0
 10
167.658566
 20
277.626554
 30
0.0
  0
SPLINE
  5
214
100
AcDbEntity
  8
Layer_1
 62
7
100
AcDbSpline
 70
8
 71
3
 72
8
 73
4
 74
0
 40
0
 40
0
 40
0
 40
0
 40
1
 40
1
 40
1
 40
1
 10
167.658566
 20
277.626554
 30
0.0
 10
167.658566
 20
278.451389
 30
0.0
 10
168.113295
 20
279.213568
 30
0.0
 10
168.851462
 20
279.625985
 30
0.0
  0
SPLINE
  5
215
100
AcDbEntity
  8
Layer_1
 62
7
100
AcDbSpline
 70
8
 71
3
 72
8
 73
4
 74
0
 40
0
 40
0
 40
0
 40
0
 40
1
 40
1
 40
1
 40
1
 10
168.851462
 20
279.625985
 30
0.0
 10
169.589628
 20
280.038402
 30
0.0
 10
170.499086
 20
280.038402
 30
0.0
 10
171.237252
 20
279.625985
 30
0.0
  0
SPLINE
  5
216
100
AcDbEntity
  8
Layer_1
 62
7
100
AcDbSpline
 70
8
 71
3
 72
8
 73
4
 74
0
 40
0
 40
0
 40
0
 40
0
 40
1
 40
1
 40
1
 40
1
 10
171.237252
 20
279.625985
 30
0.0
 10
171.975419
 20
279.213568
 30
0.0
 10
172.430148
 20
278.451389
 30
0.0
 10
172.430148
 20
277.626554
 30
0.0
  0
LWPOLYLINE
  5
217
100
AcDbEntity
  8
Layer_1
 62
7
100
AcDbPolyline
 90
2
 70
1
 10
172.430148
 20
212.608043
 30
0.0
 10
172.430148
 20
212.608043
 30
0.0
  0
LWPOLYLINE
  5
218
100
AcDbEntity
  8
Layer_1
 62
7
100
AcDbPolyline
 90
2
 70
1
 10
172.430148
 20
277.626554
 30
0.0
 10
172.430148
 20
277.626554
 30
0.0
  0
SPLINE
  5
219
100
AcDbEntity
  8
Layer_1
 62
7
100
AcDbSpline
 70
8
 71
3
 72
8
 73
4
 74
0
 40
0
 40
0
 40
0
 40
0
 40
1
 40
1
 40
1
 40
1
 10
104.579496
 20
245.444540
 30
0.0
 10
104.579496
 20
243.929235
 30
0.0
 10
103.351099
 20
242.700840
 30
0.0
 10
101.835797
 20
242.700840
 30
0.0
  0
SPLINE
  5
21a
100
AcDbEntity
  8
Layer_1
 62
7
100
AcDbSpline
 70
8
 71
3
 72
8
 73
4
 74
0
 40
0
 40
0
 40
0
 40
0
 40
1
 40
1
 40
1
 40
1
 10
101.835797
 20
242.700840
 30
0.0
 10
100.320492
 20
242.700840
 30
0.0
 10
99.092097
 20
243.929235
 30
0.0
 10
99.092097
 20
245.444540
 30
0.0
  0
SPLINE
  5
21b
100
AcDbEntity
  8
Layer_1
 62
7
100
AcDbSpline
 70
8
 71
3
 72
8
 73
4
 74
0
 40
0
 40
0
 40
0
 40
0
 40
1
 40
1
 40
1
 40
1
 10
99.092097
 20
245.444540
 30
0.0
 10
99.092097
 20
246.959842
 30
0.0
 10
100.320492
 20
248.188239
 30
0.0
 10
101.835797
 20
248.188239
 30
0.0
  0
SPLINE
  5
21c
100
AcDbEntity
  8
Layer_1
 62
7
100
AcDbSpline
 70
8
 71
3
 72
8
 73
4
 74
0
 40
0
 40
0
 40
0
 40
0
 40
1
 40
1
 40
1
 40
1
 10
101.835797
 20
248.188239
 30
0.0
 10
103.351099
 20
248.188239
 30
0.0
 10
104.579496
 20
246.959842
 30
0.0
 10
104.579496
 20
245.444540
 30
0.0
  0
LWPOLYLINE
  5
21d
100
AcDbEntity
  8
Layer_1
 62
7
100
AcDbPolyline
 90
217
 70
1
 10
111.691279
 20
246.166178
 30
0.0
 10
111.837753
 20
246.176902
 30
0.0
 10
112.489968
 20
246.065142
 30
0.0
 10
113.295148
 20
245.732120
 30
0.0
 10
113.295148
 20
245.156951
 30
0.0
 10
112.489968
 20
244.823929
 30
0.0
 10
111.837753
 20
244.712169
 30
0.0
 10
111.691279
 20
244.722893
 30
0.0
 10
111.591937
 20
243.873687
 30
0.0
 10
111.736999
 20
243.850544
 30
0.0
 10
112.346035
 20
243.591182
 30
0.0
 10
113.052437
 20
243.081771
 30
0.0
 10
112.919793
 20
242.522124
 30
0.0
 10
112.059861
 20
242.383553
 30
0.0
 10
111.399179
 20
242.425322
 30
0.0
 10
111.259197
 20
242.469631
 30
0.0
 10
110.966815
 20
241.666144
 30
0.0
 10
111.102564
 20
241.609982
 30
0.0
 10
111.635399
 20
241.217411
 30
0.0
 10
112.205206
 20
240.558704
 30
0.0
 10
111.946973
 20
240.044778
 30
0.0
 10
111.078293
 20
240.108278
 30
0.0
 10
110.445268
 20
240.301318
 30
0.0
 10
110.319115
 20
240.376671
 30
0.0
 10
109.849215
 20
239.662367
 30
0.0
 10
109.968313
 20
239.576289
 30
0.0
 10
110.396161
 20
239.071393
 30
0.0
 10
110.798893
 20
238.298951
 30
0.0
 10
110.429181
 20
237.858402
 30
0.0
 10
109.598601
 20
238.120869
 30
0.0
 10
109.027101
 20
238.454455
 30
0.0
 10
108.921550
 20
238.556902
 30
0.0
 10
108.299815
 20
237.970162
 30
0.0
 10
108.395770
 20
237.858967
 30
0.0
 10
108.695773
 20
237.269122
 30
0.0
 10
108.909415
 20
236.424431
 30
0.0
 10
108.448264
 20
236.081249
 30
0.0
 10
107.700375
 20
236.528007
 30
0.0
 10
107.221161
 20
236.984360
 30
0.0
 10
107.142139
 20
237.108538
 30
0.0
 10
106.401870
 20
236.680971
 30
0.0
 10
106.469604
 20
236.550584
 30
0.0
 10
106.625390
 20
235.907400
 30
0.0
 10
106.638655
 20
235.036462
 30
0.0
 10
106.110617
 20
234.808709
 30
0.0
 10
105.486059
 20
235.415769
 30
0.0
 10
105.125097
 20
235.970618
 30
0.0
 10
105.076837
 20
236.109471
 30
0.0
 10
104.257828
 20
235.864220
 30
0.0
 10
104.293670
 20
235.721698
 30
0.0
 10
104.297057
 20
235.059887
 30
0.0
 10
104.108815
 20
234.209269
 30
0.0
 10
103.542395
 20
234.109362
 30
0.0
 10
103.074753
 20
234.844269
 30
0.0
 10
102.851515
 20
235.467415
 30
0.0
 10
102.836557
 20
235.613607
 30
0.0
 10
101.983117
 20
235.563935
 30
0.0
 10
101.985375
 20
235.416898
 30
0.0
 10
101.835797
 20
234.772302
 30
0.0
 10
101.456490
 20
233.988007
 30
0.0
 10
100.882450
 20
234.021309
 30
0.0
 10
100.596841
 20
234.844269
 30
0.0
 10
100.523181
 20
235.502129
 30
0.0
 10
100.542373
 20
235.647755
 30
0.0
 10
99.700504
 20
235.796204
 30
0.0
 10
99.668613
 20
235.652835
 30
0.0
 10
99.374537
 20
235.059887
 30
0.0
 10
98.824768
 20
234.384247
 30
0.0
 10
98.273870
 20
234.549064
 30
0.0
 10
98.185535
 20
235.415769
 30
0.0
 10
98.265686
 20
236.072782
 30
0.0
 10
98.317897
 20
236.210224
 30
0.0
 10
97.533037
 20
236.548891
 30
0.0
 10
97.468973
 20
236.416529
 30
0.0
 10
97.046204
 20
235.907400
 30
0.0
 10
96.355324
 20
235.376822
 30
0.0
 10
95.857201
 20
235.664407
 30
0.0
 10
95.971219
 20
236.528007
 30
0.0
 10
96.200666
 20
237.148895
 30
0.0
 10
96.283357
 20
237.270251
 30
0.0
 10
95.597557
 20
237.780791
 30
0.0
 10
95.504706
 20
237.666773
 30
0.0
 10
94.975821
 20
237.269122
 30
0.0
 10
94.181084
 20
236.912111
 30
0.0
 10
93.762830
 20
237.306658
 30
0.0
 10
94.072993
 20
238.120869
 30
0.0
 10
94.439317
 20
238.672049
 30
0.0
 10
94.547690
 20
238.771109
 30
0.0
 10
93.998204
 20
239.426147
 30
0.0
 10
93.881646
 20
239.336682
 30
0.0
 10
93.275433
 20
239.071393
 30
0.0
 10
92.419735
 20
238.907422
 30
0.0
 10
92.103646
 20
239.387764
 30
0.0
 10
92.593301
 20
240.108278
 30
0.0
 10
93.077030
 20
240.560115
 30
0.0
 10
93.205159
 20
240.631800
 30
0.0
 10
92.821619
 20
241.395775
 30
0.0
 10
92.687564
 20
241.335662
 30
0.0
 10
92.036195
 20
241.217411
 30
0.0
 10
91.166104
 20
241.254947
 30
0.0
 10
90.969395
 20
241.795402
 30
0.0
 10
91.611733
 20
242.383553
 30
0.0
 10
92.186619
 20
242.711778
 30
0.0
 10
92.328013
 20
242.751853
 30
0.0
 10
92.130739
 20
243.583844
 30
0.0
 10
91.986524
 20
243.556187
 30
0.0
 10
91.325559
 20
243.591182
 30
0.0
 10
90.487359
 20
243.828531
 30
0.0
 10
90.420755
 20
244.399749
 30
0.0
 10
91.181626
 20
244.823929
 30
0.0
 10
91.816626
 20
245.010760
 30
0.0
 10
91.963381
 20
245.016969
 30
0.0
 10
91.963381
 20
245.872102
 30
0.0
 10
91.816626
 20
245.878311
 30
0.0
 10
91.181626
 20
246.065142
 30
0.0
 10
90.420755
 20
246.489322
 30
0.0
 10
90.487359
 20
247.060540
 30
0.0
 10
91.325559
 20
247.297889
 30
0.0
 10
91.986524
 20
247.332884
 30
0.0
 10
92.130739
 20
247.305227
 30
0.0
 10
92.328013
 20
248.137218
 30
0.0
 10
92.186619
 20
248.177293
 30
0.0
 10
91.611733
 20
248.505518
 30
0.0
 10
90.969395
 20
249.093669
 30
0.0
 10
91.166104
 20
249.634124
 30
0.0
 10
92.036195
 20
249.671660
 30
0.0
 10
92.687564
 20
249.553409
 30
0.0
 10
92.821619
 20
249.493295
 30
0.0
 10
93.205159
 20
250.257271
 30
0.0
 10
93.077030
 20
250.328955
 30
0.0
 10
92.593301
 20
250.780793
 30
0.0
 10
92.103646
 20
251.501307
 30
0.0
 10
92.419735
 20
251.981649
 30
0.0
 10
93.275433
 20
251.817678
 30
0.0
 10
93.881646
 20
251.552389
 30
0.0
 10
93.998204
 20
251.462924
 30
0.0
 10
94.547690
 20
252.117962
 30
0.0
 10
94.439317
 20
252.217022
 30
0.0
 10
94.072993
 20
252.768202
 30
0.0
 10
93.762830
 20
253.582413
 30
0.0
 10
94.181084
 20
253.976960
 30
0.0
 10
94.975821
 20
253.619949
 30
0.0
 10
95.504706
 20
253.222298
 30
0.0
 10
95.597557
 20
253.108280
 30
0.0
 10
96.283357
 20
253.618820
 30
0.0
 10
96.200666
 20
253.740175
 30
0.0
 10
95.971219
 20
254.361064
 30
0.0
 10
95.857201
 20
255.224664
 30
0.0
 10
96.355324
 20
255.512249
 30
0.0
 10
97.046204
 20
254.981671
 30
0.0
 10
97.468973
 20
254.472542
 30
0.0
 10
97.533037
 20
254.340180
 30
0.0
 10
98.317897
 20
254.678847
 30
0.0
 10
98.265686
 20
254.816289
 30
0.0
 10
98.185535
 20
255.473302
 30
0.0
 10
98.273870
 20
256.340007
 30
0.0
 10
98.824768
 20
256.504824
 30
0.0
 10
99.374537
 20
255.829184
 30
0.0
 10
99.668613
 20
255.236235
 30
0.0
 10
99.700504
 20
255.092867
 30
0.0
 10
100.542373
 20
255.241315
 30
0.0
 10
100.523181
 20
255.386942
 30
0.0
 10
100.596841
 20
256.044802
 30
0.0
 10
100.882450
 20
256.867762
 30
0.0
 10
101.456490
 20
256.901064
 30
0.0
 10
101.835797
 20
256.116769
 30
0.0
 10
101.985375
 20
255.472173
 30
0.0
 10
101.983117
 20
255.325135
 30
0.0
 10
102.836557
 20
255.275464
 30
0.0
 10
102.851515
 20
255.421655
 30
0.0
 10
103.074753
 20
256.044802
 30
0.0
 10
103.542395
 20
256.779709
 30
0.0
 10
104.108815
 20
256.679802
 30
0.0
 10
104.297057
 20
255.829184
 30
0.0
 10
104.293670
 20
255.167373
 30
0.0
 10
104.257828
 20
255.024851
 30
0.0
 10
105.076837
 20
254.779600
 30
0.0
 10
105.125097
 20
254.918453
 30
0.0
 10
105.486059
 20
255.473302
 30
0.0
 10
106.110617
 20
256.080362
 30
0.0
 10
106.638655
 20
255.852609
 30
0.0
 10
106.625390
 20
254.981671
 30
0.0
 10
106.469604
 20
254.338487
 30
0.0
 10
106.401870
 20
254.208100
 30
0.0
 10
107.142139
 20
253.780533
 30
0.0
 10
107.221161
 20
253.904711
 30
0.0
 10
107.700375
 20
254.361064
 30
0.0
 10
108.448264
 20
254.807822
 30
0.0
 10
108.909415
 20
254.464640
 30
0.0
 10
108.695773
 20
253.619949
 30
0.0
 10
108.395770
 20
253.030104
 30
0.0
 10
108.299815
 20
252.918909
 30
0.0
 10
108.921550
 20
252.332169
 30
0.0
 10
109.027101
 20
252.434615
 30
0.0
 10
109.598601
 20
252.768202
 30
0.0
 10
110.429181
 20
253.030669
 30
0.0
 10
110.798893
 20
252.590120
 30
0.0
 10
110.396161
 20
251.817678
 30
0.0
 10
109.968313
 20
251.312782
 30
0.0
 10
109.849215
 20
251.226704
 30
0.0
 10
110.319115
 20
250.512400
 30
0.0
 10
110.445268
 20
250.587753
 30
0.0
 10
111.078293
 20
250.780793
 30
0.0
 10
111.946973
 20
250.844293
 30
0.0
 10
112.205206
 20
250.330367
 30
0.0
 10
111.635399
 20
249.671660
 30
0.0
 10
111.102564
 20
249.279089
 30
0.0
 10
110.966815
 20
249.222927
 30
0.0
 10
111.259197
 20
248.419440
 30
0.0
 10
111.399179
 20
248.463749
 30
0.0
 10
112.059861
 20
248.505518
 30
0.0
 10
112.919793
 20
248.366947
 30
0.0
 10
113.052437
 20
247.807300
 30
0.0
 10
112.346035
 20
247.297889
 30
0.0
 10
111.736999
 20
247.038527
 30
0.0
 10
111.591937
 20
247.015384
 30
0.0
 10
111.691279
 20
246.166178
 30
0.0
  0
LWPOLYLINE
  5
21e
100
AcDbEntity
  8
Layer_1
 62
7
100
AcDbPolyline
 90
2
 70
1
 10
104.579496
 20
245.444540
 30
0.0
 10
104.579496
 20
245.444540
 30
0.0
  0
ENDSEC
  0
SECTION
  2
OBJECTS
  0
DICTIONARY
  5
C
330
0
100
AcDbDictionary
  3
ACAD_GROUP
350
D
  3
ACAD_MLINESTYLE
350
17
  0
DICTIONARY
  5
D
330
C
100
AcDbDictionary
  0
DICTIONARY
  5
1A
330
C
100
AcDbDictionary
  0
DICTIONARY
  5
17
330
C
100
AcDbDictionary
  3
STANDARD
350
18
  0
DICTIONARY
  5
19
330
C
100
AcDbDictionary
  0
ENDSEC
  0
EOF
