<?xml version="1.0" encoding="UTF-8" standalone="no"?>
<!-- Created with Inkscape (http://www.inkscape.org/) -->

<svg
   xmlns:dc="http://purl.org/dc/elements/1.1/"
   xmlns:cc="http://creativecommons.org/ns#"
   xmlns:rdf="http://www.w3.org/1999/02/22-rdf-syntax-ns#"
   xmlns:svg="http://www.w3.org/2000/svg"
   xmlns="http://www.w3.org/2000/svg"
   xmlns:sodipodi="http://sodipodi.sourceforge.net/DTD/sodipodi-0.dtd"
   xmlns:inkscape="http://www.inkscape.org/namespaces/inkscape"
   width="744.09448819"
   height="1052.3622047"
   id="svg8856"
   version="1.1"
   inkscape:version="0.48.4 r9939"
   sodipodi:docname="2 unit.dxf">
  <sodipodi:namedview
     id="base"
     pagecolor="#ffffff"
     bordercolor="#666666"
     borderopacity="1.0"
     inkscape:pageopacity="0.0"
     inkscape:pageshadow="2"
     inkscape:zoom="1.4235688"
     inkscape:cx="335.46013"
     inkscape:cy="812.73249"
     inkscape:document-units="px"
     inkscape:current-layer="layer1"
     showgrid="false"
     inkscape:window-width="1280"
     inkscape:window-height="962"
     inkscape:window-x="-8"
     inkscape:window-y="32"
     inkscape:window-maximized="1" />
  <defs
     id="defs8858" />
  <metadata
     id="metadata8861">
    <rdf:RDF>
      <cc:Work
         rdf:about="">
        <dc:format>image/svg+xml</dc:format>
        <dc:type
           rdf:resource="http://purl.org/dc/dcmitype/StillImage" />
        <dc:title></dc:title>
      </cc:Work>
    </rdf:RDF>
  </metadata>
  <g
     inkscape:label="Layer 1"
     inkscape:groupmode="layer"
     id="layer1">
    <g
       transform="translate(60.344417,172.45133)"
       id="g5223"
       style="stroke-width:1;stroke-miterlimit:4;stroke-dasharray:none">
      <path
         style="fill:none;stroke:#000000;stroke-width:1;stroke-miterlimit:4;stroke-opacity:1;stroke-dasharray:none"
         d="m 116.26116,251.86444 c -1.69258,2.09003 -2.71875,4.72605 -2.71875,7.625 0,2.89895 1.02617,5.56622 2.71875,7.65625 l 18.90624,0 c 1.69258,-2.09003 2.71875,-4.7573 2.71875,-7.65625 0,-2.89895 -1.02617,-5.53497 -2.71875,-7.625 l -18.90624,0 z"
         id="path4197"
         inkscape:connector-curvature="0" />
      <g
         id="g4234"
         transform="translate(125.71428,259.50508)"
         inkscape:label="Gear18"
         style="stroke-width:1;stroke-miterlimit:4;stroke-dasharray:none">
        <path
           id="path4236"
           d="m 22.292,-2.286 1.274,-0.13 1.548,0.219 2.881,1.242 0,1.91 -2.881,1.242 -1.548,0.219 -1.274,-0.13 -0.563,3.191 1.242,0.313 1.38,0.735 2.282,2.153 -0.653,1.794 -3.132,0.182 -1.529,-0.323 -1.153,-0.559 -1.62,2.806 1.06,0.719 1.045,1.163 1.408,2.804 -1.227,1.462 -3.006,-0.9 -1.326,-0.827 -0.892,-0.919 -2.483,2.083 0.751,1.038 0.584,1.45 0.364,3.116 -1.653,0.955 -2.517,-1.874 -0.963,-1.231 -0.524,-1.169 -3.045,1.109 0.35,1.232 0.053,1.562 -0.724,3.053 -1.88,0.331 L 2.197,25.114 1.713,23.628 1.62,22.35 l -3.24,0 -0.093,1.278 -0.484,1.486 -1.724,2.621 -1.88,-0.331 -0.724,-3.053 0.053,-1.562 0.35,-1.232 -3.045,-1.109 -0.524,1.169 -0.963,1.231 -2.517,1.874 -1.653,-0.955 0.364,-3.116 0.584,-1.45 0.751,-1.038 -2.483,-2.083 -0.892,0.919 -1.326,0.827 -3.006,0.9 -1.227,-1.462 1.408,-2.804 1.045,-1.163 1.06,-0.719 -1.62,-2.806 -1.153,0.559 -1.529,0.323 -3.132,-0.182 -0.653,-1.794 2.282,-2.153 1.38,-0.735 1.242,-0.313 -0.563,-3.191 -1.274,0.13 -1.548,-0.219 -2.881,-1.242 0,-1.91 2.881,-1.242 1.548,-0.219 1.274,0.13 0.563,-3.191 -1.242,-0.313 -1.38,-0.735 -2.282,-2.153 0.653,-1.794 3.132,-0.182 1.529,0.323 1.153,0.559 1.62,-2.806 -1.06,-0.719 -1.045,-1.163 -1.408,-2.804 1.227,-1.462 3.006,0.9 1.326,0.827 0.892,0.919 2.483,-2.083 -0.751,-1.038 -0.584,-1.45 -0.364,-3.116 1.653,-0.955 2.517,1.874 0.963,1.231 0.524,1.169 3.045,-1.109 -0.35,-1.232 -0.053,-1.562 0.724,-3.053 1.88,-0.331 1.724,2.621 0.484,1.486 0.093,1.278 3.24,0 0.093,-1.278 0.484,-1.486 1.724,-2.621 1.88,0.331 0.724,3.053 -0.053,1.562 -0.35,1.232 3.045,1.109 0.524,-1.169 0.963,-1.231 2.517,-1.874 1.653,0.955 -0.364,3.116 -0.584,1.45 -0.751,1.038 2.483,2.083 0.892,-0.919 1.326,-0.827 3.006,-0.9 1.227,1.462 -1.408,2.804 -1.045,1.163 -1.06,0.719 1.62,2.806 1.153,-0.559 1.529,-0.323 3.132,0.182 0.653,1.794 -2.282,2.153 -1.38,0.735 -1.242,0.313 z"
           style="fill:none;stroke:#000000;stroke-width:1;stroke-miterlimit:4;stroke-dasharray:none"
           inkscape:connector-curvature="0" />
      </g>
    </g>
    <g
       id="g5213"
       transform="translate(263.33391,80.988304)"
       style="stroke-width:1;stroke-miterlimit:4;stroke-dasharray:none">
      <g
         id="g4279"
         transform="translate(284.35592,202.94204)"
         inkscape:label="Gear27"
         style="stroke-width:1;stroke-miterlimit:4;stroke-dasharray:none">
        <path
           inkscape:connector-curvature="0"
           id="path4281"
           d="m 34.921,-2.557 0.519,-0.038 2.311,0.396 2.853,1.18 0,2.038 -2.853,1.18 -2.311,0.396 -0.519,-0.038 -0.352,3.009 0.514,0.082 2.158,0.919 2.503,1.805 -0.47,1.983 -3.047,0.491 -2.341,-0.148 -0.496,-0.157 -1.036,2.847 0.481,0.199 1.888,1.391 2.019,2.334 -0.915,1.821 -3.078,-0.225 -2.243,-0.684 -0.447,-0.267 -1.665,2.531 0.422,0.305 1.516,1.789 1.427,2.737 -1.31,1.561 -2.943,-0.93 -2.025,-1.182 -0.374,-0.363 -2.203,2.079 0.34,0.394 1.063,2.09 0.757,2.993 -1.634,1.216 -2.65,-1.583 -1.698,-1.617 -0.28,-0.44 -2.623,1.515 0.24,0.462 0.552,2.279 0.047,3.086 -1.871,0.807 -2.213,-2.151 -1.279,-1.966 -0.171,-0.492 -2.902,0.869 0.127,0.505 0.012,2.345 L 8.054,39.81 6.047,40.164 4.39,37.56 3.599,35.352 3.546,34.834 0.522,35.01 0.53,35.531 0,37.815 -1.344,40.594 -3.378,40.476 -4.39,37.56 l -0.261,-2.331 0.068,-0.516 -2.983,-0.526 -0.113,0.508 -1.042,2.101 -1.948,2.394 -1.952,-0.584 -0.313,-3.071 0.284,-2.328 0.185,-0.487 -2.781,-1.2 -0.227,0.469 -1.498,1.804 -2.448,1.88 -1.765,-1.019 0.404,-3.06 0.813,-2.2 0.293,-0.43 -2.43,-1.809 -0.329,0.404 -1.874,1.409 -2.816,1.265 -1.482,-1.398 1.099,-2.885 1.298,-1.953 0.384,-0.351 -1.947,-2.321 -0.413,0.317 -2.148,0.94 -3.032,0.581 -1.12,-1.702 1.735,-2.553 1.714,-1.601 0.454,-0.254 -1.359,-2.707 -0.475,0.213 -2.308,0.419 -3.083,-0.133 -0.697,-1.915 2.276,-2.084 2.037,-1.163 0.501,-0.142 -0.699,-2.948 -0.511,0.098 -2.342,-0.124 -2.97,-0.841 -0.236,-2.024 2.696,-1.503 2.25,-0.662 0.52,-0.022 0,-3.03 -0.52,-0.022 -2.25,-0.662 -2.696,-1.503 0.236,-2.024 2.97,-0.841 2.342,-0.124 0.511,0.098 0.699,-2.948 -0.501,-0.142 -2.037,-1.163 -2.276,-2.084 0.697,-1.915 3.083,-0.133 2.308,0.419 0.475,0.213 1.359,-2.707 -0.454,-0.254 -1.714,-1.601 -1.735,-2.553 1.12,-1.702 3.032,0.581 2.148,0.94 0.413,0.317 1.947,-2.321 -0.384,-0.351 -1.298,-1.953 -1.099,-2.885 1.482,-1.398 2.816,1.265 1.874,1.409 0.329,0.404 2.43,-1.809 -0.293,-0.43 -0.813,-2.2 -0.404,-3.06 1.765,-1.019 2.448,1.88 1.498,1.804 0.227,0.469 2.781,-1.2 -0.185,-0.487 -0.284,-2.328 0.313,-3.071 1.952,-0.584 1.948,2.394 1.042,2.101 0.113,0.508 2.983,-0.526 -0.068,-0.516 0.261,-2.331 1.012,-2.916 2.034,-0.118 1.344,2.779 0.53,2.284 -0.008,0.521 3.024,0.176 0.053,-0.518 0.791,-2.208 1.657,-2.604 2.007,0.354 0.667,3.014 -0.012,2.345 -0.127,0.505 2.902,0.869 0.171,-0.492 1.279,-1.966 2.213,-2.151 1.871,0.807 -0.047,3.086 -0.552,2.279 -0.24,0.462 2.623,1.515 0.28,-0.44 1.698,-1.617 2.65,-1.583 1.634,1.216 -0.757,2.993 -1.063,2.09 -0.34,0.394 2.203,2.079 0.374,-0.363 2.025,-1.182 2.943,-0.93 1.31,1.561 -1.427,2.737 -1.516,1.789 -0.422,0.305 1.665,2.531 0.447,-0.267 2.243,-0.684 3.078,-0.225 0.915,1.821 -2.019,2.334 -1.888,1.391 -0.481,0.199 1.036,2.847 0.496,-0.157 2.341,-0.148 3.047,0.491 0.47,1.983 -2.503,1.805 -2.158,0.919 -0.514,0.082 z"
           style="fill:none;stroke:#000000;stroke-width:1;stroke-miterlimit:4;stroke-dasharray:none" />
      </g>
      <path
         sodipodi:type="arc"
         style="fill:none;stroke:#000000;stroke-width:1;stroke-miterlimit:4;stroke-opacity:1;stroke-dasharray:none"
         id="path4293"
         sodipodi:cx="-136.9886"
         sodipodi:cy="202.14903"
         sodipodi:rx="9.7217722"
         sodipodi:ry="9.7217722"
         d="m -127.26683,202.14903 c 0,5.36919 -4.35259,9.72177 -9.72177,9.72177 -5.36919,0 -9.72177,-4.35258 -9.72177,-9.72177 0,-5.36918 4.35258,-9.72177 9.72177,-9.72177 5.36918,0 9.72177,4.35259 9.72177,9.72177 z"
         transform="translate(421.34452,0.7929947)" />
    </g>
    <g
       id="g8947"
       transform="translate(-61.458173,25.256784)">
      <g
         style="stroke-width:1;stroke-miterlimit:4;stroke-dasharray:none"
         inkscape:label="Gear72"
         transform="translate(245.03021,406.65298)"
         id="g4256">
        <path
           style="fill:none;stroke:#000000;stroke-width:1;stroke-miterlimit:4;stroke-dasharray:none"
           d="m 97.993,-3.013 2.824,0.813 2.819,1.087 0,2.226 -2.819,1.087 -2.824,0.813 -0.11,2.526 2.742,1.056 2.713,1.329 -0.194,2.217 -2.903,0.837 -2.883,0.565 -0.33,2.506 2.639,1.291 2.587,1.56 -0.386,2.192 -2.965,0.581 -2.922,0.311 -0.547,2.468 2.517,1.516 2.441,1.78 -0.576,2.15 -3.004,0.32 -2.938,0.055 -0.76,2.411 2.375,1.73 2.277,1.986 -0.761,2.091 -3.021,0.057 -2.931,-0.201 -0.968,2.336 2.216,1.93 2.095,2.177 -0.94,2.017 -3.015,-0.206 -2.903,-0.456 -1.167,2.242 2.039,2.116 1.898,2.351 -1.113,1.927 -2.985,-0.468 -2.852,-0.707 -1.358,2.132 1.846,2.286 1.686,2.508 -1.277,1.822 -2.933,-0.726 -2.779,-0.953 -1.539,2.005 1.64,2.438 1.461,2.645 -1.431,1.705 -2.858,-0.979 -2.686,-1.192 -1.708,1.864 1.422,2.572 1.224,2.762 -1.573,1.573 -2.762,-1.224 -2.572,-1.422 -1.864,1.708 1.192,2.686 0.979,2.858 -1.705,1.431 -2.645,-1.461 -2.438,-1.64 -2.005,1.539 0.953,2.779 0.726,2.933 -1.822,1.277 -2.508,-1.686 -2.286,-1.846 -2.132,1.358 0.707,2.852 0.468,2.985 -1.927,1.113 -2.351,-1.898 -2.116,-2.039 -2.242,1.167 0.456,2.903 0.206,3.015 -2.017,0.94 -2.177,-2.095 -1.93,-2.216 -2.336,0.968 0.201,2.931 -0.057,3.021 -2.091,0.761 -1.986,-2.277 -1.73,-2.375 -2.411,0.76 -0.055,2.938 -0.32,3.004 -2.15,0.576 -1.78,-2.441 -1.516,-2.517 -2.468,0.547 -0.311,2.922 -0.581,2.965 -2.192,0.386 -1.56,-2.587 -1.291,-2.639 -2.506,0.33 -0.565,2.883 -0.837,2.903 -2.217,0.194 -1.329,-2.713 -1.056,-2.742 -2.526,0.11 -0.813,2.824 -1.087,2.819 -2.226,0 -1.087,-2.819 -0.813,-2.824 -2.526,-0.11 -1.056,2.742 -1.329,2.713 -2.217,-0.194 -0.837,-2.903 -0.565,-2.883 -2.506,-0.33 -1.291,2.639 -1.56,2.587 -2.192,-0.386 -0.581,-2.965 -0.311,-2.922 -2.468,-0.547 -1.516,2.517 -1.78,2.441 -2.15,-0.576 -0.32,-3.004 -0.055,-2.938 -2.411,-0.76 -1.73,2.375 -1.986,2.277 -2.091,-0.761 -0.057,-3.021 0.201,-2.931 -2.336,-0.968 -1.93,2.216 -2.177,2.095 -2.017,-0.94 0.206,-3.015 0.456,-2.903 -2.242,-1.167 -2.116,2.039 -2.351,1.898 -1.927,-1.113 0.468,-2.985 0.707,-2.852 -2.132,-1.358 -2.286,1.846 -2.508,1.686 -1.822,-1.277 0.726,-2.933 0.953,-2.779 -2.005,-1.539 -2.438,1.64 -2.645,1.461 -1.705,-1.431 0.979,-2.858 1.192,-2.686 -1.864,-1.708 -2.572,1.422 -2.762,1.224 -1.573,-1.573 1.224,-2.762 1.422,-2.572 -1.708,-1.864 -2.686,1.192 -2.858,0.979 -1.431,-1.705 1.461,-2.645 1.64,-2.438 -1.539,-2.005 -2.779,0.953 -2.933,0.726 -1.277,-1.822 1.686,-2.508 1.846,-2.286 -1.358,-2.132 -2.852,0.707 -2.985,0.468 -1.113,-1.927 1.898,-2.351 2.039,-2.116 -1.167,-2.242 -2.903,0.456 -3.015,0.206 -0.94,-2.017 2.095,-2.177 2.216,-1.93 -0.968,-2.336 -2.931,0.201 -3.021,-0.057 -0.761,-2.091 2.277,-1.986 2.375,-1.73 -0.76,-2.411 -2.938,-0.055 -3.004,-0.32 -0.576,-2.15 2.441,-1.78 2.517,-1.516 -0.547,-2.468 -2.922,-0.311 -2.965,-0.581 -0.386,-2.192 2.587,-1.56 2.639,-1.291 -0.33,-2.506 -2.883,-0.565 -2.903,-0.837 -0.194,-2.217 2.713,-1.329 2.742,-1.056 -0.11,-2.526 -2.824,-0.813 -2.819,-1.087 0,-2.226 2.819,-1.087 2.824,-0.813 0.11,-2.526 -2.742,-1.056 -2.713,-1.329 0.194,-2.217 2.903,-0.837 2.883,-0.565 0.33,-2.506 -2.639,-1.291 -2.587,-1.56 0.386,-2.192 2.965,-0.581 2.922,-0.311 0.547,-2.468 -2.517,-1.516 -2.441,-1.78 0.576,-2.15 3.004,-0.32 2.938,-0.055 0.76,-2.411 -2.375,-1.73 -2.277,-1.986 0.761,-2.091 3.021,-0.057 2.931,0.201 0.968,-2.336 -2.216,-1.93 -2.095,-2.177 0.94,-2.017 3.015,0.206 2.903,0.456 1.167,-2.242 -2.039,-2.116 -1.898,-2.351 1.113,-1.927 2.985,0.468 2.852,0.707 1.358,-2.132 -1.846,-2.286 -1.686,-2.508 1.277,-1.822 2.933,0.726 2.779,0.953 1.539,-2.005 -1.64,-2.438 -1.461,-2.645 1.431,-1.705 2.858,0.979 2.686,1.192 1.708,-1.864 -1.422,-2.572 -1.224,-2.762 1.573,-1.573 2.762,1.224 2.572,1.422 1.864,-1.708 -1.192,-2.686 -0.979,-2.858 1.705,-1.431 2.645,1.461 2.438,1.64 2.005,-1.539 -0.953,-2.779 -0.726,-2.933 1.822,-1.277 2.508,1.686 2.286,1.846 2.132,-1.358 -0.707,-2.852 -0.468,-2.985 1.927,-1.113 2.351,1.898 2.116,2.039 2.242,-1.167 -0.456,-2.903 -0.206,-3.015 2.017,-0.94 2.177,2.095 1.93,2.216 2.336,-0.968 -0.201,-2.931 0.057,-3.021 2.091,-0.761 1.986,2.277 1.73,2.375 2.411,-0.76 0.055,-2.938 0.32,-3.004 2.15,-0.576 1.78,2.441 1.516,2.517 2.468,-0.547 0.311,-2.922 0.581,-2.965 2.192,-0.386 1.56,2.587 1.291,2.639 2.506,-0.33 0.565,-2.883 0.837,-2.903 2.217,-0.194 1.329,2.713 1.056,2.742 2.526,-0.11 0.813,-2.824 1.087,-2.819 2.226,0 1.087,2.819 0.813,2.824 2.526,0.11 1.056,-2.742 1.329,-2.713 2.217,0.194 0.837,2.903 0.565,2.883 2.506,0.33 1.291,-2.639 1.56,-2.587 2.192,0.386 0.581,2.965 0.311,2.922 2.468,0.547 1.516,-2.517 1.78,-2.441 2.15,0.576 0.32,3.004 0.055,2.938 2.411,0.76 1.73,-2.375 1.986,-2.277 2.091,0.761 0.057,3.021 -0.201,2.931 2.336,0.968 1.93,-2.216 2.177,-2.095 2.017,0.94 -0.206,3.015 -0.456,2.903 2.242,1.167 2.116,-2.039 2.351,-1.898 1.927,1.113 -0.468,2.985 -0.707,2.852 2.132,1.358 2.286,-1.846 2.508,-1.686 1.822,1.277 -0.726,2.933 -0.953,2.779 2.005,1.539 2.438,-1.64 2.645,-1.461 1.705,1.431 -0.979,2.858 -1.192,2.686 1.864,1.708 2.572,-1.422 2.762,-1.224 1.573,1.573 -1.224,2.762 -1.422,2.572 1.708,1.864 2.686,-1.192 2.858,-0.979 1.431,1.705 -1.461,2.645 -1.64,2.438 1.539,2.005 2.779,-0.953 2.933,-0.726 1.277,1.822 -1.686,2.508 -1.846,2.286 1.358,2.132 2.852,-0.707 2.985,-0.468 1.113,1.927 -1.898,2.351 -2.039,2.116 1.167,2.242 2.903,-0.456 3.015,-0.206 0.94,2.017 -2.095,2.177 -2.216,1.93 0.968,2.336 2.931,-0.201 3.021,0.057 0.761,2.091 -2.277,1.986 -2.375,1.73 0.76,2.411 2.938,0.055 3.004,0.32 0.576,2.15 -2.441,1.78 -2.517,1.516 0.547,2.468 2.922,0.311 2.965,0.581 0.386,2.192 -2.587,1.56 -2.639,1.291 0.33,2.506 2.883,0.565 2.903,0.837 0.194,2.217 -2.713,1.329 -2.742,1.056 z"
           id="path4258"
           inkscape:connector-curvature="0" />
      </g>
      <path
         id="rect5228"
         d="m 129.84718,271.0229 c -11.28624,0 -20.4375,9.15126 -20.4375,20.4375 0,9.62132 6.64,17.67267 15.59375,19.84375 -4.7588,25.54698 -12.0625,68.90437 -12.0625,95.34375 0,26.42668 7.27536,69.78909 12.03125,95.34375 -8.93994,2.18087 -15.5625,10.23223 -15.5625,19.84375 0,11.28624 9.15126,20.4375 20.4375,20.4375 9.61152,0 17.66289,-6.62255 19.84375,-15.5625 25.55466,4.7559 68.91707,12.03125 95.34375,12.03125 26.42668,0 69.78909,-7.27535 95.34375,-12.03125 2.18144,8.93914 10.23281,15.5625 19.84375,15.5625 11.28624,0 20.4375,-9.15126 20.4375,-20.4375 0,-9.60343 -6.63395,-17.65484 -15.5625,-19.84375 4.7559,-25.55466 12.03125,-68.91707 12.03125,-95.34375 0,-26.42668 -7.27535,-69.78909 -12.03125,-95.34375 8.92786,-2.1894 15.5625,-10.24081 15.5625,-19.84375 0,-11.28624 -9.15126,-20.4375 -20.4375,-20.4375 -9.60294,0 -17.65435,6.63464 -19.84375,15.5625 -25.55466,-4.7559 -68.91707,-12.03125 -95.34375,-12.03125 -26.43196,0 -69.79367,7.30357 -95.34375,12.0625 -2.17813,-8.94381 -10.22949,-15.59375 -19.84375,-15.59375 z"
         style="fill:none;stroke:#000000;stroke-width:1;stroke-miterlimit:4;stroke-opacity:1;stroke-dasharray:none"
         inkscape:connector-curvature="0" />
      <path
         transform="matrix(0.82322244,0,0,0.79663731,80.221033,228.13367)"
         d="m 70.542884,79.495422 c 0,5.671358 -4.597544,10.268901 -10.268901,10.268901 -5.671357,0 -10.268901,-4.597543 -10.268901,-10.268901 0,-5.671357 4.597544,-10.268901 10.268901,-10.268901 5.671357,0 10.268901,4.597544 10.268901,10.268901 z"
         sodipodi:ry="10.268901"
         sodipodi:rx="10.268901"
         sodipodi:cy="79.495422"
         sodipodi:cx="60.273983"
         id="path5240"
         style="fill:none;stroke:#000000;stroke-width:1.23484111;stroke-miterlimit:4;stroke-opacity:1;stroke-dasharray:none"
         sodipodi:type="arc" />
      <path
         sodipodi:type="arc"
         style="fill:none;stroke:#000000;stroke-width:1.23484111;stroke-miterlimit:4;stroke-opacity:1;stroke-dasharray:none"
         id="path5244"
         sodipodi:cx="60.273983"
         sodipodi:cy="79.495422"
         sodipodi:rx="10.268901"
         sodipodi:ry="10.268901"
         d="m 70.542884,79.495422 c 0,5.671358 -4.597544,10.268901 -10.268901,10.268901 -5.671357,0 -10.268901,-4.597543 -10.268901,-10.268901 0,-5.671357 4.597544,-10.268901 10.268901,-10.268901 5.671357,0 10.268901,4.597544 10.268901,10.268901 z"
         transform="matrix(0.82322244,0,0,0.79663731,310.6016,458.51425)" />
      <path
         transform="matrix(0.82322244,0,0,0.79663731,80.221034,458.51425)"
         d="m 70.542884,79.495422 c 0,5.671358 -4.597544,10.268901 -10.268901,10.268901 -5.671357,0 -10.268901,-4.597543 -10.268901,-10.268901 0,-5.671357 4.597544,-10.268901 10.268901,-10.268901 5.671357,0 10.268901,4.597544 10.268901,10.268901 z"
         sodipodi:ry="10.268901"
         sodipodi:rx="10.268901"
         sodipodi:cy="79.495422"
         sodipodi:cx="60.273983"
         id="path5246"
         style="fill:none;stroke:#000000;stroke-width:1.23484111;stroke-miterlimit:4;stroke-opacity:1;stroke-dasharray:none"
         sodipodi:type="arc" />
      <path
         sodipodi:type="arc"
         style="fill:none;stroke:#000000;stroke-width:1.23484111;stroke-miterlimit:4;stroke-opacity:1;stroke-dasharray:none"
         id="path5248"
         sodipodi:cx="60.273983"
         sodipodi:cy="79.495422"
         sodipodi:rx="10.268901"
         sodipodi:ry="10.268901"
         d="m 70.542884,79.495422 c 0,5.671358 -4.597544,10.268901 -10.268901,10.268901 -5.671357,0 -10.268901,-4.597543 -10.268901,-10.268901 0,-5.671357 4.597544,-10.268901 10.268901,-10.268901 5.671357,0 10.268901,4.597544 10.268901,10.268901 z"
         transform="matrix(0.82322244,0,0,0.79663731,310.6016,228.13368)" />
    </g>
    <g
       id="g9435"
       transform="translate(294.27203,-536.5771)">
      <path
         inkscape:connector-curvature="0"
         id="path5221"
         d="m 181.77765,705.32529 c -1.69258,2.09003 -2.71875,4.72605 -2.71875,7.625 0,2.89895 1.02617,5.56622 2.71875,7.65625 l 18.90624,0 c 1.69258,-2.09003 2.71875,-4.7573 2.71875,-7.65625 0,-2.89895 -1.02617,-5.53497 -2.71875,-7.625 l -18.90624,0 z"
         style="fill:none;stroke:#000000;stroke-width:1;stroke-miterlimit:4;stroke-opacity:1;stroke-dasharray:none" />
      <g
         inkscape:label="Gear56"
         transform="translate(191.23077,712.96591)"
         id="g9399">
        <path
           inkscape:connector-curvature="0"
           style="fill:none;stroke:#000000"
           d="m 75.573,-2.949 2.828,0.749 2.824,1.105 0,2.19 -2.824,1.105 -2.828,0.749 -0.145,2.582 2.726,1.061 2.683,1.414 -0.245,2.177 -2.931,0.781 -2.894,0.428 -0.433,2.549 2.591,1.36 2.508,1.706 -0.488,2.135 -2.999,0.448 -2.924,0.102 -0.716,2.484 2.422,1.642 2.301,1.975 -0.724,2.068 -3.03,0.109 -2.917,-0.226 -0.989,2.388 2.222,1.903 2.066,2.221 -0.951,1.973 -3.024,-0.23 -2.873,-0.552 -1.25,2.263 1.995,2.139 1.804,2.438 -1.165,1.855 -2.98,-0.568 -2.793,-0.869 -1.496,2.108 1.744,2.349 1.519,2.625 -1.365,1.712 -2.897,-0.897 -2.679,-1.177 -1.722,1.927 1.469,2.53 1.216,2.779 -1.548,1.548 -2.779,-1.216 -2.53,-1.469 -1.927,1.722 1.177,2.679 0.897,2.897 -1.712,1.365 -2.625,-1.519 -2.349,-1.744 -2.108,1.496 0.869,2.793 0.568,2.98 -1.855,1.165 -2.438,-1.804 -2.139,-1.995 -2.263,1.25 0.552,2.873 0.23,3.024 -1.973,0.951 -2.221,-2.066 -1.903,-2.222 -2.388,0.989 0.226,2.917 -0.109,3.03 -2.068,0.724 -1.975,-2.301 -1.642,-2.422 -2.484,0.716 -0.102,2.924 -0.448,2.999 -2.135,0.488 -1.706,-2.508 -1.36,-2.591 -2.549,0.433 -0.428,2.894 -0.781,2.931 -2.177,0.245 -1.414,-2.683 -1.061,-2.726 -2.582,0.145 -0.749,2.828 -1.105,2.824 -2.19,0 -1.105,-2.824 -0.749,-2.828 -2.582,-0.145 -1.061,2.726 -1.414,2.683 -2.177,-0.245 -0.781,-2.931 -0.428,-2.894 -2.549,-0.433 -1.36,2.591 -1.706,2.508 -2.135,-0.488 -0.448,-2.999 -0.102,-2.924 -2.484,-0.716 -1.642,2.422 -1.975,2.301 -2.068,-0.724 -0.109,-3.03 0.226,-2.917 -2.388,-0.989 -1.903,2.222 -2.221,2.066 -1.973,-0.951 0.23,-3.024 0.552,-2.873 -2.263,-1.25 -2.139,1.995 -2.438,1.804 -1.855,-1.165 0.568,-2.98 0.869,-2.793 -2.108,-1.496 -2.349,1.744 -2.625,1.519 -1.712,-1.365 0.897,-2.897 1.177,-2.679 -1.927,-1.722 -2.53,1.469 -2.779,1.216 -1.548,-1.548 1.216,-2.779 1.469,-2.53 -1.722,-1.927 -2.679,1.177 -2.897,0.897 -1.365,-1.712 1.519,-2.625 1.744,-2.349 -1.496,-2.108 -2.793,0.869 -2.98,0.568 -1.165,-1.855 1.804,-2.438 1.995,-2.139 -1.25,-2.263 -2.873,0.552 -3.024,0.23 -0.951,-1.973 2.066,-2.221 2.222,-1.903 -0.989,-2.388 -2.917,0.226 -3.03,-0.109 -0.724,-2.068 2.301,-1.975 2.422,-1.642 -0.716,-2.484 -2.924,-0.102 -2.999,-0.448 -0.488,-2.135 2.508,-1.706 2.591,-1.36 -0.433,-2.549 -2.894,-0.428 -2.931,-0.781 -0.245,-2.177 2.683,-1.414 2.726,-1.061 -0.145,-2.582 -2.828,-0.749 -2.824,-1.105 0,-2.19 2.824,-1.105 2.828,-0.749 0.145,-2.582 -2.726,-1.061 -2.683,-1.414 0.245,-2.177 2.931,-0.781 2.894,-0.428 0.433,-2.549 -2.591,-1.36 -2.508,-1.706 0.488,-2.135 2.999,-0.448 2.924,-0.102 0.716,-2.484 -2.422,-1.642 -2.301,-1.975 0.724,-2.068 3.03,-0.109 2.917,0.226 0.989,-2.388 -2.222,-1.903 -2.066,-2.221 0.951,-1.973 3.024,0.23 2.873,0.552 1.25,-2.263 -1.995,-2.139 -1.804,-2.438 1.165,-1.855 2.98,0.568 2.793,0.869 1.496,-2.108 -1.744,-2.349 -1.519,-2.625 1.365,-1.712 2.897,0.897 2.679,1.177 1.722,-1.927 -1.469,-2.53 -1.216,-2.779 1.548,-1.548 2.779,1.216 2.53,1.469 1.927,-1.722 -1.177,-2.679 -0.897,-2.897 1.712,-1.365 2.625,1.519 2.349,1.744 2.108,-1.496 -0.869,-2.793 -0.568,-2.98 1.855,-1.165 2.438,1.804 2.139,1.995 2.263,-1.25 -0.552,-2.873 -0.23,-3.024 1.973,-0.951 2.221,2.066 1.903,2.222 2.388,-0.989 -0.226,-2.917 0.109,-3.03 2.068,-0.724 1.975,2.301 1.642,2.422 2.484,-0.716 0.102,-2.924 0.448,-2.999 2.135,-0.488 1.706,2.508 1.36,2.591 2.549,-0.433 0.428,-2.894 0.781,-2.931 2.177,-0.245 1.414,2.683 1.061,2.726 2.582,-0.145 0.749,-2.828 1.105,-2.824 2.19,0 1.105,2.824 0.749,2.828 2.582,0.145 1.061,-2.726 1.414,-2.683 2.177,0.245 0.781,2.931 0.428,2.894 2.549,0.433 1.36,-2.591 1.706,-2.508 2.135,0.488 0.448,2.999 0.102,2.924 2.484,0.716 1.642,-2.422 1.975,-2.301 2.068,0.724 0.109,3.03 -0.226,2.917 2.388,0.989 1.903,-2.222 2.221,-2.066 1.973,0.951 -0.23,3.024 -0.552,2.873 2.263,1.25 2.139,-1.995 2.438,-1.804 1.855,1.165 -0.568,2.98 -0.869,2.793 2.108,1.496 2.349,-1.744 2.625,-1.519 1.712,1.365 -0.897,2.897 -1.177,2.679 1.927,1.722 2.53,-1.469 2.779,-1.216 1.548,1.548 -1.216,2.779 -1.469,2.53 1.722,1.927 2.679,-1.177 2.897,-0.897 1.365,1.712 -1.519,2.625 -1.744,2.349 1.496,2.108 2.793,-0.869 2.98,-0.568 1.165,1.855 -1.804,2.438 -1.995,2.139 1.25,2.263 2.873,-0.552 3.024,-0.23 0.951,1.973 -2.066,2.221 -2.222,1.903 0.989,2.388 2.917,-0.226 3.03,0.109 0.724,2.068 -2.301,1.975 -2.422,1.642 0.716,2.484 2.924,0.102 2.999,0.448 0.488,2.135 -2.508,1.706 -2.591,1.36 0.433,2.549 2.894,0.428 2.931,0.781 0.245,2.177 -2.683,1.414 -2.726,1.061 z"
           id="path9401" />
      </g>
    </g>
    <path
       style="fill:none;stroke:#000000;stroke-width:1;stroke-miterlimit:4;stroke-opacity:1;stroke-dasharray:none"
       d="M 546.84375 24.125 C 527.17856 24.27477 508.08152 34.19846 496.9375 52 C 495.42068 51.922581 493.9487 51.860202 492.5 51.8125 C 490.72454 51.754038 488.99137 51.71875 487.34375 51.71875 C 486.51275 51.71875 485.61339 51.7359 484.75 51.75 L 484.75 51.78125 C 458.15126 52.216623 416.74679 59.203188 392 63.8125 C 389.82187 54.86869 381.77051 48.21875 372.15625 48.21875 C 360.87001 48.21875 351.71875 57.37001 351.71875 68.65625 C 351.71875 78.27757 358.35874 86.32892 367.3125 88.5 C 364.80529 101.95958 361.60525 120.35566 359.125 138.625 C 362.74371 137.72353 366.50848 137.25 370.40625 137.25 C 381.75463 137.25 392.16251 141.29174 400.25 148.03125 C 414.3451 113.81246 448.03936 89.71875 487.34375 89.71875 C 493.18455 89.71875 498.89124 90.263424 504.4375 91.28125 C 502.62113 81.287429 504.28885 70.624438 509.90625 61.21875 C 522.22624 40.590356 548.93411 33.836256 569.5625 46.15625 C 590.19089 58.476244 596.91374 85.215356 584.59375 105.84375 C 578.97825 115.24625 570.37489 121.73412 560.71875 124.875 C 573.70018 141.00925 581.46875 161.52005 581.46875 183.84375 C 581.46875 206.16745 573.70018 226.67167 560.71875 242.8125 C 570.36826 245.95542 578.98142 252.44656 584.59375 261.84375 C 596.91375 282.47216 590.19091 309.18 569.5625 321.5 C 548.93409 333.82 522.195 327.09716 509.875 306.46875 C 504.26567 297.07657 502.63371 286.4189 504.4375 276.4375 C 498.89124 277.45603 493.18455 278 487.34375 278 C 448.02915 278 414.33858 253.8892 400.25 219.65625 C 392.16251 226.39577 381.75463 230.4375 370.40625 230.4375 C 366.50642 230.4375 362.74544 229.96489 359.125 229.0625 C 361.59612 247.32112 364.77559 265.72398 367.28125 279.1875 C 358.3413 281.36837 351.71875 289.41973 351.71875 299.03125 C 351.71875 310.31749 360.87001 319.46875 372.15625 319.46875 C 381.76777 319.46875 389.81913 312.8462 392 303.90625 C 417.55466 308.66215 460.91708 315.9375 487.34375 315.9375 C 488.83531 315.9375 490.40679 315.88834 492 315.84375 C 492.99781 315.81582 494.02881 315.76304 495.0625 315.71875 C 495.67836 315.69236 496.27852 315.6882 496.90625 315.65625 C 514.00131 342.98073 549.88439 351.76123 577.6875 335.15625 C 585.08366 330.73901 591.16044 324.93349 595.8125 318.3125 C 596.87352 318.68195 597.96095 318.96492 599.09375 319.15625 C 600.20946 319.34469 601.36157 319.46875 602.53125 319.46875 C 603.94203 319.46875 605.32589 319.30352 606.65625 319.03125 C 610.65521 318.21282 614.22372 316.22007 617 313.4375 C 617.45684 312.98066 617.90036 312.52949 618.3125 312.03125 C 618.31785 312.02477 618.30716 312.00649 618.3125 312 C 618.72367 311.50179 619.10552 310.97369 619.46875 310.4375 C 619.4737 310.43017 619.46381 310.41359 619.46875 310.40625 C 620.19821 309.32656 620.85987 308.18189 621.375 306.96875 C 621.3788 306.95977 621.37121 306.94649 621.375 306.9375 C 621.62977 306.33522 621.86547 305.72389 622.0625 305.09375 C 622.06546 305.08423 622.05955 305.07203 622.0625 305.0625 C 622.15907 304.75205 622.26178 304.4416 622.34375 304.125 C 622.34633 304.11498 622.34119 304.10378 622.34375 304.09375 C 622.42519 303.77728 622.49604 303.47846 622.5625 303.15625 C 622.5645 303.14649 622.56052 303.13476 622.5625 303.125 C 622.62857 302.80217 622.69935 302.45318 622.75 302.125 C 622.75159 302.11459 622.74843 302.10416 622.75 302.09375 C 622.8001 301.7659 622.84068 301.45778 622.875 301.125 C 622.87602 301.11493 622.87399 301.10382 622.875 301.09375 C 622.90887 300.76032 622.91986 300.40047 622.9375 300.0625 C 622.93803 300.05195 622.93698 300.0418 622.9375 300.03125 C 622.95462 299.69348 622.96823 299.37314 622.96875 299.03125 C 622.96875 299.02073 622.96877 299.01051 622.96875 299 C 622.96875 298.4103 622.95527 297.827 622.90625 297.25 C 622.90536 297.23973 622.90715 297.22902 622.90625 297.21875 C 622.85637 296.64199 622.75311 296.06203 622.65625 295.5 C 622.65448 295.48983 622.65803 295.47891 622.65625 295.46875 C 622.5586 294.90716 622.45506 294.35733 622.3125 293.8125 C 622.30996 293.80287 622.31505 293.79088 622.3125 293.78125 C 622.16909 293.23651 621.96756 292.71343 621.78125 292.1875 C 621.77801 292.17841 621.7845 292.16533 621.78125 292.15625 C 621.59412 291.63046 621.38426 291.09868 621.15625 290.59375 C 621.15237 290.5852 621.16014 290.57105 621.15625 290.5625 C 620.92747 290.05778 620.67389 289.57557 620.40625 289.09375 C 620.40192 289.08598 620.41059 289.07026 620.40625 289.0625 C 619.86465 288.09062 619.2187 287.1786 618.53125 286.3125 C 618.52634 286.30633 618.53617 286.28742 618.53125 286.28125 C 618.18934 285.85156 617.81229 285.46303 617.4375 285.0625 C 617.43249 285.05716 617.44251 285.03658 617.4375 285.03125 C 617.06187 284.63074 616.65651 284.24424 616.25 283.875 C 613.77298 281.6251 610.7618 279.97889 607.40625 279.15625 C 607.999 275.97126 608.62919 272.51472 609.28125 268.84375 C 609.28296 268.83413 609.27954 268.82212 609.28125 268.8125 C 609.93363 265.13915 610.60759 261.24335 611.28125 257.21875 C 611.2829 257.2089 611.2796 257.19736 611.28125 257.1875 C 611.95503 253.16147 612.65551 248.99234 613.3125 244.75 C 613.31406 244.73991 613.31094 244.72885 613.3125 244.71875 C 613.64019 242.6023 613.96484 240.45757 614.28125 238.3125 C 614.28275 238.3023 614.27975 238.29145 614.28125 238.28125 C 614.5976 236.13605 614.91842 234.00076 615.21875 231.84375 C 615.22017 231.83352 615.21733 231.82273 615.21875 231.8125 C 615.51899 229.65545 615.81427 227.49581 616.09375 225.34375 C 616.09509 225.33345 616.09241 225.32279 616.09375 225.3125 C 616.37311 223.16059 616.62114 221.00512 616.875 218.875 C 616.87623 218.86464 616.87377 218.85411 616.875 218.84375 C 617.12871 216.71394 617.37027 214.59122 617.59375 212.5 C 617.59487 212.48955 617.59263 212.4792 617.59375 212.46875 C 617.81704 210.37804 618.03041 208.31659 618.21875 206.28125 C 618.21972 206.27073 618.21778 206.26051 618.21875 206.25 C 618.40687 204.21532 618.60155 202.21253 618.75 200.25 C 618.7508 200.23938 618.7492 200.22936 618.75 200.21875 C 618.89819 198.25711 619.0212 196.3415 619.125 194.46875 C 619.12559 194.45807 619.12441 194.44818 619.125 194.4375 C 619.22852 192.56582 619.28932 190.73482 619.34375 188.96875 C 619.34408 188.95793 619.34342 188.94832 619.34375 188.9375 C 619.39787 187.17283 619.43716 185.48615 619.4375 183.84375 L 619.4375 183.8125 C 619.4375 182.17084 619.39755 180.45154 619.34375 178.6875 C 619.34344 178.67743 619.34406 178.66633 619.34375 178.65625 C 619.28961 176.89083 619.22825 175.05863 619.125 173.1875 C 619.12444 173.17737 619.12556 173.16639 619.125 173.15625 C 619.02145 171.28402 618.89796 169.36746 618.75 167.40625 C 618.74923 167.39611 618.75077 167.38514 618.75 167.375 C 618.60177 165.41288 618.40668 163.40935 618.21875 161.375 C 618.21781 161.36483 618.21969 161.35393 618.21875 161.34375 C 618.0306 159.30873 617.81688 157.24672 617.59375 155.15625 C 617.59266 155.14608 617.59484 155.13517 617.59375 155.125 C 617.37043 153.03401 617.12858 150.91091 616.875 148.78125 C 616.87378 148.77101 616.87622 148.76024 616.875 148.75 C 616.62127 146.62007 616.37299 144.49555 616.09375 142.34375 C 616.09242 142.33354 616.09508 142.32271 616.09375 142.3125 C 615.81438 140.1605 615.5189 138.00082 615.21875 135.84375 C 615.21733 135.83354 615.22017 135.82271 615.21875 135.8125 C 614.91851 133.65542 614.59754 131.48909 614.28125 129.34375 C 614.27974 129.33352 614.28276 129.32273 614.28125 129.3125 C 613.32925 122.85684 612.29276 116.51376 611.28125 110.46875 C 611.27949 110.45821 611.28301 110.44804 611.28125 110.4375 C 610.60758 106.41215 609.93374 102.5182 609.28125 98.84375 C 609.27934 98.832977 609.28316 98.823269 609.28125 98.8125 C 608.62907 95.140306 607.99923 91.686611 607.40625 88.5 C 607.96424 88.363163 608.52348 88.181582 609.0625 88 C 610.14053 87.636836 611.16684 87.185764 612.15625 86.65625 C 614.14205 85.593486 615.91141 84.224636 617.4375 82.59375 C 617.81277 82.193626 618.18883 81.773059 618.53125 81.34375 C 618.53644 81.337226 618.52607 81.31903 618.53125 81.3125 C 618.87289 80.883162 619.22446 80.456431 619.53125 80 C 619.53618 79.992644 619.52633 79.976113 619.53125 79.96875 C 619.83721 79.512338 620.13713 79.043918 620.40625 78.5625 C 620.4108 78.55434 620.40171 78.539416 620.40625 78.53125 C 620.67454 78.049839 620.92678 77.566842 621.15625 77.0625 C 621.16026 77.053651 621.15225 77.040106 621.15625 77.03125 C 621.38491 76.526831 621.59342 76.025291 621.78125 75.5 C 621.78451 75.49085 621.77801 75.477906 621.78125 75.46875 C 622.15867 74.408379 622.45749 73.289151 622.65625 72.15625 C 622.65802 72.14607 622.65449 72.135185 622.65625 72.125 C 622.75391 71.563448 622.85551 71.013809 622.90625 70.4375 C 622.90714 70.427214 622.90538 70.41654 622.90625 70.40625 C 622.95613 69.829526 622.96786 69.245708 622.96875 68.65625 C 622.96875 68.645886 622.96877 68.635361 622.96875 68.625 C 622.96875 68.282669 622.95414 67.931956 622.9375 67.59375 C 622.93697 67.583234 622.93805 67.573012 622.9375 67.5625 C 622.92037 67.224705 622.90834 66.895775 622.875 66.5625 C 622.87396 66.552242 622.87606 66.541504 622.875 66.53125 C 622.84115 66.19801 622.79967 65.859564 622.75 65.53125 C 622.74844 65.521038 622.75158 65.510207 622.75 65.5 C 622.69987 65.171953 622.62804 64.853971 622.5625 64.53125 C 622.56047 64.521331 622.56454 64.509914 622.5625 64.5 C 622.49646 64.177329 622.4248 63.848188 622.34375 63.53125 C 622.34125 63.521537 622.34626 63.509708 622.34375 63.5 C 622.26223 63.183221 622.15863 62.873143 622.0625 62.5625 C 622.05958 62.553098 622.06544 62.540646 622.0625 62.53125 C 621.86636 61.900717 621.62893 61.290224 621.375 60.6875 C 621.37135 60.678861 621.37867 60.664883 621.375 60.65625 C 621.12009 60.053625 620.80944 59.477703 620.5 58.90625 C 620.49576 58.898441 620.50425 58.882803 620.5 58.875 C 620.1896 58.303641 619.83042 57.755561 619.46875 57.21875 C 619.464 57.211724 619.47351 57.194519 619.46875 57.1875 C 619.1062 56.650879 618.72304 56.154944 618.3125 55.65625 C 618.30757 55.650279 618.31743 55.630965 618.3125 55.625 C 617.9009 55.126272 617.45634 54.64487 617 54.1875 C 616.07093 53.256333 615.06247 52.426443 613.96875 51.6875 C 610.70687 49.483707 606.76359 48.1875 602.53125 48.1875 C 601.31934 48.1875 600.15269 48.291564 599 48.5 C 598.47231 48.59542 597.9505 48.709198 597.4375 48.84375 C 596.88243 48.98615 596.34828 49.156881 595.8125 49.34375 C 591.16157 42.72803 585.07897 36.94569 577.6875 32.53125 C 568.00675 26.74957 557.35143 24.04497 546.84375 24.125 z "
       id="path3308" />
    <path
       transform="matrix(0.82322244,0,0,0.79663731,322.53185,5.320331)"
       d="m 70.542884,79.495422 a 10.268901,10.268901 0 1 1 -20.537802,0 10.268901,10.268901 0 1 1 20.537802,0 z"
       sodipodi:ry="10.268901"
       sodipodi:rx="10.268901"
       sodipodi:cy="79.495422"
       sodipodi:cx="60.273983"
       id="path3510"
       style="fill:none;stroke:#000000;stroke-width:1.23484111;stroke-miterlimit:4;stroke-opacity:1;stroke-dasharray:none"
       sodipodi:type="arc" />
    <path
       sodipodi:type="arc"
       style="fill:none;stroke:#000000;stroke-width:1.23484111;stroke-miterlimit:4;stroke-opacity:1;stroke-dasharray:none"
       id="path3512"
       sodipodi:cx="60.273983"
       sodipodi:cy="79.495422"
       sodipodi:rx="10.268901"
       sodipodi:ry="10.268901"
       d="m 70.542884,79.495422 a 10.268901,10.268901 0 1 1 -20.537802,0 10.268901,10.268901 0 1 1 20.537802,0 z"
       transform="matrix(0.82322244,0,0,0.79663731,552.91241,235.7009)" />
    <path
       transform="matrix(0.82322244,0,0,0.79663731,322.53185,235.7009)"
       d="m 70.542884,79.495422 a 10.268901,10.268901 0 1 1 -20.537802,0 10.268901,10.268901 0 1 1 20.537802,0 z"
       sodipodi:ry="10.268901"
       sodipodi:rx="10.268901"
       sodipodi:cy="79.495422"
       sodipodi:cx="60.273983"
       id="path3514"
       style="fill:none;stroke:#000000;stroke-width:1.23484111;stroke-miterlimit:4;stroke-opacity:1;stroke-dasharray:none"
       sodipodi:type="arc" />
    <path
       sodipodi:type="arc"
       style="fill:none;stroke:#000000;stroke-width:1.23484111;stroke-miterlimit:4;stroke-opacity:1;stroke-dasharray:none"
       id="path3516"
       sodipodi:cx="60.273983"
       sodipodi:cy="79.495422"
       sodipodi:rx="10.268901"
       sodipodi:ry="10.268901"
       d="m 70.542884,79.495422 a 10.268901,10.268901 0 1 1 -20.537802,0 10.268901,10.268901 0 1 1 20.537802,0 z"
       transform="matrix(0.82322244,0,0,0.79663731,552.91241,5.320341)" />
    <path
       transform="matrix(0.82322244,0,0,0.79663731,552.90048,235.6976)"
       d="m 70.542884,79.495422 a 10.268901,10.268901 0 1 1 -20.537802,0 10.268901,10.268901 0 1 1 20.537802,0 z"
       sodipodi:ry="10.268901"
       sodipodi:rx="10.268901"
       sodipodi:cy="79.495422"
       sodipodi:cx="60.273983"
       id="path3312-7"
       style="fill:none;stroke:#000000;stroke-width:1.23484111;stroke-miterlimit:4;stroke-opacity:1;stroke-dasharray:none"
       sodipodi:type="arc" />
    <path
       transform="matrix(0.82322244,0,0,0.79663731,552.90048,5.31705)"
       d="m 70.542884,79.495422 a 10.268901,10.268901 0 1 1 -20.537802,0 10.268901,10.268901 0 1 1 20.537802,0 z"
       sodipodi:ry="10.268901"
       sodipodi:rx="10.268901"
       sodipodi:cy="79.495422"
       sodipodi:cx="60.273983"
       id="path3316-4"
       style="fill:none;stroke:#000000;stroke-width:1.23484111;stroke-miterlimit:4;stroke-opacity:1;stroke-dasharray:none"
       sodipodi:type="arc" />
    <g
       style="stroke-width:1;stroke-miterlimit:4;stroke-dasharray:none"
       transform="translate(76.479581,-20.265197)"
       id="g3800">
      <g
         style="stroke-width:1;stroke-miterlimit:4;stroke-dasharray:none"
         inkscape:label="Gear27"
         transform="translate(284.35592,202.94204)"
         id="g3802">
        <path
           style="fill:none;stroke:#000000;stroke-width:1;stroke-miterlimit:4;stroke-dasharray:none"
           d="m 34.921,-2.557 0.519,-0.038 2.311,0.396 2.853,1.18 0,2.038 -2.853,1.18 -2.311,0.396 -0.519,-0.038 -0.352,3.009 0.514,0.082 2.158,0.919 2.503,1.805 -0.47,1.983 -3.047,0.491 -2.341,-0.148 -0.496,-0.157 -1.036,2.847 0.481,0.199 1.888,1.391 2.019,2.334 -0.915,1.821 -3.078,-0.225 -2.243,-0.684 -0.447,-0.267 -1.665,2.531 0.422,0.305 1.516,1.789 1.427,2.737 -1.31,1.561 -2.943,-0.93 -2.025,-1.182 -0.374,-0.363 -2.203,2.079 0.34,0.394 1.063,2.09 0.757,2.993 -1.634,1.216 -2.65,-1.583 -1.698,-1.617 -0.28,-0.44 -2.623,1.515 0.24,0.462 0.552,2.279 0.047,3.086 -1.871,0.807 -2.213,-2.151 -1.279,-1.966 -0.171,-0.492 -2.902,0.869 0.127,0.505 0.012,2.345 L 8.054,39.81 6.047,40.164 4.39,37.56 3.599,35.352 3.546,34.834 0.522,35.01 0.53,35.531 0,37.815 -1.344,40.594 -3.378,40.476 -4.39,37.56 l -0.261,-2.331 0.068,-0.516 -2.983,-0.526 -0.113,0.508 -1.042,2.101 -1.948,2.394 -1.952,-0.584 -0.313,-3.071 0.284,-2.328 0.185,-0.487 -2.781,-1.2 -0.227,0.469 -1.498,1.804 -2.448,1.88 -1.765,-1.019 0.404,-3.06 0.813,-2.2 0.293,-0.43 -2.43,-1.809 -0.329,0.404 -1.874,1.409 -2.816,1.265 -1.482,-1.398 1.099,-2.885 1.298,-1.953 0.384,-0.351 -1.947,-2.321 -0.413,0.317 -2.148,0.94 -3.032,0.581 -1.12,-1.702 1.735,-2.553 1.714,-1.601 0.454,-0.254 -1.359,-2.707 -0.475,0.213 -2.308,0.419 -3.083,-0.133 -0.697,-1.915 2.276,-2.084 2.037,-1.163 0.501,-0.142 -0.699,-2.948 -0.511,0.098 -2.342,-0.124 -2.97,-0.841 -0.236,-2.024 2.696,-1.503 2.25,-0.662 0.52,-0.022 0,-3.03 -0.52,-0.022 -2.25,-0.662 -2.696,-1.503 0.236,-2.024 2.97,-0.841 2.342,-0.124 0.511,0.098 0.699,-2.948 -0.501,-0.142 -2.037,-1.163 -2.276,-2.084 0.697,-1.915 3.083,-0.133 2.308,0.419 0.475,0.213 1.359,-2.707 -0.454,-0.254 -1.714,-1.601 -1.735,-2.553 1.12,-1.702 3.032,0.581 2.148,0.94 0.413,0.317 1.947,-2.321 -0.384,-0.351 -1.298,-1.953 -1.099,-2.885 1.482,-1.398 2.816,1.265 1.874,1.409 0.329,0.404 2.43,-1.809 -0.293,-0.43 -0.813,-2.2 -0.404,-3.06 1.765,-1.019 2.448,1.88 1.498,1.804 0.227,0.469 2.781,-1.2 -0.185,-0.487 -0.284,-2.328 0.313,-3.071 1.952,-0.584 1.948,2.394 1.042,2.101 0.113,0.508 2.983,-0.526 -0.068,-0.516 0.261,-2.331 1.012,-2.916 2.034,-0.118 1.344,2.779 0.53,2.284 -0.008,0.521 3.024,0.176 0.053,-0.518 0.791,-2.208 1.657,-2.604 2.007,0.354 0.667,3.014 -0.012,2.345 -0.127,0.505 2.902,0.869 0.171,-0.492 1.279,-1.966 2.213,-2.151 1.871,0.807 -0.047,3.086 -0.552,2.279 -0.24,0.462 2.623,1.515 0.28,-0.44 1.698,-1.617 2.65,-1.583 1.634,1.216 -0.757,2.993 -1.063,2.09 -0.34,0.394 2.203,2.079 0.374,-0.363 2.025,-1.182 2.943,-0.93 1.31,1.561 -1.427,2.737 -1.516,1.789 -0.422,0.305 1.665,2.531 0.447,-0.267 2.243,-0.684 3.078,-0.225 0.915,1.821 -2.019,2.334 -1.888,1.391 -0.481,0.199 1.036,2.847 0.496,-0.157 2.341,-0.148 3.047,0.491 0.47,1.983 -2.503,1.805 -2.158,0.919 -0.514,0.082 z"
           id="path3804"
           inkscape:connector-curvature="0" />
      </g>
      <path
         transform="translate(421.34452,0.7929947)"
         d="m -127.26683,202.14903 c 0,5.36919 -4.35259,9.72177 -9.72177,9.72177 -5.36919,0 -9.72177,-4.35258 -9.72177,-9.72177 0,-5.36918 4.35258,-9.72177 9.72177,-9.72177 5.36918,0 9.72177,4.35259 9.72177,9.72177 z"
         sodipodi:ry="9.7217722"
         sodipodi:rx="9.7217722"
         sodipodi:cy="202.14903"
         sodipodi:cx="-136.9886"
         id="path3806"
         style="fill:none;stroke:#000000;stroke-width:1;stroke-miterlimit:4;stroke-opacity:1;stroke-dasharray:none"
         sodipodi:type="arc" />
    </g>
  </g>
</svg>
