  0
SECTION
  2
HEADER
  9
$ACADVER
  1
AC1014
  9
$HANDSEED
  5
FFFF
  9
$MEASUREMENT
 70
     1
  0
ENDSEC
  0
SECTION
  2
TABLES
  0
TABLE
  2
VPORT
  5
8
330
0
100
AcDbSymbolTable
 70
     4
  0
VPORT
  5
2E
330
8
100
AcDbSymbolTableRecord
100
AcDbViewportTableRecord
  2
*ACTIVE
 70
     0
 10
0.0
 20
0.0
 11
1.0
 21
1.0
 12
210.0
 22
148.5
 13
0.0
 23
0.0
 14
10.0
 24
10.0
 15
10.0
 25
10.0
 16
0.0
 26
0.0
 36
1.0
 17
0.0
 27
0.0
 37
0.0
 40
341.0
 41
1.24
 42
50.0
 43
0.0
 44
0.0
 50
0.0
 51
0.0
 71
     0
 72
   100
 73
     1
 74
     3
 75
     0
 76
     0
 77
     0
 78
     0
  0
ENDTAB
  0
TABLE
  2
LTYPE
  5
5
330
0
100
AcDbSymbolTable
 70
     1
  0
LTYPE
  5
14
330
5
100
AcDbSymbolTableRecord
100
AcDbLinetypeTableRecord
  2
BYBLOCK
 70
     0
  3

 72
    65
 73
     0
 40
0.0
  0
LTYPE
  5
15
330
5
100
AcDbSymbolTableRecord
100
AcDbLinetypeTableRecord
  2
BYLAYER
 70
     0
  3

 72
    65
 73
     0
 40
0.0
  0
LTYPE
  5
16
330
5
100
AcDbSymbolTableRecord
100
AcDbLinetypeTableRecord
  2
CONTINUOUS
 70
     0
  3
Solid line
 72
    65
 73
     0
 40
0.0
  0
ENDTAB
  0
TABLE
  2
LAYER
  5
2
100
AcDbSymbolTable
 70
2
  0
LAYER
  5
50
100
AcDbSymbolTableRecord
100
AcDbLayerTableRecord
  2
0
 70
0
  6
CONTINUOUS
  0
LAYER
  5
51
100
AcDbSymbolTableRecord
100
AcDbLayerTableRecord
  2
Layer_1
 70
0
  6
CONTINUOUS
  0
ENDTAB
  0
TABLE
  2
STYLE
  5
3
330
0
100
AcDbSymbolTable
 70
     1
  0
STYLE
  5
11
330
3
100
AcDbSymbolTableRecord
100
AcDbTextStyleTableRecord
  2
STANDARD
 70
     0
 40
0.0
 41
1.0
 50
0.0
 71
     0
 42
2.5
  3
txt
  4

  0
ENDTAB
  0
TABLE
  2
VIEW
  5
6
330
0
100
AcDbSymbolTable
 70
     0
  0
ENDTAB
  0
TABLE
  2
UCS
  5
7
330
0
100
AcDbSymbolTable
 70
     0
  0
ENDTAB
  0
TABLE
  2
APPID
  5
9
330
0
100
AcDbSymbolTable
 70
     2
  0
APPID
  5
12
330
9
100
AcDbSymbolTableRecord
100
AcDbRegAppTableRecord
  2
ACAD
 70
     0
  0
ENDTAB
  0
TABLE
  2
DIMSTYLE
  5
A
330
0
100
AcDbSymbolTable
 70
     1
  0
DIMSTYLE
105
27
330
A
100
AcDbSymbolTableRecord
100
AcDbDimStyleTableRecord
  2
ISO-25
 70
     0
  3

  4

  5

  6

  7

 40
1.0
 41
2.5
 42
0.625
 43
3.75
 44
1.25
 45
0.0
 46
0.0
 47
0.0
 48
0.0
140
2.5
141
2.5
142
0.0
143
0.03937007874016
144
1.0
145
0.0
146
1.0
147
0.625
 71
     0
 72
     0
 73
     0
 74
     0
 75
     0
 76
     0
 77
     1
 78
     8
170
     0
171
     3
172
     1
173
     0
174
     0
175
     0
176
     0
177
     0
178
     0
270
     2
271
     2
272
     2
273
     2
274
     3
340
11
275
     0
280
     0
281
     0
282
     0
283
     0
284
     8
285
     0
286
     0
287
     3
288
     0
  0
ENDTAB
  0
TABLE
  2
BLOCK_RECORD
  5
1
330
0
100
AcDbSymbolTable
 70
     1
  0
BLOCK_RECORD
  5
1F
330
1
100
AcDbSymbolTableRecord
100
AcDbBlockTableRecord
  2
*MODEL_SPACE
  0
BLOCK_RECORD
  5
1B
330
1
100
AcDbSymbolTableRecord
100
AcDbBlockTableRecord
  2
*PAPER_SPACE
  0
ENDTAB
  0
ENDSEC
  0
SECTION
  2
BLOCKS
  0
BLOCK
  5
20
330
1F
100
AcDbEntity
  8
0
100
AcDbBlockBegin
  2
*MODEL_SPACE
 70
     0
 10
0.0
 20
0.0
 30
0.0
  3
*MODEL_SPACE
  1

  0
ENDBLK
  5
21
330
1F
100
AcDbEntity
  8
0
100
AcDbBlockEnd
  0
BLOCK
  5
1C
330
1B
100
AcDbEntity
 67
     1
  8
0
100
AcDbBlockBegin
  2
*PAPER_SPACE
  1

  0
ENDBLK
  5
1D
330
1B
100
AcDbEntity
 67
     1
  8
0
100
AcDbBlockEnd
  0
ENDSEC
  0
SECTION
  2
ENTITIES
  0
SPLINE
  5
100
100
AcDbEntity
  8
Layer_1
 62
7
100
AcDbSpline
 70
8
 71
3
 72
8
 73
4
 74
0
 40
0
 40
0
 40
0
 40
0
 40
1
 40
1
 40
1
 40
1
 10
10.468340
 20
221.346574
 30
0.0
 10
10.468340
 20
219.831269
 30
0.0
 10
9.239943
 20
218.602874
 30
0.0
 10
7.724641
 20
218.602874
 30
0.0
  0
SPLINE
  5
101
100
AcDbEntity
  8
Layer_1
 62
7
100
AcDbSpline
 70
8
 71
3
 72
8
 73
4
 74
0
 40
0
 40
0
 40
0
 40
0
 40
1
 40
1
 40
1
 40
1
 10
7.724641
 20
218.602874
 30
0.0
 10
6.209336
 20
218.602874
 30
0.0
 10
4.980941
 20
219.831269
 30
0.0
 10
4.980941
 20
221.346574
 30
0.0
  0
SPLINE
  5
102
100
AcDbEntity
  8
Layer_1
 62
7
100
AcDbSpline
 70
8
 71
3
 72
8
 73
4
 74
0
 40
0
 40
0
 40
0
 40
0
 40
1
 40
1
 40
1
 40
1
 10
4.980941
 20
221.346574
 30
0.0
 10
4.980941
 20
222.861876
 30
0.0
 10
6.209336
 20
224.090274
 30
0.0
 10
7.724641
 20
224.090274
 30
0.0
  0
SPLINE
  5
103
100
AcDbEntity
  8
Layer_1
 62
7
100
AcDbSpline
 70
8
 71
3
 72
8
 73
4
 74
0
 40
0
 40
0
 40
0
 40
0
 40
1
 40
1
 40
1
 40
1
 10
7.724641
 20
224.090274
 30
0.0
 10
9.239943
 20
224.090274
 30
0.0
 10
10.468340
 20
222.861876
 30
0.0
 10
10.468340
 20
221.346574
 30
0.0
  0
SPLINE
  5
104
100
AcDbEntity
  8
Layer_1
 62
7
100
AcDbSpline
 70
8
 71
3
 72
8
 73
4
 74
0
 40
0
 40
0
 40
0
 40
0
 40
1
 40
1
 40
1
 40
1
 10
5.073587
 20
218.253234
 30
0.0
 10
4.595903
 20
217.663382
 30
0.0
 10
4.306295
 20
216.919438
 30
0.0
 10
4.306295
 20
216.101290
 30
0.0
  0
SPLINE
  5
105
100
AcDbEntity
  8
Layer_1
 62
7
100
AcDbSpline
 70
8
 71
3
 72
8
 73
4
 74
0
 40
0
 40
0
 40
0
 40
0
 40
1
 40
1
 40
1
 40
1
 10
4.306295
 20
216.101290
 30
0.0
 10
4.306295
 20
215.283142
 30
0.0
 10
4.595903
 20
214.530379
 30
0.0
 10
5.073587
 20
213.940526
 30
0.0
  0
LWPOLYLINE
  5
106
100
AcDbEntity
  8
Layer_1
 62
7
100
AcDbPolyline
 90
2
 70
1
 10
10.468340
 20
221.346574
 30
0.0
 10
10.468340
 20
221.346574
 30
0.0
  0
SPLINE
  5
107
100
AcDbEntity
  8
Layer_1
 62
7
100
AcDbSpline
 70
8
 71
3
 72
8
 73
4
 74
0
 40
0
 40
0
 40
0
 40
0
 40
1
 40
1
 40
1
 40
1
 10
10.409348
 20
213.940526
 30
0.0
 10
10.887032
 20
214.530379
 30
0.0
 10
11.176640
 20
215.283142
 30
0.0
 10
11.176640
 20
216.101290
 30
0.0
  0
SPLINE
  5
108
100
AcDbEntity
  8
Layer_1
 62
7
100
AcDbSpline
 70
8
 71
3
 72
8
 73
4
 74
0
 40
0
 40
0
 40
0
 40
0
 40
1
 40
1
 40
1
 40
1
 10
11.176640
 20
216.101290
 30
0.0
 10
11.176640
 20
216.919438
 30
0.0
 10
10.887032
 20
217.663382
 30
0.0
 10
10.409348
 20
218.253234
 30
0.0
  0
LWPOLYLINE
  5
109
100
AcDbEntity
  8
Layer_1
 62
7
100
AcDbPolyline
 90
2
 70
1
 10
5.073587
 20
213.940526
 30
0.0
 10
10.409348
 20
213.940526
 30
0.0
  0
SPLINE
  5
10a
100
AcDbEntity
  8
Layer_1
 62
7
100
AcDbSpline
 70
8
 71
3
 72
8
 73
4
 74
0
 40
0
 40
0
 40
0
 40
0
 40
1
 40
1
 40
1
 40
1
 10
-11.379265
 20
221.346574
 30
0.0
 10
-11.379265
 20
219.831269
 30
0.0
 10
-12.607663
 20
218.602874
 30
0.0
 10
-14.122964
 20
218.602874
 30
0.0
  0
SPLINE
  5
10b
100
AcDbEntity
  8
Layer_1
 62
7
100
AcDbSpline
 70
8
 71
3
 72
8
 73
4
 74
0
 40
0
 40
0
 40
0
 40
0
 40
1
 40
1
 40
1
 40
1
 10
-14.122964
 20
218.602874
 30
0.0
 10
-15.638269
 20
218.602874
 30
0.0
 10
-16.866664
 20
219.831269
 30
0.0
 10
-16.866664
 20
221.346574
 30
0.0
  0
SPLINE
  5
10c
100
AcDbEntity
  8
Layer_1
 62
7
100
AcDbSpline
 70
8
 71
3
 72
8
 73
4
 74
0
 40
0
 40
0
 40
0
 40
0
 40
1
 40
1
 40
1
 40
1
 10
-16.866664
 20
221.346574
 30
0.0
 10
-16.866664
 20
222.861876
 30
0.0
 10
-15.638269
 20
224.090274
 30
0.0
 10
-14.122964
 20
224.090274
 30
0.0
  0
SPLINE
  5
10d
100
AcDbEntity
  8
Layer_1
 62
7
100
AcDbSpline
 70
8
 71
3
 72
8
 73
4
 74
0
 40
0
 40
0
 40
0
 40
0
 40
1
 40
1
 40
1
 40
1
 10
-14.122964
 20
224.090274
 30
0.0
 10
-12.607663
 20
224.090274
 30
0.0
 10
-11.379265
 20
222.861876
 30
0.0
 10
-11.379265
 20
221.346574
 30
0.0
  0
LWPOLYLINE
  5
10e
100
AcDbEntity
  8
Layer_1
 62
7
100
AcDbPolyline
 90
3
 70
1
 10
10.409348
 20
218.253234
 30
0.0
 10
5.073587
 20
218.253234
 30
0.0
 10
5.073587
 20
218.253234
 30
0.0
  0
SPLINE
  5
10f
100
AcDbEntity
  8
Layer_1
 62
7
100
AcDbSpline
 70
8
 71
3
 72
8
 73
4
 74
0
 40
0
 40
0
 40
0
 40
0
 40
1
 40
1
 40
1
 40
1
 10
-16.774018
 20
218.253234
 30
0.0
 10
-17.251702
 20
217.663382
 30
0.0
 10
-17.541310
 20
216.919438
 30
0.0
 10
-17.541310
 20
216.101290
 30
0.0
  0
SPLINE
  5
110
100
AcDbEntity
  8
Layer_1
 62
7
100
AcDbSpline
 70
8
 71
3
 72
8
 73
4
 74
0
 40
0
 40
0
 40
0
 40
0
 40
1
 40
1
 40
1
 40
1
 10
-17.541310
 20
216.101290
 30
0.0
 10
-17.541310
 20
215.283142
 30
0.0
 10
-17.251702
 20
214.530379
 30
0.0
 10
-16.774018
 20
213.940526
 30
0.0
  0
LWPOLYLINE
  5
111
100
AcDbEntity
  8
Layer_1
 62
7
100
AcDbPolyline
 90
2
 70
1
 10
-11.379265
 20
221.346574
 30
0.0
 10
-11.379265
 20
221.346574
 30
0.0
  0
SPLINE
  5
112
100
AcDbEntity
  8
Layer_1
 62
7
100
AcDbSpline
 70
8
 71
3
 72
8
 73
4
 74
0
 40
0
 40
0
 40
0
 40
0
 40
1
 40
1
 40
1
 40
1
 10
-11.438257
 20
213.940526
 30
0.0
 10
-10.960574
 20
214.530379
 30
0.0
 10
-10.670966
 20
215.283142
 30
0.0
 10
-10.670966
 20
216.101290
 30
0.0
  0
SPLINE
  5
113
100
AcDbEntity
  8
Layer_1
 62
7
100
AcDbSpline
 70
8
 71
3
 72
8
 73
4
 74
0
 40
0
 40
0
 40
0
 40
0
 40
1
 40
1
 40
1
 40
1
 10
-10.670966
 20
216.101290
 30
0.0
 10
-10.670966
 20
216.919438
 30
0.0
 10
-10.960574
 20
217.663382
 30
0.0
 10
-11.438257
 20
218.253234
 30
0.0
  0
LWPOLYLINE
  5
114
100
AcDbEntity
  8
Layer_1
 62
7
100
AcDbPolyline
 90
2
 70
1
 10
-16.774018
 20
213.940526
 30
0.0
 10
-11.438257
 20
213.940526
 30
0.0
  0
SPLINE
  5
115
100
AcDbEntity
  8
Layer_1
 62
7
100
AcDbSpline
 70
8
 71
3
 72
8
 73
4
 74
0
 40
0
 40
0
 40
0
 40
0
 40
1
 40
1
 40
1
 40
1
 10
17.750875
 20
221.346574
 30
0.0
 10
17.750875
 20
219.831269
 30
0.0
 10
16.522477
 20
218.602874
 30
0.0
 10
15.007175
 20
218.602874
 30
0.0
  0
SPLINE
  5
116
100
AcDbEntity
  8
Layer_1
 62
7
100
AcDbSpline
 70
8
 71
3
 72
8
 73
4
 74
0
 40
0
 40
0
 40
0
 40
0
 40
1
 40
1
 40
1
 40
1
 10
15.007175
 20
218.602874
 30
0.0
 10
13.491871
 20
218.602874
 30
0.0
 10
12.263476
 20
219.831269
 30
0.0
 10
12.263476
 20
221.346574
 30
0.0
  0
SPLINE
  5
117
100
AcDbEntity
  8
Layer_1
 62
7
100
AcDbSpline
 70
8
 71
3
 72
8
 73
4
 74
0
 40
0
 40
0
 40
0
 40
0
 40
1
 40
1
 40
1
 40
1
 10
12.263476
 20
221.346574
 30
0.0
 10
12.263476
 20
222.861876
 30
0.0
 10
13.491871
 20
224.090274
 30
0.0
 10
15.007175
 20
224.090274
 30
0.0
  0
SPLINE
  5
118
100
AcDbEntity
  8
Layer_1
 62
7
100
AcDbSpline
 70
8
 71
3
 72
8
 73
4
 74
0
 40
0
 40
0
 40
0
 40
0
 40
1
 40
1
 40
1
 40
1
 10
15.007175
 20
224.090274
 30
0.0
 10
16.522477
 20
224.090274
 30
0.0
 10
17.750875
 20
222.861876
 30
0.0
 10
17.750875
 20
221.346574
 30
0.0
  0
LWPOLYLINE
  5
119
100
AcDbEntity
  8
Layer_1
 62
7
100
AcDbPolyline
 90
3
 70
1
 10
-11.438257
 20
218.253234
 30
0.0
 10
-16.774018
 20
218.253234
 30
0.0
 10
-16.774018
 20
218.253234
 30
0.0
  0
SPLINE
  5
11a
100
AcDbEntity
  8
Layer_1
 62
7
100
AcDbSpline
 70
8
 71
3
 72
8
 73
4
 74
0
 40
0
 40
0
 40
0
 40
0
 40
1
 40
1
 40
1
 40
1
 10
12.356122
 20
218.253234
 30
0.0
 10
11.878438
 20
217.663382
 30
0.0
 10
11.588830
 20
216.919438
 30
0.0
 10
11.588830
 20
216.101290
 30
0.0
  0
SPLINE
  5
11b
100
AcDbEntity
  8
Layer_1
 62
7
100
AcDbSpline
 70
8
 71
3
 72
8
 73
4
 74
0
 40
0
 40
0
 40
0
 40
0
 40
1
 40
1
 40
1
 40
1
 10
11.588830
 20
216.101290
 30
0.0
 10
11.588830
 20
215.283142
 30
0.0
 10
11.878438
 20
214.530379
 30
0.0
 10
12.356122
 20
213.940526
 30
0.0
  0
LWPOLYLINE
  5
11c
100
AcDbEntity
  8
Layer_1
 62
7
100
AcDbPolyline
 90
2
 70
1
 10
17.750875
 20
221.346574
 30
0.0
 10
17.750875
 20
221.346574
 30
0.0
  0
SPLINE
  5
11d
100
AcDbEntity
  8
Layer_1
 62
7
100
AcDbSpline
 70
8
 71
3
 72
8
 73
4
 74
0
 40
0
 40
0
 40
0
 40
0
 40
1
 40
1
 40
1
 40
1
 10
17.691883
 20
213.940526
 30
0.0
 10
18.169566
 20
214.530379
 30
0.0
 10
18.459174
 20
215.283142
 30
0.0
 10
18.459174
 20
216.101290
 30
0.0
  0
SPLINE
  5
11e
100
AcDbEntity
  8
Layer_1
 62
7
100
AcDbSpline
 70
8
 71
3
 72
8
 73
4
 74
0
 40
0
 40
0
 40
0
 40
0
 40
1
 40
1
 40
1
 40
1
 10
18.459174
 20
216.101290
 30
0.0
 10
18.459174
 20
216.919438
 30
0.0
 10
18.169566
 20
217.663382
 30
0.0
 10
17.691883
 20
218.253234
 30
0.0
  0
LWPOLYLINE
  5
11f
100
AcDbEntity
  8
Layer_1
 62
7
100
AcDbPolyline
 90
2
 70
1
 10
12.356122
 20
213.940526
 30
0.0
 10
17.691883
 20
213.940526
 30
0.0
  0
SPLINE
  5
120
100
AcDbEntity
  8
Layer_1
 62
7
100
AcDbSpline
 70
8
 71
3
 72
8
 73
4
 74
0
 40
0
 40
0
 40
0
 40
0
 40
1
 40
1
 40
1
 40
1
 10
-18.661798
 20
221.346574
 30
0.0
 10
-18.661798
 20
219.831269
 30
0.0
 10
-19.890195
 20
218.602874
 30
0.0
 10
-21.405497
 20
218.602874
 30
0.0
  0
SPLINE
  5
121
100
AcDbEntity
  8
Layer_1
 62
7
100
AcDbSpline
 70
8
 71
3
 72
8
 73
4
 74
0
 40
0
 40
0
 40
0
 40
0
 40
1
 40
1
 40
1
 40
1
 10
-21.405497
 20
218.602874
 30
0.0
 10
-22.920802
 20
218.602874
 30
0.0
 10
-24.149197
 20
219.831269
 30
0.0
 10
-24.149197
 20
221.346574
 30
0.0
  0
SPLINE
  5
122
100
AcDbEntity
  8
Layer_1
 62
7
100
AcDbSpline
 70
8
 71
3
 72
8
 73
4
 74
0
 40
0
 40
0
 40
0
 40
0
 40
1
 40
1
 40
1
 40
1
 10
-24.149197
 20
221.346574
 30
0.0
 10
-24.149197
 20
222.861876
 30
0.0
 10
-22.920802
 20
224.090274
 30
0.0
 10
-21.405497
 20
224.090274
 30
0.0
  0
SPLINE
  5
123
100
AcDbEntity
  8
Layer_1
 62
7
100
AcDbSpline
 70
8
 71
3
 72
8
 73
4
 74
0
 40
0
 40
0
 40
0
 40
0
 40
1
 40
1
 40
1
 40
1
 10
-21.405497
 20
224.090274
 30
0.0
 10
-19.890195
 20
224.090274
 30
0.0
 10
-18.661798
 20
222.861876
 30
0.0
 10
-18.661798
 20
221.346574
 30
0.0
  0
LWPOLYLINE
  5
124
100
AcDbEntity
  8
Layer_1
 62
7
100
AcDbPolyline
 90
3
 70
1
 10
17.691883
 20
218.253234
 30
0.0
 10
12.356122
 20
218.253234
 30
0.0
 10
12.356122
 20
218.253234
 30
0.0
  0
SPLINE
  5
125
100
AcDbEntity
  8
Layer_1
 62
7
100
AcDbSpline
 70
8
 71
3
 72
8
 73
4
 74
0
 40
0
 40
0
 40
0
 40
0
 40
1
 40
1
 40
1
 40
1
 10
-24.056551
 20
218.253234
 30
0.0
 10
-24.534235
 20
217.663382
 30
0.0
 10
-24.823843
 20
216.919438
 30
0.0
 10
-24.823843
 20
216.101290
 30
0.0
  0
SPLINE
  5
126
100
AcDbEntity
  8
Layer_1
 62
7
100
AcDbSpline
 70
8
 71
3
 72
8
 73
4
 74
0
 40
0
 40
0
 40
0
 40
0
 40
1
 40
1
 40
1
 40
1
 10
-24.823843
 20
216.101290
 30
0.0
 10
-24.823843
 20
215.283142
 30
0.0
 10
-24.534235
 20
214.530379
 30
0.0
 10
-24.056551
 20
213.940526
 30
0.0
  0
LWPOLYLINE
  5
127
100
AcDbEntity
  8
Layer_1
 62
7
100
AcDbPolyline
 90
2
 70
1
 10
-18.661798
 20
221.346574
 30
0.0
 10
-18.661798
 20
221.346574
 30
0.0
  0
SPLINE
  5
128
100
AcDbEntity
  8
Layer_1
 62
7
100
AcDbSpline
 70
8
 71
3
 72
8
 73
4
 74
0
 40
0
 40
0
 40
0
 40
0
 40
1
 40
1
 40
1
 40
1
 10
-18.720790
 20
213.940526
 30
0.0
 10
-18.243106
 20
214.530379
 30
0.0
 10
-17.953498
 20
215.283142
 30
0.0
 10
-17.953498
 20
216.101290
 30
0.0
  0
SPLINE
  5
129
100
AcDbEntity
  8
Layer_1
 62
7
100
AcDbSpline
 70
8
 71
3
 72
8
 73
4
 74
0
 40
0
 40
0
 40
0
 40
0
 40
1
 40
1
 40
1
 40
1
 10
-17.953498
 20
216.101290
 30
0.0
 10
-17.953498
 20
216.919438
 30
0.0
 10
-18.243106
 20
217.663382
 30
0.0
 10
-18.720790
 20
218.253234
 30
0.0
  0
LWPOLYLINE
  5
12a
100
AcDbEntity
  8
Layer_1
 62
7
100
AcDbPolyline
 90
2
 70
1
 10
-24.056551
 20
213.940526
 30
0.0
 10
-18.720790
 20
213.940526
 30
0.0
  0
SPLINE
  5
12b
100
AcDbEntity
  8
Layer_1
 62
7
100
AcDbSpline
 70
8
 71
3
 72
8
 73
4
 74
0
 40
0
 40
0
 40
0
 40
0
 40
1
 40
1
 40
1
 40
1
 10
3.185806
 20
221.346574
 30
0.0
 10
3.185806
 20
219.831269
 30
0.0
 10
1.957408
 20
218.602874
 30
0.0
 10
0.442106
 20
218.602874
 30
0.0
  0
SPLINE
  5
12c
100
AcDbEntity
  8
Layer_1
 62
7
100
AcDbSpline
 70
8
 71
3
 72
8
 73
4
 74
0
 40
0
 40
0
 40
0
 40
0
 40
1
 40
1
 40
1
 40
1
 10
0.442106
 20
218.602874
 30
0.0
 10
-1.073198
 20
218.602874
 30
0.0
 10
-2.301593
 20
219.831269
 30
0.0
 10
-2.301593
 20
221.346574
 30
0.0
  0
SPLINE
  5
12d
100
AcDbEntity
  8
Layer_1
 62
7
100
AcDbSpline
 70
8
 71
3
 72
8
 73
4
 74
0
 40
0
 40
0
 40
0
 40
0
 40
1
 40
1
 40
1
 40
1
 10
-2.301593
 20
221.346574
 30
0.0
 10
-2.301593
 20
222.861876
 30
0.0
 10
-1.073198
 20
224.090274
 30
0.0
 10
0.442106
 20
224.090274
 30
0.0
  0
SPLINE
  5
12e
100
AcDbEntity
  8
Layer_1
 62
7
100
AcDbSpline
 70
8
 71
3
 72
8
 73
4
 74
0
 40
0
 40
0
 40
0
 40
0
 40
1
 40
1
 40
1
 40
1
 10
0.442106
 20
224.090274
 30
0.0
 10
1.957408
 20
224.090274
 30
0.0
 10
3.185806
 20
222.861876
 30
0.0
 10
3.185806
 20
221.346574
 30
0.0
  0
LWPOLYLINE
  5
12f
100
AcDbEntity
  8
Layer_1
 62
7
100
AcDbPolyline
 90
3
 70
1
 10
-18.720790
 20
218.253234
 30
0.0
 10
-24.056551
 20
218.253234
 30
0.0
 10
-24.056551
 20
218.253234
 30
0.0
  0
SPLINE
  5
130
100
AcDbEntity
  8
Layer_1
 62
7
100
AcDbSpline
 70
8
 71
3
 72
8
 73
4
 74
0
 40
0
 40
0
 40
0
 40
0
 40
1
 40
1
 40
1
 40
1
 10
-2.208947
 20
218.253234
 30
0.0
 10
-2.686631
 20
217.663382
 30
0.0
 10
-2.976239
 20
216.919438
 30
0.0
 10
-2.976239
 20
216.101290
 30
0.0
  0
SPLINE
  5
131
100
AcDbEntity
  8
Layer_1
 62
7
100
AcDbSpline
 70
8
 71
3
 72
8
 73
4
 74
0
 40
0
 40
0
 40
0
 40
0
 40
1
 40
1
 40
1
 40
1
 10
-2.976239
 20
216.101290
 30
0.0
 10
-2.976239
 20
215.283142
 30
0.0
 10
-2.686631
 20
214.530379
 30
0.0
 10
-2.208947
 20
213.940526
 30
0.0
  0
LWPOLYLINE
  5
132
100
AcDbEntity
  8
Layer_1
 62
7
100
AcDbPolyline
 90
2
 70
1
 10
3.185806
 20
221.346574
 30
0.0
 10
3.185806
 20
221.346574
 30
0.0
  0
SPLINE
  5
133
100
AcDbEntity
  8
Layer_1
 62
7
100
AcDbSpline
 70
8
 71
3
 72
8
 73
4
 74
0
 40
0
 40
0
 40
0
 40
0
 40
1
 40
1
 40
1
 40
1
 10
3.126814
 20
213.940526
 30
0.0
 10
3.604497
 20
214.530379
 30
0.0
 10
3.894105
 20
215.283142
 30
0.0
 10
3.894105
 20
216.101290
 30
0.0
  0
SPLINE
  5
134
100
AcDbEntity
  8
Layer_1
 62
7
100
AcDbSpline
 70
8
 71
3
 72
8
 73
4
 74
0
 40
0
 40
0
 40
0
 40
0
 40
1
 40
1
 40
1
 40
1
 10
3.894105
 20
216.101290
 30
0.0
 10
3.894105
 20
216.919438
 30
0.0
 10
3.604497
 20
217.663382
 30
0.0
 10
3.126814
 20
218.253234
 30
0.0
  0
LWPOLYLINE
  5
135
100
AcDbEntity
  8
Layer_1
 62
7
100
AcDbPolyline
 90
2
 70
1
 10
-2.208947
 20
213.940526
 30
0.0
 10
3.126814
 20
213.940526
 30
0.0
  0
SPLINE
  5
136
100
AcDbEntity
  8
Layer_1
 62
7
100
AcDbSpline
 70
8
 71
3
 72
8
 73
4
 74
0
 40
0
 40
0
 40
0
 40
0
 40
1
 40
1
 40
1
 40
1
 10
-4.096729
 20
221.346574
 30
0.0
 10
-4.096729
 20
219.831269
 30
0.0
 10
-5.325126
 20
218.602874
 30
0.0
 10
-6.840428
 20
218.602874
 30
0.0
  0
SPLINE
  5
137
100
AcDbEntity
  8
Layer_1
 62
7
100
AcDbSpline
 70
8
 71
3
 72
8
 73
4
 74
0
 40
0
 40
0
 40
0
 40
0
 40
1
 40
1
 40
1
 40
1
 10
-6.840428
 20
218.602874
 30
0.0
 10
-8.355733
 20
218.602874
 30
0.0
 10
-9.584128
 20
219.831269
 30
0.0
 10
-9.584128
 20
221.346574
 30
0.0
  0
SPLINE
  5
138
100
AcDbEntity
  8
Layer_1
 62
7
100
AcDbSpline
 70
8
 71
3
 72
8
 73
4
 74
0
 40
0
 40
0
 40
0
 40
0
 40
1
 40
1
 40
1
 40
1
 10
-9.584128
 20
221.346574
 30
0.0
 10
-9.584128
 20
222.861876
 30
0.0
 10
-8.355733
 20
224.090274
 30
0.0
 10
-6.840428
 20
224.090274
 30
0.0
  0
SPLINE
  5
139
100
AcDbEntity
  8
Layer_1
 62
7
100
AcDbSpline
 70
8
 71
3
 72
8
 73
4
 74
0
 40
0
 40
0
 40
0
 40
0
 40
1
 40
1
 40
1
 40
1
 10
-6.840428
 20
224.090274
 30
0.0
 10
-5.325126
 20
224.090274
 30
0.0
 10
-4.096729
 20
222.861876
 30
0.0
 10
-4.096729
 20
221.346574
 30
0.0
  0
LWPOLYLINE
  5
13a
100
AcDbEntity
  8
Layer_1
 62
7
100
AcDbPolyline
 90
3
 70
1
 10
3.126814
 20
218.253234
 30
0.0
 10
-2.208947
 20
218.253234
 30
0.0
 10
-2.208947
 20
218.253234
 30
0.0
  0
SPLINE
  5
13b
100
AcDbEntity
  8
Layer_1
 62
7
100
AcDbSpline
 70
8
 71
3
 72
8
 73
4
 74
0
 40
0
 40
0
 40
0
 40
0
 40
1
 40
1
 40
1
 40
1
 10
-9.491482
 20
218.253234
 30
0.0
 10
-9.969166
 20
217.663382
 30
0.0
 10
-10.258774
 20
216.919438
 30
0.0
 10
-10.258774
 20
216.101290
 30
0.0
  0
SPLINE
  5
13c
100
AcDbEntity
  8
Layer_1
 62
7
100
AcDbSpline
 70
8
 71
3
 72
8
 73
4
 74
0
 40
0
 40
0
 40
0
 40
0
 40
1
 40
1
 40
1
 40
1
 10
-10.258774
 20
216.101290
 30
0.0
 10
-10.258774
 20
215.283142
 30
0.0
 10
-9.969166
 20
214.530379
 30
0.0
 10
-9.491482
 20
213.940526
 30
0.0
  0
LWPOLYLINE
  5
13d
100
AcDbEntity
  8
Layer_1
 62
7
100
AcDbPolyline
 90
2
 70
1
 10
-4.096729
 20
221.346574
 30
0.0
 10
-4.096729
 20
221.346574
 30
0.0
  0
SPLINE
  5
13e
100
AcDbEntity
  8
Layer_1
 62
7
100
AcDbSpline
 70
8
 71
3
 72
8
 73
4
 74
0
 40
0
 40
0
 40
0
 40
0
 40
1
 40
1
 40
1
 40
1
 10
-4.155721
 20
213.940526
 30
0.0
 10
-3.678037
 20
214.530379
 30
0.0
 10
-3.388429
 20
215.283142
 30
0.0
 10
-3.388429
 20
216.101290
 30
0.0
  0
SPLINE
  5
13f
100
AcDbEntity
  8
Layer_1
 62
7
100
AcDbSpline
 70
8
 71
3
 72
8
 73
4
 74
0
 40
0
 40
0
 40
0
 40
0
 40
1
 40
1
 40
1
 40
1
 10
-3.388429
 20
216.101290
 30
0.0
 10
-3.388429
 20
216.919438
 30
0.0
 10
-3.678037
 20
217.663382
 30
0.0
 10
-4.155721
 20
218.253234
 30
0.0
  0
LWPOLYLINE
  5
140
100
AcDbEntity
  8
Layer_1
 62
7
100
AcDbPolyline
 90
2
 70
1
 10
-9.491482
 20
213.940526
 30
0.0
 10
-4.155721
 20
213.940526
 30
0.0
  0
SPLINE
  5
141
100
AcDbEntity
  8
Layer_1
 62
7
100
AcDbSpline
 70
8
 71
3
 72
8
 73
4
 74
0
 40
0
 40
0
 40
0
 40
0
 40
1
 40
1
 40
1
 40
1
 10
25.033410
 20
221.346574
 30
0.0
 10
25.033410
 20
219.831269
 30
0.0
 10
23.805012
 20
218.602874
 30
0.0
 10
22.289710
 20
218.602874
 30
0.0
  0
SPLINE
  5
142
100
AcDbEntity
  8
Layer_1
 62
7
100
AcDbSpline
 70
8
 71
3
 72
8
 73
4
 74
0
 40
0
 40
0
 40
0
 40
0
 40
1
 40
1
 40
1
 40
1
 10
22.289710
 20
218.602874
 30
0.0
 10
20.774405
 20
218.602874
 30
0.0
 10
19.546011
 20
219.831269
 30
0.0
 10
19.546011
 20
221.346574
 30
0.0
  0
SPLINE
  5
143
100
AcDbEntity
  8
Layer_1
 62
7
100
AcDbSpline
 70
8
 71
3
 72
8
 73
4
 74
0
 40
0
 40
0
 40
0
 40
0
 40
1
 40
1
 40
1
 40
1
 10
19.546011
 20
221.346574
 30
0.0
 10
19.546011
 20
222.861876
 30
0.0
 10
20.774405
 20
224.090274
 30
0.0
 10
22.289710
 20
224.090274
 30
0.0
  0
SPLINE
  5
144
100
AcDbEntity
  8
Layer_1
 62
7
100
AcDbSpline
 70
8
 71
3
 72
8
 73
4
 74
0
 40
0
 40
0
 40
0
 40
0
 40
1
 40
1
 40
1
 40
1
 10
22.289710
 20
224.090274
 30
0.0
 10
23.805012
 20
224.090274
 30
0.0
 10
25.033410
 20
222.861876
 30
0.0
 10
25.033410
 20
221.346574
 30
0.0
  0
LWPOLYLINE
  5
145
100
AcDbEntity
  8
Layer_1
 62
7
100
AcDbPolyline
 90
3
 70
1
 10
-4.155721
 20
218.253234
 30
0.0
 10
-9.491482
 20
218.253234
 30
0.0
 10
-9.491482
 20
218.253234
 30
0.0
  0
SPLINE
  5
146
100
AcDbEntity
  8
Layer_1
 62
7
100
AcDbSpline
 70
8
 71
3
 72
8
 73
4
 74
0
 40
0
 40
0
 40
0
 40
0
 40
1
 40
1
 40
1
 40
1
 10
19.638656
 20
218.253234
 30
0.0
 10
19.160973
 20
217.663382
 30
0.0
 10
18.871365
 20
216.919438
 30
0.0
 10
18.871365
 20
216.101290
 30
0.0
  0
SPLINE
  5
147
100
AcDbEntity
  8
Layer_1
 62
7
100
AcDbSpline
 70
8
 71
3
 72
8
 73
4
 74
0
 40
0
 40
0
 40
0
 40
0
 40
1
 40
1
 40
1
 40
1
 10
18.871365
 20
216.101290
 30
0.0
 10
18.871365
 20
215.283142
 30
0.0
 10
19.160973
 20
214.530379
 30
0.0
 10
19.638656
 20
213.940526
 30
0.0
  0
LWPOLYLINE
  5
148
100
AcDbEntity
  8
Layer_1
 62
7
100
AcDbPolyline
 90
2
 70
1
 10
25.033410
 20
221.346574
 30
0.0
 10
25.033410
 20
221.346574
 30
0.0
  0
SPLINE
  5
149
100
AcDbEntity
  8
Layer_1
 62
7
100
AcDbSpline
 70
8
 71
3
 72
8
 73
4
 74
0
 40
0
 40
0
 40
0
 40
0
 40
1
 40
1
 40
1
 40
1
 10
24.974417
 20
213.940526
 30
0.0
 10
25.452101
 20
214.530379
 30
0.0
 10
25.741709
 20
215.283142
 30
0.0
 10
25.741709
 20
216.101290
 30
0.0
  0
SPLINE
  5
14a
100
AcDbEntity
  8
Layer_1
 62
7
100
AcDbSpline
 70
8
 71
3
 72
8
 73
4
 74
0
 40
0
 40
0
 40
0
 40
0
 40
1
 40
1
 40
1
 40
1
 10
25.741709
 20
216.101290
 30
0.0
 10
25.741709
 20
216.919438
 30
0.0
 10
25.452101
 20
217.663382
 30
0.0
 10
24.974417
 20
218.253234
 30
0.0
  0
LWPOLYLINE
  5
14b
100
AcDbEntity
  8
Layer_1
 62
7
100
AcDbPolyline
 90
2
 70
1
 10
19.638656
 20
213.940526
 30
0.0
 10
24.974417
 20
213.940526
 30
0.0
  0
SPLINE
  5
14c
100
AcDbEntity
  8
Layer_1
 62
7
100
AcDbSpline
 70
8
 71
3
 72
8
 73
4
 74
0
 40
0
 40
0
 40
0
 40
0
 40
1
 40
1
 40
1
 40
1
 10
32.315945
 20
221.346574
 30
0.0
 10
32.315945
 20
219.831269
 30
0.0
 10
31.087547
 20
218.602874
 30
0.0
 10
29.572245
 20
218.602874
 30
0.0
  0
SPLINE
  5
14d
100
AcDbEntity
  8
Layer_1
 62
7
100
AcDbSpline
 70
8
 71
3
 72
8
 73
4
 74
0
 40
0
 40
0
 40
0
 40
0
 40
1
 40
1
 40
1
 40
1
 10
29.572245
 20
218.602874
 30
0.0
 10
28.056941
 20
218.602874
 30
0.0
 10
26.828546
 20
219.831269
 30
0.0
 10
26.828546
 20
221.346574
 30
0.0
  0
SPLINE
  5
14e
100
AcDbEntity
  8
Layer_1
 62
7
100
AcDbSpline
 70
8
 71
3
 72
8
 73
4
 74
0
 40
0
 40
0
 40
0
 40
0
 40
1
 40
1
 40
1
 40
1
 10
26.828546
 20
221.346574
 30
0.0
 10
26.828546
 20
222.861876
 30
0.0
 10
28.056941
 20
224.090274
 30
0.0
 10
29.572245
 20
224.090274
 30
0.0
  0
SPLINE
  5
14f
100
AcDbEntity
  8
Layer_1
 62
7
100
AcDbSpline
 70
8
 71
3
 72
8
 73
4
 74
0
 40
0
 40
0
 40
0
 40
0
 40
1
 40
1
 40
1
 40
1
 10
29.572245
 20
224.090274
 30
0.0
 10
31.087547
 20
224.090274
 30
0.0
 10
32.315945
 20
222.861876
 30
0.0
 10
32.315945
 20
221.346574
 30
0.0
  0
LWPOLYLINE
  5
150
100
AcDbEntity
  8
Layer_1
 62
7
100
AcDbPolyline
 90
3
 70
1
 10
24.974417
 20
218.253234
 30
0.0
 10
19.638656
 20
218.253234
 30
0.0
 10
19.638656
 20
218.253234
 30
0.0
  0
SPLINE
  5
151
100
AcDbEntity
  8
Layer_1
 62
7
100
AcDbSpline
 70
8
 71
3
 72
8
 73
4
 74
0
 40
0
 40
0
 40
0
 40
0
 40
1
 40
1
 40
1
 40
1
 10
26.921192
 20
218.253234
 30
0.0
 10
26.443508
 20
217.663382
 30
0.0
 10
26.153900
 20
216.919438
 30
0.0
 10
26.153900
 20
216.101290
 30
0.0
  0
SPLINE
  5
152
100
AcDbEntity
  8
Layer_1
 62
7
100
AcDbSpline
 70
8
 71
3
 72
8
 73
4
 74
0
 40
0
 40
0
 40
0
 40
0
 40
1
 40
1
 40
1
 40
1
 10
26.153900
 20
216.101290
 30
0.0
 10
26.153900
 20
215.283142
 30
0.0
 10
26.443508
 20
214.530379
 30
0.0
 10
26.921192
 20
213.940526
 30
0.0
  0
LWPOLYLINE
  5
153
100
AcDbEntity
  8
Layer_1
 62
7
100
AcDbPolyline
 90
2
 70
1
 10
32.315945
 20
221.346574
 30
0.0
 10
32.315945
 20
221.346574
 30
0.0
  0
SPLINE
  5
154
100
AcDbEntity
  8
Layer_1
 62
7
100
AcDbSpline
 70
8
 71
3
 72
8
 73
4
 74
0
 40
0
 40
0
 40
0
 40
0
 40
1
 40
1
 40
1
 40
1
 10
32.256953
 20
213.940526
 30
0.0
 10
32.734636
 20
214.530379
 30
0.0
 10
33.024244
 20
215.283142
 30
0.0
 10
33.024244
 20
216.101290
 30
0.0
  0
SPLINE
  5
155
100
AcDbEntity
  8
Layer_1
 62
7
100
AcDbSpline
 70
8
 71
3
 72
8
 73
4
 74
0
 40
0
 40
0
 40
0
 40
0
 40
1
 40
1
 40
1
 40
1
 10
33.024244
 20
216.101290
 30
0.0
 10
33.024244
 20
216.919438
 30
0.0
 10
32.734636
 20
217.663382
 30
0.0
 10
32.256953
 20
218.253234
 30
0.0
  0
LWPOLYLINE
  5
156
100
AcDbEntity
  8
Layer_1
 62
7
100
AcDbPolyline
 90
2
 70
1
 10
26.921192
 20
213.940526
 30
0.0
 10
32.256953
 20
213.940526
 30
0.0
  0
LWPOLYLINE
  5
157
100
AcDbEntity
  8
Layer_1
 62
7
100
AcDbPolyline
 90
3
 70
1
 10
32.256953
 20
218.253234
 30
0.0
 10
26.921192
 20
218.253234
 30
0.0
 10
26.921192
 20
218.253234
 30
0.0
  0
ENDSEC
  0
SECTION
  2
OBJECTS
  0
DICTIONARY
  5
C
330
0
100
AcDbDictionary
  3
ACAD_GROUP
350
D
  3
ACAD_MLINESTYLE
350
17
  0
DICTIONARY
  5
D
330
C
100
AcDbDictionary
  0
DICTIONARY
  5
1A
330
C
100
AcDbDictionary
  0
DICTIONARY
  5
17
330
C
100
AcDbDictionary
  3
STANDARD
350
18
  0
DICTIONARY
  5
19
330
C
100
AcDbDictionary
  0
ENDSEC
  0
EOF
