<?xml version="1.0" encoding="UTF-8" standalone="no"?>
<!-- Created with Inkscape (http://www.inkscape.org/) -->

<svg
   xmlns:dc="http://purl.org/dc/elements/1.1/"
   xmlns:cc="http://creativecommons.org/ns#"
   xmlns:rdf="http://www.w3.org/1999/02/22-rdf-syntax-ns#"
   xmlns:svg="http://www.w3.org/2000/svg"
   xmlns="http://www.w3.org/2000/svg"
   xmlns:sodipodi="http://sodipodi.sourceforge.net/DTD/sodipodi-0.dtd"
   xmlns:inkscape="http://www.inkscape.org/namespaces/inkscape"
   width="744.09448819"
   height="1052.3622047"
   id="svg9004"
   version="1.1"
   inkscape:version="0.48.4 r9939"
   sodipodi:docname="4 unit.svg">
  <defs
     id="defs9006" />
  <sodipodi:namedview
     id="base"
     pagecolor="#ffffff"
     bordercolor="#666666"
     borderopacity="1.0"
     inkscape:pageopacity="0.0"
     inkscape:pageshadow="2"
     inkscape:zoom="4.2772485"
     inkscape:cx="14.52827"
     inkscape:cy="766.68699"
     inkscape:document-units="px"
     inkscape:current-layer="layer1"
     showgrid="false"
     inkscape:window-width="1280"
     inkscape:window-height="962"
     inkscape:window-x="-8"
     inkscape:window-y="32"
     inkscape:window-maximized="1" />
  <metadata
     id="metadata9009">
    <rdf:RDF>
      <cc:Work
         rdf:about="">
        <dc:format>image/svg+xml</dc:format>
        <dc:type
           rdf:resource="http://purl.org/dc/dcmitype/StillImage" />
        <dc:title></dc:title>
      </cc:Work>
    </rdf:RDF>
  </metadata>
  <g
     inkscape:label="Layer 1"
     inkscape:groupmode="layer"
     id="layer1">
    <g
       id="g9025"
       transform="translate(-24.615185,-2.2951676)">
      <path
         transform="translate(188.97456,68.209458)"
         d="m -127.26683,202.14903 c 0,5.36919 -4.35259,9.72177 -9.72177,9.72177 -5.36919,0 -9.72177,-4.35258 -9.72177,-9.72177 0,-5.36918 4.35258,-9.72177 9.72177,-9.72177 5.36918,0 9.72177,4.35259 9.72177,9.72177 z"
         sodipodi:ry="9.7217722"
         sodipodi:rx="9.7217722"
         sodipodi:cy="202.14903"
         sodipodi:cx="-136.9886"
         id="path5211"
         style="fill:none;stroke:#000000;stroke-width:1;stroke-miterlimit:4;stroke-opacity:1;stroke-dasharray:none"
         sodipodi:type="arc" />
      <path
         inkscape:connector-curvature="0"
         id="path5221"
         d="m 42.592462,281.31914 c -1.69258,2.09003 -2.71875,4.72605 -2.71875,7.625 0,2.89895 1.02617,5.56622 2.71875,7.65625 l 18.90624,0 c 1.69258,-2.09003 2.71875,-4.7573 2.71875,-7.65625 0,-2.89895 -1.02617,-5.53497 -2.71875,-7.625 l -18.90624,0 z"
         style="fill:none;stroke:#000000;stroke-width:1;stroke-miterlimit:4;stroke-opacity:1;stroke-dasharray:none" />
    </g>
    <g
       id="g9029"
       transform="translate(-102.02796,-2.2951676)">
      <path
         sodipodi:type="arc"
         style="fill:none;stroke:#000000;stroke-width:1;stroke-miterlimit:4;stroke-opacity:1;stroke-dasharray:none"
         id="path9031"
         sodipodi:cx="-136.9886"
         sodipodi:cy="202.14903"
         sodipodi:rx="9.7217722"
         sodipodi:ry="9.7217722"
         d="m -127.26683,202.14903 c 0,5.36919 -4.35259,9.72177 -9.72177,9.72177 -5.36919,0 -9.72177,-4.35258 -9.72177,-9.72177 0,-5.36918 4.35258,-9.72177 9.72177,-9.72177 5.36918,0 9.72177,4.35259 9.72177,9.72177 z"
         transform="translate(188.97456,68.209458)" />
      <path
         style="fill:none;stroke:#000000;stroke-width:1;stroke-miterlimit:4;stroke-opacity:1;stroke-dasharray:none"
         d="m 42.592462,281.31914 c -1.69258,2.09003 -2.71875,4.72605 -2.71875,7.625 0,2.89895 1.02617,5.56622 2.71875,7.65625 l 18.90624,0 c 1.69258,-2.09003 2.71875,-4.7573 2.71875,-7.65625 0,-2.89895 -1.02617,-5.53497 -2.71875,-7.625 l -18.90624,0 z"
         id="path9033"
         inkscape:connector-curvature="0" />
    </g>
    <g
       id="g9035"
       transform="translate(1.1890711,-2.2951676)">
      <path
         transform="translate(188.97456,68.209458)"
         d="m -127.26683,202.14903 c 0,5.36919 -4.35259,9.72177 -9.72177,9.72177 -5.36919,0 -9.72177,-4.35258 -9.72177,-9.72177 0,-5.36918 4.35258,-9.72177 9.72177,-9.72177 5.36918,0 9.72177,4.35259 9.72177,9.72177 z"
         sodipodi:ry="9.7217722"
         sodipodi:rx="9.7217722"
         sodipodi:cy="202.14903"
         sodipodi:cx="-136.9886"
         id="path9037"
         style="fill:none;stroke:#000000;stroke-width:1;stroke-miterlimit:4;stroke-opacity:1;stroke-dasharray:none"
         sodipodi:type="arc" />
      <path
         inkscape:connector-curvature="0"
         id="path9039"
         d="m 42.592462,281.31914 c -1.69258,2.09003 -2.71875,4.72605 -2.71875,7.625 0,2.89895 1.02617,5.56622 2.71875,7.65625 l 18.90624,0 c 1.69258,-2.09003 2.71875,-4.7573 2.71875,-7.65625 0,-2.89895 -1.02617,-5.53497 -2.71875,-7.625 l -18.90624,0 z"
         style="fill:none;stroke:#000000;stroke-width:1;stroke-miterlimit:4;stroke-opacity:1;stroke-dasharray:none" />
    </g>
    <g
       id="g9041"
       transform="translate(-127.83221,-2.2951676)">
      <path
         sodipodi:type="arc"
         style="fill:none;stroke:#000000;stroke-width:1;stroke-miterlimit:4;stroke-opacity:1;stroke-dasharray:none"
         id="path9043"
         sodipodi:cx="-136.9886"
         sodipodi:cy="202.14903"
         sodipodi:rx="9.7217722"
         sodipodi:ry="9.7217722"
         d="m -127.26683,202.14903 c 0,5.36919 -4.35259,9.72177 -9.72177,9.72177 -5.36919,0 -9.72177,-4.35258 -9.72177,-9.72177 0,-5.36918 4.35258,-9.72177 9.72177,-9.72177 5.36918,0 9.72177,4.35259 9.72177,9.72177 z"
         transform="translate(188.97456,68.209458)" />
      <path
         style="fill:none;stroke:#000000;stroke-width:1;stroke-miterlimit:4;stroke-opacity:1;stroke-dasharray:none"
         d="m 42.592462,281.31914 c -1.69258,2.09003 -2.71875,4.72605 -2.71875,7.625 0,2.89895 1.02617,5.56622 2.71875,7.65625 l 18.90624,0 c 1.69258,-2.09003 2.71875,-4.7573 2.71875,-7.65625 0,-2.89895 -1.02617,-5.53497 -2.71875,-7.625 l -18.90624,0 z"
         id="path9045"
         inkscape:connector-curvature="0" />
    </g>
    <g
       id="g9047"
       transform="translate(-50.419441,-2.2951676)">
      <path
         transform="translate(188.97456,68.209458)"
         d="m -127.26683,202.14903 c 0,5.36919 -4.35259,9.72177 -9.72177,9.72177 -5.36919,0 -9.72177,-4.35258 -9.72177,-9.72177 0,-5.36918 4.35258,-9.72177 9.72177,-9.72177 5.36918,0 9.72177,4.35259 9.72177,9.72177 z"
         sodipodi:ry="9.7217722"
         sodipodi:rx="9.7217722"
         sodipodi:cy="202.14903"
         sodipodi:cx="-136.9886"
         id="path9049"
         style="fill:none;stroke:#000000;stroke-width:1;stroke-miterlimit:4;stroke-opacity:1;stroke-dasharray:none"
         sodipodi:type="arc" />
      <path
         inkscape:connector-curvature="0"
         id="path9051"
         d="m 42.592462,281.31914 c -1.69258,2.09003 -2.71875,4.72605 -2.71875,7.625 0,2.89895 1.02617,5.56622 2.71875,7.65625 l 18.90624,0 c 1.69258,-2.09003 2.71875,-4.7573 2.71875,-7.65625 0,-2.89895 -1.02617,-5.53497 -2.71875,-7.625 l -18.90624,0 z"
         style="fill:none;stroke:#000000;stroke-width:1;stroke-miterlimit:4;stroke-opacity:1;stroke-dasharray:none" />
    </g>
    <g
       id="g9053"
       transform="translate(-76.223698,-2.2951676)">
      <path
         sodipodi:type="arc"
         style="fill:none;stroke:#000000;stroke-width:1;stroke-miterlimit:4;stroke-opacity:1;stroke-dasharray:none"
         id="path9055"
         sodipodi:cx="-136.9886"
         sodipodi:cy="202.14903"
         sodipodi:rx="9.7217722"
         sodipodi:ry="9.7217722"
         d="m -127.26683,202.14903 c 0,5.36919 -4.35259,9.72177 -9.72177,9.72177 -5.36919,0 -9.72177,-4.35258 -9.72177,-9.72177 0,-5.36918 4.35258,-9.72177 9.72177,-9.72177 5.36918,0 9.72177,4.35259 9.72177,9.72177 z"
         transform="translate(188.97456,68.209458)" />
      <path
         style="fill:none;stroke:#000000;stroke-width:1;stroke-miterlimit:4;stroke-opacity:1;stroke-dasharray:none"
         d="m 42.592462,281.31914 c -1.69258,2.09003 -2.71875,4.72605 -2.71875,7.625 0,2.89895 1.02617,5.56622 2.71875,7.65625 l 18.90624,0 c 1.69258,-2.09003 2.71875,-4.7573 2.71875,-7.65625 0,-2.89895 -1.02617,-5.53497 -2.71875,-7.625 l -18.90624,0 z"
         id="path9057"
         inkscape:connector-curvature="0" />
    </g>
    <g
       id="g9059"
       transform="translate(26.993328,-2.2951676)">
      <path
         transform="translate(188.97456,68.209458)"
         d="m -127.26683,202.14903 c 0,5.36919 -4.35259,9.72177 -9.72177,9.72177 -5.36919,0 -9.72177,-4.35258 -9.72177,-9.72177 0,-5.36918 4.35258,-9.72177 9.72177,-9.72177 5.36918,0 9.72177,4.35259 9.72177,9.72177 z"
         sodipodi:ry="9.7217722"
         sodipodi:rx="9.7217722"
         sodipodi:cy="202.14903"
         sodipodi:cx="-136.9886"
         id="path9061"
         style="fill:none;stroke:#000000;stroke-width:1;stroke-miterlimit:4;stroke-opacity:1;stroke-dasharray:none"
         sodipodi:type="arc" />
      <path
         inkscape:connector-curvature="0"
         id="path9063"
         d="m 42.592462,281.31914 c -1.69258,2.09003 -2.71875,4.72605 -2.71875,7.625 0,2.89895 1.02617,5.56622 2.71875,7.65625 l 18.90624,0 c 1.69258,-2.09003 2.71875,-4.7573 2.71875,-7.65625 0,-2.89895 -1.02617,-5.53497 -2.71875,-7.625 l -18.90624,0 z"
         style="fill:none;stroke:#000000;stroke-width:1;stroke-miterlimit:4;stroke-opacity:1;stroke-dasharray:none" />
    </g>
    <g
       id="g9065"
       transform="translate(52.797587,-2.2951676)">
      <path
         sodipodi:type="arc"
         style="fill:none;stroke:#000000;stroke-width:1;stroke-miterlimit:4;stroke-opacity:1;stroke-dasharray:none"
         id="path9067"
         sodipodi:cx="-136.9886"
         sodipodi:cy="202.14903"
         sodipodi:rx="9.7217722"
         sodipodi:ry="9.7217722"
         d="m -127.26683,202.14903 c 0,5.36919 -4.35259,9.72177 -9.72177,9.72177 -5.36919,0 -9.72177,-4.35258 -9.72177,-9.72177 0,-5.36918 4.35258,-9.72177 9.72177,-9.72177 5.36918,0 9.72177,4.35259 9.72177,9.72177 z"
         transform="translate(188.97456,68.209458)" />
      <path
         style="fill:none;stroke:#000000;stroke-width:1;stroke-miterlimit:4;stroke-opacity:1;stroke-dasharray:none"
         d="m 42.592462,281.31914 c -1.69258,2.09003 -2.71875,4.72605 -2.71875,7.625 0,2.89895 1.02617,5.56622 2.71875,7.65625 l 18.90624,0 c 1.69258,-2.09003 2.71875,-4.7573 2.71875,-7.65625 0,-2.89895 -1.02617,-5.53497 -2.71875,-7.625 l -18.90624,0 z"
         id="path9069"
         inkscape:connector-curvature="0" />
    </g>
  </g>
</svg>
