  0
SECTION
  2
HEADER
  9
$ACADVER
  1
AC1014
  9
$HANDSEED
  5
FFFF
  9
$MEASUREMENT
 70
     1
  0
ENDSEC
  0
SECTION
  2
TABLES
  0
TABLE
  2
VPORT
  5
8
330
0
100
AcDbSymbolTable
 70
     4
  0
VPORT
  5
2E
330
8
100
AcDbSymbolTableRecord
100
AcDbViewportTableRecord
  2
*ACTIVE
 70
     0
 10
0.0
 20
0.0
 11
1.0
 21
1.0
 12
210.0
 22
148.5
 13
0.0
 23
0.0
 14
10.0
 24
10.0
 15
10.0
 25
10.0
 16
0.0
 26
0.0
 36
1.0
 17
0.0
 27
0.0
 37
0.0
 40
341.0
 41
1.24
 42
50.0
 43
0.0
 44
0.0
 50
0.0
 51
0.0
 71
     0
 72
   100
 73
     1
 74
     3
 75
     0
 76
     0
 77
     0
 78
     0
  0
ENDTAB
  0
TABLE
  2
LTYPE
  5
5
330
0
100
AcDbSymbolTable
 70
     1
  0
LTYPE
  5
14
330
5
100
AcDbSymbolTableRecord
100
AcDbLinetypeTableRecord
  2
BYBLOCK
 70
     0
  3

 72
    65
 73
     0
 40
0.0
  0
LTYPE
  5
15
330
5
100
AcDbSymbolTableRecord
100
AcDbLinetypeTableRecord
  2
BYLAYER
 70
     0
  3

 72
    65
 73
     0
 40
0.0
  0
LTYPE
  5
16
330
5
100
AcDbSymbolTableRecord
100
AcDbLinetypeTableRecord
  2
CONTINUOUS
 70
     0
  3
Solid line
 72
    65
 73
     0
 40
0.0
  0
ENDTAB
  0
TABLE
  2
LAYER
  5
2
100
AcDbSymbolTable
 70
7
  0
LAYER
  5
50
100
AcDbSymbolTableRecord
100
AcDbLayerTableRecord
  2
0
 70
0
  6
CONTINUOUS
  0
LAYER
  5
51
100
AcDbSymbolTableRecord
100
AcDbLayerTableRecord
  2
Slice_Layers
 70
0
  6
CONTINUOUS
  0
LAYER
  5
52
100
AcDbSymbolTableRecord
100
AcDbLayerTableRecord
  2
Layer_0,_z:3.5
 70
0
  6
CONTINUOUS
  0
LAYER
  5
53
100
AcDbSymbolTableRecord
100
AcDbLayerTableRecord
  2
Layer_1,_z:2.5
 70
0
  6
CONTINUOUS
  0
LAYER
  5
54
100
AcDbSymbolTableRecord
100
AcDbLayerTableRecord
  2
Layer_2,_z:1.5
 70
0
  6
CONTINUOUS
  0
LAYER
  5
55
100
AcDbSymbolTableRecord
100
AcDbLayerTableRecord
  2
Layer_3,_z:0.5
 70
0
  6
CONTINUOUS
  0
LAYER
  5
56
100
AcDbSymbolTableRecord
100
AcDbLayerTableRecord
  2
Controls
 70
0
  6
CONTINUOUS
  0
ENDTAB
  0
TABLE
  2
STYLE
  5
3
330
0
100
AcDbSymbolTable
 70
     1
  0
STYLE
  5
11
330
3
100
AcDbSymbolTableRecord
100
AcDbTextStyleTableRecord
  2
STANDARD
 70
     0
 40
0.0
 41
1.0
 50
0.0
 71
     0
 42
2.5
  3
txt
  4

  0
ENDTAB
  0
TABLE
  2
VIEW
  5
6
330
0
100
AcDbSymbolTable
 70
     0
  0
ENDTAB
  0
TABLE
  2
UCS
  5
7
330
0
100
AcDbSymbolTable
 70
     0
  0
ENDTAB
  0
TABLE
  2
APPID
  5
9
330
0
100
AcDbSymbolTable
 70
     2
  0
APPID
  5
12
330
9
100
AcDbSymbolTableRecord
100
AcDbRegAppTableRecord
  2
ACAD
 70
     0
  0
ENDTAB
  0
TABLE
  2
DIMSTYLE
  5
A
330
0
100
AcDbSymbolTable
 70
     1
  0
DIMSTYLE
105
27
330
A
100
AcDbSymbolTableRecord
100
AcDbDimStyleTableRecord
  2
ISO-25
 70
     0
  3

  4

  5

  6

  7

 40
1.0
 41
2.5
 42
0.625
 43
3.75
 44
1.25
 45
0.0
 46
0.0
 47
0.0
 48
0.0
140
2.5
141
2.5
142
0.0
143
0.03937007874016
144
1.0
145
0.0
146
1.0
147
0.625
 71
     0
 72
     0
 73
     0
 74
     0
 75
     0
 76
     0
 77
     1
 78
     8
170
     0
171
     3
172
     1
173
     0
174
     0
175
     0
176
     0
177
     0
178
     0
270
     2
271
     2
272
     2
273
     2
274
     3
340
11
275
     0
280
     0
281
     0
282
     0
283
     0
284
     8
285
     0
286
     0
287
     3
288
     0
  0
ENDTAB
  0
TABLE
  2
BLOCK_RECORD
  5
1
330
0
100
AcDbSymbolTable
 70
     1
  0
BLOCK_RECORD
  5
1F
330
1
100
AcDbSymbolTableRecord
100
AcDbBlockTableRecord
  2
*MODEL_SPACE
  0
BLOCK_RECORD
  5
1B
330
1
100
AcDbSymbolTableRecord
100
AcDbBlockTableRecord
  2
*PAPER_SPACE
  0
ENDTAB
  0
ENDSEC
  0
SECTION
  2
BLOCKS
  0
BLOCK
  5
20
330
1F
100
AcDbEntity
  8
0
100
AcDbBlockBegin
  2
*MODEL_SPACE
 70
     0
 10
0.0
 20
0.0
 30
0.0
  3
*MODEL_SPACE
  1

  0
ENDBLK
  5
21
330
1F
100
AcDbEntity
  8
0
100
AcDbBlockEnd
  0
BLOCK
  5
1C
330
1B
100
AcDbEntity
 67
     1
  8
0
100
AcDbBlockBegin
  2
*PAPER_SPACE
  1

  0
ENDBLK
  5
1D
330
1B
100
AcDbEntity
 67
     1
  8
0
100
AcDbBlockEnd
  0
ENDSEC
  0
SECTION
  2
ENTITIES
  0
LWPOLYLINE
  5
100
100
AcDbEntity
  8
Layer_1,_z:2.5
 62
7
100
AcDbPolyline
 90
88
 70
0
 10
87.645730
 20
1079.959881
 30
0.0
 10
85.500897
 20
1080.335801
 30
0.0
 10
79.193795
 20
1082.460793
 30
0.0
 10
75.192335
 20
1084.193158
 30
0.0
 10
70.050585
 20
1085.937009
 30
0.0
 10
66.260059
 20
1087.665197
 30
0.0
 10
56.616666
 20
1094.995637
 30
0.0
 10
48.116699
 20
1100.533147
 30
0.0
 10
43.575376
 20
1102.638299
 30
0.0
 10
41.318812
 20
1103.153101
 30
0.0
 10
39.094619
 20
1102.895178
 30
0.0
 10
34.311037
 20
1097.941388
 30
0.0
 10
33.599922
 20
1095.522969
 30
0.0
 10
33.307539
 20
1093.108727
 30
0.0
 10
33.913188
 20
1092.040488
 30
0.0
 10
35.032594
 20
1091.713646
 30
0.0
 10
36.130072
 20
1091.838953
 30
0.0
 10
36.026694
 20
1088.244740
 30
0.0
 10
36.929946
 20
1086.585471
 30
0.0
 10
38.048308
 20
1086.113483
 30
0.0
 10
39.145786
 20
1086.088365
 30
0.0
 10
40.001004
 20
1085.327127
 30
0.0
 10
40.975263
 20
1081.760064
 30
0.0
 10
41.892090
 20
1079.392812
 30
0.0
 10
42.745220
 20
1078.496869
 30
0.0
 10
43.833299
 20
1078.471752
 30
0.0
 10
45.987530
 20
1079.006393
 30
0.0
 10
47.153926
 20
1076.792642
 30
0.0
 10
48.049869
 20
1074.451496
 30
0.0
 10
49.745686
 20
1072.248187
 30
0.0
 10
56.263719
 20
1070.662014
 30
0.0
 10
58.318749
 20
1069.183395
 30
0.0
 10
59.972797
 20
1067.290220
 30
0.0
 10
63.163940
 20
1061.421691
 30
0.0
 10
64.134022
 20
1059.158862
 30
0.0
 10
61.994411
 20
1059.767643
 30
0.0
 10
59.976973
 20
1060.793069
 30
0.0
 10
54.636821
 20
1066.134266
 30
0.0
 10
50.904771
 20
1065.510865
 30
0.0
 10
48.741144
 20
1066.126956
 30
0.0
 10
47.583101
 20
1068.572525
 30
0.0
 10
46.961789
 20
1070.875035
 30
0.0
 10
45.154240
 20
1072.353654
 30
0.0
 10
40.899035
 20
1074.036940
 30
0.0
 10
33.815031
 20
1080.456818
 30
0.0
 10
30.736664
 20
1084.502135
 30
0.0
 10
28.640910
 20
1085.290523
 30
0.0
 10
26.457442
 20
1085.192366
 30
0.0
 10
23.994121
 20
1083.693907
 30
0.0
 10
23.994121
 20
1077.964260
 30
0.0
 10
24.927656
 20
1076.720591
 30
0.0
 10
26.840671
 20
1071.910903
 30
0.0
 10
29.773891
 20
1067.698511
 30
0.0
 10
36.775401
 20
1061.606518
 30
0.0
 10
40.131532
 20
1058.037367
 30
0.0
 10
47.151838
 20
1047.571128
 30
0.0
 10
48.782913
 20
1045.908726
 30
0.0
 10
65.699311
 20
1043.229252
 30
0.0
 10
67.799242
 20
1042.241417
 30
0.0
 10
69.639162
 20
1040.726251
 30
0.0
 10
73.684479
 20
1038.499969
 30
0.0
 10
77.838395
 20
1038.006052
 30
0.0
 10
78.618429
 20
1039.985897
 30
0.0
 10
78.880528
 20
1042.121332
 30
0.0
 10
80.464613
 20
1048.575669
 30
0.0
 10
82.051831
 20
1050.588930
 30
0.0
 10
83.635916
 20
1050.962761
 30
0.0
 10
85.493588
 20
1052.294145
 30
0.0
 10
93.894355
 20
1056.526377
 30
0.0
 10
94.468678
 20
1058.742217
 30
0.0
 10
94.378875
 20
1060.986250
 30
0.0
 10
95.262287
 20
1061.585634
 30
0.0
 10
97.547045
 20
1064.235870
 30
0.0
 10
98.972408
 20
1066.405764
 30
0.0
 10
99.915341
 20
1068.561038
 30
0.0
 10
100.118964
 20
1069.874670
 30
0.0
 10
99.872528
 20
1070.987811
 30
0.0
 10
99.001646
 20
1071.841985
 30
0.0
 10
97.838383
 20
1072.371405
 30
0.0
 10
95.550492
 20
1072.871588
 30
0.0
 10
93.252159
 20
1073.036575
 30
0.0
 10
92.580724
 20
1073.220358
 30
0.0
 10
92.022065
 20
1073.682948
 30
0.0
 10
91.578271
 20
1074.823239
 30
0.0
 10
91.079132
 20
1077.172739
 30
0.0
 10
90.570596
 20
1078.394479
 30
0.0
 10
89.545170
 20
1079.170336
 30
0.0
 10
87.645730
 20
1079.959881
 30
0.0
  0
LWPOLYLINE
  5
101
100
AcDbEntity
  8
Layer_1,_z:2.5
 62
7
100
AcDbPolyline
 90
160
 70
0
 10
187.645672
 20
950.168280
 30
0.0
 10
186.031305
 20
950.057592
 30
0.0
 10
185.378666
 20
948.890152
 30
0.0
 10
184.192429
 20
947.590095
 30
0.0
 10
183.087642
 20
949.089598
 30
0.0
 10
182.241822
 20
950.884616
 30
0.0
 10
180.744408
 20
951.513238
 30
0.0
 10
180.204545
 20
951.525656
 30
0.0
 10
178.433544
 20
946.987466
 30
0.0
 10
174.577231
 20
932.918660
 30
0.0
 10
172.275765
 20
926.907073
 30
0.0
 10
170.155994
 20
924.026064
 30
0.0
 10
167.507847
 20
921.729819
 30
0.0
 10
167.184138
 20
920.082036
 30
0.0
 10
167.206066
 20
919.530687
 30
0.0
 10
168.256554
 20
919.232040
 30
0.0
 10
171.367292
 20
919.297826
 30
0.0
 10
172.767594
 20
920.091434
 30
0.0
 10
174.319308
 20
920.331606
 30
0.0
 10
176.927775
 20
919.996410
 30
0.0
 10
177.041596
 20
920.544627
 30
0.0
 10
176.915245
 20
920.409922
 30
0.0
 10
176.183245
 20
923.192774
 30
0.0
 10
176.396266
 20
924.857265
 30
0.0
 10
177.268192
 20
926.372431
 30
0.0
 10
179.562348
 20
928.845149
 30
0.0
 10
180.990844
 20
929.516584
 30
0.0
 10
181.631996
 20
924.458372
 30
0.0
 10
182.750358
 20
921.103286
 30
0.0
 10
186.585787
 20
917.440154
 30
0.0
 10
187.131915
 20
915.787150
 30
0.0
 10
187.305256
 20
913.064863
 30
0.0
 10
189.023001
 20
910.055415
 30
0.0
 10
191.618938
 20
907.581652
 30
0.0
 10
194.451913
 20
905.516181
 30
0.0
 10
198.422046
 20
901.717300
 30
0.0
 10
198.679968
 20
900.132171
 30
0.0
 10
198.432488
 20
898.041638
 30
0.0
 10
199.319032
 20
897.499687
 30
0.0
 10
201.343779
 20
897.452697
 30
0.0
 10
202.228236
 20
897.041273
 30
0.0
 10
200.331928
 20
895.134523
 30
0.0
 10
200.331928
 20
894.616589
 30
0.0
 10
200.709936
 20
893.701850
 30
0.0
 10
202.093531
 20
893.024150
 30
0.0
 10
214.482183
 20
888.887986
 30
0.0
 10
226.083492
 20
883.417306
 30
0.0
 10
228.756701
 20
881.594094
 30
0.0
 10
229.450065
 20
880.200057
 30
0.0
 10
230.147605
 20
875.705725
 30
0.0
 10
231.611605
 20
875.301611
 30
0.0
 10
233.094400
 20
875.390370
 30
0.0
 10
235.170314
 20
869.455010
 30
0.0
 10
235.661098
 20
864.123212
 30
0.0
 10
235.408397
 20
861.257866
 30
0.0
 10
234.074925
 20
858.439510
 30
0.0
 10
233.710491
 20
855.619074
 30
0.0
 10
231.688877
 20
853.206921
 30
0.0
 10
224.593387
 20
852.205512
 30
0.0
 10
223.605553
 20
851.182174
 30
0.0
 10
223.352851
 20
850.724805
 30
0.0
 10
222.396344
 20
850.630825
 30
0.0
 10
218.075352
 20
849.458163
 30
0.0
 10
217.100048
 20
848.443179
 30
0.0
 10
216.595689
 20
847.076292
 30
0.0
 10
216.064180
 20
844.345651
 30
0.0
 10
216.035986
 20
842.982941
 30
0.0
 10
216.834816
 20
841.719432
 30
0.0
 10
218.106679
 20
840.674166
 30
0.0
 10
218.491997
 20
842.020168
 30
0.0
 10
219.742975
 20
844.831215
 30
0.0
 10
221.560966
 20
846.389194
 30
0.0
 10
224.421090
 20
846.781822
 30
0.0
 10
227.246756
 20
846.143802
 30
0.0
 10
228.681517
 20
846.454980
 30
0.0
 10
230.130898
 20
847.109708
 30
0.0
 10
231.521802
 20
846.275374
 30
0.0
 10
234.372528
 20
846.324452
 30
0.0
 10
237.069754
 20
848.100674
 30
0.0
 10
237.613794
 20
849.471738
 30
0.0
 10
239.178039
 20
852.103178
 30
0.0
 10
240.016549
 20
854.419263
 30
0.0
 10
241.720720
 20
857.082030
 30
0.0
 10
242.159293
 20
858.490677
 30
0.0
 10
241.633005
 20
859.925438
 30
0.0
 10
240.729753
 20
861.135692
 30
0.0
 10
240.441548
 20
862.575674
 30
0.0
 10
240.823733
 20
862.925489
 30
0.0
 10
241.792771
 20
862.903476
 30
0.0
 10
242.818198
 20
861.684868
 30
0.0
 10
243.799766
 20
859.757234
 30
0.0
 10
244.771937
 20
859.853302
 30
0.0
 10
244.937969
 20
862.711339
 30
0.0
 10
244.656029
 20
864.157586
 30
0.0
 10
243.759042
 20
865.501500
 30
0.0
 10
240.375762
 20
868.362669
 30
0.0
 10
239.179083
 20
871.315730
 30
0.0
 10
239.325274
 20
874.260436
 30
0.0
 10
240.015505
 20
875.726524
 30
0.0
 10
241.572440
 20
877.179038
 30
0.0
 10
239.090324
 20
876.987945
 30
0.0
 10
237.904088
 20
878.009194
 30
0.0
 10
236.050593
 20
880.799356
 30
0.0
 10
233.676032
 20
883.369187
 30
0.0
 10
228.701357
 20
887.031274
 30
0.0
 10
222.785838
 20
890.105464
 30
0.0
 10
216.591512
 20
894.114234
 30
0.0
 10
213.982001
 20
896.381240
 30
0.0
 10
211.869539
 20
899.041918
 30
0.0
 10
210.378390
 20
901.574157
 30
0.0
 10
207.463966
 20
902.961928
 30
0.0
 10
206.839521
 20
904.566898
 30
0.0
 10
205.698186
 20
905.790726
 30
0.0
 10
201.095254
 20
905.363640
 30
0.0
 10
199.561292
 20
906.064313
 30
0.0
 10
196.992505
 20
908.663382
 30
0.0
 10
195.691404
 20
911.924488
 30
0.0
 10
195.688272
 20
912.466439
 30
0.0
 10
195.555656
 20
913.010479
 30
0.0
 10
196.070457
 20
913.134741
 30
0.0
 10
197.748522
 20
912.824607
 30
0.0
 10
203.540823
 20
910.261042
 30
0.0
 10
209.547189
 20
906.902823
 30
0.0
 10
214.129236
 20
905.197608
 30
0.0
 10
214.647170
 20
905.585015
 30
0.0
 10
214.675364
 20
907.186852
 30
0.0
 10
213.789864
 20
907.876038
 30
0.0
 10
212.130595
 20
908.450360
 30
0.0
 10
209.197375
 20
910.130514
 30
0.0
 10
203.942848
 20
914.175831
 30
0.0
 10
197.730770
 20
918.007082
 30
0.0
 10
194.600192
 20
920.279310
 30
0.0
 10
192.101368
 20
922.966094
 30
0.0
 10
190.642590
 20
924.948027
 30
0.0
 10
190.498487
 20
926.068478
 30
0.0
 10
194.683730
 20
926.952934
 30
0.0
 10
195.461676
 20
928.339661
 30
0.0
 10
194.911370
 20
932.025766
 30
0.0
 10
194.437294
 20
933.445908
 30
0.0
 10
195.848038
 20
933.962798
 30
0.0
 10
198.056568
 20
932.558319
 30
0.0
 10
203.598255
 20
932.914399
 30
0.0
 10
205.831846
 20
933.733069
 30
0.0
 10
212.511736
 20
937.186312
 30
0.0
 10
212.629733
 20
937.969478
 30
0.0
 10
211.295217
 20
940.072542
 30
0.0
 10
208.568753
 20
943.220872
 30
0.0
 10
207.497381
 20
945.655998
 30
0.0
 10
207.070294
 20
947.690143
 30
0.0
 10
206.527298
 20
948.822080
 30
0.0
 10
205.774414
 20
949.145789
 30
0.0
 10
204.188241
 20
950.716299
 30
0.0
 10
202.239722
 20
954.165365
 30
0.0
 10
201.656002
 20
953.453206
 30
0.0
 10
199.827569
 20
952.255483
 30
0.0
 10
197.820574
 20
951.580915
 30
0.0
 10
193.535086
 20
950.858313
 30
0.0
 10
189.730984
 20
950.842791
 30
0.0
 10
189.273615
 20
949.391322
 30
0.0
 10
187.645672
 20
950.168280
 30
0.0
  0
LWPOLYLINE
  5
102
100
AcDbEntity
  8
Layer_1,_z:2.5
 62
7
100
AcDbPolyline
 90
107
 70
0
 10
162.766034
 20
933.091070
 30
0.0
 10
159.735701
 20
927.309211
 30
0.0
 10
155.022082
 20
921.963838
 30
0.0
 10
149.728919
 20
918.482401
 30
0.0
 10
143.534593
 20
915.695372
 30
0.0
 10
142.156220
 20
914.268964
 30
0.0
 10
141.709292
 20
912.987704
 30
0.0
 10
141.290559
 20
909.781941
 30
0.0
 10
140.566913
 20
906.604373
 30
0.0
 10
139.656352
 20
905.829560
 30
0.0
 10
139.041305
 20
905.843107
 30
0.0
 10
135.949363
 20
906.868533
 30
0.0
 10
134.728667
 20
906.419518
 30
0.0
 10
134.291138
 20
905.316819
 30
0.0
 10
136.287691
 20
897.398482
 30
0.0
 10
136.804581
 20
894.274169
 30
0.0
 10
136.854703
 20
891.641685
 30
0.0
 10
136.222949
 20
885.371130
 30
0.0
 10
134.302624
 20
876.960964
 30
0.0
 10
132.882482
 20
874.011037
 30
0.0
 10
128.321319
 20
867.326970
 30
0.0
 10
127.158056
 20
866.767267
 30
0.0
 10
126.029252
 20
865.186315
 30
0.0
 10
126.009411
 20
861.121158
 30
0.0
 10
125.679437
 20
859.974602
 30
0.0
 10
122.013173
 20
857.443407
 30
0.0
 10
117.353853
 20
852.331948
 30
0.0
 10
116.488193
 20
850.762482
 30
0.0
 10
113.660439
 20
849.275509
 30
0.0
 10
110.656212
 20
848.640622
 30
0.0
 10
102.369263
 20
849.675446
 30
0.0
 10
99.492431
 20
849.460336
 30
0.0
 10
96.582183
 20
849.808062
 30
0.0
 10
93.716838
 20
849.451983
 30
0.0
 10
92.183919
 20
848.643755
 30
0.0
 10
91.395532
 20
847.538968
 30
0.0
 10
89.998362
 20
844.915881
 30
0.0
 10
87.922449
 20
839.975666
 30
0.0
 10
88.274351
 20
838.095022
 30
0.0
 10
88.830922
 20
839.266639
 30
0.0
 10
91.783982
 20
841.958644
 30
0.0
 10
92.147372
 20
842.920373
 30
0.0
 10
92.108735
 20
843.476943
 30
0.0
 10
92.357260
 20
844.027248
 30
0.0
 10
92.932627
 20
844.013673
 30
0.0
 10
95.331205
 20
844.654826
 30
0.0
 10
101.220619
 20
844.659003
 30
0.0
 10
106.603584
 20
843.421599
 30
0.0
 10
112.528502
 20
842.591443
 30
0.0
 10
115.214242
 20
843.503049
 30
0.0
 10
117.870743
 20
845.253165
 30
0.0
 10
122.340014
 20
849.077107
 30
0.0
 10
122.863170
 20
850.616290
 30
0.0
 10
122.823489
 20
851.749272
 30
0.0
 10
123.369618
 20
852.728752
 30
0.0
 10
124.522439
 20
852.986675
 30
0.0
 10
127.470278
 20
851.500747
 30
0.0
 10
128.905040
 20
846.958380
 30
0.0
 10
130.064126
 20
846.792349
 30
0.0
 10
131.211726
 20
847.046095
 30
0.0
 10
130.093364
 20
851.016228
 30
0.0
 10
130.016092
 20
853.856512
 30
0.0
 10
130.521496
 20
856.699929
 30
0.0
 10
130.491213
 20
857.848565
 30
0.0
 10
131.345387
 20
858.691252
 30
0.0
 10
132.932605
 20
859.518276
 30
0.0
 10
135.264353
 20
859.897329
 30
0.0
 10
135.399058
 20
860.471651
 30
0.0
 10
134.790276
 20
861.498122
 30
0.0
 10
134.605449
 20
863.243017
 30
0.0
 10
143.678696
 20
890.714415
 30
0.0
 10
144.398165
 20
893.944195
 30
0.0
 10
144.516162
 20
897.053888
 30
0.0
 10
145.107192
 20
898.761192
 30
0.0
 10
146.013576
 20
899.681152
 30
0.0
 10
150.282357
 20
901.155593
 30
0.0
 10
150.739726
 20
901.618184
 30
0.0
 10
150.126768
 20
901.789436
 30
0.0
 10
148.738996
 20
903.242994
 30
0.0
 10
149.192189
 20
904.340471
 30
0.0
 10
150.258340
 20
905.903672
 30
0.0
 10
148.846551
 20
910.410535
 30
0.0
 10
150.841016
 20
913.424160
 30
0.0
 10
163.640048
 20
924.403113
 30
0.0
 10
167.624800
 20
929.627356
 30
0.0
 10
171.514527
 20
936.264433
 30
0.0
 10
177.587724
 20
952.643058
 30
0.0
 10
176.803513
 20
953.712342
 30
0.0
 10
174.867525
 20
953.756199
 30
0.0
 10
171.645055
 20
954.181198
 30
0.0
 10
168.601147
 20
956.007542
 30
0.0
 10
162.794228
 20
958.080324
 30
0.0
 10
159.555050
 20
958.330937
 30
0.0
 10
157.609664
 20
958.022891
 30
0.0
 10
156.959114
 20
956.626766
 30
0.0
 10
153.089226
 20
950.414688
 30
0.0
 10
151.654465
 20
946.980241
 30
0.0
 10
150.708400
 20
943.558325
 30
0.0
 10
150.404531
 20
940.145807
 30
0.0
 10
152.243406
 20
938.926155
 30
0.0
 10
155.178715
 20
941.400962
 30
0.0
 10
161.260265
 20
945.552790
 30
0.0
 10
162.037166
 20
944.742473
 30
0.0
 10
162.887163
 20
944.339403
 30
0.0
 10
163.611854
 20
943.428842
 30
0.0
 10
165.003802
 20
941.041750
 30
0.0
 10
162.766034
 20
933.091070
 30
0.0
  0
LWPOLYLINE
  5
103
100
AcDbEntity
  8
Layer_1,_z:2.5
 62
7
100
AcDbPolyline
 90
152
 70
0
 10
98.147473
 20
1001.218216
 30
0.0
 10
96.752392
 20
1000.475774
 30
0.0
 10
87.941245
 20
1000.549914
 30
0.0
 10
78.771929
 20
999.217486
 30
0.0
 10
76.659468
 20
997.601030
 30
0.0
 10
76.298167
 20
996.589179
 30
0.0
 10
76.578018
 20
994.548769
 30
0.0
 10
77.235878
 20
992.006088
 30
0.0
 10
78.111981
 20
991.608239
 30
0.0
 10
80.096003
 20
992.193003
 30
0.0
 10
80.955398
 20
993.561979
 30
0.0
 10
81.071307
 20
994.572786
 30
0.0
 10
80.962707
 20
992.677522
 30
0.0
 10
80.104357
 20
991.311680
 30
0.0
 10
79.497664
 20
989.943749
 30
0.0
 10
78.013824
 20
989.476981
 30
0.0
 10
76.523719
 20
989.636747
 30
0.0
 10
75.022127
 20
990.423047
 30
0.0
 10
72.996336
 20
992.481209
 30
0.0
 10
71.320359
 20
995.303741
 30
0.0
 10
67.850409
 20
999.211221
 30
0.0
 10
66.328977
 20
999.759438
 30
0.0
 10
63.675609
 20
1000.333760
 30
0.0
 10
60.661983
 20
1000.275283
 30
0.0
 10
59.171878
 20
999.794941
 30
0.0
 10
58.446144
 20
999.043101
 30
0.0
 10
58.021145
 20
997.007912
 30
0.0
 10
58.059781
 20
995.988751
 30
0.0
 10
61.150679
 20
996.936905
 30
0.0
 10
64.295877
 20
996.355273
 30
0.0
 10
65.436167
 20
995.819587
 30
0.0
 10
63.435437
 20
995.865533
 30
0.0
 10
61.959951
 20
995.137710
 30
0.0
 10
60.879181
 20
993.896130
 30
0.0
 10
60.183729
 20
992.397671
 30
0.0
 10
60.467758
 20
991.384775
 30
0.0
 10
62.753560
 20
993.726966
 30
0.0
 10
64.371061
 20
993.815725
 30
0.0
 10
67.507904
 20
992.985568
 30
0.0
 10
69.027247
 20
991.942390
 30
0.0
 10
73.095537
 20
987.219373
 30
0.0
 10
76.066349
 20
987.026192
 30
0.0
 10
79.028808
 20
987.456411
 30
0.0
 10
80.994034
 20
989.158494
 30
0.0
 10
85.067545
 20
994.480894
 30
0.0
 10
88.065507
 20
995.936540
 30
0.0
 10
90.570596
 20
996.644523
 30
0.0
 10
96.218794
 20
997.663684
 30
0.0
 10
98.728060
 20
997.606251
 30
0.0
 10
99.098759
 20
997.214668
 30
0.0
 10
97.192009
 20
995.091764
 30
0.0
 10
91.669118
 20
990.794790
 30
0.0
 10
86.079396
 20
988.791972
 30
0.0
 10
83.113805
 20
987.238169
 30
0.0
 10
79.164557
 20
986.333872
 30
0.0
 10
79.417259
 20
985.831602
 30
0.0
 10
80.416579
 20
984.570181
 30
0.0
 10
82.881988
 20
984.638056
 30
0.0
 10
88.804816
 20
986.983379
 30
0.0
 10
94.276541
 20
990.231954
 30
0.0
 10
114.748519
 20
999.934867
 30
0.0
 10
115.655948
 20
1000.687751
 30
0.0
 10
115.674744
 20
1001.203597
 30
0.0
 10
114.880091
 20
1003.814152
 30
0.0
 10
114.859206
 20
1006.947863
 30
0.0
 10
113.885991
 20
1008.283424
 30
0.0
 10
112.502397
 20
1008.841038
 30
0.0
 10
110.979921
 20
1009.008114
 30
0.0
 10
110.103818
 20
1009.555286
 30
0.0
 10
109.989998
 20
1010.085751
 30
0.0
 10
110.106951
 20
1014.331559
 30
0.0
 10
108.982324
 20
1015.425904
 30
0.0
 10
108.472743
 20
1015.572095
 30
0.0
 10
108.194980
 20
1019.883688
 30
0.0
 10
107.573668
 20
1020.846461
 30
0.0
 10
106.024041
 20
1020.881965
 30
0.0
 10
105.263847
 20
1021.577417
 30
0.0
 10
105.145850
 20
1022.124589
 30
0.0
 10
105.565627
 20
1023.613650
 30
0.0
 10
106.630734
 20
1024.818682
 30
0.0
 10
106.513781
 20
1025.370032
 30
0.0
 10
104.964155
 20
1025.816959
 30
0.0
 10
104.845114
 20
1026.368308
 30
0.0
 10
105.400640
 20
1028.007737
 30
0.0
 10
105.175088
 20
1029.672227
 30
0.0
 10
104.127733
 20
1029.557363
 30
0.0
 10
97.700545
 20
1026.944719
 30
0.0
 10
94.442572
 20
1026.194967
 30
0.0
 10
92.609962
 20
1023.910209
 30
0.0
 10
91.696268
 20
1022.432635
 30
0.0
 10
90.142465
 20
1021.925143
 30
0.0
 10
91.692091
 20
1021.618141
 30
0.0
 10
92.074276
 20
1020.659545
 30
0.0
 10
89.992097
 20
1014.259507
 30
0.0
 10
88.583441
 20
1013.226772
 30
0.0
 10
83.986775
 20
1012.005032
 30
0.0
 10
80.936602
 20
1010.488821
 30
0.0
 10
78.386611
 20
1010.678869
 30
0.0
 10
75.555725
 20
1012.596061
 30
0.0
 10
73.341974
 20
1015.041630
 30
0.0
 10
72.001192
 20
1018.152368
 30
0.0
 10
71.946893
 20
1020.986387
 30
0.0
 10
73.250082
 20
1027.505466
 30
0.0
 10
72.571338
 20
1029.037340
 30
0.0
 10
71.502054
 20
1030.444952
 30
0.0
 10
69.927367
 20
1030.896056
 30
0.0
 10
68.882101
 20
1030.920045
 30
0.0
 10
65.774495
 20
1030.022014
 30
0.0
 10
67.863984
 20
1029.836142
 30
0.0
 10
69.444936
 20
1029.109363
 30
0.0
 10
70.776320
 20
1027.700708
 30
0.0
 10
71.197141
 20
1026.180320
 30
0.0
 10
70.948616
 20
1025.637324
 30
0.0
 10
68.860172
 20
1026.233575
 30
0.0
 10
64.189366
 20
1026.203293
 30
0.0
 10
62.652271
 20
1025.553787
 30
0.0
 10
62.410011
 20
1025.012880
 30
0.0
 10
62.785931
 20
1025.413861
 30
0.0
 10
66.032418
 20
1025.202928
 30
0.0
 10
67.598751
 20
1024.757045
 30
0.0
 10
68.796474
 20
1023.366141
 30
0.0
 10
68.343282
 20
1020.662650
 30
0.0
 10
67.393040
 20
1017.452711
 30
0.0
 10
68.099978
 20
1014.761750
 30
0.0
 10
70.336702
 20
1011.921466
 30
0.0
 10
72.183931
 20
1008.714659
 30
0.0
 10
73.637489
 20
1005.541268
 30
0.0
 10
75.317642
 20
1003.294102
 30
0.0
 10
76.596814
 20
1002.099511
 30
0.0
 10
78.110937
 20
1001.935568
 30
0.0
 10
81.259267
 20
1002.122484
 30
0.0
 10
82.768168
 20
1002.863882
 30
0.0
 10
83.770621
 20
1004.137833
 30
0.0
 10
85.153171
 20
1006.582357
 30
0.0
 10
87.307402
 20
1009.419509
 30
0.0
 10
90.112183
 20
1011.334613
 30
0.0
 10
91.645101
 20
1011.696958
 30
0.0
 10
93.175931
 20
1011.529882
 30
0.0
 10
95.719656
 20
1010.677797
 30
0.0
 10
95.581819
 20
1009.625221
 30
0.0
 10
95.196501
 20
1009.238859
 30
0.0
 10
93.790977
 20
1008.481798
 30
0.0
 10
91.116724
 20
1007.492919
 30
0.0
 10
88.322386
 20
1005.465040
 30
0.0
 10
87.815938
 20
1003.915414
 30
0.0
 10
88.068640
 20
1002.872236
 30
0.0
 10
92.625625
 20
1004.975299
 30
0.0
 10
94.147057
 20
1005.331379
 30
0.0
 10
97.181567
 20
1004.870877
 30
0.0
 10
98.179843
 20
1003.677331
 30
0.0
 10
98.530702
 20
1001.596196
 30
0.0
 10
98.147473
 20
1001.218216
 30
0.0
  0
LWPOLYLINE
  5
104
100
AcDbEntity
  8
Layer_1,_z:2.5
 62
7
100
AcDbPolyline
 90
65
 70
0
 10
127.378387
 20
984.431300
 30
0.0
 10
130.522540
 20
986.556292
 30
0.0
 10
130.563264
 20
988.114271
 30
0.0
 10
130.452577
 20
988.637427
 30
0.0
 10
129.956571
 20
988.648998
 30
0.0
 10
129.462654
 20
988.789968
 30
0.0
 10
127.967328
 20
988.564416
 30
0.0
 10
125.090496
 20
987.459629
 30
0.0
 10
124.101617
 20
987.612085
 30
0.0
 10
123.862490
 20
988.137329
 30
0.0
 10
124.138165
 20
989.695308
 30
0.0
 10
125.158370
 20
990.980746
 30
0.0
 10
125.684658
 20
992.412375
 30
0.0
 10
125.455974
 20
993.471216
 30
0.0
 10
124.956835
 20
993.482787
 30
0.0
 10
123.451067
 20
993.122530
 30
0.0
 10
121.955741
 20
993.288562
 30
0.0
 10
120.590942
 20
993.978793
 30
0.0
 10
120.612871
 20
995.566010
 30
0.0
 10
122.264830
 20
997.121902
 30
0.0
 10
123.786262
 20
998.018888
 30
0.0
 10
124.170536
 20
998.410472
 30
0.0
 10
123.928276
 20
998.951379
 30
0.0
 10
121.918149
 20
999.130985
 30
0.0
 10
119.416192
 20
1000.259789
 30
0.0
 10
118.910789
 20
1000.137615
 30
0.0
 10
106.848976
 20
994.162576
 30
0.0
 10
105.481045
 20
993.139238
 30
0.0
 10
105.365137
 20
991.565595
 30
0.0
 10
105.619927
 20
990.511975
 30
0.0
 10
106.245416
 20
989.714189
 30
0.0
 10
107.614393
 20
988.770212
 30
0.0
 10
108.609536
 20
987.188216
 30
0.0
 10
108.612669
 20
985.635457
 30
0.0
 10
107.875448
 20
984.105672
 30
0.0
 10
106.769615
 20
982.974779
 30
0.0
 10
103.824909
 20
981.633998
 30
0.0
 10
91.735948
 20
978.476270
 30
0.0
 10
83.828053
 20
977.267060
 30
0.0
 10
83.144088
 20
975.895996
 30
0.0
 10
83.774798
 20
975.253800
 30
0.0
 10
85.744201
 20
974.581321
 30
0.0
 10
88.797507
 20
974.135438
 30
0.0
 10
94.755839
 20
974.249258
 30
0.0
 10
104.220669
 20
978.062758
 30
0.0
 10
109.849028
 20
980.985536
 30
0.0
 10
112.796868
 20
981.045056
 30
0.0
 10
113.779481
 20
980.767293
 30
0.0
 10
113.769038
 20
978.732104
 30
0.0
 10
112.655898
 20
975.722656
 30
0.0
 10
110.701114
 20
972.882371
 30
0.0
 10
107.911996
 20
970.330292
 30
0.0
 10
99.012089
 20
965.968576
 30
0.0
 10
87.543396
 20
963.055196
 30
0.0
 10
86.719505
 20
962.587384
 30
0.0
 10
86.987870
 20
961.611036
 30
0.0
 10
88.209610
 20
960.734934
 30
0.0
 10
91.076000
 20
960.790278
 30
0.0
 10
99.908031
 20
961.921170
 30
0.0
 10
102.770244
 20
963.193033
 30
0.0
 10
105.519681
 20
964.960901
 30
0.0
 10
117.665032
 20
976.238501
 30
0.0
 10
125.844424
 20
981.897142
 30
0.0
 10
127.100624
 20
983.021769
 30
0.0
 10
127.378387
 20
984.431300
 30
0.0
  0
LWPOLYLINE
  5
105
100
AcDbEntity
  8
Layer_1,_z:2.5
 62
7
100
AcDbPolyline
 90
73
 70
0
 10
102.892418
 20
950.258083
 30
0.0
 10
102.783819
 20
949.320372
 30
0.0
 10
103.497023
 20
948.599858
 30
0.0
 10
105.380800
 20
948.440092
 30
0.0
 10
106.791544
 20
948.758580
 30
0.0
 10
113.044348
 20
951.558140
 30
0.0
 10
116.137334
 20
953.858561
 30
0.0
 10
118.178789
 20
956.197619
 30
0.0
 10
122.198000
 20
961.894896
 30
0.0
 10
124.772008
 20
964.764418
 30
0.0
 10
125.622005
 20
965.112144
 30
0.0
 10
126.101303
 20
964.978484
 30
0.0
 10
127.160144
 20
963.852812
 30
0.0
 10
126.996201
 20
961.906382
 30
0.0
 10
126.247494
 20
960.588574
 30
0.0
 10
119.568649
 20
953.186082
 30
0.0
 10
114.444650
 20
948.583151
 30
0.0
 10
114.792376
 20
947.755082
 30
0.0
 10
117.145009
 20
947.701827
 30
0.0
 10
119.989470
 20
949.277558
 30
0.0
 10
126.898044
 20
957.557196
 30
0.0
 10
128.227339
 20
958.248472
 30
0.0
 10
129.652703
 20
957.974885
 30
0.0
 10
129.868857
 20
957.129065
 30
0.0
 10
129.486671
 20
956.177779
 30
0.0
 10
126.898044
 20
952.305803
 30
0.0
 10
120.879148
 20
945.632179
 30
0.0
 10
120.398805
 20
944.829172
 30
0.0
 10
123.688105
 20
945.218667
 30
0.0
 10
126.899089
 20
947.127505
 30
0.0
 10
128.848652
 20
949.780874
 30
0.0
 10
131.628371
 20
956.128700
 30
0.0
 10
135.281060
 20
962.081811
 30
0.0
 10
140.045846
 20
967.241313
 30
0.0
 10
143.151363
 20
969.149107
 30
0.0
 10
144.412784
 20
970.238231
 30
0.0
 10
144.479614
 20
971.732513
 30
0.0
 10
143.910513
 20
972.620102
 30
0.0
 10
141.472254
 20
972.551183
 30
0.0
 10
139.988414
 20
971.960154
 30
0.0
 10
138.521282
 20
971.744000
 30
0.0
 10
136.581117
 20
971.913164
 30
0.0
 10
136.755502
 20
973.410578
 30
0.0
 10
138.013790
 20
974.512233
 30
0.0
 10
140.252602
 20
975.594047
 30
0.0
 10
140.292283
 20
976.602766
 30
0.0
 10
139.984237
 20
978.130463
 30
0.0
 10
138.669562
 20
979.049378
 30
0.0
 10
137.194076
 20
978.956442
 30
0.0
 10
133.705329
 20
977.259581
 30
0.0
 10
131.744280
 20
977.178132
 30
0.0
 10
131.881073
 20
977.681447
 30
0.0
 10
136.188490
 20
981.915768
 30
0.0
 10
136.487137
 20
983.449731
 30
0.0
 10
136.381671
 20
983.966621
 30
0.0
 10
133.427566
 20
984.292418
 30
0.0
 10
130.433781
 20
983.202250
 30
0.0
 10
127.055722
 20
980.973880
 30
0.0
 10
124.914022
 20
978.348705
 30
0.0
 10
118.738492
 20
973.949397
 30
0.0
 10
118.120312
 20
973.086869
 30
0.0
 10
118.109870
 20
972.087549
 30
0.0
 10
118.578726
 20
970.581780
 30
0.0
 10
121.346959
 20
969.153284
 30
0.0
 10
122.061207
 20
968.395179
 30
0.0
 10
122.286759
 20
967.402124
 30
0.0
 10
120.055256
 20
963.039363
 30
0.0
 10
115.336416
 20
958.062600
 30
0.0
 10
109.496081
 20
954.011018
 30
0.0
 10
106.182763
 20
952.780924
 30
0.0
 10
103.595180
 20
950.831361
 30
0.0
 10
103.594136
 20
950.949358
 30
0.0
 10
102.892418
 20
950.258083
 30
0.0
  0
LWPOLYLINE
  5
106
100
AcDbEntity
  8
Layer_1,_z:2.5
 62
7
100
AcDbPolyline
 90
73
 70
0
 10
214.905093
 20
955.574218
 30
0.0
 10
216.426525
 20
953.479509
 30
0.0
 10
216.745013
 20
952.301626
 30
0.0
 10
216.175912
 20
951.244873
 30
0.0
 10
215.104540
 20
950.881484
 30
0.0
 10
212.741465
 20
951.324234
 30
0.0
 10
212.029305
 20
952.312068
 30
0.0
 10
211.473779
 20
954.669922
 30
0.0
 10
210.656153
 20
955.671331
 30
0.0
 10
209.482447
 20
955.304809
 30
0.0
 10
208.316051
 20
954.743018
 30
0.0
 10
206.303835
 20
953.125517
 30
0.0
 10
206.403036
 20
953.122695
 30
0.0
 10
206.555492
 20
951.561583
 30
0.0
 10
207.087002
 20
950.386833
 30
0.0
 10
213.857738
 20
941.553757
 30
0.0
 10
214.778742
 20
939.283618
 30
0.0
 10
215.365595
 20
938.804320
 30
0.0
 10
219.320065
 20
937.968942
 30
0.0
 10
222.117536
 20
936.698124
 30
0.0
 10
224.519247
 20
935.903471
 30
0.0
 10
226.817580
 20
935.388669
 30
0.0
 10
227.966225
 20
935.455499
 30
0.0
 10
228.348410
 20
935.630929
 30
0.0
 10
227.675931
 20
937.127299
 30
0.0
 10
223.443698
 20
938.525513
 30
0.0
 10
221.216372
 20
939.978026
 30
0.0
 10
221.189223
 20
942.232502
 30
0.0
 10
222.044441
 20
943.630715
 30
0.0
 10
225.729501
 20
943.262105
 30
0.0
 10
233.166452
 20
939.797375
 30
0.0
 10
235.669452
 20
939.459047
 30
0.0
 10
236.442177
 20
939.628211
 30
0.0
 10
236.447398
 20
940.003087
 30
0.0
 10
236.075655
 20
941.138157
 30
0.0
 10
235.215216
 20
942.004861
 30
0.0
 10
231.254481
 20
943.419782
 30
0.0
 10
228.928998
 20
944.612284
 30
0.0
 10
228.248165
 20
945.198093
 30
0.0
 10
228.248165
 20
945.579234
 30
0.0
 10
229.027155
 20
946.516945
 30
0.0
 10
230.100615
 20
947.163319
 30
0.0
 10
233.711536
 20
947.367986
 30
0.0
 10
240.798672
 20
945.387097
 30
0.0
 10
244.695709
 20
945.488386
 30
0.0
 10
245.874636
 20
945.843422
 30
0.0
 10
246.199389
 20
946.985801
 30
0.0
 10
237.632590
 20
948.432049
 30
0.0
 10
235.298753
 20
949.643347
 30
0.0
 10
233.254166
 20
951.338119
 30
0.0
 10
227.945340
 20
957.842580
 30
0.0
 10
226.443749
 20
961.769899
 30
0.0
 10
225.540497
 20
962.797414
 30
0.0
 10
223.141918
 20
962.751468
 30
0.0
 10
222.546712
 20
962.261728
 30
0.0
 10
222.550888
 20
961.859702
 30
0.0
 10
221.957770
 20
961.270761
 30
0.0
 10
220.365331
 20
961.106818
 30
0.0
 10
220.480196
 20
959.904918
 30
0.0
 10
222.887128
 20
957.760086
 30
0.0
 10
223.491733
 20
956.559230
 30
0.0
 10
223.303773
 20
955.380304
 30
0.0
 10
222.422449
 20
954.614889
 30
0.0
 10
221.237257
 20
954.641982
 30
0.0
 10
220.242113
 20
955.352053
 30
0.0
 10
218.797954
 20
959.345159
 30
0.0
 10
218.182907
 20
960.457256
 30
0.0
 10
216.988317
 20
960.484349
 30
0.0
 10
214.727576
 20
959.139391
 30
0.0
 10
214.156386
 20
958.059665
 30
0.0
 10
213.886977
 20
956.878650
 30
0.0
 10
214.103131
 20
956.083996
 30
0.0
 10
214.905093
 20
955.574218
 30
0.0
  0
LWPOLYLINE
  5
107
100
AcDbEntity
  8
Layer_1,_z:2.5
 62
7
100
AcDbPolyline
 90
64
 70
0
 10
138.200706
 20
963.459140
 30
0.0
 10
135.395925
 20
959.033727
 30
0.0
 10
135.007474
 20
958.025008
 30
0.0
 10
134.904096
 20
957.017334
 30
0.0
 10
135.078481
 20
955.715188
 30
0.0
 10
133.150847
 20
951.451629
 30
0.0
 10
130.203008
 20
947.519088
 30
0.0
 10
126.145160
 20
944.930461
 30
0.0
 10
126.030296
 20
945.048458
 30
0.0
 10
125.300384
 20
943.789126
 30
0.0
 10
125.634536
 20
942.971500
 30
0.0
 10
129.962837
 20
942.988152
 30
0.0
 10
131.633592
 20
944.107558
 30
0.0
 10
134.336039
 20
947.892863
 30
0.0
 10
136.487137
 20
952.085416
 30
0.0
 10
137.486458
 20
953.487806
 30
0.0
 10
140.362246
 20
954.136268
 30
0.0
 10
140.185772
 20
952.712993
 30
0.0
 10
139.792100
 20
951.773193
 30
0.0
 10
136.157163
 20
946.096801
 30
0.0
 10
133.109078
 20
942.569418
 30
0.0
 10
132.715406
 20
941.195222
 30
0.0
 10
135.523320
 20
941.360209
 30
0.0
 10
136.835907
 20
942.137110
 30
0.0
 10
140.296460
 20
946.702450
 30
0.0
 10
141.030548
 20
947.387460
 30
0.0
 10
141.981834
 20
947.600481
 30
0.0
 10
142.923723
 20
947.578468
 30
0.0
 10
143.261007
 20
947.219255
 30
0.0
 10
143.101241
 20
946.287809
 30
0.0
 10
142.197988
 20
944.445801
 30
0.0
 10
140.583621
 20
942.282173
 30
0.0
 10
140.740254
 20
940.435988
 30
0.0
 10
141.570411
 20
940.761785
 30
0.0
 10
142.447558
 20
942.123451
 30
0.0
 10
143.801914
 20
943.596848
 30
0.0
 10
145.116590
 20
944.146109
 30
0.0
 10
146.048036
 20
944.009316
 30
0.0
 10
147.758472
 20
943.042366
 30
0.0
 10
148.594894
 20
943.370252
 30
0.0
 10
148.853861
 20
943.828666
 30
0.0
 10
149.019892
 20
944.753847
 30
0.0
 10
151.238864
 20
950.918935
 30
0.0
 10
152.311281
 20
953.147305
 30
0.0
 10
156.788906
 20
960.252193
 30
0.0
 10
156.849470
 20
961.221231
 30
0.0
 10
156.609299
 20
963.177059
 30
0.0
 10
155.849106
 20
964.541858
 30
0.0
 10
154.914527
 20
965.053527
 30
0.0
 10
153.000467
 20
965.343820
 30
0.0
 10
149.327938
 20
962.002309
 30
0.0
 10
148.349502
 20
961.659804
 30
0.0
 10
147.881690
 20
961.913550
 30
0.0
 10
147.809639
 20
962.890942
 30
0.0
 10
148.979168
 20
964.576317
 30
0.0
 10
150.903669
 20
966.745167
 30
0.0
 10
151.130265
 20
968.717702
 30
0.0
 10
150.941261
 20
969.714935
 30
0.0
 10
150.469273
 20
969.974946
 30
0.0
 10
149.492925
 20
969.872612
 30
0.0
 10
146.131574
 20
968.090125
 30
0.0
 10
145.164624
 20
968.112138
 30
0.0
 10
144.186188
 20
967.887630
 30
0.0
 10
138.200706
 20
963.459140
 30
0.0
  0
LWPOLYLINE
  5
108
100
AcDbEntity
  8
Layer_1,_z:2.5
 62
7
100
AcDbPolyline
 90
82
 70
0
 10
238.960841
 20
969.932274
 30
0.0
 10
237.648253
 20
970.168268
 30
0.0
 10
235.216260
 20
969.914522
 30
0.0
 10
234.196055
 20
968.908936
 30
0.0
 10
234.184568
 20
967.677798
 30
0.0
 10
235.876208
 20
965.700041
 30
0.0
 10
237.052002
 20
963.442433
 30
0.0
 10
237.046781
 20
963.038319
 30
0.0
 10
236.538245
 20
962.445201
 30
0.0
 10
235.335301
 20
962.170570
 30
0.0
 10
234.138622
 20
962.499500
 30
0.0
 10
231.961419
 20
966.503048
 30
0.0
 10
229.548222
 20
967.579641
 30
0.0
 10
228.339012
 20
967.710169
 30
0.0
 10
227.232137
 20
966.815271
 30
0.0
 10
227.235269
 20
965.592486
 30
0.0
 10
227.939075
 20
964.359260
 30
0.0
 10
230.040050
 20
962.694770
 30
0.0
 10
230.836792
 20
961.670388
 30
0.0
 10
231.518669
 20
958.059467
 30
0.0
 10
231.317134
 20
957.857932
 30
0.0
 10
231.410070
 20
956.714509
 30
0.0
 10
232.351958
 20
955.559599
 30
0.0
 10
233.152877
 20
954.230304
 30
0.0
 10
234.746360
 20
952.755863
 30
0.0
 10
239.756538
 20
952.358014
 30
0.0
 10
244.441963
 20
950.790636
 30
0.0
 10
249.229722
 20
950.002249
 30
0.0
 10
251.596974
 20
950.335356
 30
0.0
 10
252.695496
 20
950.795858
 30
0.0
 10
252.922092
 20
951.568582
 30
0.0
 10
252.653727
 20
952.257769
 30
0.0
 10
251.600106
 20
953.063908
 30
0.0
 10
248.061237
 20
953.438784
 30
0.0
 10
242.855790
 20
954.441237
 30
0.0
 10
242.578026
 20
955.234846
 30
0.0
 10
242.685581
 20
955.626430
 30
0.0
 10
243.479190
 20
955.706835
 30
0.0
 10
244.585022
 20
956.372004
 30
0.0
 10
244.893067
 20
956.761499
 30
0.0
 10
245.294048
 20
956.950503
 30
0.0
 10
245.583298
 20
956.646635
 30
0.0
 10
250.687456
 20
955.147132
 30
0.0
 10
255.494011
 20
954.150944
 30
0.0
 10
257.068698
 20
954.017283
 30
0.0
 10
257.867528
 20
954.194801
 30
0.0
 10
258.314455
 20
955.267217
 30
0.0
 10
258.370843
 20
956.452409
 30
0.0
 10
257.312002
 20
957.169790
 30
0.0
 10
251.380820
 20
957.901790
 30
0.0
 10
250.199804
 20
958.227587
 30
0.0
 10
250.250971
 20
959.635199
 30
0.0
 10
250.863930
 20
961.179603
 30
0.0
 10
251.505082
 20
961.752881
 30
0.0
 10
252.283028
 20
961.931443
 30
0.0
 10
252.747707
 20
962.324071
 30
0.0
 10
253.129892
 20
962.291700
 30
0.0
 10
253.495370
 20
962.051529
 30
0.0
 10
254.339101
 20
962.187278
 30
0.0
 10
263.873894
 20
960.812037
 30
0.0
 10
264.190294
 20
961.106508
 30
0.0
 10
264.135994
 20
961.912647
 30
0.0
 10
262.784771
 20
962.851403
 30
0.0
 10
263.085507
 20
962.845194
 30
0.0
 10
255.335289
 20
964.440766
 30
0.0
 10
254.963546
 20
965.160235
 30
0.0
 10
254.254519
 20
967.525398
 30
0.0
 10
249.343542
 20
968.561267
 30
0.0
 10
248.251286
 20
969.203463
 30
0.0
 10
246.344536
 20
973.392883
 30
0.0
 10
244.353204
 20
975.217139
 30
0.0
 10
243.138774
 20
975.665110
 30
0.0
 10
241.509787
 20
975.912591
 30
0.0
 10
240.686940
 20
975.616032
 30
0.0
 10
241.247687
 20
972.988769
 30
0.0
 10
242.928885
 20
970.874219
 30
0.0
 10
242.752412
 20
970.281101
 30
0.0
 10
242.904868
 20
968.575886
 30
0.0
 10
242.659476
 20
968.171772
 30
0.0
 10
242.168691
 20
967.723800
 30
0.0
 10
241.036754
 20
967.418888
 30
0.0
 10
238.960841
 20
969.932274
 30
0.0
  0
LWPOLYLINE
  5
109
100
AcDbEntity
  8
Layer_1,_z:2.5
 62
7
100
AcDbPolyline
 90
82
 70
0
 10
268.706555
 20
996.601710
 30
0.0
 10
267.599679
 20
996.509818
 30
0.0
 10
265.455891
 20
997.106069
 30
0.0
 10
264.538020
 20
997.126953
 30
0.0
 10
264.007555
 20
996.748945
 30
0.0
 10
263.571070
 20
994.889185
 30
0.0
 10
264.343794
 20
993.788575
 30
0.0
 10
265.259577
 20
993.150555
 30
0.0
 10
265.491395
 20
992.606515
 30
0.0
 10
265.432918
 20
990.465860
 30
0.0
 10
265.889243
 20
989.999092
 30
0.0
 10
268.226213
 20
989.261872
 30
0.0
 10
272.886576
 20
988.549712
 30
0.0
 10
274.981286
 20
987.746705
 30
0.0
 10
277.228452
 20
987.468942
 30
0.0
 10
279.783664
 20
987.636018
 30
0.0
 10
281.971310
 20
988.039087
 30
0.0
 10
283.044770
 20
988.770043
 30
0.0
 10
283.210802
 20
989.297375
 30
0.0
 10
282.620816
 20
989.767275
 30
0.0
 10
280.371561
 20
990.352040
 30
0.0
 10
276.904744
 20
990.660085
 30
0.0
 10
276.882815
 20
991.934036
 30
0.0
 10
277.128207
 20
993.511856
 30
0.0
 10
277.449828
 20
994.301288
 30
0.0
 10
278.105599
 20
994.885008
 30
0.0
 10
278.583853
 20
995.516763
 30
0.0
 10
278.897120
 20
995.268238
 30
0.0
 10
279.803504
 20
995.449932
 30
0.0
 10
284.064975
 20
995.040597
 30
0.0
 10
286.204587
 20
995.147108
 30
0.0
 10
287.521351
 20
995.662954
 30
0.0
 10
287.721842
 20
996.908711
 30
0.0
 10
287.657100
 20
997.224066
 30
0.0
 10
287.052495
 20
997.473635
 30
0.0
 10
283.614916
 20
997.867307
 30
0.0
 10
280.873832
 20
998.718348
 30
0.0
 10
280.422728
 20
999.123506
 30
0.0
 10
280.282802
 20
999.759438
 30
0.0
 10
280.603379
 20
1000.307654
 30
0.0
 10
282.345141
 20
1002.022267
 30
0.0
 10
283.520936
 20
1002.555865
 30
0.0
 10
289.648432
 20
1002.736515
 30
0.0
 10
291.839210
 20
1003.168823
 30
0.0
 10
292.792585
 20
1003.630369
 30
0.0
 10
293.317828
 20
1004.830181
 30
0.0
 10
292.488716
 20
1005.417034
 30
0.0
 10
291.257578
 20
1005.771025
 30
0.0
 10
285.579098
 20
1006.226306
 30
0.0
 10
287.081733
 20
1008.975743
 30
0.0
 10
290.504694
 20
1008.239566
 30
0.0
 10
294.978142
 20
1008.301175
 30
0.0
 10
296.266712
 20
1008.929797
 30
0.0
 10
296.658295
 20
1010.325922
 30
0.0
 10
296.235385
 20
1011.249015
 30
0.0
 10
294.995894
 20
1011.692809
 30
0.0
 10
290.280186
 20
1012.218053
 30
0.0
 10
286.471908
 20
1014.064238
 30
0.0
 10
283.706807
 20
1017.171843
 30
0.0
 10
282.358716
 20
1017.457960
 30
0.0
 10
281.003316
 20
1017.488242
 30
0.0
 10
280.037410
 20
1017.085173
 30
0.0
 10
279.137291
 20
1015.918776
 30
0.0
 10
278.772857
 20
1013.485739
 30
0.0
 10
278.807316
 20
1011.149814
 30
0.0
 10
277.920772
 20
1010.010567
 30
0.0
 10
275.859477
 20
1008.575806
 30
0.0
 10
275.140008
 20
1007.363464
 30
0.0
 10
274.971888
 20
1006.388160
 30
0.0
 10
275.041851
 20
1005.736566
 30
0.0
 10
275.425081
 20
1005.160155
 30
0.0
 10
275.801001
 20
1004.180674
 30
0.0
 10
275.560830
 20
1003.622016
 30
0.0
 10
274.935340
 20
1003.234609
 30
0.0
 10
272.451136
 20
1002.489034
 30
0.0
 10
270.208146
 20
1002.541246
 30
0.0
 10
269.357105
 20
1002.240510
 30
0.0
 10
268.971787
 20
1001.052185
 30
0.0
 10
268.971787
 20
1000.098810
 30
0.0
 10
269.433334
 20
998.822770
 30
0.0
 10
269.489722
 20
997.632357
 30
0.0
 10
268.706555
 20
996.601710
 30
0.0
  0
LWPOLYLINE
  5
10a
100
AcDbEntity
  8
Layer_1,_z:2.5
 62
7
100
AcDbPolyline
 90
83
 70
0
 10
250.331376
 20
971.912119
 30
0.0
 10
254.095798
 20
969.114648
 30
0.0
 10
254.642970
 20
968.529884
 30
0.0
 10
255.192231
 20
968.273005
 30
0.0
 10
256.176932
 20
968.298969
 30
0.0
 10
256.850456
 20
969.117640
 30
0.0
 10
257.639888
 20
969.147922
 30
0.0
 10
258.235094
 20
969.036190
 30
0.0
 10
258.746763
 20
969.307688
 30
0.0
 10
260.558489
 20
968.067152
 30
0.0
 10
263.076109
 20
967.511626
 30
0.0
 10
268.926886
 20
967.376921
 30
0.0
 10
269.246418
 20
968.167397
 30
0.0
 10
268.957168
 20
968.873292
 30
0.0
 10
268.557231
 20
969.083180
 30
0.0
 10
261.084777
 20
970.759157
 30
0.0
 10
259.772190
 20
971.594535
 30
0.0
 10
259.575876
 20
972.812098
 30
0.0
 10
259.784720
 20
973.718483
 30
0.0
 10
260.193011
 20
973.811418
 30
0.0
 10
260.909348
 20
974.200913
 30
0.0
 10
261.937906
 20
975.196057
 30
0.0
 10
263.162779
 20
975.167835
 30
0.0
 10
264.485809
 20
974.831595
 30
0.0
 10
265.190659
 20
974.204018
 30
0.0
 10
269.760175
 20
973.287191
 30
0.0
 10
274.554199
 20
973.481416
 30
0.0
 10
274.283746
 20
974.708377
 30
0.0
 10
273.284425
 20
975.547932
 30
0.0
 10
266.660924
 20
976.722682
 30
0.0
 10
265.846430
 20
977.049523
 30
0.0
 10
265.865226
 20
978.281706
 30
0.0
 10
268.257539
 20
980.063149
 30
0.0
 10
270.820061
 20
980.907924
 30
0.0
 10
274.655489
 20
980.561243
 30
0.0
 10
279.200988
 20
980.872421
 30
0.0
 10
280.357986
 20
981.469716
 30
0.0
 10
280.492691
 20
982.300917
 30
0.0
 10
279.919413
 20
983.568603
 30
0.0
 10
271.955130
 20
983.855764
 30
0.0
 10
270.725036
 20
984.409202
 30
0.0
 10
270.782469
 20
986.936219
 30
0.0
 10
270.652985
 20
987.336156
 30
0.0
 10
269.561773
 20
987.525161
 30
0.0
 10
266.168051
 20
988.688424
 30
0.0
 10
264.144348
 20
989.730558
 30
0.0
 10
262.907989
 20
990.730923
 30
0.0
 10
262.231333
 20
990.914706
 30
0.0
 10
261.577650
 20
991.302112
 30
0.0
 10
261.000195
 20
991.349102
 30
0.0
 10
260.544914
 20
991.708315
 30
0.0
 10
260.508366
 20
991.903584
 30
0.0
 10
260.209719
 20
991.973547
 30
0.0
 10
258.952475
 20
991.895231
 30
0.0
 10
258.006410
 20
990.952298
 30
0.0
 10
257.897811
 20
989.674170
 30
0.0
 10
258.312367
 20
988.812687
 30
0.0
 10
259.244857
 20
987.729828
 30
0.0
 10
260.489570
 20
987.066747
 30
0.0
 10
259.700138
 20
986.684562
 30
0.0
 10
259.201000
 20
985.166263
 30
0.0
 10
258.605793
 20
984.293293
 30
0.0
 10
257.363169
 20
983.666760
 30
0.0
 10
256.640567
 20
984.836288
 30
0.0
 10
255.604699
 20
985.491016
 30
0.0
 10
254.359986
 20
985.519238
 30
0.0
 10
253.635296
 20
985.220590
 30
0.0
 10
253.334560
 20
982.715501
 30
0.0
 10
253.751204
 20
981.560592
 30
0.0
 10
255.196408
 20
979.764529
 30
0.0
 10
254.684739
 20
978.641990
 30
0.0
 10
253.967358
 20
978.349608
 30
0.0
 10
252.632842
 20
978.585602
 30
0.0
 10
249.641146
 20
980.409859
 30
0.0
 10
248.818298
 20
980.428768
 30
0.0
 10
247.590293
 20
979.940072
 30
0.0
 10
246.887532
 20
978.820665
 30
0.0
 10
247.108907
 20
977.582218
 30
0.0
 10
249.076221
 20
975.056244
 30
0.0
 10
249.372780
 20
974.031862
 30
0.0
 10
249.535679
 20
972.615897
 30
0.0
 10
250.072409
 20
972.525050
 30
0.0
 10
250.331376
 20
971.912119
 30
0.0
  0
LWPOLYLINE
  5
10b
100
AcDbEntity
  8
Layer_1,_z:2.5
 62
7
100
AcDbPolyline
 90
70
 70
0
 10
304.163120
 20
1038.067774
 30
0.0
 10
305.908016
 20
1038.027049
 30
0.0
 10
306.915690
 20
1038.265132
 30
0.0
 10
307.517162
 20
1038.686998
 30
0.0
 10
307.531781
 20
1039.034724
 30
0.0
 10
306.898983
 20
1039.835642
 30
0.0
 10
303.930259
 20
1040.780663
 30
0.0
 10
303.030139
 20
1041.327836
 30
0.0
 10
302.546664
 20
1041.867699
 30
0.0
 10
301.645501
 20
1042.505718
 30
0.0
 10
300.651401
 20
1042.882683
 30
0.0
 10
295.711186
 20
1043.260691
 30
0.0
 10
294.699334
 20
1043.018432
 30
0.0
 10
294.179312
 20
1042.059836
 30
0.0
 10
294.243009
 20
1041.002038
 30
0.0
 10
294.724396
 20
1039.940064
 30
0.0
 10
294.500932
 20
1036.989092
 30
0.0
 10
292.839575
 20
1036.767717
 30
0.0
 10
292.001064
 20
1036.097327
 30
0.0
 10
291.821458
 20
1035.069812
 30
0.0
 10
292.517954
 20
1031.982047
 30
0.0
 10
292.011506
 20
1031.063131
 30
0.0
 10
291.433007
 20
1030.653796
 30
0.0
 10
289.380066
 20
1030.027263
 30
0.0
 10
287.412752
 20
1029.148028
 30
0.0
 10
287.000284
 20
1028.237466
 30
0.0
 10
287.068158
 20
1025.575744
 30
0.0
 10
286.412387
 20
1023.613650
 30
0.0
 10
285.119640
 20
1022.415927
 30
0.0
 10
284.153734
 20
1021.949160
 30
0.0
 10
283.672348
 20
1021.064704
 30
0.0
 10
283.673477
 20
1020.092533
 30
0.0
 10
284.555844
 20
1018.459369
 30
0.0
 10
287.346006
 20
1017.112322
 30
0.0
 10
289.253800
 20
1016.589167
 30
0.0
 10
290.926644
 20
1016.550531
 30
0.0
 10
296.442226
 20
1017.303415
 30
0.0
 10
298.052417
 20
1017.827615
 30
0.0
 10
299.533124
 20
1019.243580
 30
0.0
 10
299.972741
 20
1020.529018
 30
0.0
 10
297.328771
 20
1020.832886
 30
0.0
 10
293.703231
 20
1020.348367
 30
0.0
 10
292.740458
 20
1020.370380
 30
0.0
 10
292.104527
 20
1020.790158
 30
0.0
 10
291.555266
 20
1021.697587
 30
0.0
 10
291.729651
 20
1022.672890
 30
0.0
 10
293.040150
 20
1023.872702
 30
0.0
 10
297.022814
 20
1024.769689
 30
0.0
 10
300.671326
 20
1024.851138
 30
0.0
 10
301.650806
 20
1025.075646
 30
0.0
 10
302.412044
 20
1025.969500
 30
0.0
 10
302.690852
 20
1026.959423
 30
0.0
 10
302.562412
 20
1027.963964
 30
0.0
 10
301.593374
 20
1028.236506
 30
0.0
 10
296.939276
 20
1028.008866
 30
0.0
 10
295.639219
 20
1028.206224
 30
0.0
 10
295.667413
 20
1029.547005
 30
0.0
 10
295.918026
 20
1029.793442
 30
0.0
 10
296.827544
 20
1030.193379
 30
0.0
 10
302.247057
 20
1030.659102
 30
0.0
 10
305.878862
 20
1031.252220
 30
0.0
 10
306.310126
 20
1031.751358
 30
0.0
 10
305.873641
 20
1033.121378
 30
0.0
 10
303.745516
 20
1033.511917
 30
0.0
 10
301.689443
 20
1033.644533
 30
0.0
 10
300.714139
 20
1034.094593
 30
0.0
 10
300.402961
 20
1034.701286
 30
0.0
 10
300.516781
 20
1035.731934
 30
0.0
 10
303.160752
 20
1037.916446
 30
0.0
 10
304.163120
 20
1038.067774
 30
0.0
  0
LWPOLYLINE
  5
10c
100
AcDbEntity
  8
Layer_1,_z:2.5
 62
7
100
AcDbPolyline
 90
67
 70
0
 10
303.646230
 20
1043.269045
 30
0.0
 10
306.349722
 20
1043.652274
 30
0.0
 10
308.333744
 20
1044.215110
 30
0.0
 10
308.901801
 20
1044.649507
 30
0.0
 10
309.227598
 20
1044.764371
 30
0.0
 10
309.536688
 20
1045.327207
 30
0.0
 10
310.175752
 20
1045.654048
 30
0.0
 10
311.052899
 20
1047.259018
 30
0.0
 10
310.813772
 20
1047.952382
 30
0.0
 10
310.142337
 20
1048.311594
 30
0.0
 10
308.448608
 20
1048.351274
 30
0.0
 10
306.750703
 20
1048.130944
 30
0.0
 10
306.585716
 20
1048.479714
 30
0.0
 10
306.429083
 20
1049.519759
 30
0.0
 10
306.441613
 20
1050.559804
 30
0.0
 10
307.044130
 20
1051.067296
 30
0.0
 10
311.814137
 20
1051.044436
 30
0.0
 10
313.292755
 20
1052.232761
 30
0.0
 10
313.396133
 20
1052.930302
 30
0.0
 10
312.555534
 20
1053.564145
 30
0.0
 10
310.419056
 20
1053.700938
 30
0.0
 10
309.397806
 20
1054.075814
 30
0.0
 10
309.343507
 20
1055.843682
 30
0.0
 10
310.105789
 20
1059.752206
 30
0.0
 10
310.983980
 20
1060.362031
 30
0.0
 10
314.205406
 20
1060.918602
 30
0.0
 10
316.669770
 20
1062.039052
 30
0.0
 10
316.866084
 20
1062.760610
 30
0.0
 10
316.628001
 20
1063.493654
 30
0.0
 10
315.774872
 20
1064.152558
 30
0.0
 10
312.639072
 20
1064.407348
 30
0.0
 10
312.033423
 20
1064.695554
 30
0.0
 10
312.058485
 20
1065.795120
 30
0.0
 10
312.362353
 20
1067.631906
 30
0.0
 10
315.402084
 20
1069.511506
 30
0.0
 10
315.947168
 20
1070.058679
 30
0.0
 10
315.979539
 20
1071.179129
 30
0.0
 10
315.553496
 20
1071.752407
 30
0.0
 10
314.499876
 20
1072.058364
 30
0.0
 10
313.791894
 20
1072.074169
 30
0.0
 10
312.059529
 20
1073.810710
 30
0.0
 10
310.998599
 20
1074.024776
 30
0.0
 10
307.803279
 20
1074.192896
 30
0.0
 10
306.377916
 20
1073.847258
 30
0.0
 10
305.664712
 20
1073.485957
 30
0.0
 10
305.475708
 20
1072.359242
 30
0.0
 10
306.727730
 20
1066.767432
 30
0.0
 10
305.843274
 20
1065.662644
 30
0.0
 10
304.609003
 20
1064.500425
 30
0.0
 10
304.167297
 20
1063.871803
 30
0.0
 10
304.059742
 20
1061.332255
 30
0.0
 10
304.391805
 20
1059.523662
 30
0.0
 10
304.731177
 20
1058.798972
 30
0.0
 10
304.988056
 20
1058.524341
 30
0.0
 10
302.735669
 20
1057.237860
 30
0.0
 10
301.784382
 20
1056.105923
 30
0.0
 10
301.349986
 20
1054.349541
 30
0.0
 10
301.516017
 20
1052.939841
 30
0.0
 10
302.367058
 20
1052.221416
 30
0.0
 10
302.192673
 20
1051.527008
 30
0.0
 10
299.212463
 20
1050.465034
 30
0.0
 10
298.026226
 20
1048.935249
 30
0.0
 10
297.609582
 20
1047.224813
 30
0.0
 10
297.612714
 20
1046.539803
 30
0.0
 10
298.966026
 20
1044.210143
 30
0.0
 10
299.553924
 20
1043.773658
 30
0.0
 10
303.646230
 20
1043.269045
 30
0.0
  0
LWPOLYLINE
  5
10d
100
AcDbEntity
  8
Layer_1,_z:2.5
 62
7
100
AcDbPolyline
 90
42
 70
0
 10
99.178120
 20
1045.457735
 30
0.0
 10
99.327444
 20
1046.605335
 30
0.0
 10
98.032608
 20
1049.523936
 30
0.0
 10
94.843553
 20
1051.339838
 30
0.0
 10
94.202401
 20
1051.557037
 30
0.0
 10
93.772181
 20
1051.218709
 30
0.0
 10
93.458915
 20
1051.637442
 30
0.0
 10
90.735583
 20
1051.700095
 30
0.0
 10
87.328286
 20
1050.060666
 30
0.0
 10
86.984737
 20
1049.309870
 30
0.0
 10
86.747699
 20
1047.307052
 30
0.0
 10
87.086027
 20
1046.742128
 30
0.0
 10
87.087071
 20
1044.445883
 30
0.0
 10
87.352303
 20
1044.153501
 30
0.0
 10
87.220731
 20
1041.304863
 30
0.0
 10
88.012252
 20
1039.020105
 30
0.0
 10
88.536451
 20
1036.754142
 30
0.0
 10
88.795418
 20
1034.505932
 30
0.0
 10
88.008075
 20
1032.988677
 30
0.0
 10
88.007031
 20
1031.876580
 30
0.0
 10
89.049164
 20
1029.774561
 30
0.0
 10
89.174471
 20
1027.566031
 30
0.0
 10
88.392349
 20
1025.390916
 30
0.0
 10
90.474528
 20
1027.398956
 30
0.0
 10
100.950165
 20
1031.856740
 30
0.0
 10
101.358456
 20
1032.821602
 30
0.0
 10
101.367854
 20
1033.379216
 30
0.0
 10
100.843654
 20
1033.391634
 30
0.0
 10
100.599306
 20
1034.514173
 30
0.0
 10
99.957110
 20
1035.369391
 30
0.0
 10
98.657053
 20
1036.381242
 30
0.0
 10
99.067432
 20
1037.496472
 30
0.0
 10
99.869395
 20
1038.324540
 30
0.0
 10
100.017675
 20
1039.452300
 30
0.0
 10
99.100847
 20
1039.898183
 30
0.0
 10
96.987342
 20
1039.804203
 30
0.0
 10
97.264061
 20
1040.933007
 30
0.0
 10
98.075421
 20
1042.336442
 30
0.0
 10
97.690103
 20
1043.344116
 30
0.0
 10
96.627085
 20
1043.083060
 30
0.0
 10
97.045818
 20
1044.933422
 30
0.0
 10
99.178120
 20
1045.457735
 30
0.0
  0
LWPOLYLINE
  5
10e
100
AcDbEntity
  8
Layer_1,_z:2.5
 62
7
100
AcDbPolyline
 90
70
 70
0
 10
314.487346
 20
1107.246452
 30
0.0
 10
313.980898
 20
1106.638715
 30
0.0
 10
313.817999
 20
1105.728153
 30
0.0
 10
313.094353
 20
1105.137123
 30
0.0
 10
311.670034
 20
1105.018082
 30
0.0
 10
311.237726
 20
1104.649471
 30
0.0
 10
311.232505
 20
1104.347691
 30
0.0
 10
311.572921
 20
1103.435041
 30
0.0
 10
313.195643
 20
1101.449974
 30
0.0
 10
314.032065
 20
1099.350044
 30
0.0
 10
312.673532
 20
1098.055208
 30
0.0
 10
311.825623
 20
1097.634386
 30
0.0
 10
311.467455
 20
1097.130027
 30
0.0
 10
310.883735
 20
1095.466581
 30
0.0
 10
311.207444
 20
1094.011980
 30
0.0
 10
312.695460
 20
1092.039444
 30
0.0
 10
312.891774
 20
1091.535084
 30
0.0
 10
312.599392
 20
1090.687176
 30
0.0
 10
309.959598
 20
1088.837858
 30
0.0
 10
309.743444
 20
1087.999348
 30
0.0
 10
309.997190
 20
1086.594869
 30
0.0
 10
310.858673
 20
1084.977369
 30
0.0
 10
310.836745
 20
1083.598996
 30
0.0
 10
309.934537
 20
1081.976274
 30
0.0
 10
309.320534
 20
1081.376891
 30
0.0
 10
308.779627
 20
1081.185798
 30
0.0
 10
307.163171
 20
1080.950848
 30
0.0
 10
307.287433
 20
1079.594403
 30
0.0
 10
307.809544
 20
1077.970638
 30
0.0
 10
308.596888
 20
1076.618370
 30
0.0
 10
309.912608
 20
1075.460328
 30
0.0
 10
310.636254
 20
1075.046816
 30
0.0
 10
311.165675
 20
1074.968499
 30
0.0
 10
312.496014
 20
1075.136619
 30
0.0
 10
314.808966
 20
1076.258113
 30
0.0
 10
316.657239
 20
1076.632989
 30
0.0
 10
317.403858
 20
1077.082005
 30
0.0
 10
317.959384
 20
1077.737776
 30
0.0
 10
317.918660
 20
1078.542872
 30
0.0
 10
317.665958
 20
1079.020081
 30
0.0
 10
317.010186
 20
1079.506689
 30
0.0
 10
316.206135
 20
1079.525598
 30
0.0
 10
314.873708
 20
1079.893164
 30
0.0
 10
314.283722
 20
1080.516564
 30
0.0
 10
314.236732
 20
1081.332102
 30
0.0
 10
314.538512
 20
1082.690635
 30
0.0
 10
315.228743
 20
1083.223188
 30
0.0
 10
317.402814
 20
1083.516615
 30
0.0
 10
320.418528
 20
1084.412558
 30
0.0
 10
320.719264
 20
1085.167530
 30
0.0
 10
320.271292
 20
1085.941299
 30
0.0
 10
319.002562
 20
1086.667033
 30
0.0
 10
317.649250
 20
1087.047130
 30
0.0
 10
317.262888
 20
1087.827164
 30
0.0
 10
317.305701
 20
1091.504915
 30
0.0
 10
320.923931
 20
1094.077878
 30
0.0
 10
321.301940
 20
1094.865222
 30
0.0
 10
321.079520
 20
1096.325045
 30
0.0
 10
320.253541
 20
1096.636223
 30
0.0
 10
318.025170
 20
1096.833581
 30
0.0
 10
318.081558
 20
1098.593095
 30
0.0
 10
318.527441
 20
1099.395058
 30
0.0
 10
322.409860
 20
1101.780062
 30
0.0
 10
322.409860
 20
1104.109721
 30
0.0
 10
321.810476
 20
1104.255912
 30
0.0
 10
321.322824
 20
1104.493995
 30
0.0
 10
319.897461
 20
1104.374954
 30
0.0
 10
318.966015
 20
1106.296323
 30
0.0
 10
318.778055
 20
1107.246565
 30
0.0
 10
314.487346
 20
1107.246452
 30
0.0
  0
LWPOLYLINE
  5
10f
100
AcDbEntity
  8
Layer_1,_z:2.5
 62
7
100
AcDbPolyline
 90
19
 70
0
 10
58.154806
 20
1076.297794
 30
0.0
 10
57.966846
 20
1077.910073
 30
0.0
 10
58.723907
 20
1080.109205
 30
0.0
 10
59.671016
 20
1081.503242
 30
0.0
 10
61.185139
 20
1082.075475
 30
0.0
 10
66.470991
 20
1080.537336
 30
0.0
 10
68.735909
 20
1080.283590
 30
0.0
 10
71.733871
 20
1078.197234
 30
0.0
 10
73.406715
 20
1076.350005
 30
0.0
 10
73.584233
 20
1075.542821
 30
0.0
 10
73.189517
 20
1074.149829
 30
0.0
 10
70.922511
 20
1073.202719
 30
0.0
 10
68.829889
 20
1070.461636
 30
0.0
 10
66.572281
 20
1069.322389
 30
0.0
 10
64.325115
 20
1069.175154
 30
0.0
 10
61.917138
 20
1075.609651
 30
0.0
 10
61.166343
 20
1076.028384
 30
0.0
 10
58.907690
 20
1076.080596
 30
0.0
 10
58.154806
 20
1076.297794
 30
0.0
  0
LWPOLYLINE
  5
110
100
AcDbEntity
  8
Layer_1,_z:2.5
 62
7
100
AcDbPolyline
 90
18
 70
0
 10
83.121115
 20
1072.523975
 30
0.0
 10
84.023323
 20
1070.908563
 30
0.0
 10
83.987819
 20
1069.319257
 30
0.0
 10
83.373817
 20
1066.956182
 30
0.0
 10
81.123518
 20
1066.612633
 30
0.0
 10
78.896192
 20
1067.454276
 30
0.0
 10
77.405042
 20
1067.686093
 30
0.0
 10
76.086190
 20
1067.123257
 30
0.0
 10
75.651793
 20
1063.192805
 30
0.0
 10
74.333985
 20
1062.241518
 30
0.0
 10
72.101438
 20
1062.292685
 30
0.0
 10
70.645792
 20
1065.273940
 30
0.0
 10
70.268828
 20
1064.888622
 30
0.0
 10
70.881786
 20
1069.619993
 30
0.0
 10
72.777049
 20
1071.365932
 30
0.0
 10
75.614201
 20
1072.895718
 30
0.0
 10
80.883347
 20
1073.373972
 30
0.0
 10
83.121115
 20
1072.523975
 30
0.0
  0
LWPOLYLINE
  5
111
100
AcDbEntity
  8
Layer_1,_z:2.5
 62
7
100
AcDbPolyline
 90
11
 70
0
 10
88.532274
 20
1057.035026
 30
0.0
 10
83.974244
 20
1060.453810
 30
0.0
 10
83.113805
 20
1063.610494
 30
0.0
 10
83.707968
 20
1065.171606
 30
0.0
 10
85.970797
 20
1066.106185
 30
0.0
 10
88.958317
 20
1066.037266
 30
0.0
 10
90.446334
 20
1065.806493
 30
0.0
 10
91.690002
 20
1063.610494
 30
0.0
 10
89.622442
 20
1056.232020
 30
0.0
 10
88.882089
 20
1056.249800
 30
0.0
 10
88.532274
 20
1057.035026
 30
0.0
  0
LWPOLYLINE
  5
112
100
AcDbEntity
  8
Layer_1,_z:2.5
 62
7
100
AcDbPolyline
 90
10
 70
0
 10
75.570344
 20
1057.915306
 30
0.0
 10
77.463519
 20
1060.212595
 30
0.0
 10
80.459392
 20
1061.317382
 30
0.0
 10
81.950542
 20
1061.479236
 30
0.0
 10
82.289914
 20
1059.906638
 30
0.0
 10
82.408955
 20
1056.786502
 30
0.0
 10
82.158342
 20
1053.691427
 30
0.0
 10
79.190662
 20
1053.179758
 30
0.0
 10
76.634406
 20
1054.978953
 30
0.0
 10
75.570344
 20
1057.915306
 30
0.0
  0
LWPOLYLINE
  5
113
100
AcDbEntity
  8
Layer_1,_z:2.5
 62
7
100
AcDbPolyline
 90
25
 70
0
 10
162.533172
 20
951.430745
 30
0.0
 10
162.426661
 20
950.620428
 30
0.0
 10
162.114439
 20
949.864411
 30
0.0
 10
161.616345
 20
949.215949
 30
0.0
 10
160.966839
 20
948.717855
 30
0.0
 10
160.211866
 20
948.404589
 30
0.0
 10
159.400505
 20
948.298078
 30
0.0
 10
158.590189
 20
948.404589
 30
0.0
 10
157.834172
 20
948.717855
 30
0.0
 10
157.185710
 20
949.215949
 30
0.0
 10
156.687616
 20
949.864411
 30
0.0
 10
156.375394
 20
950.620428
 30
0.0
 10
156.267839
 20
951.430745
 30
0.0
 10
156.375394
 20
952.241061
 30
0.0
 10
156.687616
 20
952.997078
 30
0.0
 10
157.185710
 20
953.645540
 30
0.0
 10
157.834172
 20
954.143634
 30
0.0
 10
158.590189
 20
954.456901
 30
0.0
 10
159.400505
 20
954.563411
 30
0.0
 10
160.211866
 20
954.456901
 30
0.0
 10
160.966839
 20
954.143634
 30
0.0
 10
161.616345
 20
953.645540
 30
0.0
 10
162.114439
 20
952.997078
 30
0.0
 10
162.426661
 20
952.241061
 30
0.0
 10
162.533172
 20
951.430745
 30
0.0
  0
LWPOLYLINE
  5
114
100
AcDbEntity
  8
Layer_1,_z:2.5
 62
7
100
AcDbPolyline
 90
25
 70
0
 10
173.206167
 20
947.136903
 30
0.0
 10
173.099657
 20
946.326586
 30
0.0
 10
172.786390
 20
945.570570
 30
0.0
 10
172.288296
 20
944.922108
 30
0.0
 10
171.639834
 20
944.424014
 30
0.0
 10
170.883817
 20
944.111791
 30
0.0
 10
170.073501
 20
944.004236
 30
0.0
 10
169.263184
 20
944.111791
 30
0.0
 10
168.507167
 20
944.424014
 30
0.0
 10
167.858705
 20
944.922108
 30
0.0
 10
167.360611
 20
945.570570
 30
0.0
 10
167.047345
 20
946.326586
 30
0.0
 10
166.940834
 20
947.136903
 30
0.0
 10
167.047345
 20
947.948264
 30
0.0
 10
167.360611
 20
948.703236
 30
0.0
 10
167.858705
 20
949.352742
 30
0.0
 10
168.507167
 20
949.849792
 30
0.0
 10
169.263184
 20
950.163059
 30
0.0
 10
170.073501
 20
950.269570
 30
0.0
 10
170.883817
 20
950.163059
 30
0.0
 10
171.639834
 20
949.849792
 30
0.0
 10
172.288296
 20
949.352742
 30
0.0
 10
172.786390
 20
948.703236
 30
0.0
 10
173.099657
 20
947.948264
 30
0.0
 10
173.206167
 20
947.136903
 30
0.0
  0
LWPOLYLINE
  5
115
100
AcDbEntity
  8
Layer_1,_z:2.5
 62
7
100
AcDbPolyline
 90
25
 70
0
 10
94.818492
 20
1044.535686
 30
0.0
 10
94.711981
 20
1043.724326
 30
0.0
 10
94.398715
 20
1042.969353
 30
0.0
 10
93.900621
 20
1042.320891
 30
0.0
 10
93.252159
 20
1041.822797
 30
0.0
 10
92.497186
 20
1041.509530
 30
0.0
 10
91.685825
 20
1041.403020
 30
0.0
 10
90.875509
 20
1041.509530
 30
0.0
 10
90.119492
 20
1041.822797
 30
0.0
 10
89.471030
 20
1042.320891
 30
0.0
 10
88.972936
 20
1042.969353
 30
0.0
 10
88.659669
 20
1043.724326
 30
0.0
 10
88.553159
 20
1044.535686
 30
0.0
 10
88.659669
 20
1045.346003
 30
0.0
 10
88.972936
 20
1046.102020
 30
0.0
 10
89.471030
 20
1046.750482
 30
0.0
 10
90.119492
 20
1047.248576
 30
0.0
 10
90.875509
 20
1047.561842
 30
0.0
 10
91.685825
 20
1047.668353
 30
0.0
 10
92.497186
 20
1047.561842
 30
0.0
 10
93.252159
 20
1047.248576
 30
0.0
 10
93.900621
 20
1046.750482
 30
0.0
 10
94.398715
 20
1046.102020
 30
0.0
 10
94.711981
 20
1045.346003
 30
0.0
 10
94.818492
 20
1044.535686
 30
0.0
  0
LWPOLYLINE
  5
116
100
AcDbEntity
  8
Layer_1,_z:2.5
 62
7
100
AcDbPolyline
 90
25
 70
0
 10
97.201407
 20
1034.359741
 30
0.0
 10
97.093852
 20
1033.549424
 30
0.0
 10
96.781630
 20
1032.793408
 30
0.0
 10
96.283536
 20
1032.144946
 30
0.0
 10
95.635074
 20
1031.646852
 30
0.0
 10
94.879057
 20
1031.333585
 30
0.0
 10
94.068741
 20
1031.227074
 30
0.0
 10
93.257380
 20
1031.333585
 30
0.0
 10
92.502407
 20
1031.646852
 30
0.0
 10
91.852901
 20
1032.144946
 30
0.0
 10
91.355851
 20
1032.793408
 30
0.0
 10
91.042585
 20
1033.549424
 30
0.0
 10
90.936074
 20
1034.359741
 30
0.0
 10
91.042585
 20
1035.170057
 30
0.0
 10
91.355851
 20
1035.926074
 30
0.0
 10
91.852901
 20
1036.574536
 30
0.0
 10
92.502407
 20
1037.072630
 30
0.0
 10
93.257380
 20
1037.385897
 30
0.0
 10
94.068741
 20
1037.492408
 30
0.0
 10
94.879057
 20
1037.385897
 30
0.0
 10
95.635074
 20
1037.072630
 30
0.0
 10
96.283536
 20
1036.574536
 30
0.0
 10
96.781630
 20
1035.926074
 30
0.0
 10
97.093852
 20
1035.170057
 30
0.0
 10
97.201407
 20
1034.359741
 30
0.0
  0
LWPOLYLINE
  5
117
100
AcDbEntity
  8
Layer_1,_z:2.5
 62
7
100
AcDbPolyline
 90
25
 70
0
 10
202.113371
 20
945.490164
 30
0.0
 10
202.006860
 20
944.679848
 30
0.0
 10
201.693594
 20
943.923831
 30
0.0
 10
201.196544
 20
943.275369
 30
0.0
 10
200.547038
 20
942.777275
 30
0.0
 10
199.792065
 20
942.465053
 30
0.0
 10
198.980704
 20
942.357498
 30
0.0
 10
198.170388
 20
942.465053
 30
0.0
 10
197.414371
 20
942.777275
 30
0.0
 10
196.765909
 20
943.275369
 30
0.0
 10
196.267815
 20
943.923831
 30
0.0
 10
195.954548
 20
944.679848
 30
0.0
 10
195.848038
 20
945.490164
 30
0.0
 10
195.954548
 20
946.301525
 30
0.0
 10
196.267815
 20
947.056498
 30
0.0
 10
196.765909
 20
947.706004
 30
0.0
 10
197.414371
 20
948.204098
 30
0.0
 10
198.170388
 20
948.516320
 30
0.0
 10
198.980704
 20
948.622831
 30
0.0
 10
199.792065
 20
948.516320
 30
0.0
 10
200.547038
 20
948.204098
 30
0.0
 10
201.196544
 20
947.706004
 30
0.0
 10
201.693594
 20
947.056498
 30
0.0
 10
202.006860
 20
946.301525
 30
0.0
 10
202.113371
 20
945.490164
 30
0.0
  0
LWPOLYLINE
  5
118
100
AcDbEntity
  8
Layer_1,_z:2.5
 62
7
100
AcDbPolyline
 90
25
 70
0
 10
267.580883
 20
984.318524
 30
0.0
 10
267.474373
 20
983.507163
 30
0.0
 10
267.161106
 20
982.752190
 30
0.0
 10
266.663012
 20
982.102684
 30
0.0
 10
266.014550
 20
981.605634
 30
0.0
 10
265.259577
 20
981.292368
 30
0.0
 10
264.448217
 20
981.185857
 30
0.0
 10
263.637900
 20
981.292368
 30
0.0
 10
262.881883
 20
981.605634
 30
0.0
 10
262.233421
 20
982.102684
 30
0.0
 10
261.735327
 20
982.752190
 30
0.0
 10
261.422061
 20
983.507163
 30
0.0
 10
261.315550
 20
984.318524
 30
0.0
 10
261.422061
 20
985.128840
 30
0.0
 10
261.735327
 20
985.884857
 30
0.0
 10
262.233421
 20
986.533319
 30
0.0
 10
262.881883
 20
987.031413
 30
0.0
 10
263.637900
 20
987.343635
 30
0.0
 10
264.448217
 20
987.451190
 30
0.0
 10
265.259577
 20
987.343635
 30
0.0
 10
266.014550
 20
987.031413
 30
0.0
 10
266.663012
 20
986.533319
 30
0.0
 10
267.161106
 20
985.884857
 30
0.0
 10
267.474373
 20
985.128840
 30
0.0
 10
267.580883
 20
984.318524
 30
0.0
  0
LWPOLYLINE
  5
119
100
AcDbEntity
  8
Layer_1,_z:2.5
 62
7
100
AcDbPolyline
 90
25
 70
0
 10
103.149297
 20
1020.098798
 30
0.0
 10
103.042786
 20
1019.288482
 30
0.0
 10
102.729520
 20
1018.532465
 30
0.0
 10
102.232470
 20
1017.884003
 30
0.0
 10
101.582964
 20
1017.385909
 30
0.0
 10
100.827991
 20
1017.073686
 30
0.0
 10
100.016630
 20
1016.966131
 30
0.0
 10
99.206314
 20
1017.073686
 30
0.0
 10
98.450297
 20
1017.385909
 30
0.0
 10
97.801835
 20
1017.884003
 30
0.0
 10
97.303741
 20
1018.532465
 30
0.0
 10
96.990474
 20
1019.288482
 30
0.0
 10
96.883964
 20
1020.098798
 30
0.0
 10
96.990474
 20
1020.910159
 30
0.0
 10
97.303741
 20
1021.665131
 30
0.0
 10
97.801835
 20
1022.314638
 30
0.0
 10
98.450297
 20
1022.812732
 30
0.0
 10
99.206314
 20
1023.124954
 30
0.0
 10
100.016630
 20
1023.231465
 30
0.0
 10
100.827991
 20
1023.124954
 30
0.0
 10
101.582964
 20
1022.812732
 30
0.0
 10
102.232470
 20
1022.314638
 30
0.0
 10
102.729520
 20
1021.665131
 30
0.0
 10
103.042786
 20
1020.910159
 30
0.0
 10
103.149297
 20
1020.098798
 30
0.0
  0
LWPOLYLINE
  5
11a
100
AcDbEntity
  8
Layer_1,_z:2.5
 62
7
100
AcDbPolyline
 90
25
 70
0
 10
122.294069
 20
984.430255
 30
0.0
 10
122.186514
 20
983.619939
 30
0.0
 10
121.874291
 20
982.863922
 30
0.0
 10
121.376197
 20
982.215460
 30
0.0
 10
120.727735
 20
981.717366
 30
0.0
 10
119.971718
 20
981.404099
 30
0.0
 10
119.161402
 20
981.297589
 30
0.0
 10
118.350041
 20
981.404099
 30
0.0
 10
117.595069
 20
981.717366
 30
0.0
 10
116.945562
 20
982.215460
 30
0.0
 10
116.448513
 20
982.863922
 30
0.0
 10
116.135246
 20
983.619939
 30
0.0
 10
116.028735
 20
984.430255
 30
0.0
 10
116.135246
 20
985.241616
 30
0.0
 10
116.448513
 20
985.996589
 30
0.0
 10
116.945562
 20
986.645051
 30
0.0
 10
117.595069
 20
987.143145
 30
0.0
 10
118.350041
 20
987.456411
 30
0.0
 10
119.161402
 20
987.562922
 30
0.0
 10
119.971718
 20
987.456411
 30
0.0
 10
120.727735
 20
987.143145
 30
0.0
 10
121.376197
 20
986.645051
 30
0.0
 10
121.874291
 20
985.996589
 30
0.0
 10
122.186514
 20
985.241616
 30
0.0
 10
122.294069
 20
984.430255
 30
0.0
  0
LWPOLYLINE
  5
11b
100
AcDbEntity
  8
Layer_1,_z:2.5
 62
7
100
AcDbPolyline
 90
25
 70
0
 10
125.600076
 20
970.787492
 30
0.0
 10
124.951614
 20
971.284542
 30
0.0
 10
124.453520
 20
971.934048
 30
0.0
 10
124.140254
 20
972.689021
 30
0.0
 10
124.033743
 20
973.500381
 30
0.0
 10
124.140254
 20
974.310698
 30
0.0
 10
124.453520
 20
975.066715
 30
0.0
 10
124.951614
 20
975.715177
 30
0.0
 10
125.600076
 20
976.213271
 30
0.0
 10
126.356093
 20
976.526537
 30
0.0
 10
127.166410
 20
976.633048
 30
0.0
 10
127.977770
 20
976.526537
 30
0.0
 10
128.732743
 20
976.213271
 30
0.0
 10
129.381205
 20
975.715177
 30
0.0
 10
129.879299
 20
975.066715
 30
0.0
 10
130.192566
 20
974.310698
 30
0.0
 10
130.299076
 20
973.500381
 30
0.0
 10
130.192566
 20
972.689021
 30
0.0
 10
129.879299
 20
971.934048
 30
0.0
 10
129.381205
 20
971.284542
 30
0.0
 10
128.732743
 20
970.787492
 30
0.0
 10
127.977770
 20
970.474225
 30
0.0
 10
127.166410
 20
970.367715
 30
0.0
 10
126.356093
 20
970.474225
 30
0.0
 10
125.600076
 20
970.787492
 30
0.0
  0
LWPOLYLINE
  5
11c
100
AcDbEntity
  8
Layer_1,_z:2.5
 62
7
100
AcDbPolyline
 90
25
 70
0
 10
151.989660
 20
955.542892
 30
0.0
 10
151.883150
 20
954.732575
 30
0.0
 10
151.569883
 20
953.976558
 30
0.0
 10
151.072833
 20
953.328096
 30
0.0
 10
150.423327
 20
952.830002
 30
0.0
 10
149.668354
 20
952.516736
 30
0.0
 10
148.856994
 20
952.410225
 30
0.0
 10
148.046677
 20
952.516736
 30
0.0
 10
147.290660
 20
952.830002
 30
0.0
 10
146.642198
 20
953.328096
 30
0.0
 10
146.144104
 20
953.976558
 30
0.0
 10
145.831882
 20
954.732575
 30
0.0
 10
145.724327
 20
955.542892
 30
0.0
 10
145.831882
 20
956.354252
 30
0.0
 10
146.144104
 20
957.109225
 30
0.0
 10
146.642198
 20
957.757687
 30
0.0
 10
147.290660
 20
958.255781
 30
0.0
 10
148.046677
 20
958.569048
 30
0.0
 10
148.856994
 20
958.675558
 30
0.0
 10
149.668354
 20
958.569048
 30
0.0
 10
150.423327
 20
958.255781
 30
0.0
 10
151.072833
 20
957.757687
 30
0.0
 10
151.569883
 20
957.109225
 30
0.0
 10
151.883150
 20
956.354252
 30
0.0
 10
151.989660
 20
955.542892
 30
0.0
  0
LWPOLYLINE
  5
11d
100
AcDbEntity
  8
Layer_1,_z:2.5
 62
7
100
AcDbPolyline
 90
25
 70
0
 10
186.153479
 20
942.304242
 30
0.0
 10
186.046968
 20
941.493926
 30
0.0
 10
185.733701
 20
940.737909
 30
0.0
 10
185.236652
 20
940.089447
 30
0.0
 10
184.587145
 20
939.591353
 30
0.0
 10
183.832173
 20
939.279131
 30
0.0
 10
183.020812
 20
939.171576
 30
0.0
 10
182.210496
 20
939.279131
 30
0.0
 10
181.454479
 20
939.591353
 30
0.0
 10
180.806017
 20
940.089447
 30
0.0
 10
180.307923
 20
940.737909
 30
0.0
 10
179.995700
 20
941.493926
 30
0.0
 10
179.888145
 20
942.304242
 30
0.0
 10
179.995700
 20
943.115603
 30
0.0
 10
180.307923
 20
943.870576
 30
0.0
 10
180.806017
 20
944.520082
 30
0.0
 10
181.454479
 20
945.017132
 30
0.0
 10
182.210496
 20
945.330398
 30
0.0
 10
183.020812
 20
945.436909
 30
0.0
 10
183.832173
 20
945.330398
 30
0.0
 10
184.587145
 20
945.017132
 30
0.0
 10
185.236652
 20
944.520082
 30
0.0
 10
185.733701
 20
943.870576
 30
0.0
 10
186.046968
 20
943.115603
 30
0.0
 10
186.153479
 20
942.304242
 30
0.0
  0
LWPOLYLINE
  5
11e
100
AcDbEntity
  8
Layer_1,_z:2.5
 62
7
100
AcDbPolyline
 90
25
 70
0
 10
229.430224
 20
950.948314
 30
0.0
 10
229.323714
 20
950.137998
 30
0.0
 10
229.010447
 20
949.381981
 30
0.0
 10
228.513397
 20
948.733519
 30
0.0
 10
227.863891
 20
948.235425
 30
0.0
 10
227.108918
 20
947.922158
 30
0.0
 10
226.297558
 20
947.815647
 30
0.0
 10
225.487241
 20
947.922158
 30
0.0
 10
224.731224
 20
948.235425
 30
0.0
 10
224.082762
 20
948.733519
 30
0.0
 10
223.584668
 20
949.381981
 30
0.0
 10
223.272446
 20
950.137998
 30
0.0
 10
223.164891
 20
950.948314
 30
0.0
 10
223.272446
 20
951.758630
 30
0.0
 10
223.584668
 20
952.514647
 30
0.0
 10
224.082762
 20
953.163109
 30
0.0
 10
224.731224
 20
953.661203
 30
0.0
 10
225.487241
 20
953.974470
 30
0.0
 10
226.297558
 20
954.080981
 30
0.0
 10
227.108918
 20
953.974470
 30
0.0
 10
227.863891
 20
953.661203
 30
0.0
 10
228.513397
 20
953.163109
 30
0.0
 10
229.010447
 20
952.514647
 30
0.0
 10
229.323714
 20
951.758630
 30
0.0
 10
229.430224
 20
950.948314
 30
0.0
  0
LWPOLYLINE
  5
11f
100
AcDbEntity
  8
Layer_1,_z:2.5
 62
7
100
AcDbPolyline
 90
25
 70
0
 10
274.491546
 20
993.156820
 30
0.0
 10
274.385035
 20
992.346504
 30
0.0
 10
274.071769
 20
991.590487
 30
0.0
 10
273.573675
 20
990.942025
 30
0.0
 10
272.925213
 20
990.443931
 30
0.0
 10
272.169196
 20
990.130664
 30
0.0
 10
271.358879
 20
990.024154
 30
0.0
 10
270.547519
 20
990.130664
 30
0.0
 10
269.792546
 20
990.443931
 30
0.0
 10
269.144084
 20
990.942025
 30
0.0
 10
268.645990
 20
991.590487
 30
0.0
 10
268.332723
 20
992.346504
 30
0.0
 10
268.226213
 20
993.156820
 30
0.0
 10
268.332723
 20
993.968181
 30
0.0
 10
268.645990
 20
994.723154
 30
0.0
 10
269.144084
 20
995.371616
 30
0.0
 10
269.792546
 20
995.869710
 30
0.0
 10
270.547519
 20
996.182976
 30
0.0
 10
271.358879
 20
996.289487
 30
0.0
 10
272.169196
 20
996.182976
 30
0.0
 10
272.925213
 20
995.869710
 30
0.0
 10
273.573675
 20
995.371616
 30
0.0
 10
274.071769
 20
994.723154
 30
0.0
 10
274.385035
 20
993.968181
 30
0.0
 10
274.491546
 20
993.156820
 30
0.0
  0
LWPOLYLINE
  5
120
100
AcDbEntity
  8
Layer_1,_z:2.5
 62
7
100
AcDbPolyline
 90
25
 70
0
 10
84.994449
 20
1077.962284
 30
0.0
 10
85.750466
 20
1078.275551
 30
0.0
 10
86.560783
 20
1078.382061
 30
0.0
 10
87.372143
 20
1078.275551
 30
0.0
 10
88.127116
 20
1077.962284
 30
0.0
 10
88.776622
 20
1077.464190
 30
0.0
 10
89.273672
 20
1076.815728
 30
0.0
 10
89.586939
 20
1076.060755
 30
0.0
 10
89.693449
 20
1075.249395
 30
0.0
 10
89.586939
 20
1074.439078
 30
0.0
 10
89.273672
 20
1073.683061
 30
0.0
 10
88.776622
 20
1073.034599
 30
0.0
 10
88.127116
 20
1072.536505
 30
0.0
 10
87.372143
 20
1072.223239
 30
0.0
 10
86.560783
 20
1072.116728
 30
0.0
 10
85.750466
 20
1072.223239
 30
0.0
 10
84.994449
 20
1072.536505
 30
0.0
 10
84.345987
 20
1073.034599
 30
0.0
 10
83.847893
 20
1073.683061
 30
0.0
 10
83.535671
 20
1074.439078
 30
0.0
 10
83.428116
 20
1075.249395
 30
0.0
 10
83.535671
 20
1076.060755
 30
0.0
 10
83.847893
 20
1076.815728
 30
0.0
 10
84.345987
 20
1077.464190
 30
0.0
 10
84.994449
 20
1077.962284
 30
0.0
  0
LWPOLYLINE
  5
121
100
AcDbEntity
  8
Layer_1,_z:2.5
 62
7
100
AcDbPolyline
 90
25
 70
0
 10
94.194047
 20
1064.669335
 30
0.0
 10
93.439075
 20
1064.981558
 30
0.0
 10
92.789568
 20
1065.479652
 30
0.0
 10
92.291474
 20
1066.128114
 30
0.0
 10
91.979252
 20
1066.884130
 30
0.0
 10
91.872741
 20
1067.694447
 30
0.0
 10
91.979252
 20
1068.505808
 30
0.0
 10
92.291474
 20
1069.260780
 30
0.0
 10
92.789568
 20
1069.910286
 30
0.0
 10
93.439075
 20
1070.407336
 30
0.0
 10
94.194047
 20
1070.720603
 30
0.0
 10
95.005408
 20
1070.827114
 30
0.0
 10
95.815724
 20
1070.720603
 30
0.0
 10
96.571741
 20
1070.407336
 30
0.0
 10
97.220203
 20
1069.910286
 30
0.0
 10
97.718297
 20
1069.260780
 30
0.0
 10
98.030520
 20
1068.505808
 30
0.0
 10
98.138075
 20
1067.694447
 30
0.0
 10
98.030520
 20
1066.884130
 30
0.0
 10
97.718297
 20
1066.128114
 30
0.0
 10
97.220203
 20
1065.479652
 30
0.0
 10
96.571741
 20
1064.981558
 30
0.0
 10
95.815724
 20
1064.669335
 30
0.0
 10
95.005408
 20
1064.561780
 30
0.0
 10
94.194047
 20
1064.669335
 30
0.0
  0
LWPOLYLINE
  5
122
100
AcDbEntity
  8
Layer_1,_z:2.5
 62
7
100
AcDbPolyline
 90
25
 70
0
 10
116.304410
 20
992.217020
 30
0.0
 10
116.197899
 20
991.406704
 30
0.0
 10
115.884633
 20
990.650687
 30
0.0
 10
115.386539
 20
990.002225
 30
0.0
 10
114.738077
 20
989.504131
 30
0.0
 10
113.983104
 20
989.190864
 30
0.0
 10
113.171743
 20
989.084354
 30
0.0
 10
112.361427
 20
989.190864
 30
0.0
 10
111.605410
 20
989.504131
 30
0.0
 10
110.956948
 20
990.002225
 30
0.0
 10
110.458854
 20
990.650687
 30
0.0
 10
110.145587
 20
991.406704
 30
0.0
 10
110.039077
 20
992.217020
 30
0.0
 10
110.145587
 20
993.028381
 30
0.0
 10
110.458854
 20
993.783354
 30
0.0
 10
110.956948
 20
994.432860
 30
0.0
 10
111.605410
 20
994.929910
 30
0.0
 10
112.361427
 20
995.243176
 30
0.0
 10
113.171743
 20
995.349687
 30
0.0
 10
113.983104
 20
995.243176
 30
0.0
 10
114.738077
 20
994.929910
 30
0.0
 10
115.386539
 20
994.432860
 30
0.0
 10
115.884633
 20
993.783354
 30
0.0
 10
116.197899
 20
993.028381
 30
0.0
 10
116.304410
 20
992.217020
 30
0.0
  0
LWPOLYLINE
  5
123
100
AcDbEntity
  8
Layer_1,_z:2.5
 62
7
100
AcDbPolyline
 90
25
 70
0
 10
136.256364
 20
966.765148
 30
0.0
 10
136.149853
 20
965.953787
 30
0.0
 10
135.836587
 20
965.198815
 30
0.0
 10
135.338493
 20
964.549308
 30
0.0
 10
134.690031
 20
964.051214
 30
0.0
 10
133.935058
 20
963.738992
 30
0.0
 10
133.123697
 20
963.632481
 30
0.0
 10
132.313381
 20
963.738992
 30
0.0
 10
131.557364
 20
964.051214
 30
0.0
 10
130.908902
 20
964.549308
 30
0.0
 10
130.410808
 20
965.198815
 30
0.0
 10
130.097541
 20
965.953787
 30
0.0
 10
129.991031
 20
966.765148
 30
0.0
 10
130.097541
 20
967.575464
 30
0.0
 10
130.410808
 20
968.331481
 30
0.0
 10
130.908902
 20
968.979943
 30
0.0
 10
131.557364
 20
969.478037
 30
0.0
 10
132.313381
 20
969.790260
 30
0.0
 10
133.123697
 20
969.897815
 30
0.0
 10
133.935058
 20
969.790260
 30
0.0
 10
134.690031
 20
969.478037
 30
0.0
 10
135.338493
 20
968.979943
 30
0.0
 10
135.836587
 20
968.331481
 30
0.0
 10
136.149853
 20
967.575464
 30
0.0
 10
136.256364
 20
966.765148
 30
0.0
  0
LWPOLYLINE
  5
124
100
AcDbEntity
  8
Layer_1,_z:2.5
 62
7
100
AcDbPolyline
 90
25
 70
0
 10
240.383071
 20
957.873596
 30
0.0
 10
240.276561
 20
957.063279
 30
0.0
 10
239.963294
 20
956.307262
 30
0.0
 10
239.465200
 20
955.658800
 30
0.0
 10
238.816738
 20
955.160706
 30
0.0
 10
238.060721
 20
954.848484
 30
0.0
 10
237.250405
 20
954.740929
 30
0.0
 10
236.440088
 20
954.848484
 30
0.0
 10
235.684071
 20
955.160706
 30
0.0
 10
235.035609
 20
955.658800
 30
0.0
 10
234.537515
 20
956.307262
 30
0.0
 10
234.224249
 20
957.063279
 30
0.0
 10
234.117738
 20
957.873596
 30
0.0
 10
234.224249
 20
958.684956
 30
0.0
 10
234.537515
 20
959.439929
 30
0.0
 10
235.035609
 20
960.089435
 30
0.0
 10
235.684071
 20
960.587529
 30
0.0
 10
236.440088
 20
960.899752
 30
0.0
 10
237.250405
 20
961.006262
 30
0.0
 10
238.060721
 20
960.899752
 30
0.0
 10
238.816738
 20
960.587529
 30
0.0
 10
239.465200
 20
960.089435
 30
0.0
 10
239.963294
 20
959.439929
 30
0.0
 10
240.276561
 20
958.684956
 30
0.0
 10
240.383071
 20
957.873596
 30
0.0
  0
LWPOLYLINE
  5
125
100
AcDbEntity
  8
Layer_1,_z:2.5
 62
7
100
AcDbPolyline
 90
25
 70
0
 10
249.801956
 20
964.655819
 30
0.0
 10
249.695445
 20
963.844458
 30
0.0
 10
249.382178
 20
963.089486
 30
0.0
 10
248.885129
 20
962.439980
 30
0.0
 10
248.235622
 20
961.941886
 30
0.0
 10
247.480650
 20
961.629663
 30
0.0
 10
246.669289
 20
961.523152
 30
0.0
 10
245.858973
 20
961.629663
 30
0.0
 10
245.102956
 20
961.941886
 30
0.0
 10
244.454494
 20
962.439980
 30
0.0
 10
243.956400
 20
963.089486
 30
0.0
 10
243.644177
 20
963.844458
 30
0.0
 10
243.536622
 20
964.655819
 30
0.0
 10
243.644177
 20
965.466136
 30
0.0
 10
243.956400
 20
966.222152
 30
0.0
 10
244.454494
 20
966.870614
 30
0.0
 10
245.102956
 20
967.368708
 30
0.0
 10
245.858973
 20
967.680931
 30
0.0
 10
246.669289
 20
967.788486
 30
0.0
 10
247.480650
 20
967.680931
 30
0.0
 10
248.235622
 20
967.368708
 30
0.0
 10
248.885129
 20
966.870614
 30
0.0
 10
249.382178
 20
966.222152
 30
0.0
 10
249.695445
 20
965.466136
 30
0.0
 10
249.801956
 20
964.655819
 30
0.0
  0
LWPOLYLINE
  5
126
100
AcDbEntity
  8
Layer_1,_z:2.5
 62
7
100
AcDbPolyline
 90
25
 70
0
 10
257.617959
 20
974.215674
 30
0.0
 10
257.511448
 20
973.405357
 30
0.0
 10
257.198182
 20
972.649340
 30
0.0
 10
256.700088
 20
972.000878
 30
0.0
 10
256.051626
 20
971.502784
 30
0.0
 10
255.295609
 20
971.189518
 30
0.0
 10
254.485292
 20
971.083007
 30
0.0
 10
253.674976
 20
971.189518
 30
0.0
 10
252.918959
 20
971.502784
 30
0.0
 10
252.270497
 20
972.000878
 30
0.0
 10
251.772403
 20
972.649340
 30
0.0
 10
251.459136
 20
973.405357
 30
0.0
 10
251.352626
 20
974.215674
 30
0.0
 10
251.459136
 20
975.027034
 30
0.0
 10
251.772403
 20
975.782007
 30
0.0
 10
252.270497
 20
976.430469
 30
0.0
 10
252.918959
 20
976.928563
 30
0.0
 10
253.674976
 20
977.241830
 30
0.0
 10
254.485292
 20
977.348340
 30
0.0
 10
255.295609
 20
977.241830
 30
0.0
 10
256.051626
 20
976.928563
 30
0.0
 10
256.700088
 20
976.430469
 30
0.0
 10
257.198182
 20
975.782007
 30
0.0
 10
257.511448
 20
975.027034
 30
0.0
 10
257.617959
 20
974.215674
 30
0.0
  0
LWPOLYLINE
  5
127
100
AcDbEntity
  8
Layer_1,_z:2.5
 62
7
100
AcDbPolyline
 90
25
 70
0
 10
284.400171
 20
1007.249644
 30
0.0
 10
284.292616
 20
1006.438283
 30
0.0
 10
283.980393
 20
1005.683310
 30
0.0
 10
283.482299
 20
1005.033804
 30
0.0
 10
282.833837
 20
1004.536754
 30
0.0
 10
282.077820
 20
1004.223488
 30
0.0
 10
281.267504
 20
1004.116977
 30
0.0
 10
280.456143
 20
1004.223488
 30
0.0
 10
279.701171
 20
1004.536754
 30
0.0
 10
279.051664
 20
1005.033804
 30
0.0
 10
278.554615
 20
1005.683310
 30
0.0
 10
278.241348
 20
1006.438283
 30
0.0
 10
278.134837
 20
1007.249644
 30
0.0
 10
278.241348
 20
1008.059960
 30
0.0
 10
278.554615
 20
1008.815977
 30
0.0
 10
279.051664
 20
1009.464439
 30
0.0
 10
279.701171
 20
1009.962533
 30
0.0
 10
280.456143
 20
1010.274755
 30
0.0
 10
281.267504
 20
1010.382310
 30
0.0
 10
282.077820
 20
1010.274755
 30
0.0
 10
282.833837
 20
1009.962533
 30
0.0
 10
283.482299
 20
1009.464439
 30
0.0
 10
283.980393
 20
1008.815977
 30
0.0
 10
284.292616
 20
1008.059960
 30
0.0
 10
284.400171
 20
1007.249644
 30
0.0
  0
LWPOLYLINE
  5
128
100
AcDbEntity
  8
Layer_1,_z:2.5
 62
7
100
AcDbPolyline
 90
25
 70
0
 10
219.172830
 20
945.936047
 30
0.0
 10
219.066319
 20
945.125731
 30
0.0
 10
218.753052
 20
944.369714
 30
0.0
 10
218.254958
 20
943.721252
 30
0.0
 10
217.606496
 20
943.223158
 30
0.0
 10
216.850479
 20
942.909891
 30
0.0
 10
216.040163
 20
942.803381
 30
0.0
 10
215.229846
 20
942.909891
 30
0.0
 10
214.473830
 20
943.223158
 30
0.0
 10
213.825368
 20
943.721252
 30
0.0
 10
213.327274
 20
944.369714
 30
0.0
 10
213.014007
 20
945.125731
 30
0.0
 10
212.907496
 20
945.936047
 30
0.0
 10
213.014007
 20
946.746364
 30
0.0
 10
213.327274
 20
947.502381
 30
0.0
 10
213.825368
 20
948.150843
 30
0.0
 10
214.473830
 20
948.648937
 30
0.0
 10
215.229846
 20
948.962203
 30
0.0
 10
216.040163
 20
949.068714
 30
0.0
 10
216.850479
 20
948.962203
 30
0.0
 10
217.606496
 20
948.648937
 30
0.0
 10
218.254958
 20
948.150843
 30
0.0
 10
218.753052
 20
947.502381
 30
0.0
 10
219.066319
 20
946.746364
 30
0.0
 10
219.172830
 20
945.936047
 30
0.0
  0
LWPOLYLINE
  5
129
100
AcDbEntity
  8
Layer_1,_z:2.5
 62
7
100
AcDbPolyline
 90
25
 70
0
 10
109.193257
 20
1002.923431
 30
0.0
 10
109.085702
 20
1002.112070
 30
0.0
 10
108.773479
 20
1001.357098
 30
0.0
 10
108.275385
 20
1000.707591
 30
0.0
 10
107.626923
 20
1000.209497
 30
0.0
 10
106.870905
 20
999.897275
 30
0.0
 10
106.060589
 20
999.790764
 30
0.0
 10
105.249228
 20
999.897275
 30
0.0
 10
104.494255
 20
1000.209497
 30
0.0
 10
103.844749
 20
1000.707591
 30
0.0
 10
103.347699
 20
1001.357098
 30
0.0
 10
103.034433
 20
1002.112070
 30
0.0
 10
102.927922
 20
1002.923431
 30
0.0
 10
103.034433
 20
1003.733747
 30
0.0
 10
103.347699
 20
1004.489764
 30
0.0
 10
103.844749
 20
1005.138226
 30
0.0
 10
104.494255
 20
1005.636320
 30
0.0
 10
105.249228
 20
1005.948543
 30
0.0
 10
106.060589
 20
1006.056098
 30
0.0
 10
106.870905
 20
1005.948543
 30
0.0
 10
107.626923
 20
1005.636320
 30
0.0
 10
108.275385
 20
1005.138226
 30
0.0
 10
108.773479
 20
1004.489764
 30
0.0
 10
109.085702
 20
1003.733747
 30
0.0
 10
109.193257
 20
1002.923431
 30
0.0
  0
LWPOLYLINE
  5
12a
100
AcDbEntity
  8
Layer_1,_z:2.5
 62
7
100
AcDbPolyline
 90
25
 70
0
 10
146.015665
 20
960.190725
 30
0.0
 10
145.909154
 20
959.380408
 30
0.0
 10
145.595888
 20
958.624392
 30
0.0
 10
145.097794
 20
957.975930
 30
0.0
 10
144.449332
 20
957.477836
 30
0.0
 10
143.694359
 20
957.165613
 30
0.0
 10
142.882998
 20
957.058058
 30
0.0
 10
142.072682
 20
957.165613
 30
0.0
 10
141.316665
 20
957.477836
 30
0.0
 10
140.668203
 20
957.975930
 30
0.0
 10
140.170109
 20
958.624392
 30
0.0
 10
139.856842
 20
959.380408
 30
0.0
 10
139.750332
 20
960.190725
 30
0.0
 10
139.856842
 20
961.002086
 30
0.0
 10
140.170109
 20
961.757058
 30
0.0
 10
140.668203
 20
962.406564
 30
0.0
 10
141.316665
 20
962.904658
 30
0.0
 10
142.072682
 20
963.216881
 30
0.0
 10
142.882998
 20
963.323392
 30
0.0
 10
143.694359
 20
963.216881
 30
0.0
 10
144.449332
 20
962.904658
 30
0.0
 10
145.097794
 20
962.406564
 30
0.0
 10
145.595888
 20
961.757058
 30
0.0
 10
145.909154
 20
961.002086
 30
0.0
 10
146.015665
 20
960.190725
 30
0.0
  0
LWPOLYLINE
  5
12b
100
AcDbEntity
  8
Layer_1,_z:2.5
 62
7
100
AcDbPolyline
 90
9
 70
0
 10
39.194864
 20
1098.387271
 30
0.0
 10
42.051856
 20
1099.779219
 30
0.0
 10
46.666274
 20
1098.631619
 30
0.0
 10
46.688203
 20
1096.139060
 30
0.0
 10
43.838520
 20
1094.341954
 30
0.0
 10
44.027525
 20
1094.544533
 30
0.0
 10
40.971086
 20
1094.614496
 30
0.0
 10
39.806778
 20
1095.882182
 30
0.0
 10
39.194864
 20
1098.387271
 30
0.0
  0
LWPOLYLINE
  5
12c
100
AcDbEntity
  8
Layer_1,_z:2.5
 62
7
100
AcDbPolyline
 90
9
 70
0
 10
57.022869
 20
1086.441368
 30
0.0
 10
57.969978
 20
1083.975960
 30
0.0
 10
57.969978
 20
1082.352194
 30
0.0
 10
56.078892
 20
1080.977998
 30
0.0
 10
51.909313
 20
1083.911218
 30
0.0
 10
51.908268
 20
1084.114841
 30
0.0
 10
52.659064
 20
1085.726076
 30
0.0
 10
54.743332
 20
1086.901870
 30
0.0
 10
57.022869
 20
1086.441368
 30
0.0
  0
LWPOLYLINE
  5
12d
100
AcDbEntity
  8
Layer_1,_z:2.5
 62
7
100
AcDbPolyline
 90
10
 70
0
 10
57.033311
 20
1048.880695
 30
0.0
 10
56.665745
 20
1048.697956
 30
0.0
 10
55.382396
 20
1046.625175
 30
0.0
 10
53.181175
 20
1046.294157
 30
0.0
 10
51.338123
 20
1047.863623
 30
0.0
 10
51.329769
 20
1049.394452
 30
0.0
 10
51.871721
 20
1051.686520
 30
0.0
 10
54.083383
 20
1051.635353
 30
0.0
 10
55.928524
 20
1050.056489
 30
0.0
 10
57.033311
 20
1048.880695
 30
0.0
  0
LWPOLYLINE
  5
12e
100
AcDbEntity
  8
Layer_1,_z:2.5
 62
7
100
AcDbPolyline
 90
25
 70
0
 10
313.679118
 20
1102.876382
 30
0.0
 10
313.767876
 20
1103.551994
 30
0.0
 10
314.028932
 20
1104.181660
 30
0.0
 10
314.444532
 20
1104.722567
 30
0.0
 10
314.984395
 20
1105.137123
 30
0.0
 10
315.614061
 20
1105.398179
 30
0.0
 10
316.289673
 20
1105.486938
 30
0.0
 10
316.965285
 20
1105.398179
 30
0.0
 10
317.594951
 20
1105.137123
 30
0.0
 10
318.135858
 20
1104.722567
 30
0.0
 10
318.550414
 20
1104.181660
 30
0.0
 10
318.811470
 20
1103.551994
 30
0.0
 10
318.900229
 20
1102.876382
 30
0.0
 10
318.811470
 20
1102.200770
 30
0.0
 10
318.550414
 20
1101.571104
 30
0.0
 10
318.135858
 20
1101.030197
 30
0.0
 10
317.594951
 20
1100.615641
 30
0.0
 10
316.965285
 20
1100.354585
 30
0.0
 10
316.289673
 20
1100.265826
 30
0.0
 10
315.614061
 20
1100.354585
 30
0.0
 10
314.984395
 20
1100.615641
 30
0.0
 10
314.444532
 20
1101.030197
 30
0.0
 10
314.028932
 20
1101.571104
 30
0.0
 10
313.767876
 20
1102.200770
 30
0.0
 10
313.679118
 20
1102.876382
 30
0.0
  0
LWPOLYLINE
  5
12f
100
AcDbEntity
  8
Layer_1,_z:2.5
 62
7
100
AcDbPolyline
 90
25
 70
0
 10
314.137531
 20
1078.519899
 30
0.0
 10
314.048772
 20
1077.844287
 30
0.0
 10
313.787717
 20
1077.214621
 30
0.0
 10
313.373160
 20
1076.673714
 30
0.0
 10
312.832253
 20
1076.259158
 30
0.0
 10
312.202587
 20
1075.998102
 30
0.0
 10
311.526976
 20
1075.909343
 30
0.0
 10
310.851364
 20
1075.998102
 30
0.0
 10
310.221698
 20
1076.259158
 30
0.0
 10
309.681835
 20
1076.673714
 30
0.0
 10
309.266234
 20
1077.214621
 30
0.0
 10
309.006223
 20
1077.844287
 30
0.0
 10
308.916420
 20
1078.519899
 30
0.0
 10
309.006223
 20
1079.195510
 30
0.0
 10
309.266234
 20
1079.825176
 30
0.0
 10
309.681835
 20
1080.366084
 30
0.0
 10
310.221698
 20
1080.780640
 30
0.0
 10
310.851364
 20
1081.041695
 30
0.0
 10
311.526976
 20
1081.130454
 30
0.0
 10
312.202587
 20
1081.041695
 30
0.0
 10
312.832253
 20
1080.780640
 30
0.0
 10
313.373160
 20
1080.366084
 30
0.0
 10
313.787717
 20
1079.825176
 30
0.0
 10
314.048772
 20
1079.195510
 30
0.0
 10
314.137531
 20
1078.519899
 30
0.0
  0
LWPOLYLINE
  5
130
100
AcDbEntity
  8
Layer_1,_z:2.5
 62
7
100
AcDbPolyline
 90
25
 70
0
 10
312.032379
 20
1069.216923
 30
0.0
 10
311.648105
 20
1068.654087
 30
0.0
 10
311.131215
 20
1068.209248
 30
0.0
 10
310.517213
 20
1067.914778
 30
0.0
 10
309.847866
 20
1067.788427
 30
0.0
 10
309.168078
 20
1067.839594
 30
0.0
 10
308.524837
 20
1068.065146
 30
0.0
 10
307.962001
 20
1068.449420
 30
0.0
 10
307.518206
 20
1068.966310
 30
0.0
 10
307.222692
 20
1069.580312
 30
0.0
 10
307.096341
 20
1070.250703
 30
0.0
 10
307.148552
 20
1070.930492
 30
0.0
 10
307.374104
 20
1071.572688
 30
0.0
 10
307.758378
 20
1072.135524
 30
0.0
 10
308.275268
 20
1072.580363
 30
0.0
 10
308.889270
 20
1072.874833
 30
0.0
 10
309.558617
 20
1073.001184
 30
0.0
 10
310.238405
 20
1072.950017
 30
0.0
 10
310.881646
 20
1072.724465
 30
0.0
 10
311.444482
 20
1072.340192
 30
0.0
 10
311.888276
 20
1071.823302
 30
0.0
 10
312.183791
 20
1071.209299
 30
0.0
 10
312.310142
 20
1070.538908
 30
0.0
 10
312.257931
 20
1069.859120
 30
0.0
 10
312.032379
 20
1069.216923
 30
0.0
  0
LWPOLYLINE
  5
131
100
AcDbEntity
  8
Layer_1,_z:2.5
 62
7
100
AcDbPolyline
 90
25
 70
0
 10
298.317564
 20
1041.396754
 30
0.0
 10
298.993176
 20
1041.307996
 30
0.0
 10
299.622842
 20
1041.046940
 30
0.0
 10
300.162705
 20
1040.632384
 30
0.0
 10
300.578306
 20
1040.091477
 30
0.0
 10
300.839361
 20
1039.461811
 30
0.0
 10
300.928120
 20
1038.786199
 30
0.0
 10
300.839361
 20
1038.110587
 30
0.0
 10
300.578306
 20
1037.480921
 30
0.0
 10
300.162705
 20
1036.940014
 30
0.0
 10
299.622842
 20
1036.525458
 30
0.0
 10
298.993176
 20
1036.264402
 30
0.0
 10
298.317564
 20
1036.175643
 30
0.0
 10
297.641953
 20
1036.264402
 30
0.0
 10
297.012287
 20
1036.525458
 30
0.0
 10
296.471380
 20
1036.940014
 30
0.0
 10
296.056823
 20
1037.480921
 30
0.0
 10
295.795768
 20
1038.110587
 30
0.0
 10
295.707009
 20
1038.786199
 30
0.0
 10
295.795768
 20
1039.461811
 30
0.0
 10
296.056823
 20
1040.091477
 30
0.0
 10
296.471380
 20
1040.632384
 30
0.0
 10
297.012287
 20
1041.046940
 30
0.0
 10
297.641953
 20
1041.307996
 30
0.0
 10
298.317564
 20
1041.396754
 30
0.0
  0
LWPOLYLINE
  5
132
100
AcDbEntity
  8
Layer_1,_z:2.5
 62
7
100
AcDbPolyline
 90
25
 70
0
 10
285.725289
 20
1019.734364
 30
0.0
 10
285.636530
 20
1020.409976
 30
0.0
 10
285.725289
 20
1021.085588
 30
0.0
 10
285.986344
 20
1021.715254
 30
0.0
 10
286.400900
 20
1022.256161
 30
0.0
 10
286.941808
 20
1022.670717
 30
0.0
 10
287.571474
 20
1022.931773
 30
0.0
 10
288.247085
 20
1023.020532
 30
0.0
 10
288.922697
 20
1022.931773
 30
0.0
 10
289.552363
 20
1022.670717
 30
0.0
 10
290.093270
 20
1022.256161
 30
0.0
 10
290.507826
 20
1021.715254
 30
0.0
 10
290.768882
 20
1021.085588
 30
0.0
 10
290.857641
 20
1020.409976
 30
0.0
 10
290.768882
 20
1019.734364
 30
0.0
 10
290.507826
 20
1019.104698
 30
0.0
 10
290.093270
 20
1018.563791
 30
0.0
 10
289.552363
 20
1018.149235
 30
0.0
 10
288.922697
 20
1017.888180
 30
0.0
 10
288.247085
 20
1017.799421
 30
0.0
 10
287.571474
 20
1017.888180
 30
0.0
 10
286.941808
 20
1018.149235
 30
0.0
 10
286.400900
 20
1018.563791
 30
0.0
 10
285.986344
 20
1019.104698
 30
0.0
 10
285.725289
 20
1019.734364
 30
0.0
  0
LWPOLYLINE
  5
133
100
AcDbEntity
  8
Layer_1,_z:2.5
 62
7
100
AcDbPolyline
 90
25
 70
0
 10
300.930208
 20
1044.895943
 30
0.0
 10
300.389301
 20
1045.311544
 30
0.0
 10
299.974745
 20
1045.851406
 30
0.0
 10
299.713690
 20
1046.481072
 30
0.0
 10
299.624931
 20
1047.156684
 30
0.0
 10
299.713690
 20
1047.832296
 30
0.0
 10
299.974745
 20
1048.461962
 30
0.0
 10
300.389301
 20
1049.002869
 30
0.0
 10
300.930208
 20
1049.418470
 30
0.0
 10
301.559874
 20
1049.678481
 30
0.0
 10
302.235486
 20
1049.767240
 30
0.0
 10
302.911098
 20
1049.678481
 30
0.0
 10
303.540764
 20
1049.418470
 30
0.0
 10
304.081671
 20
1049.002869
 30
0.0
 10
304.496227
 20
1048.461962
 30
0.0
 10
304.757283
 20
1047.832296
 30
0.0
 10
304.846042
 20
1047.156684
 30
0.0
 10
304.757283
 20
1046.481072
 30
0.0
 10
304.496227
 20
1045.851406
 30
0.0
 10
304.081671
 20
1045.311544
 30
0.0
 10
303.540764
 20
1044.895943
 30
0.0
 10
302.911098
 20
1044.635932
 30
0.0
 10
302.235486
 20
1044.546129
 30
0.0
 10
301.559874
 20
1044.635932
 30
0.0
 10
300.930208
 20
1044.895943
 30
0.0
  0
LWPOLYLINE
  5
134
100
AcDbEntity
  8
Layer_1,_z:2.5
 62
7
100
AcDbPolyline
 90
9
 70
0
 10
69.140023
 20
1045.546494
 30
0.0
 10
71.912433
 20
1047.200542
 30
0.0
 10
73.381654
 20
1047.166082
 30
0.0
 10
74.453026
 20
1045.044223
 30
0.0
 10
74.613836
 20
1043.519658
 30
0.0
 10
74.236872
 20
1042.768862
 30
0.0
 10
72.767651
 20
1042.423225
 30
0.0
 10
71.313050
 20
1043.214745
 30
0.0
 10
69.140023
 20
1045.546494
 30
0.0
  0
ENDSEC
  0
SECTION
  2
OBJECTS
  0
DICTIONARY
  5
C
330
0
100
AcDbDictionary
  3
ACAD_GROUP
350
D
  3
ACAD_MLINESTYLE
350
17
  0
DICTIONARY
  5
D
330
C
100
AcDbDictionary
  0
DICTIONARY
  5
1A
330
C
100
AcDbDictionary
  0
DICTIONARY
  5
17
330
C
100
AcDbDictionary
  3
STANDARD
350
18
  0
DICTIONARY
  5
19
330
C
100
AcDbDictionary
  0
ENDSEC
  0
EOF
