  0
SECTION
  2
HEADER
  9
$ACADVER
  1
AC1014
  9
$HANDSEED
  5
FFFF
  9
$MEASUREMENT
 70
     1
  0
ENDSEC
  0
SECTION
  2
TABLES
  0
TABLE
  2
VPORT
  5
8
330
0
100
AcDbSymbolTable
 70
     4
  0
VPORT
  5
2E
330
8
100
AcDbSymbolTableRecord
100
AcDbViewportTableRecord
  2
*ACTIVE
 70
     0
 10
0.0
 20
0.0
 11
1.0
 21
1.0
 12
210.0
 22
148.5
 13
0.0
 23
0.0
 14
10.0
 24
10.0
 15
10.0
 25
10.0
 16
0.0
 26
0.0
 36
1.0
 17
0.0
 27
0.0
 37
0.0
 40
341.0
 41
1.24
 42
50.0
 43
0.0
 44
0.0
 50
0.0
 51
0.0
 71
     0
 72
   100
 73
     1
 74
     3
 75
     0
 76
     0
 77
     0
 78
     0
  0
ENDTAB
  0
TABLE
  2
LTYPE
  5
5
330
0
100
AcDbSymbolTable
 70
     1
  0
LTYPE
  5
14
330
5
100
AcDbSymbolTableRecord
100
AcDbLinetypeTableRecord
  2
BYBLOCK
 70
     0
  3

 72
    65
 73
     0
 40
0.0
  0
LTYPE
  5
15
330
5
100
AcDbSymbolTableRecord
100
AcDbLinetypeTableRecord
  2
BYLAYER
 70
     0
  3

 72
    65
 73
     0
 40
0.0
  0
LTYPE
  5
16
330
5
100
AcDbSymbolTableRecord
100
AcDbLinetypeTableRecord
  2
CONTINUOUS
 70
     0
  3
Solid line
 72
    65
 73
     0
 40
0.0
  0
ENDTAB
  0
TABLE
  2
LAYER
  5
2
100
AcDbSymbolTable
 70
2
  0
LAYER
  5
50
100
AcDbSymbolTableRecord
100
AcDbLayerTableRecord
  2
0
 70
0
  6
CONTINUOUS
  0
LAYER
  5
51
100
AcDbSymbolTableRecord
100
AcDbLayerTableRecord
  2
Layer_1
 70
0
  6
CONTINUOUS
  0
ENDTAB
  0
TABLE
  2
STYLE
  5
3
330
0
100
AcDbSymbolTable
 70
     1
  0
STYLE
  5
11
330
3
100
AcDbSymbolTableRecord
100
AcDbTextStyleTableRecord
  2
STANDARD
 70
     0
 40
0.0
 41
1.0
 50
0.0
 71
     0
 42
2.5
  3
txt
  4

  0
ENDTAB
  0
TABLE
  2
VIEW
  5
6
330
0
100
AcDbSymbolTable
 70
     0
  0
ENDTAB
  0
TABLE
  2
UCS
  5
7
330
0
100
AcDbSymbolTable
 70
     0
  0
ENDTAB
  0
TABLE
  2
APPID
  5
9
330
0
100
AcDbSymbolTable
 70
     2
  0
APPID
  5
12
330
9
100
AcDbSymbolTableRecord
100
AcDbRegAppTableRecord
  2
ACAD
 70
     0
  0
ENDTAB
  0
TABLE
  2
DIMSTYLE
  5
A
330
0
100
AcDbSymbolTable
 70
     1
  0
DIMSTYLE
105
27
330
A
100
AcDbSymbolTableRecord
100
AcDbDimStyleTableRecord
  2
ISO-25
 70
     0
  3

  4

  5

  6

  7

 40
1.0
 41
2.5
 42
0.625
 43
3.75
 44
1.25
 45
0.0
 46
0.0
 47
0.0
 48
0.0
140
2.5
141
2.5
142
0.0
143
0.03937007874016
144
1.0
145
0.0
146
1.0
147
0.625
 71
     0
 72
     0
 73
     0
 74
     0
 75
     0
 76
     0
 77
     1
 78
     8
170
     0
171
     3
172
     1
173
     0
174
     0
175
     0
176
     0
177
     0
178
     0
270
     2
271
     2
272
     2
273
     2
274
     3
340
11
275
     0
280
     0
281
     0
282
     0
283
     0
284
     8
285
     0
286
     0
287
     3
288
     0
  0
ENDTAB
  0
TABLE
  2
BLOCK_RECORD
  5
1
330
0
100
AcDbSymbolTable
 70
     1
  0
BLOCK_RECORD
  5
1F
330
1
100
AcDbSymbolTableRecord
100
AcDbBlockTableRecord
  2
*MODEL_SPACE
  0
BLOCK_RECORD
  5
1B
330
1
100
AcDbSymbolTableRecord
100
AcDbBlockTableRecord
  2
*PAPER_SPACE
  0
ENDTAB
  0
ENDSEC
  0
SECTION
  2
BLOCKS
  0
BLOCK
  5
20
330
1F
100
AcDbEntity
  8
0
100
AcDbBlockBegin
  2
*MODEL_SPACE
 70
     0
 10
0.0
 20
0.0
 30
0.0
  3
*MODEL_SPACE
  1

  0
ENDBLK
  5
21
330
1F
100
AcDbEntity
  8
0
100
AcDbBlockEnd
  0
BLOCK
  5
1C
330
1B
100
AcDbEntity
 67
     1
  8
0
100
AcDbBlockBegin
  2
*PAPER_SPACE
  1

  0
ENDBLK
  5
1D
330
1B
100
AcDbEntity
 67
     1
  8
0
100
AcDbBlockEnd
  0
ENDSEC
  0
SECTION
  2
ENTITIES
  0
SPLINE
  5
100
100
AcDbEntity
  8
Layer_1
 62
7
100
AcDbSpline
 70
8
 71
3
 72
8
 73
4
 74
0
 40
0
 40
0
 40
0
 40
0
 40
1
 40
1
 40
1
 40
1
 10
32.811483
 20
225.918258
 30
0.0
 10
32.333799
 20
225.328405
 30
0.0
 10
32.044191
 20
224.584462
 30
0.0
 10
32.044191
 20
223.766314
 30
0.0
  0
SPLINE
  5
101
100
AcDbEntity
  8
Layer_1
 62
7
100
AcDbSpline
 70
8
 71
3
 72
8
 73
4
 74
0
 40
0
 40
0
 40
0
 40
0
 40
1
 40
1
 40
1
 40
1
 10
32.044191
 20
223.766314
 30
0.0
 10
32.044191
 20
222.948165
 30
0.0
 10
32.333799
 20
222.195403
 30
0.0
 10
32.811483
 20
221.605550
 30
0.0
  0
SPLINE
  5
102
100
AcDbEntity
  8
Layer_1
 62
7
100
AcDbSpline
 70
8
 71
3
 72
8
 73
4
 74
0
 40
0
 40
0
 40
0
 40
0
 40
1
 40
1
 40
1
 40
1
 10
38.147244
 20
221.605550
 30
0.0
 10
38.624928
 20
222.195403
 30
0.0
 10
38.914536
 20
222.948165
 30
0.0
 10
38.914536
 20
223.766314
 30
0.0
  0
SPLINE
  5
103
100
AcDbEntity
  8
Layer_1
 62
7
100
AcDbSpline
 70
8
 71
3
 72
8
 73
4
 74
0
 40
0
 40
0
 40
0
 40
0
 40
1
 40
1
 40
1
 40
1
 10
38.914536
 20
223.766314
 30
0.0
 10
38.914536
 20
224.584462
 30
0.0
 10
38.624928
 20
225.328405
 30
0.0
 10
38.147244
 20
225.918258
 30
0.0
  0
LWPOLYLINE
  5
104
100
AcDbEntity
  8
Layer_1
 62
7
100
AcDbPolyline
 90
2
 70
1
 10
32.811483
 20
221.605550
 30
0.0
 10
38.147244
 20
221.605550
 30
0.0
  0
LWPOLYLINE
  5
105
100
AcDbEntity
  8
Layer_1
 62
7
100
AcDbPolyline
 90
3
 70
1
 10
38.147244
 20
225.918258
 30
0.0
 10
32.811483
 20
225.918258
 30
0.0
 10
32.811483
 20
225.918258
 30
0.0
  0
LWPOLYLINE
  5
106
100
AcDbEntity
  8
Layer_1
 62
7
100
AcDbPolyline
 90
145
 70
1
 10
41.770661
 20
224.407060
 30
0.0
 10
42.130212
 20
224.443749
 30
0.0
 10
42.567092
 20
224.381942
 30
0.0
 10
43.380175
 20
224.031422
 30
0.0
 10
43.380175
 20
223.492377
 30
0.0
 10
42.567092
 20
223.141857
 30
0.0
 10
42.130212
 20
223.080051
 30
0.0
 10
41.770661
 20
223.116740
 30
0.0
 10
41.611770
 20
222.216169
 30
0.0
 10
41.962290
 20
222.127833
 30
0.0
 10
42.351757
 20
221.920400
 30
0.0
 10
42.995788
 20
221.312775
 30
0.0
 10
42.811497
 20
220.806469
 30
0.0
 10
41.927577
 20
220.755104
 30
0.0
 10
41.496059
 20
220.846262
 30
0.0
 10
41.170657
 20
221.004024
 30
0.0
 10
40.713457
 20
220.212109
 30
0.0
 10
41.012612
 20
220.009191
 30
0.0
 10
41.307535
 20
219.680966
 30
0.0
 10
41.704903
 20
218.889615
 30
0.0
 10
41.358617
 20
218.477006
 30
0.0
 10
40.510257
 20
218.731006
 30
0.0
 10
40.136030
 20
218.964404
 30
0.0
 10
39.884288
 20
219.223766
 30
0.0
 10
39.183530
 20
218.635897
 30
0.0
 10
39.395479
 20
218.342951
 30
0.0
 10
39.560297
 20
217.933729
 30
0.0
 10
39.663026
 20
217.054324
 30
0.0
 10
39.196512
 20
216.784802
 30
0.0
 10
38.486159
 20
217.313686
 30
0.0
 10
38.214379
 20
217.661102
 30
0.0
 10
38.066495
 20
217.991020
 30
0.0
 10
37.207128
 20
217.678035
 30
0.0
 10
37.305906
 20
217.330337
 30
0.0
 10
37.320863
 20
216.889506
 30
0.0
 10
37.116535
 20
216.027882
 30
0.0
 10
36.585957
 20
215.934466
 30
0.0
 10
36.099406
 20
216.674171
 30
0.0
 10
35.962810
 20
217.093553
 30
0.0
 10
35.936563
 20
217.454233
 30
0.0
 10
35.022163
 20
217.454233
 30
0.0
 10
34.995917
 20
217.093553
 30
0.0
 10
34.859321
 20
216.674171
 30
0.0
 10
34.372770
 20
215.934466
 30
0.0
 10
33.842192
 20
216.027882
 30
0.0
 10
33.637863
 20
216.889506
 30
0.0
 10
33.652821
 20
217.330337
 30
0.0
 10
33.751599
 20
217.678035
 30
0.0
 10
32.892232
 20
217.991020
 30
0.0
 10
32.744348
 20
217.661102
 30
0.0
 10
32.472568
 20
217.313686
 30
0.0
 10
31.762215
 20
216.784802
 30
0.0
 10
31.295701
 20
217.054324
 30
0.0
 10
31.398430
 20
217.933729
 30
0.0
 10
31.563248
 20
218.342951
 30
0.0
 10
31.775197
 20
218.635897
 30
0.0
 10
31.074439
 20
219.223766
 30
0.0
 10
30.822697
 20
218.964404
 30
0.0
 10
30.448470
 20
218.731006
 30
0.0
 10
29.600110
 20
218.477006
 30
0.0
 10
29.253823
 20
218.889615
 30
0.0
 10
29.651192
 20
219.680966
 30
0.0
 10
29.946115
 20
220.009191
 30
0.0
 10
30.245270
 20
220.212109
 30
0.0
 10
29.788070
 20
221.004024
 30
0.0
 10
29.462668
 20
220.846262
 30
0.0
 10
29.031150
 20
220.755104
 30
0.0
 10
28.147230
 20
220.806469
 30
0.0
 10
27.962939
 20
221.312775
 30
0.0
 10
28.606970
 20
221.920400
 30
0.0
 10
28.996437
 20
222.127833
 30
0.0
 10
29.346957
 20
222.216169
 30
0.0
 10
29.188066
 20
223.116740
 30
0.0
 10
28.828515
 20
223.080051
 30
0.0
 10
28.391635
 20
223.141857
 30
0.0
 10
27.578552
 20
223.492377
 30
0.0
 10
27.578552
 20
224.031422
 30
0.0
 10
28.391635
 20
224.381942
 30
0.0
 10
28.828515
 20
224.443749
 30
0.0
 10
29.188066
 20
224.407060
 30
0.0
 10
29.346957
 20
225.307631
 30
0.0
 10
28.996437
 20
225.395966
 30
0.0
 10
28.606970
 20
225.603400
 30
0.0
 10
27.962939
 20
226.211024
 30
0.0
 10
28.147230
 20
226.717331
 30
0.0
 10
29.031150
 20
226.768695
 30
0.0
 10
29.462668
 20
226.677537
 30
0.0
 10
29.788070
 20
226.519775
 30
0.0
 10
30.245270
 20
227.311691
 30
0.0
 10
29.946115
 20
227.514609
 30
0.0
 10
29.651192
 20
227.842833
 30
0.0
 10
29.253823
 20
228.634184
 30
0.0
 10
29.600110
 20
229.046793
 30
0.0
 10
30.448470
 20
228.792793
 30
0.0
 10
30.822697
 20
228.559395
 30
0.0
 10
31.074439
 20
228.300033
 30
0.0
 10
31.775197
 20
228.887902
 30
0.0
 10
31.563248
 20
229.180849
 30
0.0
 10
31.398430
 20
229.590071
 30
0.0
 10
31.295701
 20
230.469475
 30
0.0
 10
31.762215
 20
230.738997
 30
0.0
 10
32.472568
 20
230.210113
 30
0.0
 10
32.744348
 20
229.862697
 30
0.0
 10
32.892232
 20
229.532780
 30
0.0
 10
33.751599
 20
229.845764
 30
0.0
 10
33.652821
 20
230.193462
 30
0.0
 10
33.637863
 20
230.634293
 30
0.0
 10
33.842192
 20
231.495917
 30
0.0
 10
34.372770
 20
231.589333
 30
0.0
 10
34.859321
 20
230.849629
 30
0.0
 10
34.995917
 20
230.430246
 30
0.0
 10
35.022163
 20
230.069566
 30
0.0
 10
35.936563
 20
230.069566
 30
0.0
 10
35.962810
 20
230.430246
 30
0.0
 10
36.099406
 20
230.849629
 30
0.0
 10
36.585957
 20
231.589333
 30
0.0
 10
37.116535
 20
231.495917
 30
0.0
 10
37.320863
 20
230.634293
 30
0.0
 10
37.305906
 20
230.193462
 30
0.0
 10
37.207128
 20
229.845764
 30
0.0
 10
38.066495
 20
229.532780
 30
0.0
 10
38.214379
 20
229.862697
 30
0.0
 10
38.486159
 20
230.210113
 30
0.0
 10
39.196512
 20
230.738997
 30
0.0
 10
39.663026
 20
230.469475
 30
0.0
 10
39.560297
 20
229.590071
 30
0.0
 10
39.395479
 20
229.180849
 30
0.0
 10
39.183530
 20
228.887902
 30
0.0
 10
39.884288
 20
228.300033
 30
0.0
 10
40.136030
 20
228.559395
 30
0.0
 10
40.510257
 20
228.792793
 30
0.0
 10
41.358617
 20
229.046793
 30
0.0
 10
41.704903
 20
228.634184
 30
0.0
 10
41.307535
 20
227.842833
 30
0.0
 10
41.012612
 20
227.514609
 30
0.0
 10
40.713457
 20
227.311691
 30
0.0
 10
41.170657
 20
226.519775
 30
0.0
 10
41.496059
 20
226.677537
 30
0.0
 10
41.927577
 20
226.768695
 30
0.0
 10
42.811497
 20
226.717331
 30
0.0
 10
42.995788
 20
226.211024
 30
0.0
 10
42.351757
 20
225.603400
 30
0.0
 10
41.962290
 20
225.395966
 30
0.0
 10
41.611770
 20
225.307631
 30
0.0
 10
41.770661
 20
224.407060
 30
0.0
  0
LWPOLYLINE
  5
107
100
AcDbEntity
  8
Layer_1
 62
7
100
AcDbPolyline
 90
433
 70
1
 10
63.135166
 20
224.612234
 30
0.0
 10
63.932161
 20
224.382787
 30
0.0
 10
64.727746
 20
224.076012
 30
0.0
 10
64.727746
 20
223.447785
 30
0.0
 10
63.932161
 20
223.141009
 30
0.0
 10
63.135166
 20
222.911563
 30
0.0
 10
63.104121
 20
222.198669
 30
0.0
 10
63.877975
 20
221.900643
 30
0.0
 10
64.643643
 20
221.525569
 30
0.0
 10
64.588892
 20
220.899883
 30
0.0
 10
63.769601
 20
220.663663
 30
0.0
 10
62.955955
 20
220.504207
 30
0.0
 10
62.862821
 20
219.796958
 30
0.0
 10
63.607606
 20
219.432609
 30
0.0
 10
64.337715
 20
218.992343
 30
0.0
 10
64.228777
 20
218.373712
 30
0.0
 10
63.391988
 20
218.209741
 30
0.0
 10
62.567335
 20
218.121969
 30
0.0
 10
62.412959
 20
217.425445
 30
0.0
 10
63.123312
 20
216.997596
 30
0.0
 10
63.812217
 20
216.495241
 30
0.0
 10
63.649657
 20
215.888463
 30
0.0
 10
62.801861
 20
215.798152
 30
0.0
 10
61.972692
 20
215.782629
 30
0.0
 10
61.758203
 20
215.102192
 30
0.0
 10
62.428481
 20
214.613947
 30
0.0
 10
63.071101
 20
214.053454
 30
0.0
 10
62.856330
 20
213.463327
 30
0.0
 10
62.003737
 20
213.447241
 30
0.0
 10
61.176543
 20
213.503967
 30
0.0
 10
60.903352
 20
212.844696
 30
0.0
 10
61.528757
 20
212.300007
 30
0.0
 10
62.120012
 20
211.685609
 30
0.0
 10
61.854723
 20
211.116367
 30
0.0
 10
61.003823
 20
211.174505
 30
0.0
 10
60.184532
 20
211.303198
 30
0.0
 10
59.855179
 20
210.670456
 30
0.0
 10
60.430630
 20
210.073274
 30
0.0
 10
60.966288
 20
209.409769
 30
0.0
 10
60.652175
 20
208.865927
 30
0.0
 10
59.809741
 20
208.998007
 30
0.0
 10
59.004843
 20
209.197538
 30
0.0
 10
58.621586
 20
208.595841
 30
0.0
 10
59.142568
 20
207.950681
 30
0.0
 10
59.618395
 20
207.242867
 30
0.0
 10
59.257997
 20
206.728658
 30
0.0
 10
58.430239
 20
206.933552
 30
0.0
 10
57.645943
 20
207.202509
 30
0.0
 10
57.211603
 20
206.636654
 30
0.0
 10
57.674448
 20
205.948596
 30
0.0
 10
58.086775
 20
205.202118
 30
0.0
 10
57.682915
 20
204.720929
 30
0.0
 10
56.876323
 20
204.997225
 30
0.0
 10
56.118275
 20
205.333634
 30
0.0
 10
55.636239
 20
204.807572
 30
0.0
 10
56.037559
 20
204.081696
 30
0.0
 10
56.382999
 20
203.302198
 30
0.0
 10
55.939063
 20
202.858263
 30
0.0
 10
55.159566
 20
203.203703
 30
0.0
 10
54.433690
 20
203.605023
 30
0.0
 10
53.907628
 20
203.122987
 30
0.0
 10
54.244037
 20
202.364938
 30
0.0
 10
54.520332
 20
201.558347
 30
0.0
 10
54.039143
 20
201.154487
 30
0.0
 10
53.292666
 20
201.566814
 30
0.0
 10
52.604608
 20
202.029658
 30
0.0
 10
52.038752
 20
201.595318
 30
0.0
 10
52.307710
 20
200.811023
 30
0.0
 10
52.512603
 20
199.983265
 30
0.0
 10
51.998395
 20
199.622867
 30
0.0
 10
51.290581
 20
200.098694
 30
0.0
 10
50.645421
 20
200.619676
 30
0.0
 10
50.043723
 20
200.236418
 30
0.0
 10
50.243255
 20
199.431521
 30
0.0
 10
50.375335
 20
198.589087
 30
0.0
 10
49.831492
 20
198.274974
 30
0.0
 10
49.167988
 20
198.810632
 30
0.0
 10
48.570806
 20
199.386083
 30
0.0
 10
47.938063
 20
199.056729
 30
0.0
 10
48.066757
 20
198.237438
 30
0.0
 10
48.124895
 20
197.386538
 30
0.0
 10
47.555652
 20
197.121249
 30
0.0
 10
46.941255
 20
197.712505
 30
0.0
 10
46.396566
 20
198.337909
 30
0.0
 10
45.737295
 20
198.064718
 30
0.0
 10
45.794021
 20
197.237525
 30
0.0
 10
45.777935
 20
196.384932
 30
0.0
 10
45.187808
 20
196.170161
 30
0.0
 10
44.627315
 20
196.812781
 30
0.0
 10
44.139070
 20
197.483058
 30
0.0
 10
43.458632
 20
197.268569
 30
0.0
 10
43.443110
 20
196.439401
 30
0.0
 10
43.352799
 20
195.591605
 30
0.0
 10
42.746021
 20
195.429045
 30
0.0
 10
42.243666
 20
196.117949
 30
0.0
 10
41.815817
 20
196.828303
 30
0.0
 10
41.119292
 20
196.673927
 30
0.0
 10
41.031521
 20
195.849274
 30
0.0
 10
40.867550
 20
195.012485
 30
0.0
 10
40.248919
 20
194.903547
 30
0.0
 10
39.808652
 20
195.633656
 30
0.0
 10
39.444303
 20
196.378441
 30
0.0
 10
38.737055
 20
196.285307
 30
0.0
 10
38.577599
 20
195.471661
 30
0.0
 10
38.341379
 20
194.652369
 30
0.0
 10
37.715692
 20
194.597618
 30
0.0
 10
37.340619
 20
195.363287
 30
0.0
 10
37.042592
 20
196.137141
 30
0.0
 10
36.329699
 20
196.106096
 30
0.0
 10
36.100252
 20
195.309101
 30
0.0
 10
35.793477
 20
194.513516
 30
0.0
 10
35.165250
 20
194.513516
 30
0.0
 10
34.858475
 20
195.309101
 30
0.0
 10
34.629028
 20
196.106096
 30
0.0
 10
33.916135
 20
196.137141
 30
0.0
 10
33.618108
 20
195.363287
 30
0.0
 10
33.243035
 20
194.597618
 30
0.0
 10
32.617348
 20
194.652369
 30
0.0
 10
32.381128
 20
195.471661
 30
0.0
 10
32.221672
 20
196.285307
 30
0.0
 10
31.514423
 20
196.378441
 30
0.0
 10
31.150075
 20
195.633656
 30
0.0
 10
30.709808
 20
194.903547
 30
0.0
 10
30.091177
 20
195.012485
 30
0.0
 10
29.927206
 20
195.849274
 30
0.0
 10
29.839435
 20
196.673927
 30
0.0
 10
29.142910
 20
196.828303
 30
0.0
 10
28.715061
 20
196.117949
 30
0.0
 10
28.212706
 20
195.429045
 30
0.0
 10
27.605928
 20
195.591605
 30
0.0
 10
27.515617
 20
196.439401
 30
0.0
 10
27.500095
 20
197.268569
 30
0.0
 10
26.819657
 20
197.483058
 30
0.0
 10
26.331412
 20
196.812781
 30
0.0
 10
25.770919
 20
196.170161
 30
0.0
 10
25.180792
 20
196.384932
 30
0.0
 10
25.164706
 20
197.237525
 30
0.0
 10
25.221432
 20
198.064718
 30
0.0
 10
24.562161
 20
198.337909
 30
0.0
 10
24.017472
 20
197.712505
 30
0.0
 10
23.403075
 20
197.121249
 30
0.0
 10
22.833832
 20
197.386538
 30
0.0
 10
22.891970
 20
198.237438
 30
0.0
 10
23.020663
 20
199.056729
 30
0.0
 10
22.387921
 20
199.386083
 30
0.0
 10
21.790739
 20
198.810632
 30
0.0
 10
21.127235
 20
198.274974
 30
0.0
 10
20.583392
 20
198.589087
 30
0.0
 10
20.715472
 20
199.431521
 30
0.0
 10
20.915003
 20
200.236418
 30
0.0
 10
20.313306
 20
200.619676
 30
0.0
 10
19.668146
 20
200.098694
 30
0.0
 10
18.960332
 20
199.622867
 30
0.0
 10
18.446123
 20
199.983265
 30
0.0
 10
18.651017
 20
200.811023
 30
0.0
 10
18.919975
 20
201.595318
 30
0.0
 10
18.354119
 20
202.029658
 30
0.0
 10
17.666061
 20
201.566814
 30
0.0
 10
16.919583
 20
201.154487
 30
0.0
 10
16.438395
 20
201.558347
 30
0.0
 10
16.714690
 20
202.364938
 30
0.0
 10
17.051099
 20
203.122987
 30
0.0
 10
16.525037
 20
203.605023
 30
0.0
 10
15.799161
 20
203.203703
 30
0.0
 10
15.019663
 20
202.858263
 30
0.0
 10
14.575728
 20
203.302198
 30
0.0
 10
14.921168
 20
204.081696
 30
0.0
 10
15.322488
 20
204.807572
 30
0.0
 10
14.840452
 20
205.333634
 30
0.0
 10
14.082403
 20
204.997225
 30
0.0
 10
13.275812
 20
204.720929
 30
0.0
 10
12.871952
 20
205.202118
 30
0.0
 10
13.284279
 20
205.948596
 30
0.0
 10
13.747123
 20
206.636654
 30
0.0
 10
13.312783
 20
207.202509
 30
0.0
 10
12.528488
 20
206.933552
 30
0.0
 10
11.700730
 20
206.728658
 30
0.0
 10
11.340332
 20
207.242867
 30
0.0
 10
11.816159
 20
207.950681
 30
0.0
 10
12.337141
 20
208.595841
 30
0.0
 10
11.953883
 20
209.197538
 30
0.0
 10
11.148986
 20
208.998007
 30
0.0
 10
10.306552
 20
208.865927
 30
0.0
 10
9.992439
 20
209.409769
 30
0.0
 10
10.528097
 20
210.073274
 30
0.0
 10
11.103548
 20
210.670456
 30
0.0
 10
10.774195
 20
211.303198
 30
0.0
 10
9.954903
 20
211.174505
 30
0.0
 10
9.104003
 20
211.116367
 30
0.0
 10
8.838715
 20
211.685609
 30
0.0
 10
9.429970
 20
212.300007
 30
0.0
 10
10.055375
 20
212.844696
 30
0.0
 10
9.782183
 20
213.503967
 30
0.0
 10
8.954990
 20
213.447241
 30
0.0
 10
8.102397
 20
213.463327
 30
0.0
 10
7.887626
 20
214.053454
 30
0.0
 10
8.530246
 20
214.613947
 30
0.0
 10
9.200523
 20
215.102192
 30
0.0
 10
8.986035
 20
215.782629
 30
0.0
 10
8.156866
 20
215.798152
 30
0.0
 10
7.309070
 20
215.888463
 30
0.0
 10
7.146510
 20
216.495241
 30
0.0
 10
7.835415
 20
216.997596
 30
0.0
 10
8.545768
 20
217.425445
 30
0.0
 10
8.391392
 20
218.121969
 30
0.0
 10
7.566739
 20
218.209741
 30
0.0
 10
6.729950
 20
218.373712
 30
0.0
 10
6.621012
 20
218.992343
 30
0.0
 10
7.351121
 20
219.432609
 30
0.0
 10
8.095906
 20
219.796958
 30
0.0
 10
8.002772
 20
220.504207
 30
0.0
 10
7.189126
 20
220.663663
 30
0.0
 10
6.369835
 20
220.899883
 30
0.0
 10
6.315083
 20
221.525569
 30
0.0
 10
7.080752
 20
221.900643
 30
0.0
 10
7.854606
 20
222.198669
 30
0.0
 10
7.823561
 20
222.911563
 30
0.0
 10
7.026566
 20
223.141009
 30
0.0
 10
6.230981
 20
223.447785
 30
0.0
 10
6.230981
 20
224.076012
 30
0.0
 10
7.026566
 20
224.382787
 30
0.0
 10
7.823561
 20
224.612234
 30
0.0
 10
7.854606
 20
225.325127
 30
0.0
 10
7.080752
 20
225.623154
 30
0.0
 10
6.315083
 20
225.998227
 30
0.0
 10
6.369835
 20
226.623914
 30
0.0
 10
7.189126
 20
226.860134
 30
0.0
 10
8.002772
 20
227.019589
 30
0.0
 10
8.095906
 20
227.726838
 30
0.0
 10
7.351121
 20
228.091187
 30
0.0
 10
6.621012
 20
228.531454
 30
0.0
 10
6.729950
 20
229.150085
 30
0.0
 10
7.566739
 20
229.314056
 30
0.0
 10
8.391392
 20
229.401827
 30
0.0
 10
8.545768
 20
230.098352
 30
0.0
 10
7.835415
 20
230.526201
 30
0.0
 10
7.146510
 20
231.028556
 30
0.0
 10
7.309070
 20
231.635334
 30
0.0
 10
8.156866
 20
231.725645
 30
0.0
 10
8.986035
 20
231.741167
 30
0.0
 10
9.200523
 20
232.421605
 30
0.0
 10
8.530246
 20
232.909849
 30
0.0
 10
7.887626
 20
233.470343
 30
0.0
 10
8.102397
 20
234.060469
 30
0.0
 10
8.954990
 20
234.076556
 30
0.0
 10
9.782183
 20
234.019829
 30
0.0
 10
10.055375
 20
234.679101
 30
0.0
 10
9.429970
 20
235.223789
 30
0.0
 10
8.838715
 20
235.838187
 30
0.0
 10
9.104003
 20
236.407429
 30
0.0
 10
9.954903
 20
236.349292
 30
0.0
 10
10.774195
 20
236.220598
 30
0.0
 10
11.103548
 20
236.853341
 30
0.0
 10
10.528097
 20
237.450523
 30
0.0
 10
9.992439
 20
238.114027
 30
0.0
 10
10.306552
 20
238.657869
 30
0.0
 10
11.148986
 20
238.525789
 30
0.0
 10
11.953883
 20
238.326258
 30
0.0
 10
12.337141
 20
238.927956
 30
0.0
 10
11.816159
 20
239.573116
 30
0.0
 10
11.340332
 20
240.280929
 30
0.0
 10
11.700730
 20
240.795138
 30
0.0
 10
12.528488
 20
240.590245
 30
0.0
 10
13.312783
 20
240.321287
 30
0.0
 10
13.747123
 20
240.887143
 30
0.0
 10
13.284279
 20
241.575201
 30
0.0
 10
12.871952
 20
242.321678
 30
0.0
 10
13.275812
 20
242.802867
 30
0.0
 10
14.082403
 20
242.526572
 30
0.0
 10
14.840452
 20
242.190163
 30
0.0
 10
15.322488
 20
242.716225
 30
0.0
 10
14.921168
 20
243.442101
 30
0.0
 10
14.575728
 20
244.221598
 30
0.0
 10
15.019663
 20
244.665534
 30
0.0
 10
15.799161
 20
244.320094
 30
0.0
 10
16.525037
 20
243.918774
 30
0.0
 10
17.051099
 20
244.400809
 30
0.0
 10
16.714690
 20
245.158858
 30
0.0
 10
16.438395
 20
245.965449
 30
0.0
 10
16.919583
 20
246.369309
 30
0.0
 10
17.666061
 20
245.956983
 30
0.0
 10
18.354119
 20
245.494138
 30
0.0
 10
18.919975
 20
245.928478
 30
0.0
 10
18.651017
 20
246.712774
 30
0.0
 10
18.446123
 20
247.540532
 30
0.0
 10
18.960332
 20
247.900929
 30
0.0
 10
19.668146
 20
247.425103
 30
0.0
 10
20.313306
 20
246.904121
 30
0.0
 10
20.915003
 20
247.287378
 30
0.0
 10
20.715472
 20
248.092276
 30
0.0
 10
20.583392
 20
248.934709
 30
0.0
 10
21.127235
 20
249.248823
 30
0.0
 10
21.790739
 20
248.713165
 30
0.0
 10
22.387921
 20
248.137714
 30
0.0
 10
23.020663
 20
248.467067
 30
0.0
 10
22.891970
 20
249.286358
 30
0.0
 10
22.833832
 20
250.137258
 30
0.0
 10
23.403075
 20
250.402547
 30
0.0
 10
24.017472
 20
249.811292
 30
0.0
 10
24.562161
 20
249.185887
 30
0.0
 10
25.221432
 20
249.459078
 30
0.0
 10
25.164706
 20
250.286272
 30
0.0
 10
25.180792
 20
251.138865
 30
0.0
 10
25.770919
 20
251.353636
 30
0.0
 10
26.331412
 20
250.711016
 30
0.0
 10
26.819657
 20
250.040738
 30
0.0
 10
27.500095
 20
250.255227
 30
0.0
 10
27.515617
 20
251.084396
 30
0.0
 10
27.605928
 20
251.932192
 30
0.0
 10
28.212706
 20
252.094752
 30
0.0
 10
28.715061
 20
251.405847
 30
0.0
 10
29.142910
 20
250.695494
 30
0.0
 10
29.839435
 20
250.849869
 30
0.0
 10
29.927206
 20
251.674523
 30
0.0
 10
30.091177
 20
252.511312
 30
0.0
 10
30.709808
 20
252.620249
 30
0.0
 10
31.150075
 20
251.890141
 30
0.0
 10
31.514423
 20
251.145356
 30
0.0
 10
32.221672
 20
251.238489
 30
0.0
 10
32.381128
 20
252.052136
 30
0.0
 10
32.617348
 20
252.871427
 30
0.0
 10
33.243035
 20
252.926178
 30
0.0
 10
33.618108
 20
252.160509
 30
0.0
 10
33.916135
 20
251.386656
 30
0.0
 10
34.629028
 20
251.417701
 30
0.0
 10
34.858475
 20
252.214696
 30
0.0
 10
35.165250
 20
253.010281
 30
0.0
 10
35.793477
 20
253.010281
 30
0.0
 10
36.100252
 20
252.214696
 30
0.0
 10
36.329699
 20
251.417701
 30
0.0
 10
37.042592
 20
251.386656
 30
0.0
 10
37.340619
 20
252.160509
 30
0.0
 10
37.715692
 20
252.926178
 30
0.0
 10
38.341379
 20
252.871427
 30
0.0
 10
38.577599
 20
252.052136
 30
0.0
 10
38.737055
 20
251.238489
 30
0.0
 10
39.444303
 20
251.145356
 30
0.0
 10
39.808652
 20
251.890141
 30
0.0
 10
40.248919
 20
252.620249
 30
0.0
 10
40.867550
 20
252.511312
 30
0.0
 10
41.031521
 20
251.674523
 30
0.0
 10
41.119292
 20
250.849869
 30
0.0
 10
41.815817
 20
250.695494
 30
0.0
 10
42.243666
 20
251.405847
 30
0.0
 10
42.746021
 20
252.094752
 30
0.0
 10
43.352799
 20
251.932192
 30
0.0
 10
43.443110
 20
251.084396
 30
0.0
 10
43.458632
 20
250.255227
 30
0.0
 10
44.139070
 20
250.040738
 30
0.0
 10
44.627315
 20
250.711016
 30
0.0
 10
45.187808
 20
251.353636
 30
0.0
 10
45.777935
 20
251.138865
 30
0.0
 10
45.794021
 20
250.286272
 30
0.0
 10
45.737295
 20
249.459078
 30
0.0
 10
46.396566
 20
249.185887
 30
0.0
 10
46.941255
 20
249.811292
 30
0.0
 10
47.555652
 20
250.402547
 30
0.0
 10
48.124895
 20
250.137258
 30
0.0
 10
48.066757
 20
249.286358
 30
0.0
 10
47.938063
 20
248.467067
 30
0.0
 10
48.570806
 20
248.137714
 30
0.0
 10
49.167988
 20
248.713165
 30
0.0
 10
49.831492
 20
249.248823
 30
0.0
 10
50.375335
 20
248.934709
 30
0.0
 10
50.243255
 20
248.092276
 30
0.0
 10
50.043723
 20
247.287378
 30
0.0
 10
50.645421
 20
246.904121
 30
0.0
 10
51.290581
 20
247.425103
 30
0.0
 10
51.998395
 20
247.900929
 30
0.0
 10
52.512603
 20
247.540532
 30
0.0
 10
52.307710
 20
246.712774
 30
0.0
 10
52.038752
 20
245.928478
 30
0.0
 10
52.604608
 20
245.494138
 30
0.0
 10
53.292666
 20
245.956983
 30
0.0
 10
54.039143
 20
246.369309
 30
0.0
 10
54.520332
 20
245.965449
 30
0.0
 10
54.244037
 20
245.158858
 30
0.0
 10
53.907628
 20
244.400809
 30
0.0
 10
54.433690
 20
243.918774
 30
0.0
 10
55.159566
 20
244.320094
 30
0.0
 10
55.939063
 20
244.665534
 30
0.0
 10
56.382999
 20
244.221598
 30
0.0
 10
56.037559
 20
243.442101
 30
0.0
 10
55.636239
 20
242.716225
 30
0.0
 10
56.118275
 20
242.190163
 30
0.0
 10
56.876323
 20
242.526572
 30
0.0
 10
57.682915
 20
242.802867
 30
0.0
 10
58.086775
 20
242.321678
 30
0.0
 10
57.674448
 20
241.575201
 30
0.0
 10
57.211603
 20
240.887143
 30
0.0
 10
57.645943
 20
240.321287
 30
0.0
 10
58.430239
 20
240.590245
 30
0.0
 10
59.257997
 20
240.795138
 30
0.0
 10
59.618395
 20
240.280929
 30
0.0
 10
59.142568
 20
239.573116
 30
0.0
 10
58.621586
 20
238.927956
 30
0.0
 10
59.004843
 20
238.326258
 30
0.0
 10
59.809741
 20
238.525789
 30
0.0
 10
60.652175
 20
238.657869
 30
0.0
 10
60.966288
 20
238.114027
 30
0.0
 10
60.430630
 20
237.450523
 30
0.0
 10
59.855179
 20
236.853341
 30
0.0
 10
60.184532
 20
236.220598
 30
0.0
 10
61.003823
 20
236.349292
 30
0.0
 10
61.854723
 20
236.407429
 30
0.0
 10
62.120012
 20
235.838187
 30
0.0
 10
61.528757
 20
235.223789
 30
0.0
 10
60.903352
 20
234.679101
 30
0.0
 10
61.176543
 20
234.019829
 30
0.0
 10
62.003737
 20
234.076556
 30
0.0
 10
62.856330
 20
234.060469
 30
0.0
 10
63.071101
 20
233.470343
 30
0.0
 10
62.428481
 20
232.909849
 30
0.0
 10
61.758203
 20
232.421605
 30
0.0
 10
61.972692
 20
231.741167
 30
0.0
 10
62.801861
 20
231.725645
 30
0.0
 10
63.649657
 20
231.635334
 30
0.0
 10
63.812217
 20
231.028556
 30
0.0
 10
63.123312
 20
230.526201
 30
0.0
 10
62.412959
 20
230.098352
 30
0.0
 10
62.567335
 20
229.401827
 30
0.0
 10
63.391988
 20
229.314056
 30
0.0
 10
64.228777
 20
229.150085
 30
0.0
 10
64.337715
 20
228.531454
 30
0.0
 10
63.607606
 20
228.091187
 30
0.0
 10
62.862821
 20
227.726838
 30
0.0
 10
62.955955
 20
227.019589
 30
0.0
 10
63.769601
 20
226.860134
 30
0.0
 10
64.588892
 20
226.623914
 30
0.0
 10
64.643643
 20
225.998227
 30
0.0
 10
63.877975
 20
225.623154
 30
0.0
 10
63.104121
 20
225.325127
 30
0.0
 10
63.135166
 20
224.612234
 30
0.0
  0
SPLINE
  5
108
100
AcDbEntity
  8
Layer_1
 62
7
100
AcDbSpline
 70
8
 71
3
 72
8
 73
4
 74
0
 40
0
 40
0
 40
0
 40
0
 40
1
 40
1
 40
1
 40
1
 10
91.228134
 20
247.349616
 30
0.0
 10
91.228134
 20
245.834311
 30
0.0
 10
89.999736
 20
244.605917
 30
0.0
 10
88.484435
 20
244.605917
 30
0.0
  0
SPLINE
  5
109
100
AcDbEntity
  8
Layer_1
 62
7
100
AcDbSpline
 70
8
 71
3
 72
8
 73
4
 74
0
 40
0
 40
0
 40
0
 40
0
 40
1
 40
1
 40
1
 40
1
 10
88.484435
 20
244.605917
 30
0.0
 10
86.969130
 20
244.605917
 30
0.0
 10
85.740735
 20
245.834311
 30
0.0
 10
85.740735
 20
247.349616
 30
0.0
  0
SPLINE
  5
10a
100
AcDbEntity
  8
Layer_1
 62
7
100
AcDbSpline
 70
8
 71
3
 72
8
 73
4
 74
0
 40
0
 40
0
 40
0
 40
0
 40
1
 40
1
 40
1
 40
1
 10
85.740735
 20
247.349616
 30
0.0
 10
85.740735
 20
248.864918
 30
0.0
 10
86.969130
 20
250.093316
 30
0.0
 10
88.484435
 20
250.093316
 30
0.0
  0
SPLINE
  5
10b
100
AcDbEntity
  8
Layer_1
 62
7
100
AcDbSpline
 70
8
 71
3
 72
8
 73
4
 74
0
 40
0
 40
0
 40
0
 40
0
 40
1
 40
1
 40
1
 40
1
 10
88.484435
 20
250.093316
 30
0.0
 10
89.999736
 20
250.093316
 30
0.0
 10
91.228134
 20
248.864918
 30
0.0
 10
91.228134
 20
247.349616
 30
0.0
  0
LWPOLYLINE
  5
10c
100
AcDbEntity
  8
Layer_1
 62
7
100
AcDbPolyline
 90
217
 70
1
 10
98.339917
 20
248.071254
 30
0.0
 10
98.486390
 20
248.081979
 30
0.0
 10
99.138606
 20
247.970219
 30
0.0
 10
99.943786
 20
247.637196
 30
0.0
 10
99.943786
 20
247.062027
 30
0.0
 10
99.138606
 20
246.729005
 30
0.0
 10
98.486390
 20
246.617245
 30
0.0
 10
98.339917
 20
246.627970
 30
0.0
 10
98.240575
 20
245.778763
 30
0.0
 10
98.385637
 20
245.755621
 30
0.0
 10
98.994672
 20
245.496259
 30
0.0
 10
99.701075
 20
244.986847
 30
0.0
 10
99.568430
 20
244.427201
 30
0.0
 10
98.708499
 20
244.288630
 30
0.0
 10
98.047817
 20
244.330399
 30
0.0
 10
97.907835
 20
244.374707
 30
0.0
 10
97.615452
 20
243.571221
 30
0.0
 10
97.751201
 20
243.515059
 30
0.0
 10
98.284037
 20
243.122487
 30
0.0
 10
98.853843
 20
242.463781
 30
0.0
 10
98.595610
 20
241.949854
 30
0.0
 10
97.726930
 20
242.013354
 30
0.0
 10
97.093906
 20
242.206394
 30
0.0
 10
96.967752
 20
242.281747
 30
0.0
 10
96.497852
 20
241.567443
 30
0.0
 10
96.616950
 20
241.481365
 30
0.0
 10
97.044799
 20
240.976470
 30
0.0
 10
97.447530
 20
240.204027
 30
0.0
 10
97.077819
 20
239.763479
 30
0.0
 10
96.247239
 20
240.025945
 30
0.0
 10
95.675739
 20
240.359532
 30
0.0
 10
95.570188
 20
240.461979
 30
0.0
 10
94.948452
 20
239.875239
 30
0.0
 10
95.044408
 20
239.764043
 30
0.0
 10
95.344410
 20
239.174199
 30
0.0
 10
95.558052
 20
238.329507
 30
0.0
 10
95.096901
 20
237.986325
 30
0.0
 10
94.349012
 20
238.433083
 30
0.0
 10
93.869799
 20
238.889436
 30
0.0
 10
93.790777
 20
239.013614
 30
0.0
 10
93.050508
 20
238.586047
 30
0.0
 10
93.118241
 20
238.455661
 30
0.0
 10
93.274028
 20
237.812476
 30
0.0
 10
93.287292
 20
236.941539
 30
0.0
 10
92.759255
 20
236.713785
 30
0.0
 10
92.134697
 20
237.320845
 30
0.0
 10
91.773735
 20
237.875694
 30
0.0
 10
91.725475
 20
238.014547
 30
0.0
 10
90.906466
 20
237.769296
 30
0.0
 10
90.942308
 20
237.626774
 30
0.0
 10
90.945695
 20
236.964963
 30
0.0
 10
90.757452
 20
236.114345
 30
0.0
 10
90.191032
 20
236.014439
 30
0.0
 10
89.723390
 20
236.749345
 30
0.0
 10
89.500152
 20
237.372492
 30
0.0
 10
89.485195
 20
237.518683
 30
0.0
 10
88.631755
 20
237.469012
 30
0.0
 10
88.634012
 20
237.321974
 30
0.0
 10
88.484435
 20
236.677379
 30
0.0
 10
88.105128
 20
235.893083
 30
0.0
 10
87.531088
 20
235.926385
 30
0.0
 10
87.245479
 20
236.749345
 30
0.0
 10
87.171819
 20
237.407205
 30
0.0
 10
87.191010
 20
237.552832
 30
0.0
 10
86.349141
 20
237.701281
 30
0.0
 10
86.317250
 20
237.557912
 30
0.0
 10
86.023175
 20
236.964963
 30
0.0
 10
85.473406
 20
236.289323
 30
0.0
 10
84.922508
 20
236.454141
 30
0.0
 10
84.834172
 20
237.320845
 30
0.0
 10
84.914323
 20
237.977859
 30
0.0
 10
84.966535
 20
238.115301
 30
0.0
 10
84.181675
 20
238.453967
 30
0.0
 10
84.117610
 20
238.321605
 30
0.0
 10
83.694841
 20
237.812476
 30
0.0
 10
83.003961
 20
237.281899
 30
0.0
 10
82.505839
 20
237.569483
 30
0.0
 10
82.619857
 20
238.433083
 30
0.0
 10
82.849303
 20
239.053972
 30
0.0
 10
82.931995
 20
239.175327
 30
0.0
 10
82.246195
 20
239.685867
 30
0.0
 10
82.153343
 20
239.571850
 30
0.0
 10
81.624459
 20
239.174199
 30
0.0
 10
80.829721
 20
238.817187
 30
0.0
 10
80.411468
 20
239.211734
 30
0.0
 10
80.721630
 20
240.025945
 30
0.0
 10
81.087955
 20
240.577125
 30
0.0
 10
81.196328
 20
240.676185
 30
0.0
 10
80.646841
 20
241.331223
 30
0.0
 10
80.530283
 20
241.241759
 30
0.0
 10
79.924070
 20
240.976470
 30
0.0
 10
79.068372
 20
240.812499
 30
0.0
 10
78.752283
 20
241.292841
 30
0.0
 10
79.241939
 20
242.013354
 30
0.0
 10
79.725668
 20
242.465192
 30
0.0
 10
79.853797
 20
242.536876
 30
0.0
 10
79.470257
 20
243.300852
 30
0.0
 10
79.336201
 20
243.240739
 30
0.0
 10
78.684832
 20
243.122487
 30
0.0
 10
77.814741
 20
243.160023
 30
0.0
 10
77.618032
 20
243.700479
 30
0.0
 10
78.260370
 20
244.288630
 30
0.0
 10
78.835257
 20
244.616854
 30
0.0
 10
78.976650
 20
244.656930
 30
0.0
 10
78.779377
 20
245.488921
 30
0.0
 10
78.635161
 20
245.461263
 30
0.0
 10
77.974197
 20
245.496259
 30
0.0
 10
77.135997
 20
245.733607
 30
0.0
 10
77.069392
 20
246.304825
 30
0.0
 10
77.830263
 20
246.729005
 30
0.0
 10
78.465263
 20
246.915836
 30
0.0
 10
78.612019
 20
246.922045
 30
0.0
 10
78.612019
 20
247.777179
 30
0.0
 10
78.465263
 20
247.783387
 30
0.0
 10
77.830263
 20
247.970219
 30
0.0
 10
77.069392
 20
248.394399
 30
0.0
 10
77.135997
 20
248.965616
 30
0.0
 10
77.974197
 20
249.202965
 30
0.0
 10
78.635161
 20
249.237961
 30
0.0
 10
78.779377
 20
249.210303
 30
0.0
 10
78.976650
 20
250.042294
 30
0.0
 10
78.835257
 20
250.082370
 30
0.0
 10
78.260370
 20
250.410594
 30
0.0
 10
77.618032
 20
250.998745
 30
0.0
 10
77.814741
 20
251.539201
 30
0.0
 10
78.684832
 20
251.576736
 30
0.0
 10
79.336201
 20
251.458485
 30
0.0
 10
79.470257
 20
251.398372
 30
0.0
 10
79.853797
 20
252.162347
 30
0.0
 10
79.725668
 20
252.234032
 30
0.0
 10
79.241939
 20
252.685870
 30
0.0
 10
78.752283
 20
253.406383
 30
0.0
 10
79.068372
 20
253.886725
 30
0.0
 10
79.924070
 20
253.722754
 30
0.0
 10
80.530283
 20
253.457465
 30
0.0
 10
80.646841
 20
253.368001
 30
0.0
 10
81.196328
 20
254.023039
 30
0.0
 10
81.087955
 20
254.122099
 30
0.0
 10
80.721630
 20
254.673279
 30
0.0
 10
80.411468
 20
255.487490
 30
0.0
 10
80.829721
 20
255.882036
 30
0.0
 10
81.624459
 20
255.525025
 30
0.0
 10
82.153343
 20
255.127374
 30
0.0
 10
82.246195
 20
255.013356
 30
0.0
 10
82.931995
 20
255.523896
 30
0.0
 10
82.849303
 20
255.645252
 30
0.0
 10
82.619857
 20
256.266141
 30
0.0
 10
82.505839
 20
257.129741
 30
0.0
 10
83.003961
 20
257.417325
 30
0.0
 10
83.694841
 20
256.886747
 30
0.0
 10
84.117610
 20
256.377619
 30
0.0
 10
84.181675
 20
256.245256
 30
0.0
 10
84.966535
 20
256.583923
 30
0.0
 10
84.914323
 20
256.721365
 30
0.0
 10
84.834172
 20
257.378379
 30
0.0
 10
84.922508
 20
258.245083
 30
0.0
 10
85.473406
 20
258.409901
 30
0.0
 10
86.023175
 20
257.734261
 30
0.0
 10
86.317250
 20
257.141312
 30
0.0
 10
86.349141
 20
256.997943
 30
0.0
 10
87.191010
 20
257.146392
 30
0.0
 10
87.171819
 20
257.292019
 30
0.0
 10
87.245479
 20
257.949879
 30
0.0
 10
87.531088
 20
258.772839
 30
0.0
 10
88.105128
 20
258.806141
 30
0.0
 10
88.484435
 20
258.021845
 30
0.0
 10
88.634012
 20
257.377250
 30
0.0
 10
88.631755
 20
257.230212
 30
0.0
 10
89.485195
 20
257.180541
 30
0.0
 10
89.500152
 20
257.326732
 30
0.0
 10
89.723390
 20
257.949879
 30
0.0
 10
90.191032
 20
258.684785
 30
0.0
 10
90.757452
 20
258.584879
 30
0.0
 10
90.945695
 20
257.734261
 30
0.0
 10
90.942308
 20
257.072450
 30
0.0
 10
90.906466
 20
256.929927
 30
0.0
 10
91.725475
 20
256.684676
 30
0.0
 10
91.773735
 20
256.823530
 30
0.0
 10
92.134697
 20
257.378379
 30
0.0
 10
92.759255
 20
257.985439
 30
0.0
 10
93.287292
 20
257.757685
 30
0.0
 10
93.274028
 20
256.886747
 30
0.0
 10
93.118241
 20
256.243563
 30
0.0
 10
93.050508
 20
256.113176
 30
0.0
 10
93.790777
 20
255.685610
 30
0.0
 10
93.869799
 20
255.809787
 30
0.0
 10
94.349012
 20
256.266141
 30
0.0
 10
95.096901
 20
256.712899
 30
0.0
 10
95.558052
 20
256.369716
 30
0.0
 10
95.344410
 20
255.525025
 30
0.0
 10
95.044408
 20
254.935181
 30
0.0
 10
94.948452
 20
254.823985
 30
0.0
 10
95.570188
 20
254.237245
 30
0.0
 10
95.675739
 20
254.339692
 30
0.0
 10
96.247239
 20
254.673279
 30
0.0
 10
97.077819
 20
254.935745
 30
0.0
 10
97.447530
 20
254.495196
 30
0.0
 10
97.044799
 20
253.722754
 30
0.0
 10
96.616950
 20
253.217859
 30
0.0
 10
96.497852
 20
253.131781
 30
0.0
 10
96.967752
 20
252.417476
 30
0.0
 10
97.093906
 20
252.492830
 30
0.0
 10
97.726930
 20
252.685870
 30
0.0
 10
98.595610
 20
252.749370
 30
0.0
 10
98.853843
 20
252.235443
 30
0.0
 10
98.284037
 20
251.576736
 30
0.0
 10
97.751201
 20
251.184165
 30
0.0
 10
97.615452
 20
251.128003
 30
0.0
 10
97.907835
 20
250.324516
 30
0.0
 10
98.047817
 20
250.368825
 30
0.0
 10
98.708499
 20
250.410594
 30
0.0
 10
99.568430
 20
250.272023
 30
0.0
 10
99.701075
 20
249.712376
 30
0.0
 10
98.994672
 20
249.202965
 30
0.0
 10
98.385637
 20
248.943603
 30
0.0
 10
98.240575
 20
248.920461
 30
0.0
 10
98.339917
 20
248.071254
 30
0.0
  0
SPLINE
  5
10d
100
AcDbEntity
  8
Layer_1
 62
7
100
AcDbSpline
 70
8
 71
3
 72
8
 73
4
 74
0
 40
0
 40
0
 40
0
 40
0
 40
1
 40
1
 40
1
 40
1
 10
111.369960
 20
211.431706
 30
0.0
 10
111.369960
 20
209.916401
 30
0.0
 10
110.141563
 20
208.688006
 30
0.0
 10
108.626261
 20
208.688006
 30
0.0
  0
SPLINE
  5
10e
100
AcDbEntity
  8
Layer_1
 62
7
100
AcDbSpline
 70
8
 71
3
 72
8
 73
4
 74
0
 40
0
 40
0
 40
0
 40
0
 40
1
 40
1
 40
1
 40
1
 10
108.626261
 20
208.688006
 30
0.0
 10
107.110956
 20
208.688006
 30
0.0
 10
105.882561
 20
209.916401
 30
0.0
 10
105.882561
 20
211.431706
 30
0.0
  0
SPLINE
  5
10f
100
AcDbEntity
  8
Layer_1
 62
7
100
AcDbSpline
 70
8
 71
3
 72
8
 73
4
 74
0
 40
0
 40
0
 40
0
 40
0
 40
1
 40
1
 40
1
 40
1
 10
105.882561
 20
211.431706
 30
0.0
 10
105.882561
 20
212.947007
 30
0.0
 10
107.110956
 20
214.175405
 30
0.0
 10
108.626261
 20
214.175405
 30
0.0
  0
SPLINE
  5
110
100
AcDbEntity
  8
Layer_1
 62
7
100
AcDbSpline
 70
8
 71
3
 72
8
 73
4
 74
0
 40
0
 40
0
 40
0
 40
0
 40
1
 40
1
 40
1
 40
1
 10
108.626261
 20
214.175405
 30
0.0
 10
110.141563
 20
214.175405
 30
0.0
 10
111.369960
 20
212.947007
 30
0.0
 10
111.369960
 20
211.431706
 30
0.0
  0
LWPOLYLINE
  5
111
100
AcDbEntity
  8
Layer_1
 62
7
100
AcDbPolyline
 90
2
 70
1
 10
91.228134
 20
247.349616
 30
0.0
 10
91.228134
 20
247.349616
 30
0.0
  0
SPLINE
  5
112
100
AcDbEntity
  8
Layer_1
 62
7
100
AcDbSpline
 70
8
 71
3
 72
8
 73
4
 74
0
 40
0
 40
0
 40
0
 40
0
 40
1
 40
1
 40
1
 40
1
 10
80.573008
 20
229.212527
 30
0.0
 10
81.885300
 20
229.970179
 30
0.0
 10
83.563320
 20
229.520553
 30
0.0
 10
84.320971
 20
228.208263
 30
0.0
  0
SPLINE
  5
113
100
AcDbEntity
  8
Layer_1
 62
7
100
AcDbSpline
 70
8
 71
3
 72
8
 73
4
 74
0
 40
0
 40
0
 40
0
 40
0
 40
1
 40
1
 40
1
 40
1
 10
84.320971
 20
228.208263
 30
0.0
 10
85.078623
 20
226.895971
 30
0.0
 10
84.629000
 20
225.217952
 30
0.0
 10
83.316707
 20
224.460300
 30
0.0
  0
SPLINE
  5
114
100
AcDbEntity
  8
Layer_1
 62
7
100
AcDbSpline
 70
8
 71
3
 72
8
 73
4
 74
0
 40
0
 40
0
 40
0
 40
0
 40
1
 40
1
 40
1
 40
1
 10
83.316707
 20
224.460300
 30
0.0
 10
82.004417
 20
223.702649
 30
0.0
 10
80.326396
 20
224.152271
 30
0.0
 10
79.568744
 20
225.464563
 30
0.0
  0
SPLINE
  5
115
100
AcDbEntity
  8
Layer_1
 62
7
100
AcDbSpline
 70
8
 71
3
 72
8
 73
4
 74
0
 40
0
 40
0
 40
0
 40
0
 40
1
 40
1
 40
1
 40
1
 10
79.568744
 20
225.464563
 30
0.0
 10
78.811093
 20
226.776853
 30
0.0
 10
79.260718
 20
228.454876
 30
0.0
 10
80.573008
 20
229.212527
 30
0.0
  0
LWPOLYLINE
  5
116
100
AcDbEntity
  8
Layer_1
 62
7
100
AcDbPolyline
 90
2
 70
1
 10
111.369960
 20
211.431706
 30
0.0
 10
111.369960
 20
211.431706
 30
0.0
  0
SPLINE
  5
117
100
AcDbEntity
  8
Layer_1
 62
7
100
AcDbSpline
 70
8
 71
3
 72
8
 73
4
 74
0
 40
0
 40
0
 40
0
 40
0
 40
1
 40
1
 40
1
 40
1
 10
80.573011
 20
193.650883
 30
0.0
 10
79.260718
 20
194.408535
 30
0.0
 10
78.811096
 20
196.086556
 30
0.0
 10
79.568747
 20
197.398846
 30
0.0
  0
SPLINE
  5
118
100
AcDbEntity
  8
Layer_1
 62
7
100
AcDbSpline
 70
8
 71
3
 72
8
 73
4
 74
0
 40
0
 40
0
 40
0
 40
0
 40
1
 40
1
 40
1
 40
1
 10
79.568747
 20
197.398846
 30
0.0
 10
80.326400
 20
198.711138
 30
0.0
 10
82.004418
 20
199.160762
 30
0.0
 10
83.316710
 20
198.403110
 30
0.0
  0
SPLINE
  5
119
100
AcDbEntity
  8
Layer_1
 62
7
100
AcDbSpline
 70
8
 71
3
 72
8
 73
4
 74
0
 40
0
 40
0
 40
0
 40
0
 40
1
 40
1
 40
1
 40
1
 10
83.316710
 20
198.403110
 30
0.0
 10
84.629000
 20
197.645459
 30
0.0
 10
85.078626
 20
195.967439
 30
0.0
 10
84.320974
 20
194.655146
 30
0.0
  0
SPLINE
  5
11a
100
AcDbEntity
  8
Layer_1
 62
7
100
AcDbSpline
 70
8
 71
3
 72
8
 73
4
 74
0
 40
0
 40
0
 40
0
 40
0
 40
1
 40
1
 40
1
 40
1
 10
84.320974
 20
194.655146
 30
0.0
 10
83.563323
 20
193.342856
 30
0.0
 10
81.885301
 20
192.893232
 30
0.0
 10
80.573011
 20
193.650883
 30
0.0
  0
LWPOLYLINE
  5
11b
100
AcDbEntity
  8
Layer_1
 62
7
100
AcDbPolyline
 90
2
 70
1
 10
80.573008
 20
229.212527
 30
0.0
 10
80.573008
 20
229.212527
 30
0.0
  0
SPLINE
  5
11c
100
AcDbEntity
  8
Layer_1
 62
7
100
AcDbSpline
 70
8
 71
3
 72
8
 73
4
 74
0
 40
0
 40
0
 40
0
 40
0
 40
1
 40
1
 40
1
 40
1
 10
81.791477
 20
234.204945
 30
0.0
 10
79.301523
 20
234.148746
 30
0.0
 10
76.900325
 20
232.831361
 30
0.0
 10
75.564949
 20
230.518418
 30
0.0
  0
SPLINE
  5
11d
100
AcDbEntity
  8
Layer_1
 62
7
100
AcDbSpline
 70
8
 71
3
 72
8
 73
4
 74
0
 40
0
 40
0
 40
0
 40
0
 40
1
 40
1
 40
1
 40
1
 10
75.564949
 20
230.518418
 30
0.0
 10
74.176839
 20
228.114141
 30
0.0
 10
74.299693
 20
225.261492
 30
0.0
 10
75.635505
 20
223.039529
 30
0.0
  0
LWPOLYLINE
  5
11e
100
AcDbEntity
  8
Layer_1
 62
7
100
AcDbPolyline
 90
2
 70
1
 10
80.573011
 20
193.650883
 30
0.0
 10
80.573011
 20
193.650883
 30
0.0
  0
SPLINE
  5
11f
100
AcDbEntity
  8
Layer_1
 62
7
100
AcDbSpline
 70
8
 71
3
 72
8
 73
4
 74
0
 40
0
 40
0
 40
0
 40
0
 40
1
 40
1
 40
1
 40
1
 10
75.626685
 20
199.826765
 30
0.0
 10
74.955388
 20
198.715924
 30
0.0
 10
74.577171
 20
197.418193
 30
0.0
 10
74.577171
 20
196.025584
 30
0.0
  0
SPLINE
  5
120
100
AcDbEntity
  8
Layer_1
 62
7
100
AcDbSpline
 70
8
 71
3
 72
8
 73
4
 74
0
 40
0
 40
0
 40
0
 40
0
 40
1
 40
1
 40
1
 40
1
 10
74.577171
 20
196.025584
 30
0.0
 10
74.577170
 20
191.955864
 30
0.0
 10
77.880504
 20
188.652526
 30
0.0
 10
81.950227
 20
188.652529
 30
0.0
  0
SPLINE
  5
121
100
AcDbEntity
  8
Layer_1
 62
7
100
AcDbSpline
 70
8
 71
3
 72
8
 73
4
 74
0
 40
0
 40
0
 40
0
 40
0
 40
1
 40
1
 40
1
 40
1
 10
81.950227
 20
188.652529
 30
0.0
 10
84.726447
 20
188.652529
 30
0.0
 10
87.132050
 20
190.194701
 30
0.0
 10
88.388421
 20
192.462529
 30
0.0
  0
LWPOLYLINE
  5
122
100
AcDbEntity
  8
Layer_1
 62
7
100
AcDbPolyline
 90
5
 70
1
 10
75.635505
 20
223.039529
 30
0.0
 10
75.626685
 20
223.030723
 30
0.0
 10
82.329463
 20
211.433154
 30
0.0
 10
75.635505
 20
199.844404
 30
0.0
 10
75.626685
 20
199.826765
 30
0.0
  0
SPLINE
  5
123
100
AcDbEntity
  8
Layer_1
 62
7
100
AcDbSpline
 70
8
 71
3
 72
8
 73
4
 74
0
 40
0
 40
0
 40
0
 40
0
 40
1
 40
1
 40
1
 40
1
 10
108.487921
 20
204.060112
 30
0.0
 10
109.785585
 20
204.034176
 30
0.0
 10
111.100706
 20
204.351586
 30
0.0
 10
112.306741
 20
205.047890
 30
0.0
  0
SPLINE
  5
124
100
AcDbEntity
  8
Layer_1
 62
7
100
AcDbSpline
 70
8
 71
3
 72
8
 73
4
 74
0
 40
0
 40
0
 40
0
 40
0
 40
1
 40
1
 40
1
 40
1
 10
112.306741
 20
205.047890
 30
0.0
 10
115.831222
 20
207.082752
 30
0.0
 10
117.040352
 20
211.595214
 30
0.0
 10
115.005491
 20
215.119696
 30
0.0
  0
SPLINE
  5
125
100
AcDbEntity
  8
Layer_1
 62
7
100
AcDbSpline
 70
8
 71
3
 72
8
 73
4
 74
0
 40
0
 40
0
 40
0
 40
0
 40
1
 40
1
 40
1
 40
1
 10
115.005491
 20
215.119696
 30
0.0
 10
113.617381
 20
217.523972
 30
0.0
 10
111.080104
 20
218.843268
 30
0.0
 10
108.487921
 20
218.797404
 30
0.0
  0
LWPOLYLINE
  5
126
100
AcDbEntity
  8
Layer_1
 62
7
100
AcDbPolyline
 90
5
 70
1
 10
88.388421
 20
192.462529
 30
0.0
 10
88.397227
 20
192.453724
 30
0.0
 10
95.100005
 20
204.060112
 30
0.0
 10
108.470282
 20
204.060112
 30
0.0
 10
108.487921
 20
204.060112
 30
0.0
  0
SPLINE
  5
127
100
AcDbEntity
  8
Layer_1
 62
7
100
AcDbSpline
 70
8
 71
3
 72
8
 73
4
 74
0
 40
0
 40
0
 40
0
 40
0
 40
1
 40
1
 40
1
 40
1
 10
88.397241
 20
230.403779
 30
0.0
 10
87.770874
 20
231.540559
 30
0.0
 10
86.842789
 20
232.520877
 30
0.0
 10
85.636755
 20
233.217182
 30
0.0
  0
SPLINE
  5
128
100
AcDbEntity
  8
Layer_1
 62
7
100
AcDbSpline
 70
8
 71
3
 72
8
 73
4
 74
0
 40
0
 40
0
 40
0
 40
0
 40
1
 40
1
 40
1
 40
1
 10
85.636755
 20
233.217182
 30
0.0
 10
84.425214
 20
233.916667
 30
0.0
 10
83.095738
 20
234.234395
 30
0.0
 10
81.791477
 20
234.204959
 30
0.0
  0
LWPOLYLINE
  5
129
100
AcDbEntity
  8
Layer_1
 62
7
100
AcDbPolyline
 90
5
 70
1
 10
108.487921
 20
218.797404
 30
0.0
 10
108.487921
 20
218.806209
 30
0.0
 10
95.091185
 20
218.806209
 30
0.0
 10
88.406046
 20
230.386140
 30
0.0
 10
88.397241
 20
230.403779
 30
0.0
  0
SPLINE
  5
12a
100
AcDbEntity
  8
Layer_1
 62
7
100
AcDbSpline
 70
8
 71
3
 72
8
 73
4
 74
0
 40
0
 40
0
 40
0
 40
0
 40
1
 40
1
 40
1
 40
1
 10
88.171085
 20
213.588065
 30
0.0
 10
87.693401
 20
212.998212
 30
0.0
 10
87.403793
 20
212.254268
 30
0.0
 10
87.403793
 20
211.436120
 30
0.0
  0
SPLINE
  5
12b
100
AcDbEntity
  8
Layer_1
 62
7
100
AcDbSpline
 70
8
 71
3
 72
8
 73
4
 74
0
 40
0
 40
0
 40
0
 40
0
 40
1
 40
1
 40
1
 40
1
 10
87.403793
 20
211.436120
 30
0.0
 10
87.403793
 20
210.617972
 30
0.0
 10
87.693401
 20
209.865209
 30
0.0
 10
88.171085
 20
209.275356
 30
0.0
  0
LWPOLYLINE
  5
12c
100
AcDbEntity
  8
Layer_1
 62
7
100
AcDbPolyline
 90
2
 70
1
 10
81.791477
 20
234.204959
 30
0.0
 10
81.791477
 20
234.204945
 30
0.0
  0
SPLINE
  5
12d
100
AcDbEntity
  8
Layer_1
 62
7
100
AcDbSpline
 70
8
 71
3
 72
8
 73
4
 74
0
 40
0
 40
0
 40
0
 40
0
 40
1
 40
1
 40
1
 40
1
 10
93.506846
 20
209.275356
 30
0.0
 10
93.984530
 20
209.865209
 30
0.0
 10
94.274138
 20
210.617972
 30
0.0
 10
94.274138
 20
211.436120
 30
0.0
  0
SPLINE
  5
12e
100
AcDbEntity
  8
Layer_1
 62
7
100
AcDbSpline
 70
8
 71
3
 72
8
 73
4
 74
0
 40
0
 40
0
 40
0
 40
0
 40
1
 40
1
 40
1
 40
1
 10
94.274138
 20
211.436120
 30
0.0
 10
94.274138
 20
212.254268
 30
0.0
 10
93.984530
 20
212.998212
 30
0.0
 10
93.506846
 20
213.588065
 30
0.0
  0
LWPOLYLINE
  5
12f
100
AcDbEntity
  8
Layer_1
 62
7
100
AcDbPolyline
 90
2
 70
1
 10
88.171085
 20
209.275356
 30
0.0
 10
93.506846
 20
209.275356
 30
0.0
  0
SPLINE
  5
130
100
AcDbEntity
  8
Layer_1
 62
7
100
AcDbSpline
 70
8
 71
3
 72
8
 73
4
 74
0
 40
0
 40
0
 40
0
 40
0
 40
1
 40
1
 40
1
 40
1
 10
105.970702
 20
233.741091
 30
0.0
 10
105.971362
 20
232.760422
 30
0.0
 10
105.448560
 20
231.853964
 30
0.0
 10
104.599386
 20
231.363438
 30
0.0
  0
SPLINE
  5
131
100
AcDbEntity
  8
Layer_1
 62
7
100
AcDbSpline
 70
8
 71
3
 72
8
 73
4
 74
0
 40
0
 40
0
 40
0
 40
0
 40
1
 40
1
 40
1
 40
1
 10
104.599386
 20
231.363438
 30
0.0
 10
103.750211
 20
230.872913
 30
0.0
 10
102.703794
 20
230.872913
 30
0.0
 10
101.854620
 20
231.363438
 30
0.0
  0
SPLINE
  5
132
100
AcDbEntity
  8
Layer_1
 62
7
100
AcDbSpline
 70
8
 71
3
 72
8
 73
4
 74
0
 40
0
 40
0
 40
0
 40
0
 40
1
 40
1
 40
1
 40
1
 10
101.854620
 20
231.363438
 30
0.0
 10
101.005445
 20
231.853964
 30
0.0
 10
100.482643
 20
232.760422
 30
0.0
 10
100.483303
 20
233.741091
 30
0.0
  0
SPLINE
  5
133
100
AcDbEntity
  8
Layer_1
 62
7
100
AcDbSpline
 70
8
 71
3
 72
8
 73
4
 74
0
 40
0
 40
0
 40
0
 40
0
 40
1
 40
1
 40
1
 40
1
 10
100.483303
 20
233.741091
 30
0.0
 10
100.482643
 20
234.721760
 30
0.0
 10
101.005445
 20
235.628218
 30
0.0
 10
101.854620
 20
236.118743
 30
0.0
  0
SPLINE
  5
134
100
AcDbEntity
  8
Layer_1
 62
7
100
AcDbSpline
 70
8
 71
3
 72
8
 73
4
 74
0
 40
0
 40
0
 40
0
 40
0
 40
1
 40
1
 40
1
 40
1
 10
101.854620
 20
236.118743
 30
0.0
 10
102.703794
 20
236.609268
 30
0.0
 10
103.750211
 20
236.609268
 30
0.0
 10
104.599386
 20
236.118743
 30
0.0
  0
SPLINE
  5
135
100
AcDbEntity
  8
Layer_1
 62
7
100
AcDbSpline
 70
8
 71
3
 72
8
 73
4
 74
0
 40
0
 40
0
 40
0
 40
0
 40
1
 40
1
 40
1
 40
1
 10
104.599386
 20
236.118743
 30
0.0
 10
105.448560
 20
235.628218
 30
0.0
 10
105.971362
 20
234.721760
 30
0.0
 10
105.970702
 20
233.741091
 30
0.0
  0
LWPOLYLINE
  5
136
100
AcDbEntity
  8
Layer_1
 62
7
100
AcDbPolyline
 90
3
 70
1
 10
93.506846
 20
213.588065
 30
0.0
 10
88.171085
 20
213.588065
 30
0.0
 10
88.171085
 20
213.588065
 30
0.0
  0
SPLINE
  5
137
100
AcDbEntity
  8
Layer_1
 62
7
100
AcDbSpline
 70
8
 71
3
 72
8
 73
4
 74
0
 40
0
 40
0
 40
0
 40
0
 40
1
 40
1
 40
1
 40
1
 10
96.990521
 20
227.116376
 30
0.0
 10
96.512837
 20
226.526523
 30
0.0
 10
96.223229
 20
225.782580
 30
0.0
 10
96.223229
 20
224.964432
 30
0.0
  0
SPLINE
  5
138
100
AcDbEntity
  8
Layer_1
 62
7
100
AcDbSpline
 70
8
 71
3
 72
8
 73
4
 74
0
 40
0
 40
0
 40
0
 40
0
 40
1
 40
1
 40
1
 40
1
 10
96.223229
 20
224.964432
 30
0.0
 10
96.223229
 20
224.146283
 30
0.0
 10
96.512837
 20
223.393521
 30
0.0
 10
96.990521
 20
222.803668
 30
0.0
  0
LWPOLYLINE
  5
139
100
AcDbEntity
  8
Layer_1
 62
7
100
AcDbPolyline
 90
2
 70
1
 10
105.970702
 20
233.741091
 30
0.0
 10
105.970702
 20
233.741091
 30
0.0
  0
SPLINE
  5
13a
100
AcDbEntity
  8
Layer_1
 62
7
100
AcDbSpline
 70
8
 71
3
 72
8
 73
4
 74
0
 40
0
 40
0
 40
0
 40
0
 40
1
 40
1
 40
1
 40
1
 10
102.326282
 20
222.803668
 30
0.0
 10
102.803966
 20
223.393521
 30
0.0
 10
103.093574
 20
224.146283
 30
0.0
 10
103.093574
 20
224.964432
 30
0.0
  0
SPLINE
  5
13b
100
AcDbEntity
  8
Layer_1
 62
7
100
AcDbSpline
 70
8
 71
3
 72
8
 73
4
 74
0
 40
0
 40
0
 40
0
 40
0
 40
1
 40
1
 40
1
 40
1
 10
103.093574
 20
224.964432
 30
0.0
 10
103.093574
 20
225.782580
 30
0.0
 10
102.803966
 20
226.526523
 30
0.0
 10
102.326282
 20
227.116376
 30
0.0
  0
LWPOLYLINE
  5
13c
100
AcDbEntity
  8
Layer_1
 62
7
100
AcDbPolyline
 90
2
 70
1
 10
96.990521
 20
222.803668
 30
0.0
 10
102.326282
 20
222.803668
 30
0.0
  0
SPLINE
  5
13d
100
AcDbEntity
  8
Layer_1
 62
7
100
AcDbSpline
 70
8
 71
3
 72
8
 73
4
 74
0
 40
0
 40
0
 40
0
 40
0
 40
1
 40
1
 40
1
 40
1
 10
2.972153
 20
262.039722
 30
0.0
 10
-0.213076
 20
262.039722
 30
0.0
 10
-2.795764
 20
259.457033
 30
0.0
 10
-2.795764
 20
256.271806
 30
0.0
  0
SPLINE
  5
13e
100
AcDbEntity
  8
Layer_1
 62
7
100
AcDbSpline
 70
8
 71
3
 72
8
 73
4
 74
0
 40
0
 40
0
 40
0
 40
0
 40
1
 40
1
 40
1
 40
1
 10
-2.795764
 20
256.271806
 30
0.0
 10
-2.795764
 20
253.556455
 30
0.0
 10
-0.921811
 20
251.284185
 30
0.0
 10
1.605139
 20
250.671458
 30
0.0
  0
SPLINE
  5
13f
100
AcDbEntity
  8
Layer_1
 62
7
100
AcDbSpline
 70
8
 71
3
 72
8
 73
4
 74
0
 40
0
 40
0
 40
0
 40
0
 40
1
 40
1
 40
1
 40
1
 10
1.605139
 20
250.671458
 30
0.0
 10
0.262099
 20
243.461533
 30
0.0
 10
-1.799167
 20
231.225114
 30
0.0
 10
-1.799167
 20
223.763333
 30
0.0
  0
SPLINE
  5
140
100
AcDbEntity
  8
Layer_1
 62
7
100
AcDbSpline
 70
8
 71
3
 72
8
 73
4
 74
0
 40
0
 40
0
 40
0
 40
0
 40
1
 40
1
 40
1
 40
1
 10
-1.799167
 20
223.763333
 30
0.0
 10
-1.799167
 20
216.305137
 30
0.0
 10
0.254100
 20
204.067301
 30
0.0
 10
1.596319
 20
196.855208
 30
0.0
  0
SPLINE
  5
141
100
AcDbEntity
  8
Layer_1
 62
7
100
AcDbSpline
 70
8
 71
3
 72
8
 73
4
 74
0
 40
0
 40
0
 40
0
 40
0
 40
1
 40
1
 40
1
 40
1
 10
1.596319
 20
196.855208
 30
0.0
 10
-0.926732
 20
196.239718
 30
0.0
 10
-2.795764
 20
193.967446
 30
0.0
 10
-2.795764
 20
191.254861
 30
0.0
  0
SPLINE
  5
142
100
AcDbEntity
  8
Layer_1
 62
7
100
AcDbSpline
 70
8
 71
3
 72
8
 73
4
 74
0
 40
0
 40
0
 40
0
 40
0
 40
1
 40
1
 40
1
 40
1
 10
-2.795764
 20
191.254861
 30
0.0
 10
-2.795764
 20
188.069633
 30
0.0
 10
-0.213076
 20
185.486944
 30
0.0
 10
2.972153
 20
185.486944
 30
0.0
  0
SPLINE
  5
143
100
AcDbEntity
  8
Layer_1
 62
7
100
AcDbSpline
 70
8
 71
3
 72
8
 73
4
 74
0
 40
0
 40
0
 40
0
 40
0
 40
1
 40
1
 40
1
 40
1
 10
2.972153
 20
185.486944
 30
0.0
 10
5.684737
 20
185.486944
 30
0.0
 10
7.957011
 20
187.355975
 30
0.0
 10
8.572500
 20
189.879028
 30
0.0
  0
SPLINE
  5
144
100
AcDbEntity
  8
Layer_1
 62
7
100
AcDbSpline
 70
8
 71
3
 72
8
 73
4
 74
0
 40
0
 40
0
 40
0
 40
0
 40
1
 40
1
 40
1
 40
1
 10
8.572500
 20
189.879028
 30
0.0
 10
15.784592
 20
188.536807
 30
0.0
 10
28.022430
 20
186.483542
 30
0.0
 10
35.480625
 20
186.483542
 30
0.0
  0
SPLINE
  5
145
100
AcDbEntity
  8
Layer_1
 62
7
100
AcDbSpline
 70
8
 71
3
 72
8
 73
4
 74
0
 40
0
 40
0
 40
0
 40
0
 40
1
 40
1
 40
1
 40
1
 10
35.480625
 20
186.483542
 30
0.0
 10
42.938821
 20
186.483542
 30
0.0
 10
55.176657
 20
188.536807
 30
0.0
 10
62.388750
 20
189.879028
 30
0.0
  0
SPLINE
  5
146
100
AcDbEntity
  8
Layer_1
 62
7
100
AcDbSpline
 70
8
 71
3
 72
8
 73
4
 74
0
 40
0
 40
0
 40
0
 40
0
 40
1
 40
1
 40
1
 40
1
 10
62.388750
 20
189.879028
 30
0.0
 10
63.004401
 20
187.356204
 30
0.0
 10
65.276676
 20
185.486944
 30
0.0
 10
67.989097
 20
185.486944
 30
0.0
  0
SPLINE
  5
147
100
AcDbEntity
  8
Layer_1
 62
7
100
AcDbSpline
 70
8
 71
3
 72
8
 73
4
 74
0
 40
0
 40
0
 40
0
 40
0
 40
1
 40
1
 40
1
 40
1
 10
67.989097
 20
185.486944
 30
0.0
 10
71.174325
 20
185.486944
 30
0.0
 10
73.757014
 20
188.069633
 30
0.0
 10
73.757014
 20
191.254861
 30
0.0
  0
SPLINE
  5
148
100
AcDbEntity
  8
Layer_1
 62
7
100
AcDbSpline
 70
8
 71
3
 72
8
 73
4
 74
0
 40
0
 40
0
 40
0
 40
0
 40
1
 40
1
 40
1
 40
1
 10
73.757014
 20
191.254861
 30
0.0
 10
73.757014
 20
193.965162
 30
0.0
 10
71.884766
 20
196.237449
 30
0.0
 10
69.364931
 20
196.855208
 30
0.0
  0
SPLINE
  5
149
100
AcDbEntity
  8
Layer_1
 62
7
100
AcDbSpline
 70
8
 71
3
 72
8
 73
4
 74
0
 40
0
 40
0
 40
0
 40
0
 40
1
 40
1
 40
1
 40
1
 10
69.364931
 20
196.855208
 30
0.0
 10
70.707151
 20
204.067301
 30
0.0
 10
72.760417
 20
216.305137
 30
0.0
 10
72.760417
 20
223.763333
 30
0.0
  0
SPLINE
  5
14a
100
AcDbEntity
  8
Layer_1
 62
7
100
AcDbSpline
 70
8
 71
3
 72
8
 73
4
 74
0
 40
0
 40
0
 40
0
 40
0
 40
1
 40
1
 40
1
 40
1
 10
72.760417
 20
223.763333
 30
0.0
 10
72.760417
 20
231.221530
 30
0.0
 10
70.707151
 20
243.459365
 30
0.0
 10
69.364931
 20
250.671458
 30
0.0
  0
SPLINE
  5
14b
100
AcDbEntity
  8
Layer_1
 62
7
100
AcDbSpline
 70
8
 71
3
 72
8
 73
4
 74
0
 40
0
 40
0
 40
0
 40
0
 40
1
 40
1
 40
1
 40
1
 10
69.364931
 20
250.671458
 30
0.0
 10
71.884571
 20
251.289356
 30
0.0
 10
73.757014
 20
253.561642
 30
0.0
 10
73.757014
 20
256.271806
 30
0.0
  0
SPLINE
  5
14c
100
AcDbEntity
  8
Layer_1
 62
7
100
AcDbSpline
 70
8
 71
3
 72
8
 73
4
 74
0
 40
0
 40
0
 40
0
 40
0
 40
1
 40
1
 40
1
 40
1
 10
73.757014
 20
256.271806
 30
0.0
 10
73.757014
 20
259.457033
 30
0.0
 10
71.174325
 20
262.039722
 30
0.0
 10
67.989097
 20
262.039722
 30
0.0
  0
SPLINE
  5
14d
100
AcDbEntity
  8
Layer_1
 62
7
100
AcDbSpline
 70
8
 71
3
 72
8
 73
4
 74
0
 40
0
 40
0
 40
0
 40
0
 40
1
 40
1
 40
1
 40
1
 10
67.989097
 20
262.039722
 30
0.0
 10
65.278934
 20
262.039722
 30
0.0
 10
63.006647
 20
260.167279
 30
0.0
 10
62.388750
 20
257.647639
 30
0.0
  0
SPLINE
  5
14e
100
AcDbEntity
  8
Layer_1
 62
7
100
AcDbSpline
 70
8
 71
3
 72
8
 73
4
 74
0
 40
0
 40
0
 40
0
 40
0
 40
1
 40
1
 40
1
 40
1
 10
62.388750
 20
257.647639
 30
0.0
 10
55.176657
 20
258.989860
 30
0.0
 10
42.938821
 20
261.043125
 30
0.0
 10
35.480625
 20
261.043125
 30
0.0
  0
SPLINE
  5
14f
100
AcDbEntity
  8
Layer_1
 62
7
100
AcDbSpline
 70
8
 71
3
 72
8
 73
4
 74
0
 40
0
 40
0
 40
0
 40
0
 40
1
 40
1
 40
1
 40
1
 10
35.480625
 20
261.043125
 30
0.0
 10
28.020939
 20
261.043125
 30
0.0
 10
15.783298
 20
258.981895
 30
0.0
 10
8.572500
 20
257.638819
 30
0.0
  0
SPLINE
  5
150
100
AcDbEntity
  8
Layer_1
 62
7
100
AcDbSpline
 70
8
 71
3
 72
8
 73
4
 74
0
 40
0
 40
0
 40
0
 40
0
 40
1
 40
1
 40
1
 40
1
 10
8.572500
 20
257.638819
 30
0.0
 10
7.957782
 20
260.162961
 30
0.0
 10
5.685511
 20
262.039722
 30
0.0
 10
2.972153
 20
262.039722
 30
0.0
  0
LWPOLYLINE
  5
151
100
AcDbEntity
  8
Layer_1
 62
7
100
AcDbPolyline
 90
3
 70
1
 10
102.326282
 20
227.116376
 30
0.0
 10
96.990521
 20
227.116376
 30
0.0
 10
96.990521
 20
227.116376
 30
0.0
  0
SPLINE
  5
152
100
AcDbEntity
  8
Layer_1
 62
7
100
AcDbSpline
 70
8
 71
3
 72
8
 73
4
 74
0
 40
0
 40
0
 40
0
 40
0
 40
1
 40
1
 40
1
 40
1
 10
5.355896
 20
256.271158
 30
0.0
 10
5.355896
 20
255.446323
 30
0.0
 10
4.901167
 20
254.684144
 30
0.0
 10
4.163001
 20
254.271726
 30
0.0
  0
SPLINE
  5
153
100
AcDbEntity
  8
Layer_1
 62
7
100
AcDbSpline
 70
8
 71
3
 72
8
 73
4
 74
0
 40
0
 40
0
 40
0
 40
0
 40
1
 40
1
 40
1
 40
1
 10
4.163001
 20
254.271726
 30
0.0
 10
3.424834
 20
253.859309
 30
0.0
 10
2.515376
 20
253.859309
 30
0.0
 10
1.777210
 20
254.271726
 30
0.0
  0
SPLINE
  5
154
100
AcDbEntity
  8
Layer_1
 62
7
100
AcDbSpline
 70
8
 71
3
 72
8
 73
4
 74
0
 40
0
 40
0
 40
0
 40
0
 40
1
 40
1
 40
1
 40
1
 10
1.777210
 20
254.271726
 30
0.0
 10
1.039043
 20
254.684144
 30
0.0
 10
0.584314
 20
255.446323
 30
0.0
 10
0.584314
 20
256.271158
 30
0.0
  0
SPLINE
  5
155
100
AcDbEntity
  8
Layer_1
 62
7
100
AcDbSpline
 70
8
 71
3
 72
8
 73
4
 74
0
 40
0
 40
0
 40
0
 40
0
 40
1
 40
1
 40
1
 40
1
 10
0.584314
 20
256.271158
 30
0.0
 10
0.584314
 20
257.095992
 30
0.0
 10
1.039043
 20
257.858171
 30
0.0
 10
1.777210
 20
258.270589
 30
0.0
  0
SPLINE
  5
156
100
AcDbEntity
  8
Layer_1
 62
7
100
AcDbSpline
 70
8
 71
3
 72
8
 73
4
 74
0
 40
0
 40
0
 40
0
 40
0
 40
1
 40
1
 40
1
 40
1
 10
1.777210
 20
258.270589
 30
0.0
 10
2.515376
 20
258.683006
 30
0.0
 10
3.424834
 20
258.683006
 30
0.0
 10
4.163001
 20
258.270589
 30
0.0
  0
SPLINE
  5
157
100
AcDbEntity
  8
Layer_1
 62
7
100
AcDbSpline
 70
8
 71
3
 72
8
 73
4
 74
0
 40
0
 40
0
 40
0
 40
0
 40
1
 40
1
 40
1
 40
1
 10
4.163001
 20
258.270589
 30
0.0
 10
4.901167
 20
257.858171
 30
0.0
 10
5.355896
 20
257.095992
 30
0.0
 10
5.355896
 20
256.271158
 30
0.0
  0
LWPOLYLINE
  5
158
100
AcDbEntity
  8
Layer_1
 62
7
100
AcDbPolyline
 90
2
 70
0
 10
2.972153
 20
262.039722
 30
0.0
 10
2.972153
 20
262.039722
 30
0.0
  0
SPLINE
  5
159
100
AcDbEntity
  8
Layer_1
 62
7
100
AcDbSpline
 70
8
 71
3
 72
8
 73
4
 74
0
 40
0
 40
0
 40
0
 40
0
 40
1
 40
1
 40
1
 40
1
 10
70.374413
 20
191.252640
 30
0.0
 10
70.374413
 20
190.427805
 30
0.0
 10
69.919683
 20
189.665627
 30
0.0
 10
69.181517
 20
189.253209
 30
0.0
  0
SPLINE
  5
15a
100
AcDbEntity
  8
Layer_1
 62
7
100
AcDbSpline
 70
8
 71
3
 72
8
 73
4
 74
0
 40
0
 40
0
 40
0
 40
0
 40
1
 40
1
 40
1
 40
1
 10
69.181517
 20
189.253209
 30
0.0
 10
68.443351
 20
188.840792
 30
0.0
 10
67.533893
 20
188.840792
 30
0.0
 10
66.795726
 20
189.253209
 30
0.0
  0
SPLINE
  5
15b
100
AcDbEntity
  8
Layer_1
 62
7
100
AcDbSpline
 70
8
 71
3
 72
8
 73
4
 74
0
 40
0
 40
0
 40
0
 40
0
 40
1
 40
1
 40
1
 40
1
 10
66.795726
 20
189.253209
 30
0.0
 10
66.057560
 20
189.665627
 30
0.0
 10
65.602831
 20
190.427805
 30
0.0
 10
65.602831
 20
191.252640
 30
0.0
  0
SPLINE
  5
15c
100
AcDbEntity
  8
Layer_1
 62
7
100
AcDbSpline
 70
8
 71
3
 72
8
 73
4
 74
0
 40
0
 40
0
 40
0
 40
0
 40
1
 40
1
 40
1
 40
1
 10
65.602831
 20
191.252640
 30
0.0
 10
65.602831
 20
192.077475
 30
0.0
 10
66.057560
 20
192.839654
 30
0.0
 10
66.795726
 20
193.252071
 30
0.0
  0
SPLINE
  5
15d
100
AcDbEntity
  8
Layer_1
 62
7
100
AcDbSpline
 70
8
 71
3
 72
8
 73
4
 74
0
 40
0
 40
0
 40
0
 40
0
 40
1
 40
1
 40
1
 40
1
 10
66.795726
 20
193.252071
 30
0.0
 10
67.533893
 20
193.664489
 30
0.0
 10
68.443351
 20
193.664489
 30
0.0
 10
69.181517
 20
193.252071
 30
0.0
  0
SPLINE
  5
15e
100
AcDbEntity
  8
Layer_1
 62
7
100
AcDbSpline
 70
8
 71
3
 72
8
 73
4
 74
0
 40
0
 40
0
 40
0
 40
0
 40
1
 40
1
 40
1
 40
1
 10
69.181517
 20
193.252071
 30
0.0
 10
69.919683
 20
192.839654
 30
0.0
 10
70.374413
 20
192.077475
 30
0.0
 10
70.374413
 20
191.252640
 30
0.0
  0
LWPOLYLINE
  5
15f
100
AcDbEntity
  8
Layer_1
 62
7
100
AcDbPolyline
 90
2
 70
1
 10
5.355896
 20
256.271158
 30
0.0
 10
5.355896
 20
256.271158
 30
0.0
  0
SPLINE
  5
160
100
AcDbEntity
  8
Layer_1
 62
7
100
AcDbSpline
 70
8
 71
3
 72
8
 73
4
 74
0
 40
0
 40
0
 40
0
 40
0
 40
1
 40
1
 40
1
 40
1
 10
5.355896
 20
191.252640
 30
0.0
 10
5.355896
 20
190.427805
 30
0.0
 10
4.901167
 20
189.665627
 30
0.0
 10
4.163001
 20
189.253209
 30
0.0
  0
SPLINE
  5
161
100
AcDbEntity
  8
Layer_1
 62
7
100
AcDbSpline
 70
8
 71
3
 72
8
 73
4
 74
0
 40
0
 40
0
 40
0
 40
0
 40
1
 40
1
 40
1
 40
1
 10
4.163001
 20
189.253209
 30
0.0
 10
3.424835
 20
188.840792
 30
0.0
 10
2.515376
 20
188.840792
 30
0.0
 10
1.777210
 20
189.253209
 30
0.0
  0
SPLINE
  5
162
100
AcDbEntity
  8
Layer_1
 62
7
100
AcDbSpline
 70
8
 71
3
 72
8
 73
4
 74
0
 40
0
 40
0
 40
0
 40
0
 40
1
 40
1
 40
1
 40
1
 10
1.777210
 20
189.253209
 30
0.0
 10
1.039044
 20
189.665627
 30
0.0
 10
0.584314
 20
190.427805
 30
0.0
 10
0.584314
 20
191.252640
 30
0.0
  0
SPLINE
  5
163
100
AcDbEntity
  8
Layer_1
 62
7
100
AcDbSpline
 70
8
 71
3
 72
8
 73
4
 74
0
 40
0
 40
0
 40
0
 40
0
 40
1
 40
1
 40
1
 40
1
 10
0.584314
 20
191.252640
 30
0.0
 10
0.584314
 20
192.077475
 30
0.0
 10
1.039044
 20
192.839654
 30
0.0
 10
1.777210
 20
193.252071
 30
0.0
  0
SPLINE
  5
164
100
AcDbEntity
  8
Layer_1
 62
7
100
AcDbSpline
 70
8
 71
3
 72
8
 73
4
 74
0
 40
0
 40
0
 40
0
 40
0
 40
1
 40
1
 40
1
 40
1
 10
1.777210
 20
193.252071
 30
0.0
 10
2.515376
 20
193.664489
 30
0.0
 10
3.424835
 20
193.664489
 30
0.0
 10
4.163001
 20
193.252071
 30
0.0
  0
SPLINE
  5
165
100
AcDbEntity
  8
Layer_1
 62
7
100
AcDbSpline
 70
8
 71
3
 72
8
 73
4
 74
0
 40
0
 40
0
 40
0
 40
0
 40
1
 40
1
 40
1
 40
1
 10
4.163001
 20
193.252071
 30
0.0
 10
4.901167
 20
192.839654
 30
0.0
 10
5.355896
 20
192.077475
 30
0.0
 10
5.355896
 20
191.252640
 30
0.0
  0
LWPOLYLINE
  5
166
100
AcDbEntity
  8
Layer_1
 62
7
100
AcDbPolyline
 90
2
 70
1
 10
70.374413
 20
191.252640
 30
0.0
 10
70.374413
 20
191.252640
 30
0.0
  0
SPLINE
  5
167
100
AcDbEntity
  8
Layer_1
 62
7
100
AcDbSpline
 70
8
 71
3
 72
8
 73
4
 74
0
 40
0
 40
0
 40
0
 40
0
 40
1
 40
1
 40
1
 40
1
 10
70.374413
 20
256.271156
 30
0.0
 10
70.374413
 20
255.446321
 30
0.0
 10
69.919683
 20
254.684142
 30
0.0
 10
69.181517
 20
254.271725
 30
0.0
  0
SPLINE
  5
168
100
AcDbEntity
  8
Layer_1
 62
7
100
AcDbSpline
 70
8
 71
3
 72
8
 73
4
 74
0
 40
0
 40
0
 40
0
 40
0
 40
1
 40
1
 40
1
 40
1
 10
69.181517
 20
254.271725
 30
0.0
 10
68.443351
 20
253.859308
 30
0.0
 10
67.533893
 20
253.859308
 30
0.0
 10
66.795726
 20
254.271725
 30
0.0
  0
SPLINE
  5
169
100
AcDbEntity
  8
Layer_1
 62
7
100
AcDbSpline
 70
8
 71
3
 72
8
 73
4
 74
0
 40
0
 40
0
 40
0
 40
0
 40
1
 40
1
 40
1
 40
1
 10
66.795726
 20
254.271725
 30
0.0
 10
66.057560
 20
254.684142
 30
0.0
 10
65.602831
 20
255.446321
 30
0.0
 10
65.602831
 20
256.271156
 30
0.0
  0
SPLINE
  5
16a
100
AcDbEntity
  8
Layer_1
 62
7
100
AcDbSpline
 70
8
 71
3
 72
8
 73
4
 74
0
 40
0
 40
0
 40
0
 40
0
 40
1
 40
1
 40
1
 40
1
 10
65.602831
 20
256.271156
 30
0.0
 10
65.602831
 20
257.095991
 30
0.0
 10
66.057560
 20
257.858170
 30
0.0
 10
66.795726
 20
258.270587
 30
0.0
  0
SPLINE
  5
16b
100
AcDbEntity
  8
Layer_1
 62
7
100
AcDbSpline
 70
8
 71
3
 72
8
 73
4
 74
0
 40
0
 40
0
 40
0
 40
0
 40
1
 40
1
 40
1
 40
1
 10
66.795726
 20
258.270587
 30
0.0
 10
67.533893
 20
258.683005
 30
0.0
 10
68.443351
 20
258.683005
 30
0.0
 10
69.181517
 20
258.270587
 30
0.0
  0
SPLINE
  5
16c
100
AcDbEntity
  8
Layer_1
 62
7
100
AcDbSpline
 70
8
 71
3
 72
8
 73
4
 74
0
 40
0
 40
0
 40
0
 40
0
 40
1
 40
1
 40
1
 40
1
 10
69.181517
 20
258.270587
 30
0.0
 10
69.919683
 20
257.858170
 30
0.0
 10
70.374413
 20
257.095991
 30
0.0
 10
70.374413
 20
256.271156
 30
0.0
  0
LWPOLYLINE
  5
16d
100
AcDbEntity
  8
Layer_1
 62
7
100
AcDbPolyline
 90
2
 70
1
 10
5.355896
 20
191.252640
 30
0.0
 10
5.355896
 20
191.252640
 30
0.0
  0
SPLINE
  5
16e
100
AcDbEntity
  8
Layer_1
 62
7
100
AcDbSpline
 70
8
 71
3
 72
8
 73
4
 74
0
 40
0
 40
0
 40
0
 40
0
 40
1
 40
1
 40
1
 40
1
 10
75.330974
 20
155.277352
 30
0.0
 10
75.330974
 20
141.294514
 30
0.0
 10
63.995642
 20
129.959211
 30
0.0
 10
50.012832
 20
129.959211
 30
0.0
  0
SPLINE
  5
16f
100
AcDbEntity
  8
Layer_1
 62
7
100
AcDbSpline
 70
8
 71
3
 72
8
 73
4
 74
0
 40
0
 40
0
 40
0
 40
0
 40
1
 40
1
 40
1
 40
1
 10
50.012832
 20
129.959211
 30
0.0
 10
36.029994
 20
129.959211
 30
0.0
 10
24.694691
 20
141.294514
 30
0.0
 10
24.694691
 20
155.277352
 30
0.0
  0
SPLINE
  5
170
100
AcDbEntity
  8
Layer_1
 62
7
100
AcDbSpline
 70
8
 71
3
 72
8
 73
4
 74
0
 40
0
 40
0
 40
0
 40
0
 40
1
 40
1
 40
1
 40
1
 10
24.694691
 20
155.277352
 30
0.0
 10
24.694691
 20
169.260162
 30
0.0
 10
36.029994
 20
180.595493
 30
0.0
 10
50.012832
 20
180.595493
 30
0.0
  0
SPLINE
  5
171
100
AcDbEntity
  8
Layer_1
 62
7
100
AcDbSpline
 70
8
 71
3
 72
8
 73
4
 74
0
 40
0
 40
0
 40
0
 40
0
 40
1
 40
1
 40
1
 40
1
 10
50.012832
 20
180.595493
 30
0.0
 10
63.995642
 20
180.595493
 30
0.0
 10
75.330974
 20
169.260162
 30
0.0
 10
75.330974
 20
155.277352
 30
0.0
  0
LWPOLYLINE
  5
172
100
AcDbEntity
  8
Layer_1
 62
7
100
AcDbPolyline
 90
2
 70
1
 10
70.374413
 20
256.271156
 30
0.0
 10
70.374413
 20
256.271156
 30
0.0
  0
SPLINE
  5
173
100
AcDbEntity
  8
Layer_1
 62
7
100
AcDbSpline
 70
8
 71
3
 72
8
 73
4
 74
0
 40
0
 40
0
 40
0
 40
0
 40
1
 40
1
 40
1
 40
1
 10
47.344952
 20
157.433705
 30
0.0
 10
46.867268
 20
156.843852
 30
0.0
 10
46.577660
 20
156.099908
 30
0.0
 10
46.577660
 20
155.281760
 30
0.0
  0
SPLINE
  5
174
100
AcDbEntity
  8
Layer_1
 62
7
100
AcDbSpline
 70
8
 71
3
 72
8
 73
4
 74
0
 40
0
 40
0
 40
0
 40
0
 40
1
 40
1
 40
1
 40
1
 10
46.577660
 20
155.281760
 30
0.0
 10
46.577660
 20
154.463612
 30
0.0
 10
46.867268
 20
153.710849
 30
0.0
 10
47.344952
 20
153.120996
 30
0.0
  0
LWPOLYLINE
  5
175
100
AcDbEntity
  8
Layer_1
 62
7
100
AcDbPolyline
 90
2
 70
1
 10
75.330974
 20
155.277352
 30
0.0
 10
75.330974
 20
155.277352
 30
0.0
  0
SPLINE
  5
176
100
AcDbEntity
  8
Layer_1
 62
7
100
AcDbSpline
 70
8
 71
3
 72
8
 73
4
 74
0
 40
0
 40
0
 40
0
 40
0
 40
1
 40
1
 40
1
 40
1
 10
52.680713
 20
153.120996
 30
0.0
 10
53.158396
 20
153.710849
 30
0.0
 10
53.448004
 20
154.463612
 30
0.0
 10
53.448004
 20
155.281760
 30
0.0
  0
SPLINE
  5
177
100
AcDbEntity
  8
Layer_1
 62
7
100
AcDbSpline
 70
8
 71
3
 72
8
 73
4
 74
0
 40
0
 40
0
 40
0
 40
0
 40
1
 40
1
 40
1
 40
1
 10
53.448004
 20
155.281760
 30
0.0
 10
53.448004
 20
156.099908
 30
0.0
 10
53.158396
 20
156.843852
 30
0.0
 10
52.680713
 20
157.433705
 30
0.0
  0
LWPOLYLINE
  5
178
100
AcDbEntity
  8
Layer_1
 62
7
100
AcDbPolyline
 90
2
 70
1
 10
47.344952
 20
153.120996
 30
0.0
 10
52.680713
 20
153.120996
 30
0.0
  0
LWPOLYLINE
  5
179
100
AcDbEntity
  8
Layer_1
 62
7
100
AcDbPolyline
 90
3
 70
1
 10
52.680713
 20
157.433705
 30
0.0
 10
47.344952
 20
157.433705
 30
0.0
 10
47.344952
 20
157.433705
 30
0.0
  0
ENDSEC
  0
SECTION
  2
OBJECTS
  0
DICTIONARY
  5
C
330
0
100
AcDbDictionary
  3
ACAD_GROUP
350
D
  3
ACAD_MLINESTYLE
350
17
  0
DICTIONARY
  5
D
330
C
100
AcDbDictionary
  0
DICTIONARY
  5
1A
330
C
100
AcDbDictionary
  0
DICTIONARY
  5
17
330
C
100
AcDbDictionary
  3
STANDARD
350
18
  0
DICTIONARY
  5
19
330
C
100
AcDbDictionary
  0
ENDSEC
  0
EOF
