<?xml version="1.0" encoding="UTF-8" standalone="no"?>
<!-- Created with Inkscape (http://www.inkscape.org/) -->

<svg
   xmlns:dc="http://purl.org/dc/elements/1.1/"
   xmlns:cc="http://creativecommons.org/ns#"
   xmlns:rdf="http://www.w3.org/1999/02/22-rdf-syntax-ns#"
   xmlns:svg="http://www.w3.org/2000/svg"
   xmlns="http://www.w3.org/2000/svg"
   xmlns:sodipodi="http://sodipodi.sourceforge.net/DTD/sodipodi-0.dtd"
   xmlns:inkscape="http://www.inkscape.org/namespaces/inkscape"
   width="744.09448819"
   height="1052.3622047"
   id="svg2"
   version="1.1"
   inkscape:version="0.48.4 r9939"
   sodipodi:docname="gears.dxf">
  <sodipodi:namedview
     id="base"
     pagecolor="#ffffff"
     bordercolor="#666666"
     borderopacity="1.0"
     inkscape:pageopacity="0.0"
     inkscape:pageshadow="2"
     inkscape:zoom="1.914841"
     inkscape:cx="200.51727"
     inkscape:cy="773.11912"
     inkscape:document-units="px"
     inkscape:current-layer="layer1"
     showgrid="false"
     inkscape:window-width="1280"
     inkscape:window-height="962"
     inkscape:window-x="-8"
     inkscape:window-y="32"
     inkscape:window-maximized="1" />
  <defs
     id="defs4" />
  <metadata
     id="metadata7">
    <rdf:RDF>
      <cc:Work
         rdf:about="">
        <dc:format>image/svg+xml</dc:format>
        <dc:type
           rdf:resource="http://purl.org/dc/dcmitype/StillImage" />
        <dc:title></dc:title>
      </cc:Work>
    </rdf:RDF>
  </metadata>
  <g
     inkscape:label="Layer 1"
     inkscape:groupmode="layer"
     id="layer1">
    <g
       id="g5223"
       style="stroke-width:1;stroke-miterlimit:4;stroke-dasharray:none">
      <path
         style="fill:none;stroke:#000000;stroke-opacity:1;stroke-width:1;stroke-miterlimit:4;stroke-dasharray:none"
         d="m 116.26116,251.86444 c -1.69258,2.09003 -2.71875,4.72605 -2.71875,7.625 0,2.89895 1.02617,5.56622 2.71875,7.65625 l 18.90624,0 c 1.69258,-2.09003 2.71875,-4.7573 2.71875,-7.65625 0,-2.89895 -1.02617,-5.53497 -2.71875,-7.625 l -18.90624,0 z"
         id="path4197"
         inkscape:connector-curvature="0" />
      <g
         id="g4234"
         transform="translate(125.71428,259.50508)"
         inkscape:label="Gear18"
         style="stroke-width:1;stroke-miterlimit:4;stroke-dasharray:none">
        <path
           id="path4236"
           d="m 22.292,-2.286 1.274,-0.13 1.548,0.219 2.881,1.242 0,1.91 -2.881,1.242 -1.548,0.219 -1.274,-0.13 -0.563,3.191 1.242,0.313 1.38,0.735 2.282,2.153 -0.653,1.794 -3.132,0.182 -1.529,-0.323 -1.153,-0.559 -1.62,2.806 1.06,0.719 1.045,1.163 1.408,2.804 -1.227,1.462 -3.006,-0.9 -1.326,-0.827 -0.892,-0.919 -2.483,2.083 0.751,1.038 0.584,1.45 0.364,3.116 -1.653,0.955 -2.517,-1.874 -0.963,-1.231 -0.524,-1.169 -3.045,1.109 0.35,1.232 0.053,1.562 -0.724,3.053 -1.88,0.331 L 2.197,25.114 1.713,23.628 1.62,22.35 l -3.24,0 -0.093,1.278 -0.484,1.486 -1.724,2.621 -1.88,-0.331 -0.724,-3.053 0.053,-1.562 0.35,-1.232 -3.045,-1.109 -0.524,1.169 -0.963,1.231 -2.517,1.874 -1.653,-0.955 0.364,-3.116 0.584,-1.45 0.751,-1.038 -2.483,-2.083 -0.892,0.919 -1.326,0.827 -3.006,0.9 -1.227,-1.462 1.408,-2.804 1.045,-1.163 1.06,-0.719 -1.62,-2.806 -1.153,0.559 -1.529,0.323 -3.132,-0.182 -0.653,-1.794 2.282,-2.153 1.38,-0.735 1.242,-0.313 -0.563,-3.191 -1.274,0.13 -1.548,-0.219 -2.881,-1.242 0,-1.91 2.881,-1.242 1.548,-0.219 1.274,0.13 0.563,-3.191 -1.242,-0.313 -1.38,-0.735 -2.282,-2.153 0.653,-1.794 3.132,-0.182 1.529,0.323 1.153,0.559 1.62,-2.806 -1.06,-0.719 -1.045,-1.163 -1.408,-2.804 1.227,-1.462 3.006,0.9 1.326,0.827 0.892,0.919 2.483,-2.083 -0.751,-1.038 -0.584,-1.45 -0.364,-3.116 1.653,-0.955 2.517,1.874 0.963,1.231 0.524,1.169 3.045,-1.109 -0.35,-1.232 -0.053,-1.562 0.724,-3.053 1.88,-0.331 1.724,2.621 0.484,1.486 0.093,1.278 3.24,0 0.093,-1.278 0.484,-1.486 1.724,-2.621 1.88,0.331 0.724,3.053 -0.053,1.562 -0.35,1.232 3.045,1.109 0.524,-1.169 0.963,-1.231 2.517,-1.874 1.653,0.955 -0.364,3.116 -0.584,1.45 -0.751,1.038 2.483,2.083 0.892,-0.919 1.326,-0.827 3.006,-0.9 1.227,1.462 -1.408,2.804 -1.045,1.163 -1.06,0.719 1.62,2.806 1.153,-0.559 1.529,-0.323 3.132,0.182 0.653,1.794 -2.282,2.153 -1.38,0.735 -1.242,0.313 z"
           style="fill:none;stroke:#000000;stroke-width:1;stroke-miterlimit:4;stroke-dasharray:none"
           inkscape:connector-curvature="0" />
      </g>
    </g>
    <g
       id="g4256"
       transform="translate(125.71428,259.5050847)"
       inkscape:label="Gear72"
       style="stroke-width:1;stroke-miterlimit:4;stroke-dasharray:none">
      <path
         id="path4258"
         d="M97.993,-3.013L100.817,-2.200L103.636,-1.113L103.636,1.113L100.817,2.200L97.993,3.013L97.883,5.539L100.625,6.595L103.338,7.924L103.144,10.141L100.241,10.978L97.358,11.543L97.028,14.049L99.667,15.340L102.254,16.900L101.868,19.092L98.903,19.673L95.981,19.984L95.434,22.452L97.951,23.968L100.392,25.748L99.816,27.898L96.812,28.218L93.874,28.273L93.114,30.684L95.489,32.414L97.766,34.400L97.005,36.491L93.984,36.548L91.053,36.347L90.085,38.683L92.301,40.613L94.396,42.790L93.456,44.807L90.441,44.601L87.538,44.145L86.371,46.387L88.410,48.503L90.308,50.854L89.195,52.781L86.210,52.313L83.358,51.606L82.000,53.738L83.846,56.024L85.532,58.532L84.255,60.354L81.322,59.628L78.543,58.675L77.004,60.680L78.644,63.118L80.105,65.763L78.674,67.468L75.816,66.489L73.130,65.297L71.422,67.161L72.844,69.733L74.068,72.495L72.495,74.068L69.733,72.844L67.161,71.422L65.297,73.130L66.489,75.816L67.468,78.674L65.763,80.105L63.118,78.644L60.680,77.004L58.675,78.543L59.628,81.322L60.354,84.255L58.532,85.532L56.024,83.846L53.738,82.000L51.606,83.358L52.313,86.210L52.781,89.195L50.854,90.308L48.503,88.410L46.387,86.371L44.145,87.538L44.601,90.441L44.807,93.456L42.790,94.396L40.613,92.301L38.683,90.085L36.347,91.053L36.548,93.984L36.491,97.005L34.400,97.766L32.414,95.489L30.684,93.114L28.273,93.874L28.218,96.812L27.898,99.816L25.748,100.392L23.968,97.951L22.452,95.434L19.984,95.981L19.673,98.903L19.092,101.868L16.900,102.254L15.340,99.667L14.049,97.028L11.543,97.358L10.978,100.241L10.141,103.144L7.924,103.338L6.595,100.625L5.539,97.883L3.013,97.993L2.200,100.817L1.113,103.636L-1.113,103.636L-2.200,100.817L-3.013,97.993L-5.539,97.883L-6.595,100.625L-7.924,103.338L-10.141,103.144L-10.978,100.241L-11.543,97.358L-14.049,97.028L-15.340,99.667L-16.900,102.254L-19.092,101.868L-19.673,98.903L-19.984,95.981L-22.452,95.434L-23.968,97.951L-25.748,100.392L-27.898,99.816L-28.218,96.812L-28.273,93.874L-30.684,93.114L-32.414,95.489L-34.400,97.766L-36.491,97.005L-36.548,93.984L-36.347,91.053L-38.683,90.085L-40.613,92.301L-42.790,94.396L-44.807,93.456L-44.601,90.441L-44.145,87.538L-46.387,86.371L-48.503,88.410L-50.854,90.308L-52.781,89.195L-52.313,86.210L-51.606,83.358L-53.738,82.000L-56.024,83.846L-58.532,85.532L-60.354,84.255L-59.628,81.322L-58.675,78.543L-60.680,77.004L-63.118,78.644L-65.763,80.105L-67.468,78.674L-66.489,75.816L-65.297,73.130L-67.161,71.422L-69.733,72.844L-72.495,74.068L-74.068,72.495L-72.844,69.733L-71.422,67.161L-73.130,65.297L-75.816,66.489L-78.674,67.468L-80.105,65.763L-78.644,63.118L-77.004,60.680L-78.543,58.675L-81.322,59.628L-84.255,60.354L-85.532,58.532L-83.846,56.024L-82.000,53.738L-83.358,51.606L-86.210,52.313L-89.195,52.781L-90.308,50.854L-88.410,48.503L-86.371,46.387L-87.538,44.145L-90.441,44.601L-93.456,44.807L-94.396,42.790L-92.301,40.613L-90.085,38.683L-91.053,36.347L-93.984,36.548L-97.005,36.491L-97.766,34.400L-95.489,32.414L-93.114,30.684L-93.874,28.273L-96.812,28.218L-99.816,27.898L-100.392,25.748L-97.951,23.968L-95.434,22.452L-95.981,19.984L-98.903,19.673L-101.868,19.092L-102.254,16.900L-99.667,15.340L-97.028,14.049L-97.358,11.543L-100.241,10.978L-103.144,10.141L-103.338,7.924L-100.625,6.595L-97.883,5.539L-97.993,3.013L-100.817,2.200L-103.636,1.113L-103.636,-1.113L-100.817,-2.200L-97.993,-3.013L-97.883,-5.539L-100.625,-6.595L-103.338,-7.924L-103.144,-10.141L-100.241,-10.978L-97.358,-11.543L-97.028,-14.049L-99.667,-15.340L-102.254,-16.900L-101.868,-19.092L-98.903,-19.673L-95.981,-19.984L-95.434,-22.452L-97.951,-23.968L-100.392,-25.748L-99.816,-27.898L-96.812,-28.218L-93.874,-28.273L-93.114,-30.684L-95.489,-32.414L-97.766,-34.400L-97.005,-36.491L-93.984,-36.548L-91.053,-36.347L-90.085,-38.683L-92.301,-40.613L-94.396,-42.790L-93.456,-44.807L-90.441,-44.601L-87.538,-44.145L-86.371,-46.387L-88.410,-48.503L-90.308,-50.854L-89.195,-52.781L-86.210,-52.313L-83.358,-51.606L-82.000,-53.738L-83.846,-56.024L-85.532,-58.532L-84.255,-60.354L-81.322,-59.628L-78.543,-58.675L-77.004,-60.680L-78.644,-63.118L-80.105,-65.763L-78.674,-67.468L-75.816,-66.489L-73.130,-65.297L-71.422,-67.161L-72.844,-69.733L-74.068,-72.495L-72.495,-74.068L-69.733,-72.844L-67.161,-71.422L-65.297,-73.130L-66.489,-75.816L-67.468,-78.674L-65.763,-80.105L-63.118,-78.644L-60.680,-77.004L-58.675,-78.543L-59.628,-81.322L-60.354,-84.255L-58.532,-85.532L-56.024,-83.846L-53.738,-82.000L-51.606,-83.358L-52.313,-86.210L-52.781,-89.195L-50.854,-90.308L-48.503,-88.410L-46.387,-86.371L-44.145,-87.538L-44.601,-90.441L-44.807,-93.456L-42.790,-94.396L-40.613,-92.301L-38.683,-90.085L-36.347,-91.053L-36.548,-93.984L-36.491,-97.005L-34.400,-97.766L-32.414,-95.489L-30.684,-93.114L-28.273,-93.874L-28.218,-96.812L-27.898,-99.816L-25.748,-100.392L-23.968,-97.951L-22.452,-95.434L-19.984,-95.981L-19.673,-98.903L-19.092,-101.868L-16.900,-102.254L-15.340,-99.667L-14.049,-97.028L-11.543,-97.358L-10.978,-100.241L-10.141,-103.144L-7.924,-103.338L-6.595,-100.625L-5.539,-97.883L-3.013,-97.993L-2.200,-100.817L-1.113,-103.636L1.113,-103.636L2.200,-100.817L3.013,-97.993L5.539,-97.883L6.595,-100.625L7.924,-103.338L10.141,-103.144L10.978,-100.241L11.543,-97.358L14.049,-97.028L15.340,-99.667L16.900,-102.254L19.092,-101.868L19.673,-98.903L19.984,-95.981L22.452,-95.434L23.968,-97.951L25.748,-100.392L27.898,-99.816L28.218,-96.812L28.273,-93.874L30.684,-93.114L32.414,-95.489L34.400,-97.766L36.491,-97.005L36.548,-93.984L36.347,-91.053L38.683,-90.085L40.613,-92.301L42.790,-94.396L44.807,-93.456L44.601,-90.441L44.145,-87.538L46.387,-86.371L48.503,-88.410L50.854,-90.308L52.781,-89.195L52.313,-86.210L51.606,-83.358L53.738,-82.000L56.024,-83.846L58.532,-85.532L60.354,-84.255L59.628,-81.322L58.675,-78.543L60.680,-77.004L63.118,-78.644L65.763,-80.105L67.468,-78.674L66.489,-75.816L65.297,-73.130L67.161,-71.422L69.733,-72.844L72.495,-74.068L74.068,-72.495L72.844,-69.733L71.422,-67.161L73.130,-65.297L75.816,-66.489L78.674,-67.468L80.105,-65.763L78.644,-63.118L77.004,-60.680L78.543,-58.675L81.322,-59.628L84.255,-60.354L85.532,-58.532L83.846,-56.024L82.000,-53.738L83.358,-51.606L86.210,-52.313L89.195,-52.781L90.308,-50.854L88.410,-48.503L86.371,-46.387L87.538,-44.145L90.441,-44.601L93.456,-44.807L94.396,-42.790L92.301,-40.613L90.085,-38.683L91.053,-36.347L93.984,-36.548L97.005,-36.491L97.766,-34.400L95.489,-32.414L93.114,-30.684L93.874,-28.273L96.812,-28.218L99.816,-27.898L100.392,-25.748L97.951,-23.968L95.434,-22.452L95.981,-19.984L98.903,-19.673L101.868,-19.092L102.254,-16.900L99.667,-15.340L97.028,-14.049L97.358,-11.543L100.241,-10.978L103.144,-10.141L103.338,-7.924L100.625,-6.595L97.883,-5.539z"
         style="stroke:#000000;fill:none;stroke-width:1;stroke-miterlimit:4;stroke-dasharray:none" />
    </g>
    <g
       id="g5213"
       transform="translate(29.171604,-27.015468)"
       style="stroke-width:1;stroke-miterlimit:4;stroke-dasharray:none">
      <g
         id="g4279"
         transform="translate(284.35592,202.94204)"
         inkscape:label="Gear27"
         style="stroke-width:1;stroke-miterlimit:4;stroke-dasharray:none">
        <path
           inkscape:connector-curvature="0"
           id="path4281"
           d="m 34.921,-2.557 0.519,-0.038 2.311,0.396 2.853,1.18 0,2.038 -2.853,1.18 -2.311,0.396 -0.519,-0.038 -0.352,3.009 0.514,0.082 2.158,0.919 2.503,1.805 -0.47,1.983 -3.047,0.491 -2.341,-0.148 -0.496,-0.157 -1.036,2.847 0.481,0.199 1.888,1.391 2.019,2.334 -0.915,1.821 -3.078,-0.225 -2.243,-0.684 -0.447,-0.267 -1.665,2.531 0.422,0.305 1.516,1.789 1.427,2.737 -1.31,1.561 -2.943,-0.93 -2.025,-1.182 -0.374,-0.363 -2.203,2.079 0.34,0.394 1.063,2.09 0.757,2.993 -1.634,1.216 -2.65,-1.583 -1.698,-1.617 -0.28,-0.44 -2.623,1.515 0.24,0.462 0.552,2.279 0.047,3.086 -1.871,0.807 -2.213,-2.151 -1.279,-1.966 -0.171,-0.492 -2.902,0.869 0.127,0.505 0.012,2.345 L 8.054,39.81 6.047,40.164 4.39,37.56 3.599,35.352 3.546,34.834 0.522,35.01 0.53,35.531 0,37.815 -1.344,40.594 -3.378,40.476 -4.39,37.56 l -0.261,-2.331 0.068,-0.516 -2.983,-0.526 -0.113,0.508 -1.042,2.101 -1.948,2.394 -1.952,-0.584 -0.313,-3.071 0.284,-2.328 0.185,-0.487 -2.781,-1.2 -0.227,0.469 -1.498,1.804 -2.448,1.88 -1.765,-1.019 0.404,-3.06 0.813,-2.2 0.293,-0.43 -2.43,-1.809 -0.329,0.404 -1.874,1.409 -2.816,1.265 -1.482,-1.398 1.099,-2.885 1.298,-1.953 0.384,-0.351 -1.947,-2.321 -0.413,0.317 -2.148,0.94 -3.032,0.581 -1.12,-1.702 1.735,-2.553 1.714,-1.601 0.454,-0.254 -1.359,-2.707 -0.475,0.213 -2.308,0.419 -3.083,-0.133 -0.697,-1.915 2.276,-2.084 2.037,-1.163 0.501,-0.142 -0.699,-2.948 -0.511,0.098 -2.342,-0.124 -2.97,-0.841 -0.236,-2.024 2.696,-1.503 2.25,-0.662 0.52,-0.022 0,-3.03 -0.52,-0.022 -2.25,-0.662 -2.696,-1.503 0.236,-2.024 2.97,-0.841 2.342,-0.124 0.511,0.098 0.699,-2.948 -0.501,-0.142 -2.037,-1.163 -2.276,-2.084 0.697,-1.915 3.083,-0.133 2.308,0.419 0.475,0.213 1.359,-2.707 -0.454,-0.254 -1.714,-1.601 -1.735,-2.553 1.12,-1.702 3.032,0.581 2.148,0.94 0.413,0.317 1.947,-2.321 -0.384,-0.351 -1.298,-1.953 -1.099,-2.885 1.482,-1.398 2.816,1.265 1.874,1.409 0.329,0.404 2.43,-1.809 -0.293,-0.43 -0.813,-2.2 -0.404,-3.06 1.765,-1.019 2.448,1.88 1.498,1.804 0.227,0.469 2.781,-1.2 -0.185,-0.487 -0.284,-2.328 0.313,-3.071 1.952,-0.584 1.948,2.394 1.042,2.101 0.113,0.508 2.983,-0.526 -0.068,-0.516 0.261,-2.331 1.012,-2.916 2.034,-0.118 1.344,2.779 0.53,2.284 -0.008,0.521 3.024,0.176 0.053,-0.518 0.791,-2.208 1.657,-2.604 2.007,0.354 0.667,3.014 -0.012,2.345 -0.127,0.505 2.902,0.869 0.171,-0.492 1.279,-1.966 2.213,-2.151 1.871,0.807 -0.047,3.086 -0.552,2.279 -0.24,0.462 2.623,1.515 0.28,-0.44 1.698,-1.617 2.65,-1.583 1.634,1.216 -0.757,2.993 -1.063,2.09 -0.34,0.394 2.203,2.079 0.374,-0.363 2.025,-1.182 2.943,-0.93 1.31,1.561 -1.427,2.737 -1.516,1.789 -0.422,0.305 1.665,2.531 0.447,-0.267 2.243,-0.684 3.078,-0.225 0.915,1.821 -2.019,2.334 -1.888,1.391 -0.481,0.199 1.036,2.847 0.496,-0.157 2.341,-0.148 3.047,0.491 0.47,1.983 -2.503,1.805 -2.158,0.919 -0.514,0.082 z"
           style="fill:none;stroke:#000000;stroke-width:1;stroke-miterlimit:4;stroke-dasharray:none" />
      </g>
      <path
         sodipodi:type="arc"
         style="fill:none;stroke:#000000;stroke-opacity:1;stroke-width:1;stroke-miterlimit:4;stroke-dasharray:none"
         id="path4293"
         sodipodi:cx="-136.9886"
         sodipodi:cy="202.14903"
         sodipodi:rx="9.7217722"
         sodipodi:ry="9.7217722"
         d="m -127.26683,202.14903 c 0,5.36919 -4.35259,9.72177 -9.72177,9.72177 -5.36919,0 -9.72177,-4.35258 -9.72177,-9.72177 0,-5.36918 4.35258,-9.72177 9.72177,-9.72177 5.36918,0 9.72177,4.35259 9.72177,9.72177 z"
         transform="translate(421.34452,0.7929947)" />
    </g>
    <g
       id="g5196"
       transform="translate(196.15607,43.689662)"
       style="stroke-width:1;stroke-miterlimit:4;stroke-dasharray:none">
      <path
         transform="translate(325.72873,57.356052)"
         style="fill:none;stroke:#000000;stroke-opacity:1;stroke-width:1;stroke-miterlimit:4;stroke-dasharray:none"
         d="m -127.26683,202.14903 c 0,5.36919 -4.35259,9.72177 -9.72177,9.72177 -5.36919,0 -9.72177,-4.35258 -9.72177,-9.72177 0,-5.36918 4.35258,-9.72177 9.72177,-9.72177 5.36918,0 9.72177,4.35259 9.72177,9.72177 z"
         id="path4317"
         inkscape:connector-curvature="0" />
      <path
         transform="matrix(-0.5,-0.8660254,0.8660254,-0.5,-149.36077,187.36038)"
         style="fill:none;stroke:#000000;stroke-opacity:1;stroke-width:1;stroke-miterlimit:4;stroke-dasharray:none"
         d="m -127.26683,202.14903 c 0,5.36919 -4.35259,9.72177 -9.72177,9.72177 -5.36919,0 -9.72177,-4.35258 -9.72177,-9.72177 0,-5.36918 4.35258,-9.72177 9.72177,-9.72177 5.36918,0 9.72177,4.35259 9.72177,9.72177 z"
         id="path4367"
         inkscape:connector-curvature="0" />
      <path
         transform="matrix(-0.5,0.8660254,-0.8660254,-0.5,200.77163,533.79882)"
         style="fill:none;stroke:#000000;stroke-opacity:1;stroke-width:1;stroke-miterlimit:4;stroke-dasharray:none"
         d="m -127.26683,202.14903 c 0,5.36919 -4.35259,9.72177 -9.72177,9.72177 -5.36919,0 -9.72177,-4.35258 -9.72177,-9.72177 0,-5.36918 4.35258,-9.72177 9.72177,-9.72177 5.36918,0 9.72177,4.35259 9.72177,9.72177 z"
         id="path4375"
         inkscape:connector-curvature="0" />
      <path
         id="path4398"
         d="m 93.65625,178.8125 c -8.822671,0.19913 -17.330852,4.86703 -22.0625,13.0625 -4.9185,8.51909 -4.48319,18.6269 0.25,26.5 l -0.03125,0.0312 23.75,41.09375 -23.71875,41.0625 -0.03125,0.0625 c -2.378611,3.93605 -3.71875,8.53431 -3.71875,13.46875 -6e-6,14.42027 11.704723,26.12501 26.125,26.125 9.837,0 18.36079,-5.46439 22.8125,-13.5 l 0.0312,0.0312 23.75,-41.125 47.375,0 0.0625,0 c 4.59802,0.0919 9.2579,-1.03278 13.53125,-3.5 12.48832,-7.21014 16.77264,-23.19918 9.5625,-35.6875 -4.9185,-8.51909 -13.90885,-13.19376 -23.09375,-13.03125 l 0,-0.0312 -47.46875,0 -23.6875,-41.03125 -0.0312,-0.0625 c -2.21941,-4.02796 -5.5079,-7.50153 -9.78125,-9.96875 -4.29286,-2.47849 -9.003601,-3.6043 -13.625,-3.5 z"
         style="fill:none;stroke:#000000;stroke-width:1;stroke-miterlimit:4;stroke-opacity:1;stroke-dasharray:none"
         inkscape:connector-curvature="0" />
      <path
         inkscape:connector-curvature="0"
         id="path5194"
         d="m 116.26116,251.86444 c -1.69258,2.09003 -2.71875,4.72605 -2.71875,7.625 0,2.89895 1.02617,5.56622 2.71875,7.65625 l 18.90624,0 c 1.69258,-2.09003 2.71875,-4.7573 2.71875,-7.65625 0,-2.89895 -1.02617,-5.53497 -2.71875,-7.625 l -18.90624,0 z"
         style="fill:none;stroke:#000000;stroke-opacity:1;stroke-width:1;stroke-miterlimit:4;stroke-dasharray:none" />
    </g>
    <path
       sodipodi:type="arc"
       style="fill:none;stroke:#000000;stroke-opacity:1;stroke-width:1;stroke-miterlimit:4;stroke-dasharray:none"
       id="path5211"
       sodipodi:cx="-136.9886"
       sodipodi:cy="202.14903"
       sodipodi:rx="9.7217722"
       sodipodi:ry="9.7217722"
       d="m -127.26683,202.14903 a 9.7217722,9.7217722 0 1 1 -19.44354,0 9.7217722,9.7217722 0 1 1 19.44354,0 z"
       transform="translate(502.75357,21.996712)" />
    <path
       style="fill:none;stroke:#000000;stroke-opacity:1;stroke-width:1;stroke-miterlimit:4;stroke-dasharray:none"
       d="m 343.6672,247.61914 c -1.69258,2.09003 -2.71875,4.72605 -2.71875,7.625 0,2.89895 1.02617,5.56622 2.71875,7.65625 l 18.90624,0 c 1.69258,-2.09003 2.71875,-4.7573 2.71875,-7.65625 0,-2.89895 -1.02617,-5.53497 -2.71875,-7.625 l -18.90624,0 z"
       id="path5221"
       inkscape:connector-curvature="0" />
    <path
       style="fill:none;stroke:#000000;stroke-width:1;stroke-miterlimit:4;stroke-opacity:1;stroke-dasharray:none"
       d="M 10.53125 123.875 C -0.75499456 123.875 -9.90625 133.02626 -9.90625 144.3125 C -9.90625 153.93382 -3.2662585 161.98517 5.6875 164.15625 C 0.92869691 189.70323 -6.375 233.06062 -6.375 259.5 C -6.375 285.92668 0.90035469 329.28909 5.65625 354.84375 C -3.2836963 357.02462 -9.90625 365.07598 -9.90625 374.6875 C -9.90625 385.97374 -0.75499456 395.125 10.53125 395.125 C 20.142768 395.125 28.194132 388.50245 30.375 379.5625 C 55.929656 384.3184 99.292075 391.59375 125.71875 391.59375 C 152.14543 391.59375 195.50784 384.3184 221.0625 379.5625 C 223.24394 388.50164 231.29531 395.125 240.90625 395.125 C 252.19249 395.125 261.34375 385.97374 261.34375 374.6875 C 261.34375 365.08407 254.7098 357.03266 245.78125 354.84375 C 250.53715 329.28909 257.8125 285.92668 257.8125 259.5 C 257.8125 233.07332 250.53715 189.71091 245.78125 164.15625 C 254.70911 161.96685 261.34375 153.91544 261.34375 144.3125 C 261.34375 133.02626 252.19249 123.875 240.90625 123.875 C 231.30331 123.875 223.2519 130.50964 221.0625 139.4375 C 195.50784 134.6816 152.14543 127.40625 125.71875 127.40625 C 99.286792 127.40625 55.925073 134.70982 30.375 139.46875 C 28.196867 130.52494 20.14551 123.875 10.53125 123.875 z "
       id="rect5228" />
    <path
       sodipodi:type="arc"
       style="fill:none;stroke:#000000;stroke-width:1.23484111;stroke-miterlimit:4;stroke-opacity:1;stroke-dasharray:none"
       id="path5240"
       sodipodi:cx="60.273983"
       sodipodi:cy="79.495422"
       sodipodi:rx="10.268901"
       sodipodi:ry="10.268901"
       d="m 70.542884,79.495422 a 10.268901,10.268901 0 1 1 -20.537802,0 10.268901,10.268901 0 1 1 20.537802,0 z"
       transform="matrix(0.82322244,0,0,0.79663731,-39.094901,80.985777)" />
    <path
       transform="matrix(0.82322244,0,0,0.79663731,191.28567,311.36635)"
       d="m 70.542884,79.495422 a 10.268901,10.268901 0 1 1 -20.537802,0 10.268901,10.268901 0 1 1 20.537802,0 z"
       sodipodi:ry="10.268901"
       sodipodi:rx="10.268901"
       sodipodi:cy="79.495422"
       sodipodi:cx="60.273983"
       id="path5244"
       style="fill:none;stroke:#000000;stroke-width:1.23484111;stroke-miterlimit:4;stroke-opacity:1;stroke-dasharray:none"
       sodipodi:type="arc" />
    <path
       sodipodi:type="arc"
       style="fill:none;stroke:#000000;stroke-width:1.23484111;stroke-miterlimit:4;stroke-opacity:1;stroke-dasharray:none"
       id="path5246"
       sodipodi:cx="60.273983"
       sodipodi:cy="79.495422"
       sodipodi:rx="10.268901"
       sodipodi:ry="10.268901"
       d="m 70.542884,79.495422 a 10.268901,10.268901 0 1 1 -20.537802,0 10.268901,10.268901 0 1 1 20.537802,0 z"
       transform="matrix(0.82322244,0,0,0.79663731,-39.0949,311.36635)" />
    <path
       transform="matrix(0.82322244,0,0,0.79663731,191.28567,80.985782)"
       d="m 70.542884,79.495422 a 10.268901,10.268901 0 1 1 -20.537802,0 10.268901,10.268901 0 1 1 20.537802,0 z"
       sodipodi:ry="10.268901"
       sodipodi:rx="10.268901"
       sodipodi:cy="79.495422"
       sodipodi:cx="60.273983"
       id="path5248"
       style="fill:none;stroke:#000000;stroke-width:1.23484111;stroke-miterlimit:4;stroke-opacity:1;stroke-dasharray:none"
       sodipodi:type="arc" />
    <g
       id="g5273"
       transform="translate(-65.801807,19.322753)"
       style="stroke-width:1;stroke-miterlimit:4;stroke-dasharray:none">
      <path
         inkscape:connector-curvature="0"
         id="path5258"
         d="m 332.72258,482.84411 c 0,49.54549 -40.16456,89.70995 -89.70995,89.70995 -49.54549,0 -89.70995,-40.16446 -89.70995,-89.70995 0,-49.54539 40.16446,-89.70995 89.70995,-89.70995 49.54539,0 89.70995,40.16456 89.70995,89.70995 z"
         style="fill:none;stroke:#000000;stroke-width:1;stroke-miterlimit:4;stroke-opacity:1;stroke-dasharray:none" />
      <path
         style="fill:none;stroke:#000000;stroke-opacity:1;stroke-width:1;stroke-miterlimit:4;stroke-dasharray:none"
         d="m 233.55951,475.20349 c -1.69258,2.09003 -2.71875,4.72605 -2.71875,7.625 0,2.89895 1.02617,5.56622 2.71875,7.65625 l 18.90624,0 c 1.69258,-2.09003 2.71875,-4.7573 2.71875,-7.65625 0,-2.89895 -1.02617,-5.53497 -2.71875,-7.625 l -18.90624,0 z"
         id="path5266"
         inkscape:connector-curvature="0" />
    </g>
  </g>
</svg>
