<?xml version="1.0" encoding="UTF-8" standalone="no"?>
<!-- Created with Inkscape (http://www.inkscape.org/) -->

<svg
   xmlns:dc="http://purl.org/dc/elements/1.1/"
   xmlns:cc="http://creativecommons.org/ns#"
   xmlns:rdf="http://www.w3.org/1999/02/22-rdf-syntax-ns#"
   xmlns:svg="http://www.w3.org/2000/svg"
   xmlns="http://www.w3.org/2000/svg"
   xmlns:sodipodi="http://sodipodi.sourceforge.net/DTD/sodipodi-0.dtd"
   xmlns:inkscape="http://www.inkscape.org/namespaces/inkscape"
   sodipodi:docname="gearbox input.dxf"
   inkscape:version="0.48.4 r9939"
   version="1.1"
   id="svg5860"
   height="1052.3622047"
   width="744.09448819">
  <sodipodi:namedview
     id="base"
     pagecolor="#ffffff"
     bordercolor="#666666"
     borderopacity="1.0"
     inkscape:pageopacity="0.0"
     inkscape:pageshadow="2"
     inkscape:zoom="1.1929899"
     inkscape:cx="432.35729"
     inkscape:cy="771.85914"
     inkscape:document-units="px"
     inkscape:current-layer="layer1"
     showgrid="false"
     inkscape:window-width="1280"
     inkscape:window-height="962"
     inkscape:window-x="-8"
     inkscape:window-y="32"
     inkscape:window-maximized="1" />
  <defs
     id="defs5862" />
  <metadata
     id="metadata5865">
    <rdf:RDF>
      <cc:Work
         rdf:about="">
        <dc:format>image/svg+xml</dc:format>
        <dc:type
           rdf:resource="http://purl.org/dc/dcmitype/StillImage" />
        <dc:title></dc:title>
      </cc:Work>
    </rdf:RDF>
  </metadata>
  <g
     id="layer1"
     inkscape:groupmode="layer"
     inkscape:label="Layer 1">
    <g
       id="g8190">
      <path
         id="rect5228"
         d="M 181.96875 288.15625 C 170.68251 288.15625 161.53125 297.30751 161.53125 308.59375 C 161.53125 318.21507 168.17124 326.26642 177.125 328.4375 C 173.57469 347.49684 168.6064 376.47239 166.3125 400.9375 C 158.63206 405.64804 153.5 414.11106 153.5 423.78125 C 153.5 433.45144 158.63206 441.94571 166.3125 446.65625 C 168.59816 471.11684 173.54563 500.06008 177.09375 519.125 C 168.1538 521.30587 161.53125 529.35723 161.53125 538.96875 C 161.53125 550.25499 170.68251 559.40625 181.96875 559.40625 C 191.58027 559.40625 199.63163 552.7837 201.8125 543.84375 C 227.36716 548.59965 270.72958 555.875 297.15625 555.875 C 323.58293 555.875 366.94534 548.59965 392.5 543.84375 C 394.68144 552.78289 402.73281 559.40625 412.34375 559.40625 C 423.62999 559.40625 432.78125 550.25499 432.78125 538.96875 C 432.78125 529.36532 426.1473 521.31391 417.21875 519.125 C 421.97465 493.57034 429.25 450.20793 429.25 423.78125 C 429.25 397.35457 421.97465 353.99216 417.21875 328.4375 C 426.14661 326.2481 432.78125 318.19669 432.78125 308.59375 C 432.78125 297.30751 423.62999 288.15625 412.34375 288.15625 C 402.74081 288.15625 394.6894 294.79089 392.5 303.71875 C 366.94534 298.96285 323.58293 291.6875 297.15625 291.6875 C 270.7243 291.6875 227.36257 298.99107 201.8125 303.75 C 199.63437 294.80619 191.58301 288.15625 181.96875 288.15625 z "
         style="fill:none;stroke:#000000;stroke-width:1;stroke-miterlimit:4;stroke-opacity:1;stroke-dasharray:none" />
      <path
         sodipodi:type="arc"
         style="fill:none;stroke:#000000;stroke-width:1.23484111;stroke-miterlimit:4;stroke-opacity:1;stroke-dasharray:none"
         id="path5240"
         sodipodi:cx="60.273983"
         sodipodi:cy="79.495422"
         sodipodi:rx="10.268901"
         sodipodi:ry="10.268901"
         d="m 70.542884,79.495422 a 10.268901,10.268901 0 1 1 -20.537802,0 10.268901,10.268901 0 1 1 20.537802,0 z"
         transform="matrix(0.82322244,0,0,0.79663731,132.32921,245.27653)" />
      <path
         transform="matrix(0.82322244,0,0,0.79663731,362.70977,475.6571)"
         d="m 70.542884,79.495422 a 10.268901,10.268901 0 1 1 -20.537802,0 10.268901,10.268901 0 1 1 20.537802,0 z"
         sodipodi:ry="10.268901"
         sodipodi:rx="10.268901"
         sodipodi:cy="79.495422"
         sodipodi:cx="60.273983"
         id="path5244"
         style="fill:none;stroke:#000000;stroke-width:1.23484111;stroke-miterlimit:4;stroke-opacity:1;stroke-dasharray:none"
         sodipodi:type="arc" />
      <path
         sodipodi:type="arc"
         style="fill:none;stroke:#000000;stroke-width:1.23484111;stroke-miterlimit:4;stroke-opacity:1;stroke-dasharray:none"
         id="path5246"
         sodipodi:cx="60.273983"
         sodipodi:cy="79.495422"
         sodipodi:rx="10.268901"
         sodipodi:ry="10.268901"
         d="m 70.542884,79.495422 a 10.268901,10.268901 0 1 1 -20.537802,0 10.268901,10.268901 0 1 1 20.537802,0 z"
         transform="matrix(0.82322244,0,0,0.79663731,132.32921,475.6571)" />
      <path
         transform="matrix(0.82322244,0,0,0.79663731,362.70977,245.27654)"
         d="m 70.542884,79.495422 a 10.268901,10.268901 0 1 1 -20.537802,0 10.268901,10.268901 0 1 1 20.537802,0 z"
         sodipodi:ry="10.268901"
         sodipodi:rx="10.268901"
         sodipodi:cy="79.495422"
         sodipodi:cx="60.273983"
         id="path5248"
         style="fill:none;stroke:#000000;stroke-width:1.23484111;stroke-miterlimit:4;stroke-opacity:1;stroke-dasharray:none"
         sodipodi:type="arc" />
      <path
         sodipodi:type="arc"
         style="fill:none;stroke:#000000;stroke-opacity:1"
         id="path5211"
         sodipodi:cx="-136.9886"
         sodipodi:cy="202.14903"
         sodipodi:rx="9.7217722"
         sodipodi:ry="9.7217722"
         d="m -127.26683,202.14903 a 9.7217722,9.7217722 0 1 1 -19.44354,0 9.7217722,9.7217722 0 1 1 19.44354,0 z"
         transform="translate(317.28892,221.64679)" />
      <path
         sodipodi:type="arc"
         style="fill:none;stroke:#000000;stroke-width:0.3704986;stroke-opacity:1"
         id="path6460"
         sodipodi:cx="-136.9886"
         sodipodi:cy="202.14903"
         sodipodi:rx="9.7217722"
         sodipodi:ry="9.7217722"
         d="m -127.26683,202.14903 a 9.7217722,9.7217722 0 1 1 -19.44354,0 9.7217722,9.7217722 0 1 1 19.44354,0 z"
         transform="matrix(2.6990656,0,0,2.6990656,666.87961,-121.81768)" />
    </g>
    <path
       id="path8095"
       d="m 628.36935,492.37365 0.2986,0.0593 0.2987,0.0645 0.2987,0.0694 0.2989,0.0742 0.2989,0.0787 0.299,0.0831 0.299,0.0874 0.2989,0.0915 0.299,0.0954 0.299,0.0994 0.2989,0.1033 0.2988,0.107 0.2987,0.1106 0.2987,0.1143 0.2985,0.1178 0.2985,0.1213 0.2982,0.1248 0.2982,0.1282 0.2979,0.1315 0.003,0.2749 0.002,0.2749 10e-4,0.2749 4e-4,0.2749 -4e-4,0.2749 -10e-4,0.2749 -0.002,0.2749 -0.003,0.2749 -0.2979,0.1315 -0.2982,0.1282 -0.2982,0.1248 -0.2985,0.1213 -0.2985,0.1178 -0.2987,0.1143 -0.2987,0.1106 -0.2988,0.107 -0.2989,0.1033 -0.299,0.0994 -0.299,0.0954 -0.2989,0.0915 -0.299,0.0874 -0.299,0.0831 -0.2989,0.0787 -0.2989,0.0742 -0.2987,0.0694 -0.2987,0.0645 -0.2986,0.0593 -0.0133,0.3242 -0.0147,0.3241 -0.0162,0.3241 -0.0174,0.3239 -0.0189,0.3239 -0.0203,0.3239 -0.0217,0.3237 -0.023,0.3236 0.29,0.0924 0.2896,0.0975 0.2891,0.1025 0.2887,0.1071 0.2882,0.1117 0.2878,0.1161 0.2873,0.1203 0.2869,0.1244 0.2864,0.1283 0.2859,0.1323 0.2855,0.136 0.285,0.1398 0.2845,0.1434 0.2839,0.147 0.2835,0.1505 0.283,0.154 0.2824,0.1574 0.2819,0.1607 0.2814,0.1641 -0.0276,0.2735 -0.0285,0.2734 -0.0294,0.2733 -0.0303,0.2733 -0.0312,0.2731 -0.0322,0.273 -0.0331,0.2729 -0.034,0.2728 -0.3108,0.0973 -0.3106,0.094 -0.3103,0.0906 -0.3102,0.0872 -0.3098,0.0836 -0.3096,0.0801 -0.3093,0.0766 -0.3089,0.0728 -0.3086,0.0691 -0.3082,0.0653 -0.3078,0.0614 -0.3073,0.0575 -0.3069,0.0533 -0.3064,0.0491 -0.3058,0.0448 -0.3053,0.0402 -0.3047,0.0356 -0.304,0.0306 -0.3033,0.0255 -0.0496,0.3207 -0.0509,0.3204 -0.0523,0.3202 -0.0537,0.32 -0.055,0.3197 -0.0564,0.3195 -0.0577,0.3193 -0.0592,0.319 0.2779,0.1243 0.2768,0.1293 0.2759,0.1342 0.2748,0.1388 0.2739,0.1433 0.273,0.1476 0.272,0.1516 0.2712,0.1558 0.2702,0.1596 0.2693,0.1634 0.2685,0.1672 0.2675,0.1707 0.2666,0.1744 0.2658,0.1779 0.2648,0.1813 0.264,0.1847 0.263,0.188 0.2621,0.1913 0.2612,0.1945 -0.058,0.2688 -0.0589,0.2685 -0.0598,0.2683 -0.0607,0.2681 -0.0616,0.2679 -0.0626,0.2677 -0.0634,0.2675 -0.0643,0.2672 -0.3198,0.062 -0.3191,0.0586 -0.3186,0.0553 -0.3179,0.0518 -0.3173,0.0485 -0.3166,0.0449 -0.3159,0.0414 -0.3151,0.0378 -0.3144,0.0342 -0.3136,0.0304 -0.3127,0.0265 -0.3119,0.0227 -0.3109,0.0186 -0.3099,0.0145 -0.309,0.0102 -0.3079,0.006 -0.3067,10e-4 -0.3055,-0.004 -0.3043,-0.009 -0.0851,0.3131 -0.0865,0.3127 -0.0878,0.3123 -0.0892,0.312 -0.0905,0.3116 -0.0918,0.3111 -0.0931,0.3108 -0.0945,0.3104 0.2622,0.1546 0.2606,0.1595 0.2591,0.1642 0.2576,0.1688 0.2561,0.173 0.2547,0.1772 0.2534,0.1812 0.252,0.1851 0.2507,0.1889 0.2493,0.1925 0.248,0.1962 0.2468,0.1996 0.2454,0.2032 0.2442,0.2065 0.2428,0.2098 0.2416,0.2131 0.2404,0.2163 0.239,0.2194 0.2378,0.2226 -0.0877,0.2605 -0.0886,0.2602 -0.0895,0.26 -0.0904,0.2596 -0.0912,0.2593 -0.0921,0.259 -0.093,0.2587 -0.0938,0.2584 -0.3247,0.0257 -0.3237,0.0226 -0.3228,0.0192 -0.3217,0.016 -0.3207,0.0126 -0.3197,0.009 -0.3185,0.006 -0.3174,0.002 -0.3162,-0.001 -0.315,-0.005 -0.3137,-0.009 -0.3125,-0.0124 -0.311,-0.0163 -0.3097,-0.0203 -0.3081,-0.0244 -0.3066,-0.0287 -0.3049,-0.0331 -0.3033,-0.0377 -0.3013,-0.0427 -0.1197,0.3016 -0.121,0.3011 -0.1222,0.3005 -0.1235,0.3 -0.1248,0.2995 -0.1261,0.2989 -0.1273,0.2985 -0.1287,0.2978 0.2433,0.183 0.2411,0.1877 0.239,0.1922 0.2371,0.1965 0.2352,0.2006 0.2333,0.2046 0.2314,0.2084 0.2297,0.2122 0.228,0.2157 0.2262,0.2193 0.2245,0.2227 0.2228,0.226 0.2212,0.2293 0.2195,0.2326 0.2178,0.2357 0.2162,0.2388 0.2146,0.2418 0.213,0.2449 0.2114,0.2477 -0.1163,0.2491 -0.1172,0.2487 -0.118,0.2482 -0.1189,0.2479 -0.1197,0.2475 -0.1205,0.2471 -0.1214,0.2466 -0.1222,0.2463 -0.3255,-0.0108 -0.3242,-0.0139 -0.3229,-0.017 -0.3215,-0.0201 -0.3201,-0.0234 -0.3186,-0.0266 -0.3172,-0.0299 -0.3157,-0.0333 -0.3141,-0.0367 -0.3124,-0.0401 -0.3108,-0.0437 -0.3091,-0.0474 -0.3073,-0.051 -0.3054,-0.0548 -0.3035,-0.0588 -0.3014,-0.0628 -0.2993,-0.0671 -0.2971,-0.0714 -0.2947,-0.0762 -0.1527,0.2863 -0.1539,0.2857 -0.1551,0.2849 -0.1564,0.2843 -0.1575,0.2836 -0.1588,0.283 -0.1599,0.2823 -0.1612,0.2816 0.2212,0.209 0.2186,0.2135 0.216,0.2178 0.2136,0.2218 0.2112,0.2257 0.209,0.2294 0.2067,0.2331 0.2044,0.2365 0.2024,0.2399 0.2002,0.2432 0.1982,0.2464 0.1961,0.2496 0.1941,0.2526 0.1921,0.2557 0.1901,0.2586 0.1881,0.2615 0.1862,0.2644 0.1842,0.2671 0.1823,0.2699 -0.1435,0.2345 -0.1443,0.2339 -0.1451,0.2335 -0.1458,0.2331 -0.1467,0.2325 -0.1474,0.232 -0.1482,0.2315 -0.149,0.231 -0.3223,-0.0471 -0.3206,-0.0501 -0.3189,-0.053 -0.3173,-0.0561 -0.3154,-0.059 -0.3137,-0.0622 -0.3118,-0.0652 -0.31,-0.0684 -0.308,-0.0716 -0.306,-0.0749 -0.304,-0.0782 -0.3018,-0.0817 -0.2996,-0.0851 -0.2974,-0.0886 -0.2949,-0.0924 -0.2926,-0.0962 -0.2899,-0.1002 -0.2872,-0.1042 -0.2843,-0.1087 -0.1838,0.2674 -0.1849,0.2666 -0.1861,0.2658 -0.1872,0.265 -0.1883,0.2642 -0.1894,0.2634 -0.1906,0.2626 -0.1917,0.2618 0.1965,0.2325 0.1933,0.2366 0.1903,0.2406 0.1874,0.2443 0.1846,0.248 0.1819,0.2513 0.1793,0.2548 0.1767,0.2579 0.1742,0.261 0.1718,0.2641 0.1693,0.2671 0.1669,0.27 0.1646,0.2728 0.1623,0.2755 0.1599,0.2783 0.1577,0.2809 0.1554,0.2835 0.1532,0.2861 0.1509,0.2886 -0.1689,0.217 -0.1695,0.2163 -0.1703,0.2158 -0.1711,0.2152 -0.1717,0.2146 -0.1725,0.2141 -0.1732,0.2135 -0.1739,0.2129 -0.315,-0.083 -0.313,-0.0856 -0.311,-0.0884 -0.309,-0.0913 -0.3068,-0.094 -0.3048,-0.0968 -0.3025,-0.0998 -0.3004,-0.1027 -0.298,-0.1056 -0.2957,-0.1087 -0.2933,-0.1117 -0.2908,-0.1149 -0.2882,-0.1182 -0.2856,-0.1214 -0.2828,-0.1248 -0.2799,-0.1283 -0.2769,-0.132 -0.2737,-0.1358 -0.2704,-0.1398 -0.2125,0.2451 -0.2136,0.2442 -0.2147,0.2433 -0.2157,0.2424 -0.2167,0.2415 -0.2177,0.2405 -0.2188,0.2396 -0.2198,0.2387 0.1692,0.253 0.1656,0.2568 0.1622,0.2604 0.1588,0.2638 0.1557,0.267 0.1527,0.2702 0.1496,0.2732 0.1467,0.2761 0.1439,0.2789 0.1411,0.2817 0.1384,0.2843 0.1356,0.287 0.133,0.2894 0.1304,0.292 0.1278,0.2945 0.1252,0.2968 0.1227,0.2991 0.1202,0.3015 0.1177,0.3036 -0.1921,0.1967 -0.1928,0.196 -0.1934,0.1954 -0.194,0.1947 -0.1947,0.194 -0.1954,0.1934 -0.196,0.1928 -0.1967,0.1921 -0.3036,-0.1177 -0.3015,-0.1202 -0.2991,-0.1227 -0.2968,-0.1252 -0.2945,-0.1278 -0.292,-0.1304 -0.2894,-0.133 -0.287,-0.1356 -0.2843,-0.1384 -0.2817,-0.1411 -0.2789,-0.1439 -0.2761,-0.1467 -0.2732,-0.1496 -0.2702,-0.1527 -0.267,-0.1557 -0.2638,-0.1588 -0.2604,-0.1622 -0.2568,-0.1656 -0.253,-0.1692 -0.2387,0.2198 -0.2396,0.2188 -0.2405,0.2177 -0.2415,0.2167 -0.2424,0.2157 -0.2433,0.2147 -0.2442,0.2136 -0.2451,0.2125 0.1398,0.2704 0.1358,0.2737 0.132,0.2769 0.1283,0.2799 0.1248,0.2828 0.1214,0.2856 0.1182,0.2882 0.1149,0.2908 0.1117,0.2933 0.1087,0.2957 0.1056,0.298 0.1027,0.3004 0.0998,0.3025 0.0968,0.3048 0.094,0.3068 0.0913,0.309 0.0884,0.311 0.0856,0.313 0.083,0.315 -0.2129,0.1739 -0.2135,0.1732 -0.2141,0.1725 -0.2146,0.1717 -0.2152,0.1711 -0.2158,0.1703 -0.2163,0.1695 -0.217,0.1689 -0.2886,-0.1509 -0.2861,-0.1532 -0.2835,-0.1554 -0.2809,-0.1577 -0.2783,-0.1599 -0.2755,-0.1623 -0.2728,-0.1646 -0.27,-0.1669 -0.2671,-0.1693 -0.2641,-0.1718 -0.261,-0.1742 -0.2579,-0.1767 -0.2548,-0.1793 -0.2513,-0.1819 -0.248,-0.1846 -0.2443,-0.1874 -0.2406,-0.1903 -0.2366,-0.1933 -0.2325,-0.1965 -0.2618,0.1917 -0.2626,0.1906 -0.2634,0.1894 -0.2642,0.1883 -0.265,0.1872 -0.2658,0.1861 -0.2666,0.1849 -0.2674,0.1838 0.1087,0.2843 0.1042,0.2872 0.1002,0.2899 0.0962,0.2926 0.0924,0.2949 0.0886,0.2974 0.0851,0.2996 0.0817,0.3018 0.0782,0.304 0.0749,0.306 0.0716,0.308 0.0684,0.31 0.0652,0.3118 0.0622,0.3137 0.059,0.3154 0.0561,0.3173 0.053,0.3189 0.0501,0.3206 0.0471,0.3223 -0.231,0.149 -0.2315,0.1482 -0.232,0.1474 -0.2325,0.1467 -0.2331,0.1458 -0.2335,0.1451 -0.2339,0.1443 -0.2345,0.1435 -0.2699,-0.1823 -0.2671,-0.1842 -0.2644,-0.1862 -0.2615,-0.1881 -0.2586,-0.1901 -0.2557,-0.1921 -0.2526,-0.1941 -0.2496,-0.1961 -0.2464,-0.1982 -0.2432,-0.2002 -0.2399,-0.2024 -0.2365,-0.2044 -0.2331,-0.2067 -0.2294,-0.209 -0.2257,-0.2112 -0.2218,-0.2136 -0.2178,-0.216 -0.2135,-0.2186 -0.209,-0.2212 -0.2816,0.1612 -0.2823,0.1599 -0.283,0.1588 -0.2836,0.1575 -0.2843,0.1564 -0.2849,0.1551 -0.2857,0.1539 -0.2863,0.1527 0.0762,0.2947 0.0714,0.2971 0.0671,0.2993 0.0628,0.3014 0.0588,0.3035 0.0548,0.3054 0.051,0.3073 0.0474,0.3091 0.0437,0.3108 0.0401,0.3124 0.0367,0.3141 0.0333,0.3157 0.0299,0.3172 0.0266,0.3186 0.0234,0.3201 0.0201,0.3215 0.017,0.3229 0.0139,0.3242 0.0108,0.3255 -0.2463,0.1222 -0.2466,0.1214 -0.2471,0.1205 -0.2475,0.1197 -0.2479,0.1189 -0.2482,0.118 -0.2487,0.1172 -0.2491,0.1163 -0.2477,-0.2114 -0.2449,-0.213 -0.2418,-0.2146 -0.2388,-0.2162 -0.2357,-0.2178 -0.2326,-0.2195 -0.2293,-0.2212 -0.226,-0.2228 -0.2227,-0.2245 -0.2193,-0.2262 -0.2157,-0.228 -0.2122,-0.2297 -0.2084,-0.2314 -0.2046,-0.2333 -0.2006,-0.2352 -0.1965,-0.2371 -0.1922,-0.239 -0.1877,-0.2411 -0.183,-0.2433 -0.2978,0.1287 -0.2985,0.1273 -0.2989,0.1261 -0.2995,0.1248 -0.3,0.1235 -0.3005,0.1222 -0.3011,0.121 -0.3016,0.1197 0.0427,0.3013 0.0377,0.3033 0.0331,0.3049 0.0287,0.3066 0.0244,0.3081 0.0203,0.3097 0.0163,0.311 0.0124,0.3125 0.009,0.3137 0.005,0.315 10e-4,0.3162 -0.002,0.3174 -0.006,0.3185 -0.009,0.3197 -0.0126,0.3207 -0.016,0.3217 -0.0192,0.3228 -0.0226,0.3237 -0.0257,0.3247 -0.2584,0.0938 -0.2587,0.093 -0.259,0.0921 -0.2593,0.0912 -0.2596,0.0904 -0.26,0.0895 -0.2602,0.0886 -0.2605,0.0877 -0.2226,-0.2378 -0.2194,-0.239 -0.2163,-0.2404 -0.2131,-0.2416 -0.2098,-0.2428 -0.2065,-0.2442 -0.2032,-0.2454 -0.1996,-0.2468 -0.1962,-0.248 -0.1925,-0.2493 -0.1889,-0.2507 -0.1851,-0.252 -0.1812,-0.2534 -0.1772,-0.2547 -0.173,-0.2561 -0.1688,-0.2576 -0.1642,-0.2591 -0.1595,-0.2606 -0.1546,-0.2622 -0.3104,0.0945 -0.3108,0.0931 -0.3111,0.0918 -0.3116,0.0905 -0.312,0.0892 -0.3123,0.0878 -0.3127,0.0865 -0.3131,0.0851 0.009,0.3043 0.004,0.3055 -10e-4,0.3067 -0.006,0.3079 -0.0102,0.309 -0.0145,0.3099 -0.0186,0.3109 -0.0227,0.3119 -0.0265,0.3127 -0.0304,0.3136 -0.0342,0.3144 -0.0378,0.3151 -0.0414,0.3159 -0.0449,0.3166 -0.0485,0.3173 -0.0518,0.3179 -0.0553,0.3186 -0.0586,0.3191 -0.062,0.3198 -0.2672,0.0643 -0.2675,0.0634 -0.2677,0.0626 -0.2679,0.0616 -0.2681,0.0607 -0.2683,0.0598 -0.2685,0.0589 -0.2688,0.058 -0.1945,-0.2612 -0.1913,-0.2621 -0.188,-0.263 -0.1847,-0.264 -0.1813,-0.2648 -0.1779,-0.2658 -0.1744,-0.2666 -0.1707,-0.2675 -0.1672,-0.2685 -0.1634,-0.2693 -0.1596,-0.2702 -0.1558,-0.2712 -0.1516,-0.272 -0.1476,-0.273 -0.1433,-0.2739 -0.1388,-0.2748 -0.1342,-0.2759 -0.1293,-0.2768 -0.1243,-0.2779 -0.319,0.0592 -0.3193,0.0577 -0.3195,0.0564 -0.3197,0.055 -0.32,0.0537 -0.3202,0.0523 -0.3204,0.0509 -0.3207,0.0496 -0.0255,0.3033 -0.0306,0.304 -0.0356,0.3047 -0.0402,0.3053 -0.0448,0.3058 -0.0491,0.3064 -0.0533,0.3069 -0.0575,0.3073 -0.0614,0.3078 -0.0653,0.3082 -0.0691,0.3086 -0.0728,0.3089 -0.0766,0.3093 -0.0801,0.3096 -0.0836,0.3098 -0.0872,0.3102 -0.0906,0.3103 -0.094,0.3106 -0.0973,0.3108 -0.2728,0.034 -0.2729,0.0331 -0.273,0.0322 -0.2731,0.0312 -0.2733,0.0303 -0.2733,0.0294 -0.2734,0.0285 -0.2735,0.0276 -0.1641,-0.2814 -0.1607,-0.2819 -0.1574,-0.2824 -0.154,-0.283 -0.1505,-0.2835 -0.147,-0.2839 -0.1434,-0.2845 -0.1398,-0.285 -0.136,-0.2855 -0.1323,-0.2859 -0.1283,-0.2864 -0.1244,-0.2869 -0.1203,-0.2873 -0.1161,-0.2878 -0.1117,-0.2882 -0.1071,-0.2887 -0.1025,-0.2891 -0.0975,-0.2896 -0.0924,-0.29 -0.3236,0.023 -0.3237,0.0217 -0.3239,0.0203 -0.3239,0.0189 -0.3239,0.0174 -0.3241,0.0162 -0.3241,0.0147 -0.3242,0.0133 -0.0593,0.2986 -0.0645,0.2987 -0.0694,0.2987 -0.0742,0.2989 -0.0787,0.2989 -0.0831,0.299 -0.0874,0.299 -0.0915,0.2989 -0.0954,0.299 -0.0994,0.299 -0.1033,0.2989 -0.107,0.2988 -0.1106,0.2987 -0.1143,0.2987 -0.1178,0.2985 -0.1213,0.2985 -0.1248,0.2982 -0.1282,0.2982 -0.1315,0.2979 -0.2749,0.003 -0.2749,0.002 -0.2749,10e-4 -0.2749,4e-4 -0.2749,-4e-4 -0.2749,-10e-4 -0.2749,-0.002 -0.2749,-0.003 -0.1315,-0.2979 -0.1282,-0.2982 -0.1248,-0.2982 -0.1213,-0.2985 -0.1178,-0.2985 -0.1143,-0.2987 -0.1106,-0.2987 -0.107,-0.2988 -0.1033,-0.2989 -0.0994,-0.299 -0.0954,-0.299 -0.0915,-0.2989 -0.0874,-0.299 -0.0831,-0.299 -0.0787,-0.2989 -0.0742,-0.2989 -0.0694,-0.2987 -0.0645,-0.2987 -0.0593,-0.2986 -0.3242,-0.0133 -0.3241,-0.0147 -0.3241,-0.0162 -0.3239,-0.0174 -0.3239,-0.0189 -0.3239,-0.0203 -0.3237,-0.0217 -0.3236,-0.023 -0.0924,0.29 -0.0975,0.2896 -0.1025,0.2891 -0.1071,0.2887 -0.1117,0.2882 -0.1161,0.2878 -0.1203,0.2873 -0.1244,0.2869 -0.1283,0.2864 -0.1323,0.2859 -0.136,0.2855 -0.1398,0.285 -0.1434,0.2845 -0.147,0.2839 -0.1505,0.2835 -0.154,0.283 -0.1574,0.2824 -0.1607,0.2819 -0.1641,0.2814 -0.2735,-0.0276 -0.2734,-0.0285 -0.2733,-0.0294 -0.2733,-0.0303 -0.2731,-0.0312 -0.273,-0.0322 -0.2729,-0.0331 -0.2728,-0.034 -0.0973,-0.3108 -0.094,-0.3106 -0.0906,-0.3103 -0.0872,-0.3102 -0.0836,-0.3098 -0.0801,-0.3096 -0.0766,-0.3093 -0.0728,-0.3089 -0.0691,-0.3086 -0.0653,-0.3082 -0.0614,-0.3078 -0.0575,-0.3073 -0.0533,-0.3069 -0.0491,-0.3064 -0.0448,-0.3058 -0.0402,-0.3053 -0.0356,-0.3047 -0.0306,-0.304 -0.0255,-0.3033 -0.3207,-0.0496 -0.3204,-0.0509 -0.3202,-0.0523 -0.32,-0.0537 -0.3197,-0.055 -0.3195,-0.0564 -0.3193,-0.0577 -0.319,-0.0592 -0.1243,0.2779 -0.1293,0.2768 -0.1342,0.2759 -0.1388,0.2748 -0.1433,0.2739 -0.1476,0.273 -0.1516,0.272 -0.1558,0.2712 -0.1596,0.2702 -0.1634,0.2693 -0.1672,0.2685 -0.1707,0.2675 -0.1744,0.2666 -0.1779,0.2658 -0.1813,0.2648 -0.1847,0.264 -0.188,0.263 -0.1913,0.2621 -0.1945,0.2612 -0.2688,-0.058 -0.2685,-0.0589 -0.2683,-0.0598 -0.2681,-0.0607 -0.2679,-0.0616 -0.2677,-0.0626 -0.2675,-0.0634 -0.2672,-0.0643 -0.062,-0.3198 -0.0586,-0.3191 -0.0553,-0.3186 -0.0518,-0.3179 -0.0485,-0.3173 -0.0449,-0.3166 -0.0414,-0.3159 -0.0378,-0.3151 -0.0342,-0.3144 -0.0304,-0.3136 -0.0265,-0.3127 -0.0227,-0.3119 -0.0186,-0.3109 -0.0145,-0.3099 -0.0102,-0.309 -0.006,-0.3079 -10e-4,-0.3067 0.004,-0.3055 0.009,-0.3043 -0.3131,-0.0851 -0.3127,-0.0865 -0.3123,-0.0878 -0.312,-0.0892 -0.3116,-0.0905 -0.3111,-0.0918 -0.3108,-0.0931 -0.3104,-0.0945 -0.1546,0.2622 -0.1595,0.2606 -0.1642,0.2591 -0.1688,0.2576 -0.173,0.2561 -0.1772,0.2547 -0.1812,0.2534 -0.1851,0.252 -0.1889,0.2507 -0.1925,0.2493 -0.1962,0.248 -0.1996,0.2468 -0.2032,0.2454 -0.2065,0.2442 -0.2098,0.2428 -0.2131,0.2416 -0.2163,0.2404 -0.2194,0.239 -0.2226,0.2378 -0.2605,-0.0877 -0.2602,-0.0886 -0.26,-0.0895 -0.2596,-0.0904 -0.2593,-0.0912 -0.259,-0.0921 -0.2587,-0.093 -0.2584,-0.0938 -0.0257,-0.3247 -0.0226,-0.3237 -0.0192,-0.3228 -0.016,-0.3217 -0.0126,-0.3207 -0.009,-0.3197 -0.006,-0.3185 -0.002,-0.3174 10e-4,-0.3162 0.005,-0.315 0.009,-0.3137 0.0124,-0.3125 0.0163,-0.311 0.0203,-0.3097 0.0244,-0.3081 0.0287,-0.3066 0.0331,-0.3049 0.0377,-0.3033 0.0427,-0.3013 -0.3016,-0.1197 -0.3011,-0.121 -0.3005,-0.1222 -0.3,-0.1235 -0.2995,-0.1248 -0.2989,-0.1261 -0.2985,-0.1273 -0.2978,-0.1287 -0.183,0.2433 -0.1877,0.2411 -0.1922,0.239 -0.1965,0.2371 -0.2006,0.2352 -0.2046,0.2333 -0.2084,0.2314 -0.2122,0.2297 -0.2157,0.228 -0.2193,0.2262 -0.2227,0.2245 -0.226,0.2228 -0.2293,0.2212 -0.2326,0.2195 -0.2357,0.2178 -0.2388,0.2162 -0.2418,0.2146 -0.2449,0.213 -0.2477,0.2114 -0.2491,-0.1163 -0.2487,-0.1172 -0.2482,-0.118 -0.2479,-0.1189 -0.2475,-0.1197 -0.2471,-0.1205 -0.2466,-0.1214 -0.2463,-0.1222 0.0108,-0.3255 0.0139,-0.3242 0.017,-0.3229 0.0201,-0.3215 0.0234,-0.3201 0.0266,-0.3186 0.0299,-0.3172 0.0333,-0.3157 0.0367,-0.3141 0.0401,-0.3124 0.0437,-0.3108 0.0474,-0.3091 0.051,-0.3073 0.0548,-0.3054 0.0588,-0.3035 0.0628,-0.3014 0.0671,-0.2993 0.0714,-0.2971 0.0762,-0.2947 -0.2863,-0.1527 -0.2857,-0.1539 -0.2849,-0.1551 -0.2843,-0.1564 -0.2836,-0.1575 -0.283,-0.1588 -0.2823,-0.1599 -0.2816,-0.1612 -0.209,0.2212 -0.2135,0.2186 -0.2178,0.216 -0.2218,0.2136 -0.2257,0.2112 -0.2294,0.209 -0.2331,0.2067 -0.2365,0.2044 -0.2399,0.2024 -0.2432,0.2002 -0.2464,0.1982 -0.2496,0.1961 -0.2526,0.1941 -0.2557,0.1921 -0.2586,0.1901 -0.2615,0.1881 -0.2644,0.1862 -0.2671,0.1842 -0.2699,0.1823 -0.2345,-0.1435 -0.2339,-0.1443 -0.2335,-0.1451 -0.2331,-0.1458 -0.2325,-0.1467 -0.232,-0.1474 -0.2315,-0.1482 -0.231,-0.149 0.0471,-0.3223 0.0501,-0.3206 0.053,-0.3189 0.0561,-0.3173 0.059,-0.3154 0.0622,-0.3137 0.0652,-0.3118 0.0684,-0.31 0.0716,-0.308 0.0749,-0.306 0.0782,-0.304 0.0817,-0.3018 0.0851,-0.2996 0.0886,-0.2974 0.0924,-0.2949 0.0962,-0.2926 0.1002,-0.2899 0.1042,-0.2872 0.1087,-0.2843 -0.2674,-0.1838 -0.2666,-0.1849 -0.2658,-0.1861 -0.265,-0.1872 -0.2642,-0.1883 -0.2634,-0.1894 -0.2626,-0.1906 -0.2618,-0.1917 -0.2325,0.1965 -0.2366,0.1933 -0.2406,0.1903 -0.2443,0.1874 -0.248,0.1846 -0.2513,0.1819 -0.2548,0.1793 -0.2579,0.1767 -0.261,0.1742 -0.2641,0.1718 -0.2671,0.1693 -0.27,0.1669 -0.2728,0.1646 -0.2755,0.1623 -0.2783,0.1599 -0.2809,0.1577 -0.2835,0.1554 -0.2861,0.1532 -0.2886,0.1509 -0.217,-0.1689 -0.2163,-0.1695 -0.2158,-0.1703 -0.2152,-0.1711 -0.2146,-0.1717 -0.2141,-0.1725 -0.2135,-0.1732 -0.2129,-0.1739 0.083,-0.315 0.0856,-0.313 0.0884,-0.311 0.0913,-0.309 0.094,-0.3068 0.0968,-0.3048 0.0998,-0.3025 0.1027,-0.3004 0.1056,-0.298 0.1087,-0.2957 0.1117,-0.2933 0.1149,-0.2908 0.1182,-0.2882 0.1214,-0.2856 0.1248,-0.2828 0.1283,-0.2799 0.132,-0.2769 0.1358,-0.2737 0.1398,-0.2704 -0.2451,-0.2125 -0.2442,-0.2136 -0.2433,-0.2147 -0.2424,-0.2157 -0.2415,-0.2167 -0.2405,-0.2177 -0.2396,-0.2188 -0.2387,-0.2198 -0.253,0.1692 -0.2568,0.1656 -0.2604,0.1622 -0.2638,0.1588 -0.267,0.1557 -0.2702,0.1527 -0.2732,0.1496 -0.2761,0.1467 -0.2789,0.1439 -0.2817,0.1411 -0.2843,0.1384 -0.287,0.1356 -0.2894,0.133 -0.292,0.1304 -0.2945,0.1278 -0.2968,0.1252 -0.2991,0.1227 -0.3015,0.1202 -0.3036,0.1177 -0.1967,-0.1921 -0.196,-0.1928 -0.1954,-0.1934 -0.1947,-0.194 -0.194,-0.1947 -0.1934,-0.1954 -0.1928,-0.196 -0.1921,-0.1967 0.1177,-0.3036 0.1202,-0.3015 0.1227,-0.2991 0.1252,-0.2968 0.1278,-0.2945 0.1304,-0.292 0.133,-0.2894 0.1356,-0.287 0.1384,-0.2843 0.1411,-0.2817 0.1439,-0.2789 0.1467,-0.2761 0.1496,-0.2732 0.1527,-0.2702 0.1557,-0.267 0.1588,-0.2638 0.1622,-0.2604 0.1656,-0.2568 0.1692,-0.253 -0.2198,-0.2387 -0.2188,-0.2396 -0.2177,-0.2405 -0.2167,-0.2415 -0.2157,-0.2424 -0.2147,-0.2433 -0.2136,-0.2442 -0.2125,-0.2451 -0.2704,0.1398 -0.2737,0.1358 -0.2769,0.132 -0.2799,0.1283 -0.2828,0.1248 -0.2856,0.1214 -0.2882,0.1182 -0.2908,0.1149 -0.2933,0.1117 -0.2957,0.1087 -0.298,0.1056 -0.3004,0.1027 -0.3025,0.0998 -0.3048,0.0968 -0.3068,0.094 -0.309,0.0913 -0.311,0.0884 -0.313,0.0856 -0.315,0.083 -0.1739,-0.2129 -0.1732,-0.2135 -0.1725,-0.2141 -0.1717,-0.2146 -0.1711,-0.2152 -0.1703,-0.2158 -0.1695,-0.2163 -0.1689,-0.217 0.1509,-0.2886 0.1532,-0.2861 0.1554,-0.2835 0.1577,-0.2809 0.1599,-0.2783 0.1623,-0.2755 0.1646,-0.2728 0.1669,-0.27 0.1693,-0.2671 0.1718,-0.2641 0.1742,-0.261 0.1767,-0.2579 0.1793,-0.2548 0.1819,-0.2513 0.1846,-0.248 0.1874,-0.2443 0.1903,-0.2406 0.1933,-0.2366 0.1965,-0.2325 -0.1917,-0.2618 -0.1906,-0.2626 -0.1894,-0.2634 -0.1883,-0.2642 -0.1872,-0.265 -0.1861,-0.2658 -0.1849,-0.2666 -0.1838,-0.2674 -0.2843,0.1087 -0.2872,0.1042 -0.2899,0.1002 -0.2926,0.0962 -0.2949,0.0924 -0.2974,0.0886 -0.2996,0.0851 -0.3018,0.0817 -0.304,0.0782 -0.306,0.0749 -0.308,0.0716 -0.31,0.0684 -0.3118,0.0652 -0.3137,0.0622 -0.3154,0.059 -0.3173,0.0561 -0.3189,0.053 -0.3206,0.0501 -0.3223,0.0471 -0.149,-0.231 -0.1482,-0.2315 -0.1474,-0.232 -0.1467,-0.2325 -0.1458,-0.2331 -0.1451,-0.2335 -0.1443,-0.2339 -0.1435,-0.2345 0.1823,-0.2699 0.1842,-0.2671 0.1862,-0.2644 0.1881,-0.2615 0.1901,-0.2586 0.1921,-0.2557 0.1941,-0.2526 0.1961,-0.2496 0.1982,-0.2464 0.2002,-0.2432 0.2024,-0.2399 0.2044,-0.2365 0.2067,-0.2331 0.209,-0.2294 0.2112,-0.2257 0.2136,-0.2218 0.216,-0.2178 0.2186,-0.2135 0.2212,-0.209 -0.1612,-0.2816 -0.1599,-0.2823 -0.1588,-0.283 -0.1575,-0.2836 -0.1564,-0.2843 -0.1551,-0.2849 -0.1539,-0.2857 -0.1527,-0.2863 -0.2947,0.0762 -0.2971,0.0714 -0.2993,0.0671 -0.3014,0.0628 -0.3035,0.0588 -0.3054,0.0548 -0.3073,0.051 -0.3091,0.0474 -0.3108,0.0437 -0.3124,0.0401 -0.3141,0.0367 -0.3157,0.0333 -0.3172,0.0299 -0.3186,0.0266 -0.3201,0.0234 -0.3215,0.0201 -0.3229,0.017 -0.3242,0.0139 -0.3255,0.0108 -0.1222,-0.2463 -0.1214,-0.2466 -0.1205,-0.2471 -0.1197,-0.2475 -0.1189,-0.2479 -0.118,-0.2482 -0.1172,-0.2487 -0.1163,-0.2491 0.2114,-0.2477 0.213,-0.2449 0.2146,-0.2418 0.2162,-0.2388 0.2178,-0.2357 0.2195,-0.2326 0.2212,-0.2293 0.2228,-0.226 0.2245,-0.2227 0.2262,-0.2193 0.228,-0.2157 0.2297,-0.2122 0.2314,-0.2084 0.2333,-0.2046 0.2352,-0.2006 0.2371,-0.1965 0.239,-0.1922 0.2411,-0.1877 0.2433,-0.183 -0.1287,-0.2978 -0.1273,-0.2985 -0.1261,-0.2989 -0.1248,-0.2995 -0.1235,-0.3 -0.1222,-0.3005 -0.121,-0.3011 -0.1197,-0.3016 -0.3013,0.0427 -0.3033,0.0377 -0.3049,0.0331 -0.3066,0.0287 -0.3081,0.0244 -0.3097,0.0203 -0.311,0.0163 -0.3125,0.0124 -0.3137,0.009 -0.315,0.005 -0.3162,0.001 -0.3174,-0.002 -0.3185,-0.006 -0.3197,-0.009 -0.3207,-0.0126 -0.3217,-0.016 -0.3228,-0.0192 -0.3237,-0.0226 -0.3247,-0.0257 -0.0938,-0.2584 -0.093,-0.2587 -0.0921,-0.259 -0.0912,-0.2593 -0.0904,-0.2596 -0.0895,-0.26 -0.0886,-0.2602 -0.0877,-0.2605 0.2378,-0.2226 0.239,-0.2194 0.2404,-0.2163 0.2416,-0.2131 0.2428,-0.2098 0.2442,-0.2065 0.2454,-0.2032 0.2468,-0.1996 0.248,-0.1962 0.2493,-0.1925 0.2507,-0.1889 0.252,-0.1851 0.2534,-0.1812 0.2547,-0.1772 0.2561,-0.173 0.2576,-0.1688 0.2591,-0.1642 0.2606,-0.1595 0.2622,-0.1546 -0.0945,-0.3104 -0.0931,-0.3108 -0.0918,-0.3111 -0.0905,-0.3116 -0.0892,-0.312 -0.0878,-0.3123 -0.0865,-0.3127 -0.0851,-0.3131 -0.3043,0.009 -0.3055,0.004 -0.3067,-10e-4 -0.3079,-0.006 -0.309,-0.0102 -0.3099,-0.0145 -0.3109,-0.0186 -0.3119,-0.0227 -0.3127,-0.0265 -0.3136,-0.0304 -0.3144,-0.0342 -0.3151,-0.0378 -0.3159,-0.0414 -0.3166,-0.0449 -0.3173,-0.0485 -0.3179,-0.0518 -0.3186,-0.0553 -0.3191,-0.0586 -0.3198,-0.062 -0.0643,-0.2672 -0.0634,-0.2675 -0.0626,-0.2677 -0.0616,-0.2679 -0.0607,-0.2681 -0.0598,-0.2683 -0.0589,-0.2685 -0.058,-0.2688 0.2612,-0.1945 0.2621,-0.1913 0.263,-0.188 0.264,-0.1847 0.2648,-0.1813 0.2658,-0.1779 0.2666,-0.1744 0.2675,-0.1707 0.2685,-0.1672 0.2693,-0.1634 0.2702,-0.1596 0.2712,-0.1558 0.272,-0.1516 0.273,-0.1476 0.2739,-0.1433 0.2748,-0.1388 0.2759,-0.1342 0.2768,-0.1293 0.2779,-0.1243 -0.0592,-0.319 -0.0577,-0.3193 -0.0564,-0.3195 -0.055,-0.3197 -0.0537,-0.32 -0.0523,-0.3202 -0.0509,-0.3204 -0.0496,-0.3207 -0.3033,-0.0255 -0.304,-0.0306 -0.3047,-0.0356 -0.3053,-0.0402 -0.3058,-0.0448 -0.3064,-0.0491 -0.3069,-0.0533 -0.3073,-0.0575 -0.3078,-0.0614 -0.3082,-0.0653 -0.3086,-0.0691 -0.3089,-0.0728 -0.3093,-0.0766 -0.3096,-0.0801 -0.3098,-0.0836 -0.3102,-0.0872 -0.3103,-0.0906 -0.3106,-0.094 -0.3108,-0.0973 -0.034,-0.2728 -0.0331,-0.2729 -0.0322,-0.273 -0.0312,-0.2731 -0.0303,-0.2733 -0.0294,-0.2733 -0.0285,-0.2734 -0.0276,-0.2735 0.2814,-0.1641 0.2819,-0.1607 0.2824,-0.1574 0.283,-0.154 0.2835,-0.1505 0.2839,-0.147 0.2845,-0.1434 0.285,-0.1398 0.2855,-0.136 0.2859,-0.1323 0.2864,-0.1283 0.2869,-0.1244 0.2873,-0.1203 0.2878,-0.1161 0.2882,-0.1117 0.2887,-0.1071 0.2891,-0.1025 0.2896,-0.0975 0.29,-0.0924 -0.023,-0.3236 -0.0217,-0.3237 -0.0203,-0.3239 -0.0189,-0.3239 -0.0174,-0.3239 -0.0162,-0.3241 -0.0147,-0.3241 -0.0133,-0.3242 -0.2986,-0.0593 -0.2987,-0.0645 -0.2987,-0.0694 -0.2989,-0.0742 -0.2989,-0.0787 -0.299,-0.0831 -0.299,-0.0874 -0.2989,-0.0915 -0.299,-0.0954 -0.299,-0.0994 -0.2989,-0.1033 -0.2988,-0.107 -0.2987,-0.1106 -0.2987,-0.1143 -0.2985,-0.1178 -0.2985,-0.1213 -0.2982,-0.1248 -0.2982,-0.1282 -0.2979,-0.1315 -0.003,-0.2749 -0.002,-0.2749 -10e-4,-0.2749 -4e-4,-0.2749 4e-4,-0.2749 10e-4,-0.2749 0.002,-0.2749 0.003,-0.2749 0.2979,-0.1315 0.2982,-0.1282 0.2982,-0.1248 0.2985,-0.1213 0.2985,-0.1178 0.2987,-0.1143 0.2987,-0.1106 0.2988,-0.107 0.2989,-0.1033 0.299,-0.0994 0.299,-0.0954 0.2989,-0.0915 0.299,-0.0874 0.299,-0.0831 0.2989,-0.0787 0.2989,-0.0742 0.2987,-0.0694 0.2987,-0.0645 0.2986,-0.0593 0.0133,-0.3242 0.0147,-0.3241 0.0162,-0.3241 0.0174,-0.3239 0.0189,-0.3239 0.0203,-0.3239 0.0217,-0.3237 0.023,-0.3236 -0.29,-0.0924 -0.2896,-0.0975 -0.2891,-0.1025 -0.2887,-0.1071 -0.2882,-0.1117 -0.2878,-0.1161 -0.2873,-0.1203 -0.2869,-0.1244 -0.2864,-0.1283 -0.2859,-0.1323 -0.2855,-0.136 -0.285,-0.1398 -0.2845,-0.1434 -0.2839,-0.147 -0.2835,-0.1505 -0.283,-0.154 -0.2824,-0.1574 -0.2819,-0.1607 -0.2814,-0.1641 0.0276,-0.2735 0.0285,-0.2734 0.0294,-0.2733 0.0303,-0.2733 0.0312,-0.2731 0.0322,-0.273 0.0331,-0.2729 0.034,-0.2728 0.3108,-0.0973 0.3106,-0.094 0.3103,-0.0906 0.3102,-0.0872 0.3098,-0.0836 0.3096,-0.0801 0.3093,-0.0766 0.3089,-0.0728 0.3086,-0.0691 0.3082,-0.0653 0.3078,-0.0614 0.3073,-0.0575 0.3069,-0.0533 0.3064,-0.0491 0.3058,-0.0448 0.3053,-0.0402 0.3047,-0.0356 0.304,-0.0306 0.3033,-0.0255 0.0496,-0.3207 0.0509,-0.3204 0.0523,-0.3202 0.0537,-0.32 0.055,-0.3197 0.0564,-0.3195 0.0577,-0.3193 0.0592,-0.319 -0.2779,-0.1243 -0.2768,-0.1293 -0.2759,-0.1342 -0.2748,-0.1388 -0.2739,-0.1433 -0.273,-0.1476 -0.272,-0.1516 -0.2712,-0.1558 -0.2702,-0.1596 -0.2693,-0.1634 -0.2685,-0.1672 -0.2675,-0.1707 -0.2666,-0.1744 -0.2658,-0.1779 -0.2648,-0.1813 -0.264,-0.1847 -0.263,-0.188 -0.2621,-0.1913 -0.2612,-0.1945 0.058,-0.2688 0.0589,-0.2685 0.0598,-0.2683 0.0607,-0.2681 0.0616,-0.2679 0.0626,-0.2677 0.0634,-0.2675 0.0643,-0.2672 0.3198,-0.062 0.3191,-0.0586 0.3186,-0.0553 0.3179,-0.0518 0.3173,-0.0485 0.3166,-0.0449 0.3159,-0.0414 0.3151,-0.0378 0.3144,-0.0342 0.3136,-0.0304 0.3127,-0.0265 0.3119,-0.0227 0.3109,-0.0186 0.3099,-0.0145 0.309,-0.0102 0.3079,-0.006 0.3067,-10e-4 0.3055,0.004 0.3043,0.009 0.0851,-0.3131 0.0865,-0.3127 0.0878,-0.3123 0.0892,-0.312 0.0905,-0.3116 0.0918,-0.3111 0.0931,-0.3108 0.0945,-0.3104 -0.2622,-0.1546 -0.2606,-0.1595 -0.2591,-0.1642 -0.2576,-0.1688 -0.2561,-0.173 -0.2547,-0.1772 -0.2534,-0.1812 -0.252,-0.1851 -0.2507,-0.1889 -0.2493,-0.1925 -0.248,-0.1962 -0.2468,-0.1996 -0.2454,-0.2032 -0.2442,-0.2065 -0.2428,-0.2098 -0.2416,-0.2131 -0.2404,-0.2163 -0.239,-0.2194 -0.2378,-0.2226 0.0877,-0.2605 0.0886,-0.2602 0.0895,-0.26 0.0904,-0.2596 0.0912,-0.2593 0.0921,-0.259 0.093,-0.2587 0.0938,-0.2584 0.3247,-0.0257 0.3237,-0.0226 0.3228,-0.0192 0.3217,-0.016 0.3207,-0.0126 0.3197,-0.009 0.3185,-0.006 0.3174,-0.002 0.3162,0.001 0.315,0.005 0.3137,0.009 0.3125,0.0124 0.311,0.0163 0.3097,0.0203 0.3081,0.0244 0.3066,0.0287 0.3049,0.0331 0.3033,0.0377 0.3013,0.0427 0.1197,-0.3016 0.121,-0.3011 0.1222,-0.3005 0.1235,-0.3 0.1248,-0.2995 0.1261,-0.2989 0.1273,-0.2985 0.1287,-0.2978 -0.2433,-0.183 -0.2411,-0.1877 -0.239,-0.1922 -0.2371,-0.1965 -0.2352,-0.2006 -0.2333,-0.2046 -0.2314,-0.2084 -0.2297,-0.2122 -0.228,-0.2157 -0.2262,-0.2193 -0.2245,-0.2227 -0.2228,-0.226 -0.2212,-0.2293 -0.2195,-0.2326 -0.2178,-0.2357 -0.2162,-0.2388 -0.2146,-0.2418 -0.213,-0.2449 -0.2114,-0.2477 0.1163,-0.2491 0.1172,-0.2487 0.118,-0.2482 0.1189,-0.2479 0.1197,-0.2475 0.1205,-0.2471 0.1214,-0.2466 0.1222,-0.2463 0.3255,0.0108 0.3242,0.0139 0.3229,0.017 0.3215,0.0201 0.3201,0.0234 0.3186,0.0266 0.3172,0.0299 0.3157,0.0333 0.3141,0.0367 0.3124,0.0401 0.3108,0.0437 0.3091,0.0474 0.3073,0.051 0.3054,0.0548 0.3035,0.0588 0.3014,0.0628 0.2993,0.0671 0.2971,0.0714 0.2947,0.0762 0.1527,-0.2863 0.1539,-0.2857 0.1551,-0.2849 0.1564,-0.2843 0.1575,-0.2836 0.1588,-0.283 0.1599,-0.2823 0.1612,-0.2816 -0.2212,-0.209 -0.2186,-0.2135 -0.216,-0.2178 -0.2136,-0.2218 -0.2112,-0.2257 -0.209,-0.2294 -0.2067,-0.2331 -0.2044,-0.2365 -0.2024,-0.2399 -0.2002,-0.2432 -0.1982,-0.2464 -0.1961,-0.2496 -0.1941,-0.2526 -0.1921,-0.2557 -0.1901,-0.2586 -0.1881,-0.2615 -0.1862,-0.2644 -0.1842,-0.2671 -0.1823,-0.2699 0.1435,-0.2345 0.1443,-0.2339 0.1451,-0.2335 0.1458,-0.2331 0.1467,-0.2325 0.1474,-0.232 0.1482,-0.2315 0.149,-0.231 0.3223,0.0471 0.3206,0.0501 0.3189,0.053 0.3173,0.0561 0.3154,0.059 0.3137,0.0622 0.3118,0.0652 0.31,0.0684 0.308,0.0716 0.306,0.0749 0.304,0.0782 0.3018,0.0817 0.2996,0.0851 0.2974,0.0886 0.2949,0.0924 0.2926,0.0962 0.2899,0.1002 0.2872,0.1042 0.2843,0.1087 0.1838,-0.2674 0.1849,-0.2666 0.1861,-0.2658 0.1872,-0.265 0.1883,-0.2642 0.1894,-0.2634 0.1906,-0.2626 0.1917,-0.2618 -0.1965,-0.2325 -0.1933,-0.2366 -0.1903,-0.2406 -0.1874,-0.2443 -0.1846,-0.248 -0.1819,-0.2513 -0.1793,-0.2548 -0.1767,-0.2579 -0.1742,-0.261 -0.1718,-0.2641 -0.1693,-0.2671 -0.1669,-0.27 -0.1646,-0.2728 -0.1623,-0.2755 -0.1599,-0.2783 -0.1577,-0.2809 -0.1554,-0.2835 -0.1532,-0.2861 -0.1509,-0.2886 0.1689,-0.217 0.1695,-0.2163 0.1703,-0.2158 0.1711,-0.2152 0.1717,-0.2146 0.1725,-0.2141 0.1732,-0.2135 0.1739,-0.2129 0.315,0.083 0.313,0.0856 0.311,0.0884 0.309,0.0913 0.3068,0.094 0.3048,0.0968 0.3025,0.0998 0.3004,0.1027 0.298,0.1056 0.2957,0.1087 0.2933,0.1117 0.2908,0.1149 0.2882,0.1182 0.2856,0.1214 0.2828,0.1248 0.2799,0.1283 0.2769,0.132 0.2737,0.1358 0.2704,0.1398 0.2125,-0.2451 0.2136,-0.2442 0.2147,-0.2433 0.2157,-0.2424 0.2167,-0.2415 0.2177,-0.2405 0.2188,-0.2396 0.2198,-0.2387 -0.1692,-0.253 -0.1656,-0.2568 -0.1622,-0.2604 -0.1588,-0.2638 -0.1557,-0.267 -0.1527,-0.2702 -0.1496,-0.2732 -0.1467,-0.2761 -0.1439,-0.2789 -0.1411,-0.2817 -0.1384,-0.2843 -0.1356,-0.287 -0.133,-0.2894 -0.1304,-0.292 -0.1278,-0.2945 -0.1252,-0.2968 -0.1227,-0.2991 -0.1202,-0.3015 -0.1177,-0.3036 0.1921,-0.1967 0.1928,-0.196 0.1934,-0.1954 0.194,-0.1947 0.1947,-0.194 0.1954,-0.1934 0.196,-0.1928 0.1967,-0.1921 0.3036,0.1177 0.3015,0.1202 0.2991,0.1227 0.2968,0.1252 0.2945,0.1278 0.292,0.1304 0.2894,0.133 0.287,0.1356 0.2843,0.1384 0.2817,0.1411 0.2789,0.1439 0.2761,0.1467 0.2732,0.1496 0.2702,0.1527 0.267,0.1557 0.2638,0.1588 0.2604,0.1622 0.2568,0.1656 0.253,0.1692 0.2387,-0.2198 0.2396,-0.2188 0.2405,-0.2177 0.2415,-0.2167 0.2424,-0.2157 0.2433,-0.2147 0.2442,-0.2136 0.2451,-0.2125 -0.1398,-0.2704 -0.1358,-0.2737 -0.132,-0.2769 -0.1283,-0.2799 -0.1248,-0.2828 -0.1214,-0.2856 -0.1182,-0.2882 -0.1149,-0.2908 -0.1117,-0.2933 -0.1087,-0.2957 -0.1056,-0.298 -0.1027,-0.3004 -0.0998,-0.3025 -0.0968,-0.3048 -0.094,-0.3068 -0.0913,-0.309 -0.0884,-0.311 -0.0856,-0.313 -0.083,-0.315 0.2129,-0.1739 0.2135,-0.1732 0.2141,-0.1725 0.2146,-0.1717 0.2152,-0.1711 0.2158,-0.1703 0.2163,-0.1695 0.217,-0.1689 0.2886,0.1509 0.2861,0.1532 0.2835,0.1554 0.2809,0.1577 0.2783,0.1599 0.2755,0.1623 0.2728,0.1646 0.27,0.1669 0.2671,0.1693 0.2641,0.1718 0.261,0.1742 0.2579,0.1767 0.2548,0.1793 0.2513,0.1819 0.248,0.1846 0.2443,0.1874 0.2406,0.1903 0.2366,0.1933 0.2325,0.1965 0.2618,-0.1917 0.2626,-0.1906 0.2634,-0.1894 0.2642,-0.1883 0.265,-0.1872 0.2658,-0.1861 0.2666,-0.1849 0.2674,-0.1838 -0.1087,-0.2843 -0.1042,-0.2872 -0.1002,-0.2899 -0.0962,-0.2926 -0.0924,-0.2949 -0.0886,-0.2974 -0.0851,-0.2996 -0.0817,-0.3018 -0.0782,-0.304 -0.0749,-0.306 -0.0716,-0.308 -0.0684,-0.31 -0.0652,-0.3118 -0.0622,-0.3137 -0.059,-0.3154 -0.0561,-0.3173 -0.053,-0.3189 -0.0501,-0.3206 -0.0471,-0.3223 0.231,-0.149 0.2315,-0.1482 0.232,-0.1474 0.2325,-0.1467 0.2331,-0.1458 0.2335,-0.1451 0.2339,-0.1443 0.2345,-0.1435 0.2699,0.1823 0.2671,0.1842 0.2644,0.1862 0.2615,0.1881 0.2586,0.1901 0.2557,0.1921 0.2526,0.1941 0.2496,0.1961 0.2464,0.1982 0.2432,0.2002 0.2399,0.2024 0.2365,0.2044 0.2331,0.2067 0.2294,0.209 0.2257,0.2112 0.2218,0.2136 0.2178,0.216 0.2135,0.2186 0.209,0.2212 0.2816,-0.1612 0.2823,-0.1599 0.283,-0.1588 0.2836,-0.1575 0.2843,-0.1564 0.2849,-0.1551 0.2857,-0.1539 0.2863,-0.1527 -0.0762,-0.2947 -0.0714,-0.2971 -0.0671,-0.2993 -0.0628,-0.3014 -0.0588,-0.3035 -0.0548,-0.3054 -0.051,-0.3073 -0.0474,-0.3091 -0.0437,-0.3108 -0.0401,-0.3124 -0.0367,-0.3141 -0.0333,-0.3157 -0.0299,-0.3172 -0.0266,-0.3186 -0.0234,-0.3201 -0.0201,-0.3215 -0.017,-0.3229 -0.0139,-0.3242 -0.0108,-0.3255 0.2463,-0.1222 0.2466,-0.1214 0.2471,-0.1205 0.2475,-0.1197 0.2479,-0.1189 0.2482,-0.118 0.2487,-0.1172 0.2491,-0.1163 0.2477,0.2114 0.2449,0.213 0.2418,0.2146 0.2388,0.2162 0.2357,0.2178 0.2326,0.2195 0.2293,0.2212 0.226,0.2228 0.2227,0.2245 0.2193,0.2262 0.2157,0.228 0.2122,0.2297 0.2084,0.2314 0.2046,0.2333 0.2006,0.2352 0.1965,0.2371 0.1922,0.239 0.1877,0.2411 0.183,0.2433 0.2978,-0.1287 0.2985,-0.1273 0.2989,-0.1261 0.2995,-0.1248 0.3,-0.1235 0.3005,-0.1222 0.3011,-0.121 0.3016,-0.1197 -0.0427,-0.3013 -0.0377,-0.3033 -0.0331,-0.3049 -0.0287,-0.3066 -0.0244,-0.3081 -0.0203,-0.3097 -0.0163,-0.311 -0.0124,-0.3125 -0.009,-0.3137 -0.005,-0.315 -10e-4,-0.3162 0.002,-0.3174 0.006,-0.3185 0.009,-0.3197 0.0126,-0.3207 0.016,-0.3217 0.0192,-0.3228 0.0226,-0.3237 0.0257,-0.3247 0.2584,-0.0938 0.2587,-0.093 0.259,-0.0921 0.2593,-0.0912 0.2596,-0.0904 0.26,-0.0895 0.2602,-0.0886 0.2605,-0.0877 0.2226,0.2378 0.2194,0.239 0.2163,0.2404 0.2131,0.2416 0.2098,0.2428 0.2065,0.2442 0.2032,0.2454 0.1996,0.2468 0.1962,0.248 0.1925,0.2493 0.1889,0.2507 0.1851,0.252 0.1812,0.2534 0.1772,0.2547 0.173,0.2561 0.1688,0.2576 0.1642,0.2591 0.1595,0.2606 0.1546,0.2622 0.3104,-0.0945 0.3108,-0.0931 0.3111,-0.0918 0.3116,-0.0905 0.312,-0.0892 0.3123,-0.0878 0.3127,-0.0865 0.3131,-0.0851 -0.009,-0.3043 -0.004,-0.3055 10e-4,-0.3067 0.006,-0.3079 0.0102,-0.309 0.0145,-0.3099 0.0186,-0.3109 0.0227,-0.3119 0.0265,-0.3127 0.0304,-0.3136 0.0342,-0.3144 0.0378,-0.3151 0.0414,-0.3159 0.0449,-0.3166 0.0485,-0.3173 0.0518,-0.3179 0.0553,-0.3186 0.0586,-0.3191 0.062,-0.3198 0.2672,-0.0643 0.2675,-0.0634 0.2677,-0.0626 0.2679,-0.0616 0.2681,-0.0607 0.2683,-0.0598 0.2685,-0.0589 0.2688,-0.058 0.1945,0.2612 0.1913,0.2621 0.188,0.263 0.1847,0.264 0.1813,0.2648 0.1779,0.2658 0.1744,0.2666 0.1707,0.2675 0.1672,0.2685 0.1634,0.2693 0.1596,0.2702 0.1558,0.2712 0.1516,0.272 0.1476,0.273 0.1433,0.2739 0.1388,0.2748 0.1342,0.2759 0.1293,0.2768 0.1243,0.2779 0.319,-0.0592 0.3193,-0.0577 0.3195,-0.0564 0.3197,-0.055 0.32,-0.0537 0.3202,-0.0523 0.3204,-0.0509 0.3207,-0.0496 0.0255,-0.3033 0.0306,-0.304 0.0356,-0.3047 0.0402,-0.3053 0.0448,-0.3058 0.0491,-0.3064 0.0533,-0.3069 0.0575,-0.3073 0.0614,-0.3078 0.0653,-0.3082 0.0691,-0.3086 0.0728,-0.3089 0.0766,-0.3093 0.0801,-0.3096 0.0836,-0.3098 0.0872,-0.3102 0.0906,-0.3103 0.094,-0.3106 0.0973,-0.3108 0.2728,-0.034 0.2729,-0.0331 0.273,-0.0322 0.2731,-0.0312 0.2733,-0.0303 0.2733,-0.0294 0.2734,-0.0285 0.2735,-0.0276 0.1641,0.2814 0.1607,0.2819 0.1574,0.2824 0.154,0.283 0.1505,0.2835 0.147,0.2839 0.1434,0.2845 0.1398,0.285 0.136,0.2855 0.1323,0.2859 0.1283,0.2864 0.1244,0.2869 0.1203,0.2873 0.1161,0.2878 0.1117,0.2882 0.1071,0.2887 0.1025,0.2891 0.0975,0.2896 0.0924,0.29 0.3236,-0.023 0.3237,-0.0217 0.3239,-0.0203 0.3239,-0.0189 0.3239,-0.0174 0.3241,-0.0162 0.3241,-0.0147 0.3242,-0.0133 0.0593,-0.2986 0.0645,-0.2987 0.0694,-0.2987 0.0742,-0.2989 0.0787,-0.2989 0.0831,-0.299 0.0874,-0.299 0.0915,-0.2989 0.0954,-0.299 0.0994,-0.299 0.1033,-0.2989 0.107,-0.2988 0.1106,-0.2987 0.1143,-0.2987 0.1178,-0.2985 0.1213,-0.2985 0.1248,-0.2982 0.1282,-0.2982 0.1315,-0.2979 0.2749,-0.003 0.2749,-0.002 0.2749,-10e-4 0.2749,-4e-4 0.2749,4e-4 0.2749,10e-4 0.2749,0.002 0.2749,0.003 0.1315,0.2979 0.1282,0.2982 0.1248,0.2982 0.1213,0.2985 0.1178,0.2985 0.1143,0.2987 0.1106,0.2987 0.107,0.2988 0.1033,0.2989 0.0994,0.299 0.0954,0.299 0.0915,0.2989 0.0874,0.299 0.0831,0.299 0.0787,0.2989 0.0742,0.2989 0.0694,0.2987 0.0645,0.2987 0.0593,0.2986 0.3242,0.0133 0.3241,0.0147 0.3241,0.0162 0.3239,0.0174 0.3239,0.0189 0.3239,0.0203 0.3237,0.0217 0.3236,0.023 0.0924,-0.29 0.0975,-0.2896 0.1025,-0.2891 0.1071,-0.2887 0.1117,-0.2882 0.1161,-0.2878 0.1203,-0.2873 0.1244,-0.2869 0.1283,-0.2864 0.1323,-0.2859 0.136,-0.2855 0.1398,-0.285 0.1434,-0.2845 0.147,-0.2839 0.1505,-0.2835 0.154,-0.283 0.1574,-0.2824 0.1607,-0.2819 0.1641,-0.2814 0.2735,0.0276 0.2734,0.0285 0.2733,0.0294 0.2733,0.0303 0.2731,0.0312 0.273,0.0322 0.2729,0.0331 0.2728,0.034 0.0973,0.3108 0.094,0.3106 0.0906,0.3103 0.0872,0.3102 0.0836,0.3098 0.0801,0.3096 0.0766,0.3093 0.0728,0.3089 0.0691,0.3086 0.0653,0.3082 0.0614,0.3078 0.0575,0.3073 0.0533,0.3069 0.0491,0.3064 0.0448,0.3058 0.0402,0.3053 0.0356,0.3047 0.0306,0.304 0.0255,0.3033 0.3207,0.0496 0.3204,0.0509 0.3202,0.0523 0.32,0.0537 0.3197,0.055 0.3195,0.0564 0.3193,0.0577 0.319,0.0592 0.1243,-0.2779 0.1293,-0.2768 0.1342,-0.2759 0.1388,-0.2748 0.1433,-0.2739 0.1476,-0.273 0.1516,-0.272 0.1558,-0.2712 0.1596,-0.2702 0.1634,-0.2693 0.1672,-0.2685 0.1707,-0.2675 0.1744,-0.2666 0.1779,-0.2658 0.1813,-0.2648 0.1847,-0.264 0.188,-0.263 0.1913,-0.2621 0.1945,-0.2612 0.2688,0.058 0.2685,0.0589 0.2683,0.0598 0.2681,0.0607 0.2679,0.0616 0.2677,0.0626 0.2675,0.0634 0.2672,0.0643 0.062,0.3198 0.0586,0.3191 0.0553,0.3186 0.0518,0.3179 0.0485,0.3173 0.0449,0.3166 0.0414,0.3159 0.0378,0.3151 0.0342,0.3144 0.0304,0.3136 0.0265,0.3127 0.0227,0.3119 0.0186,0.3109 0.0145,0.3099 0.0102,0.309 0.006,0.3079 10e-4,0.3067 -0.004,0.3055 -0.009,0.3043 0.3131,0.0851 0.3127,0.0865 0.3123,0.0878 0.312,0.0892 0.3116,0.0905 0.3111,0.0918 0.3108,0.0931 0.3104,0.0945 0.1546,-0.2622 0.1595,-0.2606 0.1642,-0.2591 0.1688,-0.2576 0.173,-0.2561 0.1772,-0.2547 0.1812,-0.2534 0.1851,-0.252 0.1889,-0.2507 0.1925,-0.2493 0.1962,-0.248 0.1996,-0.2468 0.2032,-0.2454 0.2065,-0.2442 0.2098,-0.2428 0.2131,-0.2416 0.2163,-0.2404 0.2194,-0.239 0.2226,-0.2378 0.2605,0.0877 0.2602,0.0886 0.26,0.0895 0.2596,0.0904 0.2593,0.0912 0.259,0.0921 0.2587,0.093 0.2584,0.0938 0.0257,0.3247 0.0226,0.3237 0.0192,0.3228 0.016,0.3217 0.0126,0.3207 0.009,0.3197 0.006,0.3185 0.002,0.3174 -10e-4,0.3162 -0.005,0.315 -0.009,0.3137 -0.0124,0.3125 -0.0163,0.311 -0.0203,0.3097 -0.0244,0.3081 -0.0287,0.3066 -0.0331,0.3049 -0.0377,0.3033 -0.0427,0.3013 0.3016,0.1197 0.3011,0.121 0.3005,0.1222 0.3,0.1235 0.2995,0.1248 0.2989,0.1261 0.2985,0.1273 0.2978,0.1287 0.183,-0.2433 0.1877,-0.2411 0.1922,-0.239 0.1965,-0.2371 0.2006,-0.2352 0.2046,-0.2333 0.2084,-0.2314 0.2122,-0.2297 0.2157,-0.228 0.2193,-0.2262 0.2227,-0.2245 0.226,-0.2228 0.2293,-0.2212 0.2326,-0.2195 0.2357,-0.2178 0.2388,-0.2162 0.2418,-0.2146 0.2449,-0.213 0.2477,-0.2114 0.2491,0.1163 0.2487,0.1172 0.2482,0.118 0.2479,0.1189 0.2475,0.1197 0.2471,0.1205 0.2466,0.1214 0.2463,0.1222 -0.0108,0.3255 -0.0139,0.3242 -0.017,0.3229 -0.0201,0.3215 -0.0234,0.3201 -0.0266,0.3186 -0.0299,0.3172 -0.0333,0.3157 -0.0367,0.3141 -0.0401,0.3124 -0.0437,0.3108 -0.0474,0.3091 -0.051,0.3073 -0.0548,0.3054 -0.0588,0.3035 -0.0628,0.3014 -0.0671,0.2993 -0.0714,0.2971 -0.0762,0.2947 0.2863,0.1527 0.2857,0.1539 0.2849,0.1551 0.2843,0.1564 0.2836,0.1575 0.283,0.1588 0.2823,0.1599 0.2816,0.1612 0.209,-0.2212 0.2135,-0.2186 0.2178,-0.216 0.2218,-0.2136 0.2257,-0.2112 0.2294,-0.209 0.2331,-0.2067 0.2365,-0.2044 0.2399,-0.2024 0.2432,-0.2002 0.2464,-0.1982 0.2496,-0.1961 0.2526,-0.1941 0.2557,-0.1921 0.2586,-0.1901 0.2615,-0.1881 0.2644,-0.1862 0.2671,-0.1842 0.2699,-0.1823 0.2345,0.1435 0.2339,0.1443 0.2335,0.1451 0.2331,0.1458 0.2325,0.1467 0.232,0.1474 0.2315,0.1482 0.231,0.149 -0.0471,0.3223 -0.0501,0.3206 -0.053,0.3189 -0.0561,0.3173 -0.059,0.3154 -0.0622,0.3137 -0.0652,0.3118 -0.0684,0.31 -0.0716,0.308 -0.0749,0.306 -0.0782,0.304 -0.0817,0.3018 -0.0851,0.2996 -0.0886,0.2974 -0.0924,0.2949 -0.0962,0.2926 -0.1002,0.2899 -0.1042,0.2872 -0.1087,0.2843 0.2674,0.1838 0.2666,0.1849 0.2658,0.1861 0.265,0.1872 0.2642,0.1883 0.2634,0.1894 0.2626,0.1906 0.2618,0.1917 0.2325,-0.1965 0.2366,-0.1933 0.2406,-0.1903 0.2443,-0.1874 0.248,-0.1846 0.2513,-0.1819 0.2548,-0.1793 0.2579,-0.1767 0.261,-0.1742 0.2641,-0.1718 0.2671,-0.1693 0.27,-0.1669 0.2728,-0.1646 0.2755,-0.1623 0.2783,-0.1599 0.2809,-0.1577 0.2835,-0.1554 0.2861,-0.1532 0.2886,-0.1509 0.217,0.1689 0.2163,0.1695 0.2158,0.1703 0.2152,0.1711 0.2146,0.1717 0.2141,0.1725 0.2135,0.1732 0.2129,0.1739 -0.083,0.315 -0.0856,0.313 -0.0884,0.311 -0.0913,0.309 -0.094,0.3068 -0.0968,0.3048 -0.0998,0.3025 -0.1027,0.3004 -0.1056,0.298 -0.1087,0.2957 -0.1117,0.2933 -0.1149,0.2908 -0.1182,0.2882 -0.1214,0.2856 -0.1248,0.2828 -0.1283,0.2799 -0.132,0.2769 -0.1358,0.2737 -0.1398,0.2704 0.2451,0.2125 0.2442,0.2136 0.2433,0.2147 0.2424,0.2157 0.2415,0.2167 0.2405,0.2177 0.2396,0.2188 0.2387,0.2198 0.253,-0.1692 0.2568,-0.1656 0.2604,-0.1622 0.2638,-0.1588 0.267,-0.1557 0.2702,-0.1527 0.2732,-0.1496 0.2761,-0.1467 0.2789,-0.1439 0.2817,-0.1411 0.2843,-0.1384 0.287,-0.1356 0.2894,-0.133 0.292,-0.1304 0.2945,-0.1278 0.2968,-0.1252 0.2991,-0.1227 0.3015,-0.1202 0.3036,-0.1177 0.1967,0.1921 0.196,0.1928 0.1954,0.1934 0.1947,0.194 0.194,0.1947 0.1934,0.1954 0.1928,0.196 0.1921,0.1967 -0.1177,0.3036 -0.1202,0.3015 -0.1227,0.2991 -0.1252,0.2968 -0.1278,0.2945 -0.1304,0.292 -0.133,0.2894 -0.1356,0.287 -0.1384,0.2843 -0.1411,0.2817 -0.1439,0.2789 -0.1467,0.2761 -0.1496,0.2732 -0.1527,0.2702 -0.1557,0.267 -0.1588,0.2638 -0.1622,0.2604 -0.1656,0.2568 -0.1692,0.253 0.2198,0.2387 0.2188,0.2396 0.2177,0.2405 0.2167,0.2415 0.2157,0.2424 0.2147,0.2433 0.2136,0.2442 0.2125,0.2451 0.2704,-0.1398 0.2737,-0.1358 0.2769,-0.132 0.2799,-0.1283 0.2828,-0.1248 0.2856,-0.1214 0.2882,-0.1182 0.2908,-0.1149 0.2933,-0.1117 0.2957,-0.1087 0.298,-0.1056 0.3004,-0.1027 0.3025,-0.0998 0.3048,-0.0968 0.3068,-0.094 0.309,-0.0913 0.311,-0.0884 0.313,-0.0856 0.315,-0.083 0.1739,0.2129 0.1732,0.2135 0.1725,0.2141 0.1717,0.2146 0.1711,0.2152 0.1703,0.2158 0.1695,0.2163 0.1689,0.217 -0.1509,0.2886 -0.1532,0.2861 -0.1554,0.2835 -0.1577,0.2809 -0.1599,0.2783 -0.1623,0.2755 -0.1646,0.2728 -0.1669,0.27 -0.1693,0.2671 -0.1718,0.2641 -0.1742,0.261 -0.1767,0.2579 -0.1793,0.2548 -0.1819,0.2513 -0.1846,0.248 -0.1874,0.2443 -0.1903,0.2406 -0.1933,0.2366 -0.1965,0.2325 0.1917,0.2618 0.1906,0.2626 0.1894,0.2634 0.1883,0.2642 0.1872,0.265 0.1861,0.2658 0.1849,0.2666 0.1838,0.2674 0.2843,-0.1087 0.2872,-0.1042 0.2899,-0.1002 0.2926,-0.0962 0.2949,-0.0924 0.2974,-0.0886 0.2996,-0.0851 0.3018,-0.0817 0.304,-0.0782 0.306,-0.0749 0.308,-0.0716 0.31,-0.0684 0.3118,-0.0652 0.3137,-0.0622 0.3154,-0.059 0.3173,-0.0561 0.3189,-0.053 0.3206,-0.0501 0.3223,-0.0471 0.149,0.231 0.1482,0.2315 0.1474,0.232 0.1467,0.2325 0.1458,0.2331 0.1451,0.2335 0.1443,0.2339 0.1435,0.2345 -0.1823,0.2699 -0.1842,0.2671 -0.1862,0.2644 -0.1881,0.2615 -0.1901,0.2586 -0.1921,0.2557 -0.1941,0.2526 -0.1961,0.2496 -0.1982,0.2464 -0.2002,0.2432 -0.2024,0.2399 -0.2044,0.2365 -0.2067,0.2331 -0.209,0.2294 -0.2112,0.2257 -0.2136,0.2218 -0.216,0.2178 -0.2186,0.2135 -0.2212,0.209 0.1612,0.2816 0.1599,0.2823 0.1588,0.283 0.1575,0.2836 0.1564,0.2843 0.1551,0.2849 0.1539,0.2857 0.1527,0.2863 0.2947,-0.0762 0.2971,-0.0714 0.2993,-0.0671 0.3014,-0.0628 0.3035,-0.0588 0.3054,-0.0548 0.3073,-0.051 0.3091,-0.0474 0.3108,-0.0437 0.3124,-0.0401 0.3141,-0.0367 0.3157,-0.0333 0.3172,-0.0299 0.3186,-0.0266 0.3201,-0.0234 0.3215,-0.0201 0.3229,-0.017 0.3242,-0.0139 0.3255,-0.0108 0.1222,0.2463 0.1214,0.2466 0.1205,0.2471 0.1197,0.2475 0.1189,0.2479 0.118,0.2482 0.1172,0.2487 0.1163,0.2491 -0.2114,0.2477 -0.213,0.2449 -0.2146,0.2418 -0.2162,0.2388 -0.2178,0.2357 -0.2195,0.2326 -0.2212,0.2293 -0.2228,0.226 -0.2245,0.2227 -0.2262,0.2193 -0.228,0.2157 -0.2297,0.2122 -0.2314,0.2084 -0.2333,0.2046 -0.2352,0.2006 -0.2371,0.1965 -0.239,0.1922 -0.2411,0.1877 -0.2433,0.183 0.1287,0.2978 0.1273,0.2985 0.1261,0.2989 0.1248,0.2995 0.1235,0.3 0.1222,0.3005 0.121,0.3011 0.1197,0.3016 0.3013,-0.0427 0.3033,-0.0377 0.3049,-0.0331 0.3066,-0.0287 0.3081,-0.0244 0.3097,-0.0203 0.311,-0.0163 0.3125,-0.0124 0.3137,-0.009 0.315,-0.005 0.3162,-0.001 0.3174,0.002 0.3185,0.006 0.3197,0.009 0.3207,0.0126 0.3217,0.016 0.3228,0.0192 0.3237,0.0226 0.3247,0.0257 0.0938,0.2584 0.093,0.2587 0.0921,0.259 0.0912,0.2593 0.0904,0.2596 0.0895,0.26 0.0886,0.2602 0.0877,0.2605 -0.2378,0.2226 -0.239,0.2194 -0.2404,0.2163 -0.2416,0.2131 -0.2428,0.2098 -0.2442,0.2065 -0.2454,0.2032 -0.2468,0.1996 -0.248,0.1962 -0.2493,0.1925 -0.2507,0.1889 -0.252,0.1851 -0.2534,0.1812 -0.2547,0.1772 -0.2561,0.173 -0.2576,0.1688 -0.2591,0.1642 -0.2606,0.1595 -0.2622,0.1546 0.0945,0.3104 0.0931,0.3108 0.0918,0.3111 0.0905,0.3116 0.0892,0.312 0.0878,0.3123 0.0865,0.3127 0.0851,0.3131 0.3043,-0.009 0.3055,-0.004 0.3067,10e-4 0.3079,0.006 0.309,0.0102 0.3099,0.0145 0.3109,0.0186 0.3119,0.0227 0.3127,0.0265 0.3136,0.0304 0.3144,0.0342 0.3151,0.0378 0.3159,0.0414 0.3166,0.0449 0.3173,0.0485 0.3179,0.0518 0.3186,0.0553 0.3191,0.0586 0.3198,0.062 0.0643,0.2672 0.0634,0.2675 0.0626,0.2677 0.0616,0.2679 0.0607,0.2681 0.0598,0.2683 0.0589,0.2685 0.058,0.2688 -0.2612,0.1945 -0.2621,0.1913 -0.263,0.188 -0.264,0.1847 -0.2648,0.1813 -0.2658,0.1779 -0.2666,0.1744 -0.2675,0.1707 -0.2685,0.1672 -0.2693,0.1634 -0.2702,0.1596 -0.2712,0.1558 -0.272,0.1516 -0.273,0.1476 -0.2739,0.1433 -0.2748,0.1388 -0.2759,0.1342 -0.2768,0.1293 -0.2779,0.1243 0.0592,0.319 0.0577,0.3193 0.0564,0.3195 0.055,0.3197 0.0537,0.32 0.0523,0.3202 0.0509,0.3204 0.0496,0.3207 0.3033,0.0255 0.304,0.0306 0.3047,0.0356 0.3053,0.0402 0.3058,0.0448 0.3064,0.0491 0.3069,0.0533 0.3073,0.0575 0.3078,0.0614 0.3082,0.0653 0.3086,0.0691 0.3089,0.0728 0.3093,0.0766 0.3096,0.0801 0.3098,0.0836 0.3102,0.0872 0.3103,0.0906 0.3106,0.094 0.3108,0.0973 0.034,0.2728 0.0331,0.2729 0.0322,0.273 0.0312,0.2731 0.0303,0.2733 0.0294,0.2733 0.0285,0.2734 0.0276,0.2735 -0.2814,0.1641 -0.2819,0.1607 -0.2824,0.1574 -0.283,0.154 -0.2835,0.1505 -0.2839,0.147 -0.2845,0.1434 -0.285,0.1398 -0.2855,0.136 -0.2859,0.1323 -0.2864,0.1283 -0.2869,0.1244 -0.2873,0.1203 -0.2878,0.1161 -0.2882,0.1117 -0.2887,0.1071 -0.2891,0.1025 -0.2896,0.0975 -0.29,0.0924 0.023,0.3236 0.0217,0.3237 0.0203,0.3239 0.0189,0.3239 0.0174,0.3239 0.0162,0.3241 0.0147,0.3241 z m -75.876,2.9613 a 0,0 0 0 0 0,0 0,0 0 0 0 0,0"
       style="fill:none;stroke:#000000"
       inkscape:connector-curvature="0" />
    <g
       id="g8282">
      <path
         id="path8201"
         d="M -13.78125 -15.875 C -25.06749 -15.875 -34.21875 -6.72374 -34.21875 4.5625 C -34.21875 14.18382 -27.57876 22.23517 -18.625 24.40625 C -21.132206 37.865833 -24.332247 56.261908 -26.8125 74.53125 C -23.193791 73.62978 -19.429019 73.15625 -15.53125 73.15625 C -4.1828727 73.15625 6.2250074 77.197985 14.3125 83.9375 C 28.407595 49.718712 62.101864 25.625 101.40625 25.625 C 153.39631 25.625 195.53125 67.759938 195.53125 119.75 C 195.53125 171.74006 153.39631 213.90625 101.40625 213.90625 C 62.09165 213.90625 28.401076 189.79545 14.3125 155.5625 C 6.2250074 162.30202 -4.1828727 166.34375 -15.53125 166.34375 C -19.431077 166.34375 -23.192057 165.87114 -26.8125 164.96875 C -24.341384 183.22737 -21.16191 201.63023 -18.65625 215.09375 C -27.5962 217.27462 -34.21875 225.32598 -34.21875 234.9375 C -34.21875 246.22374 -25.06749 255.375 -13.78125 255.375 C -4.16973 255.375 3.88163 248.75245 6.0625 239.8125 C 31.61716 244.5684 74.97958 251.84375 101.40625 251.84375 C 127.83293 251.84375 171.19534 244.5684 196.75 239.8125 C 198.93144 248.75164 206.98281 255.375 216.59375 255.375 C 227.87999 255.375 237.03125 246.22374 237.03125 234.9375 C 237.03125 225.33407 230.3973 217.28266 221.46875 215.09375 C 226.22465 189.53909 233.5 146.17668 233.5 119.75 C 233.5 93.32332 226.22465 49.96091 221.46875 24.40625 C 230.39661 22.21685 237.03125 14.16544 237.03125 4.5625 C 237.03125 -6.72374 227.87999 -15.875 216.59375 -15.875 C 206.99081 -15.875 198.9394 -9.24036 196.75 -0.3125 C 171.19534 -5.0684 127.83293 -12.34375 101.40625 -12.34375 C 74.9743 -12.34375 31.61257 -5.04018 6.0625 -0.28125 C 3.88437 -9.22506 -4.16699 -15.875 -13.78125 -15.875 z "
         style="fill:none;stroke:#000000;stroke-width:1;stroke-miterlimit:4;stroke-opacity:1;stroke-dasharray:none" />
      <path
         transform="matrix(0.82322244,0,0,0.79663731,-63.40981,-58.76479)"
         d="m 70.542884,79.495422 a 10.268901,10.268901 0 1 1 -20.537802,0 10.268901,10.268901 0 1 1 20.537802,0 z"
         sodipodi:ry="10.268901"
         sodipodi:rx="10.268901"
         sodipodi:cy="79.495422"
         sodipodi:cx="60.273983"
         id="path8203"
         style="fill:none;stroke:#000000;stroke-width:1.23484111;stroke-miterlimit:4;stroke-opacity:1;stroke-dasharray:none"
         sodipodi:type="arc" />
      <path
         sodipodi:type="arc"
         style="fill:none;stroke:#000000;stroke-width:1.23484111;stroke-miterlimit:4;stroke-opacity:1;stroke-dasharray:none"
         id="path8205"
         sodipodi:cx="60.273983"
         sodipodi:cy="79.495422"
         sodipodi:rx="10.268901"
         sodipodi:ry="10.268901"
         d="m 70.542884,79.495422 a 10.268901,10.268901 0 1 1 -20.537802,0 10.268901,10.268901 0 1 1 20.537802,0 z"
         transform="matrix(0.82322244,0,0,0.79663731,166.97075,171.61578)" />
      <path
         transform="matrix(0.82322244,0,0,0.79663731,-63.40981,171.61578)"
         d="m 70.542884,79.495422 a 10.268901,10.268901 0 1 1 -20.537802,0 10.268901,10.268901 0 1 1 20.537802,0 z"
         sodipodi:ry="10.268901"
         sodipodi:rx="10.268901"
         sodipodi:cy="79.495422"
         sodipodi:cx="60.273983"
         id="path8207"
         style="fill:none;stroke:#000000;stroke-width:1.23484111;stroke-miterlimit:4;stroke-opacity:1;stroke-dasharray:none"
         sodipodi:type="arc" />
      <path
         sodipodi:type="arc"
         style="fill:none;stroke:#000000;stroke-width:1.23484111;stroke-miterlimit:4;stroke-opacity:1;stroke-dasharray:none"
         id="path8209"
         sodipodi:cx="60.273983"
         sodipodi:cy="79.495422"
         sodipodi:rx="10.268901"
         sodipodi:ry="10.268901"
         d="m 70.542884,79.495422 a 10.268901,10.268901 0 1 1 -20.537802,0 10.268901,10.268901 0 1 1 20.537802,0 z"
         transform="matrix(0.82322244,0,0,0.79663731,166.97075,-58.76478)" />
    </g>
    <g
       id="g5213"
       transform="translate(275.95546,131.04801)"
       style="stroke-width:1;stroke-miterlimit:4;stroke-dasharray:none">
      <g
         id="g4279"
         transform="translate(284.35592,202.94204)"
         inkscape:label="Gear27"
         style="stroke-width:1;stroke-miterlimit:4;stroke-dasharray:none">
        <path
           inkscape:connector-curvature="0"
           id="path4281"
           d="m 34.921,-2.557 0.519,-0.038 2.311,0.396 2.853,1.18 0,2.038 -2.853,1.18 -2.311,0.396 -0.519,-0.038 -0.352,3.009 0.514,0.082 2.158,0.919 2.503,1.805 -0.47,1.983 -3.047,0.491 -2.341,-0.148 -0.496,-0.157 -1.036,2.847 0.481,0.199 1.888,1.391 2.019,2.334 -0.915,1.821 -3.078,-0.225 -2.243,-0.684 -0.447,-0.267 -1.665,2.531 0.422,0.305 1.516,1.789 1.427,2.737 -1.31,1.561 -2.943,-0.93 -2.025,-1.182 -0.374,-0.363 -2.203,2.079 0.34,0.394 1.063,2.09 0.757,2.993 -1.634,1.216 -2.65,-1.583 -1.698,-1.617 -0.28,-0.44 -2.623,1.515 0.24,0.462 0.552,2.279 0.047,3.086 -1.871,0.807 -2.213,-2.151 -1.279,-1.966 -0.171,-0.492 -2.902,0.869 0.127,0.505 0.012,2.345 L 8.054,39.81 6.047,40.164 4.39,37.56 3.599,35.352 3.546,34.834 0.522,35.01 0.53,35.531 0,37.815 -1.344,40.594 -3.378,40.476 -4.39,37.56 l -0.261,-2.331 0.068,-0.516 -2.983,-0.526 -0.113,0.508 -1.042,2.101 -1.948,2.394 -1.952,-0.584 -0.313,-3.071 0.284,-2.328 0.185,-0.487 -2.781,-1.2 -0.227,0.469 -1.498,1.804 -2.448,1.88 -1.765,-1.019 0.404,-3.06 0.813,-2.2 0.293,-0.43 -2.43,-1.809 -0.329,0.404 -1.874,1.409 -2.816,1.265 -1.482,-1.398 1.099,-2.885 1.298,-1.953 0.384,-0.351 -1.947,-2.321 -0.413,0.317 -2.148,0.94 -3.032,0.581 -1.12,-1.702 1.735,-2.553 1.714,-1.601 0.454,-0.254 -1.359,-2.707 -0.475,0.213 -2.308,0.419 -3.083,-0.133 -0.697,-1.915 2.276,-2.084 2.037,-1.163 0.501,-0.142 -0.699,-2.948 -0.511,0.098 -2.342,-0.124 -2.97,-0.841 -0.236,-2.024 2.696,-1.503 2.25,-0.662 0.52,-0.022 0,-3.03 -0.52,-0.022 -2.25,-0.662 -2.696,-1.503 0.236,-2.024 2.97,-0.841 2.342,-0.124 0.511,0.098 0.699,-2.948 -0.501,-0.142 -2.037,-1.163 -2.276,-2.084 0.697,-1.915 3.083,-0.133 2.308,0.419 0.475,0.213 1.359,-2.707 -0.454,-0.254 -1.714,-1.601 -1.735,-2.553 1.12,-1.702 3.032,0.581 2.148,0.94 0.413,0.317 1.947,-2.321 -0.384,-0.351 -1.298,-1.953 -1.099,-2.885 1.482,-1.398 2.816,1.265 1.874,1.409 0.329,0.404 2.43,-1.809 -0.293,-0.43 -0.813,-2.2 -0.404,-3.06 1.765,-1.019 2.448,1.88 1.498,1.804 0.227,0.469 2.781,-1.2 -0.185,-0.487 -0.284,-2.328 0.313,-3.071 1.952,-0.584 1.948,2.394 1.042,2.101 0.113,0.508 2.983,-0.526 -0.068,-0.516 0.261,-2.331 1.012,-2.916 2.034,-0.118 1.344,2.779 0.53,2.284 -0.008,0.521 3.024,0.176 0.053,-0.518 0.791,-2.208 1.657,-2.604 2.007,0.354 0.667,3.014 -0.012,2.345 -0.127,0.505 2.902,0.869 0.171,-0.492 1.279,-1.966 2.213,-2.151 1.871,0.807 -0.047,3.086 -0.552,2.279 -0.24,0.462 2.623,1.515 0.28,-0.44 1.698,-1.617 2.65,-1.583 1.634,1.216 -0.757,2.993 -1.063,2.09 -0.34,0.394 2.203,2.079 0.374,-0.363 2.025,-1.182 2.943,-0.93 1.31,1.561 -1.427,2.737 -1.516,1.789 -0.422,0.305 1.665,2.531 0.447,-0.267 2.243,-0.684 3.078,-0.225 0.915,1.821 -2.019,2.334 -1.888,1.391 -0.481,0.199 1.036,2.847 0.496,-0.157 2.341,-0.148 3.047,0.491 0.47,1.983 -2.503,1.805 -2.158,0.919 -0.514,0.082 z"
           style="fill:none;stroke:#000000;stroke-width:1;stroke-miterlimit:4;stroke-dasharray:none" />
      </g>
      <path
         sodipodi:type="arc"
         style="fill:none;stroke:#000000;stroke-width:1;stroke-miterlimit:4;stroke-opacity:1;stroke-dasharray:none"
         id="path4293"
         sodipodi:cx="-136.9886"
         sodipodi:cy="202.14903"
         sodipodi:rx="9.7217722"
         sodipodi:ry="9.7217722"
         d="m -127.26683,202.14903 c 0,5.36919 -4.35259,9.72177 -9.72177,9.72177 -5.36919,0 -9.72177,-4.35258 -9.72177,-9.72177 0,-5.36918 4.35258,-9.72177 9.72177,-9.72177 5.36918,0 9.72177,4.35259 9.72177,9.72177 z"
         transform="translate(421.34452,0.7929947)" />
    </g>
    <path
       style="fill:none;stroke:#000000;stroke-width:1;stroke-miterlimit:4;stroke-opacity:1;stroke-dasharray:none"
       d="m 543.04153,487.69433 c -1.69258,2.09003 -2.71875,4.72605 -2.71875,7.625 0,2.89895 1.02617,5.56622 2.71875,7.65625 l 18.90624,0 c 1.69258,-2.09003 2.71875,-4.7573 2.71875,-7.65625 0,-2.89895 -1.02617,-5.53497 -2.71875,-7.625 l -18.90624,0 z"
       id="path5221"
       inkscape:connector-curvature="0" />
    <g
       id="g8312">
      <path
         style="fill:none;stroke:#000000;stroke-width:1;stroke-miterlimit:4;stroke-opacity:1;stroke-dasharray:none"
         d="m 317.76202,-15.28302 c -11.28624,0 -20.4375,9.15126 -20.4375,20.4375 0,9.62132 6.63999,17.67267 15.59375,19.84375 -3.55031,19.05934 -8.5186,48.03489 -10.8125,72.5 -7.68044,4.71054 -12.8125,13.17356 -12.8125,22.84375 0,9.67019 5.13206,18.16446 12.8125,22.875 2.28566,24.46059 7.23313,53.40383 10.78125,72.46875 -8.93995,2.18087 -15.5625,10.23223 -15.5625,19.84375 0,11.28624 9.15126,20.4375 20.4375,20.4375 9.61152,0 17.66288,-6.62255 19.84375,-15.5625 25.55466,4.7559 68.91708,12.03125 95.34375,12.03125 26.42668,0 69.78909,-7.27535 95.34375,-12.03125 2.18144,8.93914 10.23281,15.5625 19.84375,15.5625 11.28624,0 20.4375,-9.15126 20.4375,-20.4375 0,-9.60343 -6.63395,-17.65484 -15.5625,-19.84375 4.7559,-25.55466 12.03125,-68.91707 12.03125,-95.34375 0,-26.42668 -7.27535,-69.78909 -12.03125,-95.34375 8.92786,-2.1894 15.5625,-10.24081 15.5625,-19.84375 0,-11.28624 -9.15126,-20.4375 -20.4375,-20.4375 -9.60294,0 -17.65435,6.63464 -19.84375,15.5625 -25.55466,-4.7559 -68.91707,-12.03125 -95.34375,-12.03125 -26.43195,0 -69.79368,7.30357 -95.34375,12.0625 -2.17813,-8.94381 -10.22949,-15.59375 -19.84375,-15.59375 z"
         id="path8291"
         inkscape:connector-curvature="0" />
      <path
         transform="matrix(0.82322244,0,0,0.79663731,268.12248,-58.16274)"
         d="m 70.542884,79.495422 a 10.268901,10.268901 0 1 1 -20.537802,0 10.268901,10.268901 0 1 1 20.537802,0 z"
         sodipodi:ry="10.268901"
         sodipodi:rx="10.268901"
         sodipodi:cy="79.495422"
         sodipodi:cx="60.273983"
         id="path8293"
         style="fill:none;stroke:#000000;stroke-width:1.23484111;stroke-miterlimit:4;stroke-opacity:1;stroke-dasharray:none"
         sodipodi:type="arc" />
      <path
         sodipodi:type="arc"
         style="fill:none;stroke:#000000;stroke-width:1.23484111;stroke-miterlimit:4;stroke-opacity:1;stroke-dasharray:none"
         id="path8295"
         sodipodi:cx="60.273983"
         sodipodi:cy="79.495422"
         sodipodi:rx="10.268901"
         sodipodi:ry="10.268901"
         d="m 70.542884,79.495422 a 10.268901,10.268901 0 1 1 -20.537802,0 10.268901,10.268901 0 1 1 20.537802,0 z"
         transform="matrix(0.82322244,0,0,0.79663731,498.50304,172.21783)" />
      <path
         transform="matrix(0.82322244,0,0,0.79663731,268.12248,172.21783)"
         d="m 70.542884,79.495422 a 10.268901,10.268901 0 1 1 -20.537802,0 10.268901,10.268901 0 1 1 20.537802,0 z"
         sodipodi:ry="10.268901"
         sodipodi:rx="10.268901"
         sodipodi:cy="79.495422"
         sodipodi:cx="60.273983"
         id="path8297"
         style="fill:none;stroke:#000000;stroke-width:1.23484111;stroke-miterlimit:4;stroke-opacity:1;stroke-dasharray:none"
         sodipodi:type="arc" />
      <path
         sodipodi:type="arc"
         style="fill:none;stroke:#000000;stroke-width:1.23484111;stroke-miterlimit:4;stroke-opacity:1;stroke-dasharray:none"
         id="path8299"
         sodipodi:cx="60.273983"
         sodipodi:cy="79.495422"
         sodipodi:rx="10.268901"
         sodipodi:ry="10.268901"
         d="m 70.542884,79.495422 a 10.268901,10.268901 0 1 1 -20.537802,0 10.268901,10.268901 0 1 1 20.537802,0 z"
         transform="matrix(0.82322244,0,0,0.79663731,498.50304,-58.16273)" />
      <path
         transform="translate(453.08219,-81.79248)"
         d="m -127.26683,202.14903 a 9.7217722,9.7217722 0 1 1 -19.44354,0 9.7217722,9.7217722 0 1 1 19.44354,0 z"
         sodipodi:ry="9.7217722"
         sodipodi:rx="9.7217722"
         sodipodi:cy="202.14903"
         sodipodi:cx="-136.9886"
         id="path8301"
         style="fill:none;stroke:#000000;stroke-opacity:1"
         sodipodi:type="arc" />
    </g>
  </g>
</svg>
