  0
SECTION
  2
HEADER
  9
$ACADVER
  1
AC1014
  9
$HANDSEED
  5
FFFF
  9
$MEASUREMENT
 70
     1
  0
ENDSEC
  0
SECTION
  2
TABLES
  0
TABLE
  2
VPORT
  5
8
330
0
100
AcDbSymbolTable
 70
     4
  0
VPORT
  5
2E
330
8
100
AcDbSymbolTableRecord
100
AcDbViewportTableRecord
  2
*ACTIVE
 70
     0
 10
0.0
 20
0.0
 11
1.0
 21
1.0
 12
210.0
 22
148.5
 13
0.0
 23
0.0
 14
10.0
 24
10.0
 15
10.0
 25
10.0
 16
0.0
 26
0.0
 36
1.0
 17
0.0
 27
0.0
 37
0.0
 40
341.0
 41
1.24
 42
50.0
 43
0.0
 44
0.0
 50
0.0
 51
0.0
 71
     0
 72
   100
 73
     1
 74
     3
 75
     0
 76
     0
 77
     0
 78
     0
  0
ENDTAB
  0
TABLE
  2
LTYPE
  5
5
330
0
100
AcDbSymbolTable
 70
     1
  0
LTYPE
  5
14
330
5
100
AcDbSymbolTableRecord
100
AcDbLinetypeTableRecord
  2
BYBLOCK
 70
     0
  3

 72
    65
 73
     0
 40
0.0
  0
LTYPE
  5
15
330
5
100
AcDbSymbolTableRecord
100
AcDbLinetypeTableRecord
  2
BYLAYER
 70
     0
  3

 72
    65
 73
     0
 40
0.0
  0
LTYPE
  5
16
330
5
100
AcDbSymbolTableRecord
100
AcDbLinetypeTableRecord
  2
CONTINUOUS
 70
     0
  3
Solid line
 72
    65
 73
     0
 40
0.0
  0
ENDTAB
  0
TABLE
  2
LAYER
  5
2
100
AcDbSymbolTable
 70
2
  0
LAYER
  5
50
100
AcDbSymbolTableRecord
100
AcDbLayerTableRecord
  2
0
 70
0
  6
CONTINUOUS
  0
LAYER
  5
51
100
AcDbSymbolTableRecord
100
AcDbLayerTableRecord
  2
Layer_1
 70
0
  6
CONTINUOUS
  0
ENDTAB
  0
TABLE
  2
STYLE
  5
3
330
0
100
AcDbSymbolTable
 70
     1
  0
STYLE
  5
11
330
3
100
AcDbSymbolTableRecord
100
AcDbTextStyleTableRecord
  2
STANDARD
 70
     0
 40
0.0
 41
1.0
 50
0.0
 71
     0
 42
2.5
  3
txt
  4

  0
ENDTAB
  0
TABLE
  2
VIEW
  5
6
330
0
100
AcDbSymbolTable
 70
     0
  0
ENDTAB
  0
TABLE
  2
UCS
  5
7
330
0
100
AcDbSymbolTable
 70
     0
  0
ENDTAB
  0
TABLE
  2
APPID
  5
9
330
0
100
AcDbSymbolTable
 70
     2
  0
APPID
  5
12
330
9
100
AcDbSymbolTableRecord
100
AcDbRegAppTableRecord
  2
ACAD
 70
     0
  0
ENDTAB
  0
TABLE
  2
DIMSTYLE
  5
A
330
0
100
AcDbSymbolTable
 70
     1
  0
DIMSTYLE
105
27
330
A
100
AcDbSymbolTableRecord
100
AcDbDimStyleTableRecord
  2
ISO-25
 70
     0
  3

  4

  5

  6

  7

 40
1.0
 41
2.5
 42
0.625
 43
3.75
 44
1.25
 45
0.0
 46
0.0
 47
0.0
 48
0.0
140
2.5
141
2.5
142
0.0
143
0.03937007874016
144
1.0
145
0.0
146
1.0
147
0.625
 71
     0
 72
     0
 73
     0
 74
     0
 75
     0
 76
     0
 77
     1
 78
     8
170
     0
171
     3
172
     1
173
     0
174
     0
175
     0
176
     0
177
     0
178
     0
270
     2
271
     2
272
     2
273
     2
274
     3
340
11
275
     0
280
     0
281
     0
282
     0
283
     0
284
     8
285
     0
286
     0
287
     3
288
     0
  0
ENDTAB
  0
TABLE
  2
BLOCK_RECORD
  5
1
330
0
100
AcDbSymbolTable
 70
     1
  0
BLOCK_RECORD
  5
1F
330
1
100
AcDbSymbolTableRecord
100
AcDbBlockTableRecord
  2
*MODEL_SPACE
  0
BLOCK_RECORD
  5
1B
330
1
100
AcDbSymbolTableRecord
100
AcDbBlockTableRecord
  2
*PAPER_SPACE
  0
ENDTAB
  0
ENDSEC
  0
SECTION
  2
BLOCKS
  0
BLOCK
  5
20
330
1F
100
AcDbEntity
  8
0
100
AcDbBlockBegin
  2
*MODEL_SPACE
 70
     0
 10
0.0
 20
0.0
 30
0.0
  3
*MODEL_SPACE
  1

  0
ENDBLK
  5
21
330
1F
100
AcDbEntity
  8
0
100
AcDbBlockEnd
  0
BLOCK
  5
1C
330
1B
100
AcDbEntity
 67
     1
  8
0
100
AcDbBlockBegin
  2
*PAPER_SPACE
  1

  0
ENDBLK
  5
1D
330
1B
100
AcDbEntity
 67
     1
  8
0
100
AcDbBlockEnd
  0
ENDSEC
  0
SECTION
  2
ENTITIES
  0
SPLINE
  5
100
100
AcDbEntity
  8
Layer_1
 62
7
100
AcDbSpline
 70
8
 71
3
 72
8
 73
4
 74
0
 40
0
 40
0
 40
0
 40
0
 40
1
 40
1
 40
1
 40
1
 10
51.355625
 20
215.675903
 30
0.0
 10
48.170397
 20
215.675903
 30
0.0
 10
45.587708
 20
213.093214
 30
0.0
 10
45.587708
 20
209.907986
 30
0.0
  0
SPLINE
  5
101
100
AcDbEntity
  8
Layer_1
 62
7
100
AcDbSpline
 70
8
 71
3
 72
8
 73
4
 74
0
 40
0
 40
0
 40
0
 40
0
 40
1
 40
1
 40
1
 40
1
 10
45.587708
 20
209.907986
 30
0.0
 10
45.587708
 20
207.192636
 30
0.0
 10
47.461661
 20
204.920366
 30
0.0
 10
49.988611
 20
204.307639
 30
0.0
  0
SPLINE
  5
102
100
AcDbEntity
  8
Layer_1
 62
7
100
AcDbSpline
 70
8
 71
3
 72
8
 73
4
 74
0
 40
0
 40
0
 40
0
 40
0
 40
1
 40
1
 40
1
 40
1
 10
49.988611
 20
204.307639
 30
0.0
 10
48.986635
 20
198.928670
 30
0.0
 10
47.584473
 20
190.751125
 30
0.0
 10
46.937083
 20
183.846528
 30
0.0
  0
SPLINE
  5
103
100
AcDbEntity
  8
Layer_1
 62
7
100
AcDbSpline
 70
8
 71
3
 72
8
 73
4
 74
0
 40
0
 40
0
 40
0
 40
0
 40
1
 40
1
 40
1
 40
1
 10
46.937083
 20
183.846528
 30
0.0
 10
44.769492
 20
182.517109
 30
0.0
 10
43.321111
 20
180.128656
 30
0.0
 10
43.321111
 20
177.399514
 30
0.0
  0
SPLINE
  5
104
100
AcDbEntity
  8
Layer_1
 62
7
100
AcDbSpline
 70
8
 71
3
 72
8
 73
4
 74
0
 40
0
 40
0
 40
0
 40
0
 40
1
 40
1
 40
1
 40
1
 10
43.321111
 20
177.399514
 30
0.0
 10
43.321111
 20
174.670371
 30
0.0
 10
44.769492
 20
172.273100
 30
0.0
 10
46.937083
 20
170.943681
 30
0.0
  0
SPLINE
  5
105
100
AcDbEntity
  8
Layer_1
 62
7
100
AcDbSpline
 70
8
 71
3
 72
8
 73
4
 74
0
 40
0
 40
0
 40
0
 40
0
 40
1
 40
1
 40
1
 40
1
 10
46.937083
 20
170.943681
 30
0.0
 10
47.582147
 20
164.040358
 30
0.0
 10
48.978433
 20
155.871933
 30
0.0
 10
49.979792
 20
150.491389
 30
0.0
  0
SPLINE
  5
106
100
AcDbEntity
  8
Layer_1
 62
7
100
AcDbSpline
 70
8
 71
3
 72
8
 73
4
 74
0
 40
0
 40
0
 40
0
 40
0
 40
1
 40
1
 40
1
 40
1
 10
49.979792
 20
150.491389
 30
0.0
 10
47.456739
 20
149.875899
 30
0.0
 10
45.587708
 20
147.603626
 30
0.0
 10
45.587708
 20
144.891042
 30
0.0
  0
SPLINE
  5
107
100
AcDbEntity
  8
Layer_1
 62
7
100
AcDbSpline
 70
8
 71
3
 72
8
 73
4
 74
0
 40
0
 40
0
 40
0
 40
0
 40
1
 40
1
 40
1
 40
1
 10
45.587708
 20
144.891042
 30
0.0
 10
45.587708
 20
141.705814
 30
0.0
 10
48.170397
 20
139.123125
 30
0.0
 10
51.355625
 20
139.123125
 30
0.0
  0
SPLINE
  5
108
100
AcDbEntity
  8
Layer_1
 62
7
100
AcDbSpline
 70
8
 71
3
 72
8
 73
4
 74
0
 40
0
 40
0
 40
0
 40
0
 40
1
 40
1
 40
1
 40
1
 10
51.355625
 20
139.123125
 30
0.0
 10
54.068210
 20
139.123125
 30
0.0
 10
56.340482
 20
140.992156
 30
0.0
 10
56.955972
 20
143.515208
 30
0.0
  0
SPLINE
  5
109
100
AcDbEntity
  8
Layer_1
 62
7
100
AcDbSpline
 70
8
 71
3
 72
8
 73
4
 74
0
 40
0
 40
0
 40
0
 40
0
 40
1
 40
1
 40
1
 40
1
 10
56.955972
 20
143.515208
 30
0.0
 10
64.168065
 20
142.172988
 30
0.0
 10
76.405904
 20
140.119722
 30
0.0
 10
83.864097
 20
140.119722
 30
0.0
  0
SPLINE
  5
10a
100
AcDbEntity
  8
Layer_1
 62
7
100
AcDbSpline
 70
8
 71
3
 72
8
 73
4
 74
0
 40
0
 40
0
 40
0
 40
0
 40
1
 40
1
 40
1
 40
1
 10
83.864097
 20
140.119722
 30
0.0
 10
91.322294
 20
140.119722
 30
0.0
 10
103.560129
 20
142.172988
 30
0.0
 10
110.772222
 20
143.515208
 30
0.0
  0
SPLINE
  5
10b
100
AcDbEntity
  8
Layer_1
 62
7
100
AcDbSpline
 70
8
 71
3
 72
8
 73
4
 74
0
 40
0
 40
0
 40
0
 40
0
 40
1
 40
1
 40
1
 40
1
 10
110.772222
 20
143.515208
 30
0.0
 10
111.387873
 20
140.992384
 30
0.0
 10
113.660149
 20
139.123125
 30
0.0
 10
116.372569
 20
139.123125
 30
0.0
  0
SPLINE
  5
10c
100
AcDbEntity
  8
Layer_1
 62
7
100
AcDbSpline
 70
8
 71
3
 72
8
 73
4
 74
0
 40
0
 40
0
 40
0
 40
0
 40
1
 40
1
 40
1
 40
1
 10
116.372569
 20
139.123125
 30
0.0
 10
119.557797
 20
139.123125
 30
0.0
 10
122.140486
 20
141.705814
 30
0.0
 10
122.140486
 20
144.891042
 30
0.0
  0
SPLINE
  5
10d
100
AcDbEntity
  8
Layer_1
 62
7
100
AcDbSpline
 70
8
 71
3
 72
8
 73
4
 74
0
 40
0
 40
0
 40
0
 40
0
 40
1
 40
1
 40
1
 40
1
 10
122.140486
 20
144.891042
 30
0.0
 10
122.140486
 20
147.601343
 30
0.0
 10
120.268238
 20
149.873630
 30
0.0
 10
117.748403
 20
150.491389
 30
0.0
  0
SPLINE
  5
10e
100
AcDbEntity
  8
Layer_1
 62
7
100
AcDbSpline
 70
8
 71
3
 72
8
 73
4
 74
0
 40
0
 40
0
 40
0
 40
0
 40
1
 40
1
 40
1
 40
1
 10
117.748403
 20
150.491389
 30
0.0
 10
119.090623
 20
157.703482
 30
0.0
 10
121.143889
 20
169.941318
 30
0.0
 10
121.143889
 20
177.399514
 30
0.0
  0
SPLINE
  5
10f
100
AcDbEntity
  8
Layer_1
 62
7
100
AcDbSpline
 70
8
 71
3
 72
8
 73
4
 74
0
 40
0
 40
0
 40
0
 40
0
 40
1
 40
1
 40
1
 40
1
 10
121.143889
 20
177.399514
 30
0.0
 10
121.143889
 20
184.857710
 30
0.0
 10
119.090623
 20
197.095546
 30
0.0
 10
117.748403
 20
204.307639
 30
0.0
  0
SPLINE
  5
110
100
AcDbEntity
  8
Layer_1
 62
7
100
AcDbSpline
 70
8
 71
3
 72
8
 73
4
 74
0
 40
0
 40
0
 40
0
 40
0
 40
1
 40
1
 40
1
 40
1
 10
117.748403
 20
204.307639
 30
0.0
 10
120.268043
 20
204.925536
 30
0.0
 10
122.140486
 20
207.197823
 30
0.0
 10
122.140486
 20
209.907986
 30
0.0
  0
SPLINE
  5
111
100
AcDbEntity
  8
Layer_1
 62
7
100
AcDbSpline
 70
8
 71
3
 72
8
 73
4
 74
0
 40
0
 40
0
 40
0
 40
0
 40
1
 40
1
 40
1
 40
1
 10
122.140486
 20
209.907986
 30
0.0
 10
122.140486
 20
213.093214
 30
0.0
 10
119.557797
 20
215.675903
 30
0.0
 10
116.372569
 20
215.675903
 30
0.0
  0
SPLINE
  5
112
100
AcDbEntity
  8
Layer_1
 62
7
100
AcDbSpline
 70
8
 71
3
 72
8
 73
4
 74
0
 40
0
 40
0
 40
0
 40
0
 40
1
 40
1
 40
1
 40
1
 10
116.372569
 20
215.675903
 30
0.0
 10
113.662406
 20
215.675903
 30
0.0
 10
111.390120
 20
213.803460
 30
0.0
 10
110.772222
 20
211.283819
 30
0.0
  0
SPLINE
  5
113
100
AcDbEntity
  8
Layer_1
 62
7
100
AcDbSpline
 70
8
 71
3
 72
8
 73
4
 74
0
 40
0
 40
0
 40
0
 40
0
 40
1
 40
1
 40
1
 40
1
 10
110.772222
 20
211.283819
 30
0.0
 10
103.560129
 20
212.626040
 30
0.0
 10
91.322294
 20
214.679306
 30
0.0
 10
83.864097
 20
214.679306
 30
0.0
  0
SPLINE
  5
114
100
AcDbEntity
  8
Layer_1
 62
7
100
AcDbSpline
 70
8
 71
3
 72
8
 73
4
 74
0
 40
0
 40
0
 40
0
 40
0
 40
1
 40
1
 40
1
 40
1
 10
83.864097
 20
214.679306
 30
0.0
 10
76.404414
 20
214.679306
 30
0.0
 10
64.166770
 20
212.618076
 30
0.0
 10
56.955972
 20
211.275000
 30
0.0
  0
SPLINE
  5
115
100
AcDbEntity
  8
Layer_1
 62
7
100
AcDbSpline
 70
8
 71
3
 72
8
 73
4
 74
0
 40
0
 40
0
 40
0
 40
0
 40
1
 40
1
 40
1
 40
1
 10
56.955972
 20
211.275000
 30
0.0
 10
56.341256
 20
213.799142
 30
0.0
 10
54.068983
 20
215.675903
 30
0.0
 10
51.355625
 20
215.675903
 30
0.0
  0
SPLINE
  5
116
100
AcDbEntity
  8
Layer_1
 62
7
100
AcDbSpline
 70
8
 71
3
 72
8
 73
4
 74
0
 40
0
 40
0
 40
0
 40
0
 40
1
 40
1
 40
1
 40
1
 10
53.735590
 20
209.904656
 30
0.0
 10
53.735590
 20
209.079821
 30
0.0
 10
53.280860
 20
208.317642
 30
0.0
 10
52.542694
 20
207.905225
 30
0.0
  0
SPLINE
  5
117
100
AcDbEntity
  8
Layer_1
 62
7
100
AcDbSpline
 70
8
 71
3
 72
8
 73
4
 74
0
 40
0
 40
0
 40
0
 40
0
 40
1
 40
1
 40
1
 40
1
 10
52.542694
 20
207.905225
 30
0.0
 10
51.804528
 20
207.492808
 30
0.0
 10
50.895069
 20
207.492808
 30
0.0
 10
50.156903
 20
207.905225
 30
0.0
  0
SPLINE
  5
118
100
AcDbEntity
  8
Layer_1
 62
7
100
AcDbSpline
 70
8
 71
3
 72
8
 73
4
 74
0
 40
0
 40
0
 40
0
 40
0
 40
1
 40
1
 40
1
 40
1
 10
50.156903
 20
207.905225
 30
0.0
 10
49.418737
 20
208.317642
 30
0.0
 10
48.964008
 20
209.079821
 30
0.0
 10
48.964008
 20
209.904656
 30
0.0
  0
SPLINE
  5
119
100
AcDbEntity
  8
Layer_1
 62
7
100
AcDbSpline
 70
8
 71
3
 72
8
 73
4
 74
0
 40
0
 40
0
 40
0
 40
0
 40
1
 40
1
 40
1
 40
1
 10
48.964008
 20
209.904656
 30
0.0
 10
48.964008
 20
210.729491
 30
0.0
 10
49.418737
 20
211.491670
 30
0.0
 10
50.156903
 20
211.904087
 30
0.0
  0
SPLINE
  5
11a
100
AcDbEntity
  8
Layer_1
 62
7
100
AcDbSpline
 70
8
 71
3
 72
8
 73
4
 74
0
 40
0
 40
0
 40
0
 40
0
 40
1
 40
1
 40
1
 40
1
 10
50.156903
 20
211.904087
 30
0.0
 10
50.895069
 20
212.316505
 30
0.0
 10
51.804528
 20
212.316505
 30
0.0
 10
52.542694
 20
211.904087
 30
0.0
  0
SPLINE
  5
11b
100
AcDbEntity
  8
Layer_1
 62
7
100
AcDbSpline
 70
8
 71
3
 72
8
 73
4
 74
0
 40
0
 40
0
 40
0
 40
0
 40
1
 40
1
 40
1
 40
1
 10
52.542694
 20
211.904087
 30
0.0
 10
53.280860
 20
211.491670
 30
0.0
 10
53.735590
 20
210.729491
 30
0.0
 10
53.735590
 20
209.904656
 30
0.0
  0
LWPOLYLINE
  5
11c
100
AcDbEntity
  8
Layer_1
 62
7
100
AcDbPolyline
 90
2
 70
0
 10
51.355625
 20
215.675903
 30
0.0
 10
51.355625
 20
215.675903
 30
0.0
  0
SPLINE
  5
11d
100
AcDbEntity
  8
Layer_1
 62
7
100
AcDbSpline
 70
8
 71
3
 72
8
 73
4
 74
0
 40
0
 40
0
 40
0
 40
0
 40
1
 40
1
 40
1
 40
1
 10
118.754103
 20
144.886140
 30
0.0
 10
118.754103
 20
144.061305
 30
0.0
 10
118.299374
 20
143.299126
 30
0.0
 10
117.561208
 20
142.886709
 30
0.0
  0
SPLINE
  5
11e
100
AcDbEntity
  8
Layer_1
 62
7
100
AcDbSpline
 70
8
 71
3
 72
8
 73
4
 74
0
 40
0
 40
0
 40
0
 40
0
 40
1
 40
1
 40
1
 40
1
 10
117.561208
 20
142.886709
 30
0.0
 10
116.823041
 20
142.474291
 30
0.0
 10
115.913583
 20
142.474291
 30
0.0
 10
115.175417
 20
142.886709
 30
0.0
  0
SPLINE
  5
11f
100
AcDbEntity
  8
Layer_1
 62
7
100
AcDbSpline
 70
8
 71
3
 72
8
 73
4
 74
0
 40
0
 40
0
 40
0
 40
0
 40
1
 40
1
 40
1
 40
1
 10
115.175417
 20
142.886709
 30
0.0
 10
114.437251
 20
143.299126
 30
0.0
 10
113.982521
 20
144.061305
 30
0.0
 10
113.982521
 20
144.886140
 30
0.0
  0
SPLINE
  5
120
100
AcDbEntity
  8
Layer_1
 62
7
100
AcDbSpline
 70
8
 71
3
 72
8
 73
4
 74
0
 40
0
 40
0
 40
0
 40
0
 40
1
 40
1
 40
1
 40
1
 10
113.982521
 20
144.886140
 30
0.0
 10
113.982521
 20
145.710975
 30
0.0
 10
114.437251
 20
146.473153
 30
0.0
 10
115.175417
 20
146.885571
 30
0.0
  0
SPLINE
  5
121
100
AcDbEntity
  8
Layer_1
 62
7
100
AcDbSpline
 70
8
 71
3
 72
8
 73
4
 74
0
 40
0
 40
0
 40
0
 40
0
 40
1
 40
1
 40
1
 40
1
 10
115.175417
 20
146.885571
 30
0.0
 10
115.913583
 20
147.297988
 30
0.0
 10
116.823041
 20
147.297988
 30
0.0
 10
117.561208
 20
146.885571
 30
0.0
  0
SPLINE
  5
122
100
AcDbEntity
  8
Layer_1
 62
7
100
AcDbSpline
 70
8
 71
3
 72
8
 73
4
 74
0
 40
0
 40
0
 40
0
 40
0
 40
1
 40
1
 40
1
 40
1
 10
117.561208
 20
146.885571
 30
0.0
 10
118.299374
 20
146.473153
 30
0.0
 10
118.754103
 20
145.710975
 30
0.0
 10
118.754103
 20
144.886140
 30
0.0
  0
LWPOLYLINE
  5
123
100
AcDbEntity
  8
Layer_1
 62
7
100
AcDbPolyline
 90
2
 70
1
 10
53.735590
 20
209.904656
 30
0.0
 10
53.735590
 20
209.904656
 30
0.0
  0
SPLINE
  5
124
100
AcDbEntity
  8
Layer_1
 62
7
100
AcDbSpline
 70
8
 71
3
 72
8
 73
4
 74
0
 40
0
 40
0
 40
0
 40
0
 40
1
 40
1
 40
1
 40
1
 10
53.735590
 20
144.886140
 30
0.0
 10
53.735590
 20
144.061305
 30
0.0
 10
53.280860
 20
143.299126
 30
0.0
 10
52.542694
 20
142.886709
 30
0.0
  0
SPLINE
  5
125
100
AcDbEntity
  8
Layer_1
 62
7
100
AcDbSpline
 70
8
 71
3
 72
8
 73
4
 74
0
 40
0
 40
0
 40
0
 40
0
 40
1
 40
1
 40
1
 40
1
 10
52.542694
 20
142.886709
 30
0.0
 10
51.804528
 20
142.474291
 30
0.0
 10
50.895069
 20
142.474291
 30
0.0
 10
50.156903
 20
142.886709
 30
0.0
  0
SPLINE
  5
126
100
AcDbEntity
  8
Layer_1
 62
7
100
AcDbSpline
 70
8
 71
3
 72
8
 73
4
 74
0
 40
0
 40
0
 40
0
 40
0
 40
1
 40
1
 40
1
 40
1
 10
50.156903
 20
142.886709
 30
0.0
 10
49.418737
 20
143.299126
 30
0.0
 10
48.964008
 20
144.061305
 30
0.0
 10
48.964008
 20
144.886140
 30
0.0
  0
SPLINE
  5
127
100
AcDbEntity
  8
Layer_1
 62
7
100
AcDbSpline
 70
8
 71
3
 72
8
 73
4
 74
0
 40
0
 40
0
 40
0
 40
0
 40
1
 40
1
 40
1
 40
1
 10
48.964008
 20
144.886140
 30
0.0
 10
48.964008
 20
145.710975
 30
0.0
 10
49.418737
 20
146.473153
 30
0.0
 10
50.156903
 20
146.885571
 30
0.0
  0
SPLINE
  5
128
100
AcDbEntity
  8
Layer_1
 62
7
100
AcDbSpline
 70
8
 71
3
 72
8
 73
4
 74
0
 40
0
 40
0
 40
0
 40
0
 40
1
 40
1
 40
1
 40
1
 10
50.156903
 20
146.885571
 30
0.0
 10
50.895069
 20
147.297988
 30
0.0
 10
51.804528
 20
147.297988
 30
0.0
 10
52.542694
 20
146.885571
 30
0.0
  0
SPLINE
  5
129
100
AcDbEntity
  8
Layer_1
 62
7
100
AcDbSpline
 70
8
 71
3
 72
8
 73
4
 74
0
 40
0
 40
0
 40
0
 40
0
 40
1
 40
1
 40
1
 40
1
 10
52.542694
 20
146.885571
 30
0.0
 10
53.280860
 20
146.473153
 30
0.0
 10
53.735590
 20
145.710975
 30
0.0
 10
53.735590
 20
144.886140
 30
0.0
  0
LWPOLYLINE
  5
12a
100
AcDbEntity
  8
Layer_1
 62
7
100
AcDbPolyline
 90
2
 70
1
 10
118.754103
 20
144.886140
 30
0.0
 10
118.754103
 20
144.886140
 30
0.0
  0
SPLINE
  5
12b
100
AcDbEntity
  8
Layer_1
 62
7
100
AcDbSpline
 70
8
 71
3
 72
8
 73
4
 74
0
 40
0
 40
0
 40
0
 40
0
 40
1
 40
1
 40
1
 40
1
 10
118.754103
 20
209.904653
 30
0.0
 10
118.754103
 20
209.079818
 30
0.0
 10
118.299374
 20
208.317640
 30
0.0
 10
117.561208
 20
207.905222
 30
0.0
  0
SPLINE
  5
12c
100
AcDbEntity
  8
Layer_1
 62
7
100
AcDbSpline
 70
8
 71
3
 72
8
 73
4
 74
0
 40
0
 40
0
 40
0
 40
0
 40
1
 40
1
 40
1
 40
1
 10
117.561208
 20
207.905222
 30
0.0
 10
116.823041
 20
207.492805
 30
0.0
 10
115.913583
 20
207.492805
 30
0.0
 10
115.175417
 20
207.905222
 30
0.0
  0
SPLINE
  5
12d
100
AcDbEntity
  8
Layer_1
 62
7
100
AcDbSpline
 70
8
 71
3
 72
8
 73
4
 74
0
 40
0
 40
0
 40
0
 40
0
 40
1
 40
1
 40
1
 40
1
 10
115.175417
 20
207.905222
 30
0.0
 10
114.437251
 20
208.317640
 30
0.0
 10
113.982521
 20
209.079818
 30
0.0
 10
113.982521
 20
209.904653
 30
0.0
  0
SPLINE
  5
12e
100
AcDbEntity
  8
Layer_1
 62
7
100
AcDbSpline
 70
8
 71
3
 72
8
 73
4
 74
0
 40
0
 40
0
 40
0
 40
0
 40
1
 40
1
 40
1
 40
1
 10
113.982521
 20
209.904653
 30
0.0
 10
113.982521
 20
210.729488
 30
0.0
 10
114.437251
 20
211.491667
 30
0.0
 10
115.175417
 20
211.904084
 30
0.0
  0
SPLINE
  5
12f
100
AcDbEntity
  8
Layer_1
 62
7
100
AcDbSpline
 70
8
 71
3
 72
8
 73
4
 74
0
 40
0
 40
0
 40
0
 40
0
 40
1
 40
1
 40
1
 40
1
 10
115.175417
 20
211.904084
 30
0.0
 10
115.913583
 20
212.316502
 30
0.0
 10
116.823041
 20
212.316502
 30
0.0
 10
117.561208
 20
211.904084
 30
0.0
  0
SPLINE
  5
130
100
AcDbEntity
  8
Layer_1
 62
7
100
AcDbSpline
 70
8
 71
3
 72
8
 73
4
 74
0
 40
0
 40
0
 40
0
 40
0
 40
1
 40
1
 40
1
 40
1
 10
117.561208
 20
211.904084
 30
0.0
 10
118.299374
 20
211.491667
 30
0.0
 10
118.754103
 20
210.729488
 30
0.0
 10
118.754103
 20
209.904653
 30
0.0
  0
LWPOLYLINE
  5
131
100
AcDbEntity
  8
Layer_1
 62
7
100
AcDbPolyline
 90
2
 70
1
 10
53.735590
 20
144.886140
 30
0.0
 10
53.735590
 20
144.886140
 30
0.0
  0
SPLINE
  5
132
100
AcDbEntity
  8
Layer_1
 62
7
100
AcDbSpline
 70
8
 71
3
 72
8
 73
4
 74
0
 40
0
 40
0
 40
0
 40
0
 40
1
 40
1
 40
1
 40
1
 10
53.628457
 20
177.395402
 30
0.0
 10
53.629116
 20
176.414733
 30
0.0
 10
53.106314
 20
175.508275
 30
0.0
 10
52.257140
 20
175.017750
 30
0.0
  0
SPLINE
  5
133
100
AcDbEntity
  8
Layer_1
 62
7
100
AcDbSpline
 70
8
 71
3
 72
8
 73
4
 74
0
 40
0
 40
0
 40
0
 40
0
 40
1
 40
1
 40
1
 40
1
 10
52.257140
 20
175.017750
 30
0.0
 10
51.407965
 20
174.527225
 30
0.0
 10
50.361549
 20
174.527225
 30
0.0
 10
49.512374
 20
175.017750
 30
0.0
  0
SPLINE
  5
134
100
AcDbEntity
  8
Layer_1
 62
7
100
AcDbSpline
 70
8
 71
3
 72
8
 73
4
 74
0
 40
0
 40
0
 40
0
 40
0
 40
1
 40
1
 40
1
 40
1
 10
49.512374
 20
175.017750
 30
0.0
 10
48.663200
 20
175.508275
 30
0.0
 10
48.140398
 20
176.414733
 30
0.0
 10
48.141057
 20
177.395402
 30
0.0
  0
SPLINE
  5
135
100
AcDbEntity
  8
Layer_1
 62
7
100
AcDbSpline
 70
8
 71
3
 72
8
 73
4
 74
0
 40
0
 40
0
 40
0
 40
0
 40
1
 40
1
 40
1
 40
1
 10
48.141057
 20
177.395402
 30
0.0
 10
48.140398
 20
178.376071
 30
0.0
 10
48.663200
 20
179.282529
 30
0.0
 10
49.512374
 20
179.773054
 30
0.0
  0
SPLINE
  5
136
100
AcDbEntity
  8
Layer_1
 62
7
100
AcDbSpline
 70
8
 71
3
 72
8
 73
4
 74
0
 40
0
 40
0
 40
0
 40
0
 40
1
 40
1
 40
1
 40
1
 10
49.512374
 20
179.773054
 30
0.0
 10
50.361549
 20
180.263579
 30
0.0
 10
51.407965
 20
180.263579
 30
0.0
 10
52.257140
 20
179.773054
 30
0.0
  0
SPLINE
  5
137
100
AcDbEntity
  8
Layer_1
 62
7
100
AcDbSpline
 70
8
 71
3
 72
8
 73
4
 74
0
 40
0
 40
0
 40
0
 40
0
 40
1
 40
1
 40
1
 40
1
 10
52.257140
 20
179.773054
 30
0.0
 10
53.106314
 20
179.282529
 30
0.0
 10
53.629116
 20
178.376071
 30
0.0
 10
53.628457
 20
177.395402
 30
0.0
  0
LWPOLYLINE
  5
138
100
AcDbEntity
  8
Layer_1
 62
7
100
AcDbPolyline
 90
2
 70
1
 10
118.754103
 20
209.904653
 30
0.0
 10
118.754103
 20
209.904653
 30
0.0
  0
SPLINE
  5
139
100
AcDbEntity
  8
Layer_1
 62
7
100
AcDbSpline
 70
8
 71
3
 72
8
 73
4
 74
0
 40
0
 40
0
 40
0
 40
0
 40
1
 40
1
 40
1
 40
1
 10
91.264482
 20
177.395404
 30
0.0
 10
91.266263
 20
174.748514
 30
0.0
 10
89.855187
 20
172.301924
 30
0.0
 10
87.563209
 20
170.977965
 30
0.0
  0
SPLINE
  5
13a
100
AcDbEntity
  8
Layer_1
 62
7
100
AcDbSpline
 70
8
 71
3
 72
8
 73
4
 74
0
 40
0
 40
0
 40
0
 40
0
 40
1
 40
1
 40
1
 40
1
 10
87.563209
 20
170.977965
 30
0.0
 10
85.271231
 20
169.654005
 30
0.0
 10
82.446884
 20
169.654005
 30
0.0
 10
80.154906
 20
170.977965
 30
0.0
  0
SPLINE
  5
13b
100
AcDbEntity
  8
Layer_1
 62
7
100
AcDbSpline
 70
8
 71
3
 72
8
 73
4
 74
0
 40
0
 40
0
 40
0
 40
0
 40
1
 40
1
 40
1
 40
1
 10
80.154906
 20
170.977965
 30
0.0
 10
77.862928
 20
172.301924
 30
0.0
 10
76.451852
 20
174.748514
 30
0.0
 10
76.453632
 20
177.395404
 30
0.0
  0
SPLINE
  5
13c
100
AcDbEntity
  8
Layer_1
 62
7
100
AcDbSpline
 70
8
 71
3
 72
8
 73
4
 74
0
 40
0
 40
0
 40
0
 40
0
 40
1
 40
1
 40
1
 40
1
 10
76.453632
 20
177.395404
 30
0.0
 10
76.451852
 20
180.042294
 30
0.0
 10
77.862928
 20
182.488884
 30
0.0
 10
80.154906
 20
183.812843
 30
0.0
  0
SPLINE
  5
13d
100
AcDbEntity
  8
Layer_1
 62
7
100
AcDbSpline
 70
8
 71
3
 72
8
 73
4
 74
0
 40
0
 40
0
 40
0
 40
0
 40
1
 40
1
 40
1
 40
1
 10
80.154906
 20
183.812843
 30
0.0
 10
82.446884
 20
185.136802
 30
0.0
 10
85.271231
 20
185.136802
 30
0.0
 10
87.563209
 20
183.812843
 30
0.0
  0
SPLINE
  5
13e
100
AcDbEntity
  8
Layer_1
 62
7
100
AcDbSpline
 70
8
 71
3
 72
8
 73
4
 74
0
 40
0
 40
0
 40
0
 40
0
 40
1
 40
1
 40
1
 40
1
 10
87.563209
 20
183.812843
 30
0.0
 10
89.855187
 20
182.488884
 30
0.0
 10
91.266263
 20
180.042294
 30
0.0
 10
91.264482
 20
177.395404
 30
0.0
  0
LWPOLYLINE
  5
13f
100
AcDbEntity
  8
Layer_1
 62
7
100
AcDbPolyline
 90
2
 70
1
 10
53.628457
 20
177.395402
 30
0.0
 10
53.628457
 20
177.395402
 30
0.0
  0
LWPOLYLINE
  5
140
100
AcDbEntity
  8
Layer_1
 62
7
100
AcDbPolyline
 90
2
 70
1
 10
91.264482
 20
177.395404
 30
0.0
 10
91.264482
 20
177.395404
 30
0.0
  0
SPLINE
  5
141
100
AcDbEntity
  8
Layer_1
 62
7
100
AcDbSpline
 70
8
 71
3
 72
8
 73
4
 74
0
 40
0
 40
0
 40
0
 40
0
 40
1
 40
1
 40
1
 40
1
 10
44.005754
 20
252.633123
 30
0.0
 10
44.005754
 20
252.633123
 30
0.0
 10
155.925901
 20
157.205470
 30
0.0
 10
44.005754
 20
252.633123
 30
0.0
  0
LWPOLYLINE
  5
142
100
AcDbEntity
  8
Layer_1
 62
7
100
AcDbPolyline
 90
3025
 70
0
 10
177.339794
 20
158.041214
 30
0.0
 10
177.424066
 20
158.024479
 30
0.0
 10
177.508366
 20
158.006275
 30
0.0
 10
177.592665
 20
157.986689
 30
0.0
 10
177.677022
 20
157.965748
 30
0.0
 10
177.761378
 20
157.943537
 30
0.0
 10
177.845762
 20
157.920085
 30
0.0
 10
177.930147
 20
157.895418
 30
0.0
 10
178.014503
 20
157.869595
 30
0.0
 10
178.098887
 20
157.842671
 30
0.0
 10
178.183272
 20
157.814618
 30
0.0
 10
178.267628
 20
157.785465
 30
0.0
 10
178.351956
 20
157.755267
 30
0.0
 10
178.436256
 20
157.724053
 30
0.0
 10
178.520556
 20
157.691795
 30
0.0
 10
178.604799
 20
157.658549
 30
0.0
 10
178.689042
 20
157.624316
 30
0.0
 10
178.773201
 20
157.589094
 30
0.0
 10
178.857360
 20
157.552913
 30
0.0
 10
178.941434
 20
157.515801
 30
0.0
 10
178.942280
 20
157.438218
 30
0.0
 10
178.942845
 20
157.360635
 30
0.0
 10
178.943127
 20
157.283053
 30
0.0
 10
178.943240
 20
157.205470
 30
0.0
 10
178.943127
 20
157.127887
 30
0.0
 10
178.942845
 20
157.050304
 30
0.0
 10
178.942280
 20
156.972721
 30
0.0
 10
178.941434
 20
156.895138
 30
0.0
 10
178.857360
 20
156.858026
 30
0.0
 10
178.773201
 20
156.821845
 30
0.0
 10
178.689042
 20
156.786624
 30
0.0
 10
178.604799
 20
156.752390
 30
0.0
 10
178.520556
 20
156.719144
 30
0.0
 10
178.436256
 20
156.686886
 30
0.0
 10
178.351956
 20
156.655673
 30
0.0
 10
178.267628
 20
156.625475
 30
0.0
 10
178.183272
 20
156.596321
 30
0.0
 10
178.098887
 20
156.568268
 30
0.0
 10
178.014503
 20
156.541344
 30
0.0
 10
177.930147
 20
156.515521
 30
0.0
 10
177.845762
 20
156.490855
 30
0.0
 10
177.761378
 20
156.467402
 30
0.0
 10
177.677022
 20
156.445191
 30
0.0
 10
177.592665
 20
156.424250
 30
0.0
 10
177.508366
 20
156.404664
 30
0.0
 10
177.424066
 20
156.386461
 30
0.0
 10
177.339794
 20
156.369725
 30
0.0
 10
177.336041
 20
156.278229
 30
0.0
 10
177.331892
 20
156.186760
 30
0.0
 10
177.327320
 20
156.095292
 30
0.0
 10
177.322409
 20
156.003880
 30
0.0
 10
177.317075
 20
155.912469
 30
0.0
 10
177.311346
 20
155.821057
 30
0.0
 10
177.305222
 20
155.729701
 30
0.0
 10
177.298731
 20
155.638374
 30
0.0
 10
177.380575
 20
155.612297
 30
0.0
 10
177.462307
 20
155.584780
 30
0.0
 10
177.543897
 20
155.555853
 30
0.0
 10
177.625375
 20
155.525627
 30
0.0
 10
177.706711
 20
155.494102
 30
0.0
 10
177.787935
 20
155.461336
 30
0.0
 10
177.869017
 20
155.427385
 30
0.0
 10
177.949987
 20
155.392277
 30
0.0
 10
178.030815
 20
155.356067
 30
0.0
 10
178.111503
 20
155.318729
 30
0.0
 10
178.192077
 20
155.280347
 30
0.0
 10
178.272511
 20
155.240893
 30
0.0
 10
178.352803
 20
155.200422
 30
0.0
 10
178.432926
 20
155.158935
 30
0.0
 10
178.512936
 20
155.116461
 30
0.0
 10
178.592805
 20
155.072999
 30
0.0
 10
178.672504
 20
155.028577
 30
0.0
 10
178.752063
 20
154.983224
 30
0.0
 10
178.831480
 20
154.936911
 30
0.0
 10
178.823691
 20
154.859723
 30
0.0
 10
178.815647
 20
154.782564
 30
0.0
 10
178.807350
 20
154.705432
 30
0.0
 10
178.798799
 20
154.628301
 30
0.0
 10
178.789993
 20
154.551226
 30
0.0
 10
178.780906
 20
154.474179
 30
0.0
 10
178.771564
 20
154.397161
 30
0.0
 10
178.761969
 20
154.320171
 30
0.0
 10
178.674254
 20
154.292711
 30
0.0
 10
178.586596
 20
154.266182
 30
0.0
 10
178.499022
 20
154.240612
 30
0.0
 10
178.411477
 20
154.216003
 30
0.0
 10
178.324044
 20
154.192409
 30
0.0
 10
178.236668
 20
154.169803
 30
0.0
 10
178.149377
 20
154.148185
 30
0.0
 10
178.062199
 20
154.127639
 30
0.0
 10
177.975105
 20
154.108137
 30
0.0
 10
177.888124
 20
154.089708
 30
0.0
 10
177.801256
 20
154.072380
 30
0.0
 10
177.714529
 20
154.056152
 30
0.0
 10
177.627915
 20
154.041109
 30
0.0
 10
177.541442
 20
154.027252
 30
0.0
 10
177.455139
 20
154.014609
 30
0.0
 10
177.368976
 20
154.003263
 30
0.0
 10
177.282983
 20
153.993216
 30
0.0
 10
177.197187
 20
153.984580
 30
0.0
 10
177.111589
 20
153.977384
 30
0.0
 10
177.097591
 20
153.886875
 30
0.0
 10
177.083226
 20
153.796451
 30
0.0
 10
177.068466
 20
153.706083
 30
0.0
 10
177.053311
 20
153.615772
 30
0.0
 10
177.037788
 20
153.525546
 30
0.0
 10
177.021871
 20
153.435376
 30
0.0
 10
177.005587
 20
153.345262
 30
0.0
 10
176.988879
 20
153.255233
 30
0.0
 10
177.067309
 20
153.220153
 30
0.0
 10
177.145428
 20
153.183662
 30
0.0
 10
177.223293
 20
153.145788
 30
0.0
 10
177.300848
 20
153.106615
 30
0.0
 10
177.378148
 20
153.066173
 30
0.0
 10
177.455195
 20
153.024517
 30
0.0
 10
177.531959
 20
152.981732
 30
0.0
 10
177.608498
 20
152.937762
 30
0.0
 10
177.684755
 20
152.892719
 30
0.0
 10
177.760757
 20
152.846604
 30
0.0
 10
177.836534
 20
152.799416
 30
0.0
 10
177.912028
 20
152.751241
 30
0.0
 10
177.987269
 20
152.702021
 30
0.0
 10
178.062283
 20
152.651814
 30
0.0
 10
178.137016
 20
152.600647
 30
0.0
 10
178.211522
 20
152.548521
 30
0.0
 10
178.285747
 20
152.495463
 30
0.0
 10
178.359717
 20
152.441474
 30
0.0
 10
178.433434
 20
152.386582
 30
0.0
 10
178.417065
 20
152.310720
 30
0.0
 10
178.400442
 20
152.234944
 30
0.0
 10
178.383565
 20
152.159223
 30
0.0
 10
178.366434
 20
152.083560
 30
0.0
 10
178.349049
 20
152.007952
 30
0.0
 10
178.331382
 20
151.932401
 30
0.0
 10
178.313489
 20
151.856907
 30
0.0
 10
178.295342
 20
151.781497
 30
0.0
 10
178.205088
 20
151.763999
 30
0.0
 10
178.115031
 20
151.747461
 30
0.0
 10
178.025115
 20
151.731854
 30
0.0
 10
177.935396
 20
151.717235
 30
0.0
 10
177.845847
 20
151.703547
 30
0.0
 10
177.756495
 20
151.690876
 30
0.0
 10
177.667341
 20
151.679192
 30
0.0
 10
177.578413
 20
151.668524
 30
0.0
 10
177.489683
 20
151.658872
 30
0.0
 10
177.401178
 20
151.650292
 30
0.0
 10
177.312927
 20
151.642813
 30
0.0
 10
177.224902
 20
151.636407
 30
0.0
 10
177.137159
 20
151.631157
 30
0.0
 10
177.049698
 20
151.627065
 30
0.0
 10
176.962491
 20
151.624187
 30
0.0
 10
176.875595
 20
151.622493
 30
0.0
 10
176.789038
 20
151.622211
 30
0.0
 10
176.702819
 20
151.623340
 30
0.0
 10
176.616939
 20
151.625880
 30
0.0
 10
176.592921
 20
151.537516
 30
0.0
 10
176.568509
 20
151.449265
 30
0.0
 10
176.543730
 20
151.361127
 30
0.0
 10
176.518556
 20
151.273074
 30
0.0
 10
176.493015
 20
151.185133
 30
0.0
 10
176.467107
 20
151.097334
 30
0.0
 10
176.440832
 20
151.009619
 30
0.0
 10
176.414162
 20
150.922018
 30
0.0
 10
176.488161
 20
150.878386
 30
0.0
 10
176.561708
 20
150.833372
 30
0.0
 10
176.634831
 20
150.787031
 30
0.0
 10
176.707532
 20
150.739392
 30
0.0
 10
176.779809
 20
150.690567
 30
0.0
 10
176.851691
 20
150.640557
 30
0.0
 10
176.923206
 20
150.589419
 30
0.0
 10
176.994326
 20
150.537179
 30
0.0
 10
177.065079
 20
150.483868
 30
0.0
 10
177.135437
 20
150.429540
 30
0.0
 10
177.205428
 20
150.374168
 30
0.0
 10
177.275081
 20
150.317836
 30
0.0
 10
177.344338
 20
150.260489
 30
0.0
 10
177.413257
 20
150.202210
 30
0.0
 10
177.481780
 20
150.143000
 30
0.0
 10
177.549965
 20
150.082858
 30
0.0
 10
177.617811
 20
150.021813
 30
0.0
 10
177.685263
 20
149.959894
 30
0.0
 10
177.752375
 20
149.897071
 30
0.0
 10
177.727624
 20
149.823552
 30
0.0
 10
177.702619
 20
149.750118
 30
0.0
 10
177.677360
 20
149.676740
 30
0.0
 10
177.651847
 20
149.603475
 30
0.0
 10
177.626109
 20
149.530295
 30
0.0
 10
177.600116
 20
149.457200
 30
0.0
 10
177.573869
 20
149.384189
 30
0.0
 10
177.547397
 20
149.311263
 30
0.0
 10
177.455759
 20
149.304009
 30
0.0
 10
177.364404
 20
149.297631
 30
0.0
 10
177.273303
 20
149.292213
 30
0.0
 10
177.182512
 20
149.287697
 30
0.0
 10
177.092003
 20
149.284141
 30
0.0
 10
177.001777
 20
149.281601
 30
0.0
 10
176.911889
 20
149.279908
 30
0.0
 10
176.822312
 20
149.279343
 30
0.0
 10
176.733073
 20
149.279625
 30
0.0
 10
176.644173
 20
149.281037
 30
0.0
 10
176.555640
 20
149.283577
 30
0.0
 10
176.467445
 20
149.287076
 30
0.0
 10
176.379674
 20
149.291676
 30
0.0
 10
176.292270
 20
149.297405
 30
0.0
 10
176.205317
 20
149.304292
 30
0.0
 10
176.118788
 20
149.312391
 30
0.0
 10
176.032739
 20
149.321733
 30
0.0
 10
175.947141
 20
149.332373
 30
0.0
 10
175.862107
 20
149.344424
 30
0.0
 10
175.828325
 20
149.259305
 30
0.0
 10
175.794176
 20
149.174328
 30
0.0
 10
175.759689
 20
149.089521
 30
0.0
 10
175.724834
 20
149.004854
 30
0.0
 10
175.689613
 20
148.920328
 30
0.0
 10
175.654025
 20
148.835972
 30
0.0
 10
175.618098
 20
148.751729
 30
0.0
 10
175.581776
 20
148.667683
 30
0.0
 10
175.650440
 20
148.616036
 30
0.0
 10
175.718484
 20
148.563063
 30
0.0
 10
175.785935
 20
148.508820
 30
0.0
 10
175.852850
 20
148.453363
 30
0.0
 10
175.919229
 20
148.396750
 30
0.0
 10
175.985071
 20
148.339007
 30
0.0
 10
176.050377
 20
148.280192
 30
0.0
 10
176.115204
 20
148.220304
 30
0.0
 10
176.179551
 20
148.159429
 30
0.0
 10
176.243389
 20
148.097538
 30
0.0
 10
176.306748
 20
148.034687
 30
0.0
 10
176.369627
 20
147.970905
 30
0.0
 10
176.432055
 20
147.906191
 30
0.0
 10
176.494003
 20
147.840546
 30
0.0
 10
176.555471
 20
147.774026
 30
0.0
 10
176.616487
 20
147.706632
 30
0.0
 10
176.677052
 20
147.638390
 30
0.0
 10
176.737165
 20
147.569274
 30
0.0
 10
176.796827
 20
147.499368
 30
0.0
 10
176.764005
 20
147.429066
 30
0.0
 10
176.730928
 20
147.358877
 30
0.0
 10
176.697626
 20
147.288830
 30
0.0
 10
176.664070
 20
147.218867
 30
0.0
 10
176.630288
 20
147.149017
 30
0.0
 10
176.596280
 20
147.079280
 30
0.0
 10
176.562018
 20
147.009684
 30
0.0
 10
176.527531
 20
146.940173
 30
0.0
 10
176.435667
 20
146.943221
 30
0.0
 10
176.344171
 20
146.947143
 30
0.0
 10
176.253041
 20
146.951941
 30
0.0
 10
176.162307
 20
146.957614
 30
0.0
 10
176.071967
 20
146.964218
 30
0.0
 10
175.982051
 20
146.971725
 30
0.0
 10
175.892531
 20
146.980163
 30
0.0
 10
175.803433
 20
146.989561
 30
0.0
 10
175.714787
 20
146.999919
 30
0.0
 10
175.626621
 20
147.011236
 30
0.0
 10
175.538906
 20
147.023569
 30
0.0
 10
175.451671
 20
147.036947
 30
0.0
 10
175.364944
 20
147.051340
 30
0.0
 10
175.278754
 20
147.066806
 30
0.0
 10
175.193099
 20
147.083400
 30
0.0
 10
175.108037
 20
147.101124
 30
0.0
 10
175.023568
 20
147.120061
 30
0.0
 10
174.939720
 20
147.140212
 30
0.0
 10
174.856549
 20
147.161717
 30
0.0
 10
174.813454
 20
147.080917
 30
0.0
 10
174.770020
 20
147.000286
 30
0.0
 10
174.726247
 20
146.919881
 30
0.0
 10
174.682108
 20
146.839645
 30
0.0
 10
174.637658
 20
146.759607
 30
0.0
 10
174.592841
 20
146.679738
 30
0.0
 10
174.547713
 20
146.600067
 30
0.0
 10
174.502219
 20
146.520593
 30
0.0
 10
174.564647
 20
146.461608
 30
0.0
 10
174.626341
 20
146.401354
 30
0.0
 10
174.687301
 20
146.339886
 30
0.0
 10
174.747583
 20
146.277289
 30
0.0
 10
174.807189
 20
146.213591
 30
0.0
 10
174.866173
 20
146.148850
 30
0.0
 10
174.924508
 20
146.083064
 30
0.0
 10
174.982195
 20
146.016318
 30
0.0
 10
175.039316
 20
145.948613
 30
0.0
 10
175.095817
 20
145.879977
 30
0.0
 10
175.151754
 20
145.810437
 30
0.0
 10
175.207097
 20
145.739994
 30
0.0
 10
175.261877
 20
145.668705
 30
0.0
 10
175.316092
 20
145.596541
 30
0.0
 10
175.369742
 20
145.523558
 30
0.0
 10
175.422828
 20
145.449757
 30
0.0
 10
175.475378
 20
145.375137
 30
0.0
 10
175.527363
 20
145.299756
 30
0.0
 10
175.578812
 20
145.223584
 30
0.0
 10
175.538313
 20
145.157403
 30
0.0
 10
175.497589
 20
145.091391
 30
0.0
 10
175.456638
 20
145.025492
 30
0.0
 10
175.415490
 20
144.959706
 30
0.0
 10
175.374088
 20
144.894090
 30
0.0
 10
175.332489
 20
144.828614
 30
0.0
 10
175.290663
 20
144.763280
 30
0.0
 10
175.248612
 20
144.698086
 30
0.0
 10
175.157652
 20
144.711379
 30
0.0
 10
175.067172
 20
144.725518
 30
0.0
 10
174.977171
 20
144.740476
 30
0.0
 10
174.887622
 20
144.756309
 30
0.0
 10
174.798609
 20
144.772960
 30
0.0
 10
174.710076
 20
144.790514
 30
0.0
 10
174.622079
 20
144.808915
 30
0.0
 10
174.534590
 20
144.828219
 30
0.0
 10
174.447666
 20
144.848426
 30
0.0
 10
174.361306
 20
144.869565
 30
0.0
 10
174.275510
 20
144.891634
 30
0.0
 10
174.190335
 20
144.914692
 30
0.0
 10
174.105782
 20
144.938709
 30
0.0
 10
174.021849
 20
144.963714
 30
0.0
 10
173.938621
 20
144.989791
 30
0.0
 10
173.856043
 20
145.016941
 30
0.0
 10
173.774227
 20
145.045220
 30
0.0
 10
173.693173
 20
145.074627
 30
0.0
 10
173.612937
 20
145.105305
 30
0.0
 10
173.561065
 20
145.029839
 30
0.0
 10
173.508882
 20
144.954598
 30
0.0
 10
173.456360
 20
144.879583
 30
0.0
 10
173.403528
 20
144.804795
 30
0.0
 10
173.350386
 20
144.730231
 30
0.0
 10
173.296933
 20
144.655894
 30
0.0
 10
173.243141
 20
144.581783
 30
0.0
 10
173.189039
 20
144.507897
 30
0.0
 10
173.244496
 20
144.442280
 30
0.0
 10
173.299049
 20
144.375506
 30
0.0
 10
173.352756
 20
144.307604
 30
0.0
 10
173.405645
 20
144.238657
 30
0.0
 10
173.457743
 20
144.168666
 30
0.0
 10
173.509079
 20
144.097743
 30
0.0
 10
173.559682
 20
144.025833
 30
0.0
 10
173.609550
 20
143.953048
 30
0.0
 10
173.658713
 20
143.879388
 30
0.0
 10
173.707199
 20
143.804853
 30
0.0
 10
173.754979
 20
143.729471
 30
0.0
 10
173.802082
 20
143.653271
 30
0.0
 10
173.848536
 20
143.576281
 30
0.0
 10
173.894341
 20
143.498529
 30
0.0
 10
173.939468
 20
143.419987
 30
0.0
 10
173.983975
 20
143.340710
 30
0.0
 10
174.027832
 20
143.260700
 30
0.0
 10
174.071068
 20
143.179957
 30
0.0
 10
174.113656
 20
143.098507
 30
0.0
 10
174.065988
 20
143.037265
 30
0.0
 10
174.018152
 20
142.976220
 30
0.0
 10
173.970089
 20
142.915317
 30
0.0
 10
173.921801
 20
142.854583
 30
0.0
 10
173.873343
 20
142.794018
 30
0.0
 10
173.824660
 20
142.733594
 30
0.0
 10
173.775779
 20
142.673339
 30
0.0
 10
173.726701
 20
142.613254
 30
0.0
 10
173.637801
 20
142.636679
 30
0.0
 10
173.549465
 20
142.660837
 30
0.0
 10
173.461694
 20
142.685785
 30
0.0
 10
173.374487
 20
142.711552
 30
0.0
 10
173.287902
 20
142.738081
 30
0.0
 10
173.201880
 20
142.765400
 30
0.0
 10
173.116508
 20
142.793566
 30
0.0
 10
173.031729
 20
142.822550
 30
0.0
 10
172.947626
 20
142.852353
 30
0.0
 10
172.864173
 20
142.883031
 30
0.0
 10
172.781397
 20
142.914555
 30
0.0
 10
172.699327
 20
142.946982
 30
0.0
 10
172.617991
 20
142.980341
 30
0.0
 10
172.537388
 20
143.014603
 30
0.0
 10
172.457576
 20
143.049824
 30
0.0
 10
172.378582
 20
143.086033
 30
0.0
 10
172.300434
 20
143.123286
 30
0.0
 10
172.223190
 20
143.161612
 30
0.0
 10
172.146877
 20
143.201067
 30
0.0
 10
172.086905
 20
143.131894
 30
0.0
 10
172.026622
 20
143.062975
 30
0.0
 10
171.966029
 20
142.994311
 30
0.0
 10
171.905154
 20
142.925900
 30
0.0
 10
171.843996
 20
142.857743
 30
0.0
 10
171.782557
 20
142.789869
 30
0.0
 10
171.720806
 20
142.722249
 30
0.0
 10
171.658774
 20
142.654882
 30
0.0
 10
171.706526
 20
142.583480
 30
0.0
 10
171.753262
 20
142.511005
 30
0.0
 10
171.799038
 20
142.437515
 30
0.0
 10
171.843855
 20
142.363064
 30
0.0
 10
171.887797
 20
142.287711
 30
0.0
 10
171.930893
 20
142.211455
 30
0.0
 10
171.973113
 20
142.134351
 30
0.0
 10
172.014515
 20
142.056430
 30
0.0
 10
172.055127
 20
141.977718
 30
0.0
 10
172.094948
 20
141.898216
 30
0.0
 10
172.134008
 20
141.817980
 30
0.0
 10
172.172277
 20
141.736983
 30
0.0
 10
172.209813
 20
141.655307
 30
0.0
 10
172.246615
 20
141.572899
 30
0.0
 10
172.282683
 20
141.489784
 30
0.0
 10
172.318017
 20
141.406021
 30
0.0
 10
172.352645
 20
141.321608
 30
0.0
 10
172.386569
 20
141.236518
 30
0.0
 10
172.419786
 20
141.150835
 30
0.0
 10
172.365571
 20
141.095322
 30
0.0
 10
172.311159
 20
141.040007
 30
0.0
 10
172.256577
 20
140.984860
 30
0.0
 10
172.201826
 20
140.929912
 30
0.0
 10
172.146877
 20
140.875161
 30
0.0
 10
172.091731
 20
140.820579
 30
0.0
 10
172.036415
 20
140.766166
 30
0.0
 10
171.980902
 20
140.711951
 30
0.0
 10
171.895220
 20
140.745169
 30
0.0
 10
171.810130
 20
140.779092
 30
0.0
 10
171.725717
 20
140.813721
 30
0.0
 10
171.641953
 20
140.849055
 30
0.0
 10
171.558839
 20
140.885123
 30
0.0
 10
171.476430
 20
140.921925
 30
0.0
 10
171.394755
 20
140.959460
 30
0.0
 10
171.313757
 20
140.997730
 30
0.0
 10
171.233521
 20
141.036789
 30
0.0
 10
171.154019
 20
141.076611
 30
0.0
 10
171.075308
 20
141.117223
 30
0.0
 10
170.997386
 20
141.158625
 30
0.0
 10
170.920283
 20
141.200845
 30
0.0
 10
170.844027
 20
141.243940
 30
0.0
 10
170.768673
 20
141.287882
 30
0.0
 10
170.694223
 20
141.332699
 30
0.0
 10
170.620732
 20
141.378476
 30
0.0
 10
170.548258
 20
141.425212
 30
0.0
 10
170.476855
 20
141.472964
 30
0.0
 10
170.409489
 20
141.410931
 30
0.0
 10
170.341869
 20
141.349181
 30
0.0
 10
170.273994
 20
141.287741
 30
0.0
 10
170.205837
 20
141.226584
 30
0.0
 10
170.137427
 20
141.165708
 30
0.0
 10
170.068762
 20
141.105115
 30
0.0
 10
169.999843
 20
141.044833
 30
0.0
 10
169.930671
 20
140.984860
 30
0.0
 10
169.970125
 20
140.908547
 30
0.0
 10
170.008451
 20
140.831303
 30
0.0
 10
170.045705
 20
140.753156
 30
0.0
 10
170.081914
 20
140.674162
 30
0.0
 10
170.117135
 20
140.594349
 30
0.0
 10
170.151397
 20
140.513747
 30
0.0
 10
170.184755
 20
140.432410
 30
0.0
 10
170.217183
 20
140.350340
 30
0.0
 10
170.248707
 20
140.267564
 30
0.0
 10
170.279385
 20
140.184111
 30
0.0
 10
170.309187
 20
140.100009
 30
0.0
 10
170.338171
 20
140.015229
 30
0.0
 10
170.366337
 20
139.929857
 30
0.0
 10
170.393656
 20
139.843836
 30
0.0
 10
170.420185
 20
139.757250
 30
0.0
 10
170.445952
 20
139.670043
 30
0.0
 10
170.470901
 20
139.582272
 30
0.0
 10
170.495059
 20
139.493937
 30
0.0
 10
170.518483
 20
139.405037
 30
0.0
 10
170.458398
 20
139.355958
 30
0.0
 10
170.398144
 20
139.307077
 30
0.0
 10
170.337720
 20
139.258394
 30
0.0
 10
170.277155
 20
139.209937
 30
0.0
 10
170.216421
 20
139.161648
 30
0.0
 10
170.155517
 20
139.113586
 30
0.0
 10
170.094473
 20
139.065749
 30
0.0
 10
170.033230
 20
139.018082
 30
0.0
 10
169.951781
 20
139.060669
 30
0.0
 10
169.871037
 20
139.103906
 30
0.0
 10
169.791027
 20
139.147763
 30
0.0
 10
169.711751
 20
139.192269
 30
0.0
 10
169.633209
 20
139.237397
 30
0.0
 10
169.555456
 20
139.283201
 30
0.0
 10
169.478466
 20
139.329655
 30
0.0
 10
169.402266
 20
139.376758
 30
0.0
 10
169.326885
 20
139.424538
 30
0.0
 10
169.252350
 20
139.473024
 30
0.0
 10
169.178690
 20
139.522187
 30
0.0
 10
169.105905
 20
139.572056
 30
0.0
 10
169.033994
 20
139.622658
 30
0.0
 10
168.963072
 20
139.673995
 30
0.0
 10
168.893081
 20
139.726093
 30
0.0
 10
168.824134
 20
139.778981
 30
0.0
 10
168.756231
 20
139.832688
 30
0.0
 10
168.689457
 20
139.887242
 30
0.0
 10
168.623841
 20
139.942698
 30
0.0
 10
168.549955
 20
139.888596
 30
0.0
 10
168.475843
 20
139.834805
 30
0.0
 10
168.401506
 20
139.781352
 30
0.0
 10
168.326943
 20
139.728209
 30
0.0
 10
168.252154
 20
139.675377
 30
0.0
 10
168.177139
 20
139.622856
 30
0.0
 10
168.101899
 20
139.570673
 30
0.0
 10
168.026433
 20
139.518801
 30
0.0
 10
168.057110
 20
139.438565
 30
0.0
 10
168.086518
 20
139.357511
 30
0.0
 10
168.114797
 20
139.275694
 30
0.0
 10
168.141946
 20
139.193116
 30
0.0
 10
168.168024
 20
139.109889
 30
0.0
 10
168.193029
 20
139.025956
 30
0.0
 10
168.217046
 20
138.941402
 30
0.0
 10
168.240103
 20
138.856227
 30
0.0
 10
168.262173
 20
138.770432
 30
0.0
 10
168.283311
 20
138.684072
 30
0.0
 10
168.303519
 20
138.597147
 30
0.0
 10
168.322823
 20
138.509659
 30
0.0
 10
168.341223
 20
138.421662
 30
0.0
 10
168.358778
 20
138.333129
 30
0.0
 10
168.375429
 20
138.244116
 30
0.0
 10
168.391261
 20
138.154567
 30
0.0
 10
168.406219
 20
138.064566
 30
0.0
 10
168.420359
 20
137.974085
 30
0.0
 10
168.433651
 20
137.883125
 30
0.0
 10
168.368458
 20
137.841074
 30
0.0
 10
168.303123
 20
137.799249
 30
0.0
 10
168.237648
 20
137.757649
 30
0.0
 10
168.172031
 20
137.716247
 30
0.0
 10
168.106245
 20
137.675099
 30
0.0
 10
168.040346
 20
137.634149
 30
0.0
 10
167.974335
 20
137.593424
 30
0.0
 10
167.908153
 20
137.552925
 30
0.0
 10
167.831982
 20
137.604374
 30
0.0
 10
167.756600
 20
137.656360
 30
0.0
 10
167.681981
 20
137.708909
 30
0.0
 10
167.608179
 20
137.761995
 30
0.0
 10
167.535197
 20
137.815646
 30
0.0
 10
167.463033
 20
137.869861
 30
0.0
 10
167.391743
 20
137.924640
 30
0.0
 10
167.321301
 20
137.979984
 30
0.0
 10
167.251761
 20
138.035920
 30
0.0
 10
167.183125
 20
138.092421
 30
0.0
 10
167.115419
 20
138.149543
 30
0.0
 10
167.048674
 20
138.207229
 30
0.0
 10
166.982888
 20
138.265565
 30
0.0
 10
166.918146
 20
138.324549
 30
0.0
 10
166.854449
 20
138.384154
 30
0.0
 10
166.791852
 20
138.444437
 30
0.0
 10
166.730384
 20
138.505397
 30
0.0
 10
166.670129
 20
138.567091
 30
0.0
 10
166.611145
 20
138.629518
 30
0.0
 10
166.531671
 20
138.584024
 30
0.0
 10
166.452000
 20
138.538897
 30
0.0
 10
166.372131
 20
138.494080
 30
0.0
 10
166.292093
 20
138.449630
 30
0.0
 10
166.211857
 20
138.405490
 30
0.0
 10
166.131452
 20
138.361718
 30
0.0
 10
166.050821
 20
138.318284
 30
0.0
 10
165.970021
 20
138.275188
 30
0.0
 10
165.991526
 20
138.192017
 30
0.0
 10
166.011677
 20
138.108169
 30
0.0
 10
166.030614
 20
138.023700
 30
0.0
 10
166.048337
 20
137.938638
 30
0.0
 10
166.064932
 20
137.852984
 30
0.0
 10
166.080398
 20
137.766793
 30
0.0
 10
166.094791
 20
137.680066
 30
0.0
 10
166.108168
 20
137.592831
 30
0.0
 10
166.120501
 20
137.505117
 30
0.0
 10
166.131819
 20
137.416951
 30
0.0
 10
166.142176
 20
137.328305
 30
0.0
 10
166.151574
 20
137.239207
 30
0.0
 10
166.160013
 20
137.149686
 30
0.0
 10
166.167520
 20
137.059770
 30
0.0
 10
166.174124
 20
136.969431
 30
0.0
 10
166.179796
 20
136.878696
 30
0.0
 10
166.184594
 20
136.787567
 30
0.0
 10
166.188517
 20
136.696070
 30
0.0
 10
166.191565
 20
136.604207
 30
0.0
 10
166.122054
 20
136.569719
 30
0.0
 10
166.052458
 20
136.535458
 30
0.0
 10
165.982721
 20
136.501450
 30
0.0
 10
165.912871
 20
136.467668
 30
0.0
 10
165.842908
 20
136.434112
 30
0.0
 10
165.772860
 20
136.400809
 30
0.0
 10
165.702671
 20
136.367733
 30
0.0
 10
165.632370
 20
136.334911
 30
0.0
 10
165.562463
 20
136.394572
 30
0.0
 10
165.493347
 20
136.454686
 30
0.0
 10
165.425106
 20
136.515251
 30
0.0
 10
165.357711
 20
136.576267
 30
0.0
 10
165.291191
 20
136.637735
 30
0.0
 10
165.225547
 20
136.699683
 30
0.0
 10
165.160833
 20
136.762110
 30
0.0
 10
165.097051
 20
136.824989
 30
0.0
 10
165.034200
 20
136.888348
 30
0.0
 10
164.972309
 20
136.952187
 30
0.0
 10
164.911433
 20
137.016534
 30
0.0
 10
164.851546
 20
137.081360
 30
0.0
 10
164.792731
 20
137.146666
 30
0.0
 10
164.734988
 20
137.212509
 30
0.0
 10
164.678374
 20
137.278887
 30
0.0
 10
164.622917
 20
137.345802
 30
0.0
 10
164.568674
 20
137.413253
 30
0.0
 10
164.515701
 20
137.481297
 30
0.0
 10
164.464055
 20
137.549962
 30
0.0
 10
164.380009
 20
137.513640
 30
0.0
 10
164.295765
 20
137.477713
 30
0.0
 10
164.211409
 20
137.442125
 30
0.0
 10
164.126884
 20
137.406903
 30
0.0
 10
164.042217
 20
137.372049
 30
0.0
 10
163.957409
 20
137.337561
 30
0.0
 10
163.872432
 20
137.303413
 30
0.0
 10
163.787314
 20
137.269631
 30
0.0
 10
163.799365
 20
137.184597
 30
0.0
 10
163.810005
 20
137.098999
 30
0.0
 10
163.819346
 20
137.012949
 30
0.0
 10
163.827446
 20
136.926420
 30
0.0
 10
163.834332
 20
136.839467
 30
0.0
 10
163.840061
 20
136.752063
 30
0.0
 10
163.844661
 20
136.664292
 30
0.0
 10
163.848161
 20
136.576098
 30
0.0
 10
163.850701
 20
136.487565
 30
0.0
 10
163.852112
 20
136.398665
 30
0.0
 10
163.852394
 20
136.309426
 30
0.0
 10
163.851830
 20
136.219849
 30
0.0
 10
163.850137
 20
136.129961
 30
0.0
 10
163.847597
 20
136.039734
 30
0.0
 10
163.844041
 20
135.949226
 30
0.0
 10
163.839525
 20
135.858435
 30
0.0
 10
163.834106
 20
135.767333
 30
0.0
 10
163.827728
 20
135.675978
 30
0.0
 10
163.820475
 20
135.584341
 30
0.0
 10
163.747549
 20
135.557868
 30
0.0
 10
163.674538
 20
135.531621
 30
0.0
 10
163.601442
 20
135.505629
 30
0.0
 10
163.528262
 20
135.479890
 30
0.0
 10
163.454997
 20
135.454377
 30
0.0
 10
163.381619
 20
135.429118
 30
0.0
 10
163.308185
 20
135.404113
 30
0.0
 10
163.234666
 20
135.379363
 30
0.0
 10
163.171844
 20
135.446475
 30
0.0
 10
163.109924
 20
135.513926
 30
0.0
 10
163.048879
 20
135.581772
 30
0.0
 10
162.988738
 20
135.649957
 30
0.0
 10
162.929528
 20
135.718481
 30
0.0
 10
162.871249
 20
135.787399
 30
0.0
 10
162.813901
 20
135.856657
 30
0.0
 10
162.757570
 20
135.926309
 30
0.0
 10
162.702198
 20
135.996300
 30
0.0
 10
162.647870
 20
136.066658
 30
0.0
 10
162.594558
 20
136.137411
 30
0.0
 10
162.542319
 20
136.208531
 30
0.0
 10
162.491180
 20
136.280047
 30
0.0
 10
162.441170
 20
136.351929
 30
0.0
 10
162.392346
 20
136.424206
 30
0.0
 10
162.344707
 20
136.496906
 30
0.0
 10
162.298366
 20
136.570030
 30
0.0
 10
162.253351
 20
136.643577
 30
0.0
 10
162.209720
 20
136.717576
 30
0.0
 10
162.122118
 20
136.690906
 30
0.0
 10
162.034403
 20
136.664631
 30
0.0
 10
161.946604
 20
136.638723
 30
0.0
 10
161.858664
 20
136.613182
 30
0.0
 10
161.770610
 20
136.588007
 30
0.0
 10
161.682472
 20
136.563228
 30
0.0
 10
161.594221
 20
136.538816
 30
0.0
 10
161.505858
 20
136.514799
 30
0.0
 10
161.508398
 20
136.428919
 30
0.0
 10
161.509527
 20
136.342700
 30
0.0
 10
161.509244
 20
136.256142
 30
0.0
 10
161.507551
 20
136.169246
 30
0.0
 10
161.504672
 20
136.082039
 30
0.0
 10
161.500580
 20
135.994579
 30
0.0
 10
161.495331
 20
135.906836
 30
0.0
 10
161.488924
 20
135.818811
 30
0.0
 10
161.481445
 20
135.730560
 30
0.0
 10
161.472866
 20
135.642055
 30
0.0
 10
161.463214
 20
135.553324
 30
0.0
 10
161.452546
 20
135.464396
 30
0.0
 10
161.440862
 20
135.375242
 30
0.0
 10
161.428190
 20
135.285891
 30
0.0
 10
161.414502
 20
135.196341
 30
0.0
 10
161.399883
 20
135.106623
 30
0.0
 10
161.384276
 20
135.016707
 30
0.0
 10
161.367738
 20
134.926650
 30
0.0
 10
161.350240
 20
134.836395
 30
0.0
 10
161.274831
 20
134.818248
 30
0.0
 10
161.199336
 20
134.800355
 30
0.0
 10
161.123785
 20
134.782688
 30
0.0
 10
161.048178
 20
134.765303
 30
0.0
 10
160.972514
 20
134.748173
 30
0.0
 10
160.896794
 20
134.731296
 30
0.0
 10
160.821017
 20
134.714673
 30
0.0
 10
160.745156
 20
134.698304
 30
0.0
 10
160.690264
 20
134.772020
 30
0.0
 10
160.636275
 20
134.845991
 30
0.0
 10
160.583217
 20
134.920215
 30
0.0
 10
160.531090
 20
134.994722
 30
0.0
 10
160.479923
 20
135.069454
 30
0.0
 10
160.429716
 20
135.144469
 30
0.0
 10
160.380497
 20
135.219709
 30
0.0
 10
160.332321
 20
135.295204
 30
0.0
 10
160.285134
 20
135.370981
 30
0.0
 10
160.239019
 20
135.446983
 30
0.0
 10
160.193976
 20
135.523239
 30
0.0
 10
160.150006
 20
135.599778
 30
0.0
 10
160.107221
 20
135.676543
 30
0.0
 10
160.065565
 20
135.753589
 30
0.0
 10
160.025122
 20
135.830890
 30
0.0
 10
159.985950
 20
135.908445
 30
0.0
 10
159.948076
 20
135.986310
 30
0.0
 10
159.911584
 20
136.064429
 30
0.0
 10
159.876504
 20
136.142858
 30
0.0
 10
159.786475
 20
136.126151
 30
0.0
 10
159.696362
 20
136.109867
 30
0.0
 10
159.606192
 20
136.093949
 30
0.0
 10
159.515965
 20
136.078427
 30
0.0
 10
159.425654
 20
136.063272
 30
0.0
 10
159.335287
 20
136.048511
 30
0.0
 10
159.244863
 20
136.034146
 30
0.0
 10
159.154354
 20
136.020148
 30
0.0
 10
159.147157
 20
135.934550
 30
0.0
 10
159.138521
 20
135.848755
 30
0.0
 10
159.128474
 20
135.762761
 30
0.0
 10
159.117129
 20
135.676599
 30
0.0
 10
159.104485
 20
135.590295
 30
0.0
 10
159.090628
 20
135.503823
 30
0.0
 10
159.075586
 20
135.417209
 30
0.0
 10
159.059358
 20
135.330482
 30
0.0
 10
159.042029
 20
135.243614
 30
0.0
 10
159.023600
 20
135.156633
 30
0.0
 10
159.004099
 20
135.069539
 30
0.0
 10
158.983553
 20
134.982361
 30
0.0
 10
158.961935
 20
134.895069
 30
0.0
 10
158.939329
 20
134.807693
 30
0.0
 10
158.915735
 20
134.720261
 30
0.0
 10
158.891125
 20
134.632715
 30
0.0
 10
158.865556
 20
134.545142
 30
0.0
 10
158.839027
 20
134.457484
 30
0.0
 10
158.811567
 20
134.369769
 30
0.0
 10
158.734577
 20
134.360173
 30
0.0
 10
158.657558
 20
134.350832
 30
0.0
 10
158.580511
 20
134.341744
 30
0.0
 10
158.503437
 20
134.332939
 30
0.0
 10
158.426305
 20
134.324388
 30
0.0
 10
158.349174
 20
134.316090
 30
0.0
 10
158.272014
 20
134.308047
 30
0.0
 10
158.194827
 20
134.300258
 30
0.0
 10
158.148514
 20
134.379675
 30
0.0
 10
158.103161
 20
134.459233
 30
0.0
 10
158.058739
 20
134.538933
 30
0.0
 10
158.015277
 20
134.618802
 30
0.0
 10
157.972802
 20
134.698812
 30
0.0
 10
157.931316
 20
134.778935
 30
0.0
 10
157.890845
 20
134.859227
 30
0.0
 10
157.851390
 20
134.939660
 30
0.0
 10
157.813008
 20
135.020235
 30
0.0
 10
157.775670
 20
135.100922
 30
0.0
 10
157.739461
 20
135.181751
 30
0.0
 10
157.704353
 20
135.262720
 30
0.0
 10
157.670401
 20
135.343803
 30
0.0
 10
157.637635
 20
135.425026
 30
0.0
 10
157.606111
 20
135.506363
 30
0.0
 10
157.575885
 20
135.587840
 30
0.0
 10
157.546957
 20
135.669431
 30
0.0
 10
157.519441
 20
135.751162
 30
0.0
 10
157.493363
 20
135.833007
 30
0.0
 10
157.402036
 20
135.826515
 30
0.0
 10
157.310681
 20
135.820391
 30
0.0
 10
157.219269
 20
135.814662
 30
0.0
 10
157.127857
 20
135.809328
 30
0.0
 10
157.036445
 20
135.804417
 30
0.0
 10
156.944977
 20
135.799845
 30
0.0
 10
156.853509
 20
135.795697
 30
0.0
 10
156.762013
 20
135.791943
 30
0.0
 10
156.745277
 20
135.707672
 30
0.0
 10
156.727073
 20
135.623372
 30
0.0
 10
156.707487
 20
135.539072
 30
0.0
 10
156.686546
 20
135.454716
 30
0.0
 10
156.664335
 20
135.370360
 30
0.0
 10
156.640883
 20
135.285975
 30
0.0
 10
156.616217
 20
135.201591
 30
0.0
 10
156.590393
 20
135.117235
 30
0.0
 10
156.563469
 20
135.032850
 30
0.0
 10
156.535416
 20
134.948466
 30
0.0
 10
156.506263
 20
134.864109
 30
0.0
 10
156.476065
 20
134.779781
 30
0.0
 10
156.444851
 20
134.695482
 30
0.0
 10
156.412593
 20
134.611182
 30
0.0
 10
156.379347
 20
134.526939
 30
0.0
 10
156.345114
 20
134.442695
 30
0.0
 10
156.309893
 20
134.358537
 30
0.0
 10
156.273712
 20
134.274378
 30
0.0
 10
156.236599
 20
134.190304
 30
0.0
 10
156.159017
 20
134.189457
 30
0.0
 10
156.081434
 20
134.188893
 30
0.0
 10
156.003851
 20
134.188611
 30
0.0
 10
155.926268
 20
134.188498
 30
0.0
 10
155.848685
 20
134.188611
 30
0.0
 10
155.771102
 20
134.188893
 30
0.0
 10
155.693519
 20
134.189457
 30
0.0
 10
155.615936
 20
134.190304
 30
0.0
 10
155.578824
 20
134.274378
 30
0.0
 10
155.542643
 20
134.358537
 30
0.0
 10
155.507422
 20
134.442695
 30
0.0
 10
155.473188
 20
134.526939
 30
0.0
 10
155.439943
 20
134.611182
 30
0.0
 10
155.407685
 20
134.695482
 30
0.0
 10
155.376471
 20
134.779781
 30
0.0
 10
155.346273
 20
134.864109
 30
0.0
 10
155.317119
 20
134.948466
 30
0.0
 10
155.289067
 20
135.032850
 30
0.0
 10
155.262143
 20
135.117235
 30
0.0
 10
155.236319
 20
135.201591
 30
0.0
 10
155.211653
 20
135.285975
 30
0.0
 10
155.188200
 20
135.370360
 30
0.0
 10
155.165989
 20
135.454716
 30
0.0
 10
155.145049
 20
135.539072
 30
0.0
 10
155.125462
 20
135.623372
 30
0.0
 10
155.107259
 20
135.707672
 30
0.0
 10
155.090523
 20
135.791943
 30
0.0
 10
154.999027
 20
135.795697
 30
0.0
 10
154.907559
 20
135.799845
 30
0.0
 10
154.816090
 20
135.804417
 30
0.0
 10
154.724679
 20
135.809328
 30
0.0
 10
154.633267
 20
135.814662
 30
0.0
 10
154.541855
 20
135.820391
 30
0.0
 10
154.450500
 20
135.826515
 30
0.0
 10
154.359173
 20
135.833007
 30
0.0
 10
154.333095
 20
135.751162
 30
0.0
 10
154.305579
 20
135.669431
 30
0.0
 10
154.276651
 20
135.587840
 30
0.0
 10
154.246425
 20
135.506363
 30
0.0
 10
154.214901
 20
135.425026
 30
0.0
 10
154.182135
 20
135.343803
 30
0.0
 10
154.148183
 20
135.262720
 30
0.0
 10
154.113075
 20
135.181751
 30
0.0
 10
154.076866
 20
135.100922
 30
0.0
 10
154.039528
 20
135.020235
 30
0.0
 10
154.001145
 20
134.939660
 30
0.0
 10
153.961691
 20
134.859227
 30
0.0
 10
153.921220
 20
134.778935
 30
0.0
 10
153.879733
 20
134.698812
 30
0.0
 10
153.837259
 20
134.618802
 30
0.0
 10
153.793797
 20
134.538933
 30
0.0
 10
153.749375
 20
134.459233
 30
0.0
 10
153.704022
 20
134.379675
 30
0.0
 10
153.657709
 20
134.300258
 30
0.0
 10
153.580521
 20
134.308047
 30
0.0
 10
153.503362
 20
134.316090
 30
0.0
 10
153.426231
 20
134.324388
 30
0.0
 10
153.349099
 20
134.332939
 30
0.0
 10
153.272024
 20
134.341744
 30
0.0
 10
153.194978
 20
134.350832
 30
0.0
 10
153.117959
 20
134.360173
 30
0.0
 10
153.040969
 20
134.369769
 30
0.0
 10
153.013509
 20
134.457484
 30
0.0
 10
152.986980
 20
134.545142
 30
0.0
 10
152.961411
 20
134.632715
 30
0.0
 10
152.936801
 20
134.720261
 30
0.0
 10
152.913207
 20
134.807693
 30
0.0
 10
152.890601
 20
134.895069
 30
0.0
 10
152.868983
 20
134.982361
 30
0.0
 10
152.848437
 20
135.069539
 30
0.0
 10
152.828935
 20
135.156633
 30
0.0
 10
152.810506
 20
135.243614
 30
0.0
 10
152.793178
 20
135.330482
 30
0.0
 10
152.776950
 20
135.417209
 30
0.0
 10
152.761908
 20
135.503823
 30
0.0
 10
152.748051
 20
135.590295
 30
0.0
 10
152.735407
 20
135.676599
 30
0.0
 10
152.724062
 20
135.762761
 30
0.0
 10
152.714015
 20
135.848755
 30
0.0
 10
152.705379
 20
135.934550
 30
0.0
 10
152.698182
 20
136.020148
 30
0.0
 10
152.607673
 20
136.034146
 30
0.0
 10
152.517249
 20
136.048511
 30
0.0
 10
152.426882
 20
136.063272
 30
0.0
 10
152.336571
 20
136.078427
 30
0.0
 10
152.246344
 20
136.093949
 30
0.0
 10
152.156174
 20
136.109867
 30
0.0
 10
152.066061
 20
136.126151
 30
0.0
 10
151.976032
 20
136.142858
 30
0.0
 10
151.940951
 20
136.064429
 30
0.0
 10
151.904460
 20
135.986310
 30
0.0
 10
151.866586
 20
135.908445
 30
0.0
 10
151.827413
 20
135.830890
 30
0.0
 10
151.786971
 20
135.753589
 30
0.0
 10
151.745315
 20
135.676543
 30
0.0
 10
151.702530
 20
135.599778
 30
0.0
 10
151.658560
 20
135.523239
 30
0.0
 10
151.613517
 20
135.446983
 30
0.0
 10
151.567402
 20
135.370981
 30
0.0
 10
151.520215
 20
135.295204
 30
0.0
 10
151.472039
 20
135.219709
 30
0.0
 10
151.422820
 20
135.144469
 30
0.0
 10
151.372612
 20
135.069454
 30
0.0
 10
151.321445
 20
134.994722
 30
0.0
 10
151.269319
 20
134.920215
 30
0.0
 10
151.216261
 20
134.845991
 30
0.0
 10
151.162272
 20
134.772020
 30
0.0
 10
151.107380
 20
134.698304
 30
0.0
 10
151.031519
 20
134.714673
 30
0.0
 10
150.955742
 20
134.731296
 30
0.0
 10
150.880022
 20
134.748173
 30
0.0
 10
150.804358
 20
134.765303
 30
0.0
 10
150.728751
 20
134.782688
 30
0.0
 10
150.653200
 20
134.800355
 30
0.0
 10
150.577705
 20
134.818248
 30
0.0
 10
150.502295
 20
134.836395
 30
0.0
 10
150.484798
 20
134.926650
 30
0.0
 10
150.468259
 20
135.016707
 30
0.0
 10
150.452653
 20
135.106623
 30
0.0
 10
150.438033
 20
135.196341
 30
0.0
 10
150.424346
 20
135.285891
 30
0.0
 10
150.411674
 20
135.375242
 30
0.0
 10
150.399990
 20
135.464396
 30
0.0
 10
150.389322
 20
135.553324
 30
0.0
 10
150.379670
 20
135.642055
 30
0.0
 10
150.371090
 20
135.730560
 30
0.0
 10
150.363611
 20
135.818811
 30
0.0
 10
150.357205
 20
135.906836
 30
0.0
 10
150.351956
 20
135.994579
 30
0.0
 10
150.347863
 20
136.082039
 30
0.0
 10
150.344985
 20
136.169246
 30
0.0
 10
150.343291
 20
136.256142
 30
0.0
 10
150.343009
 20
136.342700
 30
0.0
 10
150.344138
 20
136.428919
 30
0.0
 10
150.346678
 20
136.514799
 30
0.0
 10
150.258314
 20
136.538816
 30
0.0
 10
150.170063
 20
136.563228
 30
0.0
 10
150.081925
 20
136.588007
 30
0.0
 10
149.993872
 20
136.613182
 30
0.0
 10
149.905932
 20
136.638723
 30
0.0
 10
149.818132
 20
136.664631
 30
0.0
 10
149.730418
 20
136.690906
 30
0.0
 10
149.642816
 20
136.717576
 30
0.0
 10
149.599184
 20
136.643577
 30
0.0
 10
149.554170
 20
136.570030
 30
0.0
 10
149.507829
 20
136.496906
 30
0.0
 10
149.460190
 20
136.424206
 30
0.0
 10
149.411365
 20
136.351929
 30
0.0
 10
149.361356
 20
136.280047
 30
0.0
 10
149.310217
 20
136.208531
 30
0.0
 10
149.257978
 20
136.137411
 30
0.0
 10
149.204666
 20
136.066658
 30
0.0
 10
149.150338
 20
135.996300
 30
0.0
 10
149.094966
 20
135.926309
 30
0.0
 10
149.038635
 20
135.856657
 30
0.0
 10
148.981287
 20
135.787399
 30
0.0
 10
148.923008
 20
135.718481
 30
0.0
 10
148.863798
 20
135.649957
 30
0.0
 10
148.803656
 20
135.581772
 30
0.0
 10
148.742612
 20
135.513926
 30
0.0
 10
148.680692
 20
135.446475
 30
0.0
 10
148.617869
 20
135.379363
 30
0.0
 10
148.544351
 20
135.404113
 30
0.0
 10
148.470916
 20
135.429118
 30
0.0
 10
148.397539
 20
135.454377
 30
0.0
 10
148.324274
 20
135.479890
 30
0.0
 10
148.251093
 20
135.505629
 30
0.0
 10
148.177998
 20
135.531621
 30
0.0
 10
148.104987
 20
135.557868
 30
0.0
 10
148.032061
 20
135.584341
 30
0.0
 10
148.024808
 20
135.675978
 30
0.0
 10
148.018429
 20
135.767333
 30
0.0
 10
148.013011
 20
135.858435
 30
0.0
 10
148.008495
 20
135.949226
 30
0.0
 10
148.004939
 20
136.039734
 30
0.0
 10
148.002399
 20
136.129961
 30
0.0
 10
148.000706
 20
136.219849
 30
0.0
 10
148.000141
 20
136.309426
 30
0.0
 10
148.000424
 20
136.398665
 30
0.0
 10
148.001835
 20
136.487565
 30
0.0
 10
148.004375
 20
136.576098
 30
0.0
 10
148.007874
 20
136.664292
 30
0.0
 10
148.012475
 20
136.752063
 30
0.0
 10
148.018204
 20
136.839467
 30
0.0
 10
148.025090
 20
136.926420
 30
0.0
 10
148.033190
 20
137.012949
 30
0.0
 10
148.042531
 20
137.098999
 30
0.0
 10
148.053171
 20
137.184597
 30
0.0
 10
148.065222
 20
137.269631
 30
0.0
 10
147.980104
 20
137.303413
 30
0.0
 10
147.895127
 20
137.337561
 30
0.0
 10
147.810319
 20
137.372049
 30
0.0
 10
147.725652
 20
137.406903
 30
0.0
 10
147.641127
 20
137.442125
 30
0.0
 10
147.556770
 20
137.477713
 30
0.0
 10
147.472527
 20
137.513640
 30
0.0
 10
147.388481
 20
137.549962
 30
0.0
 10
147.336835
 20
137.481297
 30
0.0
 10
147.283861
 20
137.413253
 30
0.0
 10
147.229618
 20
137.345802
 30
0.0
 10
147.174162
 20
137.278887
 30
0.0
 10
147.117548
 20
137.212509
 30
0.0
 10
147.059805
 20
137.146666
 30
0.0
 10
147.000990
 20
137.081360
 30
0.0
 10
146.941103
 20
137.016534
 30
0.0
 10
146.880227
 20
136.952187
 30
0.0
 10
146.818336
 20
136.888348
 30
0.0
 10
146.755485
 20
136.824989
 30
0.0
 10
146.691703
 20
136.762110
 30
0.0
 10
146.626989
 20
136.699683
 30
0.0
 10
146.561344
 20
136.637735
 30
0.0
 10
146.494825
 20
136.576267
 30
0.0
 10
146.427430
 20
136.515251
 30
0.0
 10
146.359189
 20
136.454686
 30
0.0
 10
146.290072
 20
136.394572
 30
0.0
 10
146.220166
 20
136.334911
 30
0.0
 10
146.149864
 20
136.367733
 30
0.0
 10
146.079676
 20
136.400809
 30
0.0
 10
146.009628
 20
136.434112
 30
0.0
 10
145.939665
 20
136.467668
 30
0.0
 10
145.869815
 20
136.501450
 30
0.0
 10
145.800078
 20
136.535458
 30
0.0
 10
145.730482
 20
136.569719
 30
0.0
 10
145.660971
 20
136.604207
 30
0.0
 10
145.664019
 20
136.696070
 30
0.0
 10
145.667942
 20
136.787567
 30
0.0
 10
145.672739
 20
136.878696
 30
0.0
 10
145.678412
 20
136.969431
 30
0.0
 10
145.685016
 20
137.059770
 30
0.0
 10
145.692523
 20
137.149686
 30
0.0
 10
145.700962
 20
137.239207
 30
0.0
 10
145.710360
 20
137.328305
 30
0.0
 10
145.720717
 20
137.416951
 30
0.0
 10
145.732034
 20
137.505117
 30
0.0
 10
145.744367
 20
137.592831
 30
0.0
 10
145.757745
 20
137.680066
 30
0.0
 10
145.772138
 20
137.766793
 30
0.0
 10
145.787604
 20
137.852984
 30
0.0
 10
145.804199
 20
137.938638
 30
0.0
 10
145.821922
 20
138.023700
 30
0.0
 10
145.840859
 20
138.108169
 30
0.0
 10
145.861010
 20
138.192017
 30
0.0
 10
145.882515
 20
138.275188
 30
0.0
 10
145.801715
 20
138.318284
 30
0.0
 10
145.721084
 20
138.361718
 30
0.0
 10
145.640679
 20
138.405490
 30
0.0
 10
145.560443
 20
138.449630
 30
0.0
 10
145.480405
 20
138.494080
 30
0.0
 10
145.400536
 20
138.538897
 30
0.0
 10
145.320865
 20
138.584024
 30
0.0
 10
145.241391
 20
138.629518
 30
0.0
 10
145.182407
 20
138.567091
 30
0.0
 10
145.122152
 20
138.505397
 30
0.0
 10
145.060684
 20
138.444437
 30
0.0
 10
144.998087
 20
138.384154
 30
0.0
 10
144.934390
 20
138.324549
 30
0.0
 10
144.869648
 20
138.265565
 30
0.0
 10
144.803862
 20
138.207229
 30
0.0
 10
144.737116
 20
138.149543
 30
0.0
 10
144.669411
 20
138.092421
 30
0.0
 10
144.600775
 20
138.035920
 30
0.0
 10
144.531235
 20
137.979984
 30
0.0
 10
144.460793
 20
137.924640
 30
0.0
 10
144.389503
 20
137.869861
 30
0.0
 10
144.317339
 20
137.815646
 30
0.0
 10
144.244356
 20
137.761995
 30
0.0
 10
144.170555
 20
137.708909
 30
0.0
 10
144.095936
 20
137.656360
 30
0.0
 10
144.020554
 20
137.604374
 30
0.0
 10
143.944382
 20
137.552925
 30
0.0
 10
143.878201
 20
137.593424
 30
0.0
 10
143.812189
 20
137.634149
 30
0.0
 10
143.746291
 20
137.675099
 30
0.0
 10
143.680505
 20
137.716247
 30
0.0
 10
143.614888
 20
137.757649
 30
0.0
 10
143.549412
 20
137.799249
 30
0.0
 10
143.484078
 20
137.841074
 30
0.0
 10
143.418885
 20
137.883125
 30
0.0
 10
143.432177
 20
137.974085
 30
0.0
 10
143.446317
 20
138.064566
 30
0.0
 10
143.461274
 20
138.154567
 30
0.0
 10
143.477107
 20
138.244116
 30
0.0
 10
143.493758
 20
138.333129
 30
0.0
 10
143.511312
 20
138.421662
 30
0.0
 10
143.529713
 20
138.509659
 30
0.0
 10
143.549017
 20
138.597147
 30
0.0
 10
143.569224
 20
138.684072
 30
0.0
 10
143.590363
 20
138.770432
 30
0.0
 10
143.612433
 20
138.856227
 30
0.0
 10
143.635490
 20
138.941402
 30
0.0
 10
143.659507
 20
139.025956
 30
0.0
 10
143.684512
 20
139.109889
 30
0.0
 10
143.710589
 20
139.193116
 30
0.0
 10
143.737739
 20
139.275694
 30
0.0
 10
143.766018
 20
139.357511
 30
0.0
 10
143.795425
 20
139.438565
 30
0.0
 10
143.826103
 20
139.518801
 30
0.0
 10
143.750637
 20
139.570673
 30
0.0
 10
143.675396
 20
139.622856
 30
0.0
 10
143.600382
 20
139.675377
 30
0.0
 10
143.525593
 20
139.728209
 30
0.0
 10
143.451030
 20
139.781352
 30
0.0
 10
143.376692
 20
139.834805
 30
0.0
 10
143.302581
 20
139.888596
 30
0.0
 10
143.228695
 20
139.942698
 30
0.0
 10
143.163078
 20
139.887242
 30
0.0
 10
143.096305
 20
139.832688
 30
0.0
 10
143.028402
 20
139.778981
 30
0.0
 10
142.959455
 20
139.726093
 30
0.0
 10
142.889464
 20
139.673995
 30
0.0
 10
142.818541
 20
139.622658
 30
0.0
 10
142.746631
 20
139.572056
 30
0.0
 10
142.673846
 20
139.522187
 30
0.0
 10
142.600186
 20
139.473024
 30
0.0
 10
142.525651
 20
139.424538
 30
0.0
 10
142.450270
 20
139.376758
 30
0.0
 10
142.374070
 20
139.329655
 30
0.0
 10
142.297079
 20
139.283201
 30
0.0
 10
142.219327
 20
139.237397
 30
0.0
 10
142.140785
 20
139.192269
 30
0.0
 10
142.061509
 20
139.147763
 30
0.0
 10
141.981499
 20
139.103906
 30
0.0
 10
141.900755
 20
139.060669
 30
0.0
 10
141.819305
 20
139.018082
 30
0.0
 10
141.758063
 20
139.065749
 30
0.0
 10
141.697019
 20
139.113586
 30
0.0
 10
141.636115
 20
139.161648
 30
0.0
 10
141.575381
 20
139.209937
 30
0.0
 10
141.514816
 20
139.258394
 30
0.0
 10
141.454392
 20
139.307077
 30
0.0
 10
141.394138
 20
139.355958
 30
0.0
 10
141.334053
 20
139.405037
 30
0.0
 10
141.357477
 20
139.493937
 30
0.0
 10
141.381635
 20
139.582272
 30
0.0
 10
141.406584
 20
139.670043
 30
0.0
 10
141.432351
 20
139.757250
 30
0.0
 10
141.458879
 20
139.843836
 30
0.0
 10
141.486199
 20
139.929857
 30
0.0
 10
141.514364
 20
140.015229
 30
0.0
 10
141.543349
 20
140.100009
 30
0.0
 10
141.573151
 20
140.184111
 30
0.0
 10
141.603829
 20
140.267564
 30
0.0
 10
141.635353
 20
140.350340
 30
0.0
 10
141.667780
 20
140.432410
 30
0.0
 10
141.701139
 20
140.513747
 30
0.0
 10
141.735401
 20
140.594349
 30
0.0
 10
141.770622
 20
140.674162
 30
0.0
 10
141.806831
 20
140.753156
 30
0.0
 10
141.844085
 20
140.831303
 30
0.0
 10
141.882410
 20
140.908547
 30
0.0
 10
141.921865
 20
140.984860
 30
0.0
 10
141.852692
 20
141.044833
 30
0.0
 10
141.783774
 20
141.105115
 30
0.0
 10
141.715109
 20
141.165708
 30
0.0
 10
141.646698
 20
141.226584
 30
0.0
 10
141.578542
 20
141.287741
 30
0.0
 10
141.510667
 20
141.349181
 30
0.0
 10
141.443047
 20
141.410931
 30
0.0
 10
141.375680
 20
141.472964
 30
0.0
 10
141.304278
 20
141.425212
 30
0.0
 10
141.231803
 20
141.378476
 30
0.0
 10
141.158313
 20
141.332699
 30
0.0
 10
141.083863
 20
141.287882
 30
0.0
 10
141.008509
 20
141.243940
 30
0.0
 10
140.932253
 20
141.200845
 30
0.0
 10
140.855150
 20
141.158625
 30
0.0
 10
140.777228
 20
141.117223
 30
0.0
 10
140.698516
 20
141.076611
 30
0.0
 10
140.619014
 20
141.036789
 30
0.0
 10
140.538779
 20
140.997730
 30
0.0
 10
140.457781
 20
140.959460
 30
0.0
 10
140.376106
 20
140.921925
 30
0.0
 10
140.293697
 20
140.885123
 30
0.0
 10
140.210582
 20
140.849055
 30
0.0
 10
140.126819
 20
140.813721
 30
0.0
 10
140.042406
 20
140.779092
 30
0.0
 10
139.957316
 20
140.745169
 30
0.0
 10
139.871633
 20
140.711951
 30
0.0
 10
139.816120
 20
140.766166
 30
0.0
 10
139.760805
 20
140.820579
 30
0.0
 10
139.705659
 20
140.875161
 30
0.0
 10
139.650710
 20
140.929912
 30
0.0
 10
139.595959
 20
140.984860
 30
0.0
 10
139.541377
 20
141.040007
 30
0.0
 10
139.486965
 20
141.095322
 30
0.0
 10
139.432750
 20
141.150835
 30
0.0
 10
139.465967
 20
141.236518
 30
0.0
 10
139.499890
 20
141.321608
 30
0.0
 10
139.534519
 20
141.406021
 30
0.0
 10
139.569853
 20
141.489784
 30
0.0
 10
139.605921
 20
141.572899
 30
0.0
 10
139.642723
 20
141.655307
 30
0.0
 10
139.680259
 20
141.736983
 30
0.0
 10
139.718528
 20
141.817980
 30
0.0
 10
139.757587
 20
141.898216
 30
0.0
 10
139.797409
 20
141.977718
 30
0.0
 10
139.838021
 20
142.056430
 30
0.0
 10
139.879423
 20
142.134351
 30
0.0
 10
139.921643
 20
142.211455
 30
0.0
 10
139.964739
 20
142.287711
 30
0.0
 10
140.008681
 20
142.363064
 30
0.0
 10
140.053497
 20
142.437515
 30
0.0
 10
140.099274
 20
142.511005
 30
0.0
 10
140.146010
 20
142.583480
 30
0.0
 10
140.193762
 20
142.654882
 30
0.0
 10
140.131729
 20
142.722249
 30
0.0
 10
140.069979
 20
142.789869
 30
0.0
 10
140.008539
 20
142.857743
 30
0.0
 10
139.947382
 20
142.925900
 30
0.0
 10
139.886507
 20
142.994311
 30
0.0
 10
139.825913
 20
143.062975
 30
0.0
 10
139.765631
 20
143.131894
 30
0.0
 10
139.705659
 20
143.201067
 30
0.0
 10
139.629346
 20
143.161612
 30
0.0
 10
139.552101
 20
143.123286
 30
0.0
 10
139.473954
 20
143.086033
 30
0.0
 10
139.394960
 20
143.049824
 30
0.0
 10
139.315148
 20
143.014603
 30
0.0
 10
139.234545
 20
142.980341
 30
0.0
 10
139.153209
 20
142.946982
 30
0.0
 10
139.071138
 20
142.914555
 30
0.0
 10
138.988363
 20
142.883031
 30
0.0
 10
138.904909
 20
142.852353
 30
0.0
 10
138.820807
 20
142.822550
 30
0.0
 10
138.736028
 20
142.793566
 30
0.0
 10
138.650655
 20
142.765400
 30
0.0
 10
138.564634
 20
142.738081
 30
0.0
 10
138.478048
 20
142.711552
 30
0.0
 10
138.390842
 20
142.685785
 30
0.0
 10
138.303071
 20
142.660837
 30
0.0
 10
138.214735
 20
142.636679
 30
0.0
 10
138.125835
 20
142.613254
 30
0.0
 10
138.076757
 20
142.673339
 30
0.0
 10
138.027876
 20
142.733594
 30
0.0
 10
137.979192
 20
142.794018
 30
0.0
 10
137.930735
 20
142.854583
 30
0.0
 10
137.882447
 20
142.915317
 30
0.0
 10
137.834384
 20
142.976220
 30
0.0
 10
137.786547
 20
143.037265
 30
0.0
 10
137.738880
 20
143.098507
 30
0.0
 10
137.781467
 20
143.179957
 30
0.0
 10
137.824704
 20
143.260700
 30
0.0
 10
137.868561
 20
143.340710
 30
0.0
 10
137.913068
 20
143.419987
 30
0.0
 10
137.958195
 20
143.498529
 30
0.0
 10
138.004000
 20
143.576281
 30
0.0
 10
138.050453
 20
143.653271
 30
0.0
 10
138.097556
 20
143.729471
 30
0.0
 10
138.145337
 20
143.804853
 30
0.0
 10
138.193822
 20
143.879388
 30
0.0
 10
138.242985
 20
143.953048
 30
0.0
 10
138.292854
 20
144.025833
 30
0.0
 10
138.343457
 20
144.097743
 30
0.0
 10
138.394793
 20
144.168666
 30
0.0
 10
138.446891
 20
144.238657
 30
0.0
 10
138.499779
 20
144.307604
 30
0.0
 10
138.553486
 20
144.375506
 30
0.0
 10
138.608040
 20
144.442280
 30
0.0
 10
138.663497
 20
144.507897
 30
0.0
 10
138.609395
 20
144.581783
 30
0.0
 10
138.555603
 20
144.655894
 30
0.0
 10
138.502150
 20
144.730231
 30
0.0
 10
138.449008
 20
144.804795
 30
0.0
 10
138.396176
 20
144.879583
 30
0.0
 10
138.343654
 20
144.954598
 30
0.0
 10
138.291471
 20
145.029839
 30
0.0
 10
138.239599
 20
145.105305
 30
0.0
 10
138.159363
 20
145.074627
 30
0.0
 10
138.078309
 20
145.045220
 30
0.0
 10
137.996493
 20
145.016941
 30
0.0
 10
137.913914
 20
144.989791
 30
0.0
 10
137.830687
 20
144.963714
 30
0.0
 10
137.746754
 20
144.938709
 30
0.0
 10
137.662200
 20
144.914692
 30
0.0
 10
137.577026
 20
144.891634
 30
0.0
 10
137.491230
 20
144.869565
 30
0.0
 10
137.404870
 20
144.848426
 30
0.0
 10
137.317946
 20
144.828219
 30
0.0
 10
137.230457
 20
144.808915
 30
0.0
 10
137.142460
 20
144.790514
 30
0.0
 10
137.053927
 20
144.772960
 30
0.0
 10
136.964914
 20
144.756309
 30
0.0
 10
136.875365
 20
144.740476
 30
0.0
 10
136.785364
 20
144.725518
 30
0.0
 10
136.694884
 20
144.711379
 30
0.0
 10
136.603923
 20
144.698086
 30
0.0
 10
136.561872
 20
144.763280
 30
0.0
 10
136.520047
 20
144.828614
 30
0.0
 10
136.478447
 20
144.894090
 30
0.0
 10
136.437045
 20
144.959706
 30
0.0
 10
136.395897
 20
145.025492
 30
0.0
 10
136.354947
 20
145.091391
 30
0.0
 10
136.314222
 20
145.157403
 30
0.0
 10
136.273723
 20
145.223584
 30
0.0
 10
136.325173
 20
145.299756
 30
0.0
 10
136.377158
 20
145.375137
 30
0.0
 10
136.429708
 20
145.449757
 30
0.0
 10
136.482794
 20
145.523558
 30
0.0
 10
136.536444
 20
145.596541
 30
0.0
 10
136.590659
 20
145.668705
 30
0.0
 10
136.645438
 20
145.739994
 30
0.0
 10
136.700782
 20
145.810437
 30
0.0
 10
136.756719
 20
145.879977
 30
0.0
 10
136.813219
 20
145.948613
 30
0.0
 10
136.870341
 20
146.016318
 30
0.0
 10
136.928027
 20
146.083064
 30
0.0
 10
136.986363
 20
146.148850
 30
0.0
 10
137.045347
 20
146.213591
 30
0.0
 10
137.104953
 20
146.277289
 30
0.0
 10
137.165235
 20
146.339886
 30
0.0
 10
137.226195
 20
146.401354
 30
0.0
 10
137.287889
 20
146.461608
 30
0.0
 10
137.350317
 20
146.520593
 30
0.0
 10
137.304822
 20
146.600067
 30
0.0
 10
137.259695
 20
146.679738
 30
0.0
 10
137.214878
 20
146.759607
 30
0.0
 10
137.170428
 20
146.839645
 30
0.0
 10
137.126289
 20
146.919881
 30
0.0
 10
137.082516
 20
147.000286
 30
0.0
 10
137.039082
 20
147.080917
 30
0.0
 10
136.995987
 20
147.161717
 30
0.0
 10
136.912816
 20
147.140212
 30
0.0
 10
136.828967
 20
147.120061
 30
0.0
 10
136.744498
 20
147.101124
 30
0.0
 10
136.659437
 20
147.083400
 30
0.0
 10
136.573782
 20
147.066806
 30
0.0
 10
136.487591
 20
147.051340
 30
0.0
 10
136.400865
 20
147.036947
 30
0.0
 10
136.313630
 20
147.023569
 30
0.0
 10
136.225915
 20
147.011236
 30
0.0
 10
136.137749
 20
146.999919
 30
0.0
 10
136.049103
 20
146.989561
 30
0.0
 10
135.960005
 20
146.980163
 30
0.0
 10
135.870484
 20
146.971725
 30
0.0
 10
135.780568
 20
146.964218
 30
0.0
 10
135.690229
 20
146.957614
 30
0.0
 10
135.599495
 20
146.951941
 30
0.0
 10
135.508365
 20
146.947143
 30
0.0
 10
135.416869
 20
146.943221
 30
0.0
 10
135.325005
 20
146.940173
 30
0.0
 10
135.290518
 20
147.009684
 30
0.0
 10
135.256256
 20
147.079280
 30
0.0
 10
135.222248
 20
147.149017
 30
0.0
 10
135.188466
 20
147.218867
 30
0.0
 10
135.154910
 20
147.288830
 30
0.0
 10
135.121608
 20
147.358877
 30
0.0
 10
135.088531
 20
147.429066
 30
0.0
 10
135.055709
 20
147.499368
 30
0.0
 10
135.115371
 20
147.569274
 30
0.0
 10
135.175484
 20
147.638390
 30
0.0
 10
135.236049
 20
147.706632
 30
0.0
 10
135.297065
 20
147.774026
 30
0.0
 10
135.358533
 20
147.840546
 30
0.0
 10
135.420481
 20
147.906191
 30
0.0
 10
135.482909
 20
147.970905
 30
0.0
 10
135.545788
 20
148.034687
 30
0.0
 10
135.609147
 20
148.097538
 30
0.0
 10
135.672985
 20
148.159429
 30
0.0
 10
135.737332
 20
148.220304
 30
0.0
 10
135.802158
 20
148.280192
 30
0.0
 10
135.867465
 20
148.339007
 30
0.0
 10
135.933307
 20
148.396750
 30
0.0
 10
135.999686
 20
148.453363
 30
0.0
 10
136.066601
 20
148.508820
 30
0.0
 10
136.134052
 20
148.563063
 30
0.0
 10
136.202095
 20
148.616036
 30
0.0
 10
136.270760
 20
148.667683
 30
0.0
 10
136.234438
 20
148.751729
 30
0.0
 10
136.198511
 20
148.835972
 30
0.0
 10
136.162923
 20
148.920328
 30
0.0
 10
136.127702
 20
149.004854
 30
0.0
 10
136.092847
 20
149.089521
 30
0.0
 10
136.058360
 20
149.174328
 30
0.0
 10
136.024211
 20
149.259305
 30
0.0
 10
135.990429
 20
149.344424
 30
0.0
 10
135.905395
 20
149.332373
 30
0.0
 10
135.819797
 20
149.321733
 30
0.0
 10
135.733748
 20
149.312391
 30
0.0
 10
135.647218
 20
149.304292
 30
0.0
 10
135.560266
 20
149.297405
 30
0.0
 10
135.472861
 20
149.291676
 30
0.0
 10
135.385090
 20
149.287076
 30
0.0
 10
135.296896
 20
149.283577
 30
0.0
 10
135.208363
 20
149.281037
 30
0.0
 10
135.119463
 20
149.279625
 30
0.0
 10
135.030224
 20
149.279343
 30
0.0
 10
134.940647
 20
149.279908
 30
0.0
 10
134.850759
 20
149.281601
 30
0.0
 10
134.760533
 20
149.284141
 30
0.0
 10
134.670024
 20
149.287697
 30
0.0
 10
134.579233
 20
149.292213
 30
0.0
 10
134.488132
 20
149.297631
 30
0.0
 10
134.396776
 20
149.304009
 30
0.0
 10
134.305139
 20
149.311263
 30
0.0
 10
134.278666
 20
149.384189
 30
0.0
 10
134.252420
 20
149.457200
 30
0.0
 10
134.226427
 20
149.530295
 30
0.0
 10
134.200688
 20
149.603475
 30
0.0
 10
134.175175
 20
149.676740
 30
0.0
 10
134.149917
 20
149.750118
 30
0.0
 10
134.124912
 20
149.823552
 30
0.0
 10
134.100161
 20
149.897071
 30
0.0
 10
134.167273
 20
149.959894
 30
0.0
 10
134.234724
 20
150.021813
 30
0.0
 10
134.302571
 20
150.082858
 30
0.0
 10
134.370755
 20
150.143000
 30
0.0
 10
134.439279
 20
150.202210
 30
0.0
 10
134.508198
 20
150.260489
 30
0.0
 10
134.577455
 20
150.317836
 30
0.0
 10
134.647107
 20
150.374168
 30
0.0
 10
134.717099
 20
150.429540
 30
0.0
 10
134.787457
 20
150.483868
 30
0.0
 10
134.858210
 20
150.537179
 30
0.0
 10
134.929330
 20
150.589419
 30
0.0
 10
135.000845
 20
150.640557
 30
0.0
 10
135.072727
 20
150.690567
 30
0.0
 10
135.145004
 20
150.739392
 30
0.0
 10
135.217704
 20
150.787031
 30
0.0
 10
135.290828
 20
150.833372
 30
0.0
 10
135.364375
 20
150.878386
 30
0.0
 10
135.438374
 20
150.922018
 30
0.0
 10
135.411704
 20
151.009619
 30
0.0
 10
135.385429
 20
151.097334
 30
0.0
 10
135.359521
 20
151.185133
 30
0.0
 10
135.333980
 20
151.273074
 30
0.0
 10
135.308806
 20
151.361127
 30
0.0
 10
135.284027
 20
151.449265
 30
0.0
 10
135.259614
 20
151.537516
 30
0.0
 10
135.235597
 20
151.625880
 30
0.0
 10
135.149717
 20
151.623340
 30
0.0
 10
135.063498
 20
151.622211
 30
0.0
 10
134.976941
 20
151.622493
 30
0.0
 10
134.890044
 20
151.624187
 30
0.0
 10
134.802838
 20
151.627065
 30
0.0
 10
134.715377
 20
151.631157
 30
0.0
 10
134.627634
 20
151.636407
 30
0.0
 10
134.539609
 20
151.642813
 30
0.0
 10
134.451358
 20
151.650292
 30
0.0
 10
134.362853
 20
151.658872
 30
0.0
 10
134.274123
 20
151.668524
 30
0.0
 10
134.185194
 20
151.679192
 30
0.0
 10
134.096040
 20
151.690876
 30
0.0
 10
134.006689
 20
151.703547
 30
0.0
 10
133.917140
 20
151.717235
 30
0.0
 10
133.827421
 20
151.731854
 30
0.0
 10
133.737505
 20
151.747461
 30
0.0
 10
133.647448
 20
151.763999
 30
0.0
 10
133.557193
 20
151.781497
 30
0.0
 10
133.539047
 20
151.856907
 30
0.0
 10
133.521154
 20
151.932401
 30
0.0
 10
133.503487
 20
152.007952
 30
0.0
 10
133.486102
 20
152.083560
 30
0.0
 10
133.468971
 20
152.159223
 30
0.0
 10
133.452094
 20
152.234944
 30
0.0
 10
133.435471
 20
152.310720
 30
0.0
 10
133.419102
 20
152.386582
 30
0.0
 10
133.492819
 20
152.441474
 30
0.0
 10
133.566789
 20
152.495463
 30
0.0
 10
133.641013
 20
152.548521
 30
0.0
 10
133.715520
 20
152.600647
 30
0.0
 10
133.790253
 20
152.651814
 30
0.0
 10
133.865267
 20
152.702021
 30
0.0
 10
133.940508
 20
152.751241
 30
0.0
 10
134.016002
 20
152.799416
 30
0.0
 10
134.091779
 20
152.846604
 30
0.0
 10
134.167781
 20
152.892719
 30
0.0
 10
134.244038
 20
152.937762
 30
0.0
 10
134.320576
 20
152.981732
 30
0.0
 10
134.397341
 20
153.024517
 30
0.0
 10
134.474387
 20
153.066173
 30
0.0
 10
134.551688
 20
153.106615
 30
0.0
 10
134.629243
 20
153.145788
 30
0.0
 10
134.707108
 20
153.183662
 30
0.0
 10
134.785227
 20
153.220153
 30
0.0
 10
134.863657
 20
153.255233
 30
0.0
 10
134.846949
 20
153.345262
 30
0.0
 10
134.830665
 20
153.435376
 30
0.0
 10
134.814747
 20
153.525546
 30
0.0
 10
134.799225
 20
153.615772
 30
0.0
 10
134.784070
 20
153.706083
 30
0.0
 10
134.769310
 20
153.796451
 30
0.0
 10
134.754945
 20
153.886875
 30
0.0
 10
134.740946
 20
153.977384
 30
0.0
 10
134.655348
 20
153.984580
 30
0.0
 10
134.569553
 20
153.993216
 30
0.0
 10
134.483560
 20
154.003263
 30
0.0
 10
134.397397
 20
154.014609
 30
0.0
 10
134.311094
 20
154.027252
 30
0.0
 10
134.224621
 20
154.041109
 30
0.0
 10
134.138007
 20
154.056152
 30
0.0
 10
134.051280
 20
154.072380
 30
0.0
 10
133.964412
 20
154.089708
 30
0.0
 10
133.877431
 20
154.108137
 30
0.0
 10
133.790337
 20
154.127639
 30
0.0
 10
133.703159
 20
154.148185
 30
0.0
 10
133.615867
 20
154.169803
 30
0.0
 10
133.528491
 20
154.192409
 30
0.0
 10
133.441059
 20
154.216003
 30
0.0
 10
133.353514
 20
154.240612
 30
0.0
 10
133.265940
 20
154.266182
 30
0.0
 10
133.178282
 20
154.292711
 30
0.0
 10
133.090567
 20
154.320171
 30
0.0
 10
133.080972
 20
154.397161
 30
0.0
 10
133.071630
 20
154.474179
 30
0.0
 10
133.062543
 20
154.551226
 30
0.0
 10
133.053737
 20
154.628301
 30
0.0
 10
133.045186
 20
154.705432
 30
0.0
 10
133.036889
 20
154.782564
 30
0.0
 10
133.028845
 20
154.859723
 30
0.0
 10
133.021056
 20
154.936911
 30
0.0
 10
133.100473
 20
154.983224
 30
0.0
 10
133.180032
 20
155.028577
 30
0.0
 10
133.259731
 20
155.072999
 30
0.0
 10
133.339600
 20
155.116461
 30
0.0
 10
133.419610
 20
155.158935
 30
0.0
 10
133.499733
 20
155.200422
 30
0.0
 10
133.580025
 20
155.240893
 30
0.0
 10
133.660459
 20
155.280347
 30
0.0
 10
133.741033
 20
155.318729
 30
0.0
 10
133.821720
 20
155.356067
 30
0.0
 10
133.902549
 20
155.392277
 30
0.0
 10
133.983518
 20
155.427385
 30
0.0
 10
134.064601
 20
155.461336
 30
0.0
 10
134.145824
 20
155.494102
 30
0.0
 10
134.227161
 20
155.525627
 30
0.0
 10
134.308638
 20
155.555853
 30
0.0
 10
134.390229
 20
155.584780
 30
0.0
 10
134.471960
 20
155.612297
 30
0.0
 10
134.553805
 20
155.638374
 30
0.0
 10
134.547314
 20
155.729701
 30
0.0
 10
134.541189
 20
155.821057
 30
0.0
 10
134.535460
 20
155.912469
 30
0.0
 10
134.530126
 20
156.003880
 30
0.0
 10
134.525216
 20
156.095292
 30
0.0
 10
134.520644
 20
156.186760
 30
0.0
 10
134.516495
 20
156.278229
 30
0.0
 10
134.512741
 20
156.369725
 30
0.0
 10
134.428470
 20
156.386461
 30
0.0
 10
134.344170
 20
156.404664
 30
0.0
 10
134.259870
 20
156.424250
 30
0.0
 10
134.175514
 20
156.445191
 30
0.0
 10
134.091158
 20
156.467402
 30
0.0
 10
134.006773
 20
156.490855
 30
0.0
 10
133.922389
 20
156.515521
 30
0.0
 10
133.838033
 20
156.541344
 30
0.0
 10
133.753648
 20
156.568268
 30
0.0
 10
133.669264
 20
156.596321
 30
0.0
 10
133.584908
 20
156.625475
 30
0.0
 10
133.500580
 20
156.655673
 30
0.0
 10
133.416280
 20
156.686886
 30
0.0
 10
133.331980
 20
156.719144
 30
0.0
 10
133.247737
 20
156.752390
 30
0.0
 10
133.163493
 20
156.786624
 30
0.0
 10
133.079335
 20
156.821845
 30
0.0
 10
132.995176
 20
156.858026
 30
0.0
 10
132.911102
 20
156.895138
 30
0.0
 10
132.910255
 20
156.972721
 30
0.0
 10
132.909691
 20
157.050304
 30
0.0
 10
132.909409
 20
157.127887
 30
0.0
 10
132.909296
 20
157.205470
 30
0.0
 10
132.909409
 20
157.283053
 30
0.0
 10
132.909691
 20
157.360635
 30
0.0
 10
132.910255
 20
157.438218
 30
0.0
 10
132.911102
 20
157.515801
 30
0.0
 10
132.995176
 20
157.552913
 30
0.0
 10
133.079335
 20
157.589094
 30
0.0
 10
133.163493
 20
157.624316
 30
0.0
 10
133.247737
 20
157.658549
 30
0.0
 10
133.331980
 20
157.691795
 30
0.0
 10
133.416280
 20
157.724053
 30
0.0
 10
133.500580
 20
157.755267
 30
0.0
 10
133.584908
 20
157.785465
 30
0.0
 10
133.669264
 20
157.814618
 30
0.0
 10
133.753648
 20
157.842671
 30
0.0
 10
133.838033
 20
157.869595
 30
0.0
 10
133.922389
 20
157.895418
 30
0.0
 10
134.006773
 20
157.920085
 30
0.0
 10
134.091158
 20
157.943537
 30
0.0
 10
134.175514
 20
157.965748
 30
0.0
 10
134.259870
 20
157.986689
 30
0.0
 10
134.344170
 20
158.006275
 30
0.0
 10
134.428470
 20
158.024479
 30
0.0
 10
134.512741
 20
158.041214
 30
0.0
 10
134.516495
 20
158.132711
 30
0.0
 10
134.520644
 20
158.224179
 30
0.0
 10
134.525216
 20
158.315647
 30
0.0
 10
134.530126
 20
158.407059
 30
0.0
 10
134.535460
 20
158.498471
 30
0.0
 10
134.541189
 20
158.589883
 30
0.0
 10
134.547314
 20
158.681238
 30
0.0
 10
134.553805
 20
158.772565
 30
0.0
 10
134.471960
 20
158.798642
 30
0.0
 10
134.390229
 20
158.826159
 30
0.0
 10
134.308638
 20
158.855087
 30
0.0
 10
134.227161
 20
158.885313
 30
0.0
 10
134.145824
 20
158.916837
 30
0.0
 10
134.064601
 20
158.949603
 30
0.0
 10
133.983518
 20
158.983554
 30
0.0
 10
133.902549
 20
159.018663
 30
0.0
 10
133.821720
 20
159.054872
 30
0.0
 10
133.741033
 20
159.092210
 30
0.0
 10
133.660459
 20
159.130592
 30
0.0
 10
133.580025
 20
159.170047
 30
0.0
 10
133.499733
 20
159.210517
 30
0.0
 10
133.419610
 20
159.252004
 30
0.0
 10
133.339600
 20
159.294479
 30
0.0
 10
133.259731
 20
159.337941
 30
0.0
 10
133.180032
 20
159.382363
 30
0.0
 10
133.100473
 20
159.427716
 30
0.0
 10
133.021056
 20
159.474028
 30
0.0
 10
133.028845
 20
159.551216
 30
0.0
 10
133.036889
 20
159.628376
 30
0.0
 10
133.045186
 20
159.705507
 30
0.0
 10
133.053737
 20
159.782638
 30
0.0
 10
133.062543
 20
159.859713
 30
0.0
 10
133.071630
 20
159.936760
 30
0.0
 10
133.080972
 20
160.013778
 30
0.0
 10
133.090567
 20
160.090769
 30
0.0
 10
133.178282
 20
160.118229
 30
0.0
 10
133.265940
 20
160.144758
 30
0.0
 10
133.353514
 20
160.170327
 30
0.0
 10
133.441059
 20
160.194937
 30
0.0
 10
133.528491
 20
160.218531
 30
0.0
 10
133.615867
 20
160.241137
 30
0.0
 10
133.703159
 20
160.262755
 30
0.0
 10
133.790337
 20
160.283301
 30
0.0
 10
133.877431
 20
160.302802
 30
0.0
 10
133.964412
 20
160.321231
 30
0.0
 10
134.051280
 20
160.338560
 30
0.0
 10
134.138007
 20
160.354787
 30
0.0
 10
134.224621
 20
160.369830
 30
0.0
 10
134.311094
 20
160.383687
 30
0.0
 10
134.397397
 20
160.396331
 30
0.0
 10
134.483560
 20
160.407676
 30
0.0
 10
134.569553
 20
160.417723
 30
0.0
 10
134.655348
 20
160.426359
 30
0.0
 10
134.740946
 20
160.433556
 30
0.0
 10
134.754945
 20
160.524064
 30
0.0
 10
134.769310
 20
160.614488
 30
0.0
 10
134.784070
 20
160.704856
 30
0.0
 10
134.799225
 20
160.795167
 30
0.0
 10
134.814747
 20
160.885393
 30
0.0
 10
134.830665
 20
160.975563
 30
0.0
 10
134.846949
 20
161.065677
 30
0.0
 10
134.863657
 20
161.155706
 30
0.0
 10
134.785227
 20
161.190786
 30
0.0
 10
134.707108
 20
161.227277
 30
0.0
 10
134.629243
 20
161.265152
 30
0.0
 10
134.551688
 20
161.304324
 30
0.0
 10
134.474387
 20
161.344767
 30
0.0
 10
134.397341
 20
161.386423
 30
0.0
 10
134.320576
 20
161.429207
 30
0.0
 10
134.244038
 20
161.473178
 30
0.0
 10
134.167781
 20
161.518220
 30
0.0
 10
134.091779
 20
161.564335
 30
0.0
 10
134.016002
 20
161.611523
 30
0.0
 10
133.940508
 20
161.659698
 30
0.0
 10
133.865267
 20
161.708918
 30
0.0
 10
133.790253
 20
161.759125
 30
0.0
 10
133.715520
 20
161.810292
 30
0.0
 10
133.641013
 20
161.862419
 30
0.0
 10
133.566789
 20
161.915476
 30
0.0
 10
133.492819
 20
161.969465
 30
0.0
 10
133.419102
 20
162.024358
 30
0.0
 10
133.435471
 20
162.100219
 30
0.0
 10
133.452094
 20
162.175996
 30
0.0
 10
133.468971
 20
162.251716
 30
0.0
 10
133.486102
 20
162.327380
 30
0.0
 10
133.503487
 20
162.402987
 30
0.0
 10
133.521154
 20
162.478538
 30
0.0
 10
133.539047
 20
162.554032
 30
0.0
 10
133.557193
 20
162.629442
 30
0.0
 10
133.647448
 20
162.646940
 30
0.0
 10
133.737505
 20
162.663478
 30
0.0
 10
133.827421
 20
162.679085
 30
0.0
 10
133.917140
 20
162.693704
 30
0.0
 10
134.006689
 20
162.707392
 30
0.0
 10
134.096040
 20
162.720064
 30
0.0
 10
134.185194
 20
162.731748
 30
0.0
 10
134.274123
 20
162.742416
 30
0.0
 10
134.362853
 20
162.752068
 30
0.0
 10
134.451358
 20
162.760647
 30
0.0
 10
134.539609
 20
162.768126
 30
0.0
 10
134.627634
 20
162.774533
 30
0.0
 10
134.715377
 20
162.779782
 30
0.0
 10
134.802838
 20
162.783874
 30
0.0
 10
134.890044
 20
162.786753
 30
0.0
 10
134.976941
 20
162.788446
 30
0.0
 10
135.063498
 20
162.788728
 30
0.0
 10
135.149717
 20
162.787599
 30
0.0
 10
135.235597
 20
162.785059
 30
0.0
 10
135.259614
 20
162.873423
 30
0.0
 10
135.284027
 20
162.961674
 30
0.0
 10
135.308806
 20
163.049812
 30
0.0
 10
135.333980
 20
163.137865
 30
0.0
 10
135.359521
 20
163.225806
 30
0.0
 10
135.385429
 20
163.313605
 30
0.0
 10
135.411704
 20
163.401320
 30
0.0
 10
135.438374
 20
163.488922
 30
0.0
 10
135.364375
 20
163.532553
 30
0.0
 10
135.290828
 20
163.577568
 30
0.0
 10
135.217704
 20
163.623909
 30
0.0
 10
135.145004
 20
163.671548
 30
0.0
 10
135.072727
 20
163.720372
 30
0.0
 10
135.000845
 20
163.770382
 30
0.0
 10
134.929330
 20
163.821521
 30
0.0
 10
134.858210
 20
163.873760
 30
0.0
 10
134.787457
 20
163.927072
 30
0.0
 10
134.717099
 20
163.981399
 30
0.0
 10
134.647107
 20
164.036771
 30
0.0
 10
134.577455
 20
164.093103
 30
0.0
 10
134.508198
 20
164.150451
 30
0.0
 10
134.439279
 20
164.208729
 30
0.0
 10
134.370755
 20
164.267940
 30
0.0
 10
134.302571
 20
164.328081
 30
0.0
 10
134.234724
 20
164.389126
 30
0.0
 10
134.167273
 20
164.451045
 30
0.0
 10
134.100161
 20
164.513868
 30
0.0
 10
134.124912
 20
164.587387
 30
0.0
 10
134.149917
 20
164.660821
 30
0.0
 10
134.175175
 20
164.734199
 30
0.0
 10
134.200688
 20
164.807464
 30
0.0
 10
134.226427
 20
164.880644
 30
0.0
 10
134.252420
 20
164.953740
 30
0.0
 10
134.278666
 20
165.026751
 30
0.0
 10
134.305139
 20
165.099677
 30
0.0
 10
134.396776
 20
165.106930
 30
0.0
 10
134.488132
 20
165.113308
 30
0.0
 10
134.579233
 20
165.118727
 30
0.0
 10
134.670024
 20
165.123242
 30
0.0
 10
134.760533
 20
165.126798
 30
0.0
 10
134.850759
 20
165.129338
 30
0.0
 10
134.940647
 20
165.131032
 30
0.0
 10
135.030224
 20
165.131596
 30
0.0
 10
135.119463
 20
165.131314
 30
0.0
 10
135.208363
 20
165.129903
 30
0.0
 10
135.296896
 20
165.127363
 30
0.0
 10
135.385090
 20
165.123863
 30
0.0
 10
135.472861
 20
165.119263
 30
0.0
 10
135.560266
 20
165.113534
 30
0.0
 10
135.647218
 20
165.106648
 30
0.0
 10
135.733748
 20
165.098548
 30
0.0
 10
135.819797
 20
165.089206
 30
0.0
 10
135.905395
 20
165.078567
 30
0.0
 10
135.990429
 20
165.066516
 30
0.0
 10
136.024211
 20
165.151634
 30
0.0
 10
136.058360
 20
165.236611
 30
0.0
 10
136.092847
 20
165.321419
 30
0.0
 10
136.127702
 20
165.406085
 30
0.0
 10
136.162923
 20
165.490611
 30
0.0
 10
136.198511
 20
165.574967
 30
0.0
 10
136.234438
 20
165.659211
 30
0.0
 10
136.270760
 20
165.743256
 30
0.0
 10
136.202095
 20
165.794903
 30
0.0
 10
136.134052
 20
165.847876
 30
0.0
 10
136.066601
 20
165.902119
 30
0.0
 10
135.999686
 20
165.957576
 30
0.0
 10
135.933307
 20
166.014190
 30
0.0
 10
135.867465
 20
166.071932
 30
0.0
 10
135.802158
 20
166.130747
 30
0.0
 10
135.737332
 20
166.190635
 30
0.0
 10
135.672985
 20
166.251510
 30
0.0
 10
135.609147
 20
166.313402
 30
0.0
 10
135.545788
 20
166.376253
 30
0.0
 10
135.482909
 20
166.440035
 30
0.0
 10
135.420481
 20
166.504748
 30
0.0
 10
135.358533
 20
166.570393
 30
0.0
 10
135.297065
 20
166.636913
 30
0.0
 10
135.236049
 20
166.704308
 30
0.0
 10
135.175484
 20
166.772549
 30
0.0
 10
135.115371
 20
166.841665
 30
0.0
 10
135.055709
 20
166.911572
 30
0.0
 10
135.088531
 20
166.981873
 30
0.0
 10
135.121608
 20
167.052062
 30
0.0
 10
135.154910
 20
167.122109
 30
0.0
 10
135.188466
 20
167.192072
 30
0.0
 10
135.222248
 20
167.261922
 30
0.0
 10
135.256256
 20
167.331659
 30
0.0
 10
135.290518
 20
167.401255
 30
0.0
 10
135.325005
 20
167.470767
 30
0.0
 10
135.416869
 20
167.467719
 30
0.0
 10
135.508365
 20
167.463796
 30
0.0
 10
135.599495
 20
167.458998
 30
0.0
 10
135.690229
 20
167.453325
 30
0.0
 10
135.780568
 20
167.446721
 30
0.0
 10
135.870484
 20
167.439214
 30
0.0
 10
135.960005
 20
167.430776
 30
0.0
 10
136.049103
 20
167.421378
 30
0.0
 10
136.137749
 20
167.411020
 30
0.0
 10
136.225915
 20
167.399703
 30
0.0
 10
136.313630
 20
167.387370
 30
0.0
 10
136.400865
 20
167.373993
 30
0.0
 10
136.487591
 20
167.359599
 30
0.0
 10
136.573782
 20
167.344134
 30
0.0
 10
136.659437
 20
167.327539
 30
0.0
 10
136.744498
 20
167.309815
 30
0.0
 10
136.828967
 20
167.290878
 30
0.0
 10
136.912816
 20
167.270728
 30
0.0
 10
136.995987
 20
167.249222
 30
0.0
 10
137.039082
 20
167.330023
 30
0.0
 10
137.082516
 20
167.410653
 30
0.0
 10
137.126289
 20
167.491059
 30
0.0
 10
137.170428
 20
167.571294
 30
0.0
 10
137.214878
 20
167.651333
 30
0.0
 10
137.259695
 20
167.731201
 30
0.0
 10
137.304822
 20
167.810873
 30
0.0
 10
137.350317
 20
167.890347
 30
0.0
 10
137.287889
 20
167.949331
 30
0.0
 10
137.226195
 20
168.009585
 30
0.0
 10
137.165235
 20
168.071053
 30
0.0
 10
137.104953
 20
168.133650
 30
0.0
 10
137.045347
 20
168.197348
 30
0.0
 10
136.986363
 20
168.262090
 30
0.0
 10
136.928027
 20
168.327876
 30
0.0
 10
136.870341
 20
168.394621
 30
0.0
 10
136.813219
 20
168.462326
 30
0.0
 10
136.756719
 20
168.530963
 30
0.0
 10
136.700782
 20
168.600502
 30
0.0
 10
136.645438
 20
168.670945
 30
0.0
 10
136.590659
 20
168.742234
 30
0.0
 10
136.536444
 20
168.814399
 30
0.0
 10
136.482794
 20
168.887381
 30
0.0
 10
136.429708
 20
168.961182
 30
0.0
 10
136.377158
 20
169.035802
 30
0.0
 10
136.325173
 20
169.111183
 30
0.0
 10
136.273723
 20
169.187355
 30
0.0
 10
136.314222
 20
169.253536
 30
0.0
 10
136.354947
 20
169.319548
 30
0.0
 10
136.395897
 20
169.385447
 30
0.0
 10
136.437045
 20
169.451233
 30
0.0
 10
136.478447
 20
169.516850
 30
0.0
 10
136.520047
 20
169.582325
 30
0.0
 10
136.561872
 20
169.647660
 30
0.0
 10
136.603923
 20
169.712853
 30
0.0
 10
136.694884
 20
169.699560
 30
0.0
 10
136.785364
 20
169.685421
 30
0.0
 10
136.875365
 20
169.670463
 30
0.0
 10
136.964914
 20
169.654631
 30
0.0
 10
137.053927
 20
169.637979
 30
0.0
 10
137.142460
 20
169.620425
 30
0.0
 10
137.230457
 20
169.602024
 30
0.0
 10
137.317946
 20
169.582720
 30
0.0
 10
137.404870
 20
169.562513
 30
0.0
 10
137.491230
 20
169.541375
 30
0.0
 10
137.577026
 20
169.519305
 30
0.0
 10
137.662200
 20
169.496247
 30
0.0
 10
137.746754
 20
169.472230
 30
0.0
 10
137.830687
 20
169.447225
 30
0.0
 10
137.913914
 20
169.421148
 30
0.0
 10
137.996493
 20
169.393998
 30
0.0
 10
138.078309
 20
169.365720
 30
0.0
 10
138.159363
 20
169.336312
 30
0.0
 10
138.239599
 20
169.305635
 30
0.0
 10
138.291471
 20
169.381101
 30
0.0
 10
138.343654
 20
169.456341
 30
0.0
 10
138.396176
 20
169.531356
 30
0.0
 10
138.449008
 20
169.606145
 30
0.0
 10
138.502150
 20
169.680708
 30
0.0
 10
138.555603
 20
169.755045
 30
0.0
 10
138.609395
 20
169.829157
 30
0.0
 10
138.663497
 20
169.903043
 30
0.0
 10
138.608040
 20
169.968659
 30
0.0
 10
138.553486
 20
170.035433
 30
0.0
 10
138.499779
 20
170.103336
 30
0.0
 10
138.446891
 20
170.172283
 30
0.0
 10
138.394793
 20
170.242274
 30
0.0
 10
138.343457
 20
170.313196
 30
0.0
 10
138.292854
 20
170.385106
 30
0.0
 10
138.242985
 20
170.457891
 30
0.0
 10
138.193822
 20
170.531551
 30
0.0
 10
138.145337
 20
170.606086
 30
0.0
 10
138.097556
 20
170.681468
 30
0.0
 10
138.050453
 20
170.757668
 30
0.0
 10
138.004000
 20
170.834658
 30
0.0
 10
137.958195
 20
170.912410
 30
0.0
 10
137.913068
 20
170.990953
 30
0.0
 10
137.868561
 20
171.070229
 30
0.0
 10
137.824704
 20
171.150239
 30
0.0
 10
137.781467
 20
171.230983
 30
0.0
 10
137.738880
 20
171.312432
 30
0.0
 10
137.786547
 20
171.373674
 30
0.0
 10
137.834384
 20
171.434719
 30
0.0
 10
137.882447
 20
171.495623
 30
0.0
 10
137.930735
 20
171.556357
 30
0.0
 10
137.979192
 20
171.616922
 30
0.0
 10
138.027876
 20
171.677345
 30
0.0
 10
138.076757
 20
171.737600
 30
0.0
 10
138.125835
 20
171.797685
 30
0.0
 10
138.214735
 20
171.774261
 30
0.0
 10
138.303071
 20
171.750102
 30
0.0
 10
138.390842
 20
171.725154
 30
0.0
 10
138.478048
 20
171.699387
 30
0.0
 10
138.564634
 20
171.672858
 30
0.0
 10
138.650655
 20
171.645539
 30
0.0
 10
138.736028
 20
171.617373
 30
0.0
 10
138.820807
 20
171.588389
 30
0.0
 10
138.904909
 20
171.558586
 30
0.0
 10
138.988363
 20
171.527909
 30
0.0
 10
139.071138
 20
171.496385
 30
0.0
 10
139.153209
 20
171.463957
 30
0.0
 10
139.234545
 20
171.430599
 30
0.0
 10
139.315148
 20
171.396337
 30
0.0
 10
139.394960
 20
171.361115
 30
0.0
 10
139.473954
 20
171.324906
 30
0.0
 10
139.552101
 20
171.287653
 30
0.0
 10
139.629346
 20
171.249327
 30
0.0
 10
139.705659
 20
171.209873
 30
0.0
 10
139.765631
 20
171.279045
 30
0.0
 10
139.825913
 20
171.347964
 30
0.0
 10
139.886507
 20
171.416629
 30
0.0
 10
139.947382
 20
171.485039
 30
0.0
 10
140.008539
 20
171.553196
 30
0.0
 10
140.069979
 20
171.621070
 30
0.0
 10
140.131729
 20
171.688691
 30
0.0
 10
140.193762
 20
171.756057
 30
0.0
 10
140.146010
 20
171.827459
 30
0.0
 10
140.099274
 20
171.899934
 30
0.0
 10
140.053497
 20
171.973425
 30
0.0
 10
140.008681
 20
172.047875
 30
0.0
 10
139.964739
 20
172.123228
 30
0.0
 10
139.921643
 20
172.199485
 30
0.0
 10
139.879423
 20
172.276588
 30
0.0
 10
139.838021
 20
172.354509
 30
0.0
 10
139.797409
 20
172.433221
 30
0.0
 10
139.757587
 20
172.512723
 30
0.0
 10
139.718528
 20
172.592959
 30
0.0
 10
139.680259
 20
172.673957
 30
0.0
 10
139.642723
 20
172.755632
 30
0.0
 10
139.605921
 20
172.838041
 30
0.0
 10
139.569853
 20
172.921155
 30
0.0
 10
139.534519
 20
173.004919
 30
0.0
 10
139.499890
 20
173.089331
 30
0.0
 10
139.465967
 20
173.174421
 30
0.0
 10
139.432750
 20
173.260104
 30
0.0
 10
139.486965
 20
173.315617
 30
0.0
 10
139.541377
 20
173.370933
 30
0.0
 10
139.595959
 20
173.426079
 30
0.0
 10
139.650710
 20
173.481028
 30
0.0
 10
139.705659
 20
173.535779
 30
0.0
 10
139.760805
 20
173.590361
 30
0.0
 10
139.816120
 20
173.644773
 30
0.0
 10
139.871633
 20
173.698988
 30
0.0
 10
139.957316
 20
173.665770
 30
0.0
 10
140.042406
 20
173.631847
 30
0.0
 10
140.126819
 20
173.597219
 30
0.0
 10
140.210582
 20
173.561884
 30
0.0
 10
140.293697
 20
173.525816
 30
0.0
 10
140.376106
 20
173.489015
 30
0.0
 10
140.457781
 20
173.451479
 30
0.0
 10
140.538779
 20
173.413210
 30
0.0
 10
140.619014
 20
173.374150
 30
0.0
 10
140.698516
 20
173.334329
 30
0.0
 10
140.777228
 20
173.293717
 30
0.0
 10
140.855150
 20
173.252315
 30
0.0
 10
140.932253
 20
173.210094
 30
0.0
 10
141.008509
 20
173.166999
 30
0.0
 10
141.083863
 20
173.123057
 30
0.0
 10
141.158313
 20
173.078240
 30
0.0
 10
141.231803
 20
173.032464
 30
0.0
 10
141.304278
 20
172.985728
 30
0.0
 10
141.375680
 20
172.937976
 30
0.0
 10
141.443047
 20
173.000008
 30
0.0
 10
141.510667
 20
173.061758
 30
0.0
 10
141.578542
 20
173.123198
 30
0.0
 10
141.646698
 20
173.184356
 30
0.0
 10
141.715109
 20
173.245231
 30
0.0
 10
141.783774
 20
173.305824
 30
0.0
 10
141.852692
 20
173.366107
 30
0.0
 10
141.921865
 20
173.426079
 30
0.0
 10
141.882410
 20
173.502392
 30
0.0
 10
141.844085
 20
173.579636
 30
0.0
 10
141.806831
 20
173.657783
 30
0.0
 10
141.770622
 20
173.736777
 30
0.0
 10
141.735401
 20
173.816590
 30
0.0
 10
141.701139
 20
173.897193
 30
0.0
 10
141.667780
 20
173.978529
 30
0.0
 10
141.635353
 20
174.060599
 30
0.0
 10
141.603829
 20
174.143375
 30
0.0
 10
141.573151
 20
174.226828
 30
0.0
 10
141.543349
 20
174.310930
 30
0.0
 10
141.514364
 20
174.395710
 30
0.0
 10
141.486199
 20
174.481082
 30
0.0
 10
141.458879
 20
174.567103
 30
0.0
 10
141.432351
 20
174.653689
 30
0.0
 10
141.406584
 20
174.740896
 30
0.0
 10
141.381635
 20
174.828667
 30
0.0
 10
141.357477
 20
174.917003
 30
0.0
 10
141.334053
 20
175.005903
 30
0.0
 10
141.394138
 20
175.054981
 30
0.0
 10
141.454392
 20
175.103862
 30
0.0
 10
141.514816
 20
175.152545
 30
0.0
 10
141.575381
 20
175.201003
 30
0.0
 10
141.636115
 20
175.249291
 30
0.0
 10
141.697019
 20
175.297353
 30
0.0
 10
141.758063
 20
175.345190
 30
0.0
 10
141.819305
 20
175.392857
 30
0.0
 10
141.900755
 20
175.350270
 30
0.0
 10
141.981499
 20
175.307034
 30
0.0
 10
142.061509
 20
175.263176
 30
0.0
 10
142.140785
 20
175.218670
 30
0.0
 10
142.219327
 20
175.173543
 30
0.0
 10
142.297079
 20
175.127738
 30
0.0
 10
142.374070
 20
175.081284
 30
0.0
 10
142.450270
 20
175.034181
 30
0.0
 10
142.525651
 20
174.986401
 30
0.0
 10
142.600186
 20
174.937915
 30
0.0
 10
142.673846
 20
174.888752
 30
0.0
 10
142.746631
 20
174.838883
 30
0.0
 10
142.818541
 20
174.788281
 30
0.0
 10
142.889464
 20
174.736945
 30
0.0
 10
142.959455
 20
174.684847
 30
0.0
 10
143.028402
 20
174.631958
 30
0.0
 10
143.096305
 20
174.578251
 30
0.0
 10
143.163078
 20
174.523698
 30
0.0
 10
143.228695
 20
174.468241
 30
0.0
 10
143.302581
 20
174.522343
 30
0.0
 10
143.376692
 20
174.576135
 30
0.0
 10
143.451030
 20
174.629587
 30
0.0
 10
143.525593
 20
174.682730
 30
0.0
 10
143.600382
 20
174.735562
 30
0.0
 10
143.675396
 20
174.788083
 30
0.0
 10
143.750637
 20
174.840266
 30
0.0
 10
143.826103
 20
174.892139
 30
0.0
 10
143.795425
 20
174.972375
 30
0.0
 10
143.766018
 20
175.053429
 30
0.0
 10
143.737739
 20
175.135245
 30
0.0
 10
143.710589
 20
175.217823
 30
0.0
 10
143.684512
 20
175.301051
 30
0.0
 10
143.659507
 20
175.384983
 30
0.0
 10
143.635490
 20
175.469537
 30
0.0
 10
143.612433
 20
175.554712
 30
0.0
 10
143.590363
 20
175.640507
 30
0.0
 10
143.569224
 20
175.726867
 30
0.0
 10
143.549017
 20
175.813792
 30
0.0
 10
143.529713
 20
175.901281
 30
0.0
 10
143.511312
 20
175.989278
 30
0.0
 10
143.493758
 20
176.077811
 30
0.0
 10
143.477107
 20
176.166824
 30
0.0
 10
143.461274
 20
176.256373
 30
0.0
 10
143.446317
 20
176.346373
 30
0.0
 10
143.432177
 20
176.436854
 30
0.0
 10
143.418885
 20
176.527814
 30
0.0
 10
143.484078
 20
176.569865
 30
0.0
 10
143.549412
 20
176.611691
 30
0.0
 10
143.614888
 20
176.653290
 30
0.0
 10
143.680505
 20
176.694692
 30
0.0
 10
143.746291
 20
176.735840
 30
0.0
 10
143.812189
 20
176.776791
 30
0.0
 10
143.878201
 20
176.817515
 30
0.0
 10
143.944382
 20
176.858014
 30
0.0
 10
144.020554
 20
176.806565
 30
0.0
 10
144.095936
 20
176.754580
 30
0.0
 10
144.170555
 20
176.702030
 30
0.0
 10
144.244356
 20
176.648944
 30
0.0
 10
144.317339
 20
176.595293
 30
0.0
 10
144.389503
 20
176.541079
 30
0.0
 10
144.460793
 20
176.486299
 30
0.0
 10
144.531235
 20
176.430955
 30
0.0
 10
144.600775
 20
176.375019
 30
0.0
 10
144.669411
 20
176.318518
 30
0.0
 10
144.737116
 20
176.261396
 30
0.0
 10
144.803862
 20
176.203710
 30
0.0
 10
144.869648
 20
176.145375
 30
0.0
 10
144.934390
 20
176.086390
 30
0.0
 10
144.998087
 20
176.026785
 30
0.0
 10
145.060684
 20
175.966502
 30
0.0
 10
145.122152
 20
175.905542
 30
0.0
 10
145.182407
 20
175.843849
 30
0.0
 10
145.241391
 20
175.781421
 30
0.0
 10
145.320865
 20
175.826915
 30
0.0
 10
145.400536
 20
175.872043
 30
0.0
 10
145.480405
 20
175.916859
 30
0.0
 10
145.560443
 20
175.961309
 30
0.0
 10
145.640679
 20
176.005449
 30
0.0
 10
145.721084
 20
176.049222
 30
0.0
 10
145.801715
 20
176.092656
 30
0.0
 10
145.882515
 20
176.135751
 30
0.0
 10
145.861010
 20
176.218922
 30
0.0
 10
145.840859
 20
176.302770
 30
0.0
 10
145.821922
 20
176.387239
 30
0.0
 10
145.804199
 20
176.472301
 30
0.0
 10
145.787604
 20
176.557955
 30
0.0
 10
145.772138
 20
176.644146
 30
0.0
 10
145.757745
 20
176.730873
 30
0.0
 10
145.744367
 20
176.818108
 30
0.0
 10
145.732034
 20
176.905823
 30
0.0
 10
145.720717
 20
176.993989
 30
0.0
 10
145.710360
 20
177.082635
 30
0.0
 10
145.700962
 20
177.171732
 30
0.0
 10
145.692523
 20
177.261253
 30
0.0
 10
145.685016
 20
177.351169
 30
0.0
 10
145.678412
 20
177.441509
 30
0.0
 10
145.672739
 20
177.532243
 30
0.0
 10
145.667942
 20
177.623373
 30
0.0
 10
145.664019
 20
177.714869
 30
0.0
 10
145.660971
 20
177.806732
 30
0.0
 10
145.730482
 20
177.841220
 30
0.0
 10
145.800078
 20
177.875482
 30
0.0
 10
145.869815
 20
177.909489
 30
0.0
 10
145.939665
 20
177.943271
 30
0.0
 10
146.009628
 20
177.976828
 30
0.0
 10
146.079676
 20
178.010130
 30
0.0
 10
146.149864
 20
178.043206
 30
0.0
 10
146.220166
 20
178.076029
 30
0.0
 10
146.290072
 20
178.016367
 30
0.0
 10
146.359189
 20
177.956254
 30
0.0
 10
146.427430
 20
177.895689
 30
0.0
 10
146.494825
 20
177.834672
 30
0.0
 10
146.561344
 20
177.773204
 30
0.0
 10
146.626989
 20
177.711257
 30
0.0
 10
146.691703
 20
177.648829
 30
0.0
 10
146.755485
 20
177.585950
 30
0.0
 10
146.818336
 20
177.522591
 30
0.0
 10
146.880227
 20
177.458752
 30
0.0
 10
146.941103
 20
177.394406
 30
0.0
 10
147.000990
 20
177.329579
 30
0.0
 10
147.059805
 20
177.264273
 30
0.0
 10
147.117548
 20
177.198431
 30
0.0
 10
147.174162
 20
177.132052
 30
0.0
 10
147.229618
 20
177.065137
 30
0.0
 10
147.283861
 20
176.997686
 30
0.0
 10
147.336835
 20
176.929642
 30
0.0
 10
147.388481
 20
176.860977
 30
0.0
 10
147.472527
 20
176.897299
 30
0.0
 10
147.556770
 20
176.933226
 30
0.0
 10
147.641127
 20
176.968815
 30
0.0
 10
147.725652
 20
177.004036
 30
0.0
 10
147.810319
 20
177.038890
 30
0.0
 10
147.895127
 20
177.073378
 30
0.0
 10
147.980104
 20
177.107527
 30
0.0
 10
148.065222
 20
177.141309
 30
0.0
 10
148.053171
 20
177.226342
 30
0.0
 10
148.042531
 20
177.311940
 30
0.0
 10
148.033190
 20
177.397990
 30
0.0
 10
148.025090
 20
177.484519
 30
0.0
 10
148.018204
 20
177.571472
 30
0.0
 10
148.012475
 20
177.658876
 30
0.0
 10
148.007874
 20
177.746647
 30
0.0
 10
148.004375
 20
177.834842
 30
0.0
 10
148.001835
 20
177.923375
 30
0.0
 10
148.000424
 20
178.012275
 30
0.0
 10
148.000141
 20
178.101513
 30
0.0
 10
148.000706
 20
178.191091
 30
0.0
 10
148.002399
 20
178.280979
 30
0.0
 10
148.004939
 20
178.371205
 30
0.0
 10
148.008495
 20
178.461714
 30
0.0
 10
148.013011
 20
178.552505
 30
0.0
 10
148.018429
 20
178.643606
 30
0.0
 10
148.024808
 20
178.734961
 30
0.0
 10
148.032061
 20
178.826599
 30
0.0
 10
148.104987
 20
178.853071
 30
0.0
 10
148.177998
 20
178.879318
 30
0.0
 10
148.251093
 20
178.905311
 30
0.0
 10
148.324274
 20
178.931049
 30
0.0
 10
148.397539
 20
178.956562
 30
0.0
 10
148.470916
 20
178.981821
 30
0.0
 10
148.544351
 20
179.006826
 30
0.0
 10
148.617869
 20
179.031577
 30
0.0
 10
148.680692
 20
178.964464
 30
0.0
 10
148.742612
 20
178.897013
 30
0.0
 10
148.803656
 20
178.829167
 30
0.0
 10
148.863798
 20
178.760982
 30
0.0
 10
148.923008
 20
178.692459
 30
0.0
 10
148.981287
 20
178.623540
 30
0.0
 10
149.038635
 20
178.554283
 30
0.0
 10
149.094966
 20
178.484630
 30
0.0
 10
149.150338
 20
178.414639
 30
0.0
 10
149.204666
 20
178.344281
 30
0.0
 10
149.257978
 20
178.273528
 30
0.0
 10
149.310217
 20
178.202408
 30
0.0
 10
149.361356
 20
178.130893
 30
0.0
 10
149.411365
 20
178.059011
 30
0.0
 10
149.460190
 20
177.986734
 30
0.0
 10
149.507829
 20
177.914033
 30
0.0
 10
149.554170
 20
177.840909
 30
0.0
 10
149.599184
 20
177.767362
 30
0.0
 10
149.642816
 20
177.693364
 30
0.0
 10
149.730418
 20
177.720034
 30
0.0
 10
149.818132
 20
177.746309
 30
0.0
 10
149.905932
 20
177.772217
 30
0.0
 10
149.993872
 20
177.797758
 30
0.0
 10
150.081925
 20
177.822932
 30
0.0
 10
150.170063
 20
177.847711
 30
0.0
 10
150.258314
 20
177.872123
 30
0.0
 10
150.346678
 20
177.896140
 30
0.0
 10
150.344138
 20
177.982021
 30
0.0
 10
150.343009
 20
178.068239
 30
0.0
 10
150.343291
 20
178.154797
 30
0.0
 10
150.344985
 20
178.241693
 30
0.0
 10
150.347863
 20
178.328900
 30
0.0
 10
150.351956
 20
178.416361
 30
0.0
 10
150.357205
 20
178.504103
 30
0.0
 10
150.363611
 20
178.592129
 30
0.0
 10
150.371090
 20
178.680379
 30
0.0
 10
150.379670
 20
178.768884
 30
0.0
 10
150.389322
 20
178.857615
 30
0.0
 10
150.399990
 20
178.946543
 30
0.0
 10
150.411674
 20
179.035697
 30
0.0
 10
150.424346
 20
179.125049
 30
0.0
 10
150.438033
 20
179.214598
 30
0.0
 10
150.452653
 20
179.304316
 30
0.0
 10
150.468259
 20
179.394232
 30
0.0
 10
150.484798
 20
179.484289
 30
0.0
 10
150.502295
 20
179.574544
 30
0.0
 10
150.577705
 20
179.592691
 30
0.0
 10
150.653200
 20
179.610584
 30
0.0
 10
150.728751
 20
179.628251
 30
0.0
 10
150.804358
 20
179.645636
 30
0.0
 10
150.880022
 20
179.662767
 30
0.0
 10
150.955742
 20
179.679644
 30
0.0
 10
151.031519
 20
179.696267
 30
0.0
 10
151.107380
 20
179.712635
 30
0.0
 10
151.162272
 20
179.638919
 30
0.0
 10
151.216261
 20
179.564949
 30
0.0
 10
151.269319
 20
179.490724
 30
0.0
 10
151.321445
 20
179.416217
 30
0.0
 10
151.372612
 20
179.341485
 30
0.0
 10
151.422820
 20
179.266470
 30
0.0
 10
151.472039
 20
179.191230
 30
0.0
 10
151.520215
 20
179.115735
 30
0.0
 10
151.567402
 20
179.039959
 30
0.0
 10
151.613517
 20
178.963956
 30
0.0
 10
151.658560
 20
178.887700
 30
0.0
 10
151.702530
 20
178.811161
 30
0.0
 10
151.745315
 20
178.734397
 30
0.0
 10
151.786971
 20
178.657350
 30
0.0
 10
151.827413
 20
178.580049
 30
0.0
 10
151.866586
 20
178.502495
 30
0.0
 10
151.904460
 20
178.424630
 30
0.0
 10
151.940951
 20
178.346511
 30
0.0
 10
151.976032
 20
178.268081
 30
0.0
 10
152.066061
 20
178.284789
 30
0.0
 10
152.156174
 20
178.301073
 30
0.0
 10
152.246344
 20
178.316990
 30
0.0
 10
152.336571
 20
178.332512
 30
0.0
 10
152.426882
 20
178.347668
 30
0.0
 10
152.517249
 20
178.362428
 30
0.0
 10
152.607673
 20
178.376793
 30
0.0
 10
152.698182
 20
178.390791
 30
0.0
 10
152.705379
 20
178.476389
 30
0.0
 10
152.714015
 20
178.562185
 30
0.0
 10
152.724062
 20
178.648178
 30
0.0
 10
152.735407
 20
178.734340
 30
0.0
 10
152.748051
 20
178.820644
 30
0.0
 10
152.761908
 20
178.907117
 30
0.0
 10
152.776950
 20
178.993731
 30
0.0
 10
152.793178
 20
179.080458
 30
0.0
 10
152.810506
 20
179.167326
 30
0.0
 10
152.828935
 20
179.254307
 30
0.0
 10
152.848437
 20
179.341400
 30
0.0
 10
152.868983
 20
179.428579
 30
0.0
 10
152.890601
 20
179.515870
 30
0.0
 10
152.913207
 20
179.603246
 30
0.0
 10
152.936801
 20
179.690679
 30
0.0
 10
152.961411
 20
179.778224
 30
0.0
 10
152.986980
 20
179.865797
 30
0.0
 10
153.013509
 20
179.953456
 30
0.0
 10
153.040969
 20
180.041170
 30
0.0
 10
153.117959
 20
180.050766
 30
0.0
 10
153.194978
 20
180.060107
 30
0.0
 10
153.272024
 20
180.069195
 30
0.0
 10
153.349099
 20
180.078000
 30
0.0
 10
153.426231
 20
180.086552
 30
0.0
 10
153.503362
 20
180.094849
 30
0.0
 10
153.580521
 20
180.102892
 30
0.0
 10
153.657709
 20
180.110682
 30
0.0
 10
153.704022
 20
180.031264
 30
0.0
 10
153.749375
 20
179.951706
 30
0.0
 10
153.793797
 20
179.872006
 30
0.0
 10
153.837259
 20
179.792137
 30
0.0
 10
153.879733
 20
179.712127
 30
0.0
 10
153.921220
 20
179.632005
 30
0.0
 10
153.961691
 20
179.551712
 30
0.0
 10
154.001145
 20
179.471279
 30
0.0
 10
154.039528
 20
179.390705
 30
0.0
 10
154.076866
 20
179.310017
 30
0.0
 10
154.113075
 20
179.229189
 30
0.0
 10
154.148183
 20
179.148219
 30
0.0
 10
154.182135
 20
179.067137
 30
0.0
 10
154.214901
 20
178.985913
 30
0.0
 10
154.246425
 20
178.904577
 30
0.0
 10
154.276651
 20
178.823099
 30
0.0
 10
154.305579
 20
178.741509
 30
0.0
 10
154.333095
 20
178.659777
 30
0.0
 10
154.359173
 20
178.577933
 30
0.0
 10
154.450500
 20
178.584424
 30
0.0
 10
154.541855
 20
178.590548
 30
0.0
 10
154.633267
 20
178.596277
 30
0.0
 10
154.724679
 20
178.601611
 30
0.0
 10
154.816090
 20
178.606522
 30
0.0
 10
154.907559
 20
178.611094
 30
0.0
 10
154.999027
 20
178.615243
 30
0.0
 10
155.090523
 20
178.618996
 30
0.0
 10
155.107259
 20
178.703268
 30
0.0
 10
155.125462
 20
178.787567
 30
0.0
 10
155.145049
 20
178.871867
 30
0.0
 10
155.165989
 20
178.956223
 30
0.0
 10
155.188200
 20
179.040580
 30
0.0
 10
155.211653
 20
179.124964
 30
0.0
 10
155.236319
 20
179.209349
 30
0.0
 10
155.262143
 20
179.293705
 30
0.0
 10
155.289067
 20
179.378089
 30
0.0
 10
155.317119
 20
179.462474
 30
0.0
 10
155.346273
 20
179.546830
 30
0.0
 10
155.376471
 20
179.631158
 30
0.0
 10
155.407685
 20
179.715458
 30
0.0
 10
155.439943
 20
179.799757
 30
0.0
 10
155.473188
 20
179.884001
 30
0.0
 10
155.507422
 20
179.968244
 30
0.0
 10
155.542643
 20
180.052403
 30
0.0
 10
155.578824
 20
180.136561
 30
0.0
 10
155.615936
 20
180.220635
 30
0.0
 10
155.693519
 20
180.221482
 30
0.0
 10
155.771102
 20
180.222047
 30
0.0
 10
155.848685
 20
180.222329
 30
0.0
 10
155.926268
 20
180.222442
 30
0.0
 10
156.003851
 20
180.222329
 30
0.0
 10
156.081434
 20
180.222047
 30
0.0
 10
156.159017
 20
180.221482
 30
0.0
 10
156.236599
 20
180.220635
 30
0.0
 10
156.273712
 20
180.136561
 30
0.0
 10
156.309893
 20
180.052403
 30
0.0
 10
156.345114
 20
179.968244
 30
0.0
 10
156.379347
 20
179.884001
 30
0.0
 10
156.412593
 20
179.799757
 30
0.0
 10
156.444851
 20
179.715458
 30
0.0
 10
156.476065
 20
179.631158
 30
0.0
 10
156.506263
 20
179.546830
 30
0.0
 10
156.535416
 20
179.462474
 30
0.0
 10
156.563469
 20
179.378089
 30
0.0
 10
156.590393
 20
179.293705
 30
0.0
 10
156.616217
 20
179.209349
 30
0.0
 10
156.640883
 20
179.124964
 30
0.0
 10
156.664335
 20
179.040580
 30
0.0
 10
156.686546
 20
178.956223
 30
0.0
 10
156.707487
 20
178.871867
 30
0.0
 10
156.727073
 20
178.787567
 30
0.0
 10
156.745277
 20
178.703268
 30
0.0
 10
156.762013
 20
178.618996
 30
0.0
 10
156.853509
 20
178.615243
 30
0.0
 10
156.944977
 20
178.611094
 30
0.0
 10
157.036445
 20
178.606522
 30
0.0
 10
157.127857
 20
178.601611
 30
0.0
 10
157.219269
 20
178.596277
 30
0.0
 10
157.310681
 20
178.590548
 30
0.0
 10
157.402036
 20
178.584424
 30
0.0
 10
157.493363
 20
178.577933
 30
0.0
 10
157.519441
 20
178.659777
 30
0.0
 10
157.546957
 20
178.741509
 30
0.0
 10
157.575885
 20
178.823099
 30
0.0
 10
157.606111
 20
178.904577
 30
0.0
 10
157.637635
 20
178.985913
 30
0.0
 10
157.670401
 20
179.067137
 30
0.0
 10
157.704353
 20
179.148219
 30
0.0
 10
157.739461
 20
179.229189
 30
0.0
 10
157.775670
 20
179.310017
 30
0.0
 10
157.813008
 20
179.390705
 30
0.0
 10
157.851390
 20
179.471279
 30
0.0
 10
157.890845
 20
179.551712
 30
0.0
 10
157.931316
 20
179.632005
 30
0.0
 10
157.972802
 20
179.712127
 30
0.0
 10
158.015277
 20
179.792137
 30
0.0
 10
158.058739
 20
179.872006
 30
0.0
 10
158.103161
 20
179.951706
 30
0.0
 10
158.148514
 20
180.031264
 30
0.0
 10
158.194827
 20
180.110682
 30
0.0
 10
158.272014
 20
180.102892
 30
0.0
 10
158.349174
 20
180.094849
 30
0.0
 10
158.426305
 20
180.086552
 30
0.0
 10
158.503437
 20
180.078000
 30
0.0
 10
158.580511
 20
180.069195
 30
0.0
 10
158.657558
 20
180.060107
 30
0.0
 10
158.734577
 20
180.050766
 30
0.0
 10
158.811567
 20
180.041170
 30
0.0
 10
158.839027
 20
179.953456
 30
0.0
 10
158.865556
 20
179.865797
 30
0.0
 10
158.891125
 20
179.778224
 30
0.0
 10
158.915735
 20
179.690679
 30
0.0
 10
158.939329
 20
179.603246
 30
0.0
 10
158.961935
 20
179.515870
 30
0.0
 10
158.983553
 20
179.428579
 30
0.0
 10
159.004099
 20
179.341400
 30
0.0
 10
159.023600
 20
179.254307
 30
0.0
 10
159.042029
 20
179.167326
 30
0.0
 10
159.059358
 20
179.080458
 30
0.0
 10
159.075586
 20
178.993731
 30
0.0
 10
159.090628
 20
178.907117
 30
0.0
 10
159.104485
 20
178.820644
 30
0.0
 10
159.117129
 20
178.734340
 30
0.0
 10
159.128474
 20
178.648178
 30
0.0
 10
159.138521
 20
178.562185
 30
0.0
 10
159.147157
 20
178.476389
 30
0.0
 10
159.154354
 20
178.390791
 30
0.0
 10
159.244863
 20
178.376793
 30
0.0
 10
159.335287
 20
178.362428
 30
0.0
 10
159.425654
 20
178.347668
 30
0.0
 10
159.515965
 20
178.332512
 30
0.0
 10
159.606192
 20
178.316990
 30
0.0
 10
159.696362
 20
178.301073
 30
0.0
 10
159.786475
 20
178.284789
 30
0.0
 10
159.876504
 20
178.268081
 30
0.0
 10
159.911584
 20
178.346511
 30
0.0
 10
159.948076
 20
178.424630
 30
0.0
 10
159.985950
 20
178.502495
 30
0.0
 10
160.025122
 20
178.580049
 30
0.0
 10
160.065565
 20
178.657350
 30
0.0
 10
160.107221
 20
178.734397
 30
0.0
 10
160.150006
 20
178.811161
 30
0.0
 10
160.193976
 20
178.887700
 30
0.0
 10
160.239019
 20
178.963956
 30
0.0
 10
160.285134
 20
179.039959
 30
0.0
 10
160.332321
 20
179.115735
 30
0.0
 10
160.380497
 20
179.191230
 30
0.0
 10
160.429716
 20
179.266470
 30
0.0
 10
160.479923
 20
179.341485
 30
0.0
 10
160.531090
 20
179.416217
 30
0.0
 10
160.583217
 20
179.490724
 30
0.0
 10
160.636275
 20
179.564949
 30
0.0
 10
160.690264
 20
179.638919
 30
0.0
 10
160.745156
 20
179.712635
 30
0.0
 10
160.821017
 20
179.696267
 30
0.0
 10
160.896794
 20
179.679644
 30
0.0
 10
160.972514
 20
179.662767
 30
0.0
 10
161.048178
 20
179.645636
 30
0.0
 10
161.123785
 20
179.628251
 30
0.0
 10
161.199336
 20
179.610584
 30
0.0
 10
161.274831
 20
179.592691
 30
0.0
 10
161.350240
 20
179.574544
 30
0.0
 10
161.367738
 20
179.484289
 30
0.0
 10
161.384276
 20
179.394232
 30
0.0
 10
161.399883
 20
179.304316
 30
0.0
 10
161.414502
 20
179.214598
 30
0.0
 10
161.428190
 20
179.125049
 30
0.0
 10
161.440862
 20
179.035697
 30
0.0
 10
161.452546
 20
178.946543
 30
0.0
 10
161.463214
 20
178.857615
 30
0.0
 10
161.472866
 20
178.768884
 30
0.0
 10
161.481445
 20
178.680379
 30
0.0
 10
161.488924
 20
178.592129
 30
0.0
 10
161.495331
 20
178.504103
 30
0.0
 10
161.500580
 20
178.416361
 30
0.0
 10
161.504672
 20
178.328900
 30
0.0
 10
161.507551
 20
178.241693
 30
0.0
 10
161.509244
 20
178.154797
 30
0.0
 10
161.509527
 20
178.068239
 30
0.0
 10
161.508398
 20
177.982021
 30
0.0
 10
161.505858
 20
177.896140
 30
0.0
 10
161.594221
 20
177.872123
 30
0.0
 10
161.682472
 20
177.847711
 30
0.0
 10
161.770610
 20
177.822932
 30
0.0
 10
161.858664
 20
177.797758
 30
0.0
 10
161.946604
 20
177.772217
 30
0.0
 10
162.034403
 20
177.746309
 30
0.0
 10
162.122118
 20
177.720034
 30
0.0
 10
162.209720
 20
177.693364
 30
0.0
 10
162.253351
 20
177.767362
 30
0.0
 10
162.298366
 20
177.840909
 30
0.0
 10
162.344707
 20
177.914033
 30
0.0
 10
162.392346
 20
177.986734
 30
0.0
 10
162.441170
 20
178.059011
 30
0.0
 10
162.491180
 20
178.130893
 30
0.0
 10
162.542319
 20
178.202408
 30
0.0
 10
162.594558
 20
178.273528
 30
0.0
 10
162.647870
 20
178.344281
 30
0.0
 10
162.702198
 20
178.414639
 30
0.0
 10
162.757570
 20
178.484630
 30
0.0
 10
162.813901
 20
178.554283
 30
0.0
 10
162.871249
 20
178.623540
 30
0.0
 10
162.929528
 20
178.692459
 30
0.0
 10
162.988738
 20
178.760982
 30
0.0
 10
163.048879
 20
178.829167
 30
0.0
 10
163.109924
 20
178.897013
 30
0.0
 10
163.171844
 20
178.964464
 30
0.0
 10
163.234666
 20
179.031577
 30
0.0
 10
163.308185
 20
179.006826
 30
0.0
 10
163.381619
 20
178.981821
 30
0.0
 10
163.454997
 20
178.956562
 30
0.0
 10
163.528262
 20
178.931049
 30
0.0
 10
163.601442
 20
178.905311
 30
0.0
 10
163.674538
 20
178.879318
 30
0.0
 10
163.747549
 20
178.853071
 30
0.0
 10
163.820475
 20
178.826599
 30
0.0
 10
163.827728
 20
178.734961
 30
0.0
 10
163.834106
 20
178.643606
 30
0.0
 10
163.839525
 20
178.552505
 30
0.0
 10
163.844041
 20
178.461714
 30
0.0
 10
163.847597
 20
178.371205
 30
0.0
 10
163.850137
 20
178.280979
 30
0.0
 10
163.851830
 20
178.191091
 30
0.0
 10
163.852394
 20
178.101513
 30
0.0
 10
163.852112
 20
178.012275
 30
0.0
 10
163.850701
 20
177.923375
 30
0.0
 10
163.848161
 20
177.834842
 30
0.0
 10
163.844661
 20
177.746647
 30
0.0
 10
163.840061
 20
177.658876
 30
0.0
 10
163.834332
 20
177.571472
 30
0.0
 10
163.827446
 20
177.484519
 30
0.0
 10
163.819346
 20
177.397990
 30
0.0
 10
163.810005
 20
177.311940
 30
0.0
 10
163.799365
 20
177.226342
 30
0.0
 10
163.787314
 20
177.141309
 30
0.0
 10
163.872432
 20
177.107527
 30
0.0
 10
163.957409
 20
177.073378
 30
0.0
 10
164.042217
 20
177.038890
 30
0.0
 10
164.126884
 20
177.004036
 30
0.0
 10
164.211409
 20
176.968815
 30
0.0
 10
164.295765
 20
176.933226
 30
0.0
 10
164.380009
 20
176.897299
 30
0.0
 10
164.464055
 20
176.860977
 30
0.0
 10
164.515701
 20
176.929642
 30
0.0
 10
164.568674
 20
176.997686
 30
0.0
 10
164.622917
 20
177.065137
 30
0.0
 10
164.678374
 20
177.132052
 30
0.0
 10
164.734988
 20
177.198431
 30
0.0
 10
164.792731
 20
177.264273
 30
0.0
 10
164.851546
 20
177.329579
 30
0.0
 10
164.911433
 20
177.394406
 30
0.0
 10
164.972309
 20
177.458752
 30
0.0
 10
165.034200
 20
177.522591
 30
0.0
 10
165.097051
 20
177.585950
 30
0.0
 10
165.160833
 20
177.648829
 30
0.0
 10
165.225547
 20
177.711257
 30
0.0
 10
165.291191
 20
177.773204
 30
0.0
 10
165.357711
 20
177.834672
 30
0.0
 10
165.425106
 20
177.895689
 30
0.0
 10
165.493347
 20
177.956254
 30
0.0
 10
165.562463
 20
178.016367
 30
0.0
 10
165.632370
 20
178.076029
 30
0.0
 10
165.702671
 20
178.043206
 30
0.0
 10
165.772860
 20
178.010130
 30
0.0
 10
165.842908
 20
177.976828
 30
0.0
 10
165.912871
 20
177.943271
 30
0.0
 10
165.982721
 20
177.909489
 30
0.0
 10
166.052458
 20
177.875482
 30
0.0
 10
166.122054
 20
177.841220
 30
0.0
 10
166.191565
 20
177.806732
 30
0.0
 10
166.188517
 20
177.714869
 30
0.0
 10
166.184594
 20
177.623373
 30
0.0
 10
166.179796
 20
177.532243
 30
0.0
 10
166.174124
 20
177.441509
 30
0.0
 10
166.167520
 20
177.351169
 30
0.0
 10
166.160013
 20
177.261253
 30
0.0
 10
166.151574
 20
177.171732
 30
0.0
 10
166.142176
 20
177.082635
 30
0.0
 10
166.131819
 20
176.993989
 30
0.0
 10
166.120501
 20
176.905823
 30
0.0
 10
166.108168
 20
176.818108
 30
0.0
 10
166.094791
 20
176.730873
 30
0.0
 10
166.080398
 20
176.644146
 30
0.0
 10
166.064932
 20
176.557955
 30
0.0
 10
166.048337
 20
176.472301
 30
0.0
 10
166.030614
 20
176.387239
 30
0.0
 10
166.011677
 20
176.302770
 30
0.0
 10
165.991526
 20
176.218922
 30
0.0
 10
165.970021
 20
176.135751
 30
0.0
 10
166.050821
 20
176.092656
 30
0.0
 10
166.131452
 20
176.049222
 30
0.0
 10
166.211857
 20
176.005449
 30
0.0
 10
166.292093
 20
175.961309
 30
0.0
 10
166.372131
 20
175.916859
 30
0.0
 10
166.452000
 20
175.872043
 30
0.0
 10
166.531671
 20
175.826915
 30
0.0
 10
166.611145
 20
175.781421
 30
0.0
 10
166.670129
 20
175.843849
 30
0.0
 10
166.730384
 20
175.905542
 30
0.0
 10
166.791852
 20
175.966502
 30
0.0
 10
166.854449
 20
176.026785
 30
0.0
 10
166.918146
 20
176.086390
 30
0.0
 10
166.982888
 20
176.145375
 30
0.0
 10
167.048674
 20
176.203710
 30
0.0
 10
167.115419
 20
176.261396
 30
0.0
 10
167.183125
 20
176.318518
 30
0.0
 10
167.251761
 20
176.375019
 30
0.0
 10
167.321301
 20
176.430955
 30
0.0
 10
167.391743
 20
176.486299
 30
0.0
 10
167.463033
 20
176.541079
 30
0.0
 10
167.535197
 20
176.595293
 30
0.0
 10
167.608179
 20
176.648944
 30
0.0
 10
167.681981
 20
176.702030
 30
0.0
 10
167.756600
 20
176.754580
 30
0.0
 10
167.831982
 20
176.806565
 30
0.0
 10
167.908153
 20
176.858014
 30
0.0
 10
167.974335
 20
176.817515
 30
0.0
 10
168.040346
 20
176.776791
 30
0.0
 10
168.106245
 20
176.735840
 30
0.0
 10
168.172031
 20
176.694692
 30
0.0
 10
168.237648
 20
176.653290
 30
0.0
 10
168.303123
 20
176.611691
 30
0.0
 10
168.368458
 20
176.569865
 30
0.0
 10
168.433651
 20
176.527814
 30
0.0
 10
168.420359
 20
176.436854
 30
0.0
 10
168.406219
 20
176.346373
 30
0.0
 10
168.391261
 20
176.256373
 30
0.0
 10
168.375429
 20
176.166824
 30
0.0
 10
168.358778
 20
176.077811
 30
0.0
 10
168.341223
 20
175.989278
 30
0.0
 10
168.322823
 20
175.901281
 30
0.0
 10
168.303519
 20
175.813792
 30
0.0
 10
168.283311
 20
175.726867
 30
0.0
 10
168.262173
 20
175.640507
 30
0.0
 10
168.240103
 20
175.554712
 30
0.0
 10
168.217046
 20
175.469537
 30
0.0
 10
168.193029
 20
175.384983
 30
0.0
 10
168.168024
 20
175.301051
 30
0.0
 10
168.141946
 20
175.217823
 30
0.0
 10
168.114797
 20
175.135245
 30
0.0
 10
168.086518
 20
175.053429
 30
0.0
 10
168.057110
 20
174.972375
 30
0.0
 10
168.026433
 20
174.892139
 30
0.0
 10
168.101899
 20
174.840266
 30
0.0
 10
168.177139
 20
174.788083
 30
0.0
 10
168.252154
 20
174.735562
 30
0.0
 10
168.326943
 20
174.682730
 30
0.0
 10
168.401506
 20
174.629587
 30
0.0
 10
168.475843
 20
174.576135
 30
0.0
 10
168.549955
 20
174.522343
 30
0.0
 10
168.623841
 20
174.468241
 30
0.0
 10
168.689457
 20
174.523698
 30
0.0
 10
168.756231
 20
174.578251
 30
0.0
 10
168.824134
 20
174.631958
 30
0.0
 10
168.893081
 20
174.684847
 30
0.0
 10
168.963072
 20
174.736945
 30
0.0
 10
169.033994
 20
174.788281
 30
0.0
 10
169.105905
 20
174.838883
 30
0.0
 10
169.178690
 20
174.888752
 30
0.0
 10
169.252350
 20
174.937915
 30
0.0
 10
169.326885
 20
174.986401
 30
0.0
 10
169.402266
 20
175.034181
 30
0.0
 10
169.478466
 20
175.081284
 30
0.0
 10
169.555456
 20
175.127738
 30
0.0
 10
169.633209
 20
175.173543
 30
0.0
 10
169.711751
 20
175.218670
 30
0.0
 10
169.791027
 20
175.263176
 30
0.0
 10
169.871037
 20
175.307034
 30
0.0
 10
169.951781
 20
175.350270
 30
0.0
 10
170.033230
 20
175.392857
 30
0.0
 10
170.094473
 20
175.345190
 30
0.0
 10
170.155517
 20
175.297353
 30
0.0
 10
170.216421
 20
175.249291
 30
0.0
 10
170.277155
 20
175.201003
 30
0.0
 10
170.337720
 20
175.152545
 30
0.0
 10
170.398144
 20
175.103862
 30
0.0
 10
170.458398
 20
175.054981
 30
0.0
 10
170.518483
 20
175.005903
 30
0.0
 10
170.495059
 20
174.917003
 30
0.0
 10
170.470901
 20
174.828667
 30
0.0
 10
170.445952
 20
174.740896
 30
0.0
 10
170.420185
 20
174.653689
 30
0.0
 10
170.393656
 20
174.567103
 30
0.0
 10
170.366337
 20
174.481082
 30
0.0
 10
170.338171
 20
174.395710
 30
0.0
 10
170.309187
 20
174.310930
 30
0.0
 10
170.279385
 20
174.226828
 30
0.0
 10
170.248707
 20
174.143375
 30
0.0
 10
170.217183
 20
174.060599
 30
0.0
 10
170.184755
 20
173.978529
 30
0.0
 10
170.151397
 20
173.897193
 30
0.0
 10
170.117135
 20
173.816590
 30
0.0
 10
170.081914
 20
173.736777
 30
0.0
 10
170.045705
 20
173.657783
 30
0.0
 10
170.008451
 20
173.579636
 30
0.0
 10
169.970125
 20
173.502392
 30
0.0
 10
169.930671
 20
173.426079
 30
0.0
 10
169.999843
 20
173.366107
 30
0.0
 10
170.068762
 20
173.305824
 30
0.0
 10
170.137427
 20
173.245231
 30
0.0
 10
170.205837
 20
173.184356
 30
0.0
 10
170.273994
 20
173.123198
 30
0.0
 10
170.341869
 20
173.061758
 30
0.0
 10
170.409489
 20
173.000008
 30
0.0
 10
170.476855
 20
172.937976
 30
0.0
 10
170.548258
 20
172.985728
 30
0.0
 10
170.620732
 20
173.032464
 30
0.0
 10
170.694223
 20
173.078240
 30
0.0
 10
170.768673
 20
173.123057
 30
0.0
 10
170.844027
 20
173.166999
 30
0.0
 10
170.920283
 20
173.210094
 30
0.0
 10
170.997386
 20
173.252315
 30
0.0
 10
171.075308
 20
173.293717
 30
0.0
 10
171.154019
 20
173.334329
 30
0.0
 10
171.233521
 20
173.374150
 30
0.0
 10
171.313757
 20
173.413210
 30
0.0
 10
171.394755
 20
173.451479
 30
0.0
 10
171.476430
 20
173.489015
 30
0.0
 10
171.558839
 20
173.525816
 30
0.0
 10
171.641953
 20
173.561884
 30
0.0
 10
171.725717
 20
173.597219
 30
0.0
 10
171.810130
 20
173.631847
 30
0.0
 10
171.895220
 20
173.665770
 30
0.0
 10
171.980902
 20
173.698988
 30
0.0
 10
172.036415
 20
173.644773
 30
0.0
 10
172.091731
 20
173.590361
 30
0.0
 10
172.146877
 20
173.535779
 30
0.0
 10
172.201826
 20
173.481028
 30
0.0
 10
172.256577
 20
173.426079
 30
0.0
 10
172.311159
 20
173.370933
 30
0.0
 10
172.365571
 20
173.315617
 30
0.0
 10
172.419786
 20
173.260104
 30
0.0
 10
172.386569
 20
173.174421
 30
0.0
 10
172.352645
 20
173.089331
 30
0.0
 10
172.318017
 20
173.004919
 30
0.0
 10
172.282683
 20
172.921155
 30
0.0
 10
172.246615
 20
172.838041
 30
0.0
 10
172.209813
 20
172.755632
 30
0.0
 10
172.172277
 20
172.673957
 30
0.0
 10
172.134008
 20
172.592959
 30
0.0
 10
172.094948
 20
172.512723
 30
0.0
 10
172.055127
 20
172.433221
 30
0.0
 10
172.014515
 20
172.354509
 30
0.0
 10
171.973113
 20
172.276588
 30
0.0
 10
171.930893
 20
172.199485
 30
0.0
 10
171.887797
 20
172.123228
 30
0.0
 10
171.843855
 20
172.047875
 30
0.0
 10
171.799038
 20
171.973425
 30
0.0
 10
171.753262
 20
171.899934
 30
0.0
 10
171.706526
 20
171.827459
 30
0.0
 10
171.658774
 20
171.756057
 30
0.0
 10
171.720806
 20
171.688691
 30
0.0
 10
171.782557
 20
171.621070
 30
0.0
 10
171.843996
 20
171.553196
 30
0.0
 10
171.905154
 20
171.485039
 30
0.0
 10
171.966029
 20
171.416629
 30
0.0
 10
172.026622
 20
171.347964
 30
0.0
 10
172.086905
 20
171.279045
 30
0.0
 10
172.146877
 20
171.209873
 30
0.0
 10
172.223190
 20
171.249327
 30
0.0
 10
172.300434
 20
171.287653
 30
0.0
 10
172.378582
 20
171.324906
 30
0.0
 10
172.457576
 20
171.361115
 30
0.0
 10
172.537388
 20
171.396337
 30
0.0
 10
172.617991
 20
171.430599
 30
0.0
 10
172.699327
 20
171.463957
 30
0.0
 10
172.781397
 20
171.496385
 30
0.0
 10
172.864173
 20
171.527909
 30
0.0
 10
172.947626
 20
171.558586
 30
0.0
 10
173.031729
 20
171.588389
 30
0.0
 10
173.116508
 20
171.617373
 30
0.0
 10
173.201880
 20
171.645539
 30
0.0
 10
173.287902
 20
171.672858
 30
0.0
 10
173.374487
 20
171.699387
 30
0.0
 10
173.461694
 20
171.725154
 30
0.0
 10
173.549465
 20
171.750102
 30
0.0
 10
173.637801
 20
171.774261
 30
0.0
 10
173.726701
 20
171.797685
 30
0.0
 10
173.775779
 20
171.737600
 30
0.0
 10
173.824660
 20
171.677345
 30
0.0
 10
173.873343
 20
171.616922
 30
0.0
 10
173.921801
 20
171.556357
 30
0.0
 10
173.970089
 20
171.495623
 30
0.0
 10
174.018152
 20
171.434719
 30
0.0
 10
174.065988
 20
171.373674
 30
0.0
 10
174.113656
 20
171.312432
 30
0.0
 10
174.071068
 20
171.230983
 30
0.0
 10
174.027832
 20
171.150239
 30
0.0
 10
173.983975
 20
171.070229
 30
0.0
 10
173.939468
 20
170.990953
 30
0.0
 10
173.894341
 20
170.912410
 30
0.0
 10
173.848536
 20
170.834658
 30
0.0
 10
173.802082
 20
170.757668
 30
0.0
 10
173.754979
 20
170.681468
 30
0.0
 10
173.707199
 20
170.606086
 30
0.0
 10
173.658713
 20
170.531551
 30
0.0
 10
173.609550
 20
170.457891
 30
0.0
 10
173.559682
 20
170.385106
 30
0.0
 10
173.509079
 20
170.313196
 30
0.0
 10
173.457743
 20
170.242274
 30
0.0
 10
173.405645
 20
170.172283
 30
0.0
 10
173.352756
 20
170.103336
 30
0.0
 10
173.299049
 20
170.035433
 30
0.0
 10
173.244496
 20
169.968659
 30
0.0
 10
173.189039
 20
169.903043
 30
0.0
 10
173.243141
 20
169.829157
 30
0.0
 10
173.296933
 20
169.755045
 30
0.0
 10
173.350386
 20
169.680708
 30
0.0
 10
173.403528
 20
169.606145
 30
0.0
 10
173.456360
 20
169.531356
 30
0.0
 10
173.508882
 20
169.456341
 30
0.0
 10
173.561065
 20
169.381101
 30
0.0
 10
173.612937
 20
169.305635
 30
0.0
 10
173.693173
 20
169.336312
 30
0.0
 10
173.774227
 20
169.365720
 30
0.0
 10
173.856043
 20
169.393998
 30
0.0
 10
173.938621
 20
169.421148
 30
0.0
 10
174.021849
 20
169.447225
 30
0.0
 10
174.105782
 20
169.472230
 30
0.0
 10
174.190335
 20
169.496247
 30
0.0
 10
174.275510
 20
169.519305
 30
0.0
 10
174.361306
 20
169.541375
 30
0.0
 10
174.447666
 20
169.562513
 30
0.0
 10
174.534590
 20
169.582720
 30
0.0
 10
174.622079
 20
169.602024
 30
0.0
 10
174.710076
 20
169.620425
 30
0.0
 10
174.798609
 20
169.637979
 30
0.0
 10
174.887622
 20
169.654631
 30
0.0
 10
174.977171
 20
169.670463
 30
0.0
 10
175.067172
 20
169.685421
 30
0.0
 10
175.157652
 20
169.699560
 30
0.0
 10
175.248612
 20
169.712853
 30
0.0
 10
175.290663
 20
169.647660
 30
0.0
 10
175.332489
 20
169.582325
 30
0.0
 10
175.374088
 20
169.516850
 30
0.0
 10
175.415490
 20
169.451233
 30
0.0
 10
175.456638
 20
169.385447
 30
0.0
 10
175.497589
 20
169.319548
 30
0.0
 10
175.538313
 20
169.253536
 30
0.0
 10
175.578812
 20
169.187355
 30
0.0
 10
175.527363
 20
169.111183
 30
0.0
 10
175.475378
 20
169.035802
 30
0.0
 10
175.422828
 20
168.961182
 30
0.0
 10
175.369742
 20
168.887381
 30
0.0
 10
175.316092
 20
168.814399
 30
0.0
 10
175.261877
 20
168.742234
 30
0.0
 10
175.207097
 20
168.670945
 30
0.0
 10
175.151754
 20
168.600502
 30
0.0
 10
175.095817
 20
168.530963
 30
0.0
 10
175.039316
 20
168.462326
 30
0.0
 10
174.982195
 20
168.394621
 30
0.0
 10
174.924508
 20
168.327876
 30
0.0
 10
174.866173
 20
168.262090
 30
0.0
 10
174.807189
 20
168.197348
 30
0.0
 10
174.747583
 20
168.133650
 30
0.0
 10
174.687301
 20
168.071053
 30
0.0
 10
174.626341
 20
168.009585
 30
0.0
 10
174.564647
 20
167.949331
 30
0.0
 10
174.502219
 20
167.890347
 30
0.0
 10
174.547713
 20
167.810873
 30
0.0
 10
174.592841
 20
167.731201
 30
0.0
 10
174.637658
 20
167.651333
 30
0.0
 10
174.682108
 20
167.571294
 30
0.0
 10
174.726247
 20
167.491059
 30
0.0
 10
174.770020
 20
167.410653
 30
0.0
 10
174.813454
 20
167.330023
 30
0.0
 10
174.856549
 20
167.249222
 30
0.0
 10
174.939720
 20
167.270728
 30
0.0
 10
175.023568
 20
167.290878
 30
0.0
 10
175.108037
 20
167.309815
 30
0.0
 10
175.193099
 20
167.327539
 30
0.0
 10
175.278754
 20
167.344134
 30
0.0
 10
175.364944
 20
167.359599
 30
0.0
 10
175.451671
 20
167.373993
 30
0.0
 10
175.538906
 20
167.387370
 30
0.0
 10
175.626621
 20
167.399703
 30
0.0
 10
175.714787
 20
167.411020
 30
0.0
 10
175.803433
 20
167.421378
 30
0.0
 10
175.892531
 20
167.430776
 30
0.0
 10
175.982051
 20
167.439214
 30
0.0
 10
176.071967
 20
167.446721
 30
0.0
 10
176.162307
 20
167.453325
 30
0.0
 10
176.253041
 20
167.458998
 30
0.0
 10
176.344171
 20
167.463796
 30
0.0
 10
176.435667
 20
167.467719
 30
0.0
 10
176.527531
 20
167.470767
 30
0.0
 10
176.562018
 20
167.401255
 30
0.0
 10
176.596280
 20
167.331659
 30
0.0
 10
176.630288
 20
167.261922
 30
0.0
 10
176.664070
 20
167.192072
 30
0.0
 10
176.697626
 20
167.122109
 30
0.0
 10
176.730928
 20
167.052062
 30
0.0
 10
176.764005
 20
166.981873
 30
0.0
 10
176.796827
 20
166.911572
 30
0.0
 10
176.737165
 20
166.841665
 30
0.0
 10
176.677052
 20
166.772549
 30
0.0
 10
176.616487
 20
166.704308
 30
0.0
 10
176.555471
 20
166.636913
 30
0.0
 10
176.494003
 20
166.570393
 30
0.0
 10
176.432055
 20
166.504748
 30
0.0
 10
176.369627
 20
166.440035
 30
0.0
 10
176.306748
 20
166.376253
 30
0.0
 10
176.243389
 20
166.313402
 30
0.0
 10
176.179551
 20
166.251510
 30
0.0
 10
176.115204
 20
166.190635
 30
0.0
 10
176.050377
 20
166.130747
 30
0.0
 10
175.985071
 20
166.071932
 30
0.0
 10
175.919229
 20
166.014190
 30
0.0
 10
175.852850
 20
165.957576
 30
0.0
 10
175.785935
 20
165.902119
 30
0.0
 10
175.718484
 20
165.847876
 30
0.0
 10
175.650440
 20
165.794903
 30
0.0
 10
175.581776
 20
165.743256
 30
0.0
 10
175.618098
 20
165.659211
 30
0.0
 10
175.654025
 20
165.574967
 30
0.0
 10
175.689613
 20
165.490611
 30
0.0
 10
175.724834
 20
165.406085
 30
0.0
 10
175.759689
 20
165.321419
 30
0.0
 10
175.794176
 20
165.236611
 30
0.0
 10
175.828325
 20
165.151634
 30
0.0
 10
175.862107
 20
165.066516
 30
0.0
 10
175.947141
 20
165.078567
 30
0.0
 10
176.032739
 20
165.089206
 30
0.0
 10
176.118788
 20
165.098548
 30
0.0
 10
176.205317
 20
165.106648
 30
0.0
 10
176.292270
 20
165.113534
 30
0.0
 10
176.379674
 20
165.119263
 30
0.0
 10
176.467445
 20
165.123863
 30
0.0
 10
176.555640
 20
165.127363
 30
0.0
 10
176.644173
 20
165.129903
 30
0.0
 10
176.733073
 20
165.131314
 30
0.0
 10
176.822312
 20
165.131596
 30
0.0
 10
176.911889
 20
165.131032
 30
0.0
 10
177.001777
 20
165.129338
 30
0.0
 10
177.092003
 20
165.126798
 30
0.0
 10
177.182512
 20
165.123242
 30
0.0
 10
177.273303
 20
165.118727
 30
0.0
 10
177.364404
 20
165.113308
 30
0.0
 10
177.455759
 20
165.106930
 30
0.0
 10
177.547397
 20
165.099677
 30
0.0
 10
177.573869
 20
165.026751
 30
0.0
 10
177.600116
 20
164.953740
 30
0.0
 10
177.626109
 20
164.880644
 30
0.0
 10
177.651847
 20
164.807464
 30
0.0
 10
177.677360
 20
164.734199
 30
0.0
 10
177.702619
 20
164.660821
 30
0.0
 10
177.727624
 20
164.587387
 30
0.0
 10
177.752375
 20
164.513868
 30
0.0
 10
177.685263
 20
164.451045
 30
0.0
 10
177.617811
 20
164.389126
 30
0.0
 10
177.549965
 20
164.328081
 30
0.0
 10
177.481780
 20
164.267940
 30
0.0
 10
177.413257
 20
164.208729
 30
0.0
 10
177.344338
 20
164.150451
 30
0.0
 10
177.275081
 20
164.093103
 30
0.0
 10
177.205428
 20
164.036771
 30
0.0
 10
177.135437
 20
163.981399
 30
0.0
 10
177.065079
 20
163.927072
 30
0.0
 10
176.994326
 20
163.873760
 30
0.0
 10
176.923206
 20
163.821521
 30
0.0
 10
176.851691
 20
163.770382
 30
0.0
 10
176.779809
 20
163.720372
 30
0.0
 10
176.707532
 20
163.671548
 30
0.0
 10
176.634831
 20
163.623909
 30
0.0
 10
176.561708
 20
163.577568
 30
0.0
 10
176.488161
 20
163.532553
 30
0.0
 10
176.414162
 20
163.488922
 30
0.0
 10
176.440832
 20
163.401320
 30
0.0
 10
176.467107
 20
163.313605
 30
0.0
 10
176.493015
 20
163.225806
 30
0.0
 10
176.518556
 20
163.137865
 30
0.0
 10
176.543730
 20
163.049812
 30
0.0
 10
176.568509
 20
162.961674
 30
0.0
 10
176.592921
 20
162.873423
 30
0.0
 10
176.616939
 20
162.785059
 30
0.0
 10
176.702819
 20
162.787599
 30
0.0
 10
176.789038
 20
162.788728
 30
0.0
 10
176.875595
 20
162.788446
 30
0.0
 10
176.962491
 20
162.786753
 30
0.0
 10
177.049698
 20
162.783874
 30
0.0
 10
177.137159
 20
162.779782
 30
0.0
 10
177.224902
 20
162.774533
 30
0.0
 10
177.312927
 20
162.768126
 30
0.0
 10
177.401178
 20
162.760647
 30
0.0
 10
177.489683
 20
162.752068
 30
0.0
 10
177.578413
 20
162.742416
 30
0.0
 10
177.667341
 20
162.731748
 30
0.0
 10
177.756495
 20
162.720064
 30
0.0
 10
177.845847
 20
162.707392
 30
0.0
 10
177.935396
 20
162.693704
 30
0.0
 10
178.025115
 20
162.679085
 30
0.0
 10
178.115031
 20
162.663478
 30
0.0
 10
178.205088
 20
162.646940
 30
0.0
 10
178.295342
 20
162.629442
 30
0.0
 10
178.313489
 20
162.554032
 30
0.0
 10
178.331382
 20
162.478538
 30
0.0
 10
178.349049
 20
162.402987
 30
0.0
 10
178.366434
 20
162.327380
 30
0.0
 10
178.383565
 20
162.251716
 30
0.0
 10
178.400442
 20
162.175996
 30
0.0
 10
178.417065
 20
162.100219
 30
0.0
 10
178.433434
 20
162.024358
 30
0.0
 10
178.359717
 20
161.969465
 30
0.0
 10
178.285747
 20
161.915476
 30
0.0
 10
178.211522
 20
161.862419
 30
0.0
 10
178.137016
 20
161.810292
 30
0.0
 10
178.062283
 20
161.759125
 30
0.0
 10
177.987269
 20
161.708918
 30
0.0
 10
177.912028
 20
161.659698
 30
0.0
 10
177.836534
 20
161.611523
 30
0.0
 10
177.760757
 20
161.564335
 30
0.0
 10
177.684755
 20
161.518220
 30
0.0
 10
177.608498
 20
161.473178
 30
0.0
 10
177.531959
 20
161.429207
 30
0.0
 10
177.455195
 20
161.386423
 30
0.0
 10
177.378148
 20
161.344767
 30
0.0
 10
177.300848
 20
161.304324
 30
0.0
 10
177.223293
 20
161.265152
 30
0.0
 10
177.145428
 20
161.227277
 30
0.0
 10
177.067309
 20
161.190786
 30
0.0
 10
176.988879
 20
161.155706
 30
0.0
 10
177.005587
 20
161.065677
 30
0.0
 10
177.021871
 20
160.975563
 30
0.0
 10
177.037788
 20
160.885393
 30
0.0
 10
177.053311
 20
160.795167
 30
0.0
 10
177.068466
 20
160.704856
 30
0.0
 10
177.083226
 20
160.614488
 30
0.0
 10
177.097591
 20
160.524064
 30
0.0
 10
177.111589
 20
160.433556
 30
0.0
 10
177.197187
 20
160.426359
 30
0.0
 10
177.282983
 20
160.417723
 30
0.0
 10
177.368976
 20
160.407676
 30
0.0
 10
177.455139
 20
160.396331
 30
0.0
 10
177.541442
 20
160.383687
 30
0.0
 10
177.627915
 20
160.369830
 30
0.0
 10
177.714529
 20
160.354787
 30
0.0
 10
177.801256
 20
160.338560
 30
0.0
 10
177.888124
 20
160.321231
 30
0.0
 10
177.975105
 20
160.302802
 30
0.0
 10
178.062199
 20
160.283301
 30
0.0
 10
178.149377
 20
160.262755
 30
0.0
 10
178.236668
 20
160.241137
 30
0.0
 10
178.324044
 20
160.218531
 30
0.0
 10
178.411477
 20
160.194937
 30
0.0
 10
178.499022
 20
160.170327
 30
0.0
 10
178.586596
 20
160.144758
 30
0.0
 10
178.674254
 20
160.118229
 30
0.0
 10
178.761969
 20
160.090769
 30
0.0
 10
178.771564
 20
160.013778
 30
0.0
 10
178.780906
 20
159.936760
 30
0.0
 10
178.789993
 20
159.859713
 30
0.0
 10
178.798799
 20
159.782638
 30
0.0
 10
178.807350
 20
159.705507
 30
0.0
 10
178.815647
 20
159.628376
 30
0.0
 10
178.823691
 20
159.551216
 30
0.0
 10
178.831480
 20
159.474028
 30
0.0
 10
178.752063
 20
159.427716
 30
0.0
 10
178.672504
 20
159.382363
 30
0.0
 10
178.592805
 20
159.337941
 30
0.0
 10
178.512936
 20
159.294479
 30
0.0
 10
178.432926
 20
159.252004
 30
0.0
 10
178.352803
 20
159.210517
 30
0.0
 10
178.272511
 20
159.170047
 30
0.0
 10
178.192077
 20
159.130592
 30
0.0
 10
178.111503
 20
159.092210
 30
0.0
 10
178.030815
 20
159.054872
 30
0.0
 10
177.949987
 20
159.018663
 30
0.0
 10
177.869017
 20
158.983554
 30
0.0
 10
177.787935
 20
158.949603
 30
0.0
 10
177.706711
 20
158.916837
 30
0.0
 10
177.625375
 20
158.885313
 30
0.0
 10
177.543897
 20
158.855087
 30
0.0
 10
177.462307
 20
158.826159
 30
0.0
 10
177.380575
 20
158.798642
 30
0.0
 10
177.298731
 20
158.772565
 30
0.0
 10
177.305222
 20
158.681238
 30
0.0
 10
177.311346
 20
158.589883
 30
0.0
 10
177.317075
 20
158.498471
 30
0.0
 10
177.322409
 20
158.407059
 30
0.0
 10
177.327320
 20
158.315647
 30
0.0
 10
177.331892
 20
158.224179
 30
0.0
 10
177.336041
 20
158.132711
 30
0.0
 10
177.339794
 20
158.041214
 30
0.0
  0
SPLINE
  5
143
100
AcDbEntity
  8
Layer_1
 62
7
100
AcDbSpline
 70
8
 71
3
 72
8
 73
4
 74
0
 40
0
 40
0
 40
0
 40
0
 40
1
 40
1
 40
1
 40
1
 10
-3.889375
 20
301.480278
 30
0.0
 10
-7.074603
 20
301.480278
 30
0.0
 10
-9.657292
 20
298.897589
 30
0.0
 10
-9.657292
 20
295.712361
 30
0.0
  0
SPLINE
  5
144
100
AcDbEntity
  8
Layer_1
 62
7
100
AcDbSpline
 70
8
 71
3
 72
8
 73
4
 74
0
 40
0
 40
0
 40
0
 40
0
 40
1
 40
1
 40
1
 40
1
 10
-9.657292
 20
295.712361
 30
0.0
 10
-9.657292
 20
292.997011
 30
0.0
 10
-7.783339
 20
290.724741
 30
0.0
 10
-5.256389
 20
290.112014
 30
0.0
  0
SPLINE
  5
145
100
AcDbEntity
  8
Layer_1
 62
7
100
AcDbSpline
 70
8
 71
3
 72
8
 73
4
 74
0
 40
0
 40
0
 40
0
 40
0
 40
1
 40
1
 40
1
 40
1
 10
-5.256389
 20
290.112014
 30
0.0
 10
-5.963978
 20
286.313420
 30
0.0
 10
-6.867101
 20
281.121639
 30
0.0
 10
-7.567083
 20
275.965625
 30
0.0
  0
SPLINE
  5
146
100
AcDbEntity
  8
Layer_1
 62
7
100
AcDbSpline
 70
8
 71
3
 72
8
 73
4
 74
0
 40
0
 40
0
 40
0
 40
0
 40
1
 40
1
 40
1
 40
1
 10
-7.567083
 20
275.965625
 30
0.0
 10
-6.545803
 20
276.220040
 30
0.0
 10
-5.483301
 20
276.353681
 30
0.0
 10
-4.383264
 20
276.353681
 30
0.0
  0
SPLINE
  5
147
100
AcDbEntity
  8
Layer_1
 62
7
100
AcDbSpline
 70
8
 71
3
 72
8
 73
4
 74
0
 40
0
 40
0
 40
0
 40
0
 40
1
 40
1
 40
1
 40
1
 10
-4.383264
 20
276.353681
 30
0.0
 10
-1.180500
 20
276.353681
 30
0.0
 10
1.756835
 20
275.213013
 30
0.0
 10
4.039306
 20
273.310972
 30
0.0
  0
SPLINE
  5
148
100
AcDbEntity
  8
Layer_1
 62
7
100
AcDbSpline
 70
8
 71
3
 72
8
 73
4
 74
0
 40
0
 40
0
 40
0
 40
0
 40
1
 40
1
 40
1
 40
1
 10
4.039306
 20
273.310972
 30
0.0
 10
8.017255
 20
282.968275
 30
0.0
 10
17.526526
 20
289.768056
 30
0.0
 10
28.619097
 20
289.768056
 30
0.0
  0
SPLINE
  5
149
100
AcDbEntity
  8
Layer_1
 62
7
100
AcDbSpline
 70
8
 71
3
 72
8
 73
4
 74
0
 40
0
 40
0
 40
0
 40
0
 40
1
 40
1
 40
1
 40
1
 10
28.619097
 20
289.768056
 30
0.0
 10
43.291847
 20
289.768056
 30
0.0
 10
55.183264
 20
277.876640
 30
0.0
 10
55.183264
 20
263.203889
 30
0.0
  0
SPLINE
  5
14a
100
AcDbEntity
  8
Layer_1
 62
7
100
AcDbSpline
 70
8
 71
3
 72
8
 73
4
 74
0
 40
0
 40
0
 40
0
 40
0
 40
1
 40
1
 40
1
 40
1
 10
55.183264
 20
263.203889
 30
0.0
 10
55.183264
 20
248.531139
 30
0.0
 10
43.291847
 20
236.630903
 30
0.0
 10
28.619097
 20
236.630903
 30
0.0
  0
SPLINE
  5
14b
100
AcDbEntity
  8
Layer_1
 62
7
100
AcDbSpline
 70
8
 71
3
 72
8
 73
4
 74
0
 40
0
 40
0
 40
0
 40
0
 40
1
 40
1
 40
1
 40
1
 10
28.619097
 20
236.630903
 30
0.0
 10
17.523643
 20
236.630903
 30
0.0
 10
8.015415
 20
243.435506
 30
0.0
 10
4.039306
 20
253.096806
 30
0.0
  0
SPLINE
  5
14c
100
AcDbEntity
  8
Layer_1
 62
7
100
AcDbSpline
 70
8
 71
3
 72
8
 73
4
 74
0
 40
0
 40
0
 40
0
 40
0
 40
1
 40
1
 40
1
 40
1
 10
4.039306
 20
253.096806
 30
0.0
 10
1.756835
 20
251.194763
 30
0.0
 10
-1.180500
 20
250.054097
 30
0.0
 10
-4.383264
 20
250.054097
 30
0.0
  0
SPLINE
  5
14d
100
AcDbEntity
  8
Layer_1
 62
7
100
AcDbSpline
 70
8
 71
3
 72
8
 73
4
 74
0
 40
0
 40
0
 40
0
 40
0
 40
1
 40
1
 40
1
 40
1
 10
-4.383264
 20
250.054097
 30
0.0
 10
-5.483882
 20
250.054097
 30
0.0
 10
-6.545314
 20
250.187478
 30
0.0
 10
-7.567083
 20
250.442153
 30
0.0
  0
SPLINE
  5
14e
100
AcDbEntity
  8
Layer_1
 62
7
100
AcDbSpline
 70
8
 71
3
 72
8
 73
4
 74
0
 40
0
 40
0
 40
0
 40
0
 40
1
 40
1
 40
1
 40
1
 10
-7.567083
 20
250.442153
 30
0.0
 10
-6.869679
 20
245.289164
 30
0.0
 10
-5.972361
 20
240.095468
 30
0.0
 10
-5.265208
 20
236.295764
 30
0.0
  0
SPLINE
  5
14f
100
AcDbEntity
  8
Layer_1
 62
7
100
AcDbSpline
 70
8
 71
3
 72
8
 73
4
 74
0
 40
0
 40
0
 40
0
 40
0
 40
1
 40
1
 40
1
 40
1
 10
-5.265208
 20
236.295764
 30
0.0
 10
-7.788261
 20
235.680274
 30
0.0
 10
-9.657292
 20
233.408001
 30
0.0
 10
-9.657292
 20
230.695417
 30
0.0
  0
SPLINE
  5
150
100
AcDbEntity
  8
Layer_1
 62
7
100
AcDbSpline
 70
8
 71
3
 72
8
 73
4
 74
0
 40
0
 40
0
 40
0
 40
0
 40
1
 40
1
 40
1
 40
1
 10
-9.657292
 20
230.695417
 30
0.0
 10
-9.657292
 20
227.510189
 30
0.0
 10
-7.074603
 20
224.927500
 30
0.0
 10
-3.889375
 20
224.927500
 30
0.0
  0
SPLINE
  5
151
100
AcDbEntity
  8
Layer_1
 62
7
100
AcDbSpline
 70
8
 71
3
 72
8
 73
4
 74
0
 40
0
 40
0
 40
0
 40
0
 40
1
 40
1
 40
1
 40
1
 10
-3.889375
 20
224.927500
 30
0.0
 10
-1.176790
 20
224.927500
 30
0.0
 10
1.095482
 20
226.796531
 30
0.0
 10
1.710972
 20
229.319583
 30
0.0
  0
SPLINE
  5
152
100
AcDbEntity
  8
Layer_1
 62
7
100
AcDbSpline
 70
8
 71
3
 72
8
 73
4
 74
0
 40
0
 40
0
 40
0
 40
0
 40
1
 40
1
 40
1
 40
1
 10
1.710972
 20
229.319583
 30
0.0
 10
8.923065
 20
227.977363
 30
0.0
 10
21.160904
 20
225.924097
 30
0.0
 10
28.619097
 20
225.924097
 30
0.0
  0
SPLINE
  5
153
100
AcDbEntity
  8
Layer_1
 62
7
100
AcDbSpline
 70
8
 71
3
 72
8
 73
4
 74
0
 40
0
 40
0
 40
0
 40
0
 40
1
 40
1
 40
1
 40
1
 10
28.619097
 20
225.924097
 30
0.0
 10
36.077294
 20
225.924097
 30
0.0
 10
48.315129
 20
227.977363
 30
0.0
 10
55.527222
 20
229.319583
 30
0.0
  0
SPLINE
  5
154
100
AcDbEntity
  8
Layer_1
 62
7
100
AcDbSpline
 70
8
 71
3
 72
8
 73
4
 74
0
 40
0
 40
0
 40
0
 40
0
 40
1
 40
1
 40
1
 40
1
 10
55.527222
 20
229.319583
 30
0.0
 10
56.142873
 20
226.796759
 30
0.0
 10
58.415149
 20
224.927500
 30
0.0
 10
61.127569
 20
224.927500
 30
0.0
  0
SPLINE
  5
155
100
AcDbEntity
  8
Layer_1
 62
7
100
AcDbSpline
 70
8
 71
3
 72
8
 73
4
 74
0
 40
0
 40
0
 40
0
 40
0
 40
1
 40
1
 40
1
 40
1
 10
61.127569
 20
224.927500
 30
0.0
 10
64.312797
 20
224.927500
 30
0.0
 10
66.895486
 20
227.510189
 30
0.0
 10
66.895486
 20
230.695417
 30
0.0
  0
SPLINE
  5
156
100
AcDbEntity
  8
Layer_1
 62
7
100
AcDbSpline
 70
8
 71
3
 72
8
 73
4
 74
0
 40
0
 40
0
 40
0
 40
0
 40
1
 40
1
 40
1
 40
1
 10
66.895486
 20
230.695417
 30
0.0
 10
66.895486
 20
233.405718
 30
0.0
 10
65.023238
 20
235.678005
 30
0.0
 10
62.503403
 20
236.295764
 30
0.0
  0
SPLINE
  5
157
100
AcDbEntity
  8
Layer_1
 62
7
100
AcDbSpline
 70
8
 71
3
 72
8
 73
4
 74
0
 40
0
 40
0
 40
0
 40
0
 40
1
 40
1
 40
1
 40
1
 10
62.503403
 20
236.295764
 30
0.0
 10
63.845623
 20
243.507857
 30
0.0
 10
65.898889
 20
255.745693
 30
0.0
 10
65.898889
 20
263.203889
 30
0.0
  0
SPLINE
  5
158
100
AcDbEntity
  8
Layer_1
 62
7
100
AcDbSpline
 70
8
 71
3
 72
8
 73
4
 74
0
 40
0
 40
0
 40
0
 40
0
 40
1
 40
1
 40
1
 40
1
 10
65.898889
 20
263.203889
 30
0.0
 10
65.898889
 20
270.662085
 30
0.0
 10
63.845623
 20
282.899921
 30
0.0
 10
62.503403
 20
290.112014
 30
0.0
  0
SPLINE
  5
159
100
AcDbEntity
  8
Layer_1
 62
7
100
AcDbSpline
 70
8
 71
3
 72
8
 73
4
 74
0
 40
0
 40
0
 40
0
 40
0
 40
1
 40
1
 40
1
 40
1
 10
62.503403
 20
290.112014
 30
0.0
 10
65.023043
 20
290.729911
 30
0.0
 10
66.895486
 20
293.002198
 30
0.0
 10
66.895486
 20
295.712361
 30
0.0
  0
SPLINE
  5
15a
100
AcDbEntity
  8
Layer_1
 62
7
100
AcDbSpline
 70
8
 71
3
 72
8
 73
4
 74
0
 40
0
 40
0
 40
0
 40
0
 40
1
 40
1
 40
1
 40
1
 10
66.895486
 20
295.712361
 30
0.0
 10
66.895486
 20
298.897589
 30
0.0
 10
64.312797
 20
301.480278
 30
0.0
 10
61.127569
 20
301.480278
 30
0.0
  0
SPLINE
  5
15b
100
AcDbEntity
  8
Layer_1
 62
7
100
AcDbSpline
 70
8
 71
3
 72
8
 73
4
 74
0
 40
0
 40
0
 40
0
 40
0
 40
1
 40
1
 40
1
 40
1
 10
61.127569
 20
301.480278
 30
0.0
 10
58.417406
 20
301.480278
 30
0.0
 10
56.145120
 20
299.607835
 30
0.0
 10
55.527222
 20
297.088194
 30
0.0
  0
SPLINE
  5
15c
100
AcDbEntity
  8
Layer_1
 62
7
100
AcDbSpline
 70
8
 71
3
 72
8
 73
4
 74
0
 40
0
 40
0
 40
0
 40
0
 40
1
 40
1
 40
1
 40
1
 10
55.527222
 20
297.088194
 30
0.0
 10
48.315129
 20
298.430415
 30
0.0
 10
36.077294
 20
300.483681
 30
0.0
 10
28.619097
 20
300.483681
 30
0.0
  0
SPLINE
  5
15d
100
AcDbEntity
  8
Layer_1
 62
7
100
AcDbSpline
 70
8
 71
3
 72
8
 73
4
 74
0
 40
0
 40
0
 40
0
 40
0
 40
1
 40
1
 40
1
 40
1
 10
28.619097
 20
300.483681
 30
0.0
 10
21.159414
 20
300.483681
 30
0.0
 10
8.921770
 20
298.422451
 30
0.0
 10
1.710972
 20
297.079375
 30
0.0
  0
SPLINE
  5
15e
100
AcDbEntity
  8
Layer_1
 62
7
100
AcDbSpline
 70
8
 71
3
 72
8
 73
4
 74
0
 40
0
 40
0
 40
0
 40
0
 40
1
 40
1
 40
1
 40
1
 10
1.710972
 20
297.079375
 30
0.0
 10
1.096256
 20
299.603517
 30
0.0
 10
-1.176017
 20
301.480278
 30
0.0
 10
-3.889375
 20
301.480278
 30
0.0
  0
LWPOLYLINE
  5
15f
100
AcDbEntity
  8
Layer_1
 62
7
100
AcDbPolyline
 90
2
 70
0
 10
44.005754
 20
252.633123
 30
0.0
 10
155.925901
 20
157.205470
 30
0.0
  0
SPLINE
  5
160
100
AcDbEntity
  8
Layer_1
 62
7
100
AcDbSpline
 70
8
 71
3
 72
8
 73
4
 74
0
 40
0
 40
0
 40
0
 40
0
 40
1
 40
1
 40
1
 40
1
 10
-1.506312
 20
295.711873
 30
0.0
 10
-1.506312
 20
294.887038
 30
0.0
 10
-1.961041
 20
294.124859
 30
0.0
 10
-2.699207
 20
293.712442
 30
0.0
  0
SPLINE
  5
161
100
AcDbEntity
  8
Layer_1
 62
7
100
AcDbSpline
 70
8
 71
3
 72
8
 73
4
 74
0
 40
0
 40
0
 40
0
 40
0
 40
1
 40
1
 40
1
 40
1
 10
-2.699207
 20
293.712442
 30
0.0
 10
-3.437373
 20
293.300025
 30
0.0
 10
-4.346832
 20
293.300025
 30
0.0
 10
-5.084998
 20
293.712442
 30
0.0
  0
SPLINE
  5
162
100
AcDbEntity
  8
Layer_1
 62
7
100
AcDbSpline
 70
8
 71
3
 72
8
 73
4
 74
0
 40
0
 40
0
 40
0
 40
0
 40
1
 40
1
 40
1
 40
1
 10
-5.084998
 20
293.712442
 30
0.0
 10
-5.823164
 20
294.124859
 30
0.0
 10
-6.277893
 20
294.887038
 30
0.0
 10
-6.277893
 20
295.711873
 30
0.0
  0
SPLINE
  5
163
100
AcDbEntity
  8
Layer_1
 62
7
100
AcDbSpline
 70
8
 71
3
 72
8
 73
4
 74
0
 40
0
 40
0
 40
0
 40
0
 40
1
 40
1
 40
1
 40
1
 10
-6.277893
 20
295.711873
 30
0.0
 10
-6.277893
 20
296.536708
 30
0.0
 10
-5.823164
 20
297.298887
 30
0.0
 10
-5.084998
 20
297.711304
 30
0.0
  0
SPLINE
  5
164
100
AcDbEntity
  8
Layer_1
 62
7
100
AcDbSpline
 70
8
 71
3
 72
8
 73
4
 74
0
 40
0
 40
0
 40
0
 40
0
 40
1
 40
1
 40
1
 40
1
 10
-5.084998
 20
297.711304
 30
0.0
 10
-4.346832
 20
298.123722
 30
0.0
 10
-3.437373
 20
298.123722
 30
0.0
 10
-2.699207
 20
297.711304
 30
0.0
  0
SPLINE
  5
165
100
AcDbEntity
  8
Layer_1
 62
7
100
AcDbSpline
 70
8
 71
3
 72
8
 73
4
 74
0
 40
0
 40
0
 40
0
 40
0
 40
1
 40
1
 40
1
 40
1
 10
-2.699207
 20
297.711304
 30
0.0
 10
-1.961041
 20
297.298887
 30
0.0
 10
-1.506312
 20
296.536708
 30
0.0
 10
-1.506312
 20
295.711873
 30
0.0
  0
LWPOLYLINE
  5
166
100
AcDbEntity
  8
Layer_1
 62
7
100
AcDbPolyline
 90
2
 70
0
 10
-3.889375
 20
301.480278
 30
0.0
 10
-3.889375
 20
301.480278
 30
0.0
  0
SPLINE
  5
167
100
AcDbEntity
  8
Layer_1
 62
7
100
AcDbSpline
 70
8
 71
3
 72
8
 73
4
 74
0
 40
0
 40
0
 40
0
 40
0
 40
1
 40
1
 40
1
 40
1
 10
63.512202
 20
230.693357
 30
0.0
 10
63.512202
 20
229.868522
 30
0.0
 10
63.057473
 20
229.106343
 30
0.0
 10
62.319306
 20
228.693926
 30
0.0
  0
SPLINE
  5
168
100
AcDbEntity
  8
Layer_1
 62
7
100
AcDbSpline
 70
8
 71
3
 72
8
 73
4
 74
0
 40
0
 40
0
 40
0
 40
0
 40
1
 40
1
 40
1
 40
1
 10
62.319306
 20
228.693926
 30
0.0
 10
61.581140
 20
228.281508
 30
0.0
 10
60.671682
 20
228.281508
 30
0.0
 10
59.933516
 20
228.693926
 30
0.0
  0
SPLINE
  5
169
100
AcDbEntity
  8
Layer_1
 62
7
100
AcDbSpline
 70
8
 71
3
 72
8
 73
4
 74
0
 40
0
 40
0
 40
0
 40
0
 40
1
 40
1
 40
1
 40
1
 10
59.933516
 20
228.693926
 30
0.0
 10
59.195349
 20
229.106343
 30
0.0
 10
58.740620
 20
229.868522
 30
0.0
 10
58.740620
 20
230.693357
 30
0.0
  0
SPLINE
  5
16a
100
AcDbEntity
  8
Layer_1
 62
7
100
AcDbSpline
 70
8
 71
3
 72
8
 73
4
 74
0
 40
0
 40
0
 40
0
 40
0
 40
1
 40
1
 40
1
 40
1
 10
58.740620
 20
230.693357
 30
0.0
 10
58.740620
 20
231.518192
 30
0.0
 10
59.195349
 20
232.280370
 30
0.0
 10
59.933516
 20
232.692788
 30
0.0
  0
SPLINE
  5
16b
100
AcDbEntity
  8
Layer_1
 62
7
100
AcDbSpline
 70
8
 71
3
 72
8
 73
4
 74
0
 40
0
 40
0
 40
0
 40
0
 40
1
 40
1
 40
1
 40
1
 10
59.933516
 20
232.692788
 30
0.0
 10
60.671682
 20
233.105205
 30
0.0
 10
61.581140
 20
233.105205
 30
0.0
 10
62.319306
 20
232.692788
 30
0.0
  0
SPLINE
  5
16c
100
AcDbEntity
  8
Layer_1
 62
7
100
AcDbSpline
 70
8
 71
3
 72
8
 73
4
 74
0
 40
0
 40
0
 40
0
 40
0
 40
1
 40
1
 40
1
 40
1
 10
62.319306
 20
232.692788
 30
0.0
 10
63.057473
 20
232.280370
 30
0.0
 10
63.512202
 20
231.518192
 30
0.0
 10
63.512202
 20
230.693357
 30
0.0
  0
LWPOLYLINE
  5
16d
100
AcDbEntity
  8
Layer_1
 62
7
100
AcDbPolyline
 90
2
 70
1
 10
-1.506312
 20
295.711873
 30
0.0
 10
-1.506312
 20
295.711873
 30
0.0
  0
SPLINE
  5
16e
100
AcDbEntity
  8
Layer_1
 62
7
100
AcDbSpline
 70
8
 71
3
 72
8
 73
4
 74
0
 40
0
 40
0
 40
0
 40
0
 40
1
 40
1
 40
1
 40
1
 10
-1.506312
 20
230.693357
 30
0.0
 10
-1.506312
 20
229.868522
 30
0.0
 10
-1.961041
 20
229.106343
 30
0.0
 10
-2.699207
 20
228.693926
 30
0.0
  0
SPLINE
  5
16f
100
AcDbEntity
  8
Layer_1
 62
7
100
AcDbSpline
 70
8
 71
3
 72
8
 73
4
 74
0
 40
0
 40
0
 40
0
 40
0
 40
1
 40
1
 40
1
 40
1
 10
-2.699207
 20
228.693926
 30
0.0
 10
-3.437373
 20
228.281508
 30
0.0
 10
-4.346832
 20
228.281508
 30
0.0
 10
-5.084998
 20
228.693926
 30
0.0
  0
SPLINE
  5
170
100
AcDbEntity
  8
Layer_1
 62
7
100
AcDbSpline
 70
8
 71
3
 72
8
 73
4
 74
0
 40
0
 40
0
 40
0
 40
0
 40
1
 40
1
 40
1
 40
1
 10
-5.084998
 20
228.693926
 30
0.0
 10
-5.823164
 20
229.106343
 30
0.0
 10
-6.277893
 20
229.868522
 30
0.0
 10
-6.277893
 20
230.693357
 30
0.0
  0
SPLINE
  5
171
100
AcDbEntity
  8
Layer_1
 62
7
100
AcDbSpline
 70
8
 71
3
 72
8
 73
4
 74
0
 40
0
 40
0
 40
0
 40
0
 40
1
 40
1
 40
1
 40
1
 10
-6.277893
 20
230.693357
 30
0.0
 10
-6.277893
 20
231.518192
 30
0.0
 10
-5.823164
 20
232.280370
 30
0.0
 10
-5.084998
 20
232.692788
 30
0.0
  0
SPLINE
  5
172
100
AcDbEntity
  8
Layer_1
 62
7
100
AcDbSpline
 70
8
 71
3
 72
8
 73
4
 74
0
 40
0
 40
0
 40
0
 40
0
 40
1
 40
1
 40
1
 40
1
 10
-5.084998
 20
232.692788
 30
0.0
 10
-4.346832
 20
233.105205
 30
0.0
 10
-3.437373
 20
233.105205
 30
0.0
 10
-2.699207
 20
232.692788
 30
0.0
  0
SPLINE
  5
173
100
AcDbEntity
  8
Layer_1
 62
7
100
AcDbSpline
 70
8
 71
3
 72
8
 73
4
 74
0
 40
0
 40
0
 40
0
 40
0
 40
1
 40
1
 40
1
 40
1
 10
-2.699207
 20
232.692788
 30
0.0
 10
-1.961041
 20
232.280370
 30
0.0
 10
-1.506312
 20
231.518192
 30
0.0
 10
-1.506312
 20
230.693357
 30
0.0
  0
LWPOLYLINE
  5
174
100
AcDbEntity
  8
Layer_1
 62
7
100
AcDbPolyline
 90
2
 70
1
 10
63.512202
 20
230.693357
 30
0.0
 10
63.512202
 20
230.693357
 30
0.0
  0
SPLINE
  5
175
100
AcDbEntity
  8
Layer_1
 62
7
100
AcDbSpline
 70
8
 71
3
 72
8
 73
4
 74
0
 40
0
 40
0
 40
0
 40
0
 40
1
 40
1
 40
1
 40
1
 10
63.512202
 20
295.711870
 30
0.0
 10
63.512202
 20
294.887035
 30
0.0
 10
63.057473
 20
294.124857
 30
0.0
 10
62.319306
 20
293.712439
 30
0.0
  0
SPLINE
  5
176
100
AcDbEntity
  8
Layer_1
 62
7
100
AcDbSpline
 70
8
 71
3
 72
8
 73
4
 74
0
 40
0
 40
0
 40
0
 40
0
 40
1
 40
1
 40
1
 40
1
 10
62.319306
 20
293.712439
 30
0.0
 10
61.581140
 20
293.300022
 30
0.0
 10
60.671682
 20
293.300022
 30
0.0
 10
59.933516
 20
293.712439
 30
0.0
  0
SPLINE
  5
177
100
AcDbEntity
  8
Layer_1
 62
7
100
AcDbSpline
 70
8
 71
3
 72
8
 73
4
 74
0
 40
0
 40
0
 40
0
 40
0
 40
1
 40
1
 40
1
 40
1
 10
59.933516
 20
293.712439
 30
0.0
 10
59.195349
 20
294.124857
 30
0.0
 10
58.740620
 20
294.887035
 30
0.0
 10
58.740620
 20
295.711870
 30
0.0
  0
SPLINE
  5
178
100
AcDbEntity
  8
Layer_1
 62
7
100
AcDbSpline
 70
8
 71
3
 72
8
 73
4
 74
0
 40
0
 40
0
 40
0
 40
0
 40
1
 40
1
 40
1
 40
1
 10
58.740620
 20
295.711870
 30
0.0
 10
58.740620
 20
296.536705
 30
0.0
 10
59.195349
 20
297.298884
 30
0.0
 10
59.933516
 20
297.711301
 30
0.0
  0
SPLINE
  5
179
100
AcDbEntity
  8
Layer_1
 62
7
100
AcDbSpline
 70
8
 71
3
 72
8
 73
4
 74
0
 40
0
 40
0
 40
0
 40
0
 40
1
 40
1
 40
1
 40
1
 10
59.933516
 20
297.711301
 30
0.0
 10
60.671682
 20
298.123719
 30
0.0
 10
61.581140
 20
298.123719
 30
0.0
 10
62.319306
 20
297.711301
 30
0.0
  0
SPLINE
  5
17a
100
AcDbEntity
  8
Layer_1
 62
7
100
AcDbSpline
 70
8
 71
3
 72
8
 73
4
 74
0
 40
0
 40
0
 40
0
 40
0
 40
1
 40
1
 40
1
 40
1
 10
62.319306
 20
297.711301
 30
0.0
 10
63.057473
 20
297.298884
 30
0.0
 10
63.512202
 20
296.536705
 30
0.0
 10
63.512202
 20
295.711870
 30
0.0
  0
LWPOLYLINE
  5
17b
100
AcDbEntity
  8
Layer_1
 62
7
100
AcDbPolyline
 90
2
 70
1
 10
-1.506312
 20
230.693357
 30
0.0
 10
-1.506312
 20
230.693357
 30
0.0
  0
LWPOLYLINE
  5
17c
100
AcDbEntity
  8
Layer_1
 62
7
100
AcDbPolyline
 90
2
 70
1
 10
63.512202
 20
295.711870
 30
0.0
 10
63.512202
 20
295.711870
 30
0.0
  0
SPLINE
  5
17d
100
AcDbEntity
  8
Layer_1
 62
7
100
AcDbSpline
 70
8
 71
3
 72
8
 73
4
 74
0
 40
0
 40
0
 40
0
 40
0
 40
1
 40
1
 40
1
 40
1
 10
160.876022
 20
202.740590
 30
0.0
 10
160.876022
 20
201.225285
 30
0.0
 10
159.647625
 20
199.996891
 30
0.0
 10
158.132323
 20
199.996891
 30
0.0
  0
SPLINE
  5
17e
100
AcDbEntity
  8
Layer_1
 62
7
100
AcDbSpline
 70
8
 71
3
 72
8
 73
4
 74
0
 40
0
 40
0
 40
0
 40
0
 40
1
 40
1
 40
1
 40
1
 10
158.132323
 20
199.996891
 30
0.0
 10
156.617018
 20
199.996891
 30
0.0
 10
155.388623
 20
201.225285
 30
0.0
 10
155.388623
 20
202.740590
 30
0.0
  0
SPLINE
  5
17f
100
AcDbEntity
  8
Layer_1
 62
7
100
AcDbSpline
 70
8
 71
3
 72
8
 73
4
 74
0
 40
0
 40
0
 40
0
 40
0
 40
1
 40
1
 40
1
 40
1
 10
155.388623
 20
202.740590
 30
0.0
 10
155.388623
 20
204.255892
 30
0.0
 10
156.617018
 20
205.484290
 30
0.0
 10
158.132323
 20
205.484290
 30
0.0
  0
SPLINE
  5
180
100
AcDbEntity
  8
Layer_1
 62
7
100
AcDbSpline
 70
8
 71
3
 72
8
 73
4
 74
0
 40
0
 40
0
 40
0
 40
0
 40
1
 40
1
 40
1
 40
1
 10
158.132323
 20
205.484290
 30
0.0
 10
159.647625
 20
205.484290
 30
0.0
 10
160.876022
 20
204.255892
 30
0.0
 10
160.876022
 20
202.740590
 30
0.0
  0
LWPOLYLINE
  5
181
100
AcDbEntity
  8
Layer_1
 62
7
100
AcDbPolyline
 90
217
 70
1
 10
167.987805
 20
203.462228
 30
0.0
 10
168.134278
 20
203.472953
 30
0.0
 10
168.786494
 20
203.361193
 30
0.0
 10
169.591674
 20
203.028170
 30
0.0
 10
169.591674
 20
202.453001
 30
0.0
 10
168.786494
 20
202.119979
 30
0.0
 10
168.134278
 20
202.008219
 30
0.0
 10
167.987805
 20
202.018944
 30
0.0
 10
167.888463
 20
201.169737
 30
0.0
 10
168.033525
 20
201.146595
 30
0.0
 10
168.642561
 20
200.887233
 30
0.0
 10
169.348963
 20
200.377821
 30
0.0
 10
169.216318
 20
199.818175
 30
0.0
 10
168.356387
 20
199.679604
 30
0.0
 10
167.695705
 20
199.721373
 30
0.0
 10
167.555723
 20
199.765681
 30
0.0
 10
167.263341
 20
198.962195
 30
0.0
 10
167.399089
 20
198.906033
 30
0.0
 10
167.931925
 20
198.513461
 30
0.0
 10
168.501732
 20
197.854755
 30
0.0
 10
168.243498
 20
197.340828
 30
0.0
 10
167.374818
 20
197.404328
 30
0.0
 10
166.741794
 20
197.597368
 30
0.0
 10
166.615641
 20
197.672721
 30
0.0
 10
166.145741
 20
196.958417
 30
0.0
 10
166.264838
 20
196.872339
 30
0.0
 10
166.692687
 20
196.367444
 30
0.0
 10
167.095418
 20
195.595001
 30
0.0
 10
166.725707
 20
195.154453
 30
0.0
 10
165.895127
 20
195.416919
 30
0.0
 10
165.323627
 20
195.750506
 30
0.0
 10
165.218076
 20
195.852953
 30
0.0
 10
164.596341
 20
195.266213
 30
0.0
 10
164.692296
 20
195.155017
 30
0.0
 10
164.992298
 20
194.565173
 30
0.0
 10
165.205941
 20
193.720481
 30
0.0
 10
164.744789
 20
193.377299
 30
0.0
 10
163.996901
 20
193.824057
 30
0.0
 10
163.517687
 20
194.280410
 30
0.0
 10
163.438665
 20
194.404588
 30
0.0
 10
162.698396
 20
193.977021
 30
0.0
 10
162.766129
 20
193.846635
 30
0.0
 10
162.921916
 20
193.203450
 30
0.0
 10
162.935181
 20
192.332513
 30
0.0
 10
162.407143
 20
192.104759
 30
0.0
 10
161.782585
 20
192.711819
 30
0.0
 10
161.421623
 20
193.266668
 30
0.0
 10
161.373363
 20
193.405521
 30
0.0
 10
160.554354
 20
193.160270
 30
0.0
 10
160.590196
 20
193.017748
 30
0.0
 10
160.593583
 20
192.355937
 30
0.0
 10
160.405341
 20
191.505319
 30
0.0
 10
159.838921
 20
191.405413
 30
0.0
 10
159.371278
 20
192.140319
 30
0.0
 10
159.148041
 20
192.763466
 30
0.0
 10
159.133083
 20
192.909657
 30
0.0
 10
158.279643
 20
192.859986
 30
0.0
 10
158.281901
 20
192.712948
 30
0.0
 10
158.132323
 20
192.068353
 30
0.0
 10
157.753016
 20
191.284057
 30
0.0
 10
157.178976
 20
191.317359
 30
0.0
 10
156.893367
 20
192.140319
 30
0.0
 10
156.819707
 20
192.798179
 30
0.0
 10
156.838898
 20
192.943806
 30
0.0
 10
155.997029
 20
193.092255
 30
0.0
 10
155.965138
 20
192.948886
 30
0.0
 10
155.671063
 20
192.355937
 30
0.0
 10
155.121294
 20
191.680297
 30
0.0
 10
154.570396
 20
191.845115
 30
0.0
 10
154.482061
 20
192.711819
 30
0.0
 10
154.562212
 20
193.368833
 30
0.0
 10
154.614423
 20
193.506275
 30
0.0
 10
153.829563
 20
193.844941
 30
0.0
 10
153.765498
 20
193.712579
 30
0.0
 10
153.342729
 20
193.203450
 30
0.0
 10
152.651849
 20
192.672873
 30
0.0
 10
152.153727
 20
192.960457
 30
0.0
 10
152.267745
 20
193.824057
 30
0.0
 10
152.497192
 20
194.444946
 30
0.0
 10
152.579883
 20
194.566301
 30
0.0
 10
151.894083
 20
195.076841
 30
0.0
 10
151.801232
 20
194.962824
 30
0.0
 10
151.272347
 20
194.565173
 30
0.0
 10
150.477609
 20
194.208161
 30
0.0
 10
150.059356
 20
194.602708
 30
0.0
 10
150.369518
 20
195.416919
 30
0.0
 10
150.735843
 20
195.968099
 30
0.0
 10
150.844216
 20
196.067159
 30
0.0
 10
150.294729
 20
196.722197
 30
0.0
 10
150.178172
 20
196.632733
 30
0.0
 10
149.571958
 20
196.367444
 30
0.0
 10
148.716261
 20
196.203473
 30
0.0
 10
148.400172
 20
196.683815
 30
0.0
 10
148.889827
 20
197.404328
 30
0.0
 10
149.373556
 20
197.856166
 30
0.0
 10
149.501685
 20
197.927850
 30
0.0
 10
149.118145
 20
198.691826
 30
0.0
 10
148.984089
 20
198.631713
 30
0.0
 10
148.332721
 20
198.513461
 30
0.0
 10
147.462629
 20
198.550997
 30
0.0
 10
147.265921
 20
199.091453
 30
0.0
 10
147.908258
 20
199.679604
 30
0.0
 10
148.483145
 20
200.007828
 30
0.0
 10
148.624538
 20
200.047904
 30
0.0
 10
148.427265
 20
200.879895
 30
0.0
 10
148.283049
 20
200.852237
 30
0.0
 10
147.622085
 20
200.887233
 30
0.0
 10
146.783885
 20
201.124581
 30
0.0
 10
146.717281
 20
201.695799
 30
0.0
 10
147.478152
 20
202.119979
 30
0.0
 10
148.113152
 20
202.306810
 30
0.0
 10
148.259907
 20
202.313019
 30
0.0
 10
148.259907
 20
203.168153
 30
0.0
 10
148.113152
 20
203.174361
 30
0.0
 10
147.478152
 20
203.361193
 30
0.0
 10
146.717281
 20
203.785373
 30
0.0
 10
146.783885
 20
204.356590
 30
0.0
 10
147.622085
 20
204.593939
 30
0.0
 10
148.283049
 20
204.628935
 30
0.0
 10
148.427265
 20
204.601277
 30
0.0
 10
148.624538
 20
205.433268
 30
0.0
 10
148.483145
 20
205.473344
 30
0.0
 10
147.908258
 20
205.801568
 30
0.0
 10
147.265921
 20
206.389719
 30
0.0
 10
147.462629
 20
206.930175
 30
0.0
 10
148.332721
 20
206.967710
 30
0.0
 10
148.984089
 20
206.849459
 30
0.0
 10
149.118145
 20
206.789346
 30
0.0
 10
149.501685
 20
207.553321
 30
0.0
 10
149.373556
 20
207.625006
 30
0.0
 10
148.889827
 20
208.076844
 30
0.0
 10
148.400172
 20
208.797357
 30
0.0
 10
148.716261
 20
209.277699
 30
0.0
 10
149.571958
 20
209.113728
 30
0.0
 10
150.178172
 20
208.848439
 30
0.0
 10
150.294729
 20
208.758975
 30
0.0
 10
150.844216
 20
209.414013
 30
0.0
 10
150.735843
 20
209.513073
 30
0.0
 10
150.369518
 20
210.064253
 30
0.0
 10
150.059356
 20
210.878464
 30
0.0
 10
150.477609
 20
211.273010
 30
0.0
 10
151.272347
 20
210.915999
 30
0.0
 10
151.801232
 20
210.518348
 30
0.0
 10
151.894083
 20
210.404330
 30
0.0
 10
152.579883
 20
210.914870
 30
0.0
 10
152.497192
 20
211.036226
 30
0.0
 10
152.267745
 20
211.657115
 30
0.0
 10
152.153727
 20
212.520715
 30
0.0
 10
152.651849
 20
212.808299
 30
0.0
 10
153.342729
 20
212.277721
 30
0.0
 10
153.765498
 20
211.768593
 30
0.0
 10
153.829563
 20
211.636230
 30
0.0
 10
154.614423
 20
211.974897
 30
0.0
 10
154.562212
 20
212.112339
 30
0.0
 10
154.482061
 20
212.769353
 30
0.0
 10
154.570396
 20
213.636057
 30
0.0
 10
155.121294
 20
213.800875
 30
0.0
 10
155.671063
 20
213.125235
 30
0.0
 10
155.965138
 20
212.532286
 30
0.0
 10
155.997029
 20
212.388917
 30
0.0
 10
156.838898
 20
212.537366
 30
0.0
 10
156.819707
 20
212.682993
 30
0.0
 10
156.893367
 20
213.340853
 30
0.0
 10
157.178976
 20
214.163813
 30
0.0
 10
157.753016
 20
214.197115
 30
0.0
 10
158.132323
 20
213.412819
 30
0.0
 10
158.281901
 20
212.768224
 30
0.0
 10
158.279643
 20
212.621186
 30
0.0
 10
159.133083
 20
212.571515
 30
0.0
 10
159.148041
 20
212.717706
 30
0.0
 10
159.371278
 20
213.340853
 30
0.0
 10
159.838921
 20
214.075759
 30
0.0
 10
160.405341
 20
213.975853
 30
0.0
 10
160.593583
 20
213.125235
 30
0.0
 10
160.590196
 20
212.463424
 30
0.0
 10
160.554354
 20
212.320901
 30
0.0
 10
161.373363
 20
212.075650
 30
0.0
 10
161.421623
 20
212.214504
 30
0.0
 10
161.782585
 20
212.769353
 30
0.0
 10
162.407143
 20
213.376413
 30
0.0
 10
162.935181
 20
213.148659
 30
0.0
 10
162.921916
 20
212.277721
 30
0.0
 10
162.766129
 20
211.634537
 30
0.0
 10
162.698396
 20
211.504150
 30
0.0
 10
163.438665
 20
211.076584
 30
0.0
 10
163.517687
 20
211.200761
 30
0.0
 10
163.996901
 20
211.657115
 30
0.0
 10
164.744789
 20
212.103873
 30
0.0
 10
165.205941
 20
211.760690
 30
0.0
 10
164.992298
 20
210.915999
 30
0.0
 10
164.692296
 20
210.326155
 30
0.0
 10
164.596341
 20
210.214959
 30
0.0
 10
165.218076
 20
209.628219
 30
0.0
 10
165.323627
 20
209.730666
 30
0.0
 10
165.895127
 20
210.064253
 30
0.0
 10
166.725707
 20
210.326719
 30
0.0
 10
167.095418
 20
209.886170
 30
0.0
 10
166.692687
 20
209.113728
 30
0.0
 10
166.264838
 20
208.608833
 30
0.0
 10
166.145741
 20
208.522755
 30
0.0
 10
166.615641
 20
207.808450
 30
0.0
 10
166.741794
 20
207.883804
 30
0.0
 10
167.374818
 20
208.076844
 30
0.0
 10
168.243498
 20
208.140344
 30
0.0
 10
168.501732
 20
207.626417
 30
0.0
 10
167.931925
 20
206.967710
 30
0.0
 10
167.399089
 20
206.575139
 30
0.0
 10
167.263341
 20
206.518977
 30
0.0
 10
167.555723
 20
205.715490
 30
0.0
 10
167.695705
 20
205.759799
 30
0.0
 10
168.356387
 20
205.801568
 30
0.0
 10
169.216318
 20
205.662997
 30
0.0
 10
169.348963
 20
205.103350
 30
0.0
 10
168.642561
 20
204.593939
 30
0.0
 10
168.033525
 20
204.334577
 30
0.0
 10
167.888463
 20
204.311435
 30
0.0
 10
167.987805
 20
203.462228
 30
0.0
  0
SPLINE
  5
182
100
AcDbEntity
  8
Layer_1
 62
7
100
AcDbSpline
 70
8
 71
3
 72
8
 73
4
 74
0
 40
0
 40
0
 40
0
 40
0
 40
1
 40
1
 40
1
 40
1
 10
153.258387
 20
159.361822
 30
0.0
 10
152.780704
 20
158.771970
 30
0.0
 10
152.491096
 20
158.028026
 30
0.0
 10
152.491096
 20
157.209878
 30
0.0
  0
SPLINE
  5
183
100
AcDbEntity
  8
Layer_1
 62
7
100
AcDbSpline
 70
8
 71
3
 72
8
 73
4
 74
0
 40
0
 40
0
 40
0
 40
0
 40
1
 40
1
 40
1
 40
1
 10
152.491096
 20
157.209878
 30
0.0
 10
152.491096
 20
156.391730
 30
0.0
 10
152.780704
 20
155.638967
 30
0.0
 10
153.258387
 20
155.049114
 30
0.0
  0
LWPOLYLINE
  5
184
100
AcDbEntity
  8
Layer_1
 62
7
100
AcDbPolyline
 90
2
 70
1
 10
160.876022
 20
202.740590
 30
0.0
 10
160.876022
 20
202.740590
 30
0.0
  0
SPLINE
  5
185
100
AcDbEntity
  8
Layer_1
 62
7
100
AcDbSpline
 70
8
 71
3
 72
8
 73
4
 74
0
 40
0
 40
0
 40
0
 40
0
 40
1
 40
1
 40
1
 40
1
 10
158.594148
 20
155.049114
 30
0.0
 10
159.071832
 20
155.638967
 30
0.0
 10
159.361440
 20
156.391730
 30
0.0
 10
159.361440
 20
157.209878
 30
0.0
  0
SPLINE
  5
186
100
AcDbEntity
  8
Layer_1
 62
7
100
AcDbSpline
 70
8
 71
3
 72
8
 73
4
 74
0
 40
0
 40
0
 40
0
 40
0
 40
1
 40
1
 40
1
 40
1
 10
159.361440
 20
157.209878
 30
0.0
 10
159.361440
 20
158.028026
 30
0.0
 10
159.071832
 20
158.771970
 30
0.0
 10
158.594148
 20
159.361822
 30
0.0
  0
LWPOLYLINE
  5
187
100
AcDbEntity
  8
Layer_1
 62
7
100
AcDbPolyline
 90
2
 70
1
 10
153.258387
 20
155.049114
 30
0.0
 10
158.594148
 20
155.049114
 30
0.0
  0
SPLINE
  5
188
100
AcDbEntity
  8
Layer_1
 62
7
100
AcDbSpline
 70
8
 71
3
 72
8
 73
4
 74
0
 40
0
 40
0
 40
0
 40
0
 40
1
 40
1
 40
1
 40
1
 10
89.679503
 20
301.313208
 30
0.0
 10
86.494276
 20
301.313208
 30
0.0
 10
83.911587
 20
298.730519
 30
0.0
 10
83.911587
 20
295.545291
 30
0.0
  0
SPLINE
  5
189
100
AcDbEntity
  8
Layer_1
 62
7
100
AcDbSpline
 70
8
 71
3
 72
8
 73
4
 74
0
 40
0
 40
0
 40
0
 40
0
 40
1
 40
1
 40
1
 40
1
 10
83.911587
 20
295.545291
 30
0.0
 10
83.911587
 20
292.829941
 30
0.0
 10
85.785539
 20
290.557671
 30
0.0
 10
88.312490
 20
289.944944
 30
0.0
  0
SPLINE
  5
18a
100
AcDbEntity
  8
Layer_1
 62
7
100
AcDbSpline
 70
8
 71
3
 72
8
 73
4
 74
0
 40
0
 40
0
 40
0
 40
0
 40
1
 40
1
 40
1
 40
1
 10
88.312490
 20
289.944944
 30
0.0
 10
87.310513
 20
284.565975
 30
0.0
 10
85.908351
 20
276.388431
 30
0.0
 10
85.260962
 20
269.483833
 30
0.0
  0
SPLINE
  5
18b
100
AcDbEntity
  8
Layer_1
 62
7
100
AcDbSpline
 70
8
 71
3
 72
8
 73
4
 74
0
 40
0
 40
0
 40
0
 40
0
 40
1
 40
1
 40
1
 40
1
 10
85.260962
 20
269.483833
 30
0.0
 10
83.093371
 20
268.154414
 30
0.0
 10
81.644990
 20
265.765961
 30
0.0
 10
81.644990
 20
263.036819
 30
0.0
  0
SPLINE
  5
18c
100
AcDbEntity
  8
Layer_1
 62
7
100
AcDbSpline
 70
8
 71
3
 72
8
 73
4
 74
0
 40
0
 40
0
 40
0
 40
0
 40
1
 40
1
 40
1
 40
1
 10
81.644990
 20
263.036819
 30
0.0
 10
81.644990
 20
260.307676
 30
0.0
 10
83.093371
 20
257.910405
 30
0.0
 10
85.260962
 20
256.580986
 30
0.0
  0
SPLINE
  5
18d
100
AcDbEntity
  8
Layer_1
 62
7
100
AcDbSpline
 70
8
 71
3
 72
8
 73
4
 74
0
 40
0
 40
0
 40
0
 40
0
 40
1
 40
1
 40
1
 40
1
 10
85.260962
 20
256.580986
 30
0.0
 10
85.906026
 20
249.677664
 30
0.0
 10
87.302312
 20
241.509238
 30
0.0
 10
88.303670
 20
236.128694
 30
0.0
  0
SPLINE
  5
18e
100
AcDbEntity
  8
Layer_1
 62
7
100
AcDbSpline
 70
8
 71
3
 72
8
 73
4
 74
0
 40
0
 40
0
 40
0
 40
0
 40
1
 40
1
 40
1
 40
1
 10
88.303670
 20
236.128694
 30
0.0
 10
85.780618
 20
235.513204
 30
0.0
 10
83.911587
 20
233.240931
 30
0.0
 10
83.911587
 20
230.528347
 30
0.0
  0
SPLINE
  5
18f
100
AcDbEntity
  8
Layer_1
 62
7
100
AcDbSpline
 70
8
 71
3
 72
8
 73
4
 74
0
 40
0
 40
0
 40
0
 40
0
 40
1
 40
1
 40
1
 40
1
 10
83.911587
 20
230.528347
 30
0.0
 10
83.911587
 20
227.343119
 30
0.0
 10
86.494276
 20
224.760430
 30
0.0
 10
89.679503
 20
224.760430
 30
0.0
  0
SPLINE
  5
190
100
AcDbEntity
  8
Layer_1
 62
7
100
AcDbSpline
 70
8
 71
3
 72
8
 73
4
 74
0
 40
0
 40
0
 40
0
 40
0
 40
1
 40
1
 40
1
 40
1
 10
89.679503
 20
224.760430
 30
0.0
 10
92.392088
 20
224.760430
 30
0.0
 10
94.664361
 20
226.629461
 30
0.0
 10
95.279851
 20
229.152513
 30
0.0
  0
SPLINE
  5
191
100
AcDbEntity
  8
Layer_1
 62
7
100
AcDbSpline
 70
8
 71
3
 72
8
 73
4
 74
0
 40
0
 40
0
 40
0
 40
0
 40
1
 40
1
 40
1
 40
1
 10
95.279851
 20
229.152513
 30
0.0
 10
102.491944
 20
227.810293
 30
0.0
 10
114.729782
 20
225.757027
 30
0.0
 10
122.187976
 20
225.757027
 30
0.0
  0
SPLINE
  5
192
100
AcDbEntity
  8
Layer_1
 62
7
100
AcDbSpline
 70
8
 71
3
 72
8
 73
4
 74
0
 40
0
 40
0
 40
0
 40
0
 40
1
 40
1
 40
1
 40
1
 10
122.187976
 20
225.757027
 30
0.0
 10
129.646172
 20
225.757027
 30
0.0
 10
141.884008
 20
227.810293
 30
0.0
 10
149.096101
 20
229.152513
 30
0.0
  0
SPLINE
  5
193
100
AcDbEntity
  8
Layer_1
 62
7
100
AcDbSpline
 70
8
 71
3
 72
8
 73
4
 74
0
 40
0
 40
0
 40
0
 40
0
 40
1
 40
1
 40
1
 40
1
 10
149.096101
 20
229.152513
 30
0.0
 10
149.711751
 20
226.629689
 30
0.0
 10
151.984027
 20
224.760430
 30
0.0
 10
154.696448
 20
224.760430
 30
0.0
  0
SPLINE
  5
194
100
AcDbEntity
  8
Layer_1
 62
7
100
AcDbSpline
 70
8
 71
3
 72
8
 73
4
 74
0
 40
0
 40
0
 40
0
 40
0
 40
1
 40
1
 40
1
 40
1
 10
154.696448
 20
224.760430
 30
0.0
 10
157.881676
 20
224.760430
 30
0.0
 10
160.464365
 20
227.343119
 30
0.0
 10
160.464365
 20
230.528347
 30
0.0
  0
SPLINE
  5
195
100
AcDbEntity
  8
Layer_1
 62
7
100
AcDbSpline
 70
8
 71
3
 72
8
 73
4
 74
0
 40
0
 40
0
 40
0
 40
0
 40
1
 40
1
 40
1
 40
1
 10
160.464365
 20
230.528347
 30
0.0
 10
160.464365
 20
233.238648
 30
0.0
 10
158.592116
 20
235.510935
 30
0.0
 10
156.072281
 20
236.128694
 30
0.0
  0
SPLINE
  5
196
100
AcDbEntity
  8
Layer_1
 62
7
100
AcDbSpline
 70
8
 71
3
 72
8
 73
4
 74
0
 40
0
 40
0
 40
0
 40
0
 40
1
 40
1
 40
1
 40
1
 10
156.072281
 20
236.128694
 30
0.0
 10
157.414502
 20
243.340787
 30
0.0
 10
159.467767
 20
255.578623
 30
0.0
 10
159.467767
 20
263.036819
 30
0.0
  0
SPLINE
  5
197
100
AcDbEntity
  8
Layer_1
 62
7
100
AcDbSpline
 70
8
 71
3
 72
8
 73
4
 74
0
 40
0
 40
0
 40
0
 40
0
 40
1
 40
1
 40
1
 40
1
 10
159.467767
 20
263.036819
 30
0.0
 10
159.467767
 20
270.495015
 30
0.0
 10
157.414502
 20
282.732851
 30
0.0
 10
156.072281
 20
289.944944
 30
0.0
  0
SPLINE
  5
198
100
AcDbEntity
  8
Layer_1
 62
7
100
AcDbSpline
 70
8
 71
3
 72
8
 73
4
 74
0
 40
0
 40
0
 40
0
 40
0
 40
1
 40
1
 40
1
 40
1
 10
156.072281
 20
289.944944
 30
0.0
 10
158.591922
 20
290.562841
 30
0.0
 10
160.464365
 20
292.835128
 30
0.0
 10
160.464365
 20
295.545291
 30
0.0
  0
SPLINE
  5
199
100
AcDbEntity
  8
Layer_1
 62
7
100
AcDbSpline
 70
8
 71
3
 72
8
 73
4
 74
0
 40
0
 40
0
 40
0
 40
0
 40
1
 40
1
 40
1
 40
1
 10
160.464365
 20
295.545291
 30
0.0
 10
160.464365
 20
298.730519
 30
0.0
 10
157.881676
 20
301.313208
 30
0.0
 10
154.696448
 20
301.313208
 30
0.0
  0
SPLINE
  5
19a
100
AcDbEntity
  8
Layer_1
 62
7
100
AcDbSpline
 70
8
 71
3
 72
8
 73
4
 74
0
 40
0
 40
0
 40
0
 40
0
 40
1
 40
1
 40
1
 40
1
 10
154.696448
 20
301.313208
 30
0.0
 10
151.986285
 20
301.313208
 30
0.0
 10
149.713998
 20
299.440765
 30
0.0
 10
149.096101
 20
296.921125
 30
0.0
  0
SPLINE
  5
19b
100
AcDbEntity
  8
Layer_1
 62
7
100
AcDbSpline
 70
8
 71
3
 72
8
 73
4
 74
0
 40
0
 40
0
 40
0
 40
0
 40
1
 40
1
 40
1
 40
1
 10
149.096101
 20
296.921125
 30
0.0
 10
141.884008
 20
298.263345
 30
0.0
 10
129.646172
 20
300.316611
 30
0.0
 10
122.187976
 20
300.316611
 30
0.0
  0
SPLINE
  5
19c
100
AcDbEntity
  8
Layer_1
 62
7
100
AcDbSpline
 70
8
 71
3
 72
8
 73
4
 74
0
 40
0
 40
0
 40
0
 40
0
 40
1
 40
1
 40
1
 40
1
 10
122.187976
 20
300.316611
 30
0.0
 10
114.728292
 20
300.316611
 30
0.0
 10
102.490648
 20
298.255381
 30
0.0
 10
95.279851
 20
296.912305
 30
0.0
  0
SPLINE
  5
19d
100
AcDbEntity
  8
Layer_1
 62
7
100
AcDbSpline
 70
8
 71
3
 72
8
 73
4
 74
0
 40
0
 40
0
 40
0
 40
0
 40
1
 40
1
 40
1
 40
1
 10
95.279851
 20
296.912305
 30
0.0
 10
94.665134
 20
299.436447
 30
0.0
 10
92.392861
 20
301.313208
 30
0.0
 10
89.679503
 20
301.313208
 30
0.0
  0
LWPOLYLINE
  5
19e
100
AcDbEntity
  8
Layer_1
 62
7
100
AcDbPolyline
 90
3
 70
1
 10
158.594148
 20
159.361822
 30
0.0
 10
153.258387
 20
159.361822
 30
0.0
 10
153.258387
 20
159.361822
 30
0.0
  0
SPLINE
  5
19f
100
AcDbEntity
  8
Layer_1
 62
7
100
AcDbSpline
 70
8
 71
3
 72
8
 73
4
 74
0
 40
0
 40
0
 40
0
 40
0
 40
1
 40
1
 40
1
 40
1
 10
92.059468
 20
295.541961
 30
0.0
 10
92.059468
 20
294.717126
 30
0.0
 10
91.604739
 20
293.954948
 30
0.0
 10
90.866572
 20
293.542530
 30
0.0
  0
SPLINE
  5
1a0
100
AcDbEntity
  8
Layer_1
 62
7
100
AcDbSpline
 70
8
 71
3
 72
8
 73
4
 74
0
 40
0
 40
0
 40
0
 40
0
 40
1
 40
1
 40
1
 40
1
 10
90.866572
 20
293.542530
 30
0.0
 10
90.128406
 20
293.130113
 30
0.0
 10
89.218948
 20
293.130113
 30
0.0
 10
88.480782
 20
293.542530
 30
0.0
  0
SPLINE
  5
1a1
100
AcDbEntity
  8
Layer_1
 62
7
100
AcDbSpline
 70
8
 71
3
 72
8
 73
4
 74
0
 40
0
 40
0
 40
0
 40
0
 40
1
 40
1
 40
1
 40
1
 10
88.480782
 20
293.542530
 30
0.0
 10
87.742615
 20
293.954948
 30
0.0
 10
87.287886
 20
294.717126
 30
0.0
 10
87.287886
 20
295.541961
 30
0.0
  0
SPLINE
  5
1a2
100
AcDbEntity
  8
Layer_1
 62
7
100
AcDbSpline
 70
8
 71
3
 72
8
 73
4
 74
0
 40
0
 40
0
 40
0
 40
0
 40
1
 40
1
 40
1
 40
1
 10
87.287886
 20
295.541961
 30
0.0
 10
87.287886
 20
296.366796
 30
0.0
 10
87.742615
 20
297.128975
 30
0.0
 10
88.480782
 20
297.541392
 30
0.0
  0
SPLINE
  5
1a3
100
AcDbEntity
  8
Layer_1
 62
7
100
AcDbSpline
 70
8
 71
3
 72
8
 73
4
 74
0
 40
0
 40
0
 40
0
 40
0
 40
1
 40
1
 40
1
 40
1
 10
88.480782
 20
297.541392
 30
0.0
 10
89.218948
 20
297.953810
 30
0.0
 10
90.128406
 20
297.953810
 30
0.0
 10
90.866572
 20
297.541392
 30
0.0
  0
SPLINE
  5
1a4
100
AcDbEntity
  8
Layer_1
 62
7
100
AcDbSpline
 70
8
 71
3
 72
8
 73
4
 74
0
 40
0
 40
0
 40
0
 40
0
 40
1
 40
1
 40
1
 40
1
 10
90.866572
 20
297.541392
 30
0.0
 10
91.604739
 20
297.128975
 30
0.0
 10
92.059468
 20
296.366796
 30
0.0
 10
92.059468
 20
295.541961
 30
0.0
  0
LWPOLYLINE
  5
1a5
100
AcDbEntity
  8
Layer_1
 62
7
100
AcDbPolyline
 90
2
 70
1
 10
89.679503
 20
301.313208
 30
0.0
 10
89.679503
 20
301.313208
 30
0.0
  0
SPLINE
  5
1a6
100
AcDbEntity
  8
Layer_1
 62
7
100
AcDbSpline
 70
8
 71
3
 72
8
 73
4
 74
0
 40
0
 40
0
 40
0
 40
0
 40
1
 40
1
 40
1
 40
1
 10
157.077982
 20
230.523445
 30
0.0
 10
157.077982
 20
229.698610
 30
0.0
 10
156.623252
 20
228.936431
 30
0.0
 10
155.885086
 20
228.524014
 30
0.0
  0
SPLINE
  5
1a7
100
AcDbEntity
  8
Layer_1
 62
7
100
AcDbSpline
 70
8
 71
3
 72
8
 73
4
 74
0
 40
0
 40
0
 40
0
 40
0
 40
1
 40
1
 40
1
 40
1
 10
155.885086
 20
228.524014
 30
0.0
 10
155.146920
 20
228.111596
 30
0.0
 10
154.237461
 20
228.111596
 30
0.0
 10
153.499295
 20
228.524014
 30
0.0
  0
SPLINE
  5
1a8
100
AcDbEntity
  8
Layer_1
 62
7
100
AcDbSpline
 70
8
 71
3
 72
8
 73
4
 74
0
 40
0
 40
0
 40
0
 40
0
 40
1
 40
1
 40
1
 40
1
 10
153.499295
 20
228.524014
 30
0.0
 10
152.761129
 20
228.936431
 30
0.0
 10
152.306400
 20
229.698610
 30
0.0
 10
152.306400
 20
230.523445
 30
0.0
  0
SPLINE
  5
1a9
100
AcDbEntity
  8
Layer_1
 62
7
100
AcDbSpline
 70
8
 71
3
 72
8
 73
4
 74
0
 40
0
 40
0
 40
0
 40
0
 40
1
 40
1
 40
1
 40
1
 10
152.306400
 20
230.523445
 30
0.0
 10
152.306400
 20
231.348280
 30
0.0
 10
152.761129
 20
232.110458
 30
0.0
 10
153.499295
 20
232.522876
 30
0.0
  0
SPLINE
  5
1aa
100
AcDbEntity
  8
Layer_1
 62
7
100
AcDbSpline
 70
8
 71
3
 72
8
 73
4
 74
0
 40
0
 40
0
 40
0
 40
0
 40
1
 40
1
 40
1
 40
1
 10
153.499295
 20
232.522876
 30
0.0
 10
154.237461
 20
232.935293
 30
0.0
 10
155.146920
 20
232.935293
 30
0.0
 10
155.885086
 20
232.522876
 30
0.0
  0
SPLINE
  5
1ab
100
AcDbEntity
  8
Layer_1
 62
7
100
AcDbSpline
 70
8
 71
3
 72
8
 73
4
 74
0
 40
0
 40
0
 40
0
 40
0
 40
1
 40
1
 40
1
 40
1
 10
155.885086
 20
232.522876
 30
0.0
 10
156.623252
 20
232.110458
 30
0.0
 10
157.077982
 20
231.348280
 30
0.0
 10
157.077982
 20
230.523445
 30
0.0
  0
LWPOLYLINE
  5
1ac
100
AcDbEntity
  8
Layer_1
 62
7
100
AcDbPolyline
 90
2
 70
1
 10
92.059468
 20
295.541961
 30
0.0
 10
92.059468
 20
295.541961
 30
0.0
  0
SPLINE
  5
1ad
100
AcDbEntity
  8
Layer_1
 62
7
100
AcDbSpline
 70
8
 71
3
 72
8
 73
4
 74
0
 40
0
 40
0
 40
0
 40
0
 40
1
 40
1
 40
1
 40
1
 10
92.059468
 20
230.523445
 30
0.0
 10
92.059468
 20
229.698610
 30
0.0
 10
91.604739
 20
228.936431
 30
0.0
 10
90.866572
 20
228.524014
 30
0.0
  0
SPLINE
  5
1ae
100
AcDbEntity
  8
Layer_1
 62
7
100
AcDbSpline
 70
8
 71
3
 72
8
 73
4
 74
0
 40
0
 40
0
 40
0
 40
0
 40
1
 40
1
 40
1
 40
1
 10
90.866572
 20
228.524014
 30
0.0
 10
90.128406
 20
228.111596
 30
0.0
 10
89.218948
 20
228.111596
 30
0.0
 10
88.480782
 20
228.524014
 30
0.0
  0
SPLINE
  5
1af
100
AcDbEntity
  8
Layer_1
 62
7
100
AcDbSpline
 70
8
 71
3
 72
8
 73
4
 74
0
 40
0
 40
0
 40
0
 40
0
 40
1
 40
1
 40
1
 40
1
 10
88.480782
 20
228.524014
 30
0.0
 10
87.742615
 20
228.936431
 30
0.0
 10
87.287886
 20
229.698610
 30
0.0
 10
87.287886
 20
230.523445
 30
0.0
  0
SPLINE
  5
1b0
100
AcDbEntity
  8
Layer_1
 62
7
100
AcDbSpline
 70
8
 71
3
 72
8
 73
4
 74
0
 40
0
 40
0
 40
0
 40
0
 40
1
 40
1
 40
1
 40
1
 10
87.287886
 20
230.523445
 30
0.0
 10
87.287886
 20
231.348280
 30
0.0
 10
87.742615
 20
232.110458
 30
0.0
 10
88.480782
 20
232.522876
 30
0.0
  0
SPLINE
  5
1b1
100
AcDbEntity
  8
Layer_1
 62
7
100
AcDbSpline
 70
8
 71
3
 72
8
 73
4
 74
0
 40
0
 40
0
 40
0
 40
0
 40
1
 40
1
 40
1
 40
1
 10
88.480782
 20
232.522876
 30
0.0
 10
89.218948
 20
232.935293
 30
0.0
 10
90.128406
 20
232.935293
 30
0.0
 10
90.866572
 20
232.522876
 30
0.0
  0
SPLINE
  5
1b2
100
AcDbEntity
  8
Layer_1
 62
7
100
AcDbSpline
 70
8
 71
3
 72
8
 73
4
 74
0
 40
0
 40
0
 40
0
 40
0
 40
1
 40
1
 40
1
 40
1
 10
90.866572
 20
232.522876
 30
0.0
 10
91.604739
 20
232.110458
 30
0.0
 10
92.059468
 20
231.348280
 30
0.0
 10
92.059468
 20
230.523445
 30
0.0
  0
LWPOLYLINE
  5
1b3
100
AcDbEntity
  8
Layer_1
 62
7
100
AcDbPolyline
 90
2
 70
1
 10
157.077982
 20
230.523445
 30
0.0
 10
157.077982
 20
230.523445
 30
0.0
  0
SPLINE
  5
1b4
100
AcDbEntity
  8
Layer_1
 62
7
100
AcDbSpline
 70
8
 71
3
 72
8
 73
4
 74
0
 40
0
 40
0
 40
0
 40
0
 40
1
 40
1
 40
1
 40
1
 10
157.077982
 20
295.541958
 30
0.0
 10
157.077982
 20
294.717124
 30
0.0
 10
156.623252
 20
293.954945
 30
0.0
 10
155.885086
 20
293.542527
 30
0.0
  0
SPLINE
  5
1b5
100
AcDbEntity
  8
Layer_1
 62
7
100
AcDbSpline
 70
8
 71
3
 72
8
 73
4
 74
0
 40
0
 40
0
 40
0
 40
0
 40
1
 40
1
 40
1
 40
1
 10
155.885086
 20
293.542527
 30
0.0
 10
155.146920
 20
293.130110
 30
0.0
 10
154.237461
 20
293.130110
 30
0.0
 10
153.499295
 20
293.542527
 30
0.0
  0
SPLINE
  5
1b6
100
AcDbEntity
  8
Layer_1
 62
7
100
AcDbSpline
 70
8
 71
3
 72
8
 73
4
 74
0
 40
0
 40
0
 40
0
 40
0
 40
1
 40
1
 40
1
 40
1
 10
153.499295
 20
293.542527
 30
0.0
 10
152.761129
 20
293.954945
 30
0.0
 10
152.306400
 20
294.717124
 30
0.0
 10
152.306400
 20
295.541958
 30
0.0
  0
SPLINE
  5
1b7
100
AcDbEntity
  8
Layer_1
 62
7
100
AcDbSpline
 70
8
 71
3
 72
8
 73
4
 74
0
 40
0
 40
0
 40
0
 40
0
 40
1
 40
1
 40
1
 40
1
 10
152.306400
 20
295.541958
 30
0.0
 10
152.306400
 20
296.366793
 30
0.0
 10
152.761129
 20
297.128972
 30
0.0
 10
153.499295
 20
297.541390
 30
0.0
  0
SPLINE
  5
1b8
100
AcDbEntity
  8
Layer_1
 62
7
100
AcDbSpline
 70
8
 71
3
 72
8
 73
4
 74
0
 40
0
 40
0
 40
0
 40
0
 40
1
 40
1
 40
1
 40
1
 10
153.499295
 20
297.541390
 30
0.0
 10
154.237461
 20
297.953807
 30
0.0
 10
155.146920
 20
297.953807
 30
0.0
 10
155.885086
 20
297.541390
 30
0.0
  0
SPLINE
  5
1b9
100
AcDbEntity
  8
Layer_1
 62
7
100
AcDbSpline
 70
8
 71
3
 72
8
 73
4
 74
0
 40
0
 40
0
 40
0
 40
0
 40
1
 40
1
 40
1
 40
1
 10
155.885086
 20
297.541390
 30
0.0
 10
156.623252
 20
297.128972
 30
0.0
 10
157.077982
 20
296.366793
 30
0.0
 10
157.077982
 20
295.541958
 30
0.0
  0
LWPOLYLINE
  5
1ba
100
AcDbEntity
  8
Layer_1
 62
7
100
AcDbPolyline
 90
2
 70
1
 10
92.059468
 20
230.523445
 30
0.0
 10
92.059468
 20
230.523445
 30
0.0
  0
SPLINE
  5
1bb
100
AcDbEntity
  8
Layer_1
 62
7
100
AcDbSpline
 70
8
 71
3
 72
8
 73
4
 74
0
 40
0
 40
0
 40
0
 40
0
 40
1
 40
1
 40
1
 40
1
 10
91.952335
 20
263.032707
 30
0.0
 10
91.952995
 20
262.052038
 30
0.0
 10
91.430193
 20
261.145580
 30
0.0
 10
90.581018
 20
260.655055
 30
0.0
  0
SPLINE
  5
1bc
100
AcDbEntity
  8
Layer_1
 62
7
100
AcDbSpline
 70
8
 71
3
 72
8
 73
4
 74
0
 40
0
 40
0
 40
0
 40
0
 40
1
 40
1
 40
1
 40
1
 10
90.581018
 20
260.655055
 30
0.0
 10
89.731844
 20
260.164530
 30
0.0
 10
88.685427
 20
260.164530
 30
0.0
 10
87.836253
 20
260.655055
 30
0.0
  0
SPLINE
  5
1bd
100
AcDbEntity
  8
Layer_1
 62
7
100
AcDbSpline
 70
8
 71
3
 72
8
 73
4
 74
0
 40
0
 40
0
 40
0
 40
0
 40
1
 40
1
 40
1
 40
1
 10
87.836253
 20
260.655055
 30
0.0
 10
86.987078
 20
261.145580
 30
0.0
 10
86.464276
 20
262.052038
 30
0.0
 10
86.464936
 20
263.032707
 30
0.0
  0
SPLINE
  5
1be
100
AcDbEntity
  8
Layer_1
 62
7
100
AcDbSpline
 70
8
 71
3
 72
8
 73
4
 74
0
 40
0
 40
0
 40
0
 40
0
 40
1
 40
1
 40
1
 40
1
 10
86.464936
 20
263.032707
 30
0.0
 10
86.464276
 20
264.013376
 30
0.0
 10
86.987078
 20
264.919834
 30
0.0
 10
87.836253
 20
265.410359
 30
0.0
  0
SPLINE
  5
1bf
100
AcDbEntity
  8
Layer_1
 62
7
100
AcDbSpline
 70
8
 71
3
 72
8
 73
4
 74
0
 40
0
 40
0
 40
0
 40
0
 40
1
 40
1
 40
1
 40
1
 10
87.836253
 20
265.410359
 30
0.0
 10
88.685427
 20
265.900884
 30
0.0
 10
89.731844
 20
265.900884
 30
0.0
 10
90.581018
 20
265.410359
 30
0.0
  0
SPLINE
  5
1c0
100
AcDbEntity
  8
Layer_1
 62
7
100
AcDbSpline
 70
8
 71
3
 72
8
 73
4
 74
0
 40
0
 40
0
 40
0
 40
0
 40
1
 40
1
 40
1
 40
1
 10
90.581018
 20
265.410359
 30
0.0
 10
91.430193
 20
264.919834
 30
0.0
 10
91.952995
 20
264.013376
 30
0.0
 10
91.952335
 20
263.032707
 30
0.0
  0
LWPOLYLINE
  5
1c1
100
AcDbEntity
  8
Layer_1
 62
7
100
AcDbPolyline
 90
2
 70
1
 10
157.077982
 20
295.541958
 30
0.0
 10
157.077982
 20
295.541958
 30
0.0
  0
LWPOLYLINE
  5
1c2
100
AcDbEntity
  8
Layer_1
 62
7
100
AcDbPolyline
 90
2
 70
1
 10
91.952335
 20
263.032707
 30
0.0
 10
91.952335
 20
263.032707
 30
0.0
  0
ENDSEC
  0
SECTION
  2
OBJECTS
  0
DICTIONARY
  5
C
330
0
100
AcDbDictionary
  3
ACAD_GROUP
350
D
  3
ACAD_MLINESTYLE
350
17
  0
DICTIONARY
  5
D
330
C
100
AcDbDictionary
  0
DICTIONARY
  5
1A
330
C
100
AcDbDictionary
  0
DICTIONARY
  5
17
330
C
100
AcDbDictionary
  3
STANDARD
350
18
  0
DICTIONARY
  5
19
330
C
100
AcDbDictionary
  0
ENDSEC
  0
EOF
