<?xml version="1.0" encoding="UTF-8" standalone="no"?>
<!-- Created with Inkscape (http://www.inkscape.org/) -->

<svg
   xmlns:dc="http://purl.org/dc/elements/1.1/"
   xmlns:cc="http://creativecommons.org/ns#"
   xmlns:rdf="http://www.w3.org/1999/02/22-rdf-syntax-ns#"
   xmlns:svg="http://www.w3.org/2000/svg"
   xmlns="http://www.w3.org/2000/svg"
   xmlns:sodipodi="http://sodipodi.sourceforge.net/DTD/sodipodi-0.dtd"
   xmlns:inkscape="http://www.inkscape.org/namespaces/inkscape"
   width="744.09448819"
   height="1052.3622047"
   id="svg5287"
   version="1.1"
   inkscape:version="0.48.4 r9939"
   sodipodi:docname="New document 5">
  <defs
     id="defs5289" />
  <sodipodi:namedview
     id="base"
     pagecolor="#ffffff"
     bordercolor="#666666"
     borderopacity="1.0"
     inkscape:pageopacity="0.0"
     inkscape:pageshadow="2"
     inkscape:zoom="3.0361462"
     inkscape:cx="225.76193"
     inkscape:cy="764.60317"
     inkscape:document-units="px"
     inkscape:current-layer="layer1"
     showgrid="false"
     inkscape:window-width="1280"
     inkscape:window-height="962"
     inkscape:window-x="-8"
     inkscape:window-y="32"
     inkscape:window-maximized="1" />
  <metadata
     id="metadata5292">
    <rdf:RDF>
      <cc:Work
         rdf:about="">
        <dc:format>image/svg+xml</dc:format>
        <dc:type
           rdf:resource="http://purl.org/dc/dcmitype/StillImage" />
        <dc:title></dc:title>
      </cc:Work>
    </rdf:RDF>
  </metadata>
  <g
     inkscape:label="Layer 1"
     inkscape:groupmode="layer"
     id="layer1">
    <path
       style="fill:none;stroke:#000000;stroke-width:1;stroke-miterlimit:4;stroke-opacity:1;stroke-dasharray:none"
       d="m 366.85281,300.93361 c 0,49.54549 -40.16456,89.70995 -89.70995,89.70995 -49.54549,0 -89.70995,-40.16446 -89.70995,-89.70995 0,-49.54539 40.16446,-89.70995 89.70995,-89.70995 49.54539,0 89.70995,40.16456 89.70995,89.70995 z"
       id="path5258"
       inkscape:connector-curvature="0">
      <desc
         id="desc5835">1/8&quot;</desc>
    </path>
    <path
       inkscape:connector-curvature="0"
       id="path5266"
       d="m 267.68974,293.29299 c -1.69258,2.09003 -2.71875,4.72605 -2.71875,7.625 0,2.89895 1.02617,5.56622 2.71875,7.65625 l 18.90624,0 c 1.69258,-2.09003 2.71875,-4.7573 2.71875,-7.65625 0,-2.89895 -1.02617,-5.53497 -2.71875,-7.625 l -18.90624,0 z"
       style="fill:none;stroke:#000000;stroke-opacity:1;stroke-width:1;stroke-miterlimit:4;stroke-dasharray:none">
      <desc
         id="desc5831">1/4&quot;</desc>
    </path>
    <path
       inkscape:connector-curvature="0"
       id="path5321"
       d="m 336.73165,300.93361 c 0,32.91001 -26.67884,59.58879 -59.58879,59.58879 -32.91001,0 -59.58879,-26.67878 -59.58879,-59.58879 0,-32.90995 26.67878,-59.58879 59.58879,-59.58879 32.90995,0 59.58879,26.67884 59.58879,59.58879 z"
       style="fill:none;stroke:#000000;stroke-width:1;stroke-miterlimit:4;stroke-opacity:1;stroke-dasharray:none">
      <desc
         id="desc5833">1/16&quot;</desc>
    </path>
  </g>
</svg>
