  0
SECTION
  2
HEADER
  9
$ACADVER
  1
AC1014
  9
$HANDSEED
  5
FFFF
  9
$MEASUREMENT
 70
     1
  0
ENDSEC
  0
SECTION
  2
TABLES
  0
TABLE
  2
VPORT
  5
8
330
0
100
AcDbSymbolTable
 70
     4
  0
VPORT
  5
2E
330
8
100
AcDbSymbolTableRecord
100
AcDbViewportTableRecord
  2
*ACTIVE
 70
     0
 10
0.0
 20
0.0
 11
1.0
 21
1.0
 12
210.0
 22
148.5
 13
0.0
 23
0.0
 14
10.0
 24
10.0
 15
10.0
 25
10.0
 16
0.0
 26
0.0
 36
1.0
 17
0.0
 27
0.0
 37
0.0
 40
341.0
 41
1.24
 42
50.0
 43
0.0
 44
0.0
 50
0.0
 51
0.0
 71
     0
 72
   100
 73
     1
 74
     3
 75
     0
 76
     0
 77
     0
 78
     0
  0
ENDTAB
  0
TABLE
  2
LTYPE
  5
5
330
0
100
AcDbSymbolTable
 70
     1
  0
LTYPE
  5
14
330
5
100
AcDbSymbolTableRecord
100
AcDbLinetypeTableRecord
  2
BYBLOCK
 70
     0
  3

 72
    65
 73
     0
 40
0.0
  0
LTYPE
  5
15
330
5
100
AcDbSymbolTableRecord
100
AcDbLinetypeTableRecord
  2
BYLAYER
 70
     0
  3

 72
    65
 73
     0
 40
0.0
  0
LTYPE
  5
16
330
5
100
AcDbSymbolTableRecord
100
AcDbLinetypeTableRecord
  2
CONTINUOUS
 70
     0
  3
Solid line
 72
    65
 73
     0
 40
0.0
  0
ENDTAB
  0
TABLE
  2
LAYER
  5
2
100
AcDbSymbolTable
 70
2
  0
LAYER
  5
50
100
AcDbSymbolTableRecord
100
AcDbLayerTableRecord
  2
0
 70
0
  6
CONTINUOUS
  0
LAYER
  5
51
100
AcDbSymbolTableRecord
100
AcDbLayerTableRecord
  2
Layer_1
 70
0
  6
CONTINUOUS
  0
ENDTAB
  0
TABLE
  2
STYLE
  5
3
330
0
100
AcDbSymbolTable
 70
     1
  0
STYLE
  5
11
330
3
100
AcDbSymbolTableRecord
100
AcDbTextStyleTableRecord
  2
STANDARD
 70
     0
 40
0.0
 41
1.0
 50
0.0
 71
     0
 42
2.5
  3
txt
  4

  0
ENDTAB
  0
TABLE
  2
VIEW
  5
6
330
0
100
AcDbSymbolTable
 70
     0
  0
ENDTAB
  0
TABLE
  2
UCS
  5
7
330
0
100
AcDbSymbolTable
 70
     0
  0
ENDTAB
  0
TABLE
  2
APPID
  5
9
330
0
100
AcDbSymbolTable
 70
     2
  0
APPID
  5
12
330
9
100
AcDbSymbolTableRecord
100
AcDbRegAppTableRecord
  2
ACAD
 70
     0
  0
ENDTAB
  0
TABLE
  2
DIMSTYLE
  5
A
330
0
100
AcDbSymbolTable
 70
     1
  0
DIMSTYLE
105
27
330
A
100
AcDbSymbolTableRecord
100
AcDbDimStyleTableRecord
  2
ISO-25
 70
     0
  3

  4

  5

  6

  7

 40
1.0
 41
2.5
 42
0.625
 43
3.75
 44
1.25
 45
0.0
 46
0.0
 47
0.0
 48
0.0
140
2.5
141
2.5
142
0.0
143
0.03937007874016
144
1.0
145
0.0
146
1.0
147
0.625
 71
     0
 72
     0
 73
     0
 74
     0
 75
     0
 76
     0
 77
     1
 78
     8
170
     0
171
     3
172
     1
173
     0
174
     0
175
     0
176
     0
177
     0
178
     0
270
     2
271
     2
272
     2
273
     2
274
     3
340
11
275
     0
280
     0
281
     0
282
     0
283
     0
284
     8
285
     0
286
     0
287
     3
288
     0
  0
ENDTAB
  0
TABLE
  2
BLOCK_RECORD
  5
1
330
0
100
AcDbSymbolTable
 70
     1
  0
BLOCK_RECORD
  5
1F
330
1
100
AcDbSymbolTableRecord
100
AcDbBlockTableRecord
  2
*MODEL_SPACE
  0
BLOCK_RECORD
  5
1B
330
1
100
AcDbSymbolTableRecord
100
AcDbBlockTableRecord
  2
*PAPER_SPACE
  0
ENDTAB
  0
ENDSEC
  0
SECTION
  2
BLOCKS
  0
BLOCK
  5
20
330
1F
100
AcDbEntity
  8
0
100
AcDbBlockBegin
  2
*MODEL_SPACE
 70
     0
 10
0.0
 20
0.0
 30
0.0
  3
*MODEL_SPACE
  1

  0
ENDBLK
  5
21
330
1F
100
AcDbEntity
  8
0
100
AcDbBlockEnd
  0
BLOCK
  5
1C
330
1B
100
AcDbEntity
 67
     1
  8
0
100
AcDbBlockBegin
  2
*PAPER_SPACE
  1

  0
ENDBLK
  5
1D
330
1B
100
AcDbEntity
 67
     1
  8
0
100
AcDbBlockEnd
  0
ENDSEC
  0
SECTION
  2
ENTITIES
  0
SPLINE
  5
100
100
AcDbEntity
  8
Layer_1
 62
7
100
AcDbSpline
 70
8
 71
3
 72
8
 73
4
 74
0
 40
0
 40
0
 40
0
 40
0
 40
1
 40
1
 40
1
 40
1
 10
58.342649
 20
215.014947
 30
0.0
 10
57.964428
 20
214.550784
 30
0.0
 10
57.735120
 20
213.965365
 30
0.0
 10
57.735120
 20
213.321554
 30
0.0
  0
SPLINE
  5
101
100
AcDbEntity
  8
Layer_1
 62
7
100
AcDbSpline
 70
8
 71
3
 72
8
 73
4
 74
0
 40
0
 40
0
 40
0
 40
0
 40
1
 40
1
 40
1
 40
1
 10
57.735120
 20
213.321554
 30
0.0
 10
57.735120
 20
212.677743
 30
0.0
 10
57.964428
 20
212.085387
 30
0.0
 10
58.342649
 20
211.621225
 30
0.0
  0
SPLINE
  5
102
100
AcDbEntity
  8
Layer_1
 62
7
100
AcDbSpline
 70
8
 71
3
 72
8
 73
4
 74
0
 40
0
 40
0
 40
0
 40
0
 40
1
 40
1
 40
1
 40
1
 10
62.567422
 20
211.621225
 30
0.0
 10
62.945645
 20
212.085387
 30
0.0
 10
63.174951
 20
212.677743
 30
0.0
 10
63.174951
 20
213.321554
 30
0.0
  0
SPLINE
  5
103
100
AcDbEntity
  8
Layer_1
 62
7
100
AcDbSpline
 70
8
 71
3
 72
8
 73
4
 74
0
 40
0
 40
0
 40
0
 40
0
 40
1
 40
1
 40
1
 40
1
 10
63.174951
 20
213.321554
 30
0.0
 10
63.174951
 20
213.965365
 30
0.0
 10
62.945645
 20
214.550784
 30
0.0
 10
62.567422
 20
215.014947
 30
0.0
  0
LWPOLYLINE
  5
104
100
AcDbEntity
  8
Layer_1
 62
7
100
AcDbPolyline
 90
2
 70
1
 10
58.342649
 20
211.621225
 30
0.0
 10
62.567422
 20
211.621225
 30
0.0
  0
SPLINE
  5
105
100
AcDbEntity
  8
Layer_1
 62
7
100
AcDbSpline
 70
8
 71
3
 72
8
 73
4
 74
0
 40
0
 40
0
 40
0
 40
0
 40
1
 40
1
 40
1
 40
1
 10
51.158778
 20
215.129820
 30
0.0
 10
50.755688
 20
214.634235
 30
0.0
 10
50.511306
 20
214.009186
 30
0.0
 10
50.511306
 20
213.321791
 30
0.0
  0
SPLINE
  5
106
100
AcDbEntity
  8
Layer_1
 62
7
100
AcDbSpline
 70
8
 71
3
 72
8
 73
4
 74
0
 40
0
 40
0
 40
0
 40
0
 40
1
 40
1
 40
1
 40
1
 10
50.511306
 20
213.321791
 30
0.0
 10
50.511306
 20
212.634397
 30
0.0
 10
50.755688
 20
212.001937
 30
0.0
 10
51.158778
 20
211.506352
 30
0.0
  0
LWPOLYLINE
  5
107
100
AcDbEntity
  8
Layer_1
 62
7
100
AcDbPolyline
 90
3
 70
1
 10
62.567422
 20
215.014947
 30
0.0
 10
58.342649
 20
215.014947
 30
0.0
 10
58.342649
 20
215.014947
 30
0.0
  0
SPLINE
  5
108
100
AcDbEntity
  8
Layer_1
 62
7
100
AcDbSpline
 70
8
 71
3
 72
8
 73
4
 74
0
 40
0
 40
0
 40
0
 40
0
 40
1
 40
1
 40
1
 40
1
 10
55.661295
 20
211.506352
 30
0.0
 10
56.064384
 20
212.001937
 30
0.0
 10
56.308766
 20
212.634397
 30
0.0
 10
56.308766
 20
213.321791
 30
0.0
  0
SPLINE
  5
109
100
AcDbEntity
  8
Layer_1
 62
7
100
AcDbSpline
 70
8
 71
3
 72
8
 73
4
 74
0
 40
0
 40
0
 40
0
 40
0
 40
1
 40
1
 40
1
 40
1
 10
56.308766
 20
213.321791
 30
0.0
 10
56.308766
 20
214.009186
 30
0.0
 10
56.064384
 20
214.634235
 30
0.0
 10
55.661295
 20
215.129820
 30
0.0
  0
LWPOLYLINE
  5
10a
100
AcDbEntity
  8
Layer_1
 62
7
100
AcDbPolyline
 90
2
 70
1
 10
51.158778
 20
211.506352
 30
0.0
 10
55.661295
 20
211.506352
 30
0.0
  0
SPLINE
  5
10b
100
AcDbEntity
  8
Layer_1
 62
7
100
AcDbSpline
 70
8
 71
3
 72
8
 73
4
 74
0
 40
0
 40
0
 40
0
 40
0
 40
1
 40
1
 40
1
 40
1
 10
43.617278
 20
215.244693
 30
0.0
 10
43.189325
 20
214.717685
 30
0.0
 10
42.929866
 20
214.053004
 30
0.0
 10
42.929866
 20
213.322023
 30
0.0
  0
SPLINE
  5
10c
100
AcDbEntity
  8
Layer_1
 62
7
100
AcDbSpline
 70
8
 71
3
 72
8
 73
4
 74
0
 40
0
 40
0
 40
0
 40
0
 40
1
 40
1
 40
1
 40
1
 10
42.929866
 20
213.322023
 30
0.0
 10
42.929866
 20
212.591045
 30
0.0
 10
43.189325
 20
211.918484
 30
0.0
 10
43.617278
 20
211.391476
 30
0.0
  0
LWPOLYLINE
  5
10d
100
AcDbEntity
  8
Layer_1
 62
7
100
AcDbPolyline
 90
3
 70
1
 10
55.661295
 20
215.129820
 30
0.0
 10
51.158778
 20
215.129820
 30
0.0
 10
51.158778
 20
215.129820
 30
0.0
  0
SPLINE
  5
10e
100
AcDbEntity
  8
Layer_1
 62
7
100
AcDbSpline
 70
8
 71
3
 72
8
 73
4
 74
0
 40
0
 40
0
 40
0
 40
0
 40
1
 40
1
 40
1
 40
1
 10
48.397544
 20
211.391476
 30
0.0
 10
48.825497
 20
211.918484
 30
0.0
 10
49.084955
 20
212.591045
 30
0.0
 10
49.084955
 20
213.322023
 30
0.0
  0
SPLINE
  5
10f
100
AcDbEntity
  8
Layer_1
 62
7
100
AcDbSpline
 70
8
 71
3
 72
8
 73
4
 74
0
 40
0
 40
0
 40
0
 40
0
 40
1
 40
1
 40
1
 40
1
 10
49.084955
 20
213.322023
 30
0.0
 10
49.084955
 20
214.053004
 30
0.0
 10
48.825497
 20
214.717685
 30
0.0
 10
48.397544
 20
215.244693
 30
0.0
  0
LWPOLYLINE
  5
110
100
AcDbEntity
  8
Layer_1
 62
7
100
AcDbPolyline
 90
2
 70
1
 10
43.617278
 20
211.391476
 30
0.0
 10
48.397544
 20
211.391476
 30
0.0
  0
SPLINE
  5
111
100
AcDbEntity
  8
Layer_1
 62
7
100
AcDbSpline
 70
8
 71
3
 72
8
 73
4
 74
0
 40
0
 40
0
 40
0
 40
0
 40
1
 40
1
 40
1
 40
1
 10
35.718149
 20
215.359566
 30
0.0
 10
35.265329
 20
214.801135
 30
0.0
 10
34.990797
 20
214.096821
 30
0.0
 10
34.990797
 20
213.322260
 30
0.0
  0
SPLINE
  5
112
100
AcDbEntity
  8
Layer_1
 62
7
100
AcDbSpline
 70
8
 71
3
 72
8
 73
4
 74
0
 40
0
 40
0
 40
0
 40
0
 40
1
 40
1
 40
1
 40
1
 10
34.990797
 20
213.322260
 30
0.0
 10
34.990797
 20
212.547695
 30
0.0
 10
35.265329
 20
211.835033
 30
0.0
 10
35.718149
 20
211.276603
 30
0.0
  0
LWPOLYLINE
  5
113
100
AcDbEntity
  8
Layer_1
 62
7
100
AcDbPolyline
 90
3
 70
1
 10
48.397544
 20
215.244693
 30
0.0
 10
43.617278
 20
215.244693
 30
0.0
 10
43.617278
 20
215.244693
 30
0.0
  0
SPLINE
  5
114
100
AcDbEntity
  8
Layer_1
 62
7
100
AcDbSpline
 70
8
 71
3
 72
8
 73
4
 74
0
 40
0
 40
0
 40
0
 40
0
 40
1
 40
1
 40
1
 40
1
 10
40.776161
 20
211.276603
 30
0.0
 10
41.228981
 20
211.835033
 30
0.0
 10
41.503513
 20
212.547695
 30
0.0
 10
41.503513
 20
213.322260
 30
0.0
  0
SPLINE
  5
115
100
AcDbEntity
  8
Layer_1
 62
7
100
AcDbSpline
 70
8
 71
3
 72
8
 73
4
 74
0
 40
0
 40
0
 40
0
 40
0
 40
1
 40
1
 40
1
 40
1
 10
41.503513
 20
213.322260
 30
0.0
 10
41.503513
 20
214.096821
 30
0.0
 10
41.228981
 20
214.801135
 30
0.0
 10
40.776161
 20
215.359566
 30
0.0
  0
LWPOLYLINE
  5
116
100
AcDbEntity
  8
Layer_1
 62
7
100
AcDbPolyline
 90
2
 70
1
 10
35.718149
 20
211.276603
 30
0.0
 10
40.776161
 20
211.276603
 30
0.0
  0
SPLINE
  5
117
100
AcDbEntity
  8
Layer_1
 62
7
100
AcDbSpline
 70
8
 71
3
 72
8
 73
4
 74
0
 40
0
 40
0
 40
0
 40
0
 40
1
 40
1
 40
1
 40
1
 10
33.564443
 20
215.985966
 30
0.0
 10
32.974590
 20
216.463650
 30
0.0
 10
32.230647
 20
216.753258
 30
0.0
 10
31.412499
 20
216.753258
 30
0.0
  0
SPLINE
  5
118
100
AcDbEntity
  8
Layer_1
 62
7
100
AcDbSpline
 70
8
 71
3
 72
8
 73
4
 74
0
 40
0
 40
0
 40
0
 40
0
 40
1
 40
1
 40
1
 40
1
 10
31.412499
 20
216.753258
 30
0.0
 10
30.594351
 20
216.753258
 30
0.0
 10
29.841588
 20
216.463650
 30
0.0
 10
29.251735
 20
215.985966
 30
0.0
  0
LWPOLYLINE
  5
119
100
AcDbEntity
  8
Layer_1
 62
7
100
AcDbPolyline
 90
3
 70
1
 10
40.776161
 20
215.359566
 30
0.0
 10
35.718149
 20
215.359566
 30
0.0
 10
35.718149
 20
215.359566
 30
0.0
  0
SPLINE
  5
11a
100
AcDbEntity
  8
Layer_1
 62
7
100
AcDbSpline
 70
8
 71
3
 72
8
 73
4
 74
0
 40
0
 40
0
 40
0
 40
0
 40
1
 40
1
 40
1
 40
1
 10
29.251735
 20
210.650202
 30
0.0
 10
29.841588
 20
210.172519
 30
0.0
 10
30.594351
 20
209.882911
 30
0.0
 10
31.412499
 20
209.882911
 30
0.0
  0
SPLINE
  5
11b
100
AcDbEntity
  8
Layer_1
 62
7
100
AcDbSpline
 70
8
 71
3
 72
8
 73
4
 74
0
 40
0
 40
0
 40
0
 40
0
 40
1
 40
1
 40
1
 40
1
 10
31.412499
 20
209.882911
 30
0.0
 10
32.230647
 20
209.882911
 30
0.0
 10
32.974590
 20
210.172519
 30
0.0
 10
33.564443
 20
210.650202
 30
0.0
  0
LWPOLYLINE
  5
11c
100
AcDbEntity
  8
Layer_1
 62
7
100
AcDbPolyline
 90
2
 70
1
 10
29.251735
 20
215.985966
 30
0.0
 10
29.251735
 20
210.650202
 30
0.0
  0
SPLINE
  5
11d
100
AcDbEntity
  8
Layer_1
 62
7
100
AcDbSpline
 70
8
 71
3
 72
8
 73
4
 74
0
 40
0
 40
0
 40
0
 40
0
 40
1
 40
1
 40
1
 40
1
 10
21.404641
 20
215.589314
 30
0.0
 10
20.902092
 20
214.968039
 30
0.0
 10
20.597409
 20
214.184463
 30
0.0
 10
20.597409
 20
213.322731
 30
0.0
  0
SPLINE
  5
11e
100
AcDbEntity
  8
Layer_1
 62
7
100
AcDbSpline
 70
8
 71
3
 72
8
 73
4
 74
0
 40
0
 40
0
 40
0
 40
0
 40
1
 40
1
 40
1
 40
1
 10
20.597409
 20
213.322731
 30
0.0
 10
20.597409
 20
212.460999
 30
0.0
 10
20.902092
 20
211.668133
 30
0.0
 10
21.404641
 20
211.046857
 30
0.0
  0
LWPOLYLINE
  5
11f
100
AcDbEntity
  8
Layer_1
 62
7
100
AcDbPolyline
 90
3
 70
1
 10
33.564443
 20
210.650202
 30
0.0
 10
33.564443
 20
215.985966
 30
0.0
 10
33.564443
 20
215.985966
 30
0.0
  0
SPLINE
  5
120
100
AcDbEntity
  8
Layer_1
 62
7
100
AcDbSpline
 70
8
 71
3
 72
8
 73
4
 74
0
 40
0
 40
0
 40
0
 40
0
 40
1
 40
1
 40
1
 40
1
 10
27.018152
 20
211.046857
 30
0.0
 10
27.520701
 20
211.668133
 30
0.0
 10
27.825384
 20
212.460999
 30
0.0
 10
27.825384
 20
213.322731
 30
0.0
  0
SPLINE
  5
121
100
AcDbEntity
  8
Layer_1
 62
7
100
AcDbSpline
 70
8
 71
3
 72
8
 73
4
 74
0
 40
0
 40
0
 40
0
 40
0
 40
1
 40
1
 40
1
 40
1
 10
27.825384
 20
213.322731
 30
0.0
 10
27.825384
 20
214.184463
 30
0.0
 10
27.520701
 20
214.968039
 30
0.0
 10
27.018152
 20
215.589314
 30
0.0
  0
LWPOLYLINE
  5
122
100
AcDbEntity
  8
Layer_1
 62
7
100
AcDbPolyline
 90
2
 70
1
 10
21.404641
 20
211.046857
 30
0.0
 10
27.018152
 20
211.046857
 30
0.0
  0
SPLINE
  5
123
100
AcDbEntity
  8
Layer_1
 62
7
100
AcDbSpline
 70
8
 71
3
 72
8
 73
4
 74
0
 40
0
 40
0
 40
0
 40
0
 40
1
 40
1
 40
1
 40
1
 10
12.432625
 20
215.704187
 30
0.0
 10
11.905211
 20
215.051489
 30
0.0
 10
11.585453
 20
214.228281
 30
0.0
 10
11.585453
 20
213.322965
 30
0.0
  0
SPLINE
  5
124
100
AcDbEntity
  8
Layer_1
 62
7
100
AcDbSpline
 70
8
 71
3
 72
8
 73
4
 74
0
 40
0
 40
0
 40
0
 40
0
 40
1
 40
1
 40
1
 40
1
 10
11.585453
 20
213.322965
 30
0.0
 10
11.585453
 20
212.417647
 30
0.0
 10
11.905211
 20
211.584682
 30
0.0
 10
12.432625
 20
210.931984
 30
0.0
  0
LWPOLYLINE
  5
125
100
AcDbEntity
  8
Layer_1
 62
7
100
AcDbPolyline
 90
3
 70
1
 10
27.018152
 20
215.589314
 30
0.0
 10
21.404641
 20
215.589314
 30
0.0
 10
21.404641
 20
215.589314
 30
0.0
  0
SPLINE
  5
126
100
AcDbEntity
  8
Layer_1
 62
7
100
AcDbSpline
 70
8
 71
3
 72
8
 73
4
 74
0
 40
0
 40
0
 40
0
 40
0
 40
1
 40
1
 40
1
 40
1
 10
18.323884
 20
210.931984
 30
0.0
 10
18.851298
 20
211.584682
 30
0.0
 10
19.171056
 20
212.417647
 30
0.0
 10
19.171056
 20
213.322965
 30
0.0
  0
SPLINE
  5
127
100
AcDbEntity
  8
Layer_1
 62
7
100
AcDbSpline
 70
8
 71
3
 72
8
 73
4
 74
0
 40
0
 40
0
 40
0
 40
0
 40
1
 40
1
 40
1
 40
1
 10
19.171056
 20
213.322965
 30
0.0
 10
19.171056
 20
214.228281
 30
0.0
 10
18.851298
 20
215.051489
 30
0.0
 10
18.323884
 20
215.704187
 30
0.0
  0
LWPOLYLINE
  5
128
100
AcDbEntity
  8
Layer_1
 62
7
100
AcDbPolyline
 90
2
 70
1
 10
12.432625
 20
210.931984
 30
0.0
 10
18.323884
 20
210.931984
 30
0.0
  0
SPLINE
  5
129
100
AcDbEntity
  8
Layer_1
 62
7
100
AcDbSpline
 70
8
 71
3
 72
8
 73
4
 74
0
 40
0
 40
0
 40
0
 40
0
 40
1
 40
1
 40
1
 40
1
 10
3.102981
 20
215.819060
 30
0.0
 10
2.550701
 20
215.134939
 30
0.0
 10
2.215868
 20
214.272101
 30
0.0
 10
2.215868
 20
213.323202
 30
0.0
  0
SPLINE
  5
12a
100
AcDbEntity
  8
Layer_1
 62
7
100
AcDbSpline
 70
8
 71
3
 72
8
 73
4
 74
0
 40
0
 40
0
 40
0
 40
0
 40
1
 40
1
 40
1
 40
1
 10
2.215868
 20
213.323202
 30
0.0
 10
2.215868
 20
212.374301
 30
0.0
 10
2.550701
 20
211.501232
 30
0.0
 10
3.102981
 20
210.817111
 30
0.0
  0
LWPOLYLINE
  5
12b
100
AcDbEntity
  8
Layer_1
 62
7
100
AcDbPolyline
 90
3
 70
1
 10
18.323884
 20
215.704187
 30
0.0
 10
12.432625
 20
215.704187
 30
0.0
 10
12.432625
 20
215.704187
 30
0.0
  0
SPLINE
  5
12c
100
AcDbEntity
  8
Layer_1
 62
7
100
AcDbSpline
 70
8
 71
3
 72
8
 73
4
 74
0
 40
0
 40
0
 40
0
 40
0
 40
1
 40
1
 40
1
 40
1
 10
9.271987
 20
210.817111
 30
0.0
 10
9.824266
 20
211.501232
 30
0.0
 10
10.159100
 20
212.374301
 30
0.0
 10
10.159100
 20
213.323202
 30
0.0
  0
SPLINE
  5
12d
100
AcDbEntity
  8
Layer_1
 62
7
100
AcDbSpline
 70
8
 71
3
 72
8
 73
4
 74
0
 40
0
 40
0
 40
0
 40
0
 40
1
 40
1
 40
1
 40
1
 10
10.159100
 20
213.323202
 30
0.0
 10
10.159100
 20
214.272101
 30
0.0
 10
9.824266
 20
215.134939
 30
0.0
 10
9.271987
 20
215.819060
 30
0.0
  0
LWPOLYLINE
  5
12e
100
AcDbEntity
  8
Layer_1
 62
7
100
AcDbPolyline
 90
2
 70
1
 10
3.102981
 20
210.817111
 30
0.0
 10
9.271987
 20
210.817111
 30
0.0
  0
SPLINE
  5
12f
100
AcDbEntity
  8
Layer_1
 62
7
100
AcDbSpline
 70
8
 71
3
 72
8
 73
4
 74
0
 40
0
 40
0
 40
0
 40
0
 40
1
 40
1
 40
1
 40
1
 10
-6.584292
 20
215.933933
 30
0.0
 10
-7.161437
 20
215.218390
 30
0.0
 10
-7.511346
 20
214.315922
 30
0.0
 10
-7.511346
 20
213.323434
 30
0.0
  0
SPLINE
  5
130
100
AcDbEntity
  8
Layer_1
 62
7
100
AcDbSpline
 70
8
 71
3
 72
8
 73
4
 74
0
 40
0
 40
0
 40
0
 40
0
 40
1
 40
1
 40
1
 40
1
 10
-7.511346
 20
213.323434
 30
0.0
 10
-7.511346
 20
212.330949
 30
0.0
 10
-7.161437
 20
211.417782
 30
0.0
 10
-6.584292
 20
210.702238
 30
0.0
  0
LWPOLYLINE
  5
131
100
AcDbEntity
  8
Layer_1
 62
7
100
AcDbPolyline
 90
3
 70
1
 10
9.271987
 20
215.819060
 30
0.0
 10
3.102981
 20
215.819060
 30
0.0
 10
3.102981
 20
215.819060
 30
0.0
  0
SPLINE
  5
132
100
AcDbEntity
  8
Layer_1
 62
7
100
AcDbSpline
 70
8
 71
3
 72
8
 73
4
 74
0
 40
0
 40
0
 40
0
 40
0
 40
1
 40
1
 40
1
 40
1
 10
-0.137538
 20
210.702238
 30
0.0
 10
0.439607
 20
211.417782
 30
0.0
 10
0.789516
 20
212.330949
 30
0.0
 10
0.789516
 20
213.323434
 30
0.0
  0
SPLINE
  5
133
100
AcDbEntity
  8
Layer_1
 62
7
100
AcDbSpline
 70
8
 71
3
 72
8
 73
4
 74
0
 40
0
 40
0
 40
0
 40
0
 40
1
 40
1
 40
1
 40
1
 10
0.789516
 20
213.323434
 30
0.0
 10
0.789516
 20
214.315922
 30
0.0
 10
0.439607
 20
215.218390
 30
0.0
 10
-0.137538
 20
215.933933
 30
0.0
  0
LWPOLYLINE
  5
134
100
AcDbEntity
  8
Layer_1
 62
7
100
AcDbPolyline
 90
2
 70
1
 10
-6.584292
 20
210.702238
 30
0.0
 10
-0.137538
 20
210.702238
 30
0.0
  0
LWPOLYLINE
  5
135
100
AcDbEntity
  8
Layer_1
 62
7
100
AcDbPolyline
 90
3
 70
1
 10
-0.137538
 20
215.933933
 30
0.0
 10
-6.584292
 20
215.933933
 30
0.0
 10
-6.584292
 20
215.933933
 30
0.0
  0
ENDSEC
  0
SECTION
  2
OBJECTS
  0
DICTIONARY
  5
C
330
0
100
AcDbDictionary
  3
ACAD_GROUP
350
D
  3
ACAD_MLINESTYLE
350
17
  0
DICTIONARY
  5
D
330
C
100
AcDbDictionary
  0
DICTIONARY
  5
1A
330
C
100
AcDbDictionary
  0
DICTIONARY
  5
17
330
C
100
AcDbDictionary
  3
STANDARD
350
18
  0
DICTIONARY
  5
19
330
C
100
AcDbDictionary
  0
ENDSEC
  0
EOF
