  0
SECTION
  2
HEADER
  9
$ACADVER
  1
AC1015
  9
$ACADMAINTVER
 70
     6
  9
$DWGCODEPAGE
  3
ANSI_1252
  9
$INSBASE
 10
0.0
 20
0.0
 30
0.0
  9
$EXTMIN
 10
0.0
 20
0.0
 30
0.0
  9
$EXTMAX
 10
1.189
 20
0.841
 30
0.0
  9
$LIMMIN
 10
0.0
 20
0.0
  9
$LIMMAX
 10
1.189
 20
0.841
  9
$ORTHOMODE
 70
     0
  9
$REGENMODE
 70
     1
  9
$FILLMODE
 70
     1
  9
$QTEXTMODE
 70
     0
  9
$MIRRTEXT
 70
     1
  9
$LTSCALE
 40
1.0
  9
$ATTMODE
 70
     1
  9
$TEXTSIZE
 40
0.0035
  9
$TRACEWID
 40
1.0
  9
$TEXTSTYLE
  7
Standard
  9
$CLAYER
  8
0
  9
$CELTYPE
  6
ByLayer
  9
$CECOLOR
 62
   256
  9
$CELTSCALE
 40
1.0
  9
$DISPSILH
 70
     0
  9
$DIMSCALE
 40
1.0
  9
$DIMASZ
 40
0.003302
  9
$DIMEXO
 40
0.001
  9
$DIMDLI
 40
3.75
  9
$DIMRND
 40
0.0
  9
$DIMDLE
 40
0.0
  9
$DIMEXE
 40
0.001
  9
$DIMTP
 40
0.0
  9
$DIMTM
 40
0.0
  9
$DIMTXT
 40
0.0035
  9
$DIMCEN
 40
2.5
  9
$DIMTSZ
 40
0.0
  9
$DIMTOL
 70
     0
  9
$DIMLIM
 70
     0
  9
$DIMTIH
 70
     1
  9
$DIMTOH
 70
     1
  9
$DIMSE1
 70
     0
  9
$DIMSE2
 70
     0
  9
$DIMTAD
 70
     1
  9
$DIMZIN
 70
     0
  9
$DIMBLK
  1

  9
$DIMASO
 70
     1
  9
$DIMSHO
 70
     1
  9
$DIMPOST
  1

  9
$DIMAPOST
  1

  9
$DIMALT
 70
     0
  9
$DIMALTD
 70
     3
  9
$DIMALTF
 40
39.3700787402
  9
$DIMLFAC
 40
1.0
  9
$DIMTOFL
 70
     1
  9
$DIMTVP
 40
0.0
  9
$DIMTIX
 70
     0
  9
$DIMSOXD
 70
     0
  9
$DIMSAH
 70
     0
  9
$DIMBLK1
  1

  9
$DIMBLK2
  1

  9
$DIMSTYLE
  2
ISO-25
  9
$DIMCLRD
 70
     0
  9
$DIMCLRE
 70
     0
  9
$DIMCLRT
 70
     0
  9
$DIMTFAC
 40
1.0
  9
$DIMGAP
 40
0.001524
  9
$DIMJUST
 70
     0
  9
$DIMSD1
 70
     0
  9
$DIMSD2
 70
     0
  9
$DIMTOLJ
 70
     0
  9
$DIMTZIN
 70
     0
  9
$DIMALTZ
 70
     0
  9
$DIMALTTZ
 70
     0
  9
$DIMUPT
 70
     0
  9
$DIMDEC
 70
     2
  9
$DIMTDEC
 70
     2
  9
$DIMALTU
 70
     2
  9
$DIMALTTD
 70
     3
  9
$DIMTXSTY
  7
Standard
  9
$DIMAUNIT
 70
     0
  9
$DIMADEC
 70
     2
  9
$DIMALTRND
 40
0.0
  9
$DIMAZIN
 70
     0
  9
$DIMDSEP
 70
    44
  9
$DIMATFIT
 70
     3
  9
$DIMFRAC
 70
     0
  9
$DIMLDRBLK
  1

  9
$DIMLUNIT
 70
     2
  9
$DIMLWD
 70
    -2
  9
$DIMLWE
 70
    -2
  9
$DIMTMOVE
 70
     0
  9
$LUNITS
 70
     2
  9
$LUPREC
 70
     2
  9
$SKETCHINC
 40
1.0
  9
$FILLETRAD
 40
10.0
  9
$AUNITS
 70
     0
  9
$AUPREC
 70
     2
  9
$MENU
  1
.
  9
$ELEVATION
 40
0.0
  9
$PELEVATION
 40
0.0
  9
$THICKNESS
 40
0.0
  9
$LIMCHECK
 70
     0
  9
$CHAMFERA
 40
10.0
  9
$CHAMFERB
 40
10.0
  9
$CHAMFERC
 40
20.0
  9
$CHAMFERD
 40
0.0
  9
$SKPOLY
 70
     0
  9
$TDCREATE
 40
2456924.710989861
  9
$TDUCREATE
 40
2456925.002656528
  9
$TDUPDATE
 40
2456924.710990556
  9
$TDUUPDATE
 40
2456925.002657222
  9
$TDINDWG
 40
0.0000000116
  9
$TDUSRTIMER
 40
0.0000000116
  9
$USRTIMER
 70
     1
  9
$ANGBASE
 50
0.0
  9
$ANGDIR
 70
     0
  9
$PDMODE
 70
     0
  9
$PDSIZE
 40
-1.0
  9
$PLINEWID
 40
0.0
  9
$SPLFRAME
 70
     0
  9
$SPLINETYPE
 70
     6
  9
$SPLINESEGS
 70
     8
  9
$HANDSEED
  5
2E3
  9
$SURFTAB1
 70
     6
  9
$SURFTAB2
 70
     6
  9
$SURFTYPE
 70
     6
  9
$SURFU
 70
     6
  9
$SURFV
 70
     6
  9
$UCSBASE
  2

  9
$UCSNAME
  2

  9
$UCSORG
 10
0.0
 20
0.0
 30
0.0
  9
$UCSXDIR
 10
1.0
 20
0.0
 30
0.0
  9
$UCSYDIR
 10
0.0
 20
1.0
 30
0.0
  9
$UCSORTHOREF
  2

  9
$UCSORTHOVIEW
 70
     0
  9
$UCSORGTOP
 10
0.0
 20
0.0
 30
0.0
  9
$UCSORGBOTTOM
 10
0.0
 20
0.0
 30
0.0
  9
$UCSORGLEFT
 10
0.0
 20
0.0
 30
0.0
  9
$UCSORGRIGHT
 10
0.0
 20
0.0
 30
0.0
  9
$UCSORGFRONT
 10
0.0
 20
0.0
 30
0.0
  9
$UCSORGBACK
 10
0.0
 20
0.0
 30
0.0
  9
$PUCSBASE
  2

  9
$PUCSNAME
  2

  9
$PUCSORG
 10
0.0
 20
0.0
 30
0.0
  9
$PUCSXDIR
 10
1.0
 20
0.0
 30
0.0
  9
$PUCSYDIR
 10
0.0
 20
1.0
 30
0.0
  9
$PUCSORTHOREF
  2

  9
$PUCSORTHOVIEW
 70
     0
  9
$PUCSORGTOP
 10
0.0
 20
0.0
 30
0.0
  9
$PUCSORGBOTTOM
 10
0.0
 20
0.0
 30
0.0
  9
$PUCSORGLEFT
 10
0.0
 20
0.0
 30
0.0
  9
$PUCSORGRIGHT
 10
0.0
 20
0.0
 30
0.0
  9
$PUCSORGFRONT
 10
0.0
 20
0.0
 30
0.0
  9
$PUCSORGBACK
 10
0.0
 20
0.0
 30
0.0
  9
$USERI1
 70
     0
  9
$USERI2
 70
     0
  9
$USERI3
 70
     0
  9
$USERI4
 70
     0
  9
$USERI5
 70
     0
  9
$USERR1
 40
0.0
  9
$USERR2
 40
0.0
  9
$USERR3
 40
0.0
  9
$USERR4
 40
0.0
  9
$USERR5
 40
0.0
  9
$WORLDVIEW
 70
     1
  9
$SHADEDGE
 70
     3
  9
$SHADEDIF
 70
    70
  9
$TILEMODE
 70
     1
  9
$MAXACTVP
 70
    64
  9
$PINSBASE
 10
0.0
 20
0.0
 30
0.0
  9
$PLIMCHECK
 70
     0
  9
$PEXTMIN
 10
1.0000000000E+20
 20
1.0000000000E+20
 30
1.0000000000E+20
  9
$PEXTMAX
 10
-1.0000000000E+20
 20
-1.0000000000E+20
 30
-1.0000000000E+20
  9
$PLIMMIN
 10
0.0
 20
0.0
  9
$PLIMMAX
 10
420.0
 20
297.0
  9
$UNITMODE
 70
     0
  9
$VISRETAIN
 70
     1
  9
$PLINEGEN
 70
     0
  9
$PSLTSCALE
 70
     1
  9
$TREEDEPTH
 70
  3020
  9
$CMLSTYLE
  2
Standard
  9
$CMLJUST
 70
     0
  9
$CMLSCALE
 40
20.0
  9
$PROXYGRAPHICS
 70
     1
  9
$MEASUREMENT
 70
     1
  9
$CELWEIGHT
370
    -1
  9
$ENDCAPS
280
     0
  9
$JOINSTYLE
280
     0
  9
$LWDISPLAY
290
     1
  9
$INSUNITS
 70
     4
  9
$HYPERLINKBASE
  1

  9
$STYLESHEET
  1

  9
$XEDIT
290
     1
  9
$CEPSNTYPE
380
     0
  9
$PSTYLEMODE
290
     1
  9
$FINGERPRINTGUID
  2
{5A08F1F0-F768-4012-8521-ABE8CD53B4BC}
  9
$VERSIONGUID
  2
{FAEB1C32-E019-11D5-929B-00C0DF256EC4}
  9
$EXTNAMES
290
     1
  9
$PSVPSCALE
 40
0.0
  9
$OLESTARTUP
290
     0
  0
ENDSEC
  0
SECTION
  2
CLASSES
  0
CLASS
  1
ACDBDICTIONARYWDFLT
  2
AcDbDictionaryWithDefault
  3
ObjectDBX Classes
 90
        0
280
     0
281
     0
  0
CLASS
  1
VISUALSTYLE
  2
AcDbVisualStyle
  3
ObjectDBX Classes
 90
     4095
280
     0
281
     0
  0
CLASS
  1
MATERIAL
  2
AcDbMaterial
  3
ObjectDBX Classes
 90
     1153
280
     0
281
     0
  0
CLASS
  1
ACDBPLACEHOLDER
  2
AcDbPlaceHolder
  3
ObjectDBX Classes
 90
        0
280
     0
281
     0
  0
CLASS
  1
LAYOUT
  2
AcDbLayout
  3
ObjectDBX Classes
 90
        0
280
     0
281
     0
  0
ENDSEC
  0
SECTION
  2
TABLES
  0
TABLE
  2
VPORT
  5
8
330
0
100
AcDbSymbolTable
 70
     1
  0
VPORT
  5
29
330
8
100
AcDbSymbolTableRecord
100
AcDbViewportTableRecord
  2
*Active
 70
     0
 10
0.0
 20
0.0
 11
1.0
 21
1.0
 12
0.5945
 22
0.4205
 13
0.0
 23
0.0
 14
10.0
 24
10.0
 15
10.0
 25
10.0
 16
0.0
 26
0.0
 36
1.0
 17
0.0
 27
0.0
 37
0.0
 40
0.841
 41
1.4137931034
 42
50.0
 43
0.0
 44
0.0
 50
0.0
 51
0.0
 71
     0
 72
  2000
 73
     1
 74
     3
 75
     0
 76
     0
 77
     0
 78
     0
281
     0
 65
     1
110
0.0
120
0.0
130
0.0
111
1.0
121
0.0
131
0.0
112
0.0
122
1.0
132
0.0
 79
     0
146
0.0
  0
ENDTAB
  0
TABLE
  2
LTYPE
  5
5
330
0
100
AcDbSymbolTable
 70
     6
  0
LTYPE
  5
14
330
5
100
AcDbSymbolTableRecord
100
AcDbLinetypeTableRecord
  2
ByBlock
 70
     0
  3

 72
    65
 73
     0
 40
0.0
  0
LTYPE
  5
15
330
5
100
AcDbSymbolTableRecord
100
AcDbLinetypeTableRecord
  2
ByLayer
 70
     0
  3

 72
    65
 73
     0
 40
0.0
  0
LTYPE
  5
16
330
5
100
AcDbSymbolTableRecord
100
AcDbLinetypeTableRecord
  2
Continuous
 70
     0
  3
Solid line
 72
    65
 73
     0
 40
0.0
  0
LTYPE
  5
3F
330
5
100
AcDbSymbolTableRecord
100
AcDbLinetypeTableRecord
  2
HIDDEN
 70
     0
  3
Hidden __ __ __ __ __ __ __ __ __ __ __ __ __ __
 72
    65
 73
     2
 40
0.001905
 49
0.00127
 74
     0
 49
-0.000635
 74
     0
  0
LTYPE
  5
40
330
5
100
AcDbSymbolTableRecord
100
AcDbLinetypeTableRecord
  2
PHANTOM
 70
     0
  3
Phantom ______  __  __  ______  __  __  ______
 72
    65
 73
     6
 40
0.0127
 49
0.00635
 74
     0
 49
-0.00127
 74
     0
 49
0.00127
 74
     0
 49
-0.00127
 74
     0
 49
0.00127
 74
     0
 49
-0.00127
 74
     0
  0
LTYPE
  5
41
330
5
100
AcDbSymbolTableRecord
100
AcDbLinetypeTableRecord
  2
CENTER
 70
     0
  3
Center ____ _ ____ _ ____ _ ____ _ ____ _ ____
 72
    65
 73
     4
 40
0.01016
 49
0.00635
 74
     0
 49
-0.00127
 74
     0
 49
0.00127
 74
     0
 49
-0.00127
 74
     0
  0
LTYPE
  5
42
330
5
100
AcDbSymbolTableRecord
100
AcDbLinetypeTableRecord
  2
CENTERX2
 70
     0
  3
Center (2x) ________  __  ________  __  _____
 72
    65
 73
     4
 40
0.02032
 49
0.0127
 74
     0
 49
-0.00254
 74
     0
 49
0.00254
 74
     0
 49
-0.00254
 74
     0
  0
LTYPE
  5
43
330
5
100
AcDbSymbolTableRecord
100
AcDbLinetypeTableRecord
  2
DOT2
 70
     0
  3
Dot (.5x) ........................................
 72
    65
 73
     2
 40
0.000635
 49
0.0
 74
     0
 49
-0.000635
 74
     0
  0
ENDTAB
  0
TABLE
  2
LAYER
  5
2
330
0
100
AcDbSymbolTable
 70
     1
  0
LAYER
  5
10
330
2
100
AcDbSymbolTableRecord
100
AcDbLayerTableRecord
  2
0
 70
     0
 62
     7
  6
Continuous
370
    -3
390
F
  0
ENDTAB
  0
TABLE
  2
STYLE
  5
3
330
0
100
AcDbSymbolTable
 70
     1
  0
STYLE
  5
11
330
3
100
AcDbSymbolTableRecord
100
AcDbTextStyleTableRecord
  2
Standard
 70
     0
 40
0.0
 41
1.0
 50
0.0
 71
     0
 42
0.0035
  3
txt
  4

  0
ENDTAB
  0
TABLE
  2
VIEW
  5
6
330
0
100
AcDbSymbolTable
 70
     0
  0
ENDTAB
  0
TABLE
  2
UCS
  5
7
330
0
100
AcDbSymbolTable
 70
     0
  0
ENDTAB
  0
TABLE
  2
APPID
  5
9
330
0
100
AcDbSymbolTable
 70
     1
  0
APPID
  5
12
330
9
100
AcDbSymbolTableRecord
100
AcDbRegAppTableRecord
  2
ACAD
 70
     0
  0
ENDTAB
  0
TABLE
  2
DIMSTYLE
  5
A
330
0
100
AcDbSymbolTable
 70
     1
100
AcDbDimStyleTable
  0
DIMSTYLE
105
27
330
A
100
AcDbSymbolTableRecord
100
AcDbDimStyleTableRecord
  2
ISO-25
 70
     0
 41
2.5
 42
0.625
 43
3.75
 44
1.25
 73
     0
 74
     0
 77
     1
 78
     8
140
2.5
141
2.5
143
0.0393700787
147
0.625
171
     3
172
     1
178
     0
271
     2
272
     2
274
     3
278
    44
283
     0
284
     8
340
11
  0
ENDTAB
  0
TABLE
  2
BLOCK_RECORD
  5
1
330
0
100
AcDbSymbolTable
 70
     1
  0
BLOCK_RECORD
  5
1F
330
1
100
AcDbSymbolTableRecord
100
AcDbBlockTableRecord
  2
*Model_Space
340
22
  0
BLOCK_RECORD
  5
1B
330
1
100
AcDbSymbolTableRecord
100
AcDbBlockTableRecord
  2
*Paper_Space
340
1E
  0
BLOCK_RECORD
  5
23
330
1
100
AcDbSymbolTableRecord
100
AcDbBlockTableRecord
  2
*Paper_Space0
340
26
  0
ENDTAB
  0
ENDSEC
  0
SECTION
  2
BLOCKS
  0
BLOCK
  5
20
330
1F
100
AcDbEntity
  8
0
100
AcDbBlockBegin
  2
*Model_Space
 70
     0
 10
0.0
 20
0.0
 30
0.0
  3
*Model_Space
  1

  0
ENDBLK
  5
21
330
1F
100
AcDbEntity
  8
0
100
AcDbBlockEnd
  0
BLOCK
  5
1C
330
1B
100
AcDbEntity
 67
     1
  8
0
100
AcDbBlockBegin
  2
*Paper_Space
 70
     0
 10
0.0
 20
0.0
 30
0.0
  3
*Paper_Space
  1

  0
ENDBLK
  5
1D
330
1B
100
AcDbEntity
 67
     1
  8
0
100
AcDbBlockEnd
  0
BLOCK
  5
24
330
23
100
AcDbEntity
  8
0
100
AcDbBlockBegin
  2
*Paper_Space0
 70
     0
 10
0.0
 20
0.0
 30
0.0
  3
*Paper_Space0
  1

  0
ENDBLK
  5
25
330
23
100
AcDbEntity
  8
0
100
AcDbBlockEnd
  0
ENDSEC
  0
SECTION
  2
ENTITIES
  0
ARC
  5
44
330
1F
100
AcDbEntity
  8
0
  6
Continuous
 62
     7
370
    15
100
AcDbCircle
 10
0.3837186102
 20
0.0903397709
 30
0.0
 40
0.0084638356440986
100
AcDbArc
 50
240.0
 51
60.0
  0
ARC
  5
45
330
1F
100
AcDbEntity
  8
0
  6
Continuous
 62
     7
370
    15
100
AcDbCircle
 10
0.2464966757
 20
0.1695648917
 30
0.0
 40
0.112216994006
100
AcDbArc
 50
231.3410571559
 51
263.9195339477
  0
ARC
  5
46
330
1F
100
AcDbEntity
  8
0
  6
Continuous
 62
     7
370
    15
100
AcDbCircle
 10
0.2464966757
 20
0.1695648917
 30
0.0
 40
0.112216994006
100
AcDbArc
 50
303.3410571559
 51
335.9195339477
  0
ARC
  5
47
330
1F
100
AcDbEntity
  8
0
  6
Continuous
 62
     7
370
    15
100
AcDbCircle
 10
0.2464966757
 20
0.1695648917
 30
0.0
 40
0.112216994006
100
AcDbArc
 50
15.3410571559
 51
47.9195339477
  0
ARC
  5
48
330
1F
100
AcDbEntity
  8
0
  6
Continuous
 62
     7
370
    15
100
AcDbCircle
 10
0.2464966757
 20
0.1695648917
 30
0.0
 40
0.112216994006
100
AcDbArc
 50
87.3410571559
 51
119.9195339477
  0
ARC
  5
49
330
1F
100
AcDbEntity
  8
0
  6
Continuous
 62
     7
370
    15
100
AcDbCircle
 10
0.2464966757
 20
0.1695648917
 30
0.0
 40
0.112216994006
100
AcDbArc
 50
159.3410571559
 51
191.9195339477
  0
ARC
  5
4A
330
1F
100
AcDbEntity
  8
0
  6
Continuous
 62
     7
370
    15
100
AcDbCircle
 10
0.2276589997
 20
0.227541297
 30
0.0
 40
0.0456545434005741
100
AcDbArc
 50
152.2666097821
 51
223.0956870669
  0
ARC
  5
4B
330
1F
100
AcDbEntity
  8
0
  6
Continuous
 62
     7
370
    15
100
AcDbCircle
 10
0.1855366757
 20
0.1695648917
 30
0.0
 40
0.0456545434005741
100
AcDbArc
 50
224.2666097821
 51
295.0956870669
  0
ARC
  5
4C
330
1F
100
AcDbEntity
  8
0
  6
Continuous
 62
     7
370
    15
100
AcDbCircle
 10
0.2276589997
 20
0.1115884865
 30
0.0
 40
0.0456545434005741
100
AcDbArc
 50
296.2666097821
 51
7.0956870669
  0
ARC
  5
4D
330
1F
100
AcDbEntity
  8
0
  6
Continuous
 62
     7
370
    15
100
AcDbCircle
 10
0.2958143517
 20
0.1337335027
 30
0.0
 40
0.0456545434005741
100
AcDbArc
 50
8.2666097821
 51
79.0956870669
  0
ARC
  5
4E
330
1F
100
AcDbEntity
  8
0
  6
Continuous
 62
     7
370
    15
100
AcDbCircle
 10
0.2958143517
 20
0.2053962807
 30
0.0
 40
0.0456545434005741
100
AcDbArc
 50
80.2666097821
 51
151.0956870669
  0
CIRCLE
  5
4F
330
1F
100
AcDbEntity
  8
0
  6
Continuous
 62
     7
370
    15
100
AcDbCircle
 10
0.4369966757
 20
0.1695648917
 30
0.0
 40
0.0033
  0
CIRCLE
  5
50
330
1F
100
AcDbEntity
  8
0
  6
Continuous
 62
     7
370
    15
100
AcDbCircle
 10
0.2464966757
 20
0.1695648917
 30
0.0
 40
0.0508
  0
CIRCLE
  5
51
330
1F
100
AcDbEntity
  8
0
  6
Continuous
 62
     7
370
    15
100
AcDbCircle
 10
0.1855366757
 20
0.1695648917
 30
0.0
 40
0.0033
  0
CIRCLE
  5
52
330
1F
100
AcDbEntity
  8
0
  6
Continuous
 62
     7
370
    15
100
AcDbCircle
 10
0.1169566757
 20
0.1695648917
 30
0.0
 40
0.0033
  0
CIRCLE
  5
53
330
1F
100
AcDbEntity
  8
0
  6
Continuous
 62
     7
370
    15
100
AcDbCircle
 10
0.2064666143
 20
0.2927647528
 30
0.0
 40
0.0033
  0
CIRCLE
  5
54
330
1F
100
AcDbEntity
  8
0
  6
Continuous
 62
     7
370
    15
100
AcDbCircle
 10
0.2276589997
 20
0.227541297
 30
0.0
 40
0.0033
  0
CIRCLE
  5
55
330
1F
100
AcDbEntity
  8
0
  6
Continuous
 62
     7
370
    15
100
AcDbCircle
 10
0.3512967372
 20
0.2457065933
 30
0.0
 40
0.0033
  0
CIRCLE
  5
56
330
1F
100
AcDbEntity
  8
0
  6
Continuous
 62
     7
370
    15
100
AcDbCircle
 10
0.2958143517
 20
0.2053962807
 30
0.0
 40
0.0033
  0
CIRCLE
  5
57
330
1F
100
AcDbEntity
  8
0
  6
Continuous
 62
     7
370
    15
100
AcDbCircle
 10
0.3512967372
 20
0.0934231901
 30
0.0
 40
0.0033
  0
CIRCLE
  5
58
330
1F
100
AcDbEntity
  8
0
  6
Continuous
 62
     7
370
    15
100
AcDbCircle
 10
0.2958143517
 20
0.1337335027
 30
0.0
 40
0.0033
  0
CIRCLE
  5
59
330
1F
100
AcDbEntity
  8
0
  6
Continuous
 62
     7
370
    15
100
AcDbCircle
 10
0.2064666143
 20
0.0463650306
 30
0.0
 40
0.0033
  0
CIRCLE
  5
5A
330
1F
100
AcDbEntity
  8
0
  6
Continuous
 62
     7
370
    15
100
AcDbCircle
 10
0.2276589997
 20
0.1115884865
 30
0.0
 40
0.0033
  0
CIRCLE
  5
5B
330
1F
100
AcDbEntity
  8
0
  6
Continuous
 62
     7
370
    15
100
AcDbCircle
 10
0.2464966757
 20
0.3280151333
 30
0.0
 40
0.0032999999999997
  0
CIRCLE
  5
5C
330
1F
100
AcDbEntity
  8
0
  6
Continuous
 62
     7
370
    15
100
AcDbCircle
 10
0.3837186102
 20
0.0903397709
 30
0.0
 40
0.0033000000000004
  0
CIRCLE
  5
5D
330
1F
100
AcDbEntity
  8
0
  6
Continuous
 62
     7
370
    15
100
AcDbCircle
 10
0.1092747413
 20
0.0903397709
 30
0.0
 40
0.0033000000000011
  0
ARC
  5
5E
330
1F
100
AcDbEntity
  8
0
  6
Continuous
 62
     7
370
    15
100
AcDbCircle
 10
0.1730809545
 20
0.0777923986
 30
0.0
 40
0.005307720906
100
AcDbArc
 50
51.3410571559
 51
231.3410571559
  0
ARC
  5
5F
330
1F
100
AcDbEntity
  8
0
  6
Continuous
 62
     7
370
    15
100
AcDbCircle
 10
0.2464966757
 20
0.1695648917
 30
0.0
 40
0.122832435818
100
AcDbArc
 50
231.3410571559
 51
263.9195339477
  0
ARC
  5
60
330
1F
100
AcDbEntity
  8
0
  6
Continuous
 62
     7
370
    15
100
AcDbCircle
 10
0.2340478628
 20
0.0527013573
 30
0.0
 40
0.005307720906
100
AcDbArc
 50
263.9195339477
 51
83.9195339477
  0
ARC
  5
61
330
1F
100
AcDbEntity
  8
0
  6
Continuous
 62
     7
370
    15
100
AcDbCircle
 10
0.3110907978
 20
0.0713831317
 30
0.0
 40
0.0053077209060001
100
AcDbArc
 50
123.3410571559
 51
303.3410571559
  0
ARC
  5
62
330
1F
100
AcDbEntity
  8
0
  6
Continuous
 62
     7
370
    15
100
AcDbCircle
 10
0.2464966757
 20
0.1695648917
 30
0.0
 40
0.122832435818
100
AcDbArc
 50
303.3410571559
 51
335.9195339477
  0
ARC
  5
63
330
1F
100
AcDbEntity
  8
0
  6
Continuous
 62
     7
370
    15
100
AcDbCircle
 10
0.3537936069
 20
0.1216125489
 30
0.0
 40
0.0053077209060001
100
AcDbArc
 50
335.9195339477
 51
155.9195339477
  0
ARC
  5
64
330
1F
100
AcDbEntity
  8
0
  6
Continuous
 62
     7
370
    15
100
AcDbCircle
 10
0.3598337599
 20
0.20065772
 30
0.0
 40
0.0053077209060001
100
AcDbArc
 50
195.3410571559
 51
15.3410571559
  0
ARC
  5
65
330
1F
100
AcDbEntity
  8
0
  6
Continuous
 62
     7
370
    15
100
AcDbCircle
 10
0.2464966757
 20
0.1695648917
 30
0.0
 40
0.1228324358180001
100
AcDbArc
 50
15.3410571559
 51
47.9195339477
  0
ARC
  5
66
330
1F
100
AcDbEntity
  8
0
  6
Continuous
 62
     7
370
    15
100
AcDbCircle
 10
0.325258639
 20
0.2567922484
 30
0.0
 40
0.0053077209060001
100
AcDbArc
 50
47.9195339477
 51
227.9195339477
  0
ARC
  5
67
330
1F
100
AcDbEntity
  8
0
  6
Continuous
 62
     7
370
    15
100
AcDbCircle
 10
0.2519487238
 20
0.2869630765
 30
0.0
 40
0.005307720906
100
AcDbArc
 50
267.3410571559
 51
87.3410571559
  0
ARC
  5
68
330
1F
100
AcDbEntity
  8
0
  6
Continuous
 62
     7
370
    15
100
AcDbCircle
 10
0.2464966757
 20
0.1695648917
 30
0.0
 40
0.1228324358180001
100
AcDbArc
 50
87.3410571559
 51
119.9195339477
  0
ARC
  5
69
330
1F
100
AcDbEntity
  8
0
  6
Continuous
 62
     7
370
    15
100
AcDbCircle
 10
0.1878773149
 20
0.2714267057
 30
0.0
 40
0.005307720906
100
AcDbArc
 50
119.9195339477
 51
299.9195339477
  0
ARC
  5
6A
330
1F
100
AcDbEntity
  8
0
  6
Continuous
 62
     7
370
    15
100
AcDbCircle
 10
0.1365291426
 20
0.2110281318
 30
0.0
 40
0.005307720906
100
AcDbArc
 50
339.3410571559
 51
159.3410571559
  0
ARC
  5
6B
330
1F
100
AcDbEntity
  8
0
  6
Continuous
 62
     7
370
    15
100
AcDbCircle
 10
0.2464966757
 20
0.1695648917
 30
0.0
 40
0.122832435818
100
AcDbArc
 50
159.3410571559
 51
191.9195339477
  0
ARC
  5
6C
330
1F
100
AcDbEntity
  8
0
  6
Continuous
 62
     7
370
    15
100
AcDbCircle
 10
0.1315059551
 20
0.1452915982
 30
0.0
 40
0.005307720906
100
AcDbArc
 50
191.9195339477
 51
11.9195339477
  0
ARC
  5
6D
330
1F
100
AcDbEntity
  8
0
  6
Continuous
 62
     7
370
    15
100
AcDbCircle
 10
0.1825511489
 20
0.2512569917
 30
0.0
 40
0.0053077209434259
100
AcDbArc
 50
332.2666097821
 51
152.2666097821
  0
ARC
  5
6E
330
1F
100
AcDbEntity
  8
0
  6
Continuous
 62
     7
370
    15
100
AcDbCircle
 10
0.2276589997
 20
0.227541297
 30
0.0
 40
0.0562699852874259
100
AcDbArc
 50
152.2666097821
 51
223.0956870669
  0
ARC
  5
6F
330
1F
100
AcDbEntity
  8
0
  6
Continuous
 62
     7
370
    15
100
AcDbCircle
 10
0.1904456557
 20
0.1927229194
 30
0.0
 40
0.005307720943426
100
AcDbArc
 50
223.0956870669
 51
43.0956870669
  0
ARC
  5
70
330
1F
100
AcDbEntity
  8
0
  6
Continuous
 62
     7
370
    15
100
AcDbCircle
 10
0.1490426172
 20
0.1339933289
 30
0.0
 40
0.0053077209434259
100
AcDbArc
 50
44.2666097821
 51
224.2666097821
  0
ARC
  5
71
330
1F
100
AcDbEntity
  8
0
  6
Continuous
 62
     7
370
    15
100
AcDbCircle
 10
0.1855366757
 20
0.1695648917
 30
0.0
 40
0.0562699852874259
100
AcDbArc
 50
224.2666097821
 51
295.0956870669
  0
ARC
  5
72
330
1F
100
AcDbEntity
  8
0
  6
Continuous
 62
     7
370
    15
100
AcDbCircle
 10
0.2071513649
 20
0.123413428
 30
0.0
 40
0.0053077209434259
100
AcDbArc
 50
295.0956870669
 51
115.0956870669
  0
ARC
  5
73
330
1F
100
AcDbEntity
  8
0
  6
Continuous
 62
     7
370
    15
100
AcDbCircle
 10
0.2502122821
 20
0.0658883569
 30
0.0
 40
0.0053077209434259
100
AcDbArc
 50
116.2666097821
 51
296.2666097821
  0
ARC
  5
74
330
1F
100
AcDbEntity
  8
0
  6
Continuous
 62
     7
370
    15
100
AcDbCircle
 10
0.2276589997
 20
0.1115884865
 30
0.0
 40
0.0562699852874259
100
AcDbArc
 50
296.2666097821
 51
7.0956870669
  0
ARC
  5
75
330
1F
100
AcDbEntity
  8
0
  6
Continuous
 62
     7
370
    15
100
AcDbCircle
 10
0.2782309563
 20
0.1178836908
 30
0.0
 40
0.0053077209434259
100
AcDbArc
 50
7.0956870669
 51
187.0956870669
  0
ARC
  5
76
330
1F
100
AcDbEntity
  8
0
  6
Continuous
 62
     7
370
    15
100
AcDbCircle
 10
0.3462471052
 20
0.1410608322
 30
0.0
 40
0.0053077209434259
100
AcDbArc
 50
188.2666097821
 51
8.2666097821
  0
ARC
  5
77
330
1F
100
AcDbEntity
  8
0
  6
Continuous
 62
     7
370
    15
100
AcDbCircle
 10
0.2958143517
 20
0.1337335027
 30
0.0
 40
0.056269985287426
100
AcDbArc
 50
8.2666097821
 51
79.0956870669
  0
ARC
  5
78
330
1F
100
AcDbEntity
  8
0
  6
Continuous
 62
     7
370
    15
100
AcDbCircle
 10
0.3054548506
 20
0.1837756167
 30
0.0
 40
0.005307720943426
100
AcDbArc
 50
79.0956870669
 51
259.0956870669
  0
ARC
  5
79
330
1F
100
AcDbEntity
  8
0
  6
Continuous
 62
     7
370
    15
100
AcDbCircle
 10
0.3044302252
 20
0.2556249489
 30
0.0
 40
0.005307720943426
100
AcDbArc
 50
260.2666097821
 51
80.2666097821
  0
ARC
  5
7A
330
1F
100
AcDbEntity
  8
0
  6
Continuous
 62
     7
370
    15
100
AcDbCircle
 10
0.2958143517
 20
0.2053962807
 30
0.0
 40
0.0562699852874259
100
AcDbArc
 50
80.2666097821
 51
151.0956870669
  0
ARC
  5
7B
330
1F
100
AcDbEntity
  8
0
  6
Continuous
 62
     7
370
    15
100
AcDbCircle
 10
0.2512005511
 20
0.2300288036
 30
0.0
 40
0.0053077209434259
100
AcDbArc
 50
151.0956870669
 51
331.0956870669
  0
LINE
  5
7C
330
1F
100
AcDbEntity
  8
0
  6
Continuous
 62
     7
370
    15
100
AcDbLine
 10
0.3794866923
 20
0.0830098743
 30
0.0
 11
0.3740433321
 21
0.0861525998
 31
0.0
  0
ARC
  5
7D
330
1F
100
AcDbEntity
  8
0
  6
Continuous
 62
     7
370
    15
100
AcDbCircle
 10
0.2464966757
 20
0.1695648917
 30
0.0
 40
0.1524000000000036
100
AcDbArc
 50
213.1836725495
 51
326.8163274505
  0
LINE
  5
7E
330
1F
100
AcDbEntity
  8
0
  6
Continuous
 62
     7
370
    15
100
AcDbLine
 10
0.1135066591
 20
0.0830098743
 30
0.0
 11
0.1189500194
 21
0.0861525998
 31
0.0
  0
ARC
  5
7F
330
1F
100
AcDbEntity
  8
0
  6
Continuous
 62
     7
370
    15
100
AcDbCircle
 10
0.1092747413
 20
0.0903397709
 30
0.0
 40
0.0084638356440985
100
AcDbArc
 50
120.0
 51
300.0
  0
LINE
  5
80
330
1F
100
AcDbEntity
  8
0
  6
Continuous
 62
     7
370
    15
100
AcDbLine
 10
0.1050428235
 20
0.0976696676
 30
0.0
 11
0.1104861837
 21
0.1008123931
 31
0.0
  0
ARC
  5
81
330
1F
100
AcDbEntity
  8
0
  6
Continuous
 62
     7
370
    15
100
AcDbCircle
 10
0.2464966757
 20
0.1695648917
 30
0.0
 40
0.1524000000000036
100
AcDbArc
 50
93.1836725495
 51
206.8163274505
  0
LINE
  5
82
330
1F
100
AcDbEntity
  8
0
  6
Continuous
 62
     7
370
    15
100
AcDbLine
 10
0.2380328401
 20
0.3280151333
 30
0.0
 11
0.2380328401
 21
0.3217296823
 31
0.0
  0
ARC
  5
83
330
1F
100
AcDbEntity
  8
0
  6
Continuous
 62
     7
370
    15
100
AcDbCircle
 10
0.2464966757
 20
0.3280151333
 30
0.0
 40
0.0084638356440986
100
AcDbArc
 50
0.0
 51
180.0
  0
LINE
  5
84
330
1F
100
AcDbEntity
  8
0
  6
Continuous
 62
     7
370
    15
100
AcDbLine
 10
0.2549605114
 20
0.3280151333
 30
0.0
 11
0.2549605114
 21
0.3217296823
 31
0.0
  0
ARC
  5
85
330
1F
100
AcDbEntity
  8
0
  6
Continuous
 62
     7
370
    15
100
AcDbCircle
 10
0.2464966757
 20
0.1695648917
 30
0.0
 40
0.1524
100
AcDbArc
 50
19.5355344171
 51
86.8163274505
  0
LINE
  5
86
330
1F
100
AcDbEntity
  8
0
  6
Continuous
 62
     7
370
    15
100
AcDbLine
 10
0.4369966757
 20
0.2205261433
 30
0.0
 11
0.3901236608
 21
0.2205261433
 31
0.0
  0
ARC
  5
87
330
1F
100
AcDbEntity
  8
0
  6
Continuous
 62
     7
370
    15
100
AcDbCircle
 10
0.4369966757
 20
0.1695648917
 30
0.0
 40
0.0509612515321772
100
AcDbArc
 50
270.0
 51
90.0
  0
LINE
  5
88
330
1F
100
AcDbEntity
  8
0
  6
Continuous
 62
     7
370
    15
100
AcDbLine
 10
0.4369966757
 20
0.1186036402
 30
0.0
 11
0.3901236608
 21
0.1186036402
 31
0.0
  0
ARC
  5
89
330
1F
100
AcDbEntity
  8
0
  6
Continuous
 62
     7
370
    15
100
AcDbCircle
 10
0.2464966757
 20
0.1695648917
 30
0.0
 40
0.1524000000000035
100
AcDbArc
 50
333.1836725495
 51
340.4644655829
  0
LINE
  5
8A
330
1F
100
AcDbEntity
  8
0
  6
Continuous
 62
     7
370
    15
100
AcDbLine
 10
0.387950528
 20
0.0976696676
 30
0.0
 11
0.3825071677
 21
0.1008123931
 31
0.0
  0
CIRCLE
  5
8B
330
1F
100
AcDbEntity
  8
0
  6
Continuous
 62
     7
370
    15
100
AcDbCircle
 10
0.4738133322
 20
0.3463375662
 30
0.0
 40
0.0033
  0
LINE
  5
8C
330
1F
100
AcDbEntity
  8
0
  6
Continuous
 62
     7
370
    15
100
AcDbLine
 10
0.4544084655
 20
0.3640580402
 30
0.0
 11
0.4304599665
 21
0.3698128304
 31
0.0
  0
CIRCLE
  5
8D
330
1F
100
AcDbEntity
  8
0
  6
Continuous
 62
     7
370
    15
100
AcDbCircle
 10
0.4926510082
 20
0.4043139714
 30
0.0
 40
0.0508
  0
CIRCLE
  5
8E
330
1F
100
AcDbEntity
  8
0
  6
Continuous
 62
     7
370
    15
100
AcDbCircle
 10
0.4316910082
 20
0.4043139714
 30
0.0
 40
0.0033
  0
CIRCLE
  5
8F
330
1F
100
AcDbEntity
  8
0
  6
Continuous
 62
     7
370
    15
100
AcDbCircle
 10
0.4738133322
 20
0.4622903766
 30
0.0
 40
0.0033
  0
CIRCLE
  5
90
330
1F
100
AcDbEntity
  8
0
  6
Continuous
 62
     7
370
    15
100
AcDbCircle
 10
0.5419686842
 20
0.4401453604
 30
0.0
 40
0.0033
  0
CIRCLE
  5
91
330
1F
100
AcDbEntity
  8
0
  6
Continuous
 62
     7
370
    15
100
AcDbCircle
 10
0.5419686842
 20
0.3684825824
 30
0.0
 40
0.0033
  0
ARC
  5
92
330
1F
100
AcDbEntity
  8
0
  6
Continuous
 62
     7
370
    15
100
AcDbCircle
 10
0.4926510082
 20
0.4043139714
 30
0.0
 40
0.07112
100
AcDbArc
 50
159.4430144692
 51
209.0197881224
  0
LINE
  5
93
330
1F
100
AcDbEntity
  8
0
  6
Continuous
 62
     7
370
    15
100
AcDbLine
 10
0.4316910082
 20
0.4237265743
 30
0.0
 11
0.4260596869
 21
0.4292869634
 31
0.0
  0
ARC
  5
94
330
1F
100
AcDbEntity
  8
0
  6
Continuous
 62
     7
370
    15
100
AcDbCircle
 10
0.4363805814
 20
0.4277609471
 30
0.0
 40
0.0061861345394295
100
AcDbArc
 50
220.7049394728
 51
4.4880924562
  0
LINE
  5
95
330
1F
100
AcDbEntity
  8
0
  6
Continuous
 62
     7
370
    15
100
AcDbLine
 10
0.4425477469
 20
0.4282450239
 30
0.0
 11
0.4406203844
 21
0.4527997279
 31
0.0
  0
ARC
  5
96
330
1F
100
AcDbEntity
  8
0
  6
Continuous
 62
     7
370
    15
100
AcDbCircle
 10
0.4926510082
 20
0.4043139714
 30
0.0
 40
0.0711200000000024
100
AcDbArc
 50
87.4430144692
 51
137.0197881224
  0
LINE
  5
97
330
1F
100
AcDbEntity
  8
0
  6
Continuous
 62
     7
370
    15
100
AcDbLine
 10
0.4922758148
 20
0.4682892008
 30
0.0
 11
0.4958238851
 21
0.4753631604
 31
0.0
  0
ARC
  5
98
330
1F
100
AcDbEntity
  8
0
  6
Continuous
 62
     7
370
    15
100
AcDbCircle
 10
0.4975618891
 20
0.4650758414
 30
0.0
 40
0.0061861345394294
100
AcDbArc
 50
148.7049394728
 51
292.4880924562
  0
LINE
  5
99
330
1F
100
AcDbEntity
  8
0
  6
Continuous
 62
     7
370
    15
100
AcDbLine
 10
0.4999280325
 20
0.4593601065
 30
0.0
 11
0.522685356
 21
0.468780958
 31
0.0
  0
ARC
  5
9A
330
1F
100
AcDbEntity
  8
0
  6
Continuous
 62
     7
370
    15
100
AcDbCircle
 10
0.4926510082
 20
0.4043139714
 30
0.0
 40
0.0711200000000018
100
AcDbArc
 50
15.4430144692
 51
65.0197881224
  0
LINE
  5
9B
330
1F
100
AcDbEntity
  8
0
  6
Continuous
 62
     7
370
    15
100
AcDbLine
 10
0.5533791259
 20
0.4244402347
 30
0.0
 11
0.5612032752
 21
0.423251793
 31
0.0
  0
ARC
  5
9C
330
1F
100
AcDbEntity
  8
0
  6
Continuous
 62
     7
370
    15
100
AcDbCircle
 10
0.5519565263
 20
0.4184198966
 30
0.0
 40
0.0061861345394295
100
AcDbArc
 50
76.7049394728
 51
220.4880924562
  0
LINE
  5
9D
330
1F
100
AcDbEntity
  8
0
  6
Continuous
 62
     7
370
    15
100
AcDbLine
 10
0.5472517178
 20
0.4144033013
 30
0.0
 11
0.5632438797
 21
0.3956710037
 31
0.0
  0
ARC
  5
9E
330
1F
100
AcDbEntity
  8
0
  6
Continuous
 62
     7
370
    15
100
AcDbCircle
 10
0.4926510082
 20
0.4043139714
 30
0.0
 40
0.07112
100
AcDbArc
 50
303.4430144692
 51
353.0197881224
  0
LINE
  5
9F
330
1F
100
AcDbEntity
  8
0
  6
Continuous
 62
     7
370
    15
100
AcDbLine
 10
0.5305582425
 20
0.3527774567
 30
0.0
 11
0.5318457624
 21
0.3449689999
 31
0.0
  0
ARC
  5
A0
330
1F
100
AcDbEntity
  8
0
  6
Continuous
 62
     7
370
    15
100
AcDbCircle
 10
0.5243929532
 20
0.3522700426
 30
0.0
 40
0.0061861345394294
100
AcDbArc
 50
4.7049394728
 51
148.4880924562
  0
LINE
  5
A1
330
1F
100
AcDbEntity
  8
0
  6
Continuous
 62
     7
370
    15
100
AcDbLine
 10
0.5191190783
 20
0.3555033851
 30
0.0
 11
0.5062454544
 21
0.334505337
 31
0.0
  0
ARC
  5
A2
330
1F
100
AcDbEntity
  8
0
  6
Continuous
 62
     7
370
    15
100
AcDbCircle
 10
0.4926510082
 20
0.4043139714
 30
0.0
 40
0.0711199999999979
100
AcDbArc
 50
231.4430144692
 51
281.0197881224
  0
LINE
  5
A3
330
1F
100
AcDbEntity
  8
0
  6
Continuous
 62
     7
370
    15
100
AcDbLine
 10
0.4553508497
 20
0.3523363904
 30
0.0
 11
0.4483224315
 21
0.3486989403
 31
0.0
  0
ARC
  5
A4
330
1F
100
AcDbEntity
  8
0
  6
Continuous
 62
     7
370
    15
100
AcDbCircle
 10
0.452963091
 20
0.3580431293
 30
0.0
 40
0.0061861345394294
100
AcDbArc
 50
292.7049394728
 51
76.4880924562
  0
CIRCLE
  5
A5
330
1F
100
AcDbEntity
  8
0
  6
Continuous
 62
     7
370
    15
100
AcDbCircle
 10
0.587053682
 20
0.3356680125
 30
0.0
 40
0.0028585195022717
  0
CIRCLE
  5
A6
330
1F
100
AcDbEntity
  8
0
  6
Continuous
 62
     7
370
    15
100
AcDbCircle
 10
0.4053909218
 20
0.4659413371
 30
0.0
 40
0.0028585195022717
  0
ARC
  5
A7
330
1F
100
AcDbEntity
  8
0
  6
Continuous
 62
     7
370
    15
100
AcDbCircle
 10
0.5162052094
 20
0.2484604697
 30
0.0
 40
0.0033
100
AcDbArc
 50
288.5202649788
 51
108.5202649788
  0
ARC
  5
A8
330
1F
100
AcDbEntity
  8
0
  6
Continuous
 62
     7
370
    15
100
AcDbCircle
 10
0.4750581174
 20
0.3712917703
 30
0.0
 40
0.12624
100
AcDbArc
 50
252.1898878922
 51
288.5202649788
  0
ARC
  5
A9
330
1F
100
AcDbEntity
  8
0
  6
Continuous
 62
     7
370
    15
100
AcDbCircle
 10
0.4354365802
 20
0.2479599196
 30
0.0
 40
0.0033
100
AcDbArc
 50
72.1898878922
 51
252.1898878922
  0
ARC
  5
AA
330
1F
100
AcDbEntity
  8
0
  6
Continuous
 62
     7
370
    15
100
AcDbCircle
 10
0.4750581174
 20
0.3712917703
 30
0.0
 40
0.13284
100
AcDbArc
 50
252.1898878922
 51
288.5202649788
  0
ARC
  5
AB
330
1F
100
AcDbEntity
  8
0
  6
Continuous
 62
     7
370
    15
100
AcDbCircle
 10
0.5139678477
 20
0.4948500339
 30
0.0
 40
0.0033000000000001
100
AcDbArc
 50
72.5202649788
 51
252.5202649788
  0
ARC
  5
AC
330
1F
100
AcDbEntity
  8
0
  6
Continuous
 62
     7
370
    15
100
AcDbCircle
 10
0.4750581174
 20
0.3712917703
 30
0.0
 40
0.12624
100
AcDbArc
 50
36.1898878922
 51
72.5202649788
  0
ARC
  5
AD
330
1F
100
AcDbEntity
  8
0
  6
Continuous
 62
     7
370
    15
100
AcDbCircle
 10
0.5796052573
 20
0.4477803782
 30
0.0
 40
0.0033
100
AcDbArc
 50
216.1898878922
 51
36.1898878922
  0
ARC
  5
AE
330
1F
100
AcDbEntity
  8
0
  6
Continuous
 62
     7
370
    15
100
AcDbCircle
 10
0.4750581174
 20
0.3712917703
 30
0.0
 40
0.13284
100
AcDbArc
 50
36.1898878922
 51
72.5202649788
  0
ARC
  5
AF
330
1F
100
AcDbEntity
  8
0
  6
Continuous
 62
     7
370
    15
100
AcDbCircle
 10
0.3709537592
 20
0.294201601
 30
0.0
 40
0.0033
100
AcDbArc
 50
216.5202649788
 51
36.5202649788
  0
ARC
  5
B0
330
1F
100
AcDbEntity
  8
0
  6
Continuous
 62
     7
370
    15
100
AcDbCircle
 10
0.4750581174
 20
0.3712917703
 30
0.0
 40
0.12624
100
AcDbArc
 50
180.1898878922
 51
216.5202649788
  0
ARC
  5
B1
330
1F
100
AcDbEntity
  8
0
  6
Continuous
 62
     7
370
    15
100
AcDbCircle
 10
0.3455188288
 20
0.3708624537
 30
0.0
 40
0.0033
100
AcDbArc
 50
0.1898878922
 51
180.1898878922
  0
ARC
  5
B2
330
1F
100
AcDbEntity
  8
0
  6
Continuous
 62
     7
370
    15
100
AcDbCircle
 10
0.4750581174
 20
0.3712917703
 30
0.0
 40
0.13284
100
AcDbArc
 50
180.1898878922
 51
216.5202649788
  0
CIRCLE
  5
B3
330
1F
100
AcDbEntity
  8
0
  6
Continuous
 62
     7
370
    15
100
AcDbCircle
 10
0.4750581174
 20
0.3712917703
 30
0.0
 40
0.110900692199231
  0
ARC
  5
B4
330
1F
100
AcDbEntity
  8
0
  6
Continuous
 62
     7
370
    15
100
AcDbCircle
 10
0.3695709936
 20
0.4464787261
 30
0.0
 40
0.0033
100
AcDbArc
 50
144.5202649788
 51
324.5202649788
  0
ARC
  5
B5
330
1F
100
AcDbEntity
  8
0
  6
Continuous
 62
     7
370
    15
100
AcDbCircle
 10
0.4750581174
 20
0.3712917703
 30
0.0
 40
0.12624
100
AcDbArc
 50
108.1898878922
 51
144.5202649788
  0
ARC
  5
B6
330
1F
100
AcDbEntity
  8
0
  6
Continuous
 62
     7
370
    15
100
AcDbCircle
 10
0.4346199714
 20
0.4943582887
 30
0.0
 40
0.0033000000000001
100
AcDbArc
 50
288.1898878922
 51
108.1898878922
  0
ARC
  5
B7
330
1F
100
AcDbEntity
  8
0
  6
Continuous
 62
     7
370
    15
100
AcDbCircle
 10
0.4750581174
 20
0.3712917703
 30
0.0
 40
0.13284
100
AcDbArc
 50
108.1898878922
 51
144.5202649788
  0
ARC
  5
B8
330
1F
100
AcDbEntity
  8
0
  6
Continuous
 62
     7
370
    15
100
AcDbCircle
 10
0.604592777
 20
0.372468021
 30
0.0
 40
0.0033000000000001
100
AcDbArc
 50
0.5202649788
 51
180.5202649788
  0
ARC
  5
B9
330
1F
100
AcDbEntity
  8
0
  6
Continuous
 62
     7
370
    15
100
AcDbCircle
 10
0.4750581174
 20
0.3712917703
 30
0.0
 40
0.12624
100
AcDbArc
 50
324.1898878922
 51
0.5202649788
  0
ARC
  5
BA
330
1F
100
AcDbEntity
  8
0
  6
Continuous
 62
     7
370
    15
100
AcDbCircle
 10
0.5801099493
 20
0.2954978114
 30
0.0
 40
0.0033
100
AcDbArc
 50
144.1898878922
 51
324.1898878922
  0
ARC
  5
BB
330
1F
100
AcDbEntity
  8
0
  6
Continuous
 62
     7
370
    15
100
AcDbCircle
 10
0.4750581174
 20
0.3712917703
 30
0.0
 40
0.13284
100
AcDbArc
 50
324.1898878922
 51
0.5202649788
  0
CIRCLE
  5
BC
330
1F
100
AcDbEntity
  8
0
  6
Continuous
 62
     7
370
    15
100
AcDbCircle
 10
0.3635126828
 20
0.3342826546
 30
0.0
 40
0.0028585195022717
  0
CIRCLE
  5
BD
330
1F
100
AcDbEntity
  8
0
  6
Continuous
 62
     7
370
    15
100
AcDbCircle
 10
0.5435468572
 20
0.4667975353
 30
0.0
 40
0.0028585195022717
  0
CIRCLE
  5
BE
330
1F
100
AcDbEntity
  8
0
  6
Continuous
 62
     7
370
    15
100
AcDbCircle
 10
0.4757864431
 20
0.2537693122
 30
0.0
 40
0.0028585195022717
  0
LINE
  5
BF
330
1F
100
AcDbEntity
  8
0
  6
Continuous
 62
     7
370
    15
100
AcDbLine
 10
0.475058117
 20
0.2306115076
 30
0.0
 11
0.4758826738
 21
0.2315942037
 31
0.0
  0
LINE
  5
C0
330
1F
100
AcDbEntity
  8
0
  6
Continuous
 62
     7
370
    15
100
AcDbLine
 10
0.4728350652
 20
0.2306290891
 30
0.0
 11
0.475058117
 21
0.2306115076
 31
0.0
  0
LINE
  5
C1
330
1F
100
AcDbEntity
  8
0
  6
Continuous
 62
     7
370
    15
100
AcDbLine
 10
0.4722780101
 20
0.2286982145
 30
0.0
 11
0.4728350652
 21
0.2306290891
 31
0.0
  0
LINE
  5
C2
330
1F
100
AcDbEntity
  8
0
  6
Continuous
 62
     7
370
    15
100
AcDbLine
 10
0.4716155861
 20
0.2267716901
 30
0.0
 11
0.4722780101
 21
0.2286982145
 31
0.0
  0
LINE
  5
C3
330
1F
100
AcDbEntity
  8
0
  6
Continuous
 62
     7
370
    15
100
AcDbLine
 10
0.4708590695
 20
0.2248504541
 30
0.0
 11
0.4716155861
 21
0.2267716901
 31
0.0
  0
LINE
  5
C4
330
1F
100
AcDbEntity
  8
0
  6
Continuous
 62
     7
370
    15
100
AcDbLine
 10
0.4700159026
 20
0.2229355241
 30
0.0
 11
0.4708590695
 21
0.2248504541
 31
0.0
  0
LINE
  5
C5
330
1F
100
AcDbEntity
  8
0
  6
Continuous
 62
     7
370
    15
100
AcDbLine
 10
0.469091316
 20
0.2210278582
 30
0.0
 11
0.4700159026
 21
0.2229355241
 31
0.0
  0
LINE
  5
C6
330
1F
100
AcDbEntity
  8
0
  6
Continuous
 62
     7
370
    15
100
AcDbLine
 10
0.4671877209
 20
0.2211155253
 30
0.0
 11
0.469091316
 21
0.2210278582
 31
0.0
  0
LINE
  5
C7
330
1F
100
AcDbEntity
  8
0
  6
Continuous
 62
     7
370
    15
100
AcDbLine
 10
0.4652853837
 20
0.2212273196
 30
0.0
 11
0.4671877209
 21
0.2211155253
 31
0.0
  0
LINE
  5
C8
330
1F
100
AcDbEntity
  8
0
  6
Continuous
 62
     7
370
    15
100
AcDbLine
 10
0.4645652471
 20
0.2232211761
 30
0.0
 11
0.4652853837
 21
0.2212273196
 31
0.0
  0
LINE
  5
C9
330
1F
100
AcDbEntity
  8
0
  6
Continuous
 62
     7
370
    15
100
AcDbLine
 10
0.4645017189
 20
0.2231398725
 30
0.0
 11
0.4645652471
 21
0.2232211761
 31
0.0
  0
LINE
  5
CA
330
1F
100
AcDbEntity
  8
0
  6
Continuous
 62
     7
370
    15
100
AcDbLine
 10
0.4633753433
 20
0.2272035407
 30
0.0
 11
0.4645017189
 21
0.2231398725
 31
0.0
  0
LINE
  5
CB
330
1F
100
AcDbEntity
  8
0
  6
Continuous
 62
     7
370
    15
100
AcDbLine
 10
0.4629178884
 20
0.2291887564
 30
0.0
 11
0.4633753433
 21
0.2272035407
 31
0.0
  0
LINE
  5
CC
330
1F
100
AcDbEntity
  8
0
  6
Continuous
 62
     7
370
    15
100
AcDbLine
 10
0.4625657429
 20
0.2311672857
 30
0.0
 11
0.4629178884
 21
0.2291887564
 31
0.0
  0
LINE
  5
CD
330
1F
100
AcDbEntity
  8
0
  6
Continuous
 62
     7
370
    15
100
AcDbLine
 10
0.4603530275
 20
0.2313821939
 30
0.0
 11
0.4625657429
 21
0.2311672857
 31
0.0
  0
LINE
  5
CE
330
1F
100
AcDbEntity
  8
0
  6
Continuous
 62
     7
370
    15
100
AcDbLine
 10
0.4581440047
 20
0.2316320444
 30
0.0
 11
0.4603530275
 21
0.2313821939
 31
0.0
  0
LINE
  5
CF
330
1F
100
AcDbEntity
  8
0
  6
Continuous
 62
     7
370
    15
100
AcDbLine
 10
0.4573881663
 20
0.2297699586
 30
0.0
 11
0.4581440047
 21
0.2316320444
 31
0.0
  0
LINE
  5
D0
330
1F
100
AcDbEntity
  8
0
  6
Continuous
 62
     7
370
    15
100
AcDbLine
 10
0.4565279772
 20
0.2279232184
 30
0.0
 11
0.4573881663
 21
0.2297699586
 31
0.0
  0
LINE
  5
D1
330
1F
100
AcDbEntity
  8
0
  6
Continuous
 62
     7
370
    15
100
AcDbLine
 10
0.4555747931
 20
0.2260916054
 30
0.0
 11
0.4565279772
 21
0.2279232184
 31
0.0
  0
LINE
  5
D2
330
1F
100
AcDbEntity
  8
0
  6
Continuous
 62
     7
370
    15
100
AcDbLine
 10
0.4545360772
 20
0.2242752786
 30
0.0
 11
0.4555747931
 21
0.2260916054
 31
0.0
  0
LINE
  5
D3
330
1F
100
AcDbEntity
  8
0
  6
Continuous
 62
     7
370
    15
100
AcDbLine
 10
0.4534171571
 20
0.2224747372
 30
0.0
 11
0.4545360772
 21
0.2242752786
 31
0.0
  0
LINE
  5
D4
330
1F
100
AcDbEntity
  8
0
  6
Continuous
 62
     7
370
    15
100
AcDbLine
 10
0.451533139
 20
0.2227609076
 30
0.0
 11
0.4534171571
 21
0.2224747372
 31
0.0
  0
LINE
  5
D5
330
1F
100
AcDbEntity
  8
0
  6
Continuous
 62
     7
370
    15
100
AcDbLine
 10
0.4496528933
 20
0.2230709265
 30
0.0
 11
0.451533139
 21
0.2227609076
 31
0.0
  0
LINE
  5
D6
330
1F
100
AcDbEntity
  8
0
  6
Continuous
 62
     7
370
    15
100
AcDbLine
 10
0.4491451687
 20
0.2251291213
 30
0.0
 11
0.4496528933
 21
0.2230709265
 31
0.0
  0
LINE
  5
D7
330
1F
100
AcDbEntity
  8
0
  6
Continuous
 62
     7
370
    15
100
AcDbLine
 10
0.4487185471
 20
0.2271775376
 30
0.0
 11
0.4491451687
 21
0.2251291213
 31
0.0
  0
LINE
  5
D8
330
1F
100
AcDbEntity
  8
0
  6
Continuous
 62
     7
370
    15
100
AcDbLine
 10
0.4483780158
 20
0.2292140602
 30
0.0
 11
0.4487185471
 21
0.2271775376
 31
0.0
  0
LINE
  5
D9
330
1F
100
AcDbEntity
  8
0
  6
Continuous
 62
     7
370
    15
100
AcDbLine
 10
0.4481305991
 20
0.2312362145
 30
0.0
 11
0.4483780158
 21
0.2292140602
 31
0.0
  0
LINE
  5
DA
330
1F
100
AcDbEntity
  8
0
  6
Continuous
 62
     7
370
    15
100
AcDbLine
 10
0.4479871746
 20
0.2332407074
 30
0.0
 11
0.4481305991
 21
0.2312362145
 31
0.0
  0
LINE
  5
DB
330
1F
100
AcDbEntity
  8
0
  6
Continuous
 62
     7
370
    15
100
AcDbLine
 10
0.4458090438
 20
0.2336857293
 30
0.0
 11
0.4479871746
 21
0.2332407074
 31
0.0
  0
LINE
  5
DC
330
1F
100
AcDbEntity
  8
0
  6
Continuous
 62
     7
370
    15
100
AcDbLine
 10
0.4436382366
 20
0.2341650946
 30
0.0
 11
0.4458090438
 21
0.2336857293
 31
0.0
  0
LINE
  5
DD
330
1F
100
AcDbEntity
  8
0
  6
Continuous
 62
     7
370
    15
100
AcDbLine
 10
0.442691917
 20
0.2323922323
 30
0.0
 11
0.4436382366
 21
0.2341650946
 31
0.0
  0
LINE
  5
DE
330
1F
100
AcDbEntity
  8
0
  6
Continuous
 62
     7
370
    15
100
AcDbLine
 10
0.4416433823
 20
0.2306455527
 30
0.0
 11
0.442691917
 21
0.2323922323
 31
0.0
  0
LINE
  5
DF
330
1F
100
AcDbEntity
  8
0
  6
Continuous
 62
     7
370
    15
100
AcDbLine
 10
0.4405039674
 20
0.2289235794
 30
0.0
 11
0.4416433823
 21
0.2306455527
 31
0.0
  0
LINE
  5
E0
330
1F
100
AcDbEntity
  8
0
  6
Continuous
 62
     7
370
    15
100
AcDbLine
 10
0.4392810963
 20
0.2272257912
 30
0.0
 11
0.4405039674
 21
0.2289235794
 31
0.0
  0
LINE
  5
E1
330
1F
100
AcDbEntity
  8
0
  6
Continuous
 62
     7
370
    15
100
AcDbLine
 10
0.4379800969
 20
0.2255520518
 30
0.0
 11
0.4392810963
 21
0.2272257912
 31
0.0
  0
LINE
  5
E2
330
1F
100
AcDbEntity
  8
0
  6
Continuous
 62
     7
370
    15
100
AcDbLine
 10
0.4361363103
 20
0.2260335929
 30
0.0
 11
0.4379800969
 21
0.2255520518
 31
0.0
  0
LINE
  5
E3
330
1F
100
AcDbEntity
  8
0
  6
Continuous
 62
     7
370
    15
100
AcDbLine
 10
0.4342987703
 20
0.2265384629
 30
0.0
 11
0.4361363103
 21
0.2260335929
 31
0.0
  0
LINE
  5
E4
330
1F
100
AcDbEntity
  8
0
  6
Continuous
 62
     7
370
    15
100
AcDbLine
 10
0.4340089477
 20
0.2286384661
 30
0.0
 11
0.4342987703
 21
0.2265384629
 31
0.0
  0
LINE
  5
E5
330
1F
100
AcDbEntity
  8
0
  6
Continuous
 62
     7
370
    15
100
AcDbLine
 10
0.4337987892
 20
0.2307202288
 30
0.0
 11
0.4340089477
 21
0.2286384661
 31
0.0
  0
LINE
  5
E6
330
1F
100
AcDbEntity
  8
0
  6
Continuous
 62
     7
370
    15
100
AcDbLine
 10
0.4336730062
 20
0.2327811976
 30
0.0
 11
0.4337987892
 21
0.2307202288
 31
0.0
  0
LINE
  5
E7
330
1F
100
AcDbEntity
  8
0
  6
Continuous
 62
     7
370
    15
100
AcDbLine
 10
0.4336383021
 20
0.2348181396
 30
0.0
 11
0.4336730062
 21
0.2327811976
 31
0.0
  0
LINE
  5
E8
330
1F
100
AcDbEntity
  8
0
  6
Continuous
 62
     7
370
    15
100
AcDbLine
 10
0.4337051951
 20
0.2368266432
 30
0.0
 11
0.4336383021
 21
0.2348181396
 31
0.0
  0
LINE
  5
E9
330
1F
100
AcDbEntity
  8
0
  6
Continuous
 62
     7
370
    15
100
AcDbLine
 10
0.4315855153
 20
0.2374969097
 30
0.0
 11
0.4337051951
 21
0.2368266432
 31
0.0
  0
LINE
  5
EA
330
1F
100
AcDbEntity
  8
0
  6
Continuous
 62
     7
370
    15
100
AcDbLine
 10
0.4294767319
 20
0.2382005827
 30
0.0
 11
0.4315855153
 21
0.2374969097
 31
0.0
  0
LINE
  5
EB
330
1F
100
AcDbEntity
  8
0
  6
Continuous
 62
     7
370
    15
100
AcDbLine
 10
0.4283502486
 20
0.2365363221
 30
0.0
 11
0.4294767319
 21
0.2382005827
 31
0.0
  0
LINE
  5
EC
330
1F
100
AcDbEntity
  8
0
  6
Continuous
 62
     7
370
    15
100
AcDbLine
 10
0.4271249026
 20
0.2349088204
 30
0.0
 11
0.4283502486
 21
0.2365363221
 31
0.0
  0
LINE
  5
ED
330
1F
100
AcDbEntity
  8
0
  6
Continuous
 62
     7
370
    15
100
AcDbLine
 10
0.4258117296
 20
0.2333153828
 30
0.0
 11
0.4271249026
 21
0.2349088204
 31
0.0
  0
LINE
  5
EE
330
1F
100
AcDbEntity
  8
0
  6
Continuous
 62
     7
370
    15
100
AcDbLine
 10
0.4244180738
 20
0.2317547338
 30
0.0
 11
0.4258117296
 21
0.2333153828
 31
0.0
  0
LINE
  5
EF
330
1F
100
AcDbEntity
  8
0
  6
Continuous
 62
     7
370
    15
100
AcDbLine
 10
0.4229492631
 20
0.2302261358
 30
0.0
 11
0.4244180738
 21
0.2317547338
 31
0.0
  0
LINE
  5
F0
330
1F
100
AcDbEntity
  8
0
  6
Continuous
 62
     7
370
    15
100
AcDbLine
 10
0.4211659044
 20
0.2308977784
 30
0.0
 11
0.4229492631
 21
0.2302261358
 31
0.0
  0
LINE
  5
F1
330
1F
100
AcDbEntity
  8
0
  6
Continuous
 62
     7
370
    15
100
AcDbLine
 10
0.4193912262
 20
0.2315919522
 30
0.0
 11
0.4211659044
 21
0.2308977784
 31
0.0
  0
LINE
  5
F2
330
1F
100
AcDbEntity
  8
0
  6
Continuous
 62
     7
370
    15
100
AcDbLine
 10
0.4193224968
 20
0.233710734
 30
0.0
 11
0.4193912262
 21
0.2315919522
 31
0.0
  0
LINE
  5
F3
330
1F
100
AcDbEntity
  8
0
  6
Continuous
 62
     7
370
    15
100
AcDbLine
 10
0.4193310981
 20
0.2358030743
 30
0.0
 11
0.4193224968
 21
0.233710734
 31
0.0
  0
LINE
  5
F4
330
1F
100
AcDbEntity
  8
0
  6
Continuous
 62
     7
370
    15
100
AcDbLine
 10
0.4194214197
 20
0.2378658985
 30
0.0
 11
0.4193310981
 21
0.2358030743
 31
0.0
  0
LINE
  5
F5
330
1F
100
AcDbEntity
  8
0
  6
Continuous
 62
     7
370
    15
100
AcDbLine
 10
0.4195998467
 20
0.2398952964
 30
0.0
 11
0.4194214197
 21
0.2378658985
 31
0.0
  0
LINE
  5
F6
330
1F
100
AcDbEntity
  8
0
  6
Continuous
 62
     7
370
    15
100
AcDbLine
 10
0.4198762986
 20
0.2418858203
 30
0.0
 11
0.4195998467
 21
0.2398952964
 31
0.0
  0
LINE
  5
F7
330
1F
100
AcDbEntity
  8
0
  6
Continuous
 62
     7
370
    15
100
AcDbLine
 10
0.4178383193
 20
0.2427739677
 30
0.0
 11
0.4198762986
 21
0.2418858203
 31
0.0
  0
LINE
  5
F8
330
1F
100
AcDbEntity
  8
0
  6
Continuous
 62
     7
370
    15
100
AcDbLine
 10
0.4158146094
 20
0.2436942247
 30
0.0
 11
0.4178383193
 21
0.2427739677
 31
0.0
  0
LINE
  5
F9
330
1F
100
AcDbEntity
  8
0
  6
Continuous
 62
     7
370
    15
100
AcDbLine
 10
0.4145203353
 20
0.2421568445
 30
0.0
 11
0.4158146094
 21
0.2436942247
 31
0.0
  0
LINE
  5
FA
330
1F
100
AcDbEntity
  8
0
  6
Continuous
 62
     7
370
    15
100
AcDbLine
 10
0.4131315882
 20
0.2406663221
 30
0.0
 11
0.4145203353
 21
0.2421568445
 31
0.0
  0
LINE
  5
FB
330
1F
100
AcDbEntity
  8
0
  6
Continuous
 62
     7
370
    15
100
AcDbLine
 10
0.4116590461
 20
0.2392188837
 30
0.0
 11
0.4131315882
 21
0.2406663221
 31
0.0
  0
LINE
  5
FC
330
1F
100
AcDbEntity
  8
0
  6
Continuous
 62
     7
370
    15
100
AcDbLine
 10
0.4101098918
 20
0.2378124561
 30
0.0
 11
0.4116590461
 21
0.2392188837
 31
0.0
  0
LINE
  5
FD
330
1F
100
AcDbEntity
  8
0
  6
Continuous
 62
     7
370
    15
100
AcDbLine
 10
0.4084893346
 20
0.2364457813
 30
0.0
 11
0.4101098918
 21
0.2378124561
 31
0.0
  0
LINE
  5
FE
330
1F
100
AcDbEntity
  8
0
  6
Continuous
 62
     7
370
    15
100
AcDbLine
 10
0.4067859589
 20
0.2373001424
 30
0.0
 11
0.4084893346
 21
0.2364457813
 31
0.0
  0
LINE
  5
FF
330
1F
100
AcDbEntity
  8
0
  6
Continuous
 62
     7
370
    15
100
AcDbLine
 10
0.4050935603
 20
0.2381760164
 30
0.0
 11
0.4067859589
 21
0.2373001424
 31
0.0
  0
LINE
  5
100
330
1F
100
AcDbEntity
  8
0
  6
Continuous
 62
     7
370
    15
100
AcDbLine
 10
0.4052466836
 20
0.240290388
 30
0.0
 11
0.4050935603
 21
0.2381760164
 31
0.0
  0
LINE
  5
101
330
1F
100
AcDbEntity
  8
0
  6
Continuous
 62
     7
370
    15
100
AcDbLine
 10
0.405473964
 20
0.2423703547
 30
0.0
 11
0.4052466836
 21
0.240290388
 31
0.0
  0
LINE
  5
102
330
1F
100
AcDbEntity
  8
0
  6
Continuous
 62
     7
370
    15
100
AcDbLine
 10
0.4057794129
 20
0.2444124253
 30
0.0
 11
0.405473964
 21
0.2423703547
 31
0.0
  0
LINE
  5
103
330
1F
100
AcDbEntity
  8
0
  6
Continuous
 62
     7
370
    15
100
AcDbLine
 10
0.4061689757
 20
0.2464120886
 30
0.0
 11
0.4057794129
 21
0.2444124253
 31
0.0
  0
LINE
  5
104
330
1F
100
AcDbEntity
  8
0
  6
Continuous
 62
     7
370
    15
100
AcDbLine
 10
0.406651994
 20
0.2483628004
 30
0.0
 11
0.4061689757
 21
0.2464120886
 31
0.0
  0
LINE
  5
105
330
1F
100
AcDbEntity
  8
0
  6
Continuous
 62
     7
370
    15
100
AcDbLine
 10
0.404718006
 20
0.24945911
 30
0.0
 11
0.406651994
 21
0.2483628004
 31
0.0
  0
LINE
  5
106
330
1F
100
AcDbEntity
  8
0
  6
Continuous
 62
     7
370
    15
100
AcDbLine
 10
0.4028015798
 20
0.2505858324
 30
0.0
 11
0.404718006
 21
0.24945911
 31
0.0
  0
LINE
  5
107
330
1F
100
AcDbEntity
  8
0
  6
Continuous
 62
     7
370
    15
100
AcDbLine
 10
0.401353703
 20
0.2491921567
 30
0.0
 11
0.4028015798
 21
0.2505858324
 31
0.0
  0
LINE
  5
108
330
1F
100
AcDbEntity
  8
0
  6
Continuous
 62
     7
370
    15
100
AcDbLine
 10
0.3998167618
 20
0.2478549761
 30
0.0
 11
0.401353703
 21
0.2491921567
 31
0.0
  0
LINE
  5
109
330
1F
100
AcDbEntity
  8
0
  6
Continuous
 62
     7
370
    15
100
AcDbLine
 10
0.3982009938
 20
0.2465694029
 30
0.0
 11
0.3998167618
 21
0.2478549761
 31
0.0
  0
LINE
  5
10A
330
1F
100
AcDbEntity
  8
0
  6
Continuous
 62
     7
370
    15
100
AcDbLine
 10
0.3965133053
 20
0.2453326025
 30
0.0
 11
0.3982009938
 21
0.2465694029
 31
0.0
  0
LINE
  5
10B
330
1F
100
AcDbEntity
  8
0
  6
Continuous
 62
     7
370
    15
100
AcDbLine
 10
0.394758762
 20
0.2441428182
 30
0.0
 11
0.3965133053
 21
0.2453326025
 31
0.0
  0
LINE
  5
10C
330
1F
100
AcDbEntity
  8
0
  6
Continuous
 62
     7
370
    15
100
AcDbLine
 10
0.3931540305
 20
0.2451705392
 30
0.0
 11
0.394758762
 21
0.2441428182
 31
0.0
  0
LINE
  5
10D
330
1F
100
AcDbEntity
  8
0
  6
Continuous
 62
     7
370
    15
100
AcDbLine
 10
0.3915624498
 20
0.2462185146
 30
0.0
 11
0.3931540305
 21
0.2451705392
 31
0.0
  0
LINE
  5
10E
330
1F
100
AcDbEntity
  8
0
  6
Continuous
 62
     7
370
    15
100
AcDbLine
 10
0.3919357492
 20
0.2483052864
 30
0.0
 11
0.3915624498
 21
0.2462185146
 31
0.0
  0
LINE
  5
10F
330
1F
100
AcDbEntity
  8
0
  6
Continuous
 62
     7
370
    15
100
AcDbLine
 10
0.3923791942
 20
0.2503501303
 30
0.0
 11
0.3919357492
 21
0.2483052864
 31
0.0
  0
LINE
  5
110
330
1F
100
AcDbEntity
  8
0
  6
Continuous
 62
     7
370
    15
100
AcDbLine
 10
0.3928964174
 20
0.2523490958
 30
0.0
 11
0.3923791942
 21
0.2503501303
 31
0.0
  0
LINE
  5
111
330
1F
100
AcDbEntity
  8
0
  6
Continuous
 62
     7
370
    15
100
AcDbLine
 10
0.3934928655
 20
0.2542970526
 30
0.0
 11
0.3928964174
 21
0.2523490958
 31
0.0
  0
LINE
  5
112
330
1F
100
AcDbEntity
  8
0
  6
Continuous
 62
     7
370
    15
100
AcDbLine
 10
0.3941771412
 20
0.2561865989
 30
0.0
 11
0.3934928655
 21
0.2542970526
 31
0.0
  0
LINE
  5
113
330
1F
100
AcDbEntity
  8
0
  6
Continuous
 62
     7
370
    15
100
AcDbLine
 10
0.392368338
 20
0.2574790572
 30
0.0
 11
0.3941771412
 21
0.2561865989
 31
0.0
  0
LINE
  5
114
330
1F
100
AcDbEntity
  8
0
  6
Continuous
 62
     7
370
    15
100
AcDbLine
 10
0.3905801887
 20
0.2587999531
 30
0.0
 11
0.392368338
 21
0.2574790572
 31
0.0
  0
LINE
  5
115
330
1F
100
AcDbEntity
  8
0
  6
Continuous
 62
     7
370
    15
100
AcDbLine
 10
0.388994576
 20
0.2575652478
 30
0.0
 11
0.3905801887
 21
0.2587999531
 31
0.0
  0
LINE
  5
116
330
1F
100
AcDbEntity
  8
0
  6
Continuous
 62
     7
370
    15
100
AcDbLine
 10
0.3873262636
 20
0.2563960383
 30
0.0
 11
0.388994576
 21
0.2575652478
 31
0.0
  0
LINE
  5
117
330
1F
100
AcDbEntity
  8
0
  6
Continuous
 62
     7
370
    15
100
AcDbLine
 10
0.3855849721
 20
0.2552863982
 30
0.0
 11
0.3873262636
 21
0.2563960383
 31
0.0
  0
LINE
  5
118
330
1F
100
AcDbEntity
  8
0
  6
Continuous
 62
     7
370
    15
100
AcDbLine
 10
0.3837772657
 20
0.2542327943
 30
0.0
 11
0.3855849721
 21
0.2552863982
 31
0.0
  0
LINE
  5
119
330
1F
100
AcDbEntity
  8
0
  6
Continuous
 62
     7
370
    15
100
AcDbLine
 10
0.3819079766
 20
0.2532329128
 30
0.0
 11
0.3837772657
 21
0.2542327943
 31
0.0
  0
LINE
  5
11A
330
1F
100
AcDbEntity
  8
0
  6
Continuous
 62
     7
370
    15
100
AcDbLine
 10
0.3804194482
 20
0.2544227366
 30
0.0
 11
0.3819079766
 21
0.2532329128
 31
0.0
  0
LINE
  5
11B
330
1F
100
AcDbEntity
  8
0
  6
Continuous
 62
     7
370
    15
100
AcDbLine
 10
0.3789461283
 20
0.2556313596
 30
0.0
 11
0.3804194482
 21
0.2544227366
 31
0.0
  0
LINE
  5
11C
330
1F
100
AcDbEntity
  8
0
  6
Continuous
 62
     7
370
    15
100
AcDbLine
 10
0.3795355117
 20
0.2576676829
 30
0.0
 11
0.3789461283
 21
0.2556313596
 31
0.0
  0
LINE
  5
11D
330
1F
100
AcDbEntity
  8
0
  6
Continuous
 62
     7
370
    15
100
AcDbLine
 10
0.3801902721
 20
0.2596549534
 30
0.0
 11
0.3795355117
 21
0.2576676829
 31
0.0
  0
LINE
  5
11E
330
1F
100
AcDbEntity
  8
0
  6
Continuous
 62
     7
370
    15
100
AcDbLine
 10
0.3809136225
 20
0.2615889216
 30
0.0
 11
0.3801902721
 21
0.2596549534
 31
0.0
  0
LINE
  5
11F
330
1F
100
AcDbEntity
  8
0
  6
Continuous
 62
     7
370
    15
100
AcDbLine
 10
0.3817104102
 20
0.2634638591
 30
0.0
 11
0.3809136225
 21
0.2615889216
 31
0.0
  0
LINE
  5
120
330
1F
100
AcDbEntity
  8
0
  6
Continuous
 62
     7
370
    15
100
AcDbLine
 10
0.3825884396
 20
0.2652715245
 30
0.0
 11
0.3817104102
 21
0.2634638591
 31
0.0
  0
LINE
  5
121
330
1F
100
AcDbEntity
  8
0
  6
Continuous
 62
     7
370
    15
100
AcDbLine
 10
0.3809246576
 20
0.2667459631
 30
0.0
 11
0.3825884396
 21
0.2652715245
 31
0.0
  0
LINE
  5
122
330
1F
100
AcDbEntity
  8
0
  6
Continuous
 62
     7
370
    15
100
AcDbLine
 10
0.3792843643
 20
0.2682465236
 30
0.0
 11
0.3809246576
 21
0.2667459631
 31
0.0
  0
LINE
  5
123
330
1F
100
AcDbEntity
  8
0
  6
Continuous
 62
     7
370
    15
100
AcDbLine
 10
0.3775783752
 20
0.2671843594
 30
0.0
 11
0.3792843643
 21
0.2682465236
 31
0.0
  0
LINE
  5
124
330
1F
100
AcDbEntity
  8
0
  6
Continuous
 62
     7
370
    15
100
AcDbLine
 10
0.3757970113
 20
0.2661959323
 30
0.0
 11
0.3775783752
 21
0.2671843594
 31
0.0
  0
LINE
  5
125
330
1F
100
AcDbEntity
  8
0
  6
Continuous
 62
     7
370
    15
100
AcDbLine
 10
0.3739492536
 20
0.2652743784
 30
0.0
 11
0.3757970113
 21
0.2661959323
 31
0.0
  0
LINE
  5
126
330
1F
100
AcDbEntity
  8
0
  6
Continuous
 62
     7
370
    15
100
AcDbLine
 10
0.3720413083
 20
0.2644154869
 30
0.0
 11
0.3739492536
 21
0.2652743784
 31
0.0
  0
LINE
  5
127
330
1F
100
AcDbEntity
  8
0
  6
Continuous
 62
     7
370
    15
100
AcDbLine
 10
0.3700777456
 20
0.2636164838
 30
0.0
 11
0.3720413083
 21
0.2644154869
 31
0.0
  0
LINE
  5
128
330
1F
100
AcDbEntity
  8
0
  6
Continuous
 62
     7
370
    15
100
AcDbLine
 10
0.3687217475
 20
0.2649553997
 30
0.0
 11
0.3700777456
 21
0.2636164838
 31
0.0
  0
LINE
  5
129
330
1F
100
AcDbEntity
  8
0
  6
Continuous
 62
     7
370
    15
100
AcDbLine
 10
0.3673828309
 20
0.2663113986
 30
0.0
 11
0.3687217475
 21
0.2649553997
 31
0.0
  0
LINE
  5
12A
330
1F
100
AcDbEntity
  8
0
  6
Continuous
 62
     7
370
    15
100
AcDbLine
 10
0.368181834
 20
0.2682749613
 30
0.0
 11
0.3673828309
 21
0.2663113986
 31
0.0
  0
LINE
  5
12B
330
1F
100
AcDbEntity
  8
0
  6
Continuous
 62
     7
370
    15
100
AcDbLine
 10
0.3690407255
 20
0.2701829065
 30
0.0
 11
0.368181834
 21
0.2682749613
 31
0.0
  0
LINE
  5
12C
330
1F
100
AcDbEntity
  8
0
  6
Continuous
 62
     7
370
    15
100
AcDbLine
 10
0.3699622794
 20
0.2720306642
 30
0.0
 11
0.3690407255
 21
0.2701829065
 31
0.0
  0
LINE
  5
12D
330
1F
100
AcDbEntity
  8
0
  6
Continuous
 62
     7
370
    15
100
AcDbLine
 10
0.3709507064
 20
0.2738120281
 30
0.0
 11
0.3699622794
 21
0.2720306642
 31
0.0
  0
LINE
  5
12E
330
1F
100
AcDbEntity
  8
0
  6
Continuous
 62
     7
370
    15
100
AcDbLine
 10
0.3720128713
 20
0.2755180165
 30
0.0
 11
0.3709507064
 21
0.2738120281
 31
0.0
  0
LINE
  5
12F
330
1F
100
AcDbEntity
  8
0
  6
Continuous
 62
     7
370
    15
100
AcDbLine
 10
0.3705123101
 20
0.2771583105
 30
0.0
 11
0.3720128713
 21
0.2755180165
 31
0.0
  0
LINE
  5
130
330
1F
100
AcDbEntity
  8
0
  6
Continuous
 62
     7
370
    15
100
AcDbLine
 10
0.3690378716
 20
0.2788220925
 30
0.0
 11
0.3705123101
 21
0.2771583105
 31
0.0
  0
LINE
  5
131
330
1F
100
AcDbEntity
  8
0
  6
Continuous
 62
     7
370
    15
100
AcDbLine
 10
0.3672302061
 20
0.2779440631
 30
0.0
 11
0.3690378716
 21
0.2788220925
 31
0.0
  0
LINE
  5
132
330
1F
100
AcDbEntity
  8
0
  6
Continuous
 62
     7
370
    15
100
AcDbLine
 10
0.3653552687
 20
0.2771472754
 30
0.0
 11
0.3672302061
 21
0.2779440631
 31
0.0
  0
LINE
  5
133
330
1F
100
AcDbEntity
  8
0
  6
Continuous
 62
     7
370
    15
100
AcDbLine
 10
0.3634213005
 20
0.276423925
 30
0.0
 11
0.3653552687
 21
0.2771472754
 31
0.0
  0
LINE
  5
134
330
1F
100
AcDbEntity
  8
0
  6
Continuous
 62
     7
370
    15
100
AcDbLine
 10
0.3614340299
 20
0.2757691646
 30
0.0
 11
0.3634213005
 21
0.276423925
 31
0.0
  0
LINE
  5
135
330
1F
100
AcDbEntity
  8
0
  6
Continuous
 62
     7
370
    15
100
AcDbLine
 10
0.3593977066
 20
0.2751797812
 30
0.0
 11
0.3614340299
 21
0.2757691646
 31
0.0
  0
LINE
  5
136
330
1F
100
AcDbEntity
  8
0
  6
Continuous
 62
     7
370
    15
100
AcDbLine
 10
0.3581890837
 20
0.2766531011
 30
0.0
 11
0.3593977066
 21
0.2751797812
 31
0.0
  0
LINE
  5
137
330
1F
100
AcDbEntity
  8
0
  6
Continuous
 62
     7
370
    15
100
AcDbLine
 10
0.3569992606
 20
0.2781416288
 30
0.0
 11
0.3581890837
 21
0.2766531011
 31
0.0
  0
LINE
  5
138
330
1F
100
AcDbEntity
  8
0
  6
Continuous
 62
     7
370
    15
100
AcDbLine
 10
0.3579991414
 20
0.2800109186
 30
0.0
 11
0.3569992606
 21
0.2781416288
 31
0.0
  0
LINE
  5
139
330
1F
100
AcDbEntity
  8
0
  6
Continuous
 62
     7
370
    15
100
AcDbLine
 10
0.3590527453
 20
0.2818186251
 30
0.0
 11
0.3579991414
 21
0.2800109186
 31
0.0
  0
LINE
  5
13A
330
1F
100
AcDbEntity
  8
0
  6
Continuous
 62
     7
370
    15
100
AcDbLine
 10
0.3601623854
 20
0.2835599165
 30
0.0
 11
0.3590527453
 21
0.2818186251
 31
0.0
  0
LINE
  5
13B
330
1F
100
AcDbEntity
  8
0
  6
Continuous
 62
     7
370
    15
100
AcDbLine
 10
0.3613315949
 20
0.2852282289
 30
0.0
 11
0.3601623854
 21
0.2835599165
 31
0.0
  0
LINE
  5
13C
330
1F
100
AcDbEntity
  8
0
  6
Continuous
 62
     7
370
    15
100
AcDbLine
 10
0.3625663002
 20
0.2868138416
 30
0.0
 11
0.3613315949
 21
0.2852282289
 31
0.0
  0
LINE
  5
13D
330
1F
100
AcDbEntity
  8
0
  6
Continuous
 62
     7
370
    15
100
AcDbLine
 10
0.3612454042
 20
0.2886019909
 30
0.0
 11
0.3625663002
 21
0.2868138416
 31
0.0
  0
LINE
  5
13E
330
1F
100
AcDbEntity
  8
0
  6
Continuous
 62
     7
370
    15
100
AcDbLine
 10
0.359952946
 20
0.2904107941
 30
0.0
 11
0.3612454042
 21
0.2886019909
 31
0.0
  0
LINE
  5
13F
330
1F
100
AcDbEntity
  8
0
  6
Continuous
 62
     7
370
    15
100
AcDbLine
 10
0.3580633997
 20
0.2897265184
 30
0.0
 11
0.359952946
 21
0.2904107941
 31
0.0
  0
LINE
  5
140
330
1F
100
AcDbEntity
  8
0
  6
Continuous
 62
     7
370
    15
100
AcDbLine
 10
0.3561154435
 20
0.2891300696
 30
0.0
 11
0.3580633997
 21
0.2897265184
 31
0.0
  0
LINE
  5
141
330
1F
100
AcDbEntity
  8
0
  6
Continuous
 62
     7
370
    15
100
AcDbLine
 10
0.3541164781
 20
0.2886128464
 30
0.0
 11
0.3561154435
 21
0.2891300696
 31
0.0
  0
LINE
  5
142
330
1F
100
AcDbEntity
  8
0
  6
Continuous
 62
     7
370
    15
100
AcDbLine
 10
0.3520716335
 20
0.2881694021
 30
0.0
 11
0.3541164781
 21
0.2886128464
 31
0.0
  0
LINE
  5
143
330
1F
100
AcDbEntity
  8
0
  6
Continuous
 62
     7
370
    15
100
AcDbLine
 10
0.3499848617
 20
0.2877961027
 30
0.0
 11
0.3520716335
 21
0.2881694021
 31
0.0
  0
LINE
  5
144
330
1F
100
AcDbEntity
  8
0
  6
Continuous
 62
     7
370
    15
100
AcDbLine
 10
0.3489368863
 20
0.2893876834
 30
0.0
 11
0.3499848617
 21
0.2877961027
 31
0.0
  0
LINE
  5
145
330
1F
100
AcDbEntity
  8
0
  6
Continuous
 62
     7
370
    15
100
AcDbLine
 10
0.3479091653
 20
0.2909924149
 30
0.0
 11
0.3489368863
 21
0.2893876834
 31
0.0
  0
LINE
  5
146
330
1F
100
AcDbEntity
  8
0
  6
Continuous
 62
     7
370
    15
100
AcDbLine
 10
0.3490989495
 20
0.2927469582
 30
0.0
 11
0.3479091653
 21
0.2909924149
 31
0.0
  0
LINE
  5
147
330
1F
100
AcDbEntity
  8
0
  6
Continuous
 62
     7
370
    15
100
AcDbLine
 10
0.35033575
 20
0.2944346468
 30
0.0
 11
0.3490989495
 21
0.2927469582
 31
0.0
  0
LINE
  5
148
330
1F
100
AcDbEntity
  8
0
  6
Continuous
 62
     7
370
    15
100
AcDbLine
 10
0.3516213232
 20
0.2960504147
 30
0.0
 11
0.35033575
 21
0.2944346468
 31
0.0
  0
LINE
  5
149
330
1F
100
AcDbEntity
  8
0
  6
Continuous
 62
     7
370
    15
100
AcDbLine
 10
0.3529585038
 20
0.2975873559
 30
0.0
 11
0.3516213232
 21
0.2960504147
 31
0.0
  0
LINE
  5
14A
330
1F
100
AcDbEntity
  8
0
  6
Continuous
 62
     7
370
    15
100
AcDbLine
 10
0.3543521794
 20
0.2990352327
 30
0.0
 11
0.3529585038
 21
0.2975873559
 31
0.0
  0
LINE
  5
14B
330
1F
100
AcDbEntity
  8
0
  6
Continuous
 62
     7
370
    15
100
AcDbLine
 10
0.3532254571
 20
0.3009516589
 30
0.0
 11
0.3543521794
 21
0.2990352327
 31
0.0
  0
LINE
  5
14C
330
1F
100
AcDbEntity
  8
0
  6
Continuous
 62
     7
370
    15
100
AcDbLine
 10
0.3521291474
 20
0.3028856469
 30
0.0
 11
0.3532254571
 21
0.3009516589
 31
0.0
  0
LINE
  5
14D
330
1F
100
AcDbEntity
  8
0
  6
Continuous
 62
     7
370
    15
100
AcDbLine
 10
0.3501784357
 20
0.3024026286
 30
0.0
 11
0.3521291474
 21
0.3028856469
 31
0.0
  0
LINE
  5
14E
330
1F
100
AcDbEntity
  8
0
  6
Continuous
 62
     7
370
    15
100
AcDbLine
 10
0.3481787724
 20
0.3020130658
 30
0.0
 11
0.3501784357
 21
0.3024026286
 31
0.0
  0
LINE
  5
14F
330
1F
100
AcDbEntity
  8
0
  6
Continuous
 62
     7
370
    15
100
AcDbLine
 10
0.3461367017
 20
0.3017076169
 30
0.0
 11
0.3481787724
 21
0.3020130658
 31
0.0
  0
LINE
  5
150
330
1F
100
AcDbEntity
  8
0
  6
Continuous
 62
     7
370
    15
100
AcDbLine
 10
0.3440567351
 20
0.3014803365
 30
0.0
 11
0.3461367017
 21
0.3017076169
 31
0.0
  0
LINE
  5
151
330
1F
100
AcDbEntity
  8
0
  6
Continuous
 62
     7
370
    15
100
AcDbLine
 10
0.3419423635
 20
0.3013272132
 30
0.0
 11
0.3440567351
 21
0.3014803365
 31
0.0
  0
LINE
  5
152
330
1F
100
AcDbEntity
  8
0
  6
Continuous
 62
     7
370
    15
100
AcDbLine
 10
0.3410664894
 20
0.3030196118
 30
0.0
 11
0.3419423635
 21
0.3013272132
 31
0.0
  0
LINE
  5
153
330
1F
100
AcDbEntity
  8
0
  6
Continuous
 62
     7
370
    15
100
AcDbLine
 10
0.3402121284
 20
0.3047229875
 30
0.0
 11
0.3410664894
 21
0.3030196118
 31
0.0
  0
LINE
  5
154
330
1F
100
AcDbEntity
  8
0
  6
Continuous
 62
     7
370
    15
100
AcDbLine
 10
0.3415788031
 20
0.3063435447
 30
0.0
 11
0.3402121284
 21
0.3047229875
 31
0.0
  0
LINE
  5
155
330
1F
100
AcDbEntity
  8
0
  6
Continuous
 62
     7
370
    15
100
AcDbLine
 10
0.3429852315
 20
0.3078926983
 30
0.0
 11
0.3415788031
 21
0.3063435447
 31
0.0
  0
LINE
  5
156
330
1F
100
AcDbEntity
  8
0
  6
Continuous
 62
     7
370
    15
100
AcDbLine
 10
0.3444326691
 20
0.3093652411
 30
0.0
 11
0.3429852315
 21
0.3078926983
 31
0.0
  0
LINE
  5
157
330
1F
100
AcDbEntity
  8
0
  6
Continuous
 62
     7
370
    15
100
AcDbLine
 10
0.3459231915
 20
0.3107539882
 30
0.0
 11
0.3444326691
 21
0.3093652411
 31
0.0
  0
LINE
  5
158
330
1F
100
AcDbEntity
  8
0
  6
Continuous
 62
     7
370
    15
100
AcDbLine
 10
0.3474605718
 20
0.3120482623
 30
0.0
 11
0.3459231915
 21
0.3107539882
 31
0.0
  0
LINE
  5
159
330
1F
100
AcDbEntity
  8
0
  6
Continuous
 62
     7
370
    15
100
AcDbLine
 10
0.3481391054
 20
0.3129166523
 30
0.0
 11
0.3474605718
 21
0.3120482623
 31
0.0
  0
ARC
  5
15A
330
1F
100
AcDbEntity
  8
0
  6
Continuous
 62
     7
370
    15
100
AcDbCircle
 10
0.4750581174
 20
0.3712917703
 30
0.0
 40
0.1397
100
AcDbArc
 50
270.3381809286
 51
204.6995881857
  0
ARC
  5
15B
330
1F
100
AcDbEntity
  8
0
  6
Continuous
 62
     7
370
    15
100
AcDbCircle
 10
0.2232029075
 20
0.1511497012
 30
0.0
 40
0.06096
100
AcDbArc
 50
0.0
 51
71.3706694253
  0
CIRCLE
  5
15C
330
1F
100
AcDbEntity
  8
0
  6
Continuous
 62
     7
370
    15
100
AcDbCircle
 10
0.2445050105
 20
0.1974462756
 30
0.0
 40
0.0033
  0
CIRCLE
  5
15D
330
1F
100
AcDbEntity
  8
0
  6
Continuous
 62
     7
370
    15
100
AcDbCircle
 10
0.2232029075
 20
0.1511497012
 30
0.0
 40
0.0033
  0
ARC
  5
15E
330
1F
100
AcDbEntity
  8
0
  6
Continuous
 62
     7
370
    15
100
AcDbCircle
 10
0.2653252316
 20
0.093173296
 30
0.0
 40
0.06096
100
AcDbArc
 50
72.0
 51
126.0
  0
ARC
  5
15F
330
1F
100
AcDbEntity
  8
0
  6
Continuous
 62
     7
370
    15
100
AcDbCircle
 10
0.2232029075
 20
0.1511497012
 30
0.0
 40
0.0107027779594978
100
AcDbArc
 50
199.8460539435
 51
306.0
  0
ARC
  5
160
330
1F
100
AcDbEntity
  8
0
  6
Continuous
 62
     7
370
    15
100
AcDbCircle
 10
0.2841629075
 20
0.1511497012
 30
0.0
 40
0.07112
100
AcDbArc
 50
125.6853347127
 51
182.9285235755
  0
CIRCLE
  5
161
330
1F
100
AcDbEntity
  8
0
  6
Continuous
 62
     7
370
    15
100
AcDbCircle
 10
0.4388062927
 20
0.4660389832
 30
0.0
 40
0.003265770333359
  0
ARC
  5
162
330
1F
100
AcDbEntity
  8
0
  6
Continuous
 62
     7
370
    15
100
AcDbCircle
 10
0.4743341977
 20
0.4120999185
 30
0.0
 40
0.0694818015348255
100
AcDbArc
 50
123.3715946721
 51
199.3281291511
  0
ARC
  5
163
330
1F
100
AcDbEntity
  8
0
  6
Continuous
 62
     7
370
    15
100
AcDbCircle
 10
0.4388062927
 20
0.4660389832
 30
0.0
 40
0.0048934532689436
100
AcDbArc
 50
303.3715946721
 51
123.3715946721
  0
ARC
  5
164
330
1F
100
AcDbEntity
  8
0
  6
Continuous
 62
     7
370
    15
100
AcDbCircle
 10
0.4743341977
 20
0.4120999185
 30
0.0
 40
0.0596948949969383
100
AcDbArc
 50
123.3715946721
 51
199.3281291511
  0
CIRCLE
  5
165
330
1F
100
AcDbEntity
  8
0
  6
Continuous
 62
     7
370
    15
100
AcDbCircle
 10
0.4133861409
 20
0.390722615
 30
0.0
 40
0.0026718887064278
  0
ARC
  5
166
330
1F
100
AcDbEntity
  8
0
  6
Continuous
 62
     7
370
    15
100
AcDbCircle
 10
0.4133861409
 20
0.390722615
 30
0.0
 40
0.0048934532689436
100
AcDbArc
 50
199.3281291511
 51
19.3281291511
  0
CIRCLE
  5
167
330
1F
100
AcDbEntity
  8
0
  6
Continuous
 62
     7
370
    15
100
AcDbCircle
 10
0.1853789993
 20
0.3664491512
 30
0.0
 40
0.0033
  0
LINE
  5
168
330
1F
100
AcDbEntity
  8
0
  6
Continuous
 62
     7
370
    15
100
AcDbLine
 10
0.329858885
 20
0.3579314733
 30
0.0
 11
0.2137826503
 21
0.3783988496
 31
0.0
  0
ARC
  5
169
330
1F
100
AcDbEntity
  8
0
  6
Continuous
 62
     7
370
    15
100
AcDbCircle
 10
0.3289767575
 20
0.3529286504
 30
0.0
 40
0.00508
100
AcDbArc
 50
349.9999986613
 51
79.9999986613
  0
LINE
  5
16A
330
1F
100
AcDbEntity
  8
0
  6
Continuous
 62
     7
370
    15
100
AcDbLine
 10
0.3299438514
 20
0.3291588016
 30
0.0
 11
0.3339795776
 21
0.3520465176
 31
0.0
  0
ARC
  5
16B
330
1F
100
AcDbEntity
  8
0
  6
Continuous
 62
     7
370
    15
100
AcDbCircle
 10
0.324941035
 20
0.3300409336
 30
0.0
 40
0.00508
100
AcDbArc
 50
259.9999986613
 51
349.9999986613
  0
LINE
  5
16C
330
1F
100
AcDbEntity
  8
0
  6
Continuous
 62
     7
370
    15
100
AcDbLine
 10
0.207982662
 20
0.3455054853
 30
0.0
 11
0.324058906
 21
0.325038109
 31
0.0
  0
ARC
  5
16D
330
1F
100
AcDbEntity
  8
0
  6
Continuous
 62
     7
370
    15
100
AcDbCircle
 10
0.2048951966
 20
0.3279956043
 30
0.0
 40
0.01778
100
AcDbArc
 50
79.9999986613
 51
169.9999986613
  0
LINE
  5
16E
330
1F
100
AcDbEntity
  8
0
  6
Continuous
 62
     7
370
    15
100
AcDbLine
 10
0.1867828289
 20
0.3276662007
 30
0.0
 11
0.1873853149
 21
0.3310830705
 31
0.0
  0
LINE
  5
16F
330
1F
100
AcDbEntity
  8
0
  6
Continuous
 62
     7
370
    15
100
AcDbLine
 10
0.1853789988
 20
0.3276408016
 30
0.0
 11
0.1867828289
 21
0.3276662007
 31
0.0
  0
LINE
  5
170
330
1F
100
AcDbEntity
  8
0
  6
Continuous
 62
     7
370
    15
100
AcDbLine
 10
0.1839751698
 20
0.3276662007
 30
0.0
 11
0.1853789988
 21
0.3276408016
 31
0.0
  0
LINE
  5
171
330
1F
100
AcDbEntity
  8
0
  6
Continuous
 62
     7
370
    15
100
AcDbLine
 10
0.1825732017
 20
0.3277423754
 30
0.0
 11
0.1839751698
 21
0.3276662007
 31
0.0
  0
LINE
  5
172
330
1F
100
AcDbEntity
  8
0
  6
Continuous
 62
     7
370
    15
100
AcDbLine
 10
0.1824128438
 20
0.3255301192
 30
0.0
 11
0.1825732017
 21
0.3277423754
 31
0.0
  0
LINE
  5
173
330
1F
100
AcDbEntity
  8
0
  6
Continuous
 62
     7
370
    15
100
AcDbLine
 10
0.1822805098
 20
0.3248576373
 30
0.0
 11
0.1824128438
 21
0.3255301192
 31
0.0
  0
LINE
  5
174
330
1F
100
AcDbEntity
  8
0
  6
Continuous
 62
     7
370
    15
100
AcDbLine
 10
0.1820772529
 20
0.3241908029
 30
0.0
 11
0.1822805098
 21
0.3248576373
 31
0.0
  0
LINE
  5
175
330
1F
100
AcDbEntity
  8
0
  6
Continuous
 62
     7
370
    15
100
AcDbLine
 10
0.1818257648
 20
0.3235284872
 30
0.0
 11
0.1820772529
 21
0.3241908029
 31
0.0
  0
LINE
  5
176
330
1F
100
AcDbEntity
  8
0
  6
Continuous
 62
     7
370
    15
100
AcDbLine
 10
0.1815337218
 20
0.3228705972
 30
0.0
 11
0.1818257648
 21
0.3235284872
 31
0.0
  0
LINE
  5
177
330
1F
100
AcDbEntity
  8
0
  6
Continuous
 62
     7
370
    15
100
AcDbLine
 10
0.1812054406
 20
0.3222173936
 30
0.0
 11
0.1815337218
 21
0.3228705972
 31
0.0
  0
LINE
  5
178
330
1F
100
AcDbEntity
  8
0
  6
Continuous
 62
     7
370
    15
100
AcDbLine
 10
0.18084366
 20
0.3215691298
 30
0.0
 11
0.1812054406
 21
0.3222173936
 31
0.0
  0
LINE
  5
179
330
1F
100
AcDbEntity
  8
0
  6
Continuous
 62
     7
370
    15
100
AcDbLine
 10
0.1804504118
 20
0.3209261969
 30
0.0
 11
0.18084366
 21
0.3215691298
 31
0.0
  0
LINE
  5
17A
330
1F
100
AcDbEntity
  8
0
  6
Continuous
 62
     7
370
    15
100
AcDbLine
 10
0.1800271346
 20
0.3202890269
 30
0.0
 11
0.1804504118
 21
0.3209261969
 31
0.0
  0
LINE
  5
17B
330
1F
100
AcDbEntity
  8
0
  6
Continuous
 62
     7
370
    15
100
AcDbLine
 10
0.1795750706
 20
0.3196580335
 30
0.0
 11
0.1800271346
 21
0.3202890269
 31
0.0
  0
LINE
  5
17C
330
1F
100
AcDbEntity
  8
0
  6
Continuous
 62
     7
370
    15
100
AcDbLine
 10
0.1790951238
 20
0.3190336712
 30
0.0
 11
0.1795750706
 21
0.3196580335
 31
0.0
  0
LINE
  5
17D
330
1F
100
AcDbEntity
  8
0
  6
Continuous
 62
     7
370
    15
100
AcDbLine
 10
0.1785881117
 20
0.318416398
 30
0.0
 11
0.1790951238
 21
0.3190336712
 31
0.0
  0
LINE
  5
17E
330
1F
100
AcDbEntity
  8
0
  6
Continuous
 62
     7
370
    15
100
AcDbLine
 10
0.1777705698
 20
0.3185391053
 30
0.0
 11
0.1785881117
 21
0.318416398
 31
0.0
  0
LINE
  5
17F
330
1F
100
AcDbEntity
  8
0
  6
Continuous
 62
     7
370
    15
100
AcDbLine
 10
0.1769552593
 20
0.3186757043
 30
0.0
 11
0.1777705698
 21
0.3185391053
 31
0.0
  0
LINE
  5
180
330
1F
100
AcDbEntity
  8
0
  6
Continuous
 62
     7
370
    15
100
AcDbLine
 10
0.1761423739
 20
0.3188261837
 30
0.0
 11
0.1769552593
 21
0.3186757043
 31
0.0
  0
LINE
  5
181
330
1F
100
AcDbEntity
  8
0
  6
Continuous
 62
     7
370
    15
100
AcDbLine
 10
0.1753321987
 20
0.3189904913
 30
0.0
 11
0.1761423739
 21
0.3188261837
 31
0.0
  0
LINE
  5
182
330
1F
100
AcDbEntity
  8
0
  6
Continuous
 62
     7
370
    15
100
AcDbLine
 10
0.1750668817
 20
0.3197439685
 30
0.0
 11
0.1753321987
 21
0.3189904913
 31
0.0
  0
LINE
  5
183
330
1F
100
AcDbEntity
  8
0
  6
Continuous
 62
     7
370
    15
100
AcDbLine
 10
0.1748294196
 20
0.3204948231
 30
0.0
 11
0.1750668817
 21
0.3197439685
 31
0.0
  0
LINE
  5
184
330
1F
100
AcDbEntity
  8
0
  6
Continuous
 62
     7
370
    15
100
AcDbLine
 10
0.1746204056
 20
0.3212423995
 30
0.0
 11
0.1748294196
 21
0.3204948231
 31
0.0
  0
LINE
  5
185
330
1F
100
AcDbEntity
  8
0
  6
Continuous
 62
     7
370
    15
100
AcDbLine
 10
0.1744406017
 20
0.3219858855
 30
0.0
 11
0.1746204056
 21
0.3212423995
 31
0.0
  0
LINE
  5
186
330
1F
100
AcDbEntity
  8
0
  6
Continuous
 62
     7
370
    15
100
AcDbLine
 10
0.17429094
 20
0.3227245472
 30
0.0
 11
0.1744406017
 21
0.3219858855
 31
0.0
  0
LINE
  5
187
330
1F
100
AcDbEntity
  8
0
  6
Continuous
 62
     7
370
    15
100
AcDbLine
 10
0.174172717
 20
0.3234574497
 30
0.0
 11
0.17429094
 21
0.3227245472
 31
0.0
  0
LINE
  5
188
330
1F
100
AcDbEntity
  8
0
  6
Continuous
 62
     7
370
    15
100
AcDbLine
 10
0.1740876267
 20
0.3241835534
 30
0.0
 11
0.174172717
 21
0.3234574497
 31
0.0
  0
LINE
  5
189
330
1F
100
AcDbEntity
  8
0
  6
Continuous
 62
     7
370
    15
100
AcDbLine
 10
0.1740382098
 20
0.3249016367
 30
0.0
 11
0.1740876267
 21
0.3241835534
 31
0.0
  0
LINE
  5
18A
330
1F
100
AcDbEntity
  8
0
  6
Continuous
 62
     7
370
    15
100
AcDbLine
 10
0.174028417
 20
0.3256100453
 30
0.0
 11
0.1740382098
 21
0.3249016367
 31
0.0
  0
LINE
  5
18B
330
1F
100
AcDbEntity
  8
0
  6
Continuous
 62
     7
370
    15
100
AcDbLine
 10
0.1740655004
 20
0.3263061717
 30
0.0
 11
0.174028417
 21
0.3256100453
 31
0.0
  0
LINE
  5
18C
330
1F
100
AcDbEntity
  8
0
  6
Continuous
 62
     7
370
    15
100
AcDbLine
 10
0.1741711356
 20
0.3269833363
 30
0.0
 11
0.1740655004
 21
0.3263061717
 31
0.0
  0
LINE
  5
18D
330
1F
100
AcDbEntity
  8
0
  6
Continuous
 62
     7
370
    15
100
AcDbLine
 10
0.174777096
 20
0.3291170224
 30
0.0
 11
0.1741711356
 21
0.3269833363
 31
0.0
  0
LINE
  5
18E
330
1F
100
AcDbEntity
  8
0
  6
Continuous
 62
     7
370
    15
100
AcDbLine
 10
0.1734336045
 20
0.3295249752
 30
0.0
 11
0.174777096
 21
0.3291170224
 31
0.0
  0
LINE
  5
18F
330
1F
100
AcDbEntity
  8
0
  6
Continuous
 62
     7
370
    15
100
AcDbLine
 10
0.1721057779
 20
0.3299812414
 30
0.0
 11
0.1734336045
 21
0.3295249752
 31
0.0
  0
LINE
  5
190
330
1F
100
AcDbEntity
  8
0
  6
Continuous
 62
     7
370
    15
100
AcDbLine
 10
0.1707952785
 20
0.3304852359
 30
0.0
 11
0.1721057779
 21
0.3299812414
 31
0.0
  0
LINE
  5
191
330
1F
100
AcDbEntity
  8
0
  6
Continuous
 62
     7
370
    15
100
AcDbLine
 10
0.169503915
 20
0.3310363032
 30
0.0
 11
0.1707952785
 21
0.3304852359
 31
0.0
  0
LINE
  5
192
330
1F
100
AcDbEntity
  8
0
  6
Continuous
 62
     7
370
    15
100
AcDbLine
 10
0.1685965702
 20
0.3290123157
 30
0.0
 11
0.169503915
 21
0.3310363032
 31
0.0
  0
LINE
  5
193
330
1F
100
AcDbEntity
  8
0
  6
Continuous
 62
     7
370
    15
100
AcDbLine
 10
0.1682422393
 20
0.3284256607
 30
0.0
 11
0.1685965702
 21
0.3290123157
 31
0.0
  0
LINE
  5
194
330
1F
100
AcDbEntity
  8
0
  6
Continuous
 62
     7
370
    15
100
AcDbLine
 10
0.1678231683
 20
0.3278685547
 30
0.0
 11
0.1682422393
 21
0.3284256607
 31
0.0
  0
LINE
  5
195
330
1F
100
AcDbEntity
  8
0
  6
Continuous
 62
     7
370
    15
100
AcDbLine
 10
0.1673603233
 20
0.3273321911
 30
0.0
 11
0.1678231683
 21
0.3278685547
 31
0.0
  0
LINE
  5
196
330
1F
100
AcDbEntity
  8
0
  6
Continuous
 62
     7
370
    15
100
AcDbLine
 10
0.1668608755
 20
0.3268138617
 30
0.0
 11
0.1673603233
 21
0.3273321911
 31
0.0
  0
LINE
  5
197
330
1F
100
AcDbEntity
  8
0
  6
Continuous
 62
     7
370
    15
100
AcDbLine
 10
0.1663289711
 20
0.3263123259
 30
0.0
 11
0.1668608755
 21
0.3268138617
 31
0.0
  0
LINE
  5
198
330
1F
100
AcDbEntity
  8
0
  6
Continuous
 62
     7
370
    15
100
AcDbLine
 10
0.1657673203
 20
0.3258269019
 30
0.0
 11
0.1663289711
 21
0.3263123259
 31
0.0
  0
LINE
  5
199
330
1F
100
AcDbEntity
  8
0
  6
Continuous
 62
     7
370
    15
100
AcDbLine
 10
0.1651778713
 20
0.3253572583
 30
0.0
 11
0.1657673203
 21
0.3258269019
 31
0.0
  0
LINE
  5
19A
330
1F
100
AcDbEntity
  8
0
  6
Continuous
 62
     7
370
    15
100
AcDbLine
 10
0.1645622038
 20
0.3249032758
 30
0.0
 11
0.1651778713
 21
0.3253572583
 31
0.0
  0
LINE
  5
19B
330
1F
100
AcDbEntity
  8
0
  6
Continuous
 62
     7
370
    15
100
AcDbLine
 10
0.1639215861
 20
0.3244649544
 30
0.0
 11
0.1645622038
 21
0.3249032758
 31
0.0
  0
LINE
  5
19C
330
1F
100
AcDbEntity
  8
0
  6
Continuous
 62
     7
370
    15
100
AcDbLine
 10
0.163257039
 20
0.3240423836
 30
0.0
 11
0.1639215861
 21
0.3244649544
 31
0.0
  0
LINE
  5
19D
330
1F
100
AcDbEntity
  8
0
  6
Continuous
 62
     7
370
    15
100
AcDbLine
 10
0.1625694603
 20
0.3236357569
 30
0.0
 11
0.163257039
 21
0.3240423836
 31
0.0
  0
LINE
  5
19E
330
1F
100
AcDbEntity
  8
0
  6
Continuous
 62
     7
370
    15
100
AcDbLine
 10
0.1618432187
 20
0.3240306712
 30
0.0
 11
0.1625694603
 21
0.3236357569
 31
0.0
  0
LINE
  5
19F
330
1F
100
AcDbEntity
  8
0
  6
Continuous
 62
     7
370
    15
100
AcDbLine
 10
0.1611237776
 20
0.3244378902
 30
0.0
 11
0.1618432187
 21
0.3240306712
 31
0.0
  0
LINE
  5
1A0
330
1F
100
AcDbEntity
  8
0
  6
Continuous
 62
     7
370
    15
100
AcDbLine
 10
0.1604113922
 20
0.3248573281
 30
0.0
 11
0.1611237776
 21
0.3244378902
 31
0.0
  0
LINE
  5
1A1
330
1F
100
AcDbEntity
  8
0
  6
Continuous
 62
     7
370
    15
100
AcDbLine
 10
0.1597062599
 20
0.3252888173
 30
0.0
 11
0.1604113922
 21
0.3248573281
 31
0.0
  0
LINE
  5
1A2
330
1F
100
AcDbEntity
  8
0
  6
Continuous
 62
     7
370
    15
100
AcDbLine
 10
0.1597146418
 20
0.3260875903
 30
0.0
 11
0.1597062599
 21
0.3252888173
 31
0.0
  0
LINE
  5
1A3
330
1F
100
AcDbEntity
  8
0
  6
Continuous
 62
     7
370
    15
100
AcDbLine
 10
0.159748339
 20
0.3268743716
 30
0.0
 11
0.1597146418
 21
0.3260875903
 31
0.0
  0
LINE
  5
1A4
330
1F
100
AcDbEntity
  8
0
  6
Continuous
 62
     7
370
    15
100
AcDbLine
 10
0.1598076065
 20
0.3276483379
 30
0.0
 11
0.159748339
 21
0.3268743716
 31
0.0
  0
LINE
  5
1A5
330
1F
100
AcDbEntity
  8
0
  6
Continuous
 62
     7
370
    15
100
AcDbLine
 10
0.1598929491
 20
0.3284085318
 30
0.0
 11
0.1598076065
 21
0.3276483379
 31
0.0
  0
LINE
  5
1A6
330
1F
100
AcDbEntity
  8
0
  6
Continuous
 62
     7
370
    15
100
AcDbLine
 10
0.1600049351
 20
0.3291537948
 30
0.0
 11
0.1598929491
 21
0.3284085318
 31
0.0
  0
LINE
  5
1A7
330
1F
100
AcDbEntity
  8
0
  6
Continuous
 62
     7
370
    15
100
AcDbLine
 10
0.1601444938
 20
0.3298829458
 30
0.0
 11
0.1600049351
 21
0.3291537948
 31
0.0
  0
LINE
  5
1A8
330
1F
100
AcDbEntity
  8
0
  6
Continuous
 62
     7
370
    15
100
AcDbLine
 10
0.1603128955
 20
0.3305943683
 30
0.0
 11
0.1601444938
 21
0.3298829458
 31
0.0
  0
LINE
  5
1A9
330
1F
100
AcDbEntity
  8
0
  6
Continuous
 62
     7
370
    15
100
AcDbLine
 10
0.1605120607
 20
0.3312860392
 30
0.0
 11
0.1603128955
 21
0.3305943683
 31
0.0
  0
LINE
  5
1AA
330
1F
100
AcDbEntity
  8
0
  6
Continuous
 62
     7
370
    15
100
AcDbLine
 10
0.1607451484
 20
0.3319550752
 30
0.0
 11
0.1605120607
 21
0.3312860392
 31
0.0
  0
LINE
  5
1AB
330
1F
100
AcDbEntity
  8
0
  6
Continuous
 62
     7
370
    15
100
AcDbLine
 10
0.1610180576
 20
0.3325965404
 30
0.0
 11
0.1607451484
 21
0.3319550752
 31
0.0
  0
LINE
  5
1AC
330
1F
100
AcDbEntity
  8
0
  6
Continuous
 62
     7
370
    15
100
AcDbLine
 10
0.1613489621
 20
0.3331967406
 30
0.0
 11
0.1610180576
 21
0.3325965404
 31
0.0
  0
LINE
  5
1AD
330
1F
100
AcDbEntity
  8
0
  6
Continuous
 62
     7
370
    15
100
AcDbLine
 10
0.1626481161
 20
0.3349944949
 30
0.0
 11
0.1613489621
 21
0.3331967406
 31
0.0
  0
LINE
  5
1AE
330
1F
100
AcDbEntity
  8
0
  6
Continuous
 62
     7
370
    15
100
AcDbLine
 10
0.1615251814
 20
0.3358373251
 30
0.0
 11
0.1626481161
 21
0.3349944949
 31
0.0
  0
LINE
  5
1AF
330
1F
100
AcDbEntity
  8
0
  6
Continuous
 62
     7
370
    15
100
AcDbLine
 10
0.1604334906
 20
0.33672023
 30
0.0
 11
0.1615251814
 21
0.3358373251
 31
0.0
  0
LINE
  5
1B0
330
1F
100
AcDbEntity
  8
0
  6
Continuous
 62
     7
370
    15
100
AcDbLine
 10
0.1593744223
 20
0.3376420513
 30
0.0
 11
0.1604334906
 21
0.33672023
 31
0.0
  0
LINE
  5
1B1
330
1F
100
AcDbEntity
  8
0
  6
Continuous
 62
     7
370
    15
100
AcDbLine
 10
0.1583493919
 20
0.338601578
 30
0.0
 11
0.1593744223
 21
0.3376420513
 31
0.0
  0
LINE
  5
1B2
330
1F
100
AcDbEntity
  8
0
  6
Continuous
 62
     7
370
    15
100
AcDbLine
 10
0.1568045363
 20
0.3370099589
 30
0.0
 11
0.1583493919
 21
0.338601578
 31
0.0
  0
LINE
  5
1B3
330
1F
100
AcDbEntity
  8
0
  6
Continuous
 62
     7
370
    15
100
AcDbLine
 10
0.156270909
 20
0.3365798797
 30
0.0
 11
0.1568045363
 21
0.3370099589
 31
0.0
  0
LINE
  5
1B4
330
1F
100
AcDbEntity
  8
0
  6
Continuous
 62
     7
370
    15
100
AcDbLine
 10
0.1556865693
 20
0.3361996989
 30
0.0
 11
0.156270909
 21
0.3365798797
 31
0.0
  0
LINE
  5
1B5
330
1F
100
AcDbEntity
  8
0
  6
Continuous
 62
     7
370
    15
100
AcDbLine
 10
0.1550681916
 20
0.3358539771
 30
0.0
 11
0.1556865693
 21
0.3361996989
 31
0.0
  0
LINE
  5
1B6
330
1F
100
AcDbEntity
  8
0
  6
Continuous
 62
     7
370
    15
100
AcDbLine
 10
0.1544215911
 20
0.3355377465
 30
0.0
 11
0.1550681916
 21
0.3358539771
 31
0.0
  0
LINE
  5
1B7
330
1F
100
AcDbEntity
  8
0
  6
Continuous
 62
     7
370
    15
100
AcDbLine
 10
0.1537502416
 20
0.3352483548
 30
0.0
 11
0.1544215911
 21
0.3355377465
 31
0.0
  0
LINE
  5
1B8
330
1F
100
AcDbEntity
  8
0
  6
Continuous
 62
     7
370
    15
100
AcDbLine
 10
0.1530564286
 20
0.33498431
 30
0.0
 11
0.1537502416
 21
0.3352483548
 31
0.0
  0
LINE
  5
1B9
330
1F
100
AcDbEntity
  8
0
  6
Continuous
 62
     7
370
    15
100
AcDbLine
 10
0.1523418956
 20
0.3347445875
 30
0.0
 11
0.1530564286
 21
0.33498431
 31
0.0
  0
LINE
  5
1BA
330
1F
100
AcDbEntity
  8
0
  6
Continuous
 62
     7
370
    15
100
AcDbLine
 10
0.1516080916
 20
0.3345285468
 30
0.0
 11
0.1523418956
 21
0.3347445875
 31
0.0
  0
LINE
  5
1BB
330
1F
100
AcDbEntity
  8
0
  6
Continuous
 62
     7
370
    15
100
AcDbLine
 10
0.1508561641
 20
0.3343357891
 30
0.0
 11
0.1516080916
 21
0.3345285468
 31
0.0
  0
LINE
  5
1BC
330
1F
100
AcDbEntity
  8
0
  6
Continuous
 62
     7
370
    15
100
AcDbLine
 10
0.1500871674
 20
0.3341660052
 30
0.0
 11
0.1508561641
 21
0.3343357891
 31
0.0
  0
LINE
  5
1BD
330
1F
100
AcDbEntity
  8
0
  6
Continuous
 62
     7
370
    15
100
AcDbLine
 10
0.1493019954
 20
0.3340190239
 30
0.0
 11
0.1500871674
 21
0.3341660052
 31
0.0
  0
LINE
  5
1BE
330
1F
100
AcDbEntity
  8
0
  6
Continuous
 62
     7
370
    15
100
AcDbLine
 10
0.1487546273
 20
0.3346385285
 30
0.0
 11
0.1493019954
 21
0.3340190239
 31
0.0
  0
LINE
  5
1BF
330
1F
100
AcDbEntity
  8
0
  6
Continuous
 62
     7
370
    15
100
AcDbLine
 10
0.1482178689
 20
0.3352672364
 30
0.0
 11
0.1487546273
 21
0.3346385285
 31
0.0
  0
LINE
  5
1C0
330
1F
100
AcDbEntity
  8
0
  6
Continuous
 62
     7
370
    15
100
AcDbLine
 10
0.1476918914
 20
0.3359050303
 30
0.0
 11
0.1482178689
 21
0.3352672364
 31
0.0
  0
LINE
  5
1C1
330
1F
100
AcDbEntity
  8
0
  6
Continuous
 62
     7
370
    15
100
AcDbLine
 10
0.1471768626
 20
0.3365516849
 30
0.0
 11
0.1476918914
 21
0.3359050303
 31
0.0
  0
LINE
  5
1C2
330
1F
100
AcDbEntity
  8
0
  6
Continuous
 62
     7
370
    15
100
AcDbLine
 10
0.1474579283
 20
0.3372994065
 30
0.0
 11
0.1471768626
 21
0.3365516849
 31
0.0
  0
LINE
  5
1C3
330
1F
100
AcDbEntity
  8
0
  6
Continuous
 62
     7
370
    15
100
AcDbLine
 10
0.1477586635
 20
0.3380272295
 30
0.0
 11
0.1474579283
 21
0.3372994065
 31
0.0
  0
LINE
  5
1C4
330
1F
100
AcDbEntity
  8
0
  6
Continuous
 62
     7
370
    15
100
AcDbLine
 10
0.1480790981
 20
0.3387342524
 30
0.0
 11
0.1477586635
 21
0.3380272295
 31
0.0
  0
LINE
  5
1C5
330
1F
100
AcDbEntity
  8
0
  6
Continuous
 62
     7
370
    15
100
AcDbLine
 10
0.1484192618
 20
0.3394194022
 30
0.0
 11
0.1480790981
 21
0.3387342524
 31
0.0
  0
LINE
  5
1C6
330
1F
100
AcDbEntity
  8
0
  6
Continuous
 62
     7
370
    15
100
AcDbLine
 10
0.148779434
 20
0.3400814403
 30
0.0
 11
0.1484192618
 21
0.3394194022
 31
0.0
  0
LINE
  5
1C7
330
1F
100
AcDbEntity
  8
0
  6
Continuous
 62
     7
370
    15
100
AcDbLine
 10
0.1491599538
 20
0.3407188672
 30
0.0
 11
0.148779434
 21
0.3400814403
 31
0.0
  0
LINE
  5
1C8
330
1F
100
AcDbEntity
  8
0
  6
Continuous
 62
     7
370
    15
100
AcDbLine
 10
0.1495614991
 20
0.3413297646
 30
0.0
 11
0.1491599538
 21
0.3407188672
 31
0.0
  0
LINE
  5
1C9
330
1F
100
AcDbEntity
  8
0
  6
Continuous
 62
     7
370
    15
100
AcDbLine
 10
0.1499852285
 20
0.3419116232
 30
0.0
 11
0.1495614991
 21
0.3413297646
 31
0.0
  0
LINE
  5
1CA
330
1F
100
AcDbEntity
  8
0
  6
Continuous
 62
     7
370
    15
100
AcDbLine
 10
0.1504330568
 20
0.3424606006
 30
0.0
 11
0.1499852285
 21
0.3419116232
 31
0.0
  0
LINE
  5
1CB
330
1F
100
AcDbEntity
  8
0
  6
Continuous
 62
     7
370
    15
100
AcDbLine
 10
0.1509089403
 20
0.3429700415
 30
0.0
 11
0.1504330568
 21
0.3424606006
 31
0.0
  0
LINE
  5
1CC
330
1F
100
AcDbEntity
  8
0
  6
Continuous
 62
     7
370
    15
100
AcDbLine
 10
0.1514251538
 20
0.3434208613
 30
0.0
 11
0.1509089403
 21
0.3429700415
 31
0.0
  0
LINE
  5
1CD
330
1F
100
AcDbEntity
  8
0
  6
Continuous
 62
     7
370
    15
100
AcDbLine
 10
0.153260839
 20
0.344665857
 30
0.0
 11
0.1514251538
 21
0.3434208613
 31
0.0
  0
LINE
  5
1CE
330
1F
100
AcDbEntity
  8
0
  6
Continuous
 62
     7
370
    15
100
AcDbLine
 10
0.1524939023
 20
0.345841933
 30
0.0
 11
0.153260839
 21
0.344665857
 31
0.0
  0
LINE
  5
1CF
330
1F
100
AcDbEntity
  8
0
  6
Continuous
 62
     7
370
    15
100
AcDbLine
 10
0.1517700002
 20
0.3470449913
 30
0.0
 11
0.1524939023
 21
0.345841933
 31
0.0
  0
LINE
  5
1D0
330
1F
100
AcDbEntity
  8
0
  6
Continuous
 62
     7
370
    15
100
AcDbLine
 10
0.1510900714
 20
0.3482734188
 30
0.0
 11
0.1517700002
 21
0.3470449913
 31
0.0
  0
LINE
  5
1D1
330
1F
100
AcDbEntity
  8
0
  6
Continuous
 62
     7
370
    15
100
AcDbLine
 10
0.1504550435
 20
0.3495256677
 30
0.0
 11
0.1510900714
 21
0.3482734188
 31
0.0
  0
LINE
  5
1D2
330
1F
100
AcDbEntity
  8
0
  6
Continuous
 62
     7
370
    15
100
AcDbLine
 10
0.1484589994
 20
0.3485584073
 30
0.0
 11
0.1504550435
 21
0.3495256677
 31
0.0
  0
LINE
  5
1D3
330
1F
100
AcDbEntity
  8
0
  6
Continuous
 62
     7
370
    15
100
AcDbLine
 10
0.1478104525
 20
0.3483367488
 30
0.0
 11
0.1484589994
 21
0.3485584073
 31
0.0
  0
LINE
  5
1D4
330
1F
100
AcDbEntity
  8
0
  6
Continuous
 62
     7
370
    15
100
AcDbLine
 10
0.1471313395
 20
0.3481793832
 30
0.0
 11
0.1478104525
 21
0.3483367488
 31
0.0
  0
LINE
  5
1D5
330
1F
100
AcDbEntity
  8
0
  6
Continuous
 62
     7
370
    15
100
AcDbLine
 10
0.1464319945
 20
0.3480660133
 30
0.0
 11
0.1471313395
 21
0.3481793832
 31
0.0
  0
LINE
  5
1D6
330
1F
100
AcDbEntity
  8
0
  6
Continuous
 62
     7
370
    15
100
AcDbLine
 10
0.1457162507
 20
0.3479899838
 30
0.0
 11
0.1464319945
 21
0.3480660133
 31
0.0
  0
LINE
  5
1D7
330
1F
100
AcDbEntity
  8
0
  6
Continuous
 62
     7
370
    15
100
AcDbLine
 10
0.1449863956
 20
0.3479476794
 30
0.0
 11
0.1457162507
 21
0.3479899838
 31
0.0
  0
LINE
  5
1D8
330
1F
100
AcDbEntity
  8
0
  6
Continuous
 62
     7
370
    15
100
AcDbLine
 10
0.1442440942
 20
0.3479368407
 30
0.0
 11
0.1449863956
 21
0.3479476794
 31
0.0
  0
LINE
  5
1D9
330
1F
100
AcDbEntity
  8
0
  6
Continuous
 62
     7
370
    15
100
AcDbLine
 10
0.1434906729
 20
0.3479559757
 30
0.0
 11
0.1442440942
 21
0.3479368407
 31
0.0
  0
LINE
  5
1DA
330
1F
100
AcDbEntity
  8
0
  6
Continuous
 62
     7
370
    15
100
AcDbLine
 10
0.1427272343
 20
0.3480039257
 30
0.0
 11
0.1434906729
 21
0.3479559757
 31
0.0
  0
LINE
  5
1DB
330
1F
100
AcDbEntity
  8
0
  6
Continuous
 62
     7
370
    15
100
AcDbLine
 10
0.1419547357
 20
0.3480799552
 30
0.0
 11
0.1427272343
 21
0.3480039257
 31
0.0
  0
LINE
  5
1DC
330
1F
100
AcDbEntity
  8
0
  6
Continuous
 62
     7
370
    15
100
AcDbLine
 10
0.1411740527
 20
0.3481834195
 30
0.0
 11
0.1419547357
 21
0.3480799552
 31
0.0
  0
LINE
  5
1DD
330
1F
100
AcDbEntity
  8
0
  6
Continuous
 62
     7
370
    15
100
AcDbLine
 10
0.140385975
 20
0.3483138624
 30
0.0
 11
0.1411740527
 21
0.3481834195
 31
0.0
  0
LINE
  5
1DE
330
1F
100
AcDbEntity
  8
0
  6
Continuous
 62
     7
370
    15
100
AcDbLine
 10
0.1400834628
 20
0.349083228
 30
0.0
 11
0.140385975
 21
0.3483138624
 31
0.0
  0
LINE
  5
1DF
330
1F
100
AcDbEntity
  8
0
  6
Continuous
 62
     7
370
    15
100
AcDbLine
 10
0.1397940971
 20
0.3498576171
 30
0.0
 11
0.1400834628
 21
0.349083228
 31
0.0
  0
LINE
  5
1E0
330
1F
100
AcDbEntity
  8
0
  6
Continuous
 62
     7
370
    15
100
AcDbLine
 10
0.139518001
 20
0.3506368045
 30
0.0
 11
0.1397940971
 21
0.3498576171
 31
0.0
  0
LINE
  5
1E1
330
1F
100
AcDbEntity
  8
0
  6
Continuous
 62
     7
370
    15
100
AcDbLine
 10
0.1392551966
 20
0.3514206204
 30
0.0
 11
0.139518001
 21
0.3506368045
 31
0.0
  0
LINE
  5
1E2
330
1F
100
AcDbEntity
  8
0
  6
Continuous
 62
     7
370
    15
100
AcDbLine
 10
0.1397750497
 20
0.3520271154
 30
0.0
 11
0.1392551966
 21
0.3514206204
 31
0.0
  0
LINE
  5
1E3
330
1F
100
AcDbEntity
  8
0
  6
Continuous
 62
     7
370
    15
100
AcDbLine
 10
0.1403065853
 20
0.3526081834
 30
0.0
 11
0.1397750497
 21
0.3520271154
 31
0.0
  0
LINE
  5
1E4
330
1F
100
AcDbEntity
  8
0
  6
Continuous
 62
     7
370
    15
100
AcDbLine
 10
0.140849498
 20
0.353162976
 30
0.0
 11
0.1403065853
 21
0.3526081834
 31
0.0
  0
LINE
  5
1E5
330
1F
100
AcDbEntity
  8
0
  6
Continuous
 62
     7
370
    15
100
AcDbLine
 10
0.1414035008
 20
0.3536904491
 30
0.0
 11
0.140849498
 21
0.353162976
 31
0.0
  0
LINE
  5
1E6
330
1F
100
AcDbEntity
  8
0
  6
Continuous
 62
     7
370
    15
100
AcDbLine
 10
0.1419683665
 20
0.3541893894
 30
0.0
 11
0.1414035008
 21
0.3536904491
 31
0.0
  0
LINE
  5
1E7
330
1F
100
AcDbEntity
  8
0
  6
Continuous
 62
     7
370
    15
100
AcDbLine
 10
0.1425439314
 20
0.3546582181
 30
0.0
 11
0.1419683665
 21
0.3541893894
 31
0.0
  0
LINE
  5
1E8
330
1F
100
AcDbEntity
  8
0
  6
Continuous
 62
     7
370
    15
100
AcDbLine
 10
0.1431302213
 20
0.3550949553
 30
0.0
 11
0.1425439314
 21
0.3546582181
 31
0.0
  0
LINE
  5
1E9
330
1F
100
AcDbEntity
  8
0
  6
Continuous
 62
     7
370
    15
100
AcDbLine
 10
0.1437274002
 20
0.3554968126
 30
0.0
 11
0.1431302213
 21
0.3550949553
 31
0.0
  0
LINE
  5
1EA
330
1F
100
AcDbEntity
  8
0
  6
Continuous
 62
     7
370
    15
100
AcDbLine
 10
0.144335986
 20
0.3558594957
 30
0.0
 11
0.1437274002
 21
0.3554968126
 31
0.0
  0
LINE
  5
1EB
330
1F
100
AcDbEntity
  8
0
  6
Continuous
 62
     7
370
    15
100
AcDbLine
 10
0.1449574091
 20
0.3561754441
 30
0.0
 11
0.144335986
 21
0.3558594957
 31
0.0
  0
LINE
  5
1EC
330
1F
100
AcDbEntity
  8
0
  6
Continuous
 62
     7
370
    15
100
AcDbLine
 10
0.1455966726
 20
0.3564225295
 30
0.0
 11
0.1449574091
 21
0.3561754441
 31
0.0
  0
LINE
  5
1ED
330
1F
100
AcDbEntity
  8
0
  6
Continuous
 62
     7
370
    15
100
AcDbLine
 10
0.1477474876
 20
0.3569646217
 30
0.0
 11
0.1455966726
 21
0.3564225295
 31
0.0
  0
LINE
  5
1EE
330
1F
100
AcDbEntity
  8
0
  6
Continuous
 62
     7
370
    15
100
AcDbLine
 10
0.1474290275
 20
0.3583320733
 30
0.0
 11
0.1477474876
 21
0.3569646217
 31
0.0
  0
LINE
  5
1EF
330
1F
100
AcDbEntity
  8
0
  6
Continuous
 62
     7
370
    15
100
AcDbLine
 10
0.1471602403
 20
0.3597101648
 30
0.0
 11
0.1474290275
 21
0.3583320733
 31
0.0
  0
LINE
  5
1F0
330
1F
100
AcDbEntity
  8
0
  6
Continuous
 62
     7
370
    15
100
AcDbLine
 10
0.1469414913
 20
0.3610970606
 30
0.0
 11
0.1471602403
 21
0.3597101648
 31
0.0
  0
LINE
  5
1F1
330
1F
100
AcDbEntity
  8
0
  6
Continuous
 62
     7
370
    15
100
AcDbLine
 10
0.1467730299
 20
0.3624909567
 30
0.0
 11
0.1469414913
 21
0.3610970606
 31
0.0
  0
LINE
  5
1F2
330
1F
100
AcDbEntity
  8
0
  6
Continuous
 62
     7
370
    15
100
AcDbLine
 10
0.144566533
 20
0.3622647268
 30
0.0
 11
0.1467730299
 21
0.3624909567
 31
0.0
  0
LINE
  5
1F3
330
1F
100
AcDbEntity
  8
0
  6
Continuous
 62
     7
370
    15
100
AcDbLine
 10
0.1438812994
 20
0.3622782738
 30
0.0
 11
0.144566533
 21
0.3622647268
 31
0.0
  0
LINE
  5
1F4
330
1F
100
AcDbEntity
  8
0
  6
Continuous
 62
     7
370
    15
100
AcDbLine
 10
0.1431893155
 20
0.3623626577
 30
0.0
 11
0.1438812994
 21
0.3622782738
 31
0.0
  0
LINE
  5
1F5
330
1F
100
AcDbEntity
  8
0
  6
Continuous
 62
     7
370
    15
100
AcDbLine
 10
0.1424933866
 20
0.3624953027
 30
0.0
 11
0.1431893155
 21
0.3623626577
 31
0.0
  0
LINE
  5
1F6
330
1F
100
AcDbEntity
  8
0
  6
Continuous
 62
     7
370
    15
100
AcDbLine
 10
0.1417947717
 20
0.3626686716
 30
0.0
 11
0.1424933866
 21
0.3624953027
 31
0.0
  0
LINE
  5
1F7
330
1F
100
AcDbEntity
  8
0
  6
Continuous
 62
     7
370
    15
100
AcDbLine
 10
0.1410944954
 20
0.3628785317
 30
0.0
 11
0.1417947717
 21
0.3626686716
 31
0.0
  0
LINE
  5
1F8
330
1F
100
AcDbEntity
  8
0
  6
Continuous
 62
     7
370
    15
100
AcDbLine
 10
0.1403932579
 20
0.3631222306
 30
0.0
 11
0.1410944954
 21
0.3628785317
 31
0.0
  0
LINE
  5
1F9
330
1F
100
AcDbEntity
  8
0
  6
Continuous
 62
     7
370
    15
100
AcDbLine
 10
0.139691823
 20
0.3633978776
 30
0.0
 11
0.1403932579
 21
0.3631222306
 31
0.0
  0
LINE
  5
1FA
330
1F
100
AcDbEntity
  8
0
  6
Continuous
 62
     7
370
    15
100
AcDbLine
 10
0.1389908091
 20
0.3637040886
 30
0.0
 11
0.139691823
 21
0.3633978776
 31
0.0
  0
LINE
  5
1FB
330
1F
100
AcDbEntity
  8
0
  6
Continuous
 62
     7
370
    15
100
AcDbLine
 10
0.1382908978
 20
0.3640397356
 30
0.0
 11
0.1389908091
 21
0.3637040886
 31
0.0
  0
LINE
  5
1FC
330
1F
100
AcDbEntity
  8
0
  6
Continuous
 62
     7
370
    15
100
AcDbLine
 10
0.1375926815
 20
0.3644039717
 30
0.0
 11
0.1382908978
 21
0.3640397356
 31
0.0
  0
LINE
  5
1FD
330
1F
100
AcDbEntity
  8
0
  6
Continuous
 62
     7
370
    15
100
AcDbLine
 10
0.1368967489
 20
0.3647960906
 30
0.0
 11
0.1375926815
 21
0.3644039717
 31
0.0
  0
LINE
  5
1FE
330
1F
100
AcDbEntity
  8
0
  6
Continuous
 62
     7
370
    15
100
AcDbLine
 10
0.1368756116
 20
0.3656224937
 30
0.0
 11
0.1368967489
 21
0.3647960906
 31
0.0
  0
LINE
  5
1FF
330
1F
100
AcDbEntity
  8
0
  6
Continuous
 62
     7
370
    15
100
AcDbLine
 10
0.136868582
 20
0.3664491517
 30
0.0
 11
0.1368756116
 21
0.3656224937
 31
0.0
  0
LINE
  5
200
330
1F
100
AcDbEntity
  8
0
  6
Continuous
 62
     7
370
    15
100
AcDbLine
 10
0.1368756116
 20
0.3672758087
 30
0.0
 11
0.136868582
 21
0.3664491517
 31
0.0
  0
LINE
  5
201
330
1F
100
AcDbEntity
  8
0
  6
Continuous
 62
     7
370
    15
100
AcDbLine
 10
0.1368967489
 20
0.3681022117
 30
0.0
 11
0.1368756116
 21
0.3672758087
 31
0.0
  0
LINE
  5
202
330
1F
100
AcDbEntity
  8
0
  6
Continuous
 62
     7
370
    15
100
AcDbLine
 10
0.1375926815
 20
0.3684943307
 30
0.0
 11
0.1368967489
 21
0.3681022117
 31
0.0
  0
LINE
  5
203
330
1F
100
AcDbEntity
  8
0
  6
Continuous
 62
     7
370
    15
100
AcDbLine
 10
0.1382908978
 20
0.3688585667
 30
0.0
 11
0.1375926815
 21
0.3684943307
 31
0.0
  0
LINE
  5
204
330
1F
100
AcDbEntity
  8
0
  6
Continuous
 62
     7
370
    15
100
AcDbLine
 10
0.1389908091
 20
0.3691942137
 30
0.0
 11
0.1382908978
 21
0.3688585667
 31
0.0
  0
LINE
  5
205
330
1F
100
AcDbEntity
  8
0
  6
Continuous
 62
     7
370
    15
100
AcDbLine
 10
0.139691823
 20
0.3695004247
 30
0.0
 11
0.1389908091
 21
0.3691942137
 31
0.0
  0
LINE
  5
206
330
1F
100
AcDbEntity
  8
0
  6
Continuous
 62
     7
370
    15
100
AcDbLine
 10
0.1403932579
 20
0.3697760717
 30
0.0
 11
0.139691823
 21
0.3695004247
 31
0.0
  0
LINE
  5
207
330
1F
100
AcDbEntity
  8
0
  6
Continuous
 62
     7
370
    15
100
AcDbLine
 10
0.1410944954
 20
0.3700197707
 30
0.0
 11
0.1403932579
 21
0.3697760717
 31
0.0
  0
LINE
  5
208
330
1F
100
AcDbEntity
  8
0
  6
Continuous
 62
     7
370
    15
100
AcDbLine
 10
0.1417947717
 20
0.3702296307
 30
0.0
 11
0.1410944954
 21
0.3700197707
 31
0.0
  0
LINE
  5
209
330
1F
100
AcDbEntity
  8
0
  6
Continuous
 62
     7
370
    15
100
AcDbLine
 10
0.1424933866
 20
0.3704029997
 30
0.0
 11
0.1417947717
 21
0.3702296307
 31
0.0
  0
LINE
  5
20A
330
1F
100
AcDbEntity
  8
0
  6
Continuous
 62
     7
370
    15
100
AcDbLine
 10
0.1431893155
 20
0.3705356447
 30
0.0
 11
0.1424933866
 21
0.3704029997
 31
0.0
  0
LINE
  5
20B
330
1F
100
AcDbEntity
  8
0
  6
Continuous
 62
     7
370
    15
100
AcDbLine
 10
0.1438812994
 20
0.3706200286
 30
0.0
 11
0.1431893155
 21
0.3705356447
 31
0.0
  0
LINE
  5
20C
330
1F
100
AcDbEntity
  8
0
  6
Continuous
 62
     7
370
    15
100
AcDbLine
 10
0.144566533
 20
0.3706335756
 30
0.0
 11
0.1438812994
 21
0.3706200286
 31
0.0
  0
LINE
  5
20D
330
1F
100
AcDbEntity
  8
0
  6
Continuous
 62
     7
370
    15
100
AcDbLine
 10
0.1467730299
 20
0.3704073457
 30
0.0
 11
0.144566533
 21
0.3706335756
 31
0.0
  0
LINE
  5
20E
330
1F
100
AcDbEntity
  8
0
  6
Continuous
 62
     7
370
    15
100
AcDbLine
 10
0.1469414913
 20
0.3718012417
 30
0.0
 11
0.1467730299
 21
0.3704073457
 31
0.0
  0
LINE
  5
20F
330
1F
100
AcDbEntity
  8
0
  6
Continuous
 62
     7
370
    15
100
AcDbLine
 10
0.1471602403
 20
0.3731881375
 30
0.0
 11
0.1469414913
 21
0.3718012417
 31
0.0
  0
LINE
  5
210
330
1F
100
AcDbEntity
  8
0
  6
Continuous
 62
     7
370
    15
100
AcDbLine
 10
0.1474290275
 20
0.37456623
 30
0.0
 11
0.1471602403
 21
0.3731881375
 31
0.0
  0
LINE
  5
211
330
1F
100
AcDbEntity
  8
0
  6
Continuous
 62
     7
370
    15
100
AcDbLine
 10
0.1477474876
 20
0.3759336807
 30
0.0
 11
0.1474290275
 21
0.37456623
 31
0.0
  0
LINE
  5
212
330
1F
100
AcDbEntity
  8
0
  6
Continuous
 62
     7
370
    15
100
AcDbLine
 10
0.1455966726
 20
0.3764757728
 30
0.0
 11
0.1477474876
 21
0.3759336807
 31
0.0
  0
LINE
  5
213
330
1F
100
AcDbEntity
  8
0
  6
Continuous
 62
     7
370
    15
100
AcDbLine
 10
0.1449574091
 20
0.3767228583
 30
0.0
 11
0.1455966726
 21
0.3764757728
 31
0.0
  0
LINE
  5
214
330
1F
100
AcDbEntity
  8
0
  6
Continuous
 62
     7
370
    15
100
AcDbLine
 10
0.144335986
 20
0.3770388067
 30
0.0
 11
0.1449574091
 21
0.3767228583
 31
0.0
  0
LINE
  5
215
330
1F
100
AcDbEntity
  8
0
  6
Continuous
 62
     7
370
    15
100
AcDbLine
 10
0.1437274002
 20
0.3774014897
 30
0.0
 11
0.144335986
 21
0.3770388067
 31
0.0
  0
LINE
  5
216
330
1F
100
AcDbEntity
  8
0
  6
Continuous
 62
     7
370
    15
100
AcDbLine
 10
0.1431302213
 20
0.3778033471
 30
0.0
 11
0.1437274002
 21
0.3774014897
 31
0.0
  0
LINE
  5
217
330
1F
100
AcDbEntity
  8
0
  6
Continuous
 62
     7
370
    15
100
AcDbLine
 10
0.1425439314
 20
0.3782400861
 30
0.0
 11
0.1431302213
 21
0.3778033471
 31
0.0
  0
LINE
  5
218
330
1F
100
AcDbEntity
  8
0
  6
Continuous
 62
     7
370
    15
100
AcDbLine
 10
0.1419683665
 20
0.378708913
 30
0.0
 11
0.1425439314
 21
0.3782400861
 31
0.0
  0
LINE
  5
219
330
1F
100
AcDbEntity
  8
0
  6
Continuous
 62
     7
370
    15
100
AcDbLine
 10
0.1414035008
 20
0.3792078532
 30
0.0
 11
0.1419683665
 21
0.378708913
 31
0.0
  0
LINE
  5
21A
330
1F
100
AcDbEntity
  8
0
  6
Continuous
 62
     7
370
    15
100
AcDbLine
 10
0.140849498
 20
0.3797353264
 30
0.0
 11
0.1414035008
 21
0.3792078532
 31
0.0
  0
LINE
  5
21B
330
1F
100
AcDbEntity
  8
0
  6
Continuous
 62
     7
370
    15
100
AcDbLine
 10
0.1403065853
 20
0.3802901199
 30
0.0
 11
0.140849498
 21
0.3797353264
 31
0.0
  0
LINE
  5
21C
330
1F
100
AcDbEntity
  8
0
  6
Continuous
 62
     7
370
    15
100
AcDbLine
 10
0.1397750497
 20
0.3808711869
 30
0.0
 11
0.1403065853
 21
0.3802901199
 31
0.0
  0
LINE
  5
21D
330
1F
100
AcDbEntity
  8
0
  6
Continuous
 62
     7
370
    15
100
AcDbLine
 10
0.1392551966
 20
0.3814776819
 30
0.0
 11
0.1397750497
 21
0.3808711869
 31
0.0
  0
LINE
  5
21E
330
1F
100
AcDbEntity
  8
0
  6
Continuous
 62
     7
370
    15
100
AcDbLine
 10
0.139518001
 20
0.3822614979
 30
0.0
 11
0.1392551966
 21
0.3814776819
 31
0.0
  0
LINE
  5
21F
330
1F
100
AcDbEntity
  8
0
  6
Continuous
 62
     7
370
    15
100
AcDbLine
 10
0.1397940971
 20
0.3830406852
 30
0.0
 11
0.139518001
 21
0.3822614979
 31
0.0
  0
LINE
  5
220
330
1F
100
AcDbEntity
  8
0
  6
Continuous
 62
     7
370
    15
100
AcDbLine
 10
0.1400834628
 20
0.3838150743
 30
0.0
 11
0.1397940971
 21
0.3830406852
 31
0.0
  0
LINE
  5
221
330
1F
100
AcDbEntity
  8
0
  6
Continuous
 62
     7
370
    15
100
AcDbLine
 10
0.140385975
 20
0.3845844399
 30
0.0
 11
0.1400834628
 21
0.3838150743
 31
0.0
  0
LINE
  5
222
330
1F
100
AcDbEntity
  8
0
  6
Continuous
 62
     7
370
    15
100
AcDbLine
 10
0.1411740527
 20
0.3847148828
 30
0.0
 11
0.140385975
 21
0.3845844399
 31
0.0
  0
LINE
  5
223
330
1F
100
AcDbEntity
  8
0
  6
Continuous
 62
     7
370
    15
100
AcDbLine
 10
0.1419547357
 20
0.3848183472
 30
0.0
 11
0.1411740527
 21
0.3847148828
 31
0.0
  0
LINE
  5
224
330
1F
100
AcDbEntity
  8
0
  6
Continuous
 62
     7
370
    15
100
AcDbLine
 10
0.1427272343
 20
0.3848943785
 30
0.0
 11
0.1419547357
 21
0.3848183472
 31
0.0
  0
LINE
  5
225
330
1F
100
AcDbEntity
  8
0
  6
Continuous
 62
     7
370
    15
100
AcDbLine
 10
0.1434906729
 20
0.3849423267
 30
0.0
 11
0.1427272343
 21
0.3848943785
 31
0.0
  0
LINE
  5
226
330
1F
100
AcDbEntity
  8
0
  6
Continuous
 62
     7
370
    15
100
AcDbLine
 10
0.1442440942
 20
0.3849614616
 30
0.0
 11
0.1434906729
 21
0.3849423267
 31
0.0
  0
LINE
  5
227
330
1F
100
AcDbEntity
  8
0
  6
Continuous
 62
     7
370
    15
100
AcDbLine
 10
0.1449863956
 20
0.3849506229
 30
0.0
 11
0.1442440942
 21
0.3849614616
 31
0.0
  0
LINE
  5
228
330
1F
100
AcDbEntity
  8
0
  6
Continuous
 62
     7
370
    15
100
AcDbLine
 10
0.1457162507
 20
0.3849083185
 30
0.0
 11
0.1449863956
 21
0.3849506229
 31
0.0
  0
LINE
  5
229
330
1F
100
AcDbEntity
  8
0
  6
Continuous
 62
     7
370
    15
100
AcDbLine
 10
0.1464319945
 20
0.384832289
 30
0.0
 11
0.1457162507
 21
0.3849083185
 31
0.0
  0
LINE
  5
22A
330
1F
100
AcDbEntity
  8
0
  6
Continuous
 62
     7
370
    15
100
AcDbLine
 10
0.1471313395
 20
0.3847189192
 30
0.0
 11
0.1464319945
 21
0.384832289
 31
0.0
  0
LINE
  5
22B
330
1F
100
AcDbEntity
  8
0
  6
Continuous
 62
     7
370
    15
100
AcDbLine
 10
0.1478104525
 20
0.3845615536
 30
0.0
 11
0.1471313395
 21
0.3847189192
 31
0.0
  0
LINE
  5
22C
330
1F
100
AcDbEntity
  8
0
  6
Continuous
 62
     7
370
    15
100
AcDbLine
 10
0.1484589994
 20
0.3843398951
 30
0.0
 11
0.1478104525
 21
0.3845615536
 31
0.0
  0
LINE
  5
22D
330
1F
100
AcDbEntity
  8
0
  6
Continuous
 62
     7
370
    15
100
AcDbLine
 10
0.1504550435
 20
0.3833726346
 30
0.0
 11
0.1484589994
 21
0.3843398951
 31
0.0
  0
LINE
  5
22E
330
1F
100
AcDbEntity
  8
0
  6
Continuous
 62
     7
370
    15
100
AcDbLine
 10
0.1510900714
 20
0.3846248835
 30
0.0
 11
0.1504550435
 21
0.3833726346
 31
0.0
  0
LINE
  5
22F
330
1F
100
AcDbEntity
  8
0
  6
Continuous
 62
     7
370
    15
100
AcDbLine
 10
0.1517700002
 20
0.385853311
 30
0.0
 11
0.1510900714
 21
0.3846248835
 31
0.0
  0
LINE
  5
230
330
1F
100
AcDbEntity
  8
0
  6
Continuous
 62
     7
370
    15
100
AcDbLine
 10
0.1524939023
 20
0.3870563693
 30
0.0
 11
0.1517700002
 21
0.385853311
 31
0.0
  0
LINE
  5
231
330
1F
100
AcDbEntity
  8
0
  6
Continuous
 62
     7
370
    15
100
AcDbLine
 10
0.153260839
 20
0.3882324453
 30
0.0
 11
0.1524939023
 21
0.3870563693
 31
0.0
  0
LINE
  5
232
330
1F
100
AcDbEntity
  8
0
  6
Continuous
 62
     7
370
    15
100
AcDbLine
 10
0.1514251538
 20
0.3894774411
 30
0.0
 11
0.153260839
 21
0.3882324453
 31
0.0
  0
LINE
  5
233
330
1F
100
AcDbEntity
  8
0
  6
Continuous
 62
     7
370
    15
100
AcDbLine
 10
0.1509089403
 20
0.3899282608
 30
0.0
 11
0.1514251538
 21
0.3894774411
 31
0.0
  0
LINE
  5
234
330
1F
100
AcDbEntity
  8
0
  6
Continuous
 62
     7
370
    15
100
AcDbLine
 10
0.1504330568
 20
0.3904377017
 30
0.0
 11
0.1509089403
 21
0.3899282608
 31
0.0
  0
LINE
  5
235
330
1F
100
AcDbEntity
  8
0
  6
Continuous
 62
     7
370
    15
100
AcDbLine
 10
0.1499852285
 20
0.3909866791
 30
0.0
 11
0.1504330568
 21
0.3904377017
 31
0.0
  0
LINE
  5
236
330
1F
100
AcDbEntity
  8
0
  6
Continuous
 62
     7
370
    15
100
AcDbLine
 10
0.1495614991
 20
0.3915685378
 30
0.0
 11
0.1499852285
 21
0.3909866791
 31
0.0
  0
LINE
  5
237
330
1F
100
AcDbEntity
  8
0
  6
Continuous
 62
     7
370
    15
100
AcDbLine
 10
0.1491599538
 20
0.3921794351
 30
0.0
 11
0.1495614991
 21
0.3915685378
 31
0.0
  0
LINE
  5
238
330
1F
100
AcDbEntity
  8
0
  6
Continuous
 62
     7
370
    15
100
AcDbLine
 10
0.148779434
 20
0.3928168621
 30
0.0
 11
0.1491599538
 21
0.3921794351
 31
0.0
  0
LINE
  5
239
330
1F
100
AcDbEntity
  8
0
  6
Continuous
 62
     7
370
    15
100
AcDbLine
 10
0.1484192618
 20
0.3934789002
 30
0.0
 11
0.148779434
 21
0.3928168621
 31
0.0
  0
LINE
  5
23A
330
1F
100
AcDbEntity
  8
0
  6
Continuous
 62
     7
370
    15
100
AcDbLine
 10
0.1480790981
 20
0.39416405
 30
0.0
 11
0.1484192618
 21
0.3934789002
 31
0.0
  0
LINE
  5
23B
330
1F
100
AcDbEntity
  8
0
  6
Continuous
 62
     7
370
    15
100
AcDbLine
 10
0.1477586635
 20
0.3948710728
 30
0.0
 11
0.1480790981
 21
0.39416405
 31
0.0
  0
LINE
  5
23C
330
1F
100
AcDbEntity
  8
0
  6
Continuous
 62
     7
370
    15
100
AcDbLine
 10
0.1474579283
 20
0.3955988958
 30
0.0
 11
0.1477586635
 21
0.3948710728
 31
0.0
  0
LINE
  5
23D
330
1F
100
AcDbEntity
  8
0
  6
Continuous
 62
     7
370
    15
100
AcDbLine
 10
0.1471768626
 20
0.3963466175
 30
0.0
 11
0.1474579283
 21
0.3955988958
 31
0.0
  0
LINE
  5
23E
330
1F
100
AcDbEntity
  8
0
  6
Continuous
 62
     7
370
    15
100
AcDbLine
 10
0.1476918914
 20
0.396993272
 30
0.0
 11
0.1471768626
 21
0.3963466175
 31
0.0
  0
LINE
  5
23F
330
1F
100
AcDbEntity
  8
0
  6
Continuous
 62
     7
370
    15
100
AcDbLine
 10
0.1482178689
 20
0.3976310659
 30
0.0
 11
0.1476918914
 21
0.396993272
 31
0.0
  0
LINE
  5
240
330
1F
100
AcDbEntity
  8
0
  6
Continuous
 62
     7
370
    15
100
AcDbLine
 10
0.1487546273
 20
0.3982597738
 30
0.0
 11
0.1482178689
 21
0.3976310659
 31
0.0
  0
LINE
  5
241
330
1F
100
AcDbEntity
  8
0
  6
Continuous
 62
     7
370
    15
100
AcDbLine
 10
0.1493019954
 20
0.3988792784
 30
0.0
 11
0.1487546273
 21
0.3982597738
 31
0.0
  0
LINE
  5
242
330
1F
100
AcDbEntity
  8
0
  6
Continuous
 62
     7
370
    15
100
AcDbLine
 10
0.1500871674
 20
0.3987322971
 30
0.0
 11
0.1493019954
 21
0.3988792784
 31
0.0
  0
LINE
  5
243
330
1F
100
AcDbEntity
  8
0
  6
Continuous
 62
     7
370
    15
100
AcDbLine
 10
0.1508561641
 20
0.3985625133
 30
0.0
 11
0.1500871674
 21
0.3987322971
 31
0.0
  0
LINE
  5
244
330
1F
100
AcDbEntity
  8
0
  6
Continuous
 62
     7
370
    15
100
AcDbLine
 10
0.1516080916
 20
0.3983697556
 30
0.0
 11
0.1508561641
 21
0.3985625133
 31
0.0
  0
LINE
  5
245
330
1F
100
AcDbEntity
  8
0
  6
Continuous
 62
     7
370
    15
100
AcDbLine
 10
0.1523418956
 20
0.3981537148
 30
0.0
 11
0.1516080916
 21
0.3983697556
 31
0.0
  0
LINE
  5
246
330
1F
100
AcDbEntity
  8
0
  6
Continuous
 62
     7
370
    15
100
AcDbLine
 10
0.1530564286
 20
0.3979139924
 30
0.0
 11
0.1523418956
 21
0.3981537148
 31
0.0
  0
LINE
  5
247
330
1F
100
AcDbEntity
  8
0
  6
Continuous
 62
     7
370
    15
100
AcDbLine
 10
0.1537502416
 20
0.3976499475
 30
0.0
 11
0.1530564286
 21
0.3979139924
 31
0.0
  0
LINE
  5
248
330
1F
100
AcDbEntity
  8
0
  6
Continuous
 62
     7
370
    15
100
AcDbLine
 10
0.1544215911
 20
0.3973605558
 30
0.0
 11
0.1537502416
 21
0.3976499475
 31
0.0
  0
LINE
  5
249
330
1F
100
AcDbEntity
  8
0
  6
Continuous
 62
     7
370
    15
100
AcDbLine
 10
0.1550681916
 20
0.3970443252
 30
0.0
 11
0.1544215911
 21
0.3973605558
 31
0.0
  0
LINE
  5
24A
330
1F
100
AcDbEntity
  8
0
  6
Continuous
 62
     7
370
    15
100
AcDbLine
 10
0.1556865693
 20
0.3966986034
 30
0.0
 11
0.1550681916
 21
0.3970443252
 31
0.0
  0
LINE
  5
24B
330
1F
100
AcDbEntity
  8
0
  6
Continuous
 62
     7
370
    15
100
AcDbLine
 10
0.156270909
 20
0.3963184226
 30
0.0
 11
0.1556865693
 21
0.3966986034
 31
0.0
  0
LINE
  5
24C
330
1F
100
AcDbEntity
  8
0
  6
Continuous
 62
     7
370
    15
100
AcDbLine
 10
0.1568045363
 20
0.3958883434
 30
0.0
 11
0.156270909
 21
0.3963184226
 31
0.0
  0
LINE
  5
24D
330
1F
100
AcDbEntity
  8
0
  6
Continuous
 62
     7
370
    15
100
AcDbLine
 10
0.1583493919
 20
0.3942967243
 30
0.0
 11
0.1568045363
 21
0.3958883434
 31
0.0
  0
LINE
  5
24E
330
1F
100
AcDbEntity
  8
0
  6
Continuous
 62
     7
370
    15
100
AcDbLine
 10
0.1593744223
 20
0.3952562511
 30
0.0
 11
0.1583493919
 21
0.3942967243
 31
0.0
  0
LINE
  5
24F
330
1F
100
AcDbEntity
  8
0
  6
Continuous
 62
     7
370
    15
100
AcDbLine
 10
0.1604334906
 20
0.3961780742
 30
0.0
 11
0.1593744223
 21
0.3952562511
 31
0.0
  0
LINE
  5
250
330
1F
100
AcDbEntity
  8
0
  6
Continuous
 62
     7
370
    15
100
AcDbLine
 10
0.1615251814
 20
0.3970609773
 30
0.0
 11
0.1604334906
 21
0.3961780742
 31
0.0
  0
LINE
  5
251
330
1F
100
AcDbEntity
  8
0
  6
Continuous
 62
     7
370
    15
100
AcDbLine
 10
0.1626481161
 20
0.3979038074
 30
0.0
 11
0.1615251814
 21
0.3970609773
 31
0.0
  0
LINE
  5
252
330
1F
100
AcDbEntity
  8
0
  6
Continuous
 62
     7
370
    15
100
AcDbLine
 10
0.1613489621
 20
0.3997015618
 30
0.0
 11
0.1626481161
 21
0.3979038074
 31
0.0
  0
LINE
  5
253
330
1F
100
AcDbEntity
  8
0
  6
Continuous
 62
     7
370
    15
100
AcDbLine
 10
0.1610180576
 20
0.4003017619
 30
0.0
 11
0.1613489621
 21
0.3997015618
 31
0.0
  0
LINE
  5
254
330
1F
100
AcDbEntity
  8
0
  6
Continuous
 62
     7
370
    15
100
AcDbLine
 10
0.1607451484
 20
0.4009432271
 30
0.0
 11
0.1610180576
 21
0.4003017619
 31
0.0
  0
LINE
  5
255
330
1F
100
AcDbEntity
  8
0
  6
Continuous
 62
     7
370
    15
100
AcDbLine
 10
0.1605120607
 20
0.4016122632
 30
0.0
 11
0.1607451484
 21
0.4009432271
 31
0.0
  0
LINE
  5
256
330
1F
100
AcDbEntity
  8
0
  6
Continuous
 62
     7
370
    15
100
AcDbLine
 10
0.1603128955
 20
0.4023039341
 30
0.0
 11
0.1605120607
 21
0.4016122632
 31
0.0
  0
LINE
  5
257
330
1F
100
AcDbEntity
  8
0
  6
Continuous
 62
     7
370
    15
100
AcDbLine
 10
0.1601444938
 20
0.4030153565
 30
0.0
 11
0.1603128955
 21
0.4023039341
 31
0.0
  0
LINE
  5
258
330
1F
100
AcDbEntity
  8
0
  6
Continuous
 62
     7
370
    15
100
AcDbLine
 10
0.1600049351
 20
0.4037445076
 30
0.0
 11
0.1601444938
 21
0.4030153565
 31
0.0
  0
LINE
  5
259
330
1F
100
AcDbEntity
  8
0
  6
Continuous
 62
     7
370
    15
100
AcDbLine
 10
0.1598929491
 20
0.4044897705
 30
0.0
 11
0.1600049351
 21
0.4037445076
 31
0.0
  0
LINE
  5
25A
330
1F
100
AcDbEntity
  8
0
  6
Continuous
 62
     7
370
    15
100
AcDbLine
 10
0.1598076065
 20
0.4052499644
 30
0.0
 11
0.1598929491
 21
0.4044897705
 31
0.0
  0
LINE
  5
25B
330
1F
100
AcDbEntity
  8
0
  6
Continuous
 62
     7
370
    15
100
AcDbLine
 10
0.159748339
 20
0.4060239307
 30
0.0
 11
0.1598076065
 21
0.4052499644
 31
0.0
  0
LINE
  5
25C
330
1F
100
AcDbEntity
  8
0
  6
Continuous
 62
     7
370
    15
100
AcDbLine
 10
0.1597146418
 20
0.406810712
 30
0.0
 11
0.159748339
 21
0.4060239307
 31
0.0
  0
LINE
  5
25D
330
1F
100
AcDbEntity
  8
0
  6
Continuous
 62
     7
370
    15
100
AcDbLine
 10
0.1597062599
 20
0.4076094851
 30
0.0
 11
0.1597146418
 21
0.406810712
 31
0.0
  0
LINE
  5
25E
330
1F
100
AcDbEntity
  8
0
  6
Continuous
 62
     7
370
    15
100
AcDbLine
 10
0.1604113922
 20
0.4080409743
 30
0.0
 11
0.1597062599
 21
0.4076094851
 31
0.0
  0
LINE
  5
25F
330
1F
100
AcDbEntity
  8
0
  6
Continuous
 62
     7
370
    15
100
AcDbLine
 10
0.1611237776
 20
0.4084604122
 30
0.0
 11
0.1604113922
 21
0.4080409743
 31
0.0
  0
LINE
  5
260
330
1F
100
AcDbEntity
  8
0
  6
Continuous
 62
     7
370
    15
100
AcDbLine
 10
0.1618432187
 20
0.4088676311
 30
0.0
 11
0.1611237776
 21
0.4084604122
 31
0.0
  0
LINE
  5
261
330
1F
100
AcDbEntity
  8
0
  6
Continuous
 62
     7
370
    15
100
AcDbLine
 10
0.1625694603
 20
0.4092625454
 30
0.0
 11
0.1618432187
 21
0.4088676311
 31
0.0
  0
LINE
  5
262
330
1F
100
AcDbEntity
  8
0
  6
Continuous
 62
     7
370
    15
100
AcDbLine
 10
0.163257039
 20
0.4088559188
 30
0.0
 11
0.1625694603
 21
0.4092625454
 31
0.0
  0
LINE
  5
263
330
1F
100
AcDbEntity
  8
0
  6
Continuous
 62
     7
370
    15
100
AcDbLine
 10
0.1639215861
 20
0.4084333479
 30
0.0
 11
0.163257039
 21
0.4088559188
 31
0.0
  0
LINE
  5
264
330
1F
100
AcDbEntity
  8
0
  6
Continuous
 62
     7
370
    15
100
AcDbLine
 10
0.1645622038
 20
0.4079950265
 30
0.0
 11
0.1639215861
 21
0.4084333479
 31
0.0
  0
LINE
  5
265
330
1F
100
AcDbEntity
  8
0
  6
Continuous
 62
     7
370
    15
100
AcDbLine
 10
0.1651778713
 20
0.407541044
 30
0.0
 11
0.1645622038
 21
0.4079950265
 31
0.0
  0
LINE
  5
266
330
1F
100
AcDbEntity
  8
0
  6
Continuous
 62
     7
370
    15
100
AcDbLine
 10
0.1657673203
 20
0.4070714004
 30
0.0
 11
0.1651778713
 21
0.407541044
 31
0.0
  0
LINE
  5
267
330
1F
100
AcDbEntity
  8
0
  6
Continuous
 62
     7
370
    15
100
AcDbLine
 10
0.1663289711
 20
0.4065859765
 30
0.0
 11
0.1657673203
 21
0.4070714004
 31
0.0
  0
LINE
  5
268
330
1F
100
AcDbEntity
  8
0
  6
Continuous
 62
     7
370
    15
100
AcDbLine
 10
0.1668608755
 20
0.4060844406
 30
0.0
 11
0.1663289711
 21
0.4065859765
 31
0.0
  0
LINE
  5
269
330
1F
100
AcDbEntity
  8
0
  6
Continuous
 62
     7
370
    15
100
AcDbLine
 10
0.1673603233
 20
0.4055661112
 30
0.0
 11
0.1668608755
 21
0.4060844406
 31
0.0
  0
LINE
  5
26A
330
1F
100
AcDbEntity
  8
0
  6
Continuous
 62
     7
370
    15
100
AcDbLine
 10
0.1678231683
 20
0.4050297476
 30
0.0
 11
0.1673603233
 21
0.4055661112
 31
0.0
  0
LINE
  5
26B
330
1F
100
AcDbEntity
  8
0
  6
Continuous
 62
     7
370
    15
100
AcDbLine
 10
0.1682422393
 20
0.4044726416
 30
0.0
 11
0.1678231683
 21
0.4050297476
 31
0.0
  0
LINE
  5
26C
330
1F
100
AcDbEntity
  8
0
  6
Continuous
 62
     7
370
    15
100
AcDbLine
 10
0.1685965702
 20
0.4038859866
 30
0.0
 11
0.1682422393
 21
0.4044726416
 31
0.0
  0
LINE
  5
26D
330
1F
100
AcDbEntity
  8
0
  6
Continuous
 62
     7
370
    15
100
AcDbLine
 10
0.169503915
 20
0.4018619992
 30
0.0
 11
0.1685965702
 21
0.4038859866
 31
0.0
  0
LINE
  5
26E
330
1F
100
AcDbEntity
  8
0
  6
Continuous
 62
     7
370
    15
100
AcDbLine
 10
0.1707952785
 20
0.4024130665
 30
0.0
 11
0.169503915
 21
0.4018619992
 31
0.0
  0
LINE
  5
26F
330
1F
100
AcDbEntity
  8
0
  6
Continuous
 62
     7
370
    15
100
AcDbLine
 10
0.1721057779
 20
0.402917061
 30
0.0
 11
0.1707952785
 21
0.4024130665
 31
0.0
  0
LINE
  5
270
330
1F
100
AcDbEntity
  8
0
  6
Continuous
 62
     7
370
    15
100
AcDbLine
 10
0.1734336045
 20
0.4033733271
 30
0.0
 11
0.1721057779
 21
0.402917061
 31
0.0
  0
LINE
  5
271
330
1F
100
AcDbEntity
  8
0
  6
Continuous
 62
     7
370
    15
100
AcDbLine
 10
0.174777096
 20
0.4037812799
 30
0.0
 11
0.1734336045
 21
0.4033733271
 31
0.0
  0
LINE
  5
272
330
1F
100
AcDbEntity
  8
0
  6
Continuous
 62
     7
370
    15
100
AcDbLine
 10
0.1741711356
 20
0.405914966
 30
0.0
 11
0.174777096
 21
0.4037812799
 31
0.0
  0
LINE
  5
273
330
1F
100
AcDbEntity
  8
0
  6
Continuous
 62
     7
370
    15
100
AcDbLine
 10
0.1740655004
 20
0.4065921306
 30
0.0
 11
0.1741711356
 21
0.405914966
 31
0.0
  0
LINE
  5
274
330
1F
100
AcDbEntity
  8
0
  6
Continuous
 62
     7
370
    15
100
AcDbLine
 10
0.174028417
 20
0.407288257
 30
0.0
 11
0.1740655004
 21
0.4065921306
 31
0.0
  0
LINE
  5
275
330
1F
100
AcDbEntity
  8
0
  6
Continuous
 62
     7
370
    15
100
AcDbLine
 10
0.1740382098
 20
0.4079966657
 30
0.0
 11
0.174028417
 21
0.407288257
 31
0.0
  0
LINE
  5
276
330
1F
100
AcDbEntity
  8
0
  6
Continuous
 62
     7
370
    15
100
AcDbLine
 10
0.1740876267
 20
0.4087147526
 30
0.0
 11
0.1740382098
 21
0.4079966657
 31
0.0
  0
LINE
  5
277
330
1F
100
AcDbEntity
  8
0
  6
Continuous
 62
     7
370
    15
100
AcDbLine
 10
0.174172717
 20
0.4094408527
 30
0.0
 11
0.1740876267
 21
0.4087147526
 31
0.0
  0
LINE
  5
278
330
1F
100
AcDbEntity
  8
0
  6
Continuous
 62
     7
370
    15
100
AcDbLine
 10
0.17429094
 20
0.4101737551
 30
0.0
 11
0.174172717
 21
0.4094408527
 31
0.0
  0
LINE
  5
279
330
1F
100
AcDbEntity
  8
0
  6
Continuous
 62
     7
370
    15
100
AcDbLine
 10
0.1744406017
 20
0.4109124169
 30
0.0
 11
0.17429094
 21
0.4101737551
 31
0.0
  0
LINE
  5
27A
330
1F
100
AcDbEntity
  8
0
  6
Continuous
 62
     7
370
    15
100
AcDbLine
 10
0.1746204056
 20
0.4116559028
 30
0.0
 11
0.1744406017
 21
0.4109124169
 31
0.0
  0
LINE
  5
27B
330
1F
100
AcDbEntity
  8
0
  6
Continuous
 62
     7
370
    15
100
AcDbLine
 10
0.1748294196
 20
0.4124034792
 30
0.0
 11
0.1746204056
 21
0.4116559028
 31
0.0
  0
LINE
  5
27C
330
1F
100
AcDbEntity
  8
0
  6
Continuous
 62
     7
370
    15
100
AcDbLine
 10
0.1750668817
 20
0.4131543338
 30
0.0
 11
0.1748294196
 21
0.4124034792
 31
0.0
  0
LINE
  5
27D
330
1F
100
AcDbEntity
  8
0
  6
Continuous
 62
     7
370
    15
100
AcDbLine
 10
0.1753321987
 20
0.413907811
 30
0.0
 11
0.1750668817
 21
0.4131543338
 31
0.0
  0
LINE
  5
27E
330
1F
100
AcDbEntity
  8
0
  6
Continuous
 62
     7
370
    15
100
AcDbLine
 10
0.1761423739
 20
0.4140721187
 30
0.0
 11
0.1753321987
 21
0.413907811
 31
0.0
  0
LINE
  5
27F
330
1F
100
AcDbEntity
  8
0
  6
Continuous
 62
     7
370
    15
100
AcDbLine
 10
0.1769552593
 20
0.4142225981
 30
0.0
 11
0.1761423739
 21
0.4140721187
 31
0.0
  0
LINE
  5
280
330
1F
100
AcDbEntity
  8
0
  6
Continuous
 62
     7
370
    15
100
AcDbLine
 10
0.1777705698
 20
0.414359197
 30
0.0
 11
0.1769552593
 21
0.4142225981
 31
0.0
  0
LINE
  5
281
330
1F
100
AcDbEntity
  8
0
  6
Continuous
 62
     7
370
    15
100
AcDbLine
 10
0.1785881117
 20
0.4144819043
 30
0.0
 11
0.1777705698
 21
0.414359197
 31
0.0
  0
LINE
  5
282
330
1F
100
AcDbEntity
  8
0
  6
Continuous
 62
     7
370
    15
100
AcDbLine
 10
0.1790951238
 20
0.4138646312
 30
0.0
 11
0.1785881117
 21
0.4144819043
 31
0.0
  0
LINE
  5
283
330
1F
100
AcDbEntity
  8
0
  6
Continuous
 62
     7
370
    15
100
AcDbLine
 10
0.1795750706
 20
0.4132402688
 30
0.0
 11
0.1790951238
 21
0.4138646312
 31
0.0
  0
LINE
  5
284
330
1F
100
AcDbEntity
  8
0
  6
Continuous
 62
     7
370
    15
100
AcDbLine
 10
0.1800271346
 20
0.4126092754
 30
0.0
 11
0.1795750706
 21
0.4132402688
 31
0.0
  0
LINE
  5
285
330
1F
100
AcDbEntity
  8
0
  6
Continuous
 62
     7
370
    15
100
AcDbLine
 10
0.1804504118
 20
0.4119721055
 30
0.0
 11
0.1800271346
 21
0.4126092754
 31
0.0
  0
LINE
  5
286
330
1F
100
AcDbEntity
  8
0
  6
Continuous
 62
     7
370
    15
100
AcDbLine
 10
0.18084366
 20
0.4113291725
 30
0.0
 11
0.1804504118
 21
0.4119721055
 31
0.0
  0
LINE
  5
287
330
1F
100
AcDbEntity
  8
0
  6
Continuous
 62
     7
370
    15
100
AcDbLine
 10
0.1812054406
 20
0.4106809087
 30
0.0
 11
0.18084366
 21
0.4113291725
 31
0.0
  0
LINE
  5
288
330
1F
100
AcDbEntity
  8
0
  6
Continuous
 62
     7
370
    15
100
AcDbLine
 10
0.1815337218
 20
0.4100277051
 30
0.0
 11
0.1812054406
 21
0.4106809087
 31
0.0
  0
LINE
  5
289
330
1F
100
AcDbEntity
  8
0
  6
Continuous
 62
     7
370
    15
100
AcDbLine
 10
0.1818257648
 20
0.4093698188
 30
0.0
 11
0.1815337218
 21
0.4100277051
 31
0.0
  0
LINE
  5
28A
330
1F
100
AcDbEntity
  8
0
  6
Continuous
 62
     7
370
    15
100
AcDbLine
 10
0.1820772529
 20
0.4087074995
 30
0.0
 11
0.1818257648
 21
0.4093698188
 31
0.0
  0
LINE
  5
28B
330
1F
100
AcDbEntity
  8
0
  6
Continuous
 62
     7
370
    15
100
AcDbLine
 10
0.1822805098
 20
0.4080406651
 30
0.0
 11
0.1820772529
 21
0.4087074995
 31
0.0
  0
LINE
  5
28C
330
1F
100
AcDbEntity
  8
0
  6
Continuous
 62
     7
370
    15
100
AcDbLine
 10
0.1824128438
 20
0.4073681831
 30
0.0
 11
0.1822805098
 21
0.4080406651
 31
0.0
  0
LINE
  5
28D
330
1F
100
AcDbEntity
  8
0
  6
Continuous
 62
     7
370
    15
100
AcDbLine
 10
0.1825732017
 20
0.4051559269
 30
0.0
 11
0.1824128438
 21
0.4073681831
 31
0.0
  0
LINE
  5
28E
330
1F
100
AcDbEntity
  8
0
  6
Continuous
 62
     7
370
    15
100
AcDbLine
 10
0.1839751698
 20
0.4052321017
 30
0.0
 11
0.1825732017
 21
0.4051559269
 31
0.0
  0
LINE
  5
28F
330
1F
100
AcDbEntity
  8
0
  6
Continuous
 62
     7
370
    15
100
AcDbLine
 10
0.1853789988
 20
0.4052575007
 30
0.0
 11
0.1839751698
 21
0.4052321017
 31
0.0
  0
LINE
  5
290
330
1F
100
AcDbEntity
  8
0
  6
Continuous
 62
     7
370
    15
100
AcDbLine
 10
0.1867828289
 20
0.4052321017
 30
0.0
 11
0.1853789988
 21
0.4052575007
 31
0.0
  0
LINE
  5
291
330
1F
100
AcDbEntity
  8
0
  6
Continuous
 62
     7
370
    15
100
AcDbLine
 10
0.1881847958
 20
0.4051559269
 30
0.0
 11
0.1867828289
 21
0.4052321017
 31
0.0
  0
LINE
  5
292
330
1F
100
AcDbEntity
  8
0
  6
Continuous
 62
     7
370
    15
100
AcDbLine
 10
0.1883451548
 20
0.4073681831
 30
0.0
 11
0.1881847958
 21
0.4051559269
 31
0.0
  0
LINE
  5
293
330
1F
100
AcDbEntity
  8
0
  6
Continuous
 62
     7
370
    15
100
AcDbLine
 10
0.1884774888
 20
0.4080406651
 30
0.0
 11
0.1883451548
 21
0.4073681831
 31
0.0
  0
LINE
  5
294
330
1F
100
AcDbEntity
  8
0
  6
Continuous
 62
     7
370
    15
100
AcDbLine
 10
0.1886807448
 20
0.4087074995
 30
0.0
 11
0.1884774888
 21
0.4080406651
 31
0.0
  0
LINE
  5
295
330
1F
100
AcDbEntity
  8
0
  6
Continuous
 62
     7
370
    15
100
AcDbLine
 10
0.1889322338
 20
0.4093698188
 30
0.0
 11
0.1886807448
 21
0.4087074995
 31
0.0
  0
LINE
  5
296
330
1F
100
AcDbEntity
  8
0
  6
Continuous
 62
     7
370
    15
100
AcDbLine
 10
0.1892242768
 20
0.4100277051
 30
0.0
 11
0.1889322338
 21
0.4093698188
 31
0.0
  0
LINE
  5
297
330
1F
100
AcDbEntity
  8
0
  6
Continuous
 62
     7
370
    15
100
AcDbLine
 10
0.189552558
 20
0.4106809087
 30
0.0
 11
0.1892242768
 21
0.4100277051
 31
0.0
  0
LINE
  5
298
330
1F
100
AcDbEntity
  8
0
  6
Continuous
 62
     7
370
    15
100
AcDbLine
 10
0.1899143386
 20
0.4113291725
 30
0.0
 11
0.189552558
 21
0.4106809087
 31
0.0
  0
LINE
  5
299
330
1F
100
AcDbEntity
  8
0
  6
Continuous
 62
     7
370
    15
100
AcDbLine
 10
0.1903075868
 20
0.4119721055
 30
0.0
 11
0.1899143386
 21
0.4113291725
 31
0.0
  0
LINE
  5
29A
330
1F
100
AcDbEntity
  8
0
  6
Continuous
 62
     7
370
    15
100
AcDbLine
 10
0.190730864
 20
0.4126092754
 30
0.0
 11
0.1903075868
 21
0.4119721055
 31
0.0
  0
LINE
  5
29B
330
1F
100
AcDbEntity
  8
0
  6
Continuous
 62
     7
370
    15
100
AcDbLine
 10
0.191182928
 20
0.4132402688
 30
0.0
 11
0.190730864
 21
0.4126092754
 31
0.0
  0
LINE
  5
29C
330
1F
100
AcDbEntity
  8
0
  6
Continuous
 62
     7
370
    15
100
AcDbLine
 10
0.1916628749
 20
0.4138646312
 30
0.0
 11
0.191182928
 21
0.4132402688
 31
0.0
  0
LINE
  5
29D
330
1F
100
AcDbEntity
  8
0
  6
Continuous
 62
     7
370
    15
100
AcDbLine
 10
0.1921698869
 20
0.4144819043
 30
0.0
 11
0.1916628749
 21
0.4138646312
 31
0.0
  0
LINE
  5
29E
330
1F
100
AcDbEntity
  8
0
  6
Continuous
 62
     7
370
    15
100
AcDbLine
 10
0.1929874279
 20
0.414359197
 30
0.0
 11
0.1921698869
 21
0.4144819043
 31
0.0
  0
LINE
  5
29F
330
1F
100
AcDbEntity
  8
0
  6
Continuous
 62
     7
370
    15
100
AcDbLine
 10
0.1938027394
 20
0.4142225981
 30
0.0
 11
0.1929874279
 21
0.414359197
 31
0.0
  0
LINE
  5
2A0
330
1F
100
AcDbEntity
  8
0
  6
Continuous
 62
     7
370
    15
100
AcDbLine
 10
0.1946156247
 20
0.4140721187
 30
0.0
 11
0.1938027394
 21
0.4142225981
 31
0.0
  0
LINE
  5
2A1
330
1F
100
AcDbEntity
  8
0
  6
Continuous
 62
     7
370
    15
100
AcDbLine
 10
0.1954257999
 20
0.413907811
 30
0.0
 11
0.1946156247
 21
0.4140721187
 31
0.0
  0
LINE
  5
2A2
330
1F
100
AcDbEntity
  8
0
  6
Continuous
 62
     7
370
    15
100
AcDbLine
 10
0.1956911169
 20
0.4131543338
 30
0.0
 11
0.1954257999
 21
0.413907811
 31
0.0
  0
LINE
  5
2A3
330
1F
100
AcDbEntity
  8
0
  6
Continuous
 62
     7
370
    15
100
AcDbLine
 10
0.1959285791
 20
0.4124034792
 30
0.0
 11
0.1956911169
 21
0.4131543338
 31
0.0
  0
LINE
  5
2A4
330
1F
100
AcDbEntity
  8
0
  6
Continuous
 62
     7
370
    15
100
AcDbLine
 10
0.196137593
 20
0.4116559028
 30
0.0
 11
0.1959285791
 21
0.4124034792
 31
0.0
  0
LINE
  5
2A5
330
1F
100
AcDbEntity
  8
0
  6
Continuous
 62
     7
370
    15
100
AcDbLine
 10
0.196317396
 20
0.4109124169
 30
0.0
 11
0.196137593
 21
0.4116559028
 31
0.0
  0
LINE
  5
2A6
330
1F
100
AcDbEntity
  8
0
  6
Continuous
 62
     7
370
    15
100
AcDbLine
 10
0.1964670586
 20
0.4101737551
 30
0.0
 11
0.196317396
 21
0.4109124169
 31
0.0
  0
LINE
  5
2A7
330
1F
100
AcDbEntity
  8
0
  6
Continuous
 62
     7
370
    15
100
AcDbLine
 10
0.1965852816
 20
0.4094408527
 30
0.0
 11
0.1964670586
 21
0.4101737551
 31
0.0
  0
LINE
  5
2A8
330
1F
100
AcDbEntity
  8
0
  6
Continuous
 62
     7
370
    15
100
AcDbLine
 10
0.1966703719
 20
0.4087147526
 30
0.0
 11
0.1965852816
 21
0.4094408527
 31
0.0
  0
LINE
  5
2A9
330
1F
100
AcDbEntity
  8
0
  6
Continuous
 62
     7
370
    15
100
AcDbLine
 10
0.1967197888
 20
0.4079966657
 30
0.0
 11
0.1966703719
 21
0.4087147526
 31
0.0
  0
LINE
  5
2AA
330
1F
100
AcDbEntity
  8
0
  6
Continuous
 62
     7
370
    15
100
AcDbLine
 10
0.1967295817
 20
0.407288257
 30
0.0
 11
0.1967197888
 21
0.4079966657
 31
0.0
  0
LINE
  5
2AB
330
1F
100
AcDbEntity
  8
0
  6
Continuous
 62
     7
370
    15
100
AcDbLine
 10
0.1966924983
 20
0.4065921306
 30
0.0
 11
0.1967295817
 21
0.407288257
 31
0.0
  0
LINE
  5
2AC
330
1F
100
AcDbEntity
  8
0
  6
Continuous
 62
     7
370
    15
100
AcDbLine
 10
0.1965868621
 20
0.405914966
 30
0.0
 11
0.1966924983
 21
0.4065921306
 31
0.0
  0
LINE
  5
2AD
330
1F
100
AcDbEntity
  8
0
  6
Continuous
 62
     7
370
    15
100
AcDbLine
 10
0.1959809026
 20
0.4037812799
 30
0.0
 11
0.1965868621
 21
0.405914966
 31
0.0
  0
LINE
  5
2AE
330
1F
100
AcDbEntity
  8
0
  6
Continuous
 62
     7
370
    15
100
AcDbLine
 10
0.1973243941
 20
0.4033733271
 30
0.0
 11
0.1959809026
 21
0.4037812799
 31
0.0
  0
LINE
  5
2AF
330
1F
100
AcDbEntity
  8
0
  6
Continuous
 62
     7
370
    15
100
AcDbLine
 10
0.1986522207
 20
0.402917061
 30
0.0
 11
0.1973243941
 21
0.4033733271
 31
0.0
  0
LINE
  5
2B0
330
1F
100
AcDbEntity
  8
0
  6
Continuous
 62
     7
370
    15
100
AcDbLine
 10
0.1999627201
 20
0.4024130665
 30
0.0
 11
0.1986522207
 21
0.402917061
 31
0.0
  0
LINE
  5
2B1
330
1F
100
AcDbEntity
  8
0
  6
Continuous
 62
     7
370
    15
100
AcDbLine
 10
0.1993602327
 20
0.3989961967
 30
0.0
 11
0.1999627201
 21
0.4024130665
 31
0.0
  0
ARC
  5
2B2
330
1F
100
AcDbEntity
  8
0
  6
Continuous
 62
     7
370
    15
100
AcDbCircle
 10
0.2168701149
 20
0.3959087313
 30
0.0
 40
0.01778
100
AcDbArc
 50
169.9999986613
 51
259.9999986613
  0
ARC
  5
2B3
330
1F
100
AcDbEntity
  8
0
  6
Continuous
 62
     7
370
    15
100
AcDbCircle
 10
0.4721976845
 20
0.3870861987
 30
0.0
 40
0.06096
100
AcDbArc
 50
0.0
 51
71.3706694253
  0
CIRCLE
  5
2B4
330
1F
100
AcDbEntity
  8
0
  6
Continuous
 62
     7
370
    15
100
AcDbCircle
 10
0.4934997875
 20
0.4333827731
 30
0.0
 40
0.0033
  0
CIRCLE
  5
2B5
330
1F
100
AcDbEntity
  8
0
  6
Continuous
 62
     7
370
    15
100
AcDbCircle
 10
0.4721976845
 20
0.3870861987
 30
0.0
 40
0.0033
  0
ARC
  5
2B6
330
1F
100
AcDbEntity
  8
0
  6
Continuous
 62
     7
370
    15
100
AcDbCircle
 10
0.5143200086
 20
0.3291097935
 30
0.0
 40
0.06096
100
AcDbArc
 50
72.0
 51
126.0
  0
ARC
  5
2B7
330
1F
100
AcDbEntity
  8
0
  6
Continuous
 62
     7
370
    15
100
AcDbCircle
 10
0.4721976845
 20
0.3870861987
 30
0.0
 40
0.0107027779594978
100
AcDbArc
 50
199.8460539435
 51
306.0
  0
ARC
  5
2B8
330
1F
100
AcDbEntity
  8
0
  6
Continuous
 62
     7
370
    15
100
AcDbCircle
 10
0.5331576845
 20
0.3870861987
 30
0.0
 40
0.07112
100
AcDbArc
 50
125.6853347127
 51
182.9285235755
  0
ARC
  5
2B9
330
1F
100
AcDbEntity
  8
0
  6
Continuous
 62
     7
370
    15
100
AcDbCircle
 10
0.2687394028
 20
0.3854695493
 30
0.0
 40
0.06096
100
AcDbArc
 50
0.0
 51
71.3706694253
  0
CIRCLE
  5
2BA
330
1F
100
AcDbEntity
  8
0
  6
Continuous
 62
     7
370
    15
100
AcDbCircle
 10
0.2900415058
 20
0.4317661236
 30
0.0
 40
0.0033
  0
CIRCLE
  5
2BB
330
1F
100
AcDbEntity
  8
0
  6
Continuous
 62
     7
370
    15
100
AcDbCircle
 10
0.2687394028
 20
0.3854695493
 30
0.0
 40
0.0033
  0
ARC
  5
2BC
330
1F
100
AcDbEntity
  8
0
  6
Continuous
 62
     7
370
    15
100
AcDbCircle
 10
0.3108617268
 20
0.327493144
 30
0.0
 40
0.06096
100
AcDbArc
 50
72.0
 51
126.0
  0
ARC
  5
2BD
330
1F
100
AcDbEntity
  8
0
  6
Continuous
 62
     7
370
    15
100
AcDbCircle
 10
0.2687394028
 20
0.3854695493
 30
0.0
 40
0.0107027779594978
100
AcDbArc
 50
199.8460539435
 51
306.0
  0
ARC
  5
2BE
330
1F
100
AcDbEntity
  8
0
  6
Continuous
 62
     7
370
    15
100
AcDbCircle
 10
0.3296994028
 20
0.3854695493
 30
0.0
 40
0.07112
100
AcDbArc
 50
125.6853347127
 51
182.9285235755
  0
ARC
  5
2BF
330
1F
100
AcDbEntity
  8
0
  6
Continuous
 62
     7
370
    15
100
AcDbCircle
 10
0.3879940448
 20
0.3247248097
 30
0.0
 40
0.06096
100
AcDbArc
 50
0.0
 51
71.3706694253
  0
CIRCLE
  5
2C0
330
1F
100
AcDbEntity
  8
0
  6
Continuous
 62
     7
370
    15
100
AcDbCircle
 10
0.4092961477
 20
0.371021384
 30
0.0
 40
0.0033
  0
CIRCLE
  5
2C1
330
1F
100
AcDbEntity
  8
0
  6
Continuous
 62
     7
370
    15
100
AcDbCircle
 10
0.3879940448
 20
0.3247248097
 30
0.0
 40
0.0033
  0
ARC
  5
2C2
330
1F
100
AcDbEntity
  8
0
  6
Continuous
 62
     7
370
    15
100
AcDbCircle
 10
0.4301163688
 20
0.2667484045
 30
0.0
 40
0.06096
100
AcDbArc
 50
72.0
 51
126.0
  0
ARC
  5
2C3
330
1F
100
AcDbEntity
  8
0
  6
Continuous
 62
     7
370
    15
100
AcDbCircle
 10
0.3879940448
 20
0.3247248097
 30
0.0
 40
0.0107027779594978
100
AcDbArc
 50
199.8460539435
 51
306.0
  0
ARC
  5
2C4
330
1F
100
AcDbEntity
  8
0
  6
Continuous
 62
     7
370
    15
100
AcDbCircle
 10
0.4489540448
 20
0.3247248097
 30
0.0
 40
0.07112
100
AcDbArc
 50
125.6853347127
 51
182.9285235755
  0
ARC
  5
2C5
330
1F
100
AcDbEntity
  8
0
  6
Continuous
 62
     7
370
    15
100
AcDbCircle
 10
0.4448694564
 20
0.2801572983
 30
0.0
 40
0.06096
100
AcDbArc
 50
0.0
 51
71.3706694253
  0
CIRCLE
  5
2C6
330
1F
100
AcDbEntity
  8
0
  6
Continuous
 62
     7
370
    15
100
AcDbCircle
 10
0.4661715593
 20
0.3264538727
 30
0.0
 40
0.0033
  0
CIRCLE
  5
2C7
330
1F
100
AcDbEntity
  8
0
  6
Continuous
 62
     7
370
    15
100
AcDbCircle
 10
0.4448694564
 20
0.2801572983
 30
0.0
 40
0.0033
  0
ARC
  5
2C8
330
1F
100
AcDbEntity
  8
0
  6
Continuous
 62
     7
370
    15
100
AcDbCircle
 10
0.4869917804
 20
0.2221808931
 30
0.0
 40
0.0609600000000001
100
AcDbArc
 50
72.0
 51
126.0
  0
ARC
  5
2C9
330
1F
100
AcDbEntity
  8
0
  6
Continuous
 62
     7
370
    15
100
AcDbCircle
 10
0.4448694564
 20
0.2801572983
 30
0.0
 40
0.0107027779594978
100
AcDbArc
 50
199.8460539435
 51
306.0
  0
ARC
  5
2CA
330
1F
100
AcDbEntity
  8
0
  6
Continuous
 62
     7
370
    15
100
AcDbCircle
 10
0.5058294564
 20
0.2801572983
 30
0.0
 40
0.07112
100
AcDbArc
 50
125.6853347127
 51
182.9285235755
  0
CIRCLE
  5
2CB
330
1F
100
AcDbEntity
  8
0
  6
Continuous
 62
     7
370
    15
100
AcDbCircle
 10
0.5404043863
 20
0.3103403343
 30
0.0
 40
0.003265770333359
  0
ARC
  5
2CC
330
1F
100
AcDbEntity
  8
0
  6
Continuous
 62
     7
370
    15
100
AcDbCircle
 10
0.5154150515
 20
0.3698986073
 30
0.0
 40
0.0694818015348254
100
AcDbArc
 50
292.7618442176
 51
8.7183786966
  0
ARC
  5
2CD
330
1F
100
AcDbEntity
  8
0
  6
Continuous
 62
     7
370
    15
100
AcDbCircle
 10
0.5404043863
 20
0.3103403343
 30
0.0
 40
0.0048934532689436
100
AcDbArc
 50
112.7618442176
 51
292.7618442176
  0
ARC
  5
2CE
330
1F
100
AcDbEntity
  8
0
  6
Continuous
 62
     7
370
    15
100
AcDbCircle
 10
0.5154150515
 20
0.3698986073
 30
0.0
 40
0.0596948949969383
100
AcDbArc
 50
292.7618442176
 51
8.7183786966
  0
CIRCLE
  5
2CF
330
1F
100
AcDbEntity
  8
0
  6
Continuous
 62
     7
370
    15
100
AcDbCircle
 10
0.5792571019
 20
0.3796887729
 30
0.0
 40
0.0026718887064278
  0
ARC
  5
2D0
330
1F
100
AcDbEntity
  8
0
  6
Continuous
 62
     7
370
    15
100
AcDbCircle
 10
0.5792571019
 20
0.3796887729
 30
0.0
 40
0.0048934532689436
100
AcDbArc
 50
8.7183786966
 51
188.7183786966
  0
CIRCLE
  5
2D1
330
1F
100
AcDbEntity
  8
0
  6
Continuous
 62
     7
370
    15
100
AcDbCircle
 10
0.4611931521
 20
0.2668882357
 30
0.0
 40
0.003265770333359
  0
ARC
  5
2D2
330
1F
100
AcDbEntity
  8
0
  6
Continuous
 62
     7
370
    15
100
AcDbCircle
 10
0.474211808
 20
0.3301509366
 30
0.0
 40
0.0694818015348255
100
AcDbArc
 50
258.3715946721
 51
334.3281291511
  0
ARC
  5
2D3
330
1F
100
AcDbEntity
  8
0
  6
Continuous
 62
     7
370
    15
100
AcDbCircle
 10
0.4611931521
 20
0.2668882357
 30
0.0
 40
0.0048934532689436
100
AcDbArc
 50
78.3715946721
 51
258.3715946721
  0
ARC
  5
2D4
330
1F
100
AcDbEntity
  8
0
  6
Continuous
 62
     7
370
    15
100
AcDbCircle
 10
0.474211808
 20
0.3301509366
 30
0.0
 40
0.0596948949969383
100
AcDbArc
 50
258.3715946721
 51
334.3281291511
  0
CIRCLE
  5
2D5
330
1F
100
AcDbEntity
  8
0
  6
Continuous
 62
     7
370
    15
100
AcDbCircle
 10
0.5324246285
 20
0.3021701887
 30
0.0
 40
0.0026718887064278
  0
ARC
  5
2D6
330
1F
100
AcDbEntity
  8
0
  6
Continuous
 62
     7
370
    15
100
AcDbCircle
 10
0.5324246285
 20
0.3021701887
 30
0.0
 40
0.0048934532689436
100
AcDbArc
 50
334.3281291511
 51
154.3281291511
  0
CIRCLE
  5
2D7
330
1F
100
AcDbEntity
  8
0
  6
Continuous
 62
     7
370
    15
100
AcDbCircle
 10
0.5422866707
 20
0.3457255248
 30
0.0
 40
0.003265770333359
  0
ARC
  5
2D8
330
1F
100
AcDbEntity
  8
0
  6
Continuous
 62
     7
370
    15
100
AcDbCircle
 10
0.5067587658
 20
0.3996645896
 30
0.0
 40
0.0694818015348254
100
AcDbArc
 50
303.3715946721
 51
19.3281291511
  0
ARC
  5
2D9
330
1F
100
AcDbEntity
  8
0
  6
Continuous
 62
     7
370
    15
100
AcDbCircle
 10
0.5422866707
 20
0.3457255248
 30
0.0
 40
0.0048934532689436
100
AcDbArc
 50
123.3715946721
 51
303.3715946721
  0
ARC
  5
2DA
330
1F
100
AcDbEntity
  8
0
  6
Continuous
 62
     7
370
    15
100
AcDbCircle
 10
0.5067587658
 20
0.3996645896
 30
0.0
 40
0.0596948949969383
100
AcDbArc
 50
303.3715946721
 51
19.3281291511
  0
CIRCLE
  5
2DB
330
1F
100
AcDbEntity
  8
0
  6
Continuous
 62
     7
370
    15
100
AcDbCircle
 10
0.5677068225
 20
0.4210418931
 30
0.0
 40
0.0026718887064278
  0
ARC
  5
2DC
330
1F
100
AcDbEntity
  8
0
  6
Continuous
 62
     7
370
    15
100
AcDbCircle
 10
0.5677068225
 20
0.4210418931
 30
0.0
 40
0.0048934532689436
100
AcDbArc
 50
19.3281291511
 51
199.3281291511
  0
CIRCLE
  5
2DD
330
1F
100
AcDbEntity
  8
0
  6
Continuous
 62
     7
370
    15
100
AcDbCircle
 10
0.4028797086
 20
0.4400835031
 30
0.0
 40
0.003265770333359
  0
ARC
  5
2DE
330
1F
100
AcDbEntity
  8
0
  6
Continuous
 62
     7
370
    15
100
AcDbCircle
 10
0.4384076136
 20
0.3861444384
 30
0.0
 40
0.0694818015348255
100
AcDbArc
 50
123.3715946721
 51
199.3281291511
  0
ARC
  5
2DF
330
1F
100
AcDbEntity
  8
0
  6
Continuous
 62
     7
370
    15
100
AcDbCircle
 10
0.4028797086
 20
0.4400835031
 30
0.0
 40
0.0048934532689436
100
AcDbArc
 50
303.3715946721
 51
123.3715946721
  0
ARC
  5
2E0
330
1F
100
AcDbEntity
  8
0
  6
Continuous
 62
     7
370
    15
100
AcDbCircle
 10
0.4384076136
 20
0.3861444384
 30
0.0
 40
0.0596948949969383
100
AcDbArc
 50
123.3715946721
 51
199.3281291511
  0
CIRCLE
  5
2E1
330
1F
100
AcDbEntity
  8
0
  6
Continuous
 62
     7
370
    15
100
AcDbCircle
 10
0.3774595568
 20
0.3647671349
 30
0.0
 40
0.0026718887064277
  0
ARC
  5
2E2
330
1F
100
AcDbEntity
  8
0
  6
Continuous
 62
     7
370
    15
100
AcDbCircle
 10
0.3774595568
 20
0.3647671349
 30
0.0
 40
0.0048934532689436
100
AcDbArc
 50
199.3281291511
 51
19.3281291511
  0
ENDSEC
  0
SECTION
  2
OBJECTS
  0
DICTIONARY
  5
C
330
0
100
AcDbDictionary
281
     1
  3
ACAD_GROUP
350
D
  3
ACAD_LAYOUT
350
1A
  3
ACAD_MLINESTYLE
350
17
  3
ACAD_PLOTSETTINGS
350
19
  3
ACAD_PLOTSTYLENAME
350
E
  0
DICTIONARY
  5
D
102
{ACAD_REACTORS
330
C
102
}
330
C
100
AcDbDictionary
281
     1
  0
DICTIONARY
  5
1A
102
{ACAD_REACTORS
330
C
102
}
330
C
100
AcDbDictionary
281
     1
  3
Layout1
350
1E
  3
Layout2
350
26
  3
Model
350
22
  0
DICTIONARY
  5
17
102
{ACAD_REACTORS
330
C
102
}
330
C
100
AcDbDictionary
281
     1
  3
Standard
350
18
  0
DICTIONARY
  5
19
102
{ACAD_REACTORS
330
C
102
}
330
C
100
AcDbDictionary
281
     1
  0
ACDBDICTIONARYWDFLT
  5
E
102
{ACAD_REACTORS
330
C
102
}
330
C
100
AcDbDictionary
281
     1
  3
Normal
350
F
100
AcDbDictionaryWithDefault
340
F
  0
LAYOUT
  5
1E
102
{ACAD_REACTORS
330
1A
102
}
330
1A
100
AcDbPlotSettings
  1

  2
none_device
  4

  6

 40
0.0
 41
0.0
 42
0.0
 43
0.0
 44
0.0
 45
0.0
 46
0.0
 47
0.0
 48
0.0
 49
0.0
140
0.0
141
0.0
142
1.0
143
1.0
 70
   688
 72
     0
 73
     0
 74
     5
  7

 75
    16
147
1.0
148
0.0
149
0.0
100
AcDbLayout
  1
Layout1
 70
     1
 71
     1
 10
0.0
 20
0.0
 11
420.0
 21
297.0
 12
0.0
 22
0.0
 32
0.0
 14
1.0000000000E+20
 24
1.0000000000E+20
 34
1.0000000000E+20
 15
-1.0000000000E+20
 25
-1.0000000000E+20
 35
-1.0000000000E+20
146
0.0
 13
0.0
 23
0.0
 33
0.0
 16
1.0
 26
0.0
 36
0.0
 17
0.0
 27
1.0
 37
0.0
 76
     0
330
1B
  0
LAYOUT
  5
26
102
{ACAD_REACTORS
330
1A
102
}
330
1A
100
AcDbPlotSettings
  1

  2
none_device
  4

  6

 40
0.0
 41
0.0
 42
0.0
 43
0.0
 44
0.0
 45
0.0
 46
0.0
 47
0.0
 48
0.0
 49
0.0
140
0.0
141
0.0
142
1.0
143
1.0
 70
   688
 72
     0
 73
     0
 74
     5
  7

 75
    16
147
1.0
148
0.0
149
0.0
100
AcDbLayout
  1
Layout2
 70
     1
 71
     2
 10
0.0
 20
0.0
 11
0.0
 21
0.0
 12
0.0
 22
0.0
 32
0.0
 14
0.0
 24
0.0
 34
0.0
 15
0.0
 25
0.0
 35
0.0
146
0.0
 13
0.0
 23
0.0
 33
0.0
 16
1.0
 26
0.0
 36
0.0
 17
0.0
 27
1.0
 37
0.0
 76
     0
330
23
  0
LAYOUT
  5
22
102
{ACAD_REACTORS
330
1A
102
}
330
1A
100
AcDbPlotSettings
  1

  2
none_device
  4

  6

 40
0.0
 41
0.0
 42
0.0
 43
0.0
 44
0.0
 45
0.0
 46
0.0
 47
0.0
 48
0.0
 49
0.0
140
0.0
141
0.0
142
1.0
143
1.0
 70
  1712
 72
     0
 73
     0
 74
     0
  7

 75
     0
147
1.0
148
0.0
149
0.0
100
AcDbLayout
  1
Model
 70
     1
 71
     0
 10
0.0
 20
0.0
 11
1.189
 21
0.841
 12
0.0
 22
0.0
 32
0.0
 14
0.0
 24
0.0
 34
0.0
 15
1.189
 25
0.841
 35
0.0
146
0.0
 13
0.0
 23
0.0
 33
0.0
 16
1.0
 26
0.0
 36
0.0
 17
0.0
 27
1.0
 37
0.0
 76
     0
330
1F
331
29
  0
MLINESTYLE
  5
18
102
{ACAD_REACTORS
330
17
102
}
330
17
100
AcDbMlineStyle
  2
Standard
 70
     0
  3

 62
   256
 51
90.0
 52
90.0
 71
     2
 49
0.5
 62
   256
  6
BYLAYER
 49
-0.5
 62
   256
  6
BYLAYER
  0
ACDBPLACEHOLDER
  5
F
102
{ACAD_REACTORS
330
E
102
}
330
E
  0
ENDSEC
  0
EOF
