  0
SECTION
  2
HEADER
  9
$ACADVER
  1
AC1014
  9
$HANDSEED
  5
FFFF
  9
$MEASUREMENT
 70
     1
  0
ENDSEC
  0
SECTION
  2
TABLES
  0
TABLE
  2
VPORT
  5
8
330
0
100
AcDbSymbolTable
 70
     4
  0
VPORT
  5
2E
330
8
100
AcDbSymbolTableRecord
100
AcDbViewportTableRecord
  2
*ACTIVE
 70
     0
 10
0.0
 20
0.0
 11
1.0
 21
1.0
 12
210.0
 22
148.5
 13
0.0
 23
0.0
 14
10.0
 24
10.0
 15
10.0
 25
10.0
 16
0.0
 26
0.0
 36
1.0
 17
0.0
 27
0.0
 37
0.0
 40
341.0
 41
1.24
 42
50.0
 43
0.0
 44
0.0
 50
0.0
 51
0.0
 71
     0
 72
   100
 73
     1
 74
     3
 75
     0
 76
     0
 77
     0
 78
     0
  0
ENDTAB
  0
TABLE
  2
LTYPE
  5
5
330
0
100
AcDbSymbolTable
 70
     1
  0
LTYPE
  5
14
330
5
100
AcDbSymbolTableRecord
100
AcDbLinetypeTableRecord
  2
BYBLOCK
 70
     0
  3

 72
    65
 73
     0
 40
0.0
  0
LTYPE
  5
15
330
5
100
AcDbSymbolTableRecord
100
AcDbLinetypeTableRecord
  2
BYLAYER
 70
     0
  3

 72
    65
 73
     0
 40
0.0
  0
LTYPE
  5
16
330
5
100
AcDbSymbolTableRecord
100
AcDbLinetypeTableRecord
  2
CONTINUOUS
 70
     0
  3
Solid line
 72
    65
 73
     0
 40
0.0
  0
ENDTAB
  0
TABLE
  2
LAYER
  5
2
100
AcDbSymbolTable
 70
2
  0
LAYER
  5
50
100
AcDbSymbolTableRecord
100
AcDbLayerTableRecord
  2
0
 70
0
  6
CONTINUOUS
  0
LAYER
  5
51
100
AcDbSymbolTableRecord
100
AcDbLayerTableRecord
  2
Layer_1
 70
0
  6
CONTINUOUS
  0
ENDTAB
  0
TABLE
  2
STYLE
  5
3
330
0
100
AcDbSymbolTable
 70
     1
  0
STYLE
  5
11
330
3
100
AcDbSymbolTableRecord
100
AcDbTextStyleTableRecord
  2
STANDARD
 70
     0
 40
0.0
 41
1.0
 50
0.0
 71
     0
 42
2.5
  3
txt
  4

  0
ENDTAB
  0
TABLE
  2
VIEW
  5
6
330
0
100
AcDbSymbolTable
 70
     0
  0
ENDTAB
  0
TABLE
  2
UCS
  5
7
330
0
100
AcDbSymbolTable
 70
     0
  0
ENDTAB
  0
TABLE
  2
APPID
  5
9
330
0
100
AcDbSymbolTable
 70
     2
  0
APPID
  5
12
330
9
100
AcDbSymbolTableRecord
100
AcDbRegAppTableRecord
  2
ACAD
 70
     0
  0
ENDTAB
  0
TABLE
  2
DIMSTYLE
  5
A
330
0
100
AcDbSymbolTable
 70
     1
  0
DIMSTYLE
105
27
330
A
100
AcDbSymbolTableRecord
100
AcDbDimStyleTableRecord
  2
ISO-25
 70
     0
  3

  4

  5

  6

  7

 40
1.0
 41
2.5
 42
0.625
 43
3.75
 44
1.25
 45
0.0
 46
0.0
 47
0.0
 48
0.0
140
2.5
141
2.5
142
0.0
143
0.03937007874016
144
1.0
145
0.0
146
1.0
147
0.625
 71
     0
 72
     0
 73
     0
 74
     0
 75
     0
 76
     0
 77
     1
 78
     8
170
     0
171
     3
172
     1
173
     0
174
     0
175
     0
176
     0
177
     0
178
     0
270
     2
271
     2
272
     2
273
     2
274
     3
340
11
275
     0
280
     0
281
     0
282
     0
283
     0
284
     8
285
     0
286
     0
287
     3
288
     0
  0
ENDTAB
  0
TABLE
  2
BLOCK_RECORD
  5
1
330
0
100
AcDbSymbolTable
 70
     1
  0
BLOCK_RECORD
  5
1F
330
1
100
AcDbSymbolTableRecord
100
AcDbBlockTableRecord
  2
*MODEL_SPACE
  0
BLOCK_RECORD
  5
1B
330
1
100
AcDbSymbolTableRecord
100
AcDbBlockTableRecord
  2
*PAPER_SPACE
  0
ENDTAB
  0
ENDSEC
  0
SECTION
  2
BLOCKS
  0
BLOCK
  5
20
330
1F
100
AcDbEntity
  8
0
100
AcDbBlockBegin
  2
*MODEL_SPACE
 70
     0
 10
0.0
 20
0.0
 30
0.0
  3
*MODEL_SPACE
  1

  0
ENDBLK
  5
21
330
1F
100
AcDbEntity
  8
0
100
AcDbBlockEnd
  0
BLOCK
  5
1C
330
1B
100
AcDbEntity
 67
     1
  8
0
100
AcDbBlockBegin
  2
*PAPER_SPACE
  1

  0
ENDBLK
  5
1D
330
1B
100
AcDbEntity
 67
     1
  8
0
100
AcDbBlockEnd
  0
ENDSEC
  0
SECTION
  2
ENTITIES
  0
LINE
  5
100
100
AcDbEntity
  8
Layer_1
 62
7
100
AcDbLine
 10
246.419596
 20
151.897278
 30
0.0
 11
248.376976
 21
151.442025
 31
0.0
  0
LINE
  5
101
100
AcDbEntity
  8
Layer_1
 62
7
100
AcDbLine
 10
248.376976
 20
151.442025
 30
0.0
 11
250.335514
 21
150.881334
 31
0.0
  0
LINE
  5
102
100
AcDbEntity
  8
Layer_1
 62
7
100
AcDbLine
 10
250.335514
 20
150.881334
 30
0.0
 11
252.293713
 21
150.226409
 31
0.0
  0
LINE
  5
103
100
AcDbEntity
  8
Layer_1
 62
7
100
AcDbLine
 10
252.293713
 20
150.226409
 30
0.0
 11
254.250162
 21
149.484616
 31
0.0
  0
LINE
  5
104
100
AcDbEntity
  8
Layer_1
 62
7
100
AcDbLine
 10
254.250162
 20
149.484616
 30
0.0
 11
256.203591
 21
148.661148
 31
0.0
  0
LINE
  5
105
100
AcDbEntity
  8
Layer_1
 62
7
100
AcDbLine
 10
256.203591
 20
148.661148
 30
0.0
 11
256.215670
 21
146.755556
 31
0.0
  0
LINE
  5
106
100
AcDbEntity
  8
Layer_1
 62
7
100
AcDbLine
 10
256.215670
 20
146.755556
 30
0.0
 11
256.203591
 21
144.849963
 31
0.0
  0
LINE
  5
107
100
AcDbEntity
  8
Layer_1
 62
7
100
AcDbLine
 10
256.203591
 20
144.849963
 30
0.0
 11
254.250162
 21
144.026495
 31
0.0
  0
LINE
  5
108
100
AcDbEntity
  8
Layer_1
 62
7
100
AcDbLine
 10
254.250162
 20
144.026495
 30
0.0
 11
252.293713
 21
143.284702
 31
0.0
  0
LINE
  5
109
100
AcDbEntity
  8
Layer_1
 62
7
100
AcDbLine
 10
252.293713
 20
143.284702
 30
0.0
 11
250.335514
 21
142.629777
 31
0.0
  0
LINE
  5
10a
100
AcDbEntity
  8
Layer_1
 62
7
100
AcDbLine
 10
250.335514
 20
142.629777
 30
0.0
 11
248.376976
 21
142.069086
 31
0.0
  0
LINE
  5
10b
100
AcDbEntity
  8
Layer_1
 62
7
100
AcDbLine
 10
248.376976
 20
142.069086
 30
0.0
 11
246.419596
 21
141.613834
 31
0.0
  0
LINE
  5
10c
100
AcDbEntity
  8
Layer_1
 62
7
100
AcDbLine
 10
246.419596
 20
141.613834
 30
0.0
 11
246.320790
 21
139.392914
 31
0.0
  0
LINE
  5
10d
100
AcDbEntity
  8
Layer_1
 62
7
100
AcDbLine
 10
246.320790
 20
139.392914
 30
0.0
 11
246.186904
 21
137.173857
 31
0.0
  0
LINE
  5
10e
100
AcDbEntity
  8
Layer_1
 62
7
100
AcDbLine
 10
246.186904
 20
137.173857
 30
0.0
 11
248.085977
 21
136.516505
 31
0.0
  0
LINE
  5
10f
100
AcDbEntity
  8
Layer_1
 62
7
100
AcDbLine
 10
248.085977
 20
136.516505
 30
0.0
 11
249.975172
 21
135.754138
 31
0.0
  0
LINE
  5
110
100
AcDbEntity
  8
Layer_1
 62
7
100
AcDbLine
 10
249.975172
 20
135.754138
 30
0.0
 11
251.854180
 21
134.898102
 31
0.0
  0
LINE
  5
111
100
AcDbEntity
  8
Layer_1
 62
7
100
AcDbLine
 10
251.854180
 20
134.898102
 30
0.0
 11
253.722378
 21
133.955875
 31
0.0
  0
LINE
  5
112
100
AcDbEntity
  8
Layer_1
 62
7
100
AcDbLine
 10
253.722378
 20
133.955875
 30
0.0
 11
255.579033
 21
132.932734
 31
0.0
  0
LINE
  5
113
100
AcDbEntity
  8
Layer_1
 62
7
100
AcDbLine
 10
255.579033
 20
132.932734
 30
0.0
 11
255.391864
 21
131.036314
 31
0.0
  0
LINE
  5
114
100
AcDbEntity
  8
Layer_1
 62
7
100
AcDbLine
 10
255.391864
 20
131.036314
 30
0.0
 11
255.180648
 21
129.142434
 31
0.0
  0
LINE
  5
115
100
AcDbEntity
  8
Layer_1
 62
7
100
AcDbLine
 10
255.180648
 20
129.142434
 30
0.0
 11
253.151838
 21
128.527669
 31
0.0
  0
LINE
  5
116
100
AcDbEntity
  8
Layer_1
 62
7
100
AcDbLine
 10
253.151838
 20
128.527669
 30
0.0
 11
251.128586
 21
127.994438
 31
0.0
  0
LINE
  5
117
100
AcDbEntity
  8
Layer_1
 62
7
100
AcDbLine
 10
251.128586
 20
127.994438
 30
0.0
 11
249.112673
 21
127.547793
 31
0.0
  0
LINE
  5
118
100
AcDbEntity
  8
Layer_1
 62
7
100
AcDbLine
 10
249.112673
 20
127.547793
 30
0.0
 11
247.106242
 21
127.194874
 31
0.0
  0
LINE
  5
119
100
AcDbEntity
  8
Layer_1
 62
7
100
AcDbLine
 10
247.106242
 20
127.194874
 30
0.0
 11
245.111976
 21
126.946745
 31
0.0
  0
LINE
  5
11a
100
AcDbEntity
  8
Layer_1
 62
7
100
AcDbLine
 10
245.111976
 20
126.946745
 30
0.0
 11
244.781578
 21
124.748318
 31
0.0
  0
LINE
  5
11b
100
AcDbEntity
  8
Layer_1
 62
7
100
AcDbLine
 10
244.781578
 20
124.748318
 30
0.0
 11
244.416467
 21
122.555395
 31
0.0
  0
LINE
  5
11c
100
AcDbEntity
  8
Layer_1
 62
7
100
AcDbLine
 10
244.416467
 20
122.555395
 30
0.0
 11
246.236434
 21
121.703140
 31
0.0
  0
LINE
  5
11d
100
AcDbEntity
  8
Layer_1
 62
7
100
AcDbLine
 10
246.236434
 20
121.703140
 30
0.0
 11
248.035600
 21
120.747480
 31
0.0
  0
LINE
  5
11e
100
AcDbEntity
  8
Layer_1
 62
7
100
AcDbLine
 10
248.035600
 20
120.747480
 30
0.0
 11
249.814814
 21
119.699730
 31
0.0
  0
LINE
  5
11f
100
AcDbEntity
  8
Layer_1
 62
7
100
AcDbLine
 10
249.814814
 20
119.699730
 30
0.0
 11
251.574300
 21
118.567369
 31
0.0
  0
LINE
  5
120
100
AcDbEntity
  8
Layer_1
 62
7
100
AcDbLine
 10
251.574300
 20
118.567369
 30
0.0
 11
253.313833
 21
117.355761
 31
0.0
  0
LINE
  5
121
100
AcDbEntity
  8
Layer_1
 62
7
100
AcDbLine
 10
253.313833
 20
117.355761
 30
0.0
 11
252.929446
 21
115.489313
 31
0.0
  0
LINE
  5
122
100
AcDbEntity
  8
Layer_1
 62
7
100
AcDbLine
 10
252.929446
 20
115.489313
 30
0.0
 11
252.521438
 21
113.627888
 31
0.0
  0
LINE
  5
123
100
AcDbEntity
  8
Layer_1
 62
7
100
AcDbLine
 10
252.521438
 20
113.627888
 30
0.0
 11
250.439484
 21
113.228543
 31
0.0
  0
LINE
  5
124
100
AcDbEntity
  8
Layer_1
 62
7
100
AcDbLine
 10
250.439484
 20
113.228543
 30
0.0
 11
248.371558
 21
112.909717
 31
0.0
  0
LINE
  5
125
100
AcDbEntity
  8
Layer_1
 62
7
100
AcDbLine
 10
248.371558
 20
112.909717
 30
0.0
 11
246.320000
 21
112.676234
 31
0.0
  0
LINE
  5
126
100
AcDbEntity
  8
Layer_1
 62
7
100
AcDbLine
 10
246.320000
 20
112.676234
 30
0.0
 11
244.287689
 21
112.534982
 31
0.0
  0
LINE
  5
127
100
AcDbEntity
  8
Layer_1
 62
7
100
AcDbLine
 10
244.287689
 20
112.534982
 30
0.0
 11
242.278408
 21
112.496656
 31
0.0
  0
LINE
  5
128
100
AcDbEntity
  8
Layer_1
 62
7
100
AcDbLine
 10
242.278408
 20
112.496656
 30
0.0
 11
241.720003
 21
110.344825
 31
0.0
  0
LINE
  5
129
100
AcDbEntity
  8
Layer_1
 62
7
100
AcDbLine
 10
241.720003
 20
110.344825
 30
0.0
 11
241.127675
 21
108.202081
 31
0.0
  0
LINE
  5
12a
100
AcDbEntity
  8
Layer_1
 62
7
100
AcDbLine
 10
241.127675
 20
108.202081
 30
0.0
 11
242.848582
 21
107.164265
 31
0.0
  0
LINE
  5
12b
100
AcDbEntity
  8
Layer_1
 62
7
100
AcDbLine
 10
242.848582
 20
107.164265
 30
0.0
 11
244.538020
 21
106.025752
 31
0.0
  0
LINE
  5
12c
100
AcDbEntity
  8
Layer_1
 62
7
100
AcDbLine
 10
244.538020
 20
106.025752
 30
0.0
 11
246.197967
 21
104.797775
 31
0.0
  0
LINE
  5
12d
100
AcDbEntity
  8
Layer_1
 62
7
100
AcDbLine
 10
246.197967
 20
104.797775
 30
0.0
 11
247.829437
 21
103.487728
 31
0.0
  0
LINE
  5
12e
100
AcDbEntity
  8
Layer_1
 62
7
100
AcDbLine
 10
247.829437
 20
103.487728
 30
0.0
 11
249.432798
 21
102.100916
 31
0.0
  0
LINE
  5
12f
100
AcDbEntity
  8
Layer_1
 62
7
100
AcDbLine
 10
249.432798
 20
102.100916
 30
0.0
 11
248.855428
 21
100.284873
 31
0.0
  0
LINE
  5
130
100
AcDbEntity
  8
Layer_1
 62
7
100
AcDbLine
 10
248.855428
 20
100.284873
 30
0.0
 11
248.255084
 21
98.476280
 31
0.0
  0
LINE
  5
131
100
AcDbEntity
  8
Layer_1
 62
7
100
AcDbLine
 10
248.255084
 20
98.476280
 30
0.0
 11
246.142792
 21
98.296758
 31
0.0
  0
LINE
  5
132
100
AcDbEntity
  8
Layer_1
 62
7
100
AcDbLine
 10
246.142792
 20
98.296758
 30
0.0
 11
244.052880
 21
98.195836
 31
0.0
  0
LINE
  5
133
100
AcDbEntity
  8
Layer_1
 62
7
100
AcDbLine
 10
244.052880
 20
98.195836
 30
0.0
 11
241.988142
 21
98.178084
 31
0.0
  0
LINE
  5
134
100
AcDbEntity
  8
Layer_1
 62
7
100
AcDbLine
 10
241.988142
 20
98.178084
 30
0.0
 11
239.952191
 21
98.250050
 31
0.0
  0
LINE
  5
135
100
AcDbEntity
  8
Layer_1
 62
7
100
AcDbLine
 10
239.952191
 20
98.250050
 30
0.0
 11
237.949909
 21
98.421952
 31
0.0
  0
LINE
  5
136
100
AcDbEntity
  8
Layer_1
 62
7
100
AcDbLine
 10
237.949909
 20
98.421952
 30
0.0
 11
237.169650
 21
96.340253
 31
0.0
  0
LINE
  5
137
100
AcDbEntity
  8
Layer_1
 62
7
100
AcDbLine
 10
237.169650
 20
96.340253
 30
0.0
 11
236.356596
 21
94.271169
 31
0.0
  0
LINE
  5
138
100
AcDbEntity
  8
Layer_1
 62
7
100
AcDbLine
 10
236.356596
 20
94.271169
 30
0.0
 11
237.959590
 21
93.059137
 31
0.0
  0
LINE
  5
139
100
AcDbEntity
  8
Layer_1
 62
7
100
AcDbLine
 10
237.959590
 20
93.059137
 30
0.0
 11
239.520758
 21
91.750303
 31
0.0
  0
LINE
  5
13a
100
AcDbEntity
  8
Layer_1
 62
7
100
AcDbLine
 10
239.520758
 20
91.750303
 30
0.0
 11
241.043262
 21
90.355533
 31
0.0
  0
LINE
  5
13b
100
AcDbEntity
  8
Layer_1
 62
7
100
AcDbLine
 10
241.043262
 20
90.355533
 30
0.0
 11
242.528852
 21
88.882107
 31
0.0
  0
LINE
  5
13c
100
AcDbEntity
  8
Layer_1
 62
7
100
AcDbLine
 10
242.528852
 20
88.882107
 30
0.0
 11
243.978458
 21
87.335304
 31
0.0
  0
LINE
  5
13d
100
AcDbEntity
  8
Layer_1
 62
7
100
AcDbLine
 10
243.978458
 20
87.335304
 30
0.0
 11
243.214426
 21
85.589562
 31
0.0
  0
LINE
  5
13e
100
AcDbEntity
  8
Layer_1
 62
7
100
AcDbLine
 10
243.214426
 20
85.589562
 30
0.0
 11
242.428324
 21
83.853613
 31
0.0
  0
LINE
  5
13f
100
AcDbEntity
  8
Layer_1
 62
7
100
AcDbLine
 10
242.428324
 20
83.853613
 30
0.0
 11
240.308836
 21
83.895890
 31
0.0
  0
LINE
  5
140
100
AcDbEntity
  8
Layer_1
 62
7
100
AcDbLine
 10
240.308836
 20
83.895890
 30
0.0
 11
238.219827
 21
84.013971
 31
0.0
  0
LINE
  5
141
100
AcDbEntity
  8
Layer_1
 62
7
100
AcDbLine
 10
238.219827
 20
84.013971
 30
0.0
 11
236.164543
 21
84.212148
 31
0.0
  0
LINE
  5
142
100
AcDbEntity
  8
Layer_1
 62
7
100
AcDbLine
 10
236.164543
 20
84.212148
 30
0.0
 11
234.147275
 21
84.496515
 31
0.0
  0
LINE
  5
143
100
AcDbEntity
  8
Layer_1
 62
7
100
AcDbLine
 10
234.147275
 20
84.496515
 30
0.0
 11
232.173921
 21
84.876781
 31
0.0
  0
LINE
  5
144
100
AcDbEntity
  8
Layer_1
 62
7
100
AcDbLine
 10
232.173921
 20
84.876781
 30
0.0
 11
231.180358
 21
82.888074
 31
0.0
  0
LINE
  5
145
100
AcDbEntity
  8
Layer_1
 62
7
100
AcDbLine
 10
231.180358
 20
82.888074
 30
0.0
 11
230.155468
 21
80.915284
 31
0.0
  0
LINE
  5
146
100
AcDbEntity
  8
Layer_1
 62
7
100
AcDbLine
 10
230.155468
 20
80.915284
 30
0.0
 11
231.622995
 21
79.542358
 31
0.0
  0
LINE
  5
147
100
AcDbEntity
  8
Layer_1
 62
7
100
AcDbLine
 10
231.622995
 20
79.542358
 30
0.0
 11
233.038791
 21
78.077483
 31
0.0
  0
LINE
  5
148
100
AcDbEntity
  8
Layer_1
 62
7
100
AcDbLine
 10
233.038791
 20
78.077483
 30
0.0
 11
234.407174
 21
76.531216
 31
0.0
  0
LINE
  5
149
100
AcDbEntity
  8
Layer_1
 62
7
100
AcDbLine
 10
234.407174
 20
76.531216
 30
0.0
 11
235.730598
 21
74.910583
 31
0.0
  0
LINE
  5
14a
100
AcDbEntity
  8
Layer_1
 62
7
100
AcDbLine
 10
235.730598
 20
74.910583
 30
0.0
 11
237.010589
 21
73.220721
 31
0.0
  0
LINE
  5
14b
100
AcDbEntity
  8
Layer_1
 62
7
100
AcDbLine
 10
237.010589
 20
73.220721
 30
0.0
 11
236.068249
 21
71.564387
 31
0.0
  0
LINE
  5
14c
100
AcDbEntity
  8
Layer_1
 62
7
100
AcDbLine
 10
236.068249
 20
71.564387
 30
0.0
 11
235.104996
 21
69.920132
 31
0.0
  0
LINE
  5
14d
100
AcDbEntity
  8
Layer_1
 62
7
100
AcDbLine
 10
235.104996
 20
69.920132
 30
0.0
 11
233.001538
 21
70.183700
 31
0.0
  0
LINE
  5
14e
100
AcDbEntity
  8
Layer_1
 62
7
100
AcDbLine
 10
233.001538
 20
70.183700
 30
0.0
 11
230.936320
 21
70.519516
 31
0.0
  0
LINE
  5
14f
100
AcDbEntity
  8
Layer_1
 62
7
100
AcDbLine
 10
230.936320
 20
70.519516
 30
0.0
 11
228.913013
 21
70.931447
 31
0.0
  0
LINE
  5
150
100
AcDbEntity
  8
Layer_1
 62
7
100
AcDbLine
 10
228.913013
 20
70.931447
 30
0.0
 11
226.936498
 21
71.425110
 31
0.0
  0
LINE
  5
151
100
AcDbEntity
  8
Layer_1
 62
7
100
AcDbLine
 10
226.936498
 20
71.425110
 30
0.0
 11
225.013746
 21
72.009564
 31
0.0
  0
LINE
  5
152
100
AcDbEntity
  8
Layer_1
 62
7
100
AcDbLine
 10
225.013746
 20
72.009564
 30
0.0
 11
223.817716
 21
70.135609
 31
0.0
  0
LINE
  5
153
100
AcDbEntity
  8
Layer_1
 62
7
100
AcDbLine
 10
223.817716
 20
70.135609
 30
0.0
 11
222.592223
 21
68.280760
 31
0.0
  0
LINE
  5
154
100
AcDbEntity
  8
Layer_1
 62
7
100
AcDbLine
 10
222.592223
 20
68.280760
 30
0.0
 11
223.908197
 21
66.761953
 31
0.0
  0
LINE
  5
155
100
AcDbEntity
  8
Layer_1
 62
7
100
AcDbLine
 10
223.908197
 20
66.761953
 30
0.0
 11
225.163126
 21
65.157124
 31
0.0
  0
LINE
  5
156
100
AcDbEntity
  8
Layer_1
 62
7
100
AcDbLine
 10
225.163126
 20
65.157124
 30
0.0
 11
226.362373
 21
63.476293
 31
0.0
  0
LINE
  5
157
100
AcDbEntity
  8
Layer_1
 62
7
100
AcDbLine
 10
226.362373
 20
63.476293
 30
0.0
 11
227.509155
 21
61.726177
 31
0.0
  0
LINE
  5
158
100
AcDbEntity
  8
Layer_1
 62
7
100
AcDbLine
 10
227.509155
 20
61.726177
 30
0.0
 11
228.605503
 21
59.911798
 31
0.0
  0
LINE
  5
159
100
AcDbEntity
  8
Layer_1
 62
7
100
AcDbLine
 10
228.605503
 20
59.911798
 30
0.0
 11
227.495185
 21
58.363048
 31
0.0
  0
LINE
  5
15a
100
AcDbEntity
  8
Layer_1
 62
7
100
AcDbLine
 10
227.495185
 20
58.363048
 30
0.0
 11
226.365336
 21
56.828492
 31
0.0
  0
LINE
  5
15b
100
AcDbEntity
  8
Layer_1
 62
7
100
AcDbLine
 10
226.365336
 20
56.828492
 30
0.0
 11
224.300965
 21
57.310472
 31
0.0
  0
LINE
  5
15c
100
AcDbEntity
  8
Layer_1
 62
7
100
AcDbLine
 10
224.300965
 20
57.310472
 30
0.0
 11
222.282145
 21
57.860325
 31
0.0
  0
LINE
  5
15d
100
AcDbEntity
  8
Layer_1
 62
7
100
AcDbLine
 10
222.282145
 20
57.860325
 30
0.0
 11
220.312996
 21
58.481468
 31
0.0
  0
LINE
  5
15e
100
AcDbEntity
  8
Layer_1
 62
7
100
AcDbLine
 10
220.312996
 20
58.481468
 30
0.0
 11
218.398908
 21
59.179065
 31
0.0
  0
LINE
  5
15f
100
AcDbEntity
  8
Layer_1
 62
7
100
AcDbLine
 10
218.398908
 20
59.179065
 30
0.0
 11
216.547756
 21
59.961300
 31
0.0
  0
LINE
  5
160
100
AcDbEntity
  8
Layer_1
 62
7
100
AcDbLine
 10
216.547756
 20
59.961300
 30
0.0
 11
215.162412
 21
58.222614
 31
0.0
  0
LINE
  5
161
100
AcDbEntity
  8
Layer_1
 62
7
100
AcDbLine
 10
215.162412
 20
58.222614
 30
0.0
 11
213.749749
 21
56.506025
 31
0.0
  0
LINE
  5
162
100
AcDbEntity
  8
Layer_1
 62
7
100
AcDbLine
 10
213.749749
 20
56.506025
 30
0.0
 11
214.899776
 21
54.857989
 31
0.0
  0
LINE
  5
163
100
AcDbEntity
  8
Layer_1
 62
7
100
AcDbLine
 10
214.899776
 20
54.857989
 30
0.0
 11
215.980066
 21
53.130760
 31
0.0
  0
LINE
  5
164
100
AcDbEntity
  8
Layer_1
 62
7
100
AcDbLine
 10
215.980066
 20
53.130760
 30
0.0
 11
216.997054
 21
51.333795
 31
0.0
  0
LINE
  5
165
100
AcDbEntity
  8
Layer_1
 62
7
100
AcDbLine
 10
216.997054
 20
51.333795
 30
0.0
 11
217.954634
 21
49.473414
 31
0.0
  0
LINE
  5
166
100
AcDbEntity
  8
Layer_1
 62
7
100
AcDbLine
 10
217.954634
 20
49.473414
 30
0.0
 11
218.855290
 21
47.554332
 31
0.0
  0
LINE
  5
167
100
AcDbEntity
  8
Layer_1
 62
7
100
AcDbLine
 10
218.855290
 20
47.554332
 30
0.0
 11
217.589185
 21
46.130125
 31
0.0
  0
LINE
  5
168
100
AcDbEntity
  8
Layer_1
 62
7
100
AcDbLine
 10
217.589185
 20
46.130125
 30
0.0
 11
216.305130
 21
44.722090
 31
0.0
  0
LINE
  5
169
100
AcDbEntity
  8
Layer_1
 62
7
100
AcDbLine
 10
216.305130
 20
44.722090
 30
0.0
 11
214.302425
 21
45.417232
 31
0.0
  0
LINE
  5
16a
100
AcDbEntity
  8
Layer_1
 62
7
100
AcDbLine
 10
214.302425
 20
45.417232
 30
0.0
 11
212.352156
 21
46.175083
 31
0.0
  0
LINE
  5
16b
100
AcDbEntity
  8
Layer_1
 62
7
100
AcDbLine
 10
212.352156
 20
46.175083
 30
0.0
 11
210.458699
 21
46.998664
 31
0.0
  0
LINE
  5
16c
100
AcDbEntity
  8
Layer_1
 62
7
100
AcDbLine
 10
210.458699
 20
46.998664
 30
0.0
 11
208.628036
 21
47.892518
 31
0.0
  0
LINE
  5
16d
100
AcDbEntity
  8
Layer_1
 62
7
100
AcDbLine
 10
208.628036
 20
47.892518
 30
0.0
 11
206.868804
 21
48.863956
 31
0.0
  0
LINE
  5
16e
100
AcDbEntity
  8
Layer_1
 62
7
100
AcDbLine
 10
206.868804
 20
48.863956
 30
0.0
 11
205.309301
 21
47.279588
 31
0.0
  0
LINE
  5
16f
100
AcDbEntity
  8
Layer_1
 62
7
100
AcDbLine
 10
205.309301
 20
47.279588
 30
0.0
 11
203.724933
 21
45.720085
 31
0.0
  0
LINE
  5
170
100
AcDbEntity
  8
Layer_1
 62
7
100
AcDbLine
 10
203.724933
 20
45.720085
 30
0.0
 11
204.696370
 21
43.960852
 31
0.0
  0
LINE
  5
171
100
AcDbEntity
  8
Layer_1
 62
7
100
AcDbLine
 10
204.696370
 20
43.960852
 30
0.0
 11
205.590225
 21
42.130190
 31
0.0
  0
LINE
  5
172
100
AcDbEntity
  8
Layer_1
 62
7
100
AcDbLine
 10
205.590225
 20
42.130190
 30
0.0
 11
206.413806
 21
40.236733
 31
0.0
  0
LINE
  5
173
100
AcDbEntity
  8
Layer_1
 62
7
100
AcDbLine
 10
206.413806
 20
40.236733
 30
0.0
 11
207.171657
 21
38.286464
 31
0.0
  0
LINE
  5
174
100
AcDbEntity
  8
Layer_1
 62
7
100
AcDbLine
 10
207.171657
 20
38.286464
 30
0.0
 11
207.866798
 21
36.283759
 31
0.0
  0
LINE
  5
175
100
AcDbEntity
  8
Layer_1
 62
7
100
AcDbLine
 10
207.866798
 20
36.283759
 30
0.0
 11
206.458764
 21
34.999704
 31
0.0
  0
LINE
  5
176
100
AcDbEntity
  8
Layer_1
 62
7
100
AcDbLine
 10
206.458764
 20
34.999704
 30
0.0
 11
205.034557
 21
33.733599
 31
0.0
  0
LINE
  5
177
100
AcDbEntity
  8
Layer_1
 62
7
100
AcDbLine
 10
205.034557
 20
33.733599
 30
0.0
 11
203.115474
 21
34.634255
 31
0.0
  0
LINE
  5
178
100
AcDbEntity
  8
Layer_1
 62
7
100
AcDbLine
 10
203.115474
 20
34.634255
 30
0.0
 11
201.255094
 21
35.591835
 31
0.0
  0
LINE
  5
179
100
AcDbEntity
  8
Layer_1
 62
7
100
AcDbLine
 10
201.255094
 20
35.591835
 30
0.0
 11
199.458128
 21
36.608822
 31
0.0
  0
LINE
  5
17a
100
AcDbEntity
  8
Layer_1
 62
7
100
AcDbLine
 10
199.458128
 20
36.608822
 30
0.0
 11
197.730900
 21
37.689113
 31
0.0
  0
LINE
  5
17b
100
AcDbEntity
  8
Layer_1
 62
7
100
AcDbLine
 10
197.730900
 20
37.689113
 30
0.0
 11
196.082864
 21
38.839140
 31
0.0
  0
LINE
  5
17c
100
AcDbEntity
  8
Layer_1
 62
7
100
AcDbLine
 10
196.082864
 20
38.839140
 30
0.0
 11
194.366275
 21
37.426477
 31
0.0
  0
LINE
  5
17d
100
AcDbEntity
  8
Layer_1
 62
7
100
AcDbLine
 10
194.366275
 20
37.426477
 30
0.0
 11
192.627589
 21
36.041132
 31
0.0
  0
LINE
  5
17e
100
AcDbEntity
  8
Layer_1
 62
7
100
AcDbLine
 10
192.627589
 20
36.041132
 30
0.0
 11
193.409824
 21
34.189980
 31
0.0
  0
LINE
  5
17f
100
AcDbEntity
  8
Layer_1
 62
7
100
AcDbLine
 10
193.409824
 20
34.189980
 30
0.0
 11
194.107421
 21
32.275893
 31
0.0
  0
LINE
  5
180
100
AcDbEntity
  8
Layer_1
 62
7
100
AcDbLine
 10
194.107421
 20
32.275893
 30
0.0
 11
194.728564
 21
30.306744
 31
0.0
  0
LINE
  5
181
100
AcDbEntity
  8
Layer_1
 62
7
100
AcDbLine
 10
194.728564
 20
30.306744
 30
0.0
 11
195.278417
 21
28.287924
 31
0.0
  0
LINE
  5
182
100
AcDbEntity
  8
Layer_1
 62
7
100
AcDbLine
 10
195.278417
 20
28.287924
 30
0.0
 11
195.760396
 21
26.223553
 31
0.0
  0
LINE
  5
183
100
AcDbEntity
  8
Layer_1
 62
7
100
AcDbLine
 10
195.760396
 20
26.223553
 30
0.0
 11
194.225841
 21
25.093704
 31
0.0
  0
LINE
  5
184
100
AcDbEntity
  8
Layer_1
 62
7
100
AcDbLine
 10
194.225841
 20
25.093704
 30
0.0
 11
192.677090
 21
23.983386
 31
0.0
  0
LINE
  5
185
100
AcDbEntity
  8
Layer_1
 62
7
100
AcDbLine
 10
192.677090
 20
23.983386
 30
0.0
 11
190.862712
 21
25.079734
 31
0.0
  0
LINE
  5
186
100
AcDbEntity
  8
Layer_1
 62
7
100
AcDbLine
 10
190.862712
 20
25.079734
 30
0.0
 11
189.112596
 21
26.226516
 31
0.0
  0
LINE
  5
187
100
AcDbEntity
  8
Layer_1
 62
7
100
AcDbLine
 10
189.112596
 20
26.226516
 30
0.0
 11
187.431765
 21
27.425763
 31
0.0
  0
LINE
  5
188
100
AcDbEntity
  8
Layer_1
 62
7
100
AcDbLine
 10
187.431765
 20
27.425763
 30
0.0
 11
185.826936
 21
28.680692
 31
0.0
  0
LINE
  5
189
100
AcDbEntity
  8
Layer_1
 62
7
100
AcDbLine
 10
185.826936
 20
28.680692
 30
0.0
 11
184.308129
 21
29.996666
 31
0.0
  0
LINE
  5
18a
100
AcDbEntity
  8
Layer_1
 62
7
100
AcDbLine
 10
184.308129
 20
29.996666
 30
0.0
 11
182.453280
 21
28.771173
 31
0.0
  0
LINE
  5
18b
100
AcDbEntity
  8
Layer_1
 62
7
100
AcDbLine
 10
182.453280
 20
28.771173
 30
0.0
 11
180.579324
 21
27.575143
 31
0.0
  0
LINE
  5
18c
100
AcDbEntity
  8
Layer_1
 62
7
100
AcDbLine
 10
180.579324
 20
27.575143
 30
0.0
 11
181.163778
 21
25.652391
 31
0.0
  0
LINE
  5
18d
100
AcDbEntity
  8
Layer_1
 62
7
100
AcDbLine
 10
181.163778
 20
25.652391
 30
0.0
 11
181.657442
 21
23.675876
 31
0.0
  0
LINE
  5
18e
100
AcDbEntity
  8
Layer_1
 62
7
100
AcDbLine
 10
181.657442
 20
23.675876
 30
0.0
 11
182.069373
 21
21.652569
 31
0.0
  0
LINE
  5
18f
100
AcDbEntity
  8
Layer_1
 62
7
100
AcDbLine
 10
182.069373
 20
21.652569
 30
0.0
 11
182.405189
 21
19.587351
 31
0.0
  0
LINE
  5
190
100
AcDbEntity
  8
Layer_1
 62
7
100
AcDbLine
 10
182.405189
 20
19.587351
 30
0.0
 11
182.668757
 21
17.483892
 31
0.0
  0
LINE
  5
191
100
AcDbEntity
  8
Layer_1
 62
7
100
AcDbLine
 10
182.668757
 20
17.483892
 30
0.0
 11
181.024502
 21
16.520640
 31
0.0
  0
LINE
  5
192
100
AcDbEntity
  8
Layer_1
 62
7
100
AcDbLine
 10
181.024502
 20
16.520640
 30
0.0
 11
179.368168
 21
15.578300
 31
0.0
  0
LINE
  5
193
100
AcDbEntity
  8
Layer_1
 62
7
100
AcDbLine
 10
179.368168
 20
15.578300
 30
0.0
 11
177.678306
 21
16.858290
 31
0.0
  0
LINE
  5
194
100
AcDbEntity
  8
Layer_1
 62
7
100
AcDbLine
 10
177.678306
 20
16.858290
 30
0.0
 11
176.057673
 21
18.181715
 31
0.0
  0
LINE
  5
195
100
AcDbEntity
  8
Layer_1
 62
7
100
AcDbLine
 10
176.057673
 20
18.181715
 30
0.0
 11
174.511406
 21
19.550098
 31
0.0
  0
LINE
  5
196
100
AcDbEntity
  8
Layer_1
 62
7
100
AcDbLine
 10
174.511406
 20
19.550098
 30
0.0
 11
173.046531
 21
20.965894
 31
0.0
  0
LINE
  5
197
100
AcDbEntity
  8
Layer_1
 62
7
100
AcDbLine
 10
173.046531
 20
20.965894
 30
0.0
 11
171.673605
 21
22.433421
 31
0.0
  0
LINE
  5
198
100
AcDbEntity
  8
Layer_1
 62
7
100
AcDbLine
 10
171.673605
 20
22.433421
 30
0.0
 11
169.700815
 21
21.408531
 31
0.0
  0
LINE
  5
199
100
AcDbEntity
  8
Layer_1
 62
7
100
AcDbLine
 10
169.700815
 20
21.408531
 30
0.0
 11
167.712108
 21
20.414968
 31
0.0
  0
LINE
  5
19a
100
AcDbEntity
  8
Layer_1
 62
7
100
AcDbLine
 10
167.712108
 20
20.414968
 30
0.0
 11
168.092374
 21
18.441614
 31
0.0
  0
LINE
  5
19b
100
AcDbEntity
  8
Layer_1
 62
7
100
AcDbLine
 10
168.092374
 20
18.441614
 30
0.0
 11
168.376741
 21
16.424346
 31
0.0
  0
LINE
  5
19c
100
AcDbEntity
  8
Layer_1
 62
7
100
AcDbLine
 10
168.376741
 20
16.424346
 30
0.0
 11
168.574918
 21
14.369062
 31
0.0
  0
LINE
  5
19d
100
AcDbEntity
  8
Layer_1
 62
7
100
AcDbLine
 10
168.574918
 20
14.369062
 30
0.0
 11
168.692999
 21
12.280053
 31
0.0
  0
LINE
  5
19e
100
AcDbEntity
  8
Layer_1
 62
7
100
AcDbLine
 10
168.692999
 20
12.280053
 30
0.0
 11
168.735276
 21
10.160564
 31
0.0
  0
LINE
  5
19f
100
AcDbEntity
  8
Layer_1
 62
7
100
AcDbLine
 10
168.735276
 20
10.160564
 30
0.0
 11
166.999327
 21
9.374463
 31
0.0
  0
LINE
  5
1a0
100
AcDbEntity
  8
Layer_1
 62
7
100
AcDbLine
 10
166.999327
 20
9.374463
 30
0.0
 11
165.253585
 21
8.610431
 31
0.0
  0
LINE
  5
1a1
100
AcDbEntity
  8
Layer_1
 62
7
100
AcDbLine
 10
165.253585
 20
8.610431
 30
0.0
 11
163.706782
 21
10.060037
 31
0.0
  0
LINE
  5
1a2
100
AcDbEntity
  8
Layer_1
 62
7
100
AcDbLine
 10
163.706782
 20
10.060037
 30
0.0
 11
162.233356
 21
11.545626
 31
0.0
  0
LINE
  5
1a3
100
AcDbEntity
  8
Layer_1
 62
7
100
AcDbLine
 10
162.233356
 20
11.545626
 30
0.0
 11
160.838586
 21
13.068131
 31
0.0
  0
LINE
  5
1a4
100
AcDbEntity
  8
Layer_1
 62
7
100
AcDbLine
 10
160.838586
 20
13.068131
 30
0.0
 11
159.529752
 21
14.629299
 31
0.0
  0
LINE
  5
1a5
100
AcDbEntity
  8
Layer_1
 62
7
100
AcDbLine
 10
159.529752
 20
14.629299
 30
0.0
 11
158.317720
 21
16.232293
 31
0.0
  0
LINE
  5
1a6
100
AcDbEntity
  8
Layer_1
 62
7
100
AcDbLine
 10
158.317720
 20
16.232293
 30
0.0
 11
156.248636
 21
15.419239
 31
0.0
  0
LINE
  5
1a7
100
AcDbEntity
  8
Layer_1
 62
7
100
AcDbLine
 10
156.248636
 20
15.419239
 30
0.0
 11
154.166937
 21
14.638980
 31
0.0
  0
LINE
  5
1a8
100
AcDbEntity
  8
Layer_1
 62
7
100
AcDbLine
 10
154.166937
 20
14.638980
 30
0.0
 11
154.338838
 21
12.636698
 31
0.0
  0
LINE
  5
1a9
100
AcDbEntity
  8
Layer_1
 62
7
100
AcDbLine
 10
154.338838
 20
12.636698
 30
0.0
 11
154.410805
 21
10.600746
 31
0.0
  0
LINE
  5
1aa
100
AcDbEntity
  8
Layer_1
 62
7
100
AcDbLine
 10
154.410805
 20
10.600746
 30
0.0
 11
154.393053
 21
8.536009
 31
0.0
  0
LINE
  5
1ab
100
AcDbEntity
  8
Layer_1
 62
7
100
AcDbLine
 10
154.393053
 20
8.536009
 30
0.0
 11
154.292131
 21
6.446097
 31
0.0
  0
LINE
  5
1ac
100
AcDbEntity
  8
Layer_1
 62
7
100
AcDbLine
 10
154.292131
 20
6.446097
 30
0.0
 11
154.112609
 21
4.333804
 31
0.0
  0
LINE
  5
1ad
100
AcDbEntity
  8
Layer_1
 62
7
100
AcDbLine
 10
154.112609
 20
4.333804
 30
0.0
 11
152.304016
 21
3.733461
 31
0.0
  0
LINE
  5
1ae
100
AcDbEntity
  8
Layer_1
 62
7
100
AcDbLine
 10
152.304016
 20
3.733461
 30
0.0
 11
150.487973
 21
3.156091
 31
0.0
  0
LINE
  5
1af
100
AcDbEntity
  8
Layer_1
 62
7
100
AcDbLine
 10
150.487973
 20
3.156091
 30
0.0
 11
149.101161
 21
4.759452
 31
0.0
  0
LINE
  5
1b0
100
AcDbEntity
  8
Layer_1
 62
7
100
AcDbLine
 10
149.101161
 20
4.759452
 30
0.0
 11
147.791114
 21
6.390922
 31
0.0
  0
LINE
  5
1b1
100
AcDbEntity
  8
Layer_1
 62
7
100
AcDbLine
 10
147.791114
 20
6.390922
 30
0.0
 11
146.563136
 21
8.050869
 31
0.0
  0
LINE
  5
1b2
100
AcDbEntity
  8
Layer_1
 62
7
100
AcDbLine
 10
146.563136
 20
8.050869
 30
0.0
 11
145.424624
 21
9.740307
 31
0.0
  0
LINE
  5
1b3
100
AcDbEntity
  8
Layer_1
 62
7
100
AcDbLine
 10
145.424624
 20
9.740307
 30
0.0
 11
144.386808
 21
11.461214
 31
0.0
  0
LINE
  5
1b4
100
AcDbEntity
  8
Layer_1
 62
7
100
AcDbLine
 10
144.386808
 20
11.461214
 30
0.0
 11
142.244064
 21
10.868886
 31
0.0
  0
LINE
  5
1b5
100
AcDbEntity
  8
Layer_1
 62
7
100
AcDbLine
 10
142.244064
 20
10.868886
 30
0.0
 11
140.092232
 21
10.310481
 31
0.0
  0
LINE
  5
1b6
100
AcDbEntity
  8
Layer_1
 62
7
100
AcDbLine
 10
140.092232
 20
10.310481
 30
0.0
 11
140.053907
 21
8.301200
 31
0.0
  0
LINE
  5
1b7
100
AcDbEntity
  8
Layer_1
 62
7
100
AcDbLine
 10
140.053907
 20
8.301200
 30
0.0
 11
139.912654
 21
6.268889
 31
0.0
  0
LINE
  5
1b8
100
AcDbEntity
  8
Layer_1
 62
7
100
AcDbLine
 10
139.912654
 20
6.268889
 30
0.0
 11
139.679172
 21
4.217331
 31
0.0
  0
LINE
  5
1b9
100
AcDbEntity
  8
Layer_1
 62
7
100
AcDbLine
 10
139.679172
 20
4.217331
 30
0.0
 11
139.360346
 21
2.149404
 31
0.0
  0
LINE
  5
1ba
100
AcDbEntity
  8
Layer_1
 62
7
100
AcDbLine
 10
139.360346
 20
2.149404
 30
0.0
 11
138.961001
 21
0.067451
 31
0.0
  0
LINE
  5
1bb
100
AcDbEntity
  8
Layer_1
 62
7
100
AcDbLine
 10
138.961001
 20
0.067451
 30
0.0
 11
137.099576
 21
-0.340558
 31
0.0
  0
LINE
  5
1bc
100
AcDbEntity
  8
Layer_1
 62
7
100
AcDbLine
 10
137.099576
 20
-0.340558
 30
0.0
 11
135.233128
 21
-0.724944
 31
0.0
  0
LINE
  5
1bd
100
AcDbEntity
  8
Layer_1
 62
7
100
AcDbLine
 10
135.233128
 20
-0.724944
 30
0.0
 11
134.021520
 21
1.014589
 31
0.0
  0
LINE
  5
1be
100
AcDbEntity
  8
Layer_1
 62
7
100
AcDbLine
 10
134.021520
 20
1.014589
 30
0.0
 11
132.889159
 21
2.774075
 31
0.0
  0
LINE
  5
1bf
100
AcDbEntity
  8
Layer_1
 62
7
100
AcDbLine
 10
132.889159
 20
2.774075
 30
0.0
 11
131.841409
 21
4.553289
 31
0.0
  0
LINE
  5
1c0
100
AcDbEntity
  8
Layer_1
 62
7
100
AcDbLine
 10
131.841409
 20
4.553289
 30
0.0
 11
130.885748
 21
6.352455
 31
0.0
  0
LINE
  5
1c1
100
AcDbEntity
  8
Layer_1
 62
7
100
AcDbLine
 10
130.885748
 20
6.352455
 30
0.0
 11
130.033494
 21
8.172422
 31
0.0
  0
LINE
  5
1c2
100
AcDbEntity
  8
Layer_1
 62
7
100
AcDbLine
 10
130.033494
 20
8.172422
 30
0.0
 11
127.840571
 21
7.807311
 31
0.0
  0
LINE
  5
1c3
100
AcDbEntity
  8
Layer_1
 62
7
100
AcDbLine
 10
127.840571
 20
7.807311
 30
0.0
 11
125.642144
 21
7.476913
 31
0.0
  0
LINE
  5
1c4
100
AcDbEntity
  8
Layer_1
 62
7
100
AcDbLine
 10
125.642144
 20
7.476913
 30
0.0
 11
125.394014
 21
5.482646
 31
0.0
  0
LINE
  5
1c5
100
AcDbEntity
  8
Layer_1
 62
7
100
AcDbLine
 10
125.394014
 20
5.482646
 30
0.0
 11
125.041096
 21
3.476216
 31
0.0
  0
LINE
  5
1c6
100
AcDbEntity
  8
Layer_1
 62
7
100
AcDbLine
 10
125.041096
 20
3.476216
 30
0.0
 11
124.594451
 21
1.460302
 31
0.0
  0
LINE
  5
1c7
100
AcDbEntity
  8
Layer_1
 62
7
100
AcDbLine
 10
124.594451
 20
1.460302
 30
0.0
 11
124.061220
 21
-0.562949
 31
0.0
  0
LINE
  5
1c8
100
AcDbEntity
  8
Layer_1
 62
7
100
AcDbLine
 10
124.061220
 20
-0.562949
 30
0.0
 11
123.446455
 21
-2.591760
 31
0.0
  0
LINE
  5
1c9
100
AcDbEntity
  8
Layer_1
 62
7
100
AcDbLine
 10
123.446455
 20
-2.591760
 30
0.0
 11
121.552575
 21
-2.802975
 31
0.0
  0
LINE
  5
1ca
100
AcDbEntity
  8
Layer_1
 62
7
100
AcDbLine
 10
121.552575
 20
-2.802975
 30
0.0
 11
119.656154
 21
-2.990144
 31
0.0
  0
LINE
  5
1cb
100
AcDbEntity
  8
Layer_1
 62
7
100
AcDbLine
 10
119.656154
 20
-2.990144
 30
0.0
 11
118.633014
 21
-1.133489
 31
0.0
  0
LINE
  5
1cc
100
AcDbEntity
  8
Layer_1
 62
7
100
AcDbLine
 10
118.633014
 20
-1.133489
 30
0.0
 11
117.690787
 21
0.734709
 31
0.0
  0
LINE
  5
1cd
100
AcDbEntity
  8
Layer_1
 62
7
100
AcDbLine
 10
117.690787
 20
0.734709
 30
0.0
 11
116.834751
 21
2.613716
 31
0.0
  0
LINE
  5
1ce
100
AcDbEntity
  8
Layer_1
 62
7
100
AcDbLine
 10
116.834751
 20
2.613716
 30
0.0
 11
116.072384
 21
4.502912
 31
0.0
  0
LINE
  5
1cf
100
AcDbEntity
  8
Layer_1
 62
7
100
AcDbLine
 10
116.072384
 20
4.502912
 30
0.0
 11
115.415032
 21
6.401985
 31
0.0
  0
LINE
  5
1d0
100
AcDbEntity
  8
Layer_1
 62
7
100
AcDbLine
 10
115.415032
 20
6.401985
 30
0.0
 11
113.195975
 21
6.268099
 31
0.0
  0
LINE
  5
1d1
100
AcDbEntity
  8
Layer_1
 62
7
100
AcDbLine
 10
113.195975
 20
6.268099
 30
0.0
 11
110.975055
 21
6.169293
 31
0.0
  0
LINE
  5
1d2
100
AcDbEntity
  8
Layer_1
 62
7
100
AcDbLine
 10
110.975055
 20
6.169293
 30
0.0
 11
110.519803
 21
4.211913
 31
0.0
  0
LINE
  5
1d3
100
AcDbEntity
  8
Layer_1
 62
7
100
AcDbLine
 10
110.519803
 20
4.211913
 30
0.0
 11
109.959112
 21
2.253375
 31
0.0
  0
LINE
  5
1d4
100
AcDbEntity
  8
Layer_1
 62
7
100
AcDbLine
 10
109.959112
 20
2.253375
 30
0.0
 11
109.304187
 21
0.295176
 31
0.0
  0
LINE
  5
1d5
100
AcDbEntity
  8
Layer_1
 62
7
100
AcDbLine
 10
109.304187
 20
0.295176
 30
0.0
 11
108.562394
 21
-1.661273
 31
0.0
  0
LINE
  5
1d6
100
AcDbEntity
  8
Layer_1
 62
7
100
AcDbLine
 10
108.562394
 20
-1.661273
 30
0.0
 11
107.738926
 21
-3.614702
 31
0.0
  0
LINE
  5
1d7
100
AcDbEntity
  8
Layer_1
 62
7
100
AcDbLine
 10
107.738926
 20
-3.614702
 30
0.0
 11
105.833333
 21
-3.626781
 31
0.0
  0
LINE
  5
1d8
100
AcDbEntity
  8
Layer_1
 62
7
100
AcDbLine
 10
105.833333
 20
-3.626781
 30
0.0
 11
103.927741
 21
-3.614702
 31
0.0
  0
LINE
  5
1d9
100
AcDbEntity
  8
Layer_1
 62
7
100
AcDbLine
 10
103.927741
 20
-3.614702
 30
0.0
 11
103.104273
 21
-1.661273
 31
0.0
  0
LINE
  5
1da
100
AcDbEntity
  8
Layer_1
 62
7
100
AcDbLine
 10
103.104273
 20
-1.661273
 30
0.0
 11
102.362480
 21
0.295176
 31
0.0
  0
LINE
  5
1db
100
AcDbEntity
  8
Layer_1
 62
7
100
AcDbLine
 10
102.362480
 20
0.295176
 30
0.0
 11
101.707555
 21
2.253375
 31
0.0
  0
LINE
  5
1dc
100
AcDbEntity
  8
Layer_1
 62
7
100
AcDbLine
 10
101.707555
 20
2.253375
 30
0.0
 11
101.146864
 21
4.211913
 31
0.0
  0
LINE
  5
1dd
100
AcDbEntity
  8
Layer_1
 62
7
100
AcDbLine
 10
101.146864
 20
4.211913
 30
0.0
 11
100.691611
 21
6.169293
 31
0.0
  0
LINE
  5
1de
100
AcDbEntity
  8
Layer_1
 62
7
100
AcDbLine
 10
100.691611
 20
6.169293
 30
0.0
 11
98.470692
 21
6.268099
 31
0.0
  0
LINE
  5
1df
100
AcDbEntity
  8
Layer_1
 62
7
100
AcDbLine
 10
98.470692
 20
6.268099
 30
0.0
 11
96.251635
 21
6.401985
 31
0.0
  0
LINE
  5
1e0
100
AcDbEntity
  8
Layer_1
 62
7
100
AcDbLine
 10
96.251635
 20
6.401985
 30
0.0
 11
95.594283
 21
4.502912
 31
0.0
  0
LINE
  5
1e1
100
AcDbEntity
  8
Layer_1
 62
7
100
AcDbLine
 10
95.594283
 20
4.502912
 30
0.0
 11
94.831916
 21
2.613716
 31
0.0
  0
LINE
  5
1e2
100
AcDbEntity
  8
Layer_1
 62
7
100
AcDbLine
 10
94.831916
 20
2.613716
 30
0.0
 11
93.975880
 21
0.734709
 31
0.0
  0
LINE
  5
1e3
100
AcDbEntity
  8
Layer_1
 62
7
100
AcDbLine
 10
93.975880
 20
0.734709
 30
0.0
 11
93.033652
 21
-1.133489
 31
0.0
  0
LINE
  5
1e4
100
AcDbEntity
  8
Layer_1
 62
7
100
AcDbLine
 10
93.033652
 20
-1.133489
 30
0.0
 11
92.010512
 21
-2.990144
 31
0.0
  0
LINE
  5
1e5
100
AcDbEntity
  8
Layer_1
 62
7
100
AcDbLine
 10
92.010512
 20
-2.990144
 30
0.0
 11
90.114092
 21
-2.802975
 31
0.0
  0
LINE
  5
1e6
100
AcDbEntity
  8
Layer_1
 62
7
100
AcDbLine
 10
90.114092
 20
-2.802975
 30
0.0
 11
88.220211
 21
-2.591760
 31
0.0
  0
LINE
  5
1e7
100
AcDbEntity
  8
Layer_1
 62
7
100
AcDbLine
 10
88.220211
 20
-2.591760
 30
0.0
 11
87.605447
 21
-0.562949
 31
0.0
  0
LINE
  5
1e8
100
AcDbEntity
  8
Layer_1
 62
7
100
AcDbLine
 10
87.605447
 20
-0.562949
 30
0.0
 11
87.072216
 21
1.460302
 31
0.0
  0
LINE
  5
1e9
100
AcDbEntity
  8
Layer_1
 62
7
100
AcDbLine
 10
87.072216
 20
1.460302
 30
0.0
 11
86.625571
 21
3.476216
 31
0.0
  0
LINE
  5
1ea
100
AcDbEntity
  8
Layer_1
 62
7
100
AcDbLine
 10
86.625571
 20
3.476216
 30
0.0
 11
86.272652
 21
5.482646
 31
0.0
  0
LINE
  5
1eb
100
AcDbEntity
  8
Layer_1
 62
7
100
AcDbLine
 10
86.272652
 20
5.482646
 30
0.0
 11
86.024522
 21
7.476913
 31
0.0
  0
LINE
  5
1ec
100
AcDbEntity
  8
Layer_1
 62
7
100
AcDbLine
 10
86.024522
 20
7.476913
 30
0.0
 11
83.826096
 21
7.807311
 31
0.0
  0
LINE
  5
1ed
100
AcDbEntity
  8
Layer_1
 62
7
100
AcDbLine
 10
83.826096
 20
7.807311
 30
0.0
 11
81.633173
 21
8.172422
 31
0.0
  0
LINE
  5
1ee
100
AcDbEntity
  8
Layer_1
 62
7
100
AcDbLine
 10
81.633173
 20
8.172422
 30
0.0
 11
80.780918
 21
6.352455
 31
0.0
  0
LINE
  5
1ef
100
AcDbEntity
  8
Layer_1
 62
7
100
AcDbLine
 10
80.780918
 20
6.352455
 30
0.0
 11
79.825257
 21
4.553289
 31
0.0
  0
LINE
  5
1f0
100
AcDbEntity
  8
Layer_1
 62
7
100
AcDbLine
 10
79.825257
 20
4.553289
 30
0.0
 11
78.777507
 21
2.774075
 31
0.0
  0
LINE
  5
1f1
100
AcDbEntity
  8
Layer_1
 62
7
100
AcDbLine
 10
78.777507
 20
2.774075
 30
0.0
 11
77.645147
 21
1.014589
 31
0.0
  0
LINE
  5
1f2
100
AcDbEntity
  8
Layer_1
 62
7
100
AcDbLine
 10
77.645147
 20
1.014589
 30
0.0
 11
76.433539
 21
-0.724944
 31
0.0
  0
LINE
  5
1f3
100
AcDbEntity
  8
Layer_1
 62
7
100
AcDbLine
 10
76.433539
 20
-0.724944
 30
0.0
 11
74.567090
 21
-0.340558
 31
0.0
  0
LINE
  5
1f4
100
AcDbEntity
  8
Layer_1
 62
7
100
AcDbLine
 10
74.567090
 20
-0.340558
 30
0.0
 11
72.705666
 21
0.067451
 31
0.0
  0
LINE
  5
1f5
100
AcDbEntity
  8
Layer_1
 62
7
100
AcDbLine
 10
72.705666
 20
0.067451
 30
0.0
 11
72.306321
 21
2.149404
 31
0.0
  0
LINE
  5
1f6
100
AcDbEntity
  8
Layer_1
 62
7
100
AcDbLine
 10
72.306321
 20
2.149404
 30
0.0
 11
71.987495
 21
4.217331
 31
0.0
  0
LINE
  5
1f7
100
AcDbEntity
  8
Layer_1
 62
7
100
AcDbLine
 10
71.987495
 20
4.217331
 30
0.0
 11
71.754012
 21
6.268889
 31
0.0
  0
LINE
  5
1f8
100
AcDbEntity
  8
Layer_1
 62
7
100
AcDbLine
 10
71.754012
 20
6.268889
 30
0.0
 11
71.612760
 21
8.301200
 31
0.0
  0
LINE
  5
1f9
100
AcDbEntity
  8
Layer_1
 62
7
100
AcDbLine
 10
71.612760
 20
8.301200
 30
0.0
 11
71.574434
 21
10.310481
 31
0.0
  0
LINE
  5
1fa
100
AcDbEntity
  8
Layer_1
 62
7
100
AcDbLine
 10
71.574434
 20
10.310481
 30
0.0
 11
69.422603
 21
10.868886
 31
0.0
  0
LINE
  5
1fb
100
AcDbEntity
  8
Layer_1
 62
7
100
AcDbLine
 10
69.422603
 20
10.868886
 30
0.0
 11
67.279859
 21
11.461214
 31
0.0
  0
LINE
  5
1fc
100
AcDbEntity
  8
Layer_1
 62
7
100
AcDbLine
 10
67.279859
 20
11.461214
 30
0.0
 11
66.242043
 21
9.740307
 31
0.0
  0
LINE
  5
1fd
100
AcDbEntity
  8
Layer_1
 62
7
100
AcDbLine
 10
66.242043
 20
9.740307
 30
0.0
 11
65.103530
 21
8.050869
 31
0.0
  0
LINE
  5
1fe
100
AcDbEntity
  8
Layer_1
 62
7
100
AcDbLine
 10
65.103530
 20
8.050869
 30
0.0
 11
63.875553
 21
6.390922
 31
0.0
  0
LINE
  5
1ff
100
AcDbEntity
  8
Layer_1
 62
7
100
AcDbLine
 10
63.875553
 20
6.390922
 30
0.0
 11
62.565506
 21
4.759452
 31
0.0
  0
LINE
  5
200
100
AcDbEntity
  8
Layer_1
 62
7
100
AcDbLine
 10
62.565506
 20
4.759452
 30
0.0
 11
61.178694
 21
3.156091
 31
0.0
  0
LINE
  5
201
100
AcDbEntity
  8
Layer_1
 62
7
100
AcDbLine
 10
61.178694
 20
3.156091
 30
0.0
 11
59.362650
 21
3.733461
 31
0.0
  0
LINE
  5
202
100
AcDbEntity
  8
Layer_1
 62
7
100
AcDbLine
 10
59.362650
 20
3.733461
 30
0.0
 11
57.554058
 21
4.333804
 31
0.0
  0
LINE
  5
203
100
AcDbEntity
  8
Layer_1
 62
7
100
AcDbLine
 10
57.554058
 20
4.333804
 30
0.0
 11
57.374536
 21
6.446097
 31
0.0
  0
LINE
  5
204
100
AcDbEntity
  8
Layer_1
 62
7
100
AcDbLine
 10
57.374536
 20
6.446097
 30
0.0
 11
57.273613
 21
8.536009
 31
0.0
  0
LINE
  5
205
100
AcDbEntity
  8
Layer_1
 62
7
100
AcDbLine
 10
57.273613
 20
8.536009
 30
0.0
 11
57.255862
 21
10.600746
 31
0.0
  0
LINE
  5
206
100
AcDbEntity
  8
Layer_1
 62
7
100
AcDbLine
 10
57.255862
 20
10.600746
 30
0.0
 11
57.327828
 21
12.636698
 31
0.0
  0
LINE
  5
207
100
AcDbEntity
  8
Layer_1
 62
7
100
AcDbLine
 10
57.327828
 20
12.636698
 30
0.0
 11
57.499730
 21
14.638980
 31
0.0
  0
LINE
  5
208
100
AcDbEntity
  8
Layer_1
 62
7
100
AcDbLine
 10
57.499730
 20
14.638980
 30
0.0
 11
55.418030
 21
15.419239
 31
0.0
  0
LINE
  5
209
100
AcDbEntity
  8
Layer_1
 62
7
100
AcDbLine
 10
55.418030
 20
15.419239
 30
0.0
 11
53.348946
 21
16.232293
 31
0.0
  0
LINE
  5
20a
100
AcDbEntity
  8
Layer_1
 62
7
100
AcDbLine
 10
53.348946
 20
16.232293
 30
0.0
 11
52.136915
 21
14.629299
 31
0.0
  0
LINE
  5
20b
100
AcDbEntity
  8
Layer_1
 62
7
100
AcDbLine
 10
52.136915
 20
14.629299
 30
0.0
 11
50.828081
 21
13.068131
 31
0.0
  0
LINE
  5
20c
100
AcDbEntity
  8
Layer_1
 62
7
100
AcDbLine
 10
50.828081
 20
13.068131
 30
0.0
 11
49.433311
 21
11.545626
 31
0.0
  0
LINE
  5
20d
100
AcDbEntity
  8
Layer_1
 62
7
100
AcDbLine
 10
49.433311
 20
11.545626
 30
0.0
 11
47.959885
 21
10.060037
 31
0.0
  0
LINE
  5
20e
100
AcDbEntity
  8
Layer_1
 62
7
100
AcDbLine
 10
47.959885
 20
10.060037
 30
0.0
 11
46.413081
 21
8.610431
 31
0.0
  0
LINE
  5
20f
100
AcDbEntity
  8
Layer_1
 62
7
100
AcDbLine
 10
46.413081
 20
8.610431
 30
0.0
 11
44.667339
 21
9.374463
 31
0.0
  0
LINE
  5
210
100
AcDbEntity
  8
Layer_1
 62
7
100
AcDbLine
 10
44.667339
 20
9.374463
 30
0.0
 11
42.931390
 21
10.160564
 31
0.0
  0
LINE
  5
211
100
AcDbEntity
  8
Layer_1
 62
7
100
AcDbLine
 10
42.931390
 20
10.160564
 30
0.0
 11
42.973667
 21
12.280053
 31
0.0
  0
LINE
  5
212
100
AcDbEntity
  8
Layer_1
 62
7
100
AcDbLine
 10
42.973667
 20
12.280053
 30
0.0
 11
43.091749
 21
14.369062
 31
0.0
  0
LINE
  5
213
100
AcDbEntity
  8
Layer_1
 62
7
100
AcDbLine
 10
43.091749
 20
14.369062
 30
0.0
 11
43.289926
 21
16.424346
 31
0.0
  0
LINE
  5
214
100
AcDbEntity
  8
Layer_1
 62
7
100
AcDbLine
 10
43.289926
 20
16.424346
 30
0.0
 11
43.574293
 21
18.441614
 31
0.0
  0
LINE
  5
215
100
AcDbEntity
  8
Layer_1
 62
7
100
AcDbLine
 10
43.574293
 20
18.441614
 30
0.0
 11
43.954559
 21
20.414968
 31
0.0
  0
LINE
  5
216
100
AcDbEntity
  8
Layer_1
 62
7
100
AcDbLine
 10
43.954559
 20
20.414968
 30
0.0
 11
41.965852
 21
21.408531
 31
0.0
  0
LINE
  5
217
100
AcDbEntity
  8
Layer_1
 62
7
100
AcDbLine
 10
41.965852
 20
21.408531
 30
0.0
 11
39.993062
 21
22.433421
 31
0.0
  0
LINE
  5
218
100
AcDbEntity
  8
Layer_1
 62
7
100
AcDbLine
 10
39.993062
 20
22.433421
 30
0.0
 11
38.620136
 21
20.965894
 31
0.0
  0
LINE
  5
219
100
AcDbEntity
  8
Layer_1
 62
7
100
AcDbLine
 10
38.620136
 20
20.965894
 30
0.0
 11
37.155261
 21
19.550098
 31
0.0
  0
LINE
  5
21a
100
AcDbEntity
  8
Layer_1
 62
7
100
AcDbLine
 10
37.155261
 20
19.550098
 30
0.0
 11
35.608994
 21
18.181715
 31
0.0
  0
LINE
  5
21b
100
AcDbEntity
  8
Layer_1
 62
7
100
AcDbLine
 10
35.608994
 20
18.181715
 30
0.0
 11
33.988361
 21
16.858290
 31
0.0
  0
LINE
  5
21c
100
AcDbEntity
  8
Layer_1
 62
7
100
AcDbLine
 10
33.988361
 20
16.858290
 30
0.0
 11
32.298499
 21
15.578300
 31
0.0
  0
LINE
  5
21d
100
AcDbEntity
  8
Layer_1
 62
7
100
AcDbLine
 10
32.298499
 20
15.578300
 30
0.0
 11
30.642165
 21
16.520640
 31
0.0
  0
LINE
  5
21e
100
AcDbEntity
  8
Layer_1
 62
7
100
AcDbLine
 10
30.642165
 20
16.520640
 30
0.0
 11
28.997910
 21
17.483892
 31
0.0
  0
LINE
  5
21f
100
AcDbEntity
  8
Layer_1
 62
7
100
AcDbLine
 10
28.997910
 20
17.483892
 30
0.0
 11
29.261477
 21
19.587351
 31
0.0
  0
LINE
  5
220
100
AcDbEntity
  8
Layer_1
 62
7
100
AcDbLine
 10
29.261477
 20
19.587351
 30
0.0
 11
29.597294
 21
21.652569
 31
0.0
  0
LINE
  5
221
100
AcDbEntity
  8
Layer_1
 62
7
100
AcDbLine
 10
29.597294
 20
21.652569
 30
0.0
 11
30.009225
 21
23.675876
 31
0.0
  0
LINE
  5
222
100
AcDbEntity
  8
Layer_1
 62
7
100
AcDbLine
 10
30.009225
 20
23.675876
 30
0.0
 11
30.502888
 21
25.652391
 31
0.0
  0
LINE
  5
223
100
AcDbEntity
  8
Layer_1
 62
7
100
AcDbLine
 10
30.502888
 20
25.652391
 30
0.0
 11
31.087342
 21
27.575143
 31
0.0
  0
LINE
  5
224
100
AcDbEntity
  8
Layer_1
 62
7
100
AcDbLine
 10
31.087342
 20
27.575143
 30
0.0
 11
29.213387
 21
28.771173
 31
0.0
  0
LINE
  5
225
100
AcDbEntity
  8
Layer_1
 62
7
100
AcDbLine
 10
29.213387
 20
28.771173
 30
0.0
 11
27.358538
 21
29.996666
 31
0.0
  0
LINE
  5
226
100
AcDbEntity
  8
Layer_1
 62
7
100
AcDbLine
 10
27.358538
 20
29.996666
 30
0.0
 11
25.839730
 21
28.680692
 31
0.0
  0
LINE
  5
227
100
AcDbEntity
  8
Layer_1
 62
7
100
AcDbLine
 10
25.839730
 20
28.680692
 30
0.0
 11
24.234902
 21
27.425763
 31
0.0
  0
LINE
  5
228
100
AcDbEntity
  8
Layer_1
 62
7
100
AcDbLine
 10
24.234902
 20
27.425763
 30
0.0
 11
22.554071
 21
26.226516
 31
0.0
  0
LINE
  5
229
100
AcDbEntity
  8
Layer_1
 62
7
100
AcDbLine
 10
22.554071
 20
26.226516
 30
0.0
 11
20.803955
 21
25.079734
 31
0.0
  0
LINE
  5
22a
100
AcDbEntity
  8
Layer_1
 62
7
100
AcDbLine
 10
20.803955
 20
25.079734
 30
0.0
 11
18.989576
 21
23.983386
 31
0.0
  0
LINE
  5
22b
100
AcDbEntity
  8
Layer_1
 62
7
100
AcDbLine
 10
18.989576
 20
23.983386
 30
0.0
 11
17.440825
 21
25.093704
 31
0.0
  0
LINE
  5
22c
100
AcDbEntity
  8
Layer_1
 62
7
100
AcDbLine
 10
17.440825
 20
25.093704
 30
0.0
 11
15.906270
 21
26.223553
 31
0.0
  0
LINE
  5
22d
100
AcDbEntity
  8
Layer_1
 62
7
100
AcDbLine
 10
15.906270
 20
26.223553
 30
0.0
 11
16.388249
 21
28.287924
 31
0.0
  0
LINE
  5
22e
100
AcDbEntity
  8
Layer_1
 62
7
100
AcDbLine
 10
16.388249
 20
28.287924
 30
0.0
 11
16.938103
 21
30.306744
 31
0.0
  0
LINE
  5
22f
100
AcDbEntity
  8
Layer_1
 62
7
100
AcDbLine
 10
16.938103
 20
30.306744
 30
0.0
 11
17.559246
 21
32.275893
 31
0.0
  0
LINE
  5
230
100
AcDbEntity
  8
Layer_1
 62
7
100
AcDbLine
 10
17.559246
 20
32.275893
 30
0.0
 11
18.256843
 21
34.189980
 31
0.0
  0
LINE
  5
231
100
AcDbEntity
  8
Layer_1
 62
7
100
AcDbLine
 10
18.256843
 20
34.189980
 30
0.0
 11
19.039078
 21
36.041132
 31
0.0
  0
LINE
  5
232
100
AcDbEntity
  8
Layer_1
 62
7
100
AcDbLine
 10
19.039078
 20
36.041132
 30
0.0
 11
17.300392
 21
37.426477
 31
0.0
  0
LINE
  5
233
100
AcDbEntity
  8
Layer_1
 62
7
100
AcDbLine
 10
17.300392
 20
37.426477
 30
0.0
 11
15.583803
 21
38.839140
 31
0.0
  0
LINE
  5
234
100
AcDbEntity
  8
Layer_1
 62
7
100
AcDbLine
 10
15.583803
 20
38.839140
 30
0.0
 11
13.935766
 21
37.689113
 31
0.0
  0
LINE
  5
235
100
AcDbEntity
  8
Layer_1
 62
7
100
AcDbLine
 10
13.935766
 20
37.689113
 30
0.0
 11
12.208538
 21
36.608822
 31
0.0
  0
LINE
  5
236
100
AcDbEntity
  8
Layer_1
 62
7
100
AcDbLine
 10
12.208538
 20
36.608822
 30
0.0
 11
10.411573
 21
35.591835
 31
0.0
  0
LINE
  5
237
100
AcDbEntity
  8
Layer_1
 62
7
100
AcDbLine
 10
10.411573
 20
35.591835
 30
0.0
 11
8.551192
 21
34.634255
 31
0.0
  0
LINE
  5
238
100
AcDbEntity
  8
Layer_1
 62
7
100
AcDbLine
 10
8.551192
 20
34.634255
 30
0.0
 11
6.632109
 21
33.733599
 31
0.0
  0
LINE
  5
239
100
AcDbEntity
  8
Layer_1
 62
7
100
AcDbLine
 10
6.632109
 20
33.733599
 30
0.0
 11
5.207903
 21
34.999704
 31
0.0
  0
LINE
  5
23a
100
AcDbEntity
  8
Layer_1
 62
7
100
AcDbLine
 10
5.207903
 20
34.999704
 30
0.0
 11
3.799868
 21
36.283759
 31
0.0
  0
LINE
  5
23b
100
AcDbEntity
  8
Layer_1
 62
7
100
AcDbLine
 10
3.799868
 20
36.283759
 30
0.0
 11
4.495010
 21
38.286464
 31
0.0
  0
LINE
  5
23c
100
AcDbEntity
  8
Layer_1
 62
7
100
AcDbLine
 10
4.495010
 20
38.286464
 30
0.0
 11
5.252861
 21
40.236733
 31
0.0
  0
LINE
  5
23d
100
AcDbEntity
  8
Layer_1
 62
7
100
AcDbLine
 10
5.252861
 20
40.236733
 30
0.0
 11
6.076442
 21
42.130190
 31
0.0
  0
LINE
  5
23e
100
AcDbEntity
  8
Layer_1
 62
7
100
AcDbLine
 10
6.076442
 20
42.130190
 30
0.0
 11
6.970296
 21
43.960852
 31
0.0
  0
LINE
  5
23f
100
AcDbEntity
  8
Layer_1
 62
7
100
AcDbLine
 10
6.970296
 20
43.960852
 30
0.0
 11
7.941733
 21
45.720085
 31
0.0
  0
LINE
  5
240
100
AcDbEntity
  8
Layer_1
 62
7
100
AcDbLine
 10
7.941733
 20
45.720085
 30
0.0
 11
6.357366
 21
47.279588
 31
0.0
  0
LINE
  5
241
100
AcDbEntity
  8
Layer_1
 62
7
100
AcDbLine
 10
6.357366
 20
47.279588
 30
0.0
 11
4.797862
 21
48.863956
 31
0.0
  0
LINE
  5
242
100
AcDbEntity
  8
Layer_1
 62
7
100
AcDbLine
 10
4.797862
 20
48.863956
 30
0.0
 11
3.038630
 21
47.892518
 31
0.0
  0
LINE
  5
243
100
AcDbEntity
  8
Layer_1
 62
7
100
AcDbLine
 10
3.038630
 20
47.892518
 30
0.0
 11
1.207968
 21
46.998664
 31
0.0
  0
LINE
  5
244
100
AcDbEntity
  8
Layer_1
 62
7
100
AcDbLine
 10
1.207968
 20
46.998664
 30
0.0
 11
-0.685490
 21
46.175083
 31
0.0
  0
LINE
  5
245
100
AcDbEntity
  8
Layer_1
 62
7
100
AcDbLine
 10
-0.685490
 20
46.175083
 30
0.0
 11
-2.635758
 21
45.417232
 31
0.0
  0
LINE
  5
246
100
AcDbEntity
  8
Layer_1
 62
7
100
AcDbLine
 10
-2.635758
 20
45.417232
 30
0.0
 11
-4.638463
 21
44.722090
 31
0.0
  0
LINE
  5
247
100
AcDbEntity
  8
Layer_1
 62
7
100
AcDbLine
 10
-4.638463
 20
44.722090
 30
0.0
 11
-5.922518
 21
46.130125
 31
0.0
  0
LINE
  5
248
100
AcDbEntity
  8
Layer_1
 62
7
100
AcDbLine
 10
-5.922518
 20
46.130125
 30
0.0
 11
-7.188623
 21
47.554332
 31
0.0
  0
LINE
  5
249
100
AcDbEntity
  8
Layer_1
 62
7
100
AcDbLine
 10
-7.188623
 20
47.554332
 30
0.0
 11
-6.287968
 21
49.473414
 31
0.0
  0
LINE
  5
24a
100
AcDbEntity
  8
Layer_1
 62
7
100
AcDbLine
 10
-6.287968
 20
49.473414
 30
0.0
 11
-5.330388
 21
51.333795
 31
0.0
  0
LINE
  5
24b
100
AcDbEntity
  8
Layer_1
 62
7
100
AcDbLine
 10
-5.330388
 20
51.333795
 30
0.0
 11
-4.313400
 21
53.130760
 31
0.0
  0
LINE
  5
24c
100
AcDbEntity
  8
Layer_1
 62
7
100
AcDbLine
 10
-4.313400
 20
53.130760
 30
0.0
 11
-3.233110
 21
54.857989
 31
0.0
  0
LINE
  5
24d
100
AcDbEntity
  8
Layer_1
 62
7
100
AcDbLine
 10
-3.233110
 20
54.857989
 30
0.0
 11
-2.083082
 21
56.506025
 31
0.0
  0
LINE
  5
24e
100
AcDbEntity
  8
Layer_1
 62
7
100
AcDbLine
 10
-2.083082
 20
56.506025
 30
0.0
 11
-3.495746
 21
58.222614
 31
0.0
  0
LINE
  5
24f
100
AcDbEntity
  8
Layer_1
 62
7
100
AcDbLine
 10
-3.495746
 20
58.222614
 30
0.0
 11
-4.881090
 21
59.961300
 31
0.0
  0
LINE
  5
250
100
AcDbEntity
  8
Layer_1
 62
7
100
AcDbLine
 10
-4.881090
 20
59.961300
 30
0.0
 11
-6.732242
 21
59.179065
 31
0.0
  0
LINE
  5
251
100
AcDbEntity
  8
Layer_1
 62
7
100
AcDbLine
 10
-6.732242
 20
59.179065
 30
0.0
 11
-8.646329
 21
58.481468
 31
0.0
  0
LINE
  5
252
100
AcDbEntity
  8
Layer_1
 62
7
100
AcDbLine
 10
-8.646329
 20
58.481468
 30
0.0
 11
-10.615478
 21
57.860325
 31
0.0
  0
LINE
  5
253
100
AcDbEntity
  8
Layer_1
 62
7
100
AcDbLine
 10
-10.615478
 20
57.860325
 30
0.0
 11
-12.634299
 21
57.310472
 31
0.0
  0
LINE
  5
254
100
AcDbEntity
  8
Layer_1
 62
7
100
AcDbLine
 10
-12.634299
 20
57.310472
 30
0.0
 11
-14.698670
 21
56.828492
 31
0.0
  0
LINE
  5
255
100
AcDbEntity
  8
Layer_1
 62
7
100
AcDbLine
 10
-14.698670
 20
56.828492
 30
0.0
 11
-15.828518
 21
58.363048
 31
0.0
  0
LINE
  5
256
100
AcDbEntity
  8
Layer_1
 62
7
100
AcDbLine
 10
-15.828518
 20
58.363048
 30
0.0
 11
-16.938837
 21
59.911798
 31
0.0
  0
LINE
  5
257
100
AcDbEntity
  8
Layer_1
 62
7
100
AcDbLine
 10
-16.938837
 20
59.911798
 30
0.0
 11
-15.842488
 21
61.726177
 31
0.0
  0
LINE
  5
258
100
AcDbEntity
  8
Layer_1
 62
7
100
AcDbLine
 10
-15.842488
 20
61.726177
 30
0.0
 11
-14.695706
 21
63.476293
 31
0.0
  0
LINE
  5
259
100
AcDbEntity
  8
Layer_1
 62
7
100
AcDbLine
 10
-14.695706
 20
63.476293
 30
0.0
 11
-13.496459
 21
65.157124
 31
0.0
  0
LINE
  5
25a
100
AcDbEntity
  8
Layer_1
 62
7
100
AcDbLine
 10
-13.496459
 20
65.157124
 30
0.0
 11
-12.241530
 21
66.761953
 31
0.0
  0
LINE
  5
25b
100
AcDbEntity
  8
Layer_1
 62
7
100
AcDbLine
 10
-12.241530
 20
66.761953
 30
0.0
 11
-10.925556
 21
68.280760
 31
0.0
  0
LINE
  5
25c
100
AcDbEntity
  8
Layer_1
 62
7
100
AcDbLine
 10
-10.925556
 20
68.280760
 30
0.0
 11
-12.151050
 21
70.135609
 31
0.0
  0
LINE
  5
25d
100
AcDbEntity
  8
Layer_1
 62
7
100
AcDbLine
 10
-12.151050
 20
70.135609
 30
0.0
 11
-13.347079
 21
72.009564
 31
0.0
  0
LINE
  5
25e
100
AcDbEntity
  8
Layer_1
 62
7
100
AcDbLine
 10
-13.347079
 20
72.009564
 30
0.0
 11
-15.269831
 21
71.425110
 31
0.0
  0
LINE
  5
25f
100
AcDbEntity
  8
Layer_1
 62
7
100
AcDbLine
 10
-15.269831
 20
71.425110
 30
0.0
 11
-17.246346
 21
70.931447
 31
0.0
  0
LINE
  5
260
100
AcDbEntity
  8
Layer_1
 62
7
100
AcDbLine
 10
-17.246346
 20
70.931447
 30
0.0
 11
-19.269654
 21
70.519516
 31
0.0
  0
LINE
  5
261
100
AcDbEntity
  8
Layer_1
 62
7
100
AcDbLine
 10
-19.269654
 20
70.519516
 30
0.0
 11
-21.334871
 21
70.183700
 31
0.0
  0
LINE
  5
262
100
AcDbEntity
  8
Layer_1
 62
7
100
AcDbLine
 10
-21.334871
 20
70.183700
 30
0.0
 11
-23.438330
 21
69.920132
 31
0.0
  0
LINE
  5
263
100
AcDbEntity
  8
Layer_1
 62
7
100
AcDbLine
 10
-23.438330
 20
69.920132
 30
0.0
 11
-24.401582
 21
71.564387
 31
0.0
  0
LINE
  5
264
100
AcDbEntity
  8
Layer_1
 62
7
100
AcDbLine
 10
-24.401582
 20
71.564387
 30
0.0
 11
-25.343922
 21
73.220721
 31
0.0
  0
LINE
  5
265
100
AcDbEntity
  8
Layer_1
 62
7
100
AcDbLine
 10
-25.343922
 20
73.220721
 30
0.0
 11
-24.063932
 21
74.910583
 31
0.0
  0
LINE
  5
266
100
AcDbEntity
  8
Layer_1
 62
7
100
AcDbLine
 10
-24.063932
 20
74.910583
 30
0.0
 11
-22.740507
 21
76.531216
 31
0.0
  0
LINE
  5
267
100
AcDbEntity
  8
Layer_1
 62
7
100
AcDbLine
 10
-22.740507
 20
76.531216
 30
0.0
 11
-21.372124
 21
78.077483
 31
0.0
  0
LINE
  5
268
100
AcDbEntity
  8
Layer_1
 62
7
100
AcDbLine
 10
-21.372124
 20
78.077483
 30
0.0
 11
-19.956328
 21
79.542358
 31
0.0
  0
LINE
  5
269
100
AcDbEntity
  8
Layer_1
 62
7
100
AcDbLine
 10
-19.956328
 20
79.542358
 30
0.0
 11
-18.488801
 21
80.915284
 31
0.0
  0
LINE
  5
26a
100
AcDbEntity
  8
Layer_1
 62
7
100
AcDbLine
 10
-18.488801
 20
80.915284
 30
0.0
 11
-19.513691
 21
82.888074
 31
0.0
  0
LINE
  5
26b
100
AcDbEntity
  8
Layer_1
 62
7
100
AcDbLine
 10
-19.513691
 20
82.888074
 30
0.0
 11
-20.507254
 21
84.876781
 31
0.0
  0
LINE
  5
26c
100
AcDbEntity
  8
Layer_1
 62
7
100
AcDbLine
 10
-20.507254
 20
84.876781
 30
0.0
 11
-22.480609
 21
84.496515
 31
0.0
  0
LINE
  5
26d
100
AcDbEntity
  8
Layer_1
 62
7
100
AcDbLine
 10
-22.480609
 20
84.496515
 30
0.0
 11
-24.497877
 21
84.212148
 31
0.0
  0
LINE
  5
26e
100
AcDbEntity
  8
Layer_1
 62
7
100
AcDbLine
 10
-24.497877
 20
84.212148
 30
0.0
 11
-26.553160
 21
84.013971
 31
0.0
  0
LINE
  5
26f
100
AcDbEntity
  8
Layer_1
 62
7
100
AcDbLine
 10
-26.553160
 20
84.013971
 30
0.0
 11
-28.642169
 21
83.895890
 31
0.0
  0
LINE
  5
270
100
AcDbEntity
  8
Layer_1
 62
7
100
AcDbLine
 10
-28.642169
 20
83.895890
 30
0.0
 11
-30.761658
 21
83.853613
 31
0.0
  0
LINE
  5
271
100
AcDbEntity
  8
Layer_1
 62
7
100
AcDbLine
 10
-30.761658
 20
83.853613
 30
0.0
 11
-31.547760
 21
85.589562
 31
0.0
  0
LINE
  5
272
100
AcDbEntity
  8
Layer_1
 62
7
100
AcDbLine
 10
-31.547760
 20
85.589562
 30
0.0
 11
-32.311792
 21
87.335304
 31
0.0
  0
LINE
  5
273
100
AcDbEntity
  8
Layer_1
 62
7
100
AcDbLine
 10
-32.311792
 20
87.335304
 30
0.0
 11
-30.862185
 21
88.882107
 31
0.0
  0
LINE
  5
274
100
AcDbEntity
  8
Layer_1
 62
7
100
AcDbLine
 10
-30.862185
 20
88.882107
 30
0.0
 11
-29.376596
 21
90.355533
 31
0.0
  0
LINE
  5
275
100
AcDbEntity
  8
Layer_1
 62
7
100
AcDbLine
 10
-29.376596
 20
90.355533
 30
0.0
 11
-27.854092
 21
91.750303
 31
0.0
  0
LINE
  5
276
100
AcDbEntity
  8
Layer_1
 62
7
100
AcDbLine
 10
-27.854092
 20
91.750303
 30
0.0
 11
-26.292923
 21
93.059137
 31
0.0
  0
LINE
  5
277
100
AcDbEntity
  8
Layer_1
 62
7
100
AcDbLine
 10
-26.292923
 20
93.059137
 30
0.0
 11
-24.689929
 21
94.271169
 31
0.0
  0
LINE
  5
278
100
AcDbEntity
  8
Layer_1
 62
7
100
AcDbLine
 10
-24.689929
 20
94.271169
 30
0.0
 11
-25.502983
 21
96.340253
 31
0.0
  0
LINE
  5
279
100
AcDbEntity
  8
Layer_1
 62
7
100
AcDbLine
 10
-25.502983
 20
96.340253
 30
0.0
 11
-26.283243
 21
98.421952
 31
0.0
  0
LINE
  5
27a
100
AcDbEntity
  8
Layer_1
 62
7
100
AcDbLine
 10
-26.283243
 20
98.421952
 30
0.0
 11
-28.285525
 21
98.250050
 31
0.0
  0
LINE
  5
27b
100
AcDbEntity
  8
Layer_1
 62
7
100
AcDbLine
 10
-28.285525
 20
98.250050
 30
0.0
 11
-30.321476
 21
98.178084
 31
0.0
  0
LINE
  5
27c
100
AcDbEntity
  8
Layer_1
 62
7
100
AcDbLine
 10
-30.321476
 20
98.178084
 30
0.0
 11
-32.386214
 21
98.195836
 31
0.0
  0
LINE
  5
27d
100
AcDbEntity
  8
Layer_1
 62
7
100
AcDbLine
 10
-32.386214
 20
98.195836
 30
0.0
 11
-34.476126
 21
98.296758
 31
0.0
  0
LINE
  5
27e
100
AcDbEntity
  8
Layer_1
 62
7
100
AcDbLine
 10
-34.476126
 20
98.296758
 30
0.0
 11
-36.588418
 21
98.476280
 31
0.0
  0
LINE
  5
27f
100
AcDbEntity
  8
Layer_1
 62
7
100
AcDbLine
 10
-36.588418
 20
98.476280
 30
0.0
 11
-37.188761
 21
100.284873
 31
0.0
  0
LINE
  5
280
100
AcDbEntity
  8
Layer_1
 62
7
100
AcDbLine
 10
-37.188761
 20
100.284873
 30
0.0
 11
-37.766131
 21
102.100916
 31
0.0
  0
LINE
  5
281
100
AcDbEntity
  8
Layer_1
 62
7
100
AcDbLine
 10
-37.766131
 20
102.100916
 30
0.0
 11
-36.162770
 21
103.487728
 31
0.0
  0
LINE
  5
282
100
AcDbEntity
  8
Layer_1
 62
7
100
AcDbLine
 10
-36.162770
 20
103.487728
 30
0.0
 11
-34.531300
 21
104.797775
 31
0.0
  0
LINE
  5
283
100
AcDbEntity
  8
Layer_1
 62
7
100
AcDbLine
 10
-34.531300
 20
104.797775
 30
0.0
 11
-32.871354
 21
106.025752
 31
0.0
  0
LINE
  5
284
100
AcDbEntity
  8
Layer_1
 62
7
100
AcDbLine
 10
-32.871354
 20
106.025752
 30
0.0
 11
-31.181915
 21
107.164265
 31
0.0
  0
LINE
  5
285
100
AcDbEntity
  8
Layer_1
 62
7
100
AcDbLine
 10
-31.181915
 20
107.164265
 30
0.0
 11
-29.461008
 21
108.202081
 31
0.0
  0
LINE
  5
286
100
AcDbEntity
  8
Layer_1
 62
7
100
AcDbLine
 10
-29.461008
 20
108.202081
 30
0.0
 11
-30.053336
 21
110.344825
 31
0.0
  0
LINE
  5
287
100
AcDbEntity
  8
Layer_1
 62
7
100
AcDbLine
 10
-30.053336
 20
110.344825
 30
0.0
 11
-30.611741
 21
112.496656
 31
0.0
  0
LINE
  5
288
100
AcDbEntity
  8
Layer_1
 62
7
100
AcDbLine
 10
-30.611741
 20
112.496656
 30
0.0
 11
-32.621022
 21
112.534982
 31
0.0
  0
LINE
  5
289
100
AcDbEntity
  8
Layer_1
 62
7
100
AcDbLine
 10
-32.621022
 20
112.534982
 30
0.0
 11
-34.653333
 21
112.676234
 31
0.0
  0
LINE
  5
28a
100
AcDbEntity
  8
Layer_1
 62
7
100
AcDbLine
 10
-34.653333
 20
112.676234
 30
0.0
 11
-36.704891
 21
112.909717
 31
0.0
  0
LINE
  5
28b
100
AcDbEntity
  8
Layer_1
 62
7
100
AcDbLine
 10
-36.704891
 20
112.909717
 30
0.0
 11
-38.772818
 21
113.228543
 31
0.0
  0
LINE
  5
28c
100
AcDbEntity
  8
Layer_1
 62
7
100
AcDbLine
 10
-38.772818
 20
113.228543
 30
0.0
 11
-40.854771
 21
113.627888
 31
0.0
  0
LINE
  5
28d
100
AcDbEntity
  8
Layer_1
 62
7
100
AcDbLine
 10
-40.854771
 20
113.627888
 30
0.0
 11
-41.262780
 21
115.489313
 31
0.0
  0
LINE
  5
28e
100
AcDbEntity
  8
Layer_1
 62
7
100
AcDbLine
 10
-41.262780
 20
115.489313
 30
0.0
 11
-41.647166
 21
117.355761
 31
0.0
  0
LINE
  5
28f
100
AcDbEntity
  8
Layer_1
 62
7
100
AcDbLine
 10
-41.647166
 20
117.355761
 30
0.0
 11
-39.907633
 21
118.567369
 31
0.0
  0
LINE
  5
290
100
AcDbEntity
  8
Layer_1
 62
7
100
AcDbLine
 10
-39.907633
 20
118.567369
 30
0.0
 11
-38.148147
 21
119.699730
 31
0.0
  0
LINE
  5
291
100
AcDbEntity
  8
Layer_1
 62
7
100
AcDbLine
 10
-38.148147
 20
119.699730
 30
0.0
 11
-36.368934
 21
120.747480
 31
0.0
  0
LINE
  5
292
100
AcDbEntity
  8
Layer_1
 62
7
100
AcDbLine
 10
-36.368934
 20
120.747480
 30
0.0
 11
-34.569767
 21
121.703140
 31
0.0
  0
LINE
  5
293
100
AcDbEntity
  8
Layer_1
 62
7
100
AcDbLine
 10
-34.569767
 20
121.703140
 30
0.0
 11
-32.749800
 21
122.555395
 31
0.0
  0
LINE
  5
294
100
AcDbEntity
  8
Layer_1
 62
7
100
AcDbLine
 10
-32.749800
 20
122.555395
 30
0.0
 11
-33.114911
 21
124.748318
 31
0.0
  0
LINE
  5
295
100
AcDbEntity
  8
Layer_1
 62
7
100
AcDbLine
 10
-33.114911
 20
124.748318
 30
0.0
 11
-33.445309
 21
126.946745
 31
0.0
  0
LINE
  5
296
100
AcDbEntity
  8
Layer_1
 62
7
100
AcDbLine
 10
-33.445309
 20
126.946745
 30
0.0
 11
-35.439576
 21
127.194874
 31
0.0
  0
LINE
  5
297
100
AcDbEntity
  8
Layer_1
 62
7
100
AcDbLine
 10
-35.439576
 20
127.194874
 30
0.0
 11
-37.446006
 21
127.547793
 31
0.0
  0
LINE
  5
298
100
AcDbEntity
  8
Layer_1
 62
7
100
AcDbLine
 10
-37.446006
 20
127.547793
 30
0.0
 11
-39.461920
 21
127.994438
 31
0.0
  0
LINE
  5
299
100
AcDbEntity
  8
Layer_1
 62
7
100
AcDbLine
 10
-39.461920
 20
127.994438
 30
0.0
 11
-41.485171
 21
128.527669
 31
0.0
  0
LINE
  5
29a
100
AcDbEntity
  8
Layer_1
 62
7
100
AcDbLine
 10
-41.485171
 20
128.527669
 30
0.0
 11
-43.513982
 21
129.142434
 31
0.0
  0
LINE
  5
29b
100
AcDbEntity
  8
Layer_1
 62
7
100
AcDbLine
 10
-43.513982
 20
129.142434
 30
0.0
 11
-43.725197
 21
131.036314
 31
0.0
  0
LINE
  5
29c
100
AcDbEntity
  8
Layer_1
 62
7
100
AcDbLine
 10
-43.725197
 20
131.036314
 30
0.0
 11
-43.912367
 21
132.932734
 31
0.0
  0
LINE
  5
29d
100
AcDbEntity
  8
Layer_1
 62
7
100
AcDbLine
 10
-43.912367
 20
132.932734
 30
0.0
 11
-42.055711
 21
133.955875
 31
0.0
  0
LINE
  5
29e
100
AcDbEntity
  8
Layer_1
 62
7
100
AcDbLine
 10
-42.055711
 20
133.955875
 30
0.0
 11
-40.187513
 21
134.898102
 31
0.0
  0
LINE
  5
29f
100
AcDbEntity
  8
Layer_1
 62
7
100
AcDbLine
 10
-40.187513
 20
134.898102
 30
0.0
 11
-38.308506
 21
135.754138
 31
0.0
  0
LINE
  5
2a0
100
AcDbEntity
  8
Layer_1
 62
7
100
AcDbLine
 10
-38.308506
 20
135.754138
 30
0.0
 11
-36.419310
 21
136.516505
 31
0.0
  0
LINE
  5
2a1
100
AcDbEntity
  8
Layer_1
 62
7
100
AcDbLine
 10
-36.419310
 20
136.516505
 30
0.0
 11
-34.520237
 21
137.173857
 31
0.0
  0
LINE
  5
2a2
100
AcDbEntity
  8
Layer_1
 62
7
100
AcDbLine
 10
-34.520237
 20
137.173857
 30
0.0
 11
-34.654123
 21
139.392914
 31
0.0
  0
LINE
  5
2a3
100
AcDbEntity
  8
Layer_1
 62
7
100
AcDbLine
 10
-34.654123
 20
139.392914
 30
0.0
 11
-34.752929
 21
141.613834
 31
0.0
  0
LINE
  5
2a4
100
AcDbEntity
  8
Layer_1
 62
7
100
AcDbLine
 10
-34.752929
 20
141.613834
 30
0.0
 11
-36.710310
 21
142.069086
 31
0.0
  0
LINE
  5
2a5
100
AcDbEntity
  8
Layer_1
 62
7
100
AcDbLine
 10
-36.710310
 20
142.069086
 30
0.0
 11
-38.668847
 21
142.629777
 31
0.0
  0
LINE
  5
2a6
100
AcDbEntity
  8
Layer_1
 62
7
100
AcDbLine
 10
-38.668847
 20
142.629777
 30
0.0
 11
-40.627046
 21
143.284702
 31
0.0
  0
LINE
  5
2a7
100
AcDbEntity
  8
Layer_1
 62
7
100
AcDbLine
 10
-40.627046
 20
143.284702
 30
0.0
 11
-42.583495
 21
144.026495
 31
0.0
  0
LINE
  5
2a8
100
AcDbEntity
  8
Layer_1
 62
7
100
AcDbLine
 10
-42.583495
 20
144.026495
 30
0.0
 11
-44.536924
 21
144.849963
 31
0.0
  0
LINE
  5
2a9
100
AcDbEntity
  8
Layer_1
 62
7
100
AcDbLine
 10
-44.536924
 20
144.849963
 30
0.0
 11
-44.549004
 21
146.755556
 31
0.0
  0
LINE
  5
2aa
100
AcDbEntity
  8
Layer_1
 62
7
100
AcDbLine
 10
-44.549004
 20
146.755556
 30
0.0
 11
-44.536924
 21
148.661148
 31
0.0
  0
LINE
  5
2ab
100
AcDbEntity
  8
Layer_1
 62
7
100
AcDbLine
 10
-44.536924
 20
148.661148
 30
0.0
 11
-42.583495
 21
149.484616
 31
0.0
  0
LINE
  5
2ac
100
AcDbEntity
  8
Layer_1
 62
7
100
AcDbLine
 10
-42.583495
 20
149.484616
 30
0.0
 11
-40.627046
 21
150.226409
 31
0.0
  0
LINE
  5
2ad
100
AcDbEntity
  8
Layer_1
 62
7
100
AcDbLine
 10
-40.627046
 20
150.226409
 30
0.0
 11
-38.668847
 21
150.881334
 31
0.0
  0
LINE
  5
2ae
100
AcDbEntity
  8
Layer_1
 62
7
100
AcDbLine
 10
-38.668847
 20
150.881334
 30
0.0
 11
-36.710310
 21
151.442025
 31
0.0
  0
LINE
  5
2af
100
AcDbEntity
  8
Layer_1
 62
7
100
AcDbLine
 10
-36.710310
 20
151.442025
 30
0.0
 11
-34.752929
 21
151.897278
 31
0.0
  0
LINE
  5
2b0
100
AcDbEntity
  8
Layer_1
 62
7
100
AcDbLine
 10
-34.752929
 20
151.897278
 30
0.0
 11
-34.654123
 21
154.118197
 31
0.0
  0
LINE
  5
2b1
100
AcDbEntity
  8
Layer_1
 62
7
100
AcDbLine
 10
-34.654123
 20
154.118197
 30
0.0
 11
-34.520237
 21
156.337254
 31
0.0
  0
LINE
  5
2b2
100
AcDbEntity
  8
Layer_1
 62
7
100
AcDbLine
 10
-34.520237
 20
156.337254
 30
0.0
 11
-36.419310
 21
156.994606
 31
0.0
  0
LINE
  5
2b3
100
AcDbEntity
  8
Layer_1
 62
7
100
AcDbLine
 10
-36.419310
 20
156.994606
 30
0.0
 11
-38.308506
 21
157.756973
 31
0.0
  0
LINE
  5
2b4
100
AcDbEntity
  8
Layer_1
 62
7
100
AcDbLine
 10
-38.308506
 20
157.756973
 30
0.0
 11
-40.187513
 21
158.613009
 31
0.0
  0
LINE
  5
2b5
100
AcDbEntity
  8
Layer_1
 62
7
100
AcDbLine
 10
-40.187513
 20
158.613009
 30
0.0
 11
-42.055711
 21
159.555236
 31
0.0
  0
LINE
  5
2b6
100
AcDbEntity
  8
Layer_1
 62
7
100
AcDbLine
 10
-42.055711
 20
159.555236
 30
0.0
 11
-43.912367
 21
160.578377
 31
0.0
  0
LINE
  5
2b7
100
AcDbEntity
  8
Layer_1
 62
7
100
AcDbLine
 10
-43.912367
 20
160.578377
 30
0.0
 11
-43.725197
 21
162.474797
 31
0.0
  0
LINE
  5
2b8
100
AcDbEntity
  8
Layer_1
 62
7
100
AcDbLine
 10
-43.725197
 20
162.474797
 30
0.0
 11
-43.513982
 21
164.368678
 31
0.0
  0
LINE
  5
2b9
100
AcDbEntity
  8
Layer_1
 62
7
100
AcDbLine
 10
-43.513982
 20
164.368678
 30
0.0
 11
-41.485171
 21
164.983442
 31
0.0
  0
LINE
  5
2ba
100
AcDbEntity
  8
Layer_1
 62
7
100
AcDbLine
 10
-41.485171
 20
164.983442
 30
0.0
 11
-39.461920
 21
165.516673
 31
0.0
  0
LINE
  5
2bb
100
AcDbEntity
  8
Layer_1
 62
7
100
AcDbLine
 10
-39.461920
 20
165.516673
 30
0.0
 11
-37.446006
 21
165.963318
 31
0.0
  0
LINE
  5
2bc
100
AcDbEntity
  8
Layer_1
 62
7
100
AcDbLine
 10
-37.446006
 20
165.963318
 30
0.0
 11
-35.439576
 21
166.316237
 31
0.0
  0
LINE
  5
2bd
100
AcDbEntity
  8
Layer_1
 62
7
100
AcDbLine
 10
-35.439576
 20
166.316237
 30
0.0
 11
-33.445309
 21
166.564366
 31
0.0
  0
LINE
  5
2be
100
AcDbEntity
  8
Layer_1
 62
7
100
AcDbLine
 10
-33.445309
 20
166.564366
 30
0.0
 11
-33.114911
 21
168.762793
 31
0.0
  0
LINE
  5
2bf
100
AcDbEntity
  8
Layer_1
 62
7
100
AcDbLine
 10
-33.114911
 20
168.762793
 30
0.0
 11
-32.749800
 21
170.955716
 31
0.0
  0
LINE
  5
2c0
100
AcDbEntity
  8
Layer_1
 62
7
100
AcDbLine
 10
-32.749800
 20
170.955716
 30
0.0
 11
-34.569767
 21
171.807971
 31
0.0
  0
LINE
  5
2c1
100
AcDbEntity
  8
Layer_1
 62
7
100
AcDbLine
 10
-34.569767
 20
171.807971
 30
0.0
 11
-36.368934
 21
172.763632
 31
0.0
  0
LINE
  5
2c2
100
AcDbEntity
  8
Layer_1
 62
7
100
AcDbLine
 10
-36.368934
 20
172.763632
 30
0.0
 11
-38.148147
 21
173.811382
 31
0.0
  0
LINE
  5
2c3
100
AcDbEntity
  8
Layer_1
 62
7
100
AcDbLine
 10
-38.148147
 20
173.811382
 30
0.0
 11
-39.907633
 21
174.943742
 31
0.0
  0
LINE
  5
2c4
100
AcDbEntity
  8
Layer_1
 62
7
100
AcDbLine
 10
-39.907633
 20
174.943742
 30
0.0
 11
-41.647166
 21
176.155350
 31
0.0
  0
LINE
  5
2c5
100
AcDbEntity
  8
Layer_1
 62
7
100
AcDbLine
 10
-41.647166
 20
176.155350
 30
0.0
 11
-41.262780
 21
178.021798
 31
0.0
  0
LINE
  5
2c6
100
AcDbEntity
  8
Layer_1
 62
7
100
AcDbLine
 10
-41.262780
 20
178.021798
 30
0.0
 11
-40.854771
 21
179.883223
 31
0.0
  0
LINE
  5
2c7
100
AcDbEntity
  8
Layer_1
 62
7
100
AcDbLine
 10
-40.854771
 20
179.883223
 30
0.0
 11
-38.772818
 21
180.282568
 31
0.0
  0
LINE
  5
2c8
100
AcDbEntity
  8
Layer_1
 62
7
100
AcDbLine
 10
-38.772818
 20
180.282568
 30
0.0
 11
-36.704891
 21
180.601394
 31
0.0
  0
LINE
  5
2c9
100
AcDbEntity
  8
Layer_1
 62
7
100
AcDbLine
 10
-36.704891
 20
180.601394
 30
0.0
 11
-34.653333
 21
180.834877
 31
0.0
  0
LINE
  5
2ca
100
AcDbEntity
  8
Layer_1
 62
7
100
AcDbLine
 10
-34.653333
 20
180.834877
 30
0.0
 11
-32.621022
 21
180.976129
 31
0.0
  0
LINE
  5
2cb
100
AcDbEntity
  8
Layer_1
 62
7
100
AcDbLine
 10
-32.621022
 20
180.976129
 30
0.0
 11
-30.611741
 21
181.014455
 31
0.0
  0
LINE
  5
2cc
100
AcDbEntity
  8
Layer_1
 62
7
100
AcDbLine
 10
-30.611741
 20
181.014455
 30
0.0
 11
-30.053336
 21
183.166286
 31
0.0
  0
LINE
  5
2cd
100
AcDbEntity
  8
Layer_1
 62
7
100
AcDbLine
 10
-30.053336
 20
183.166286
 30
0.0
 11
-29.461008
 21
185.309030
 31
0.0
  0
LINE
  5
2ce
100
AcDbEntity
  8
Layer_1
 62
7
100
AcDbLine
 10
-29.461008
 20
185.309030
 30
0.0
 11
-31.181915
 21
186.346846
 31
0.0
  0
LINE
  5
2cf
100
AcDbEntity
  8
Layer_1
 62
7
100
AcDbLine
 10
-31.181915
 20
186.346846
 30
0.0
 11
-32.871354
 21
187.485359
 31
0.0
  0
LINE
  5
2d0
100
AcDbEntity
  8
Layer_1
 62
7
100
AcDbLine
 10
-32.871354
 20
187.485359
 30
0.0
 11
-34.531300
 21
188.713336
 31
0.0
  0
LINE
  5
2d1
100
AcDbEntity
  8
Layer_1
 62
7
100
AcDbLine
 10
-34.531300
 20
188.713336
 30
0.0
 11
-36.162770
 21
190.023383
 31
0.0
  0
LINE
  5
2d2
100
AcDbEntity
  8
Layer_1
 62
7
100
AcDbLine
 10
-36.162770
 20
190.023383
 30
0.0
 11
-37.766131
 21
191.410195
 31
0.0
  0
LINE
  5
2d3
100
AcDbEntity
  8
Layer_1
 62
7
100
AcDbLine
 10
-37.766131
 20
191.410195
 30
0.0
 11
-37.188761
 21
193.226238
 31
0.0
  0
LINE
  5
2d4
100
AcDbEntity
  8
Layer_1
 62
7
100
AcDbLine
 10
-37.188761
 20
193.226238
 30
0.0
 11
-36.588418
 21
195.034831
 31
0.0
  0
LINE
  5
2d5
100
AcDbEntity
  8
Layer_1
 62
7
100
AcDbLine
 10
-36.588418
 20
195.034831
 30
0.0
 11
-34.476126
 21
195.214353
 31
0.0
  0
LINE
  5
2d6
100
AcDbEntity
  8
Layer_1
 62
7
100
AcDbLine
 10
-34.476126
 20
195.214353
 30
0.0
 11
-32.386214
 21
195.315276
 31
0.0
  0
LINE
  5
2d7
100
AcDbEntity
  8
Layer_1
 62
7
100
AcDbLine
 10
-32.386214
 20
195.315276
 30
0.0
 11
-30.321476
 21
195.333027
 31
0.0
  0
LINE
  5
2d8
100
AcDbEntity
  8
Layer_1
 62
7
100
AcDbLine
 10
-30.321476
 20
195.333027
 30
0.0
 11
-28.285525
 21
195.261061
 31
0.0
  0
LINE
  5
2d9
100
AcDbEntity
  8
Layer_1
 62
7
100
AcDbLine
 10
-28.285525
 20
195.261061
 30
0.0
 11
-26.283243
 21
195.089159
 31
0.0
  0
LINE
  5
2da
100
AcDbEntity
  8
Layer_1
 62
7
100
AcDbLine
 10
-26.283243
 20
195.089159
 30
0.0
 11
-25.502983
 21
197.170858
 31
0.0
  0
LINE
  5
2db
100
AcDbEntity
  8
Layer_1
 62
7
100
AcDbLine
 10
-25.502983
 20
197.170858
 30
0.0
 11
-24.689929
 21
199.239942
 31
0.0
  0
LINE
  5
2dc
100
AcDbEntity
  8
Layer_1
 62
7
100
AcDbLine
 10
-24.689929
 20
199.239942
 30
0.0
 11
-26.292923
 21
200.451974
 31
0.0
  0
LINE
  5
2dd
100
AcDbEntity
  8
Layer_1
 62
7
100
AcDbLine
 10
-26.292923
 20
200.451974
 30
0.0
 11
-27.854092
 21
201.760808
 31
0.0
  0
LINE
  5
2de
100
AcDbEntity
  8
Layer_1
 62
7
100
AcDbLine
 10
-27.854092
 20
201.760808
 30
0.0
 11
-29.376596
 21
203.155578
 31
0.0
  0
LINE
  5
2df
100
AcDbEntity
  8
Layer_1
 62
7
100
AcDbLine
 10
-29.376596
 20
203.155578
 30
0.0
 11
-30.862185
 21
204.629004
 31
0.0
  0
LINE
  5
2e0
100
AcDbEntity
  8
Layer_1
 62
7
100
AcDbLine
 10
-30.862185
 20
204.629004
 30
0.0
 11
-32.311792
 21
206.175808
 31
0.0
  0
LINE
  5
2e1
100
AcDbEntity
  8
Layer_1
 62
7
100
AcDbLine
 10
-32.311792
 20
206.175808
 30
0.0
 11
-31.547760
 21
207.921550
 31
0.0
  0
LINE
  5
2e2
100
AcDbEntity
  8
Layer_1
 62
7
100
AcDbLine
 10
-31.547760
 20
207.921550
 30
0.0
 11
-30.761658
 21
209.657498
 31
0.0
  0
LINE
  5
2e3
100
AcDbEntity
  8
Layer_1
 62
7
100
AcDbLine
 10
-30.761658
 20
209.657498
 30
0.0
 11
-28.642169
 21
209.615222
 31
0.0
  0
LINE
  5
2e4
100
AcDbEntity
  8
Layer_1
 62
7
100
AcDbLine
 10
-28.642169
 20
209.615222
 30
0.0
 11
-26.553160
 21
209.497140
 31
0.0
  0
LINE
  5
2e5
100
AcDbEntity
  8
Layer_1
 62
7
100
AcDbLine
 10
-26.553160
 20
209.497140
 30
0.0
 11
-24.497877
 21
209.298963
 31
0.0
  0
LINE
  5
2e6
100
AcDbEntity
  8
Layer_1
 62
7
100
AcDbLine
 10
-24.497877
 20
209.298963
 30
0.0
 11
-22.480609
 21
209.014596
 31
0.0
  0
LINE
  5
2e7
100
AcDbEntity
  8
Layer_1
 62
7
100
AcDbLine
 10
-22.480609
 20
209.014596
 30
0.0
 11
-20.507254
 21
208.634330
 31
0.0
  0
LINE
  5
2e8
100
AcDbEntity
  8
Layer_1
 62
7
100
AcDbLine
 10
-20.507254
 20
208.634330
 30
0.0
 11
-19.513691
 21
210.623037
 31
0.0
  0
LINE
  5
2e9
100
AcDbEntity
  8
Layer_1
 62
7
100
AcDbLine
 10
-19.513691
 20
210.623037
 30
0.0
 11
-18.488801
 21
212.595827
 31
0.0
  0
LINE
  5
2ea
100
AcDbEntity
  8
Layer_1
 62
7
100
AcDbLine
 10
-18.488801
 20
212.595827
 30
0.0
 11
-19.956328
 21
213.968753
 31
0.0
  0
LINE
  5
2eb
100
AcDbEntity
  8
Layer_1
 62
7
100
AcDbLine
 10
-19.956328
 20
213.968753
 30
0.0
 11
-21.372124
 21
215.433628
 31
0.0
  0
LINE
  5
2ec
100
AcDbEntity
  8
Layer_1
 62
7
100
AcDbLine
 10
-21.372124
 20
215.433628
 30
0.0
 11
-22.740507
 21
216.979895
 31
0.0
  0
LINE
  5
2ed
100
AcDbEntity
  8
Layer_1
 62
7
100
AcDbLine
 10
-22.740507
 20
216.979895
 30
0.0
 11
-24.063932
 21
218.600528
 31
0.0
  0
LINE
  5
2ee
100
AcDbEntity
  8
Layer_1
 62
7
100
AcDbLine
 10
-24.063932
 20
218.600528
 30
0.0
 11
-25.343922
 21
220.290390
 31
0.0
  0
LINE
  5
2ef
100
AcDbEntity
  8
Layer_1
 62
7
100
AcDbLine
 10
-25.343922
 20
220.290390
 30
0.0
 11
-24.401582
 21
221.946724
 31
0.0
  0
LINE
  5
2f0
100
AcDbEntity
  8
Layer_1
 62
7
100
AcDbLine
 10
-24.401582
 20
221.946724
 30
0.0
 11
-23.438330
 21
223.590979
 31
0.0
  0
LINE
  5
2f1
100
AcDbEntity
  8
Layer_1
 62
7
100
AcDbLine
 10
-23.438330
 20
223.590979
 30
0.0
 11
-21.334871
 21
223.327412
 31
0.0
  0
LINE
  5
2f2
100
AcDbEntity
  8
Layer_1
 62
7
100
AcDbLine
 10
-21.334871
 20
223.327412
 30
0.0
 11
-19.269654
 21
222.991595
 31
0.0
  0
LINE
  5
2f3
100
AcDbEntity
  8
Layer_1
 62
7
100
AcDbLine
 10
-19.269654
 20
222.991595
 30
0.0
 11
-17.246346
 21
222.579664
 31
0.0
  0
LINE
  5
2f4
100
AcDbEntity
  8
Layer_1
 62
7
100
AcDbLine
 10
-17.246346
 20
222.579664
 30
0.0
 11
-15.269831
 21
222.086001
 31
0.0
  0
LINE
  5
2f5
100
AcDbEntity
  8
Layer_1
 62
7
100
AcDbLine
 10
-15.269831
 20
222.086001
 30
0.0
 11
-13.347079
 21
221.501547
 31
0.0
  0
LINE
  5
2f6
100
AcDbEntity
  8
Layer_1
 62
7
100
AcDbLine
 10
-13.347079
 20
221.501547
 30
0.0
 11
-12.151050
 21
223.375502
 31
0.0
  0
LINE
  5
2f7
100
AcDbEntity
  8
Layer_1
 62
7
100
AcDbLine
 10
-12.151050
 20
223.375502
 30
0.0
 11
-10.925556
 21
225.230351
 31
0.0
  0
LINE
  5
2f8
100
AcDbEntity
  8
Layer_1
 62
7
100
AcDbLine
 10
-10.925556
 20
225.230351
 30
0.0
 11
-12.241530
 21
226.749158
 31
0.0
  0
LINE
  5
2f9
100
AcDbEntity
  8
Layer_1
 62
7
100
AcDbLine
 10
-12.241530
 20
226.749158
 30
0.0
 11
-13.496459
 21
228.353987
 31
0.0
  0
LINE
  5
2fa
100
AcDbEntity
  8
Layer_1
 62
7
100
AcDbLine
 10
-13.496459
 20
228.353987
 30
0.0
 11
-14.695706
 21
230.034818
 31
0.0
  0
LINE
  5
2fb
100
AcDbEntity
  8
Layer_1
 62
7
100
AcDbLine
 10
-14.695706
 20
230.034818
 30
0.0
 11
-15.842488
 21
231.784934
 31
0.0
  0
LINE
  5
2fc
100
AcDbEntity
  8
Layer_1
 62
7
100
AcDbLine
 10
-15.842488
 20
231.784934
 30
0.0
 11
-16.938837
 21
233.599313
 31
0.0
  0
LINE
  5
2fd
100
AcDbEntity
  8
Layer_1
 62
7
100
AcDbLine
 10
-16.938837
 20
233.599313
 30
0.0
 11
-15.828518
 21
235.148064
 31
0.0
  0
LINE
  5
2fe
100
AcDbEntity
  8
Layer_1
 62
7
100
AcDbLine
 10
-15.828518
 20
235.148064
 30
0.0
 11
-14.698670
 21
236.682619
 31
0.0
  0
LINE
  5
2ff
100
AcDbEntity
  8
Layer_1
 62
7
100
AcDbLine
 10
-14.698670
 20
236.682619
 30
0.0
 11
-12.634299
 21
236.200640
 31
0.0
  0
LINE
  5
300
100
AcDbEntity
  8
Layer_1
 62
7
100
AcDbLine
 10
-12.634299
 20
236.200640
 30
0.0
 11
-10.615478
 21
235.650786
 31
0.0
  0
LINE
  5
301
100
AcDbEntity
  8
Layer_1
 62
7
100
AcDbLine
 10
-10.615478
 20
235.650786
 30
0.0
 11
-8.646329
 21
235.029643
 31
0.0
  0
LINE
  5
302
100
AcDbEntity
  8
Layer_1
 62
7
100
AcDbLine
 10
-8.646329
 20
235.029643
 30
0.0
 11
-6.732242
 21
234.332046
 31
0.0
  0
LINE
  5
303
100
AcDbEntity
  8
Layer_1
 62
7
100
AcDbLine
 10
-6.732242
 20
234.332046
 30
0.0
 11
-4.881090
 21
233.549811
 31
0.0
  0
LINE
  5
304
100
AcDbEntity
  8
Layer_1
 62
7
100
AcDbLine
 10
-4.881090
 20
233.549811
 30
0.0
 11
-3.495746
 21
235.288497
 31
0.0
  0
LINE
  5
305
100
AcDbEntity
  8
Layer_1
 62
7
100
AcDbLine
 10
-3.495746
 20
235.288497
 30
0.0
 11
-2.083082
 21
237.005086
 31
0.0
  0
LINE
  5
306
100
AcDbEntity
  8
Layer_1
 62
7
100
AcDbLine
 10
-2.083082
 20
237.005086
 30
0.0
 11
-3.233110
 21
238.653122
 31
0.0
  0
LINE
  5
307
100
AcDbEntity
  8
Layer_1
 62
7
100
AcDbLine
 10
-3.233110
 20
238.653122
 30
0.0
 11
-4.313400
 21
240.380351
 31
0.0
  0
LINE
  5
308
100
AcDbEntity
  8
Layer_1
 62
7
100
AcDbLine
 10
-4.313400
 20
240.380351
 30
0.0
 11
-5.330388
 21
242.177316
 31
0.0
  0
LINE
  5
309
100
AcDbEntity
  8
Layer_1
 62
7
100
AcDbLine
 10
-5.330388
 20
242.177316
 30
0.0
 11
-6.287968
 21
244.037697
 31
0.0
  0
LINE
  5
30a
100
AcDbEntity
  8
Layer_1
 62
7
100
AcDbLine
 10
-6.287968
 20
244.037697
 30
0.0
 11
-7.188623
 21
245.956780
 31
0.0
  0
LINE
  5
30b
100
AcDbEntity
  8
Layer_1
 62
7
100
AcDbLine
 10
-7.188623
 20
245.956780
 30
0.0
 11
-5.922518
 21
247.380986
 31
0.0
  0
LINE
  5
30c
100
AcDbEntity
  8
Layer_1
 62
7
100
AcDbLine
 10
-5.922518
 20
247.380986
 30
0.0
 11
-4.638463
 21
248.789021
 31
0.0
  0
LINE
  5
30d
100
AcDbEntity
  8
Layer_1
 62
7
100
AcDbLine
 10
-4.638463
 20
248.789021
 30
0.0
 11
-2.635758
 21
248.093879
 31
0.0
  0
LINE
  5
30e
100
AcDbEntity
  8
Layer_1
 62
7
100
AcDbLine
 10
-2.635758
 20
248.093879
 30
0.0
 11
-0.685490
 21
247.336028
 31
0.0
  0
LINE
  5
30f
100
AcDbEntity
  8
Layer_1
 62
7
100
AcDbLine
 10
-0.685490
 20
247.336028
 30
0.0
 11
1.207968
 21
246.512447
 31
0.0
  0
LINE
  5
310
100
AcDbEntity
  8
Layer_1
 62
7
100
AcDbLine
 10
1.207968
 20
246.512447
 30
0.0
 11
3.038630
 21
245.618593
 31
0.0
  0
LINE
  5
311
100
AcDbEntity
  8
Layer_1
 62
7
100
AcDbLine
 10
3.038630
 20
245.618593
 30
0.0
 11
4.797862
 21
244.647156
 31
0.0
  0
LINE
  5
312
100
AcDbEntity
  8
Layer_1
 62
7
100
AcDbLine
 10
4.797862
 20
244.647156
 30
0.0
 11
6.357366
 21
246.231523
 31
0.0
  0
LINE
  5
313
100
AcDbEntity
  8
Layer_1
 62
7
100
AcDbLine
 10
6.357366
 20
246.231523
 30
0.0
 11
7.941733
 21
247.791026
 31
0.0
  0
LINE
  5
314
100
AcDbEntity
  8
Layer_1
 62
7
100
AcDbLine
 10
7.941733
 20
247.791026
 30
0.0
 11
6.970296
 21
249.550259
 31
0.0
  0
LINE
  5
315
100
AcDbEntity
  8
Layer_1
 62
7
100
AcDbLine
 10
6.970296
 20
249.550259
 30
0.0
 11
6.076442
 21
251.380921
 31
0.0
  0
LINE
  5
316
100
AcDbEntity
  8
Layer_1
 62
7
100
AcDbLine
 10
6.076442
 20
251.380921
 30
0.0
 11
5.252861
 21
253.274378
 31
0.0
  0
LINE
  5
317
100
AcDbEntity
  8
Layer_1
 62
7
100
AcDbLine
 10
5.252861
 20
253.274378
 30
0.0
 11
4.495010
 21
255.224647
 31
0.0
  0
LINE
  5
318
100
AcDbEntity
  8
Layer_1
 62
7
100
AcDbLine
 10
4.495010
 20
255.224647
 30
0.0
 11
3.799868
 21
257.227352
 31
0.0
  0
LINE
  5
319
100
AcDbEntity
  8
Layer_1
 62
7
100
AcDbLine
 10
3.799868
 20
257.227352
 30
0.0
 11
5.207903
 21
258.511407
 31
0.0
  0
LINE
  5
31a
100
AcDbEntity
  8
Layer_1
 62
7
100
AcDbLine
 10
5.207903
 20
258.511407
 30
0.0
 11
6.632109
 21
259.777512
 31
0.0
  0
LINE
  5
31b
100
AcDbEntity
  8
Layer_1
 62
7
100
AcDbLine
 10
6.632109
 20
259.777512
 30
0.0
 11
8.551192
 21
258.876856
 31
0.0
  0
LINE
  5
31c
100
AcDbEntity
  8
Layer_1
 62
7
100
AcDbLine
 10
8.551192
 20
258.876856
 30
0.0
 11
10.411573
 21
257.919276
 31
0.0
  0
LINE
  5
31d
100
AcDbEntity
  8
Layer_1
 62
7
100
AcDbLine
 10
10.411573
 20
257.919276
 30
0.0
 11
12.208538
 21
256.902289
 31
0.0
  0
LINE
  5
31e
100
AcDbEntity
  8
Layer_1
 62
7
100
AcDbLine
 10
12.208538
 20
256.902289
 30
0.0
 11
13.935766
 21
255.821998
 31
0.0
  0
LINE
  5
31f
100
AcDbEntity
  8
Layer_1
 62
7
100
AcDbLine
 10
13.935766
 20
255.821998
 30
0.0
 11
15.583803
 21
254.671971
 31
0.0
  0
LINE
  5
320
100
AcDbEntity
  8
Layer_1
 62
7
100
AcDbLine
 10
15.583803
 20
254.671971
 30
0.0
 11
17.300392
 21
256.084634
 31
0.0
  0
LINE
  5
321
100
AcDbEntity
  8
Layer_1
 62
7
100
AcDbLine
 10
17.300392
 20
256.084634
 30
0.0
 11
19.039078
 21
257.469979
 31
0.0
  0
LINE
  5
322
100
AcDbEntity
  8
Layer_1
 62
7
100
AcDbLine
 10
19.039078
 20
257.469979
 30
0.0
 11
18.256843
 21
259.321131
 31
0.0
  0
LINE
  5
323
100
AcDbEntity
  8
Layer_1
 62
7
100
AcDbLine
 10
18.256843
 20
259.321131
 30
0.0
 11
17.559246
 21
261.235218
 31
0.0
  0
LINE
  5
324
100
AcDbEntity
  8
Layer_1
 62
7
100
AcDbLine
 10
17.559246
 20
261.235218
 30
0.0
 11
16.938103
 21
263.204367
 31
0.0
  0
LINE
  5
325
100
AcDbEntity
  8
Layer_1
 62
7
100
AcDbLine
 10
16.938103
 20
263.204367
 30
0.0
 11
16.388249
 21
265.223188
 31
0.0
  0
LINE
  5
326
100
AcDbEntity
  8
Layer_1
 62
7
100
AcDbLine
 10
16.388249
 20
265.223188
 30
0.0
 11
15.906270
 21
267.287558
 31
0.0
  0
LINE
  5
327
100
AcDbEntity
  8
Layer_1
 62
7
100
AcDbLine
 10
15.906270
 20
267.287558
 30
0.0
 11
17.440825
 21
268.417407
 31
0.0
  0
LINE
  5
328
100
AcDbEntity
  8
Layer_1
 62
7
100
AcDbLine
 10
17.440825
 20
268.417407
 30
0.0
 11
18.989576
 21
269.527726
 31
0.0
  0
LINE
  5
329
100
AcDbEntity
  8
Layer_1
 62
7
100
AcDbLine
 10
18.989576
 20
269.527726
 30
0.0
 11
20.803955
 21
268.431377
 31
0.0
  0
LINE
  5
32a
100
AcDbEntity
  8
Layer_1
 62
7
100
AcDbLine
 10
20.803955
 20
268.431377
 30
0.0
 11
22.554071
 21
267.284595
 31
0.0
  0
LINE
  5
32b
100
AcDbEntity
  8
Layer_1
 62
7
100
AcDbLine
 10
22.554071
 20
267.284595
 30
0.0
 11
24.234902
 21
266.085348
 31
0.0
  0
LINE
  5
32c
100
AcDbEntity
  8
Layer_1
 62
7
100
AcDbLine
 10
24.234902
 20
266.085348
 30
0.0
 11
25.839730
 21
264.830419
 31
0.0
  0
LINE
  5
32d
100
AcDbEntity
  8
Layer_1
 62
7
100
AcDbLine
 10
25.839730
 20
264.830419
 30
0.0
 11
27.358538
 21
263.514445
 31
0.0
  0
LINE
  5
32e
100
AcDbEntity
  8
Layer_1
 62
7
100
AcDbLine
 10
27.358538
 20
263.514445
 30
0.0
 11
29.213387
 21
264.739938
 31
0.0
  0
LINE
  5
32f
100
AcDbEntity
  8
Layer_1
 62
7
100
AcDbLine
 10
29.213387
 20
264.739938
 30
0.0
 11
31.087342
 21
265.935968
 31
0.0
  0
LINE
  5
330
100
AcDbEntity
  8
Layer_1
 62
7
100
AcDbLine
 10
31.087342
 20
265.935968
 30
0.0
 11
30.502888
 21
267.858720
 31
0.0
  0
LINE
  5
331
100
AcDbEntity
  8
Layer_1
 62
7
100
AcDbLine
 10
30.502888
 20
267.858720
 30
0.0
 11
30.009225
 21
269.835235
 31
0.0
  0
LINE
  5
332
100
AcDbEntity
  8
Layer_1
 62
7
100
AcDbLine
 10
30.009225
 20
269.835235
 30
0.0
 11
29.597294
 21
271.858542
 31
0.0
  0
LINE
  5
333
100
AcDbEntity
  8
Layer_1
 62
7
100
AcDbLine
 10
29.597294
 20
271.858542
 30
0.0
 11
29.261477
 21
273.923760
 31
0.0
  0
LINE
  5
334
100
AcDbEntity
  8
Layer_1
 62
7
100
AcDbLine
 10
29.261477
 20
273.923760
 30
0.0
 11
28.997910
 21
276.027219
 31
0.0
  0
LINE
  5
335
100
AcDbEntity
  8
Layer_1
 62
7
100
AcDbLine
 10
28.997910
 20
276.027219
 30
0.0
 11
30.642165
 21
276.990471
 31
0.0
  0
LINE
  5
336
100
AcDbEntity
  8
Layer_1
 62
7
100
AcDbLine
 10
30.642165
 20
276.990471
 30
0.0
 11
32.298499
 21
277.932811
 31
0.0
  0
LINE
  5
337
100
AcDbEntity
  8
Layer_1
 62
7
100
AcDbLine
 10
32.298499
 20
277.932811
 30
0.0
 11
33.988361
 21
276.652821
 31
0.0
  0
LINE
  5
338
100
AcDbEntity
  8
Layer_1
 62
7
100
AcDbLine
 10
33.988361
 20
276.652821
 30
0.0
 11
35.608994
 21
275.329396
 31
0.0
  0
LINE
  5
339
100
AcDbEntity
  8
Layer_1
 62
7
100
AcDbLine
 10
35.608994
 20
275.329396
 30
0.0
 11
37.155261
 21
273.961013
 31
0.0
  0
LINE
  5
33a
100
AcDbEntity
  8
Layer_1
 62
7
100
AcDbLine
 10
37.155261
 20
273.961013
 30
0.0
 11
38.620136
 21
272.545217
 31
0.0
  0
LINE
  5
33b
100
AcDbEntity
  8
Layer_1
 62
7
100
AcDbLine
 10
38.620136
 20
272.545217
 30
0.0
 11
39.993062
 21
271.077690
 31
0.0
  0
LINE
  5
33c
100
AcDbEntity
  8
Layer_1
 62
7
100
AcDbLine
 10
39.993062
 20
271.077690
 30
0.0
 11
41.965852
 21
272.102580
 31
0.0
  0
LINE
  5
33d
100
AcDbEntity
  8
Layer_1
 62
7
100
AcDbLine
 10
41.965852
 20
272.102580
 30
0.0
 11
43.954559
 21
273.096143
 31
0.0
  0
LINE
  5
33e
100
AcDbEntity
  8
Layer_1
 62
7
100
AcDbLine
 10
43.954559
 20
273.096143
 30
0.0
 11
43.574293
 21
275.069498
 31
0.0
  0
LINE
  5
33f
100
AcDbEntity
  8
Layer_1
 62
7
100
AcDbLine
 10
43.574293
 20
275.069498
 30
0.0
 11
43.289926
 21
277.086766
 31
0.0
  0
LINE
  5
340
100
AcDbEntity
  8
Layer_1
 62
7
100
AcDbLine
 10
43.289926
 20
277.086766
 30
0.0
 11
43.091749
 21
279.142049
 31
0.0
  0
LINE
  5
341
100
AcDbEntity
  8
Layer_1
 62
7
100
AcDbLine
 10
43.091749
 20
279.142049
 30
0.0
 11
42.973667
 21
281.231058
 31
0.0
  0
LINE
  5
342
100
AcDbEntity
  8
Layer_1
 62
7
100
AcDbLine
 10
42.973667
 20
281.231058
 30
0.0
 11
42.931390
 21
283.350547
 31
0.0
  0
LINE
  5
343
100
AcDbEntity
  8
Layer_1
 62
7
100
AcDbLine
 10
42.931390
 20
283.350547
 30
0.0
 11
44.667339
 21
284.136648
 31
0.0
  0
LINE
  5
344
100
AcDbEntity
  8
Layer_1
 62
7
100
AcDbLine
 10
44.667339
 20
284.136648
 30
0.0
 11
46.413081
 21
284.900680
 31
0.0
  0
LINE
  5
345
100
AcDbEntity
  8
Layer_1
 62
7
100
AcDbLine
 10
46.413081
 20
284.900680
 30
0.0
 11
47.959885
 21
283.451074
 31
0.0
  0
LINE
  5
346
100
AcDbEntity
  8
Layer_1
 62
7
100
AcDbLine
 10
47.959885
 20
283.451074
 30
0.0
 11
49.433311
 21
281.965485
 31
0.0
  0
LINE
  5
347
100
AcDbEntity
  8
Layer_1
 62
7
100
AcDbLine
 10
49.433311
 20
281.965485
 30
0.0
 11
50.828081
 21
280.442980
 31
0.0
  0
LINE
  5
348
100
AcDbEntity
  8
Layer_1
 62
7
100
AcDbLine
 10
50.828081
 20
280.442980
 30
0.0
 11
52.136915
 21
278.881812
 31
0.0
  0
LINE
  5
349
100
AcDbEntity
  8
Layer_1
 62
7
100
AcDbLine
 10
52.136915
 20
278.881812
 30
0.0
 11
53.348946
 21
277.278818
 31
0.0
  0
LINE
  5
34a
100
AcDbEntity
  8
Layer_1
 62
7
100
AcDbLine
 10
53.348946
 20
277.278818
 30
0.0
 11
55.418030
 21
278.091872
 31
0.0
  0
LINE
  5
34b
100
AcDbEntity
  8
Layer_1
 62
7
100
AcDbLine
 10
55.418030
 20
278.091872
 30
0.0
 11
57.499730
 21
278.872132
 31
0.0
  0
LINE
  5
34c
100
AcDbEntity
  8
Layer_1
 62
7
100
AcDbLine
 10
57.499730
 20
278.872132
 30
0.0
 11
57.327828
 21
280.874414
 31
0.0
  0
LINE
  5
34d
100
AcDbEntity
  8
Layer_1
 62
7
100
AcDbLine
 10
57.327828
 20
280.874414
 30
0.0
 11
57.255862
 21
282.910365
 31
0.0
  0
LINE
  5
34e
100
AcDbEntity
  8
Layer_1
 62
7
100
AcDbLine
 10
57.255862
 20
282.910365
 30
0.0
 11
57.273613
 21
284.975102
 31
0.0
  0
LINE
  5
34f
100
AcDbEntity
  8
Layer_1
 62
7
100
AcDbLine
 10
57.273613
 20
284.975102
 30
0.0
 11
57.374536
 21
287.065014
 31
0.0
  0
LINE
  5
350
100
AcDbEntity
  8
Layer_1
 62
7
100
AcDbLine
 10
57.374536
 20
287.065014
 30
0.0
 11
57.554058
 21
289.177307
 31
0.0
  0
LINE
  5
351
100
AcDbEntity
  8
Layer_1
 62
7
100
AcDbLine
 10
57.554058
 20
289.177307
 30
0.0
 11
59.362650
 21
289.777650
 31
0.0
  0
LINE
  5
352
100
AcDbEntity
  8
Layer_1
 62
7
100
AcDbLine
 10
59.362650
 20
289.777650
 30
0.0
 11
61.178694
 21
290.355020
 31
0.0
  0
LINE
  5
353
100
AcDbEntity
  8
Layer_1
 62
7
100
AcDbLine
 10
61.178694
 20
290.355020
 30
0.0
 11
62.565506
 21
288.751659
 31
0.0
  0
LINE
  5
354
100
AcDbEntity
  8
Layer_1
 62
7
100
AcDbLine
 10
62.565506
 20
288.751659
 30
0.0
 11
63.875553
 21
287.120189
 31
0.0
  0
LINE
  5
355
100
AcDbEntity
  8
Layer_1
 62
7
100
AcDbLine
 10
63.875553
 20
287.120189
 30
0.0
 11
65.103530
 21
285.460242
 31
0.0
  0
LINE
  5
356
100
AcDbEntity
  8
Layer_1
 62
7
100
AcDbLine
 10
65.103530
 20
285.460242
 30
0.0
 11
66.242043
 21
283.770804
 31
0.0
  0
LINE
  5
357
100
AcDbEntity
  8
Layer_1
 62
7
100
AcDbLine
 10
66.242043
 20
283.770804
 30
0.0
 11
67.279859
 21
282.049897
 31
0.0
  0
LINE
  5
358
100
AcDbEntity
  8
Layer_1
 62
7
100
AcDbLine
 10
67.279859
 20
282.049897
 30
0.0
 11
69.422603
 21
282.642225
 31
0.0
  0
LINE
  5
359
100
AcDbEntity
  8
Layer_1
 62
7
100
AcDbLine
 10
69.422603
 20
282.642225
 30
0.0
 11
71.574434
 21
283.200630
 31
0.0
  0
LINE
  5
35a
100
AcDbEntity
  8
Layer_1
 62
7
100
AcDbLine
 10
71.574434
 20
283.200630
 30
0.0
 11
71.612760
 21
285.209911
 31
0.0
  0
LINE
  5
35b
100
AcDbEntity
  8
Layer_1
 62
7
100
AcDbLine
 10
71.612760
 20
285.209911
 30
0.0
 11
71.754012
 21
287.242222
 31
0.0
  0
LINE
  5
35c
100
AcDbEntity
  8
Layer_1
 62
7
100
AcDbLine
 10
71.754012
 20
287.242222
 30
0.0
 11
71.987495
 21
289.293780
 31
0.0
  0
LINE
  5
35d
100
AcDbEntity
  8
Layer_1
 62
7
100
AcDbLine
 10
71.987495
 20
289.293780
 30
0.0
 11
72.306321
 21
291.361707
 31
0.0
  0
LINE
  5
35e
100
AcDbEntity
  8
Layer_1
 62
7
100
AcDbLine
 10
72.306321
 20
291.361707
 30
0.0
 11
72.705666
 21
293.443660
 31
0.0
  0
LINE
  5
35f
100
AcDbEntity
  8
Layer_1
 62
7
100
AcDbLine
 10
72.705666
 20
293.443660
 30
0.0
 11
74.567090
 21
293.851669
 31
0.0
  0
LINE
  5
360
100
AcDbEntity
  8
Layer_1
 62
7
100
AcDbLine
 10
74.567090
 20
293.851669
 30
0.0
 11
76.433539
 21
294.236055
 31
0.0
  0
LINE
  5
361
100
AcDbEntity
  8
Layer_1
 62
7
100
AcDbLine
 10
76.433539
 20
294.236055
 30
0.0
 11
77.645147
 21
292.496522
 31
0.0
  0
LINE
  5
362
100
AcDbEntity
  8
Layer_1
 62
7
100
AcDbLine
 10
77.645147
 20
292.496522
 30
0.0
 11
78.777507
 21
290.737036
 31
0.0
  0
LINE
  5
363
100
AcDbEntity
  8
Layer_1
 62
7
100
AcDbLine
 10
78.777507
 20
290.737036
 30
0.0
 11
79.825257
 21
288.957822
 31
0.0
  0
LINE
  5
364
100
AcDbEntity
  8
Layer_1
 62
7
100
AcDbLine
 10
79.825257
 20
288.957822
 30
0.0
 11
80.780918
 21
287.158656
 31
0.0
  0
LINE
  5
365
100
AcDbEntity
  8
Layer_1
 62
7
100
AcDbLine
 10
80.780918
 20
287.158656
 30
0.0
 11
81.633173
 21
285.338689
 31
0.0
  0
LINE
  5
366
100
AcDbEntity
  8
Layer_1
 62
7
100
AcDbLine
 10
81.633173
 20
285.338689
 30
0.0
 11
83.826096
 21
285.703800
 31
0.0
  0
LINE
  5
367
100
AcDbEntity
  8
Layer_1
 62
7
100
AcDbLine
 10
83.826096
 20
285.703800
 30
0.0
 11
86.024522
 21
286.034198
 31
0.0
  0
LINE
  5
368
100
AcDbEntity
  8
Layer_1
 62
7
100
AcDbLine
 10
86.024522
 20
286.034198
 30
0.0
 11
86.272652
 21
288.028465
 31
0.0
  0
LINE
  5
369
100
AcDbEntity
  8
Layer_1
 62
7
100
AcDbLine
 10
86.272652
 20
288.028465
 30
0.0
 11
86.625571
 21
290.034895
 31
0.0
  0
LINE
  5
36a
100
AcDbEntity
  8
Layer_1
 62
7
100
AcDbLine
 10
86.625571
 20
290.034895
 30
0.0
 11
87.072216
 21
292.050809
 31
0.0
  0
LINE
  5
36b
100
AcDbEntity
  8
Layer_1
 62
7
100
AcDbLine
 10
87.072216
 20
292.050809
 30
0.0
 11
87.605447
 21
294.074060
 31
0.0
  0
LINE
  5
36c
100
AcDbEntity
  8
Layer_1
 62
7
100
AcDbLine
 10
87.605447
 20
294.074060
 30
0.0
 11
88.220211
 21
296.102871
 31
0.0
  0
LINE
  5
36d
100
AcDbEntity
  8
Layer_1
 62
7
100
AcDbLine
 10
88.220211
 20
296.102871
 30
0.0
 11
90.114092
 21
296.314086
 31
0.0
  0
LINE
  5
36e
100
AcDbEntity
  8
Layer_1
 62
7
100
AcDbLine
 10
90.114092
 20
296.314086
 30
0.0
 11
92.010512
 21
296.501256
 31
0.0
  0
LINE
  5
36f
100
AcDbEntity
  8
Layer_1
 62
7
100
AcDbLine
 10
92.010512
 20
296.501256
 30
0.0
 11
93.033652
 21
294.644600
 31
0.0
  0
LINE
  5
370
100
AcDbEntity
  8
Layer_1
 62
7
100
AcDbLine
 10
93.033652
 20
294.644600
 30
0.0
 11
93.975880
 21
292.776402
 31
0.0
  0
LINE
  5
371
100
AcDbEntity
  8
Layer_1
 62
7
100
AcDbLine
 10
93.975880
 20
292.776402
 30
0.0
 11
94.831916
 21
290.897395
 31
0.0
  0
LINE
  5
372
100
AcDbEntity
  8
Layer_1
 62
7
100
AcDbLine
 10
94.831916
 20
290.897395
 30
0.0
 11
95.594283
 21
289.008199
 31
0.0
  0
LINE
  5
373
100
AcDbEntity
  8
Layer_1
 62
7
100
AcDbLine
 10
95.594283
 20
289.008199
 30
0.0
 11
96.251635
 21
287.109126
 31
0.0
  0
LINE
  5
374
100
AcDbEntity
  8
Layer_1
 62
7
100
AcDbLine
 10
96.251635
 20
287.109126
 30
0.0
 11
98.470692
 21
287.243012
 31
0.0
  0
LINE
  5
375
100
AcDbEntity
  8
Layer_1
 62
7
100
AcDbLine
 10
98.470692
 20
287.243012
 30
0.0
 11
100.691611
 21
287.341818
 31
0.0
  0
LINE
  5
376
100
AcDbEntity
  8
Layer_1
 62
7
100
AcDbLine
 10
100.691611
 20
287.341818
 30
0.0
 11
101.146864
 21
289.299198
 31
0.0
  0
LINE
  5
377
100
AcDbEntity
  8
Layer_1
 62
7
100
AcDbLine
 10
101.146864
 20
289.299198
 30
0.0
 11
101.707555
 21
291.257736
 31
0.0
  0
LINE
  5
378
100
AcDbEntity
  8
Layer_1
 62
7
100
AcDbLine
 10
101.707555
 20
291.257736
 30
0.0
 11
102.362480
 21
293.215935
 31
0.0
  0
LINE
  5
379
100
AcDbEntity
  8
Layer_1
 62
7
100
AcDbLine
 10
102.362480
 20
293.215935
 30
0.0
 11
103.104273
 21
295.172384
 31
0.0
  0
LINE
  5
37a
100
AcDbEntity
  8
Layer_1
 62
7
100
AcDbLine
 10
103.104273
 20
295.172384
 30
0.0
 11
103.927741
 21
297.125813
 31
0.0
  0
LINE
  5
37b
100
AcDbEntity
  8
Layer_1
 62
7
100
AcDbLine
 10
103.927741
 20
297.125813
 30
0.0
 11
105.833333
 21
297.137892
 31
0.0
  0
LINE
  5
37c
100
AcDbEntity
  8
Layer_1
 62
7
100
AcDbLine
 10
105.833333
 20
297.137892
 30
0.0
 11
107.738926
 21
297.125813
 31
0.0
  0
LINE
  5
37d
100
AcDbEntity
  8
Layer_1
 62
7
100
AcDbLine
 10
107.738926
 20
297.125813
 30
0.0
 11
108.562394
 21
295.172384
 31
0.0
  0
LINE
  5
37e
100
AcDbEntity
  8
Layer_1
 62
7
100
AcDbLine
 10
108.562394
 20
295.172384
 30
0.0
 11
109.304187
 21
293.215935
 31
0.0
  0
LINE
  5
37f
100
AcDbEntity
  8
Layer_1
 62
7
100
AcDbLine
 10
109.304187
 20
293.215935
 30
0.0
 11
109.959112
 21
291.257736
 31
0.0
  0
LINE
  5
380
100
AcDbEntity
  8
Layer_1
 62
7
100
AcDbLine
 10
109.959112
 20
291.257736
 30
0.0
 11
110.519803
 21
289.299198
 31
0.0
  0
LINE
  5
381
100
AcDbEntity
  8
Layer_1
 62
7
100
AcDbLine
 10
110.519803
 20
289.299198
 30
0.0
 11
110.975055
 21
287.341818
 31
0.0
  0
LINE
  5
382
100
AcDbEntity
  8
Layer_1
 62
7
100
AcDbLine
 10
110.975055
 20
287.341818
 30
0.0
 11
113.195975
 21
287.243012
 31
0.0
  0
LINE
  5
383
100
AcDbEntity
  8
Layer_1
 62
7
100
AcDbLine
 10
113.195975
 20
287.243012
 30
0.0
 11
115.415032
 21
287.109126
 31
0.0
  0
LINE
  5
384
100
AcDbEntity
  8
Layer_1
 62
7
100
AcDbLine
 10
115.415032
 20
287.109126
 30
0.0
 11
116.072384
 21
289.008199
 31
0.0
  0
LINE
  5
385
100
AcDbEntity
  8
Layer_1
 62
7
100
AcDbLine
 10
116.072384
 20
289.008199
 30
0.0
 11
116.834751
 21
290.897395
 31
0.0
  0
LINE
  5
386
100
AcDbEntity
  8
Layer_1
 62
7
100
AcDbLine
 10
116.834751
 20
290.897395
 30
0.0
 11
117.690787
 21
292.776402
 31
0.0
  0
LINE
  5
387
100
AcDbEntity
  8
Layer_1
 62
7
100
AcDbLine
 10
117.690787
 20
292.776402
 30
0.0
 11
118.633014
 21
294.644600
 31
0.0
  0
LINE
  5
388
100
AcDbEntity
  8
Layer_1
 62
7
100
AcDbLine
 10
118.633014
 20
294.644600
 30
0.0
 11
119.656154
 21
296.501256
 31
0.0
  0
LINE
  5
389
100
AcDbEntity
  8
Layer_1
 62
7
100
AcDbLine
 10
119.656154
 20
296.501256
 30
0.0
 11
121.552575
 21
296.314086
 31
0.0
  0
LINE
  5
38a
100
AcDbEntity
  8
Layer_1
 62
7
100
AcDbLine
 10
121.552575
 20
296.314086
 30
0.0
 11
123.446455
 21
296.102871
 31
0.0
  0
LINE
  5
38b
100
AcDbEntity
  8
Layer_1
 62
7
100
AcDbLine
 10
123.446455
 20
296.102871
 30
0.0
 11
124.061220
 21
294.074060
 31
0.0
  0
LINE
  5
38c
100
AcDbEntity
  8
Layer_1
 62
7
100
AcDbLine
 10
124.061220
 20
294.074060
 30
0.0
 11
124.594451
 21
292.050809
 31
0.0
  0
LINE
  5
38d
100
AcDbEntity
  8
Layer_1
 62
7
100
AcDbLine
 10
124.594451
 20
292.050809
 30
0.0
 11
125.041096
 21
290.034895
 31
0.0
  0
LINE
  5
38e
100
AcDbEntity
  8
Layer_1
 62
7
100
AcDbLine
 10
125.041096
 20
290.034895
 30
0.0
 11
125.394014
 21
288.028465
 31
0.0
  0
LINE
  5
38f
100
AcDbEntity
  8
Layer_1
 62
7
100
AcDbLine
 10
125.394014
 20
288.028465
 30
0.0
 11
125.642144
 21
286.034198
 31
0.0
  0
LINE
  5
390
100
AcDbEntity
  8
Layer_1
 62
7
100
AcDbLine
 10
125.642144
 20
286.034198
 30
0.0
 11
127.840571
 21
285.703800
 31
0.0
  0
LINE
  5
391
100
AcDbEntity
  8
Layer_1
 62
7
100
AcDbLine
 10
127.840571
 20
285.703800
 30
0.0
 11
130.033494
 21
285.338689
 31
0.0
  0
LINE
  5
392
100
AcDbEntity
  8
Layer_1
 62
7
100
AcDbLine
 10
130.033494
 20
285.338689
 30
0.0
 11
130.885748
 21
287.158656
 31
0.0
  0
LINE
  5
393
100
AcDbEntity
  8
Layer_1
 62
7
100
AcDbLine
 10
130.885748
 20
287.158656
 30
0.0
 11
131.841409
 21
288.957822
 31
0.0
  0
LINE
  5
394
100
AcDbEntity
  8
Layer_1
 62
7
100
AcDbLine
 10
131.841409
 20
288.957822
 30
0.0
 11
132.889159
 21
290.737036
 31
0.0
  0
LINE
  5
395
100
AcDbEntity
  8
Layer_1
 62
7
100
AcDbLine
 10
132.889159
 20
290.737036
 30
0.0
 11
134.021520
 21
292.496522
 31
0.0
  0
LINE
  5
396
100
AcDbEntity
  8
Layer_1
 62
7
100
AcDbLine
 10
134.021520
 20
292.496522
 30
0.0
 11
135.233128
 21
294.236055
 31
0.0
  0
LINE
  5
397
100
AcDbEntity
  8
Layer_1
 62
7
100
AcDbLine
 10
135.233128
 20
294.236055
 30
0.0
 11
137.099576
 21
293.851669
 31
0.0
  0
LINE
  5
398
100
AcDbEntity
  8
Layer_1
 62
7
100
AcDbLine
 10
137.099576
 20
293.851669
 30
0.0
 11
138.961001
 21
293.443660
 31
0.0
  0
LINE
  5
399
100
AcDbEntity
  8
Layer_1
 62
7
100
AcDbLine
 10
138.961001
 20
293.443660
 30
0.0
 11
139.360346
 21
291.361707
 31
0.0
  0
LINE
  5
39a
100
AcDbEntity
  8
Layer_1
 62
7
100
AcDbLine
 10
139.360346
 20
291.361707
 30
0.0
 11
139.679172
 21
289.293780
 31
0.0
  0
LINE
  5
39b
100
AcDbEntity
  8
Layer_1
 62
7
100
AcDbLine
 10
139.679172
 20
289.293780
 30
0.0
 11
139.912654
 21
287.242222
 31
0.0
  0
LINE
  5
39c
100
AcDbEntity
  8
Layer_1
 62
7
100
AcDbLine
 10
139.912654
 20
287.242222
 30
0.0
 11
140.053907
 21
285.209911
 31
0.0
  0
LINE
  5
39d
100
AcDbEntity
  8
Layer_1
 62
7
100
AcDbLine
 10
140.053907
 20
285.209911
 30
0.0
 11
140.092232
 21
283.200630
 31
0.0
  0
LINE
  5
39e
100
AcDbEntity
  8
Layer_1
 62
7
100
AcDbLine
 10
140.092232
 20
283.200630
 30
0.0
 11
142.244064
 21
282.642225
 31
0.0
  0
LINE
  5
39f
100
AcDbEntity
  8
Layer_1
 62
7
100
AcDbLine
 10
142.244064
 20
282.642225
 30
0.0
 11
144.386808
 21
282.049897
 31
0.0
  0
LINE
  5
3a0
100
AcDbEntity
  8
Layer_1
 62
7
100
AcDbLine
 10
144.386808
 20
282.049897
 30
0.0
 11
145.424624
 21
283.770804
 31
0.0
  0
LINE
  5
3a1
100
AcDbEntity
  8
Layer_1
 62
7
100
AcDbLine
 10
145.424624
 20
283.770804
 30
0.0
 11
146.563136
 21
285.460242
 31
0.0
  0
LINE
  5
3a2
100
AcDbEntity
  8
Layer_1
 62
7
100
AcDbLine
 10
146.563136
 20
285.460242
 30
0.0
 11
147.791114
 21
287.120189
 31
0.0
  0
LINE
  5
3a3
100
AcDbEntity
  8
Layer_1
 62
7
100
AcDbLine
 10
147.791114
 20
287.120189
 30
0.0
 11
149.101161
 21
288.751659
 31
0.0
  0
LINE
  5
3a4
100
AcDbEntity
  8
Layer_1
 62
7
100
AcDbLine
 10
149.101161
 20
288.751659
 30
0.0
 11
150.487973
 21
290.355020
 31
0.0
  0
LINE
  5
3a5
100
AcDbEntity
  8
Layer_1
 62
7
100
AcDbLine
 10
150.487973
 20
290.355020
 30
0.0
 11
152.304016
 21
289.777650
 31
0.0
  0
LINE
  5
3a6
100
AcDbEntity
  8
Layer_1
 62
7
100
AcDbLine
 10
152.304016
 20
289.777650
 30
0.0
 11
154.112609
 21
289.177307
 31
0.0
  0
LINE
  5
3a7
100
AcDbEntity
  8
Layer_1
 62
7
100
AcDbLine
 10
154.112609
 20
289.177307
 30
0.0
 11
154.292131
 21
287.065014
 31
0.0
  0
LINE
  5
3a8
100
AcDbEntity
  8
Layer_1
 62
7
100
AcDbLine
 10
154.292131
 20
287.065014
 30
0.0
 11
154.393053
 21
284.975102
 31
0.0
  0
LINE
  5
3a9
100
AcDbEntity
  8
Layer_1
 62
7
100
AcDbLine
 10
154.393053
 20
284.975102
 30
0.0
 11
154.410805
 21
282.910365
 31
0.0
  0
LINE
  5
3aa
100
AcDbEntity
  8
Layer_1
 62
7
100
AcDbLine
 10
154.410805
 20
282.910365
 30
0.0
 11
154.338838
 21
280.874414
 31
0.0
  0
LINE
  5
3ab
100
AcDbEntity
  8
Layer_1
 62
7
100
AcDbLine
 10
154.338838
 20
280.874414
 30
0.0
 11
154.166937
 21
278.872132
 31
0.0
  0
LINE
  5
3ac
100
AcDbEntity
  8
Layer_1
 62
7
100
AcDbLine
 10
154.166937
 20
278.872132
 30
0.0
 11
156.248636
 21
278.091872
 31
0.0
  0
LINE
  5
3ad
100
AcDbEntity
  8
Layer_1
 62
7
100
AcDbLine
 10
156.248636
 20
278.091872
 30
0.0
 11
158.317720
 21
277.278818
 31
0.0
  0
LINE
  5
3ae
100
AcDbEntity
  8
Layer_1
 62
7
100
AcDbLine
 10
158.317720
 20
277.278818
 30
0.0
 11
159.529752
 21
278.881812
 31
0.0
  0
LINE
  5
3af
100
AcDbEntity
  8
Layer_1
 62
7
100
AcDbLine
 10
159.529752
 20
278.881812
 30
0.0
 11
160.838586
 21
280.442980
 31
0.0
  0
LINE
  5
3b0
100
AcDbEntity
  8
Layer_1
 62
7
100
AcDbLine
 10
160.838586
 20
280.442980
 30
0.0
 11
162.233356
 21
281.965485
 31
0.0
  0
LINE
  5
3b1
100
AcDbEntity
  8
Layer_1
 62
7
100
AcDbLine
 10
162.233356
 20
281.965485
 30
0.0
 11
163.706782
 21
283.451074
 31
0.0
  0
LINE
  5
3b2
100
AcDbEntity
  8
Layer_1
 62
7
100
AcDbLine
 10
163.706782
 20
283.451074
 30
0.0
 11
165.253585
 21
284.900680
 31
0.0
  0
LINE
  5
3b3
100
AcDbEntity
  8
Layer_1
 62
7
100
AcDbLine
 10
165.253585
 20
284.900680
 30
0.0
 11
166.999327
 21
284.136648
 31
0.0
  0
LINE
  5
3b4
100
AcDbEntity
  8
Layer_1
 62
7
100
AcDbLine
 10
166.999327
 20
284.136648
 30
0.0
 11
168.735276
 21
283.350547
 31
0.0
  0
LINE
  5
3b5
100
AcDbEntity
  8
Layer_1
 62
7
100
AcDbLine
 10
168.735276
 20
283.350547
 30
0.0
 11
168.692999
 21
281.231058
 31
0.0
  0
LINE
  5
3b6
100
AcDbEntity
  8
Layer_1
 62
7
100
AcDbLine
 10
168.692999
 20
281.231058
 30
0.0
 11
168.574918
 21
279.142049
 31
0.0
  0
LINE
  5
3b7
100
AcDbEntity
  8
Layer_1
 62
7
100
AcDbLine
 10
168.574918
 20
279.142049
 30
0.0
 11
168.376741
 21
277.086766
 31
0.0
  0
LINE
  5
3b8
100
AcDbEntity
  8
Layer_1
 62
7
100
AcDbLine
 10
168.376741
 20
277.086766
 30
0.0
 11
168.092374
 21
275.069498
 31
0.0
  0
LINE
  5
3b9
100
AcDbEntity
  8
Layer_1
 62
7
100
AcDbLine
 10
168.092374
 20
275.069498
 30
0.0
 11
167.712108
 21
273.096143
 31
0.0
  0
LINE
  5
3ba
100
AcDbEntity
  8
Layer_1
 62
7
100
AcDbLine
 10
167.712108
 20
273.096143
 30
0.0
 11
169.700815
 21
272.102580
 31
0.0
  0
LINE
  5
3bb
100
AcDbEntity
  8
Layer_1
 62
7
100
AcDbLine
 10
169.700815
 20
272.102580
 30
0.0
 11
171.673605
 21
271.077690
 31
0.0
  0
LINE
  5
3bc
100
AcDbEntity
  8
Layer_1
 62
7
100
AcDbLine
 10
171.673605
 20
271.077690
 30
0.0
 11
173.046531
 21
272.545217
 31
0.0
  0
LINE
  5
3bd
100
AcDbEntity
  8
Layer_1
 62
7
100
AcDbLine
 10
173.046531
 20
272.545217
 30
0.0
 11
174.511406
 21
273.961013
 31
0.0
  0
LINE
  5
3be
100
AcDbEntity
  8
Layer_1
 62
7
100
AcDbLine
 10
174.511406
 20
273.961013
 30
0.0
 11
176.057673
 21
275.329396
 31
0.0
  0
LINE
  5
3bf
100
AcDbEntity
  8
Layer_1
 62
7
100
AcDbLine
 10
176.057673
 20
275.329396
 30
0.0
 11
177.678306
 21
276.652821
 31
0.0
  0
LINE
  5
3c0
100
AcDbEntity
  8
Layer_1
 62
7
100
AcDbLine
 10
177.678306
 20
276.652821
 30
0.0
 11
179.368168
 21
277.932811
 31
0.0
  0
LINE
  5
3c1
100
AcDbEntity
  8
Layer_1
 62
7
100
AcDbLine
 10
179.368168
 20
277.932811
 30
0.0
 11
181.024502
 21
276.990471
 31
0.0
  0
LINE
  5
3c2
100
AcDbEntity
  8
Layer_1
 62
7
100
AcDbLine
 10
181.024502
 20
276.990471
 30
0.0
 11
182.668757
 21
276.027219
 31
0.0
  0
LINE
  5
3c3
100
AcDbEntity
  8
Layer_1
 62
7
100
AcDbLine
 10
182.668757
 20
276.027219
 30
0.0
 11
182.405189
 21
273.923760
 31
0.0
  0
LINE
  5
3c4
100
AcDbEntity
  8
Layer_1
 62
7
100
AcDbLine
 10
182.405189
 20
273.923760
 30
0.0
 11
182.069373
 21
271.858542
 31
0.0
  0
LINE
  5
3c5
100
AcDbEntity
  8
Layer_1
 62
7
100
AcDbLine
 10
182.069373
 20
271.858542
 30
0.0
 11
181.657442
 21
269.835235
 31
0.0
  0
LINE
  5
3c6
100
AcDbEntity
  8
Layer_1
 62
7
100
AcDbLine
 10
181.657442
 20
269.835235
 30
0.0
 11
181.163778
 21
267.858720
 31
0.0
  0
LINE
  5
3c7
100
AcDbEntity
  8
Layer_1
 62
7
100
AcDbLine
 10
181.163778
 20
267.858720
 30
0.0
 11
180.579324
 21
265.935968
 31
0.0
  0
LINE
  5
3c8
100
AcDbEntity
  8
Layer_1
 62
7
100
AcDbLine
 10
180.579324
 20
265.935968
 30
0.0
 11
182.453280
 21
264.739938
 31
0.0
  0
LINE
  5
3c9
100
AcDbEntity
  8
Layer_1
 62
7
100
AcDbLine
 10
182.453280
 20
264.739938
 30
0.0
 11
184.308129
 21
263.514445
 31
0.0
  0
LINE
  5
3ca
100
AcDbEntity
  8
Layer_1
 62
7
100
AcDbLine
 10
184.308129
 20
263.514445
 30
0.0
 11
185.826936
 21
264.830419
 31
0.0
  0
LINE
  5
3cb
100
AcDbEntity
  8
Layer_1
 62
7
100
AcDbLine
 10
185.826936
 20
264.830419
 30
0.0
 11
187.431765
 21
266.085348
 31
0.0
  0
LINE
  5
3cc
100
AcDbEntity
  8
Layer_1
 62
7
100
AcDbLine
 10
187.431765
 20
266.085348
 30
0.0
 11
189.112596
 21
267.284595
 31
0.0
  0
LINE
  5
3cd
100
AcDbEntity
  8
Layer_1
 62
7
100
AcDbLine
 10
189.112596
 20
267.284595
 30
0.0
 11
190.862712
 21
268.431377
 31
0.0
  0
LINE
  5
3ce
100
AcDbEntity
  8
Layer_1
 62
7
100
AcDbLine
 10
190.862712
 20
268.431377
 30
0.0
 11
192.677090
 21
269.527726
 31
0.0
  0
LINE
  5
3cf
100
AcDbEntity
  8
Layer_1
 62
7
100
AcDbLine
 10
192.677090
 20
269.527726
 30
0.0
 11
194.225841
 21
268.417407
 31
0.0
  0
LINE
  5
3d0
100
AcDbEntity
  8
Layer_1
 62
7
100
AcDbLine
 10
194.225841
 20
268.417407
 30
0.0
 11
195.760396
 21
267.287558
 31
0.0
  0
LINE
  5
3d1
100
AcDbEntity
  8
Layer_1
 62
7
100
AcDbLine
 10
195.760396
 20
267.287558
 30
0.0
 11
195.278417
 21
265.223188
 31
0.0
  0
LINE
  5
3d2
100
AcDbEntity
  8
Layer_1
 62
7
100
AcDbLine
 10
195.278417
 20
265.223188
 30
0.0
 11
194.728564
 21
263.204367
 31
0.0
  0
LINE
  5
3d3
100
AcDbEntity
  8
Layer_1
 62
7
100
AcDbLine
 10
194.728564
 20
263.204367
 30
0.0
 11
194.107421
 21
261.235218
 31
0.0
  0
LINE
  5
3d4
100
AcDbEntity
  8
Layer_1
 62
7
100
AcDbLine
 10
194.107421
 20
261.235218
 30
0.0
 11
193.409824
 21
259.321131
 31
0.0
  0
LINE
  5
3d5
100
AcDbEntity
  8
Layer_1
 62
7
100
AcDbLine
 10
193.409824
 20
259.321131
 30
0.0
 11
192.627589
 21
257.469979
 31
0.0
  0
LINE
  5
3d6
100
AcDbEntity
  8
Layer_1
 62
7
100
AcDbLine
 10
192.627589
 20
257.469979
 30
0.0
 11
194.366275
 21
256.084634
 31
0.0
  0
LINE
  5
3d7
100
AcDbEntity
  8
Layer_1
 62
7
100
AcDbLine
 10
194.366275
 20
256.084634
 30
0.0
 11
196.082864
 21
254.671971
 31
0.0
  0
LINE
  5
3d8
100
AcDbEntity
  8
Layer_1
 62
7
100
AcDbLine
 10
196.082864
 20
254.671971
 30
0.0
 11
197.730900
 21
255.821998
 31
0.0
  0
LINE
  5
3d9
100
AcDbEntity
  8
Layer_1
 62
7
100
AcDbLine
 10
197.730900
 20
255.821998
 30
0.0
 11
199.458128
 21
256.902289
 31
0.0
  0
LINE
  5
3da
100
AcDbEntity
  8
Layer_1
 62
7
100
AcDbLine
 10
199.458128
 20
256.902289
 30
0.0
 11
201.255094
 21
257.919276
 31
0.0
  0
LINE
  5
3db
100
AcDbEntity
  8
Layer_1
 62
7
100
AcDbLine
 10
201.255094
 20
257.919276
 30
0.0
 11
203.115474
 21
258.876856
 31
0.0
  0
LINE
  5
3dc
100
AcDbEntity
  8
Layer_1
 62
7
100
AcDbLine
 10
203.115474
 20
258.876856
 30
0.0
 11
205.034557
 21
259.777512
 31
0.0
  0
LINE
  5
3dd
100
AcDbEntity
  8
Layer_1
 62
7
100
AcDbLine
 10
205.034557
 20
259.777512
 30
0.0
 11
206.458764
 21
258.511407
 31
0.0
  0
LINE
  5
3de
100
AcDbEntity
  8
Layer_1
 62
7
100
AcDbLine
 10
206.458764
 20
258.511407
 30
0.0
 11
207.866798
 21
257.227352
 31
0.0
  0
LINE
  5
3df
100
AcDbEntity
  8
Layer_1
 62
7
100
AcDbLine
 10
207.866798
 20
257.227352
 30
0.0
 11
207.171657
 21
255.224647
 31
0.0
  0
LINE
  5
3e0
100
AcDbEntity
  8
Layer_1
 62
7
100
AcDbLine
 10
207.171657
 20
255.224647
 30
0.0
 11
206.413806
 21
253.274378
 31
0.0
  0
LINE
  5
3e1
100
AcDbEntity
  8
Layer_1
 62
7
100
AcDbLine
 10
206.413806
 20
253.274378
 30
0.0
 11
205.590225
 21
251.380921
 31
0.0
  0
LINE
  5
3e2
100
AcDbEntity
  8
Layer_1
 62
7
100
AcDbLine
 10
205.590225
 20
251.380921
 30
0.0
 11
204.696370
 21
249.550259
 31
0.0
  0
LINE
  5
3e3
100
AcDbEntity
  8
Layer_1
 62
7
100
AcDbLine
 10
204.696370
 20
249.550259
 30
0.0
 11
203.724933
 21
247.791026
 31
0.0
  0
LINE
  5
3e4
100
AcDbEntity
  8
Layer_1
 62
7
100
AcDbLine
 10
203.724933
 20
247.791026
 30
0.0
 11
205.309301
 21
246.231523
 31
0.0
  0
LINE
  5
3e5
100
AcDbEntity
  8
Layer_1
 62
7
100
AcDbLine
 10
205.309301
 20
246.231523
 30
0.0
 11
206.868804
 21
244.647156
 31
0.0
  0
LINE
  5
3e6
100
AcDbEntity
  8
Layer_1
 62
7
100
AcDbLine
 10
206.868804
 20
244.647156
 30
0.0
 11
208.628036
 21
245.618593
 31
0.0
  0
LINE
  5
3e7
100
AcDbEntity
  8
Layer_1
 62
7
100
AcDbLine
 10
208.628036
 20
245.618593
 30
0.0
 11
210.458699
 21
246.512447
 31
0.0
  0
LINE
  5
3e8
100
AcDbEntity
  8
Layer_1
 62
7
100
AcDbLine
 10
210.458699
 20
246.512447
 30
0.0
 11
212.352156
 21
247.336028
 31
0.0
  0
LINE
  5
3e9
100
AcDbEntity
  8
Layer_1
 62
7
100
AcDbLine
 10
212.352156
 20
247.336028
 30
0.0
 11
214.302425
 21
248.093879
 31
0.0
  0
LINE
  5
3ea
100
AcDbEntity
  8
Layer_1
 62
7
100
AcDbLine
 10
214.302425
 20
248.093879
 30
0.0
 11
216.305130
 21
248.789021
 31
0.0
  0
LINE
  5
3eb
100
AcDbEntity
  8
Layer_1
 62
7
100
AcDbLine
 10
216.305130
 20
248.789021
 30
0.0
 11
217.589185
 21
247.380986
 31
0.0
  0
LINE
  5
3ec
100
AcDbEntity
  8
Layer_1
 62
7
100
AcDbLine
 10
217.589185
 20
247.380986
 30
0.0
 11
218.855290
 21
245.956780
 31
0.0
  0
LINE
  5
3ed
100
AcDbEntity
  8
Layer_1
 62
7
100
AcDbLine
 10
218.855290
 20
245.956780
 30
0.0
 11
217.954634
 21
244.037697
 31
0.0
  0
LINE
  5
3ee
100
AcDbEntity
  8
Layer_1
 62
7
100
AcDbLine
 10
217.954634
 20
244.037697
 30
0.0
 11
216.997054
 21
242.177316
 31
0.0
  0
LINE
  5
3ef
100
AcDbEntity
  8
Layer_1
 62
7
100
AcDbLine
 10
216.997054
 20
242.177316
 30
0.0
 11
215.980066
 21
240.380351
 31
0.0
  0
LINE
  5
3f0
100
AcDbEntity
  8
Layer_1
 62
7
100
AcDbLine
 10
215.980066
 20
240.380351
 30
0.0
 11
214.899776
 21
238.653122
 31
0.0
  0
LINE
  5
3f1
100
AcDbEntity
  8
Layer_1
 62
7
100
AcDbLine
 10
214.899776
 20
238.653122
 30
0.0
 11
213.749749
 21
237.005086
 31
0.0
  0
LINE
  5
3f2
100
AcDbEntity
  8
Layer_1
 62
7
100
AcDbLine
 10
213.749749
 20
237.005086
 30
0.0
 11
215.162412
 21
235.288497
 31
0.0
  0
LINE
  5
3f3
100
AcDbEntity
  8
Layer_1
 62
7
100
AcDbLine
 10
215.162412
 20
235.288497
 30
0.0
 11
216.547756
 21
233.549811
 31
0.0
  0
LINE
  5
3f4
100
AcDbEntity
  8
Layer_1
 62
7
100
AcDbLine
 10
216.547756
 20
233.549811
 30
0.0
 11
218.398908
 21
234.332046
 31
0.0
  0
LINE
  5
3f5
100
AcDbEntity
  8
Layer_1
 62
7
100
AcDbLine
 10
218.398908
 20
234.332046
 30
0.0
 11
220.312996
 21
235.029643
 31
0.0
  0
LINE
  5
3f6
100
AcDbEntity
  8
Layer_1
 62
7
100
AcDbLine
 10
220.312996
 20
235.029643
 30
0.0
 11
222.282145
 21
235.650786
 31
0.0
  0
LINE
  5
3f7
100
AcDbEntity
  8
Layer_1
 62
7
100
AcDbLine
 10
222.282145
 20
235.650786
 30
0.0
 11
224.300965
 21
236.200640
 31
0.0
  0
LINE
  5
3f8
100
AcDbEntity
  8
Layer_1
 62
7
100
AcDbLine
 10
224.300965
 20
236.200640
 30
0.0
 11
226.365336
 21
236.682619
 31
0.0
  0
LINE
  5
3f9
100
AcDbEntity
  8
Layer_1
 62
7
100
AcDbLine
 10
226.365336
 20
236.682619
 30
0.0
 11
227.495185
 21
235.148064
 31
0.0
  0
LINE
  5
3fa
100
AcDbEntity
  8
Layer_1
 62
7
100
AcDbLine
 10
227.495185
 20
235.148064
 30
0.0
 11
228.605503
 21
233.599313
 31
0.0
  0
LINE
  5
3fb
100
AcDbEntity
  8
Layer_1
 62
7
100
AcDbLine
 10
228.605503
 20
233.599313
 30
0.0
 11
227.509155
 21
231.784934
 31
0.0
  0
LINE
  5
3fc
100
AcDbEntity
  8
Layer_1
 62
7
100
AcDbLine
 10
227.509155
 20
231.784934
 30
0.0
 11
226.362373
 21
230.034818
 31
0.0
  0
LINE
  5
3fd
100
AcDbEntity
  8
Layer_1
 62
7
100
AcDbLine
 10
226.362373
 20
230.034818
 30
0.0
 11
225.163126
 21
228.353987
 31
0.0
  0
LINE
  5
3fe
100
AcDbEntity
  8
Layer_1
 62
7
100
AcDbLine
 10
225.163126
 20
228.353987
 30
0.0
 11
223.908197
 21
226.749158
 31
0.0
  0
LINE
  5
3ff
100
AcDbEntity
  8
Layer_1
 62
7
100
AcDbLine
 10
223.908197
 20
226.749158
 30
0.0
 11
222.592223
 21
225.230351
 31
0.0
  0
LINE
  5
400
100
AcDbEntity
  8
Layer_1
 62
7
100
AcDbLine
 10
222.592223
 20
225.230351
 30
0.0
 11
223.817716
 21
223.375502
 31
0.0
  0
LINE
  5
401
100
AcDbEntity
  8
Layer_1
 62
7
100
AcDbLine
 10
223.817716
 20
223.375502
 30
0.0
 11
225.013746
 21
221.501547
 31
0.0
  0
LINE
  5
402
100
AcDbEntity
  8
Layer_1
 62
7
100
AcDbLine
 10
225.013746
 20
221.501547
 30
0.0
 11
226.936498
 21
222.086001
 31
0.0
  0
LINE
  5
403
100
AcDbEntity
  8
Layer_1
 62
7
100
AcDbLine
 10
226.936498
 20
222.086001
 30
0.0
 11
228.913013
 21
222.579664
 31
0.0
  0
LINE
  5
404
100
AcDbEntity
  8
Layer_1
 62
7
100
AcDbLine
 10
228.913013
 20
222.579664
 30
0.0
 11
230.936320
 21
222.991595
 31
0.0
  0
LINE
  5
405
100
AcDbEntity
  8
Layer_1
 62
7
100
AcDbLine
 10
230.936320
 20
222.991595
 30
0.0
 11
233.001538
 21
223.327412
 31
0.0
  0
LINE
  5
406
100
AcDbEntity
  8
Layer_1
 62
7
100
AcDbLine
 10
233.001538
 20
223.327412
 30
0.0
 11
235.104996
 21
223.590979
 31
0.0
  0
LINE
  5
407
100
AcDbEntity
  8
Layer_1
 62
7
100
AcDbLine
 10
235.104996
 20
223.590979
 30
0.0
 11
236.068249
 21
221.946724
 31
0.0
  0
LINE
  5
408
100
AcDbEntity
  8
Layer_1
 62
7
100
AcDbLine
 10
236.068249
 20
221.946724
 30
0.0
 11
237.010589
 21
220.290390
 31
0.0
  0
LINE
  5
409
100
AcDbEntity
  8
Layer_1
 62
7
100
AcDbLine
 10
237.010589
 20
220.290390
 30
0.0
 11
235.730598
 21
218.600528
 31
0.0
  0
LINE
  5
40a
100
AcDbEntity
  8
Layer_1
 62
7
100
AcDbLine
 10
235.730598
 20
218.600528
 30
0.0
 11
234.407174
 21
216.979895
 31
0.0
  0
LINE
  5
40b
100
AcDbEntity
  8
Layer_1
 62
7
100
AcDbLine
 10
234.407174
 20
216.979895
 30
0.0
 11
233.038791
 21
215.433628
 31
0.0
  0
LINE
  5
40c
100
AcDbEntity
  8
Layer_1
 62
7
100
AcDbLine
 10
233.038791
 20
215.433628
 30
0.0
 11
231.622995
 21
213.968753
 31
0.0
  0
LINE
  5
40d
100
AcDbEntity
  8
Layer_1
 62
7
100
AcDbLine
 10
231.622995
 20
213.968753
 30
0.0
 11
230.155468
 21
212.595827
 31
0.0
  0
LINE
  5
40e
100
AcDbEntity
  8
Layer_1
 62
7
100
AcDbLine
 10
230.155468
 20
212.595827
 30
0.0
 11
231.180358
 21
210.623037
 31
0.0
  0
LINE
  5
40f
100
AcDbEntity
  8
Layer_1
 62
7
100
AcDbLine
 10
231.180358
 20
210.623037
 30
0.0
 11
232.173921
 21
208.634330
 31
0.0
  0
LINE
  5
410
100
AcDbEntity
  8
Layer_1
 62
7
100
AcDbLine
 10
232.173921
 20
208.634330
 30
0.0
 11
234.147275
 21
209.014596
 31
0.0
  0
LINE
  5
411
100
AcDbEntity
  8
Layer_1
 62
7
100
AcDbLine
 10
234.147275
 20
209.014596
 30
0.0
 11
236.164543
 21
209.298963
 31
0.0
  0
LINE
  5
412
100
AcDbEntity
  8
Layer_1
 62
7
100
AcDbLine
 10
236.164543
 20
209.298963
 30
0.0
 11
238.219827
 21
209.497140
 31
0.0
  0
LINE
  5
413
100
AcDbEntity
  8
Layer_1
 62
7
100
AcDbLine
 10
238.219827
 20
209.497140
 30
0.0
 11
240.308836
 21
209.615222
 31
0.0
  0
LINE
  5
414
100
AcDbEntity
  8
Layer_1
 62
7
100
AcDbLine
 10
240.308836
 20
209.615222
 30
0.0
 11
242.428324
 21
209.657498
 31
0.0
  0
LINE
  5
415
100
AcDbEntity
  8
Layer_1
 62
7
100
AcDbLine
 10
242.428324
 20
209.657498
 30
0.0
 11
243.214426
 21
207.921550
 31
0.0
  0
LINE
  5
416
100
AcDbEntity
  8
Layer_1
 62
7
100
AcDbLine
 10
243.214426
 20
207.921550
 30
0.0
 11
243.978458
 21
206.175808
 31
0.0
  0
LINE
  5
417
100
AcDbEntity
  8
Layer_1
 62
7
100
AcDbLine
 10
243.978458
 20
206.175808
 30
0.0
 11
242.528852
 21
204.629004
 31
0.0
  0
LINE
  5
418
100
AcDbEntity
  8
Layer_1
 62
7
100
AcDbLine
 10
242.528852
 20
204.629004
 30
0.0
 11
241.043262
 21
203.155578
 31
0.0
  0
LINE
  5
419
100
AcDbEntity
  8
Layer_1
 62
7
100
AcDbLine
 10
241.043262
 20
203.155578
 30
0.0
 11
239.520758
 21
201.760808
 31
0.0
  0
LINE
  5
41a
100
AcDbEntity
  8
Layer_1
 62
7
100
AcDbLine
 10
239.520758
 20
201.760808
 30
0.0
 11
237.959590
 21
200.451974
 31
0.0
  0
LINE
  5
41b
100
AcDbEntity
  8
Layer_1
 62
7
100
AcDbLine
 10
237.959590
 20
200.451974
 30
0.0
 11
236.356596
 21
199.239942
 31
0.0
  0
LINE
  5
41c
100
AcDbEntity
  8
Layer_1
 62
7
100
AcDbLine
 10
236.356596
 20
199.239942
 30
0.0
 11
237.169650
 21
197.170858
 31
0.0
  0
LINE
  5
41d
100
AcDbEntity
  8
Layer_1
 62
7
100
AcDbLine
 10
237.169650
 20
197.170858
 30
0.0
 11
237.949909
 21
195.089159
 31
0.0
  0
LINE
  5
41e
100
AcDbEntity
  8
Layer_1
 62
7
100
AcDbLine
 10
237.949909
 20
195.089159
 30
0.0
 11
239.952191
 21
195.261061
 31
0.0
  0
LINE
  5
41f
100
AcDbEntity
  8
Layer_1
 62
7
100
AcDbLine
 10
239.952191
 20
195.261061
 30
0.0
 11
241.988142
 21
195.333027
 31
0.0
  0
LINE
  5
420
100
AcDbEntity
  8
Layer_1
 62
7
100
AcDbLine
 10
241.988142
 20
195.333027
 30
0.0
 11
244.052880
 21
195.315276
 31
0.0
  0
LINE
  5
421
100
AcDbEntity
  8
Layer_1
 62
7
100
AcDbLine
 10
244.052880
 20
195.315276
 30
0.0
 11
246.142792
 21
195.214353
 31
0.0
  0
LINE
  5
422
100
AcDbEntity
  8
Layer_1
 62
7
100
AcDbLine
 10
246.142792
 20
195.214353
 30
0.0
 11
248.255084
 21
195.034831
 31
0.0
  0
LINE
  5
423
100
AcDbEntity
  8
Layer_1
 62
7
100
AcDbLine
 10
248.255084
 20
195.034831
 30
0.0
 11
248.855428
 21
193.226238
 31
0.0
  0
LINE
  5
424
100
AcDbEntity
  8
Layer_1
 62
7
100
AcDbLine
 10
248.855428
 20
193.226238
 30
0.0
 11
249.432798
 21
191.410195
 31
0.0
  0
LINE
  5
425
100
AcDbEntity
  8
Layer_1
 62
7
100
AcDbLine
 10
249.432798
 20
191.410195
 30
0.0
 11
247.829437
 21
190.023383
 31
0.0
  0
LINE
  5
426
100
AcDbEntity
  8
Layer_1
 62
7
100
AcDbLine
 10
247.829437
 20
190.023383
 30
0.0
 11
246.197967
 21
188.713336
 31
0.0
  0
LINE
  5
427
100
AcDbEntity
  8
Layer_1
 62
7
100
AcDbLine
 10
246.197967
 20
188.713336
 30
0.0
 11
244.538020
 21
187.485359
 31
0.0
  0
LINE
  5
428
100
AcDbEntity
  8
Layer_1
 62
7
100
AcDbLine
 10
244.538020
 20
187.485359
 30
0.0
 11
242.848582
 21
186.346846
 31
0.0
  0
LINE
  5
429
100
AcDbEntity
  8
Layer_1
 62
7
100
AcDbLine
 10
242.848582
 20
186.346846
 30
0.0
 11
241.127675
 21
185.309030
 31
0.0
  0
LINE
  5
42a
100
AcDbEntity
  8
Layer_1
 62
7
100
AcDbLine
 10
241.127675
 20
185.309030
 30
0.0
 11
241.720003
 21
183.166286
 31
0.0
  0
LINE
  5
42b
100
AcDbEntity
  8
Layer_1
 62
7
100
AcDbLine
 10
241.720003
 20
183.166286
 30
0.0
 11
242.278408
 21
181.014455
 31
0.0
  0
LINE
  5
42c
100
AcDbEntity
  8
Layer_1
 62
7
100
AcDbLine
 10
242.278408
 20
181.014455
 30
0.0
 11
244.287689
 21
180.976129
 31
0.0
  0
LINE
  5
42d
100
AcDbEntity
  8
Layer_1
 62
7
100
AcDbLine
 10
244.287689
 20
180.976129
 30
0.0
 11
246.320000
 21
180.834877
 31
0.0
  0
LINE
  5
42e
100
AcDbEntity
  8
Layer_1
 62
7
100
AcDbLine
 10
246.320000
 20
180.834877
 30
0.0
 11
248.371558
 21
180.601394
 31
0.0
  0
LINE
  5
42f
100
AcDbEntity
  8
Layer_1
 62
7
100
AcDbLine
 10
248.371558
 20
180.601394
 30
0.0
 11
250.439484
 21
180.282568
 31
0.0
  0
LINE
  5
430
100
AcDbEntity
  8
Layer_1
 62
7
100
AcDbLine
 10
250.439484
 20
180.282568
 30
0.0
 11
252.521438
 21
179.883223
 31
0.0
  0
LINE
  5
431
100
AcDbEntity
  8
Layer_1
 62
7
100
AcDbLine
 10
252.521438
 20
179.883223
 30
0.0
 11
252.929446
 21
178.021798
 31
0.0
  0
LINE
  5
432
100
AcDbEntity
  8
Layer_1
 62
7
100
AcDbLine
 10
252.929446
 20
178.021798
 30
0.0
 11
253.313833
 21
176.155350
 31
0.0
  0
LINE
  5
433
100
AcDbEntity
  8
Layer_1
 62
7
100
AcDbLine
 10
253.313833
 20
176.155350
 30
0.0
 11
251.574300
 21
174.943742
 31
0.0
  0
LINE
  5
434
100
AcDbEntity
  8
Layer_1
 62
7
100
AcDbLine
 10
251.574300
 20
174.943742
 30
0.0
 11
249.814814
 21
173.811382
 31
0.0
  0
LINE
  5
435
100
AcDbEntity
  8
Layer_1
 62
7
100
AcDbLine
 10
249.814814
 20
173.811382
 30
0.0
 11
248.035600
 21
172.763632
 31
0.0
  0
LINE
  5
436
100
AcDbEntity
  8
Layer_1
 62
7
100
AcDbLine
 10
248.035600
 20
172.763632
 30
0.0
 11
246.236434
 21
171.807971
 31
0.0
  0
LINE
  5
437
100
AcDbEntity
  8
Layer_1
 62
7
100
AcDbLine
 10
246.236434
 20
171.807971
 30
0.0
 11
244.416467
 21
170.955716
 31
0.0
  0
LINE
  5
438
100
AcDbEntity
  8
Layer_1
 62
7
100
AcDbLine
 10
244.416467
 20
170.955716
 30
0.0
 11
244.781578
 21
168.762793
 31
0.0
  0
LINE
  5
439
100
AcDbEntity
  8
Layer_1
 62
7
100
AcDbLine
 10
244.781578
 20
168.762793
 30
0.0
 11
245.111976
 21
166.564366
 31
0.0
  0
LINE
  5
43a
100
AcDbEntity
  8
Layer_1
 62
7
100
AcDbLine
 10
245.111976
 20
166.564366
 30
0.0
 11
247.106242
 21
166.316237
 31
0.0
  0
LINE
  5
43b
100
AcDbEntity
  8
Layer_1
 62
7
100
AcDbLine
 10
247.106242
 20
166.316237
 30
0.0
 11
249.112673
 21
165.963318
 31
0.0
  0
LINE
  5
43c
100
AcDbEntity
  8
Layer_1
 62
7
100
AcDbLine
 10
249.112673
 20
165.963318
 30
0.0
 11
251.128586
 21
165.516673
 31
0.0
  0
LINE
  5
43d
100
AcDbEntity
  8
Layer_1
 62
7
100
AcDbLine
 10
251.128586
 20
165.516673
 30
0.0
 11
253.151838
 21
164.983442
 31
0.0
  0
LINE
  5
43e
100
AcDbEntity
  8
Layer_1
 62
7
100
AcDbLine
 10
253.151838
 20
164.983442
 30
0.0
 11
255.180648
 21
164.368678
 31
0.0
  0
LINE
  5
43f
100
AcDbEntity
  8
Layer_1
 62
7
100
AcDbLine
 10
255.180648
 20
164.368678
 30
0.0
 11
255.391864
 21
162.474797
 31
0.0
  0
LINE
  5
440
100
AcDbEntity
  8
Layer_1
 62
7
100
AcDbLine
 10
255.391864
 20
162.474797
 30
0.0
 11
255.579033
 21
160.578377
 31
0.0
  0
LINE
  5
441
100
AcDbEntity
  8
Layer_1
 62
7
100
AcDbLine
 10
255.579033
 20
160.578377
 30
0.0
 11
253.722378
 21
159.555236
 31
0.0
  0
LINE
  5
442
100
AcDbEntity
  8
Layer_1
 62
7
100
AcDbLine
 10
253.722378
 20
159.555236
 30
0.0
 11
251.854180
 21
158.613009
 31
0.0
  0
LINE
  5
443
100
AcDbEntity
  8
Layer_1
 62
7
100
AcDbLine
 10
251.854180
 20
158.613009
 30
0.0
 11
249.975172
 21
157.756973
 31
0.0
  0
LINE
  5
444
100
AcDbEntity
  8
Layer_1
 62
7
100
AcDbLine
 10
249.975172
 20
157.756973
 30
0.0
 11
248.085977
 21
156.994606
 31
0.0
  0
LINE
  5
445
100
AcDbEntity
  8
Layer_1
 62
7
100
AcDbLine
 10
248.085977
 20
156.994606
 30
0.0
 11
246.186904
 21
156.337254
 31
0.0
  0
LINE
  5
446
100
AcDbEntity
  8
Layer_1
 62
7
100
AcDbLine
 10
246.186904
 20
156.337254
 30
0.0
 11
246.320790
 21
154.118197
 31
0.0
  0
LINE
  5
447
100
AcDbEntity
  8
Layer_1
 62
7
100
AcDbLine
 10
246.320790
 20
154.118197
 30
0.0
 11
246.419596
 21
151.897278
 31
0.0
  0
SPLINE
  5
448
100
AcDbEntity
  8
Layer_1
 62
7
100
AcDbSpline
 70
0
 71
3
 72
25
 73
21
 74
19
 40
0.000000
 40
0.000000
 40
0.000000
 40
0.000000
 40
4.431844
 40
8.800262
 40
13.232106
 40
17.663950
 40
22.032368
 40
26.464212
 40
30.896057
 40
35.264474
 40
39.696318
 40
44.128163
 40
48.496580
 40
52.928425
 40
57.360269
 40
61.728686
 40
66.160531
 40
70.592375
 40
74.960793
 40
79.392637
 40
79.392637
 40
79.392637
 40
79.392637
 10
105.833333
 20
134.055556
 30
0.0
 10
107.318149
 20
134.207295
 30
0.0
 10
110.266531
 20
134.508601
 30
0.0
 10
114.162863
 20
136.846248
 30
0.0
 10
117.059683
 20
140.268959
 30
0.0
 10
118.596060
 20
144.507341
 30
0.0
 10
118.596060
 20
149.004743
 30
0.0
 10
117.059683
 20
153.237189
 30
0.0
 10
114.162863
 20
156.683602
 30
0.0
 10
110.266531
 20
158.933183
 30
0.0
 10
105.833333
 20
159.718624
 30
0.0
 10
101.400136
 20
158.933183
 30
0.0
 10
97.503804
 20
156.683602
 30
0.0
 10
94.606983
 20
153.237189
 30
0.0
 10
93.070606
 20
149.004743
 30
0.0
 10
93.070606
 20
144.507341
 30
0.0
 10
94.606983
 20
140.268959
 30
0.0
 10
97.503804
 20
136.846248
 30
0.0
 10
101.400136
 20
134.508601
 30
0.0
 10
104.348517
 20
134.207295
 30
0.0
 10
105.833333
 20
134.055556
 30
0.0
 11
105.833333
 21
134.055556
 31
0.0
 11
110.197226
 21
134.828653
 31
0.0
 11
113.980387
 21
137.012862
 31
0.0
 11
116.831856
 21
140.405556
 31
0.0
 11
118.344280
 21
144.571347
 31
0.0
 11
118.344280
 21
148.939764
 31
0.0
 11
116.831856
 21
153.105556
 31
0.0
 11
113.980387
 21
156.498249
 31
0.0
 11
110.197226
 21
158.682458
 31
0.0
 11
105.833333
 21
159.455556
 31
0.0
 11
101.469440
 21
158.682458
 31
0.0
 11
97.686280
 21
156.498249
 31
0.0
 11
94.834811
 21
153.105556
 31
0.0
 11
93.322386
 21
148.939764
 31
0.0
 11
93.322386
 21
144.571347
 31
0.0
 11
94.834811
 21
140.405556
 31
0.0
 11
97.686280
 21
137.012862
 31
0.0
 11
101.469440
 21
134.828653
 31
0.0
 11
105.833333
 21
134.055556
 31
0.0
  0
ENDSEC
  0
SECTION
  2
OBJECTS
  0
DICTIONARY
  5
C
330
0
100
AcDbDictionary
  3
ACAD_GROUP
350
D
  3
ACAD_MLINESTYLE
350
17
  0
DICTIONARY
  5
D
330
C
100
AcDbDictionary
  0
DICTIONARY
  5
1A
330
C
100
AcDbDictionary
  0
DICTIONARY
  5
17
330
C
100
AcDbDictionary
  3
STANDARD
350
18
  0
DICTIONARY
  5
19
330
C
100
AcDbDictionary
  0
ENDSEC
  0
EOF
