  0
SECTION
  2
HEADER
  9
$ACADVER
  1
AC1014
  9
$HANDSEED
  5
FFFF
  9
$MEASUREMENT
 70
     1
  0
ENDSEC
  0
SECTION
  2
TABLES
  0
TABLE
  2
VPORT
  5
8
330
0
100
AcDbSymbolTable
 70
     4
  0
VPORT
  5
2E
330
8
100
AcDbSymbolTableRecord
100
AcDbViewportTableRecord
  2
*ACTIVE
 70
     0
 10
0.0
 20
0.0
 11
1.0
 21
1.0
 12
210.0
 22
148.5
 13
0.0
 23
0.0
 14
10.0
 24
10.0
 15
10.0
 25
10.0
 16
0.0
 26
0.0
 36
1.0
 17
0.0
 27
0.0
 37
0.0
 40
341.0
 41
1.24
 42
50.0
 43
0.0
 44
0.0
 50
0.0
 51
0.0
 71
     0
 72
   100
 73
     1
 74
     3
 75
     0
 76
     0
 77
     0
 78
     0
  0
ENDTAB
  0
TABLE
  2
LTYPE
  5
5
330
0
100
AcDbSymbolTable
 70
     1
  0
LTYPE
  5
14
330
5
100
AcDbSymbolTableRecord
100
AcDbLinetypeTableRecord
  2
BYBLOCK
 70
     0
  3

 72
    65
 73
     0
 40
0.0
  0
LTYPE
  5
15
330
5
100
AcDbSymbolTableRecord
100
AcDbLinetypeTableRecord
  2
BYLAYER
 70
     0
  3

 72
    65
 73
     0
 40
0.0
  0
LTYPE
  5
16
330
5
100
AcDbSymbolTableRecord
100
AcDbLinetypeTableRecord
  2
CONTINUOUS
 70
     0
  3
Solid line
 72
    65
 73
     0
 40
0.0
  0
ENDTAB
  0
TABLE
  2
LAYER
  5
2
100
AcDbSymbolTable
 70
2
  0
LAYER
  5
50
100
AcDbSymbolTableRecord
100
AcDbLayerTableRecord
  2
0
 70
0
  6
CONTINUOUS
  0
LAYER
  5
51
100
AcDbSymbolTableRecord
100
AcDbLayerTableRecord
  2
Layer_1
 70
0
  6
CONTINUOUS
  0
ENDTAB
  0
TABLE
  2
STYLE
  5
3
330
0
100
AcDbSymbolTable
 70
     1
  0
STYLE
  5
11
330
3
100
AcDbSymbolTableRecord
100
AcDbTextStyleTableRecord
  2
STANDARD
 70
     0
 40
0.0
 41
1.0
 50
0.0
 71
     0
 42
2.5
  3
txt
  4

  0
ENDTAB
  0
TABLE
  2
VIEW
  5
6
330
0
100
AcDbSymbolTable
 70
     0
  0
ENDTAB
  0
TABLE
  2
UCS
  5
7
330
0
100
AcDbSymbolTable
 70
     0
  0
ENDTAB
  0
TABLE
  2
APPID
  5
9
330
0
100
AcDbSymbolTable
 70
     2
  0
APPID
  5
12
330
9
100
AcDbSymbolTableRecord
100
AcDbRegAppTableRecord
  2
ACAD
 70
     0
  0
ENDTAB
  0
TABLE
  2
DIMSTYLE
  5
A
330
0
100
AcDbSymbolTable
 70
     1
  0
DIMSTYLE
105
27
330
A
100
AcDbSymbolTableRecord
100
AcDbDimStyleTableRecord
  2
ISO-25
 70
     0
  3

  4

  5

  6

  7

 40
1.0
 41
2.5
 42
0.625
 43
3.75
 44
1.25
 45
0.0
 46
0.0
 47
0.0
 48
0.0
140
2.5
141
2.5
142
0.0
143
0.03937007874016
144
1.0
145
0.0
146
1.0
147
0.625
 71
     0
 72
     0
 73
     0
 74
     0
 75
     0
 76
     0
 77
     1
 78
     8
170
     0
171
     3
172
     1
173
     0
174
     0
175
     0
176
     0
177
     0
178
     0
270
     2
271
     2
272
     2
273
     2
274
     3
340
11
275
     0
280
     0
281
     0
282
     0
283
     0
284
     8
285
     0
286
     0
287
     3
288
     0
  0
ENDTAB
  0
TABLE
  2
BLOCK_RECORD
  5
1
330
0
100
AcDbSymbolTable
 70
     1
  0
BLOCK_RECORD
  5
1F
330
1
100
AcDbSymbolTableRecord
100
AcDbBlockTableRecord
  2
*MODEL_SPACE
  0
BLOCK_RECORD
  5
1B
330
1
100
AcDbSymbolTableRecord
100
AcDbBlockTableRecord
  2
*PAPER_SPACE
  0
ENDTAB
  0
ENDSEC
  0
SECTION
  2
BLOCKS
  0
BLOCK
  5
20
330
1F
100
AcDbEntity
  8
0
100
AcDbBlockBegin
  2
*MODEL_SPACE
 70
     0
 10
0.0
 20
0.0
 30
0.0
  3
*MODEL_SPACE
  1

  0
ENDBLK
  5
21
330
1F
100
AcDbEntity
  8
0
100
AcDbBlockEnd
  0
BLOCK
  5
1C
330
1B
100
AcDbEntity
 67
     1
  8
0
100
AcDbBlockBegin
  2
*PAPER_SPACE
  1

  0
ENDBLK
  5
1D
330
1B
100
AcDbEntity
 67
     1
  8
0
100
AcDbBlockEnd
  0
ENDSEC
  0
SECTION
  2
ENTITIES
  0
LINE
  5
100
100
AcDbEntity
  8
Layer_1
 62
7
100
AcDbLine
 10
146.645799
 20
150.939980
 30
0.0
 11
147.331035
 21
150.926433
 31
0.0
  0
LINE
  5
101
100
AcDbEntity
  8
Layer_1
 62
7
100
AcDbLine
 10
147.331035
 20
150.926433
 30
0.0
 11
148.023016
 21
150.842049
 31
0.0
  0
LINE
  5
102
100
AcDbEntity
  8
Layer_1
 62
7
100
AcDbLine
 10
148.023016
 20
150.842049
 30
0.0
 11
148.718947
 21
150.709404
 31
0.0
  0
LINE
  5
103
100
AcDbEntity
  8
Layer_1
 62
7
100
AcDbLine
 10
148.718947
 20
150.709404
 30
0.0
 11
149.417560
 21
150.536035
 31
0.0
  0
LINE
  5
104
100
AcDbEntity
  8
Layer_1
 62
7
100
AcDbLine
 10
149.417560
 20
150.536035
 30
0.0
 11
150.117838
 21
150.326175
 31
0.0
  0
LINE
  5
105
100
AcDbEntity
  8
Layer_1
 62
7
100
AcDbLine
 10
150.117838
 20
150.326175
 30
0.0
 11
150.819076
 21
150.082476
 31
0.0
  0
LINE
  5
106
100
AcDbEntity
  8
Layer_1
 62
7
100
AcDbLine
 10
150.819076
 20
150.082476
 30
0.0
 11
151.520511
 21
149.806829
 31
0.0
  0
LINE
  5
107
100
AcDbEntity
  8
Layer_1
 62
7
100
AcDbLine
 10
151.520511
 20
149.806829
 30
0.0
 11
152.221523
 21
149.500618
 31
0.0
  0
LINE
  5
108
100
AcDbEntity
  8
Layer_1
 62
7
100
AcDbLine
 10
152.221523
 20
149.500618
 30
0.0
 11
152.921434
 21
149.164971
 31
0.0
  0
LINE
  5
109
100
AcDbEntity
  8
Layer_1
 62
7
100
AcDbLine
 10
152.921434
 20
149.164971
 30
0.0
 11
153.619652
 21
148.800735
 31
0.0
  0
LINE
  5
10a
100
AcDbEntity
  8
Layer_1
 62
7
100
AcDbLine
 10
153.619652
 20
148.800735
 30
0.0
 11
154.315583
 21
148.408616
 31
0.0
  0
LINE
  5
10b
100
AcDbEntity
  8
Layer_1
 62
7
100
AcDbLine
 10
154.315583
 20
148.408616
 30
0.0
 11
154.336722
 21
147.582213
 31
0.0
  0
LINE
  5
10c
100
AcDbEntity
  8
Layer_1
 62
7
100
AcDbLine
 10
154.336722
 20
147.582213
 30
0.0
 11
154.343749
 21
146.755556
 31
0.0
  0
LINE
  5
10d
100
AcDbEntity
  8
Layer_1
 62
7
100
AcDbLine
 10
154.343749
 20
146.755556
 30
0.0
 11
154.336722
 21
145.928898
 31
0.0
  0
LINE
  5
10e
100
AcDbEntity
  8
Layer_1
 62
7
100
AcDbLine
 10
154.336722
 20
145.928898
 30
0.0
 11
154.315583
 21
145.102495
 31
0.0
  0
LINE
  5
10f
100
AcDbEntity
  8
Layer_1
 62
7
100
AcDbLine
 10
154.315583
 20
145.102495
 30
0.0
 11
153.619652
 21
144.710376
 31
0.0
  0
LINE
  5
110
100
AcDbEntity
  8
Layer_1
 62
7
100
AcDbLine
 10
153.619652
 20
144.710376
 30
0.0
 11
152.921434
 21
144.346140
 31
0.0
  0
LINE
  5
111
100
AcDbEntity
  8
Layer_1
 62
7
100
AcDbLine
 10
152.921434
 20
144.346140
 30
0.0
 11
152.221523
 21
144.010493
 31
0.0
  0
LINE
  5
112
100
AcDbEntity
  8
Layer_1
 62
7
100
AcDbLine
 10
152.221523
 20
144.010493
 30
0.0
 11
151.520511
 21
143.704282
 31
0.0
  0
LINE
  5
113
100
AcDbEntity
  8
Layer_1
 62
7
100
AcDbLine
 10
151.520511
 20
143.704282
 30
0.0
 11
150.819076
 21
143.428635
 31
0.0
  0
LINE
  5
114
100
AcDbEntity
  8
Layer_1
 62
7
100
AcDbLine
 10
150.819076
 20
143.428635
 30
0.0
 11
150.117838
 21
143.184936
 31
0.0
  0
LINE
  5
115
100
AcDbEntity
  8
Layer_1
 62
7
100
AcDbLine
 10
150.117838
 20
143.184936
 30
0.0
 11
149.417560
 21
142.975076
 31
0.0
  0
LINE
  5
116
100
AcDbEntity
  8
Layer_1
 62
7
100
AcDbLine
 10
149.417560
 20
142.975076
 30
0.0
 11
148.718947
 21
142.801707
 31
0.0
  0
LINE
  5
117
100
AcDbEntity
  8
Layer_1
 62
7
100
AcDbLine
 10
148.718947
 20
142.801707
 30
0.0
 11
148.023016
 21
142.669062
 31
0.0
  0
LINE
  5
118
100
AcDbEntity
  8
Layer_1
 62
7
100
AcDbLine
 10
148.023016
 20
142.669062
 30
0.0
 11
147.331035
 21
142.584678
 31
0.0
  0
LINE
  5
119
100
AcDbEntity
  8
Layer_1
 62
7
100
AcDbLine
 10
147.331035
 20
142.584678
 30
0.0
 11
146.645799
 21
142.571131
 31
0.0
  0
LINE
  5
11a
100
AcDbEntity
  8
Layer_1
 62
7
100
AcDbLine
 10
146.645799
 20
142.571131
 30
0.0
 11
144.439301
 21
142.797361
 31
0.0
  0
LINE
  5
11b
100
AcDbEntity
  8
Layer_1
 62
7
100
AcDbLine
 10
144.439301
 20
142.797361
 30
0.0
 11
144.270843
 21
141.403465
 31
0.0
  0
LINE
  5
11c
100
AcDbEntity
  8
Layer_1
 62
7
100
AcDbLine
 10
144.270843
 20
141.403465
 30
0.0
 11
144.052092
 21
140.016569
 31
0.0
  0
LINE
  5
11d
100
AcDbEntity
  8
Layer_1
 62
7
100
AcDbLine
 10
144.052092
 20
140.016569
 30
0.0
 11
143.783304
 21
138.638478
 31
0.0
  0
LINE
  5
11e
100
AcDbEntity
  8
Layer_1
 62
7
100
AcDbLine
 10
143.783304
 20
138.638478
 30
0.0
 11
143.464844
 21
137.271026
 31
0.0
  0
LINE
  5
11f
100
AcDbEntity
  8
Layer_1
 62
7
100
AcDbLine
 10
143.464844
 20
137.271026
 30
0.0
 11
145.615660
 21
136.728934
 31
0.0
  0
LINE
  5
120
100
AcDbEntity
  8
Layer_1
 62
7
100
AcDbLine
 10
145.615660
 20
136.728934
 30
0.0
 11
146.254922
 21
136.481848
 31
0.0
  0
LINE
  5
121
100
AcDbEntity
  8
Layer_1
 62
7
100
AcDbLine
 10
146.254922
 20
136.481848
 30
0.0
 11
146.876347
 21
136.165900
 31
0.0
  0
LINE
  5
122
100
AcDbEntity
  8
Layer_1
 62
7
100
AcDbLine
 10
146.876347
 20
136.165900
 30
0.0
 11
147.484931
 21
135.803217
 31
0.0
  0
LINE
  5
123
100
AcDbEntity
  8
Layer_1
 62
7
100
AcDbLine
 10
147.484931
 20
135.803217
 30
0.0
 11
148.082113
 21
135.401360
 31
0.0
  0
LINE
  5
124
100
AcDbEntity
  8
Layer_1
 62
7
100
AcDbLine
 10
148.082113
 20
135.401360
 30
0.0
 11
148.668401
 21
134.964622
 31
0.0
  0
LINE
  5
125
100
AcDbEntity
  8
Layer_1
 62
7
100
AcDbLine
 10
148.668401
 20
134.964622
 30
0.0
 11
149.243965
 21
134.495794
 31
0.0
  0
LINE
  5
126
100
AcDbEntity
  8
Layer_1
 62
7
100
AcDbLine
 10
149.243965
 20
134.495794
 30
0.0
 11
149.808833
 21
133.996853
 31
0.0
  0
LINE
  5
127
100
AcDbEntity
  8
Layer_1
 62
7
100
AcDbLine
 10
149.808833
 20
133.996853
 30
0.0
 11
150.362835
 21
133.469380
 31
0.0
  0
LINE
  5
128
100
AcDbEntity
  8
Layer_1
 62
7
100
AcDbLine
 10
150.362835
 20
133.469380
 30
0.0
 11
150.905746
 21
132.914588
 31
0.0
  0
LINE
  5
129
100
AcDbEntity
  8
Layer_1
 62
7
100
AcDbLine
 10
150.905746
 20
132.914588
 30
0.0
 11
151.437284
 21
132.333520
 31
0.0
  0
LINE
  5
12a
100
AcDbEntity
  8
Layer_1
 62
7
100
AcDbLine
 10
151.437284
 20
132.333520
 30
0.0
 11
151.957137
 21
131.727025
 31
0.0
  0
LINE
  5
12b
100
AcDbEntity
  8
Layer_1
 62
7
100
AcDbLine
 10
151.957137
 20
131.727025
 30
0.0
 11
151.694332
 21
130.943209
 31
0.0
  0
LINE
  5
12c
100
AcDbEntity
  8
Layer_1
 62
7
100
AcDbLine
 10
151.694332
 20
130.943209
 30
0.0
 11
151.418234
 21
130.164022
 31
0.0
  0
LINE
  5
12d
100
AcDbEntity
  8
Layer_1
 62
7
100
AcDbLine
 10
151.418234
 20
130.164022
 30
0.0
 11
151.128871
 21
129.389632
 31
0.0
  0
LINE
  5
12e
100
AcDbEntity
  8
Layer_1
 62
7
100
AcDbLine
 10
151.128871
 20
129.389632
 30
0.0
 11
150.826357
 21
128.620266
 31
0.0
  0
LINE
  5
12f
100
AcDbEntity
  8
Layer_1
 62
7
100
AcDbLine
 10
150.826357
 20
128.620266
 30
0.0
 11
150.038280
 21
128.489823
 31
0.0
  0
LINE
  5
130
100
AcDbEntity
  8
Layer_1
 62
7
100
AcDbLine
 10
150.038280
 20
128.489823
 30
0.0
 11
149.257597
 21
128.386360
 31
0.0
  0
LINE
  5
131
100
AcDbEntity
  8
Layer_1
 62
7
100
AcDbLine
 10
149.257597
 20
128.386360
 30
0.0
 11
148.485098
 21
128.310330
 31
0.0
  0
LINE
  5
132
100
AcDbEntity
  8
Layer_1
 62
7
100
AcDbLine
 10
148.485098
 20
128.310330
 30
0.0
 11
147.721659
 21
128.262380
 31
0.0
  0
LINE
  5
133
100
AcDbEntity
  8
Layer_1
 62
7
100
AcDbLine
 10
147.721659
 20
128.262380
 30
0.0
 11
146.968238
 21
128.243245
 31
0.0
  0
LINE
  5
134
100
AcDbEntity
  8
Layer_1
 62
7
100
AcDbLine
 10
146.968238
 20
128.243245
 30
0.0
 11
146.225937
 21
128.254083
 31
0.0
  0
LINE
  5
135
100
AcDbEntity
  8
Layer_1
 62
7
100
AcDbLine
 10
146.225937
 20
128.254083
 30
0.0
 11
145.496082
 21
128.296388
 31
0.0
  0
LINE
  5
136
100
AcDbEntity
  8
Layer_1
 62
7
100
AcDbLine
 10
145.496082
 20
128.296388
 30
0.0
 11
144.780339
 21
128.372418
 31
0.0
  0
LINE
  5
137
100
AcDbEntity
  8
Layer_1
 62
7
100
AcDbLine
 10
144.780339
 20
128.372418
 30
0.0
 11
144.080992
 21
128.485787
 31
0.0
  0
LINE
  5
138
100
AcDbEntity
  8
Layer_1
 62
7
100
AcDbLine
 10
144.080992
 20
128.485787
 30
0.0
 11
143.401881
 21
128.643154
 31
0.0
  0
LINE
  5
139
100
AcDbEntity
  8
Layer_1
 62
7
100
AcDbLine
 10
143.401881
 20
128.643154
 30
0.0
 11
142.753334
 21
128.864812
 31
0.0
  0
LINE
  5
13a
100
AcDbEntity
  8
Layer_1
 62
7
100
AcDbLine
 10
142.753334
 20
128.864812
 30
0.0
 11
140.757289
 21
129.832072
 31
0.0
  0
LINE
  5
13b
100
AcDbEntity
  8
Layer_1
 62
7
100
AcDbLine
 10
140.757289
 20
129.832072
 30
0.0
 11
140.122261
 21
128.579824
 31
0.0
  0
LINE
  5
13c
100
AcDbEntity
  8
Layer_1
 62
7
100
AcDbLine
 10
140.122261
 20
128.579824
 30
0.0
 11
139.442331
 21
127.351395
 31
0.0
  0
LINE
  5
13d
100
AcDbEntity
  8
Layer_1
 62
7
100
AcDbLine
 10
139.442331
 20
127.351395
 30
0.0
 11
138.718431
 21
126.148338
 31
0.0
  0
LINE
  5
13e
100
AcDbEntity
  8
Layer_1
 62
7
100
AcDbLine
 10
138.718431
 20
126.148338
 30
0.0
 11
137.951492
 21
124.972262
 31
0.0
  0
LINE
  5
13f
100
AcDbEntity
  8
Layer_1
 62
7
100
AcDbLine
 10
137.951492
 20
124.972262
 30
0.0
 11
139.787178
 21
123.727266
 31
0.0
  0
LINE
  5
140
100
AcDbEntity
  8
Layer_1
 62
7
100
AcDbLine
 10
139.787178
 20
123.727266
 30
0.0
 11
140.303391
 21
123.276445
 31
0.0
  0
LINE
  5
141
100
AcDbEntity
  8
Layer_1
 62
7
100
AcDbLine
 10
140.303391
 20
123.276445
 30
0.0
 11
140.779274
 21
122.767005
 31
0.0
  0
LINE
  5
142
100
AcDbEntity
  8
Layer_1
 62
7
100
AcDbLine
 10
140.779274
 20
122.767005
 30
0.0
 11
141.227104
 21
122.218027
 31
0.0
  0
LINE
  5
143
100
AcDbEntity
  8
Layer_1
 62
7
100
AcDbLine
 10
141.227104
 20
122.218027
 30
0.0
 11
141.650833
 21
121.636169
 31
0.0
  0
LINE
  5
144
100
AcDbEntity
  8
Layer_1
 62
7
100
AcDbLine
 10
141.650833
 20
121.636169
 30
0.0
 11
142.052379
 21
121.025271
 31
0.0
  0
LINE
  5
145
100
AcDbEntity
  8
Layer_1
 62
7
100
AcDbLine
 10
142.052379
 20
121.025271
 30
0.0
 11
142.432899
 21
120.387844
 31
0.0
  0
LINE
  5
146
100
AcDbEntity
  8
Layer_1
 62
7
100
AcDbLine
 10
142.432899
 20
120.387844
 30
0.0
 11
142.793071
 21
119.725807
 31
0.0
  0
LINE
  5
147
100
AcDbEntity
  8
Layer_1
 62
7
100
AcDbLine
 10
142.793071
 20
119.725807
 30
0.0
 11
143.133233
 21
119.040656
 31
0.0
  0
LINE
  5
148
100
AcDbEntity
  8
Layer_1
 62
7
100
AcDbLine
 10
143.133233
 20
119.040656
 30
0.0
 11
143.453668
 21
118.333633
 31
0.0
  0
LINE
  5
149
100
AcDbEntity
  8
Layer_1
 62
7
100
AcDbLine
 10
143.453668
 20
118.333633
 30
0.0
 11
143.754404
 21
117.605810
 31
0.0
  0
LINE
  5
14a
100
AcDbEntity
  8
Layer_1
 62
7
100
AcDbLine
 10
143.754404
 20
117.605810
 30
0.0
 11
144.035470
 21
116.858090
 31
0.0
  0
LINE
  5
14b
100
AcDbEntity
  8
Layer_1
 62
7
100
AcDbLine
 10
144.035470
 20
116.858090
 30
0.0
 11
143.520442
 21
116.211435
 31
0.0
  0
LINE
  5
14c
100
AcDbEntity
  8
Layer_1
 62
7
100
AcDbLine
 10
143.520442
 20
116.211435
 30
0.0
 11
142.994465
 21
115.573641
 31
0.0
  0
LINE
  5
14d
100
AcDbEntity
  8
Layer_1
 62
7
100
AcDbLine
 10
142.994465
 20
115.573641
 30
0.0
 11
142.457706
 21
114.944934
 31
0.0
  0
LINE
  5
14e
100
AcDbEntity
  8
Layer_1
 62
7
100
AcDbLine
 10
142.457706
 20
114.944934
 30
0.0
 11
141.910336
 21
114.325428
 31
0.0
  0
LINE
  5
14f
100
AcDbEntity
  8
Layer_1
 62
7
100
AcDbLine
 10
141.910336
 20
114.325428
 30
0.0
 11
141.125166
 21
114.472410
 31
0.0
  0
LINE
  5
150
100
AcDbEntity
  8
Layer_1
 62
7
100
AcDbLine
 10
141.125166
 20
114.472410
 30
0.0
 11
140.356167
 21
114.642194
 31
0.0
  0
LINE
  5
151
100
AcDbEntity
  8
Layer_1
 62
7
100
AcDbLine
 10
140.356167
 20
114.642194
 30
0.0
 11
139.604242
 21
114.834952
 31
0.0
  0
LINE
  5
152
100
AcDbEntity
  8
Layer_1
 62
7
100
AcDbLine
 10
139.604242
 20
114.834952
 30
0.0
 11
138.870436
 21
115.050993
 31
0.0
  0
LINE
  5
153
100
AcDbEntity
  8
Layer_1
 62
7
100
AcDbLine
 10
138.870436
 20
115.050993
 30
0.0
 11
138.155906
 21
115.290713
 31
0.0
  0
LINE
  5
154
100
AcDbEntity
  8
Layer_1
 62
7
100
AcDbLine
 10
138.155906
 20
115.290713
 30
0.0
 11
137.462091
 21
115.554760
 31
0.0
  0
LINE
  5
155
100
AcDbEntity
  8
Layer_1
 62
7
100
AcDbLine
 10
137.462091
 20
115.554760
 30
0.0
 11
136.790740
 21
115.844151
 31
0.0
  0
LINE
  5
156
100
AcDbEntity
  8
Layer_1
 62
7
100
AcDbLine
 10
136.790740
 20
115.844151
 30
0.0
 11
136.144141
 21
116.160381
 31
0.0
  0
LINE
  5
157
100
AcDbEntity
  8
Layer_1
 62
7
100
AcDbLine
 10
136.144141
 20
116.160381
 30
0.0
 11
135.525764
 21
116.506103
 31
0.0
  0
LINE
  5
158
100
AcDbEntity
  8
Layer_1
 62
7
100
AcDbLine
 10
135.525764
 20
116.506103
 30
0.0
 11
134.941423
 21
116.886284
 31
0.0
  0
LINE
  5
159
100
AcDbEntity
  8
Layer_1
 62
7
100
AcDbLine
 10
134.941423
 20
116.886284
 30
0.0
 11
134.407797
 21
117.316363
 31
0.0
  0
LINE
  5
15a
100
AcDbEntity
  8
Layer_1
 62
7
100
AcDbLine
 10
134.407797
 20
117.316363
 30
0.0
 11
132.862941
 21
118.907983
 31
0.0
  0
LINE
  5
15b
100
AcDbEntity
  8
Layer_1
 62
7
100
AcDbLine
 10
132.862941
 20
118.907983
 30
0.0
 11
131.837910
 21
117.948456
 31
0.0
  0
LINE
  5
15c
100
AcDbEntity
  8
Layer_1
 62
7
100
AcDbLine
 10
131.837910
 20
117.948456
 30
0.0
 11
130.778843
 21
117.026634
 31
0.0
  0
LINE
  5
15d
100
AcDbEntity
  8
Layer_1
 62
7
100
AcDbLine
 10
130.778843
 20
117.026634
 30
0.0
 11
129.687151
 21
116.143730
 31
0.0
  0
LINE
  5
15e
100
AcDbEntity
  8
Layer_1
 62
7
100
AcDbLine
 10
129.687151
 20
116.143730
 30
0.0
 11
128.564217
 21
115.300901
 31
0.0
  0
LINE
  5
15f
100
AcDbEntity
  8
Layer_1
 62
7
100
AcDbLine
 10
128.564217
 20
115.300901
 30
0.0
 11
129.863370
 21
113.503146
 31
0.0
  0
LINE
  5
160
100
AcDbEntity
  8
Layer_1
 62
7
100
AcDbLine
 10
129.863370
 20
113.503146
 30
0.0
 11
130.194276
 21
112.902944
 31
0.0
  0
LINE
  5
161
100
AcDbEntity
  8
Layer_1
 62
7
100
AcDbLine
 10
130.194276
 20
112.902944
 30
0.0
 11
130.467185
 21
112.261481
 31
0.0
  0
LINE
  5
162
100
AcDbEntity
  8
Layer_1
 62
7
100
AcDbLine
 10
130.467185
 20
112.261481
 30
0.0
 11
130.700272
 21
111.592445
 31
0.0
  0
LINE
  5
163
100
AcDbEntity
  8
Layer_1
 62
7
100
AcDbLine
 10
130.700272
 20
111.592445
 30
0.0
 11
130.899436
 21
110.900774
 31
0.0
  0
LINE
  5
164
100
AcDbEntity
  8
Layer_1
 62
7
100
AcDbLine
 10
130.899436
 20
110.900774
 30
0.0
 11
131.067838
 21
110.189349
 31
0.0
  0
LINE
  5
165
100
AcDbEntity
  8
Layer_1
 62
7
100
AcDbLine
 10
131.067838
 20
110.189349
 30
0.0
 11
131.207397
 21
109.460199
 31
0.0
  0
LINE
  5
166
100
AcDbEntity
  8
Layer_1
 62
7
100
AcDbLine
 10
131.207397
 20
109.460199
 30
0.0
 11
131.319383
 21
108.714935
 31
0.0
  0
LINE
  5
167
100
AcDbEntity
  8
Layer_1
 62
7
100
AcDbLine
 10
131.319383
 20
108.714935
 30
0.0
 11
131.404727
 21
107.954741
 31
0.0
  0
LINE
  5
168
100
AcDbEntity
  8
Layer_1
 62
7
100
AcDbLine
 10
131.404727
 20
107.954741
 30
0.0
 11
131.463994
 21
107.180775
 31
0.0
  0
LINE
  5
169
100
AcDbEntity
  8
Layer_1
 62
7
100
AcDbLine
 10
131.463994
 20
107.180775
 30
0.0
 11
131.497691
 21
106.393996
 31
0.0
  0
LINE
  5
16a
100
AcDbEntity
  8
Layer_1
 62
7
100
AcDbLine
 10
131.497691
 20
106.393996
 30
0.0
 11
131.506073
 21
105.595222
 31
0.0
  0
LINE
  5
16b
100
AcDbEntity
  8
Layer_1
 62
7
100
AcDbLine
 10
131.506073
 20
105.595222
 30
0.0
 11
130.800941
 21
105.163733
 31
0.0
  0
LINE
  5
16c
100
AcDbEntity
  8
Layer_1
 62
7
100
AcDbLine
 10
130.800941
 20
105.163733
 30
0.0
 11
130.088555
 21
104.744294
 31
0.0
  0
LINE
  5
16d
100
AcDbEntity
  8
Layer_1
 62
7
100
AcDbLine
 10
130.088555
 20
104.744294
 30
0.0
 11
129.369114
 21
104.337076
 31
0.0
  0
LINE
  5
16e
100
AcDbEntity
  8
Layer_1
 62
7
100
AcDbLine
 10
129.369114
 20
104.337076
 30
0.0
 11
128.642872
 21
103.942162
 31
0.0
  0
LINE
  5
16f
100
AcDbEntity
  8
Layer_1
 62
7
100
AcDbLine
 10
128.642872
 20
103.942162
 30
0.0
 11
127.955294
 21
104.348788
 31
0.0
  0
LINE
  5
170
100
AcDbEntity
  8
Layer_1
 62
7
100
AcDbLine
 10
127.955294
 20
104.348788
 30
0.0
 11
127.290745
 21
104.771359
 31
0.0
  0
LINE
  5
171
100
AcDbEntity
  8
Layer_1
 62
7
100
AcDbLine
 10
127.290745
 20
104.771359
 30
0.0
 11
126.650129
 21
105.209679
 31
0.0
  0
LINE
  5
172
100
AcDbEntity
  8
Layer_1
 62
7
100
AcDbLine
 10
126.650129
 20
105.209679
 30
0.0
 11
126.034461
 21
105.663661
 31
0.0
  0
LINE
  5
173
100
AcDbEntity
  8
Layer_1
 62
7
100
AcDbLine
 10
126.034461
 20
105.663661
 30
0.0
 11
125.445012
 21
106.133307
 31
0.0
  0
LINE
  5
174
100
AcDbEntity
  8
Layer_1
 62
7
100
AcDbLine
 10
125.445012
 20
106.133307
 30
0.0
 11
124.883362
 21
106.618730
 31
0.0
  0
LINE
  5
175
100
AcDbEntity
  8
Layer_1
 62
7
100
AcDbLine
 10
124.883362
 20
106.618730
 30
0.0
 11
124.351457
 21
107.120267
 31
0.0
  0
LINE
  5
176
100
AcDbEntity
  8
Layer_1
 62
7
100
AcDbLine
 10
124.351457
 20
107.120267
 30
0.0
 11
123.852009
 21
107.638596
 31
0.0
  0
LINE
  5
177
100
AcDbEntity
  8
Layer_1
 62
7
100
AcDbLine
 10
123.852009
 20
107.638596
 30
0.0
 11
123.389164
 21
108.174959
 31
0.0
  0
LINE
  5
178
100
AcDbEntity
  8
Layer_1
 62
7
100
AcDbLine
 10
123.389164
 20
108.174959
 30
0.0
 11
122.970092
 21
108.732066
 31
0.0
  0
LINE
  5
179
100
AcDbEntity
  8
Layer_1
 62
7
100
AcDbLine
 10
122.970092
 20
108.732066
 30
0.0
 11
122.615762
 21
109.318721
 31
0.0
  0
LINE
  5
17a
100
AcDbEntity
  8
Layer_1
 62
7
100
AcDbLine
 10
122.615762
 20
109.318721
 30
0.0
 11
121.708418
 21
111.342706
 31
0.0
  0
LINE
  5
17b
100
AcDbEntity
  8
Layer_1
 62
7
100
AcDbLine
 10
121.708418
 20
111.342706
 30
0.0
 11
120.417054
 21
110.791639
 31
0.0
  0
LINE
  5
17c
100
AcDbEntity
  8
Layer_1
 62
7
100
AcDbLine
 10
120.417054
 20
110.791639
 30
0.0
 11
119.106555
 21
110.287647
 31
0.0
  0
LINE
  5
17d
100
AcDbEntity
  8
Layer_1
 62
7
100
AcDbLine
 10
119.106555
 20
110.287647
 30
0.0
 11
117.778728
 21
109.831378
 31
0.0
  0
LINE
  5
17e
100
AcDbEntity
  8
Layer_1
 62
7
100
AcDbLine
 10
117.778728
 20
109.831378
 30
0.0
 11
116.435237
 21
109.423426
 31
0.0
  0
LINE
  5
17f
100
AcDbEntity
  8
Layer_1
 62
7
100
AcDbLine
 10
116.435237
 20
109.423426
 30
0.0
 11
117.041196
 21
107.289741
 31
0.0
  0
LINE
  5
180
100
AcDbEntity
  8
Layer_1
 62
7
100
AcDbLine
 10
117.041196
 20
107.289741
 30
0.0
 11
117.146832
 21
106.612577
 31
0.0
  0
LINE
  5
181
100
AcDbEntity
  8
Layer_1
 62
7
100
AcDbLine
 10
117.146832
 20
106.612577
 30
0.0
 11
117.183916
 21
105.916448
 31
0.0
  0
LINE
  5
182
100
AcDbEntity
  8
Layer_1
 62
7
100
AcDbLine
 10
117.183916
 20
105.916448
 30
0.0
 11
117.174123
 21
105.208042
 31
0.0
  0
LINE
  5
183
100
AcDbEntity
  8
Layer_1
 62
7
100
AcDbLine
 10
117.174123
 20
105.208042
 30
0.0
 11
117.124706
 21
104.489956
 31
0.0
  0
LINE
  5
184
100
AcDbEntity
  8
Layer_1
 62
7
100
AcDbLine
 10
117.124706
 20
104.489956
 30
0.0
 11
117.039616
 21
103.763854
 31
0.0
  0
LINE
  5
185
100
AcDbEntity
  8
Layer_1
 62
7
100
AcDbLine
 10
117.039616
 20
103.763854
 30
0.0
 11
116.921393
 21
103.030951
 31
0.0
  0
LINE
  5
186
100
AcDbEntity
  8
Layer_1
 62
7
100
AcDbLine
 10
116.921393
 20
103.030951
 30
0.0
 11
116.771730
 21
102.292291
 31
0.0
  0
LINE
  5
187
100
AcDbEntity
  8
Layer_1
 62
7
100
AcDbLine
 10
116.771730
 20
102.292291
 30
0.0
 11
116.591927
 21
101.548805
 31
0.0
  0
LINE
  5
188
100
AcDbEntity
  8
Layer_1
 62
7
100
AcDbLine
 10
116.591927
 20
101.548805
 30
0.0
 11
116.382913
 21
100.801226
 31
0.0
  0
LINE
  5
189
100
AcDbEntity
  8
Layer_1
 62
7
100
AcDbLine
 10
116.382913
 20
100.801226
 30
0.0
 11
116.145451
 21
100.050374
 31
0.0
  0
LINE
  5
18a
100
AcDbEntity
  8
Layer_1
 62
7
100
AcDbLine
 10
116.145451
 20
100.050374
 30
0.0
 11
115.880134
 21
99.296897
 31
0.0
  0
LINE
  5
18b
100
AcDbEntity
  8
Layer_1
 62
7
100
AcDbLine
 10
115.880134
 20
99.296897
 30
0.0
 11
115.069959
 21
99.132588
 31
0.0
  0
LINE
  5
18c
100
AcDbEntity
  8
Layer_1
 62
7
100
AcDbLine
 10
115.069959
 20
99.132588
 30
0.0
 11
114.257074
 21
98.982107
 31
0.0
  0
LINE
  5
18d
100
AcDbEntity
  8
Layer_1
 62
7
100
AcDbLine
 10
114.257074
 20
98.982107
 30
0.0
 11
113.441762
 21
98.845511
 31
0.0
  0
LINE
  5
18e
100
AcDbEntity
  8
Layer_1
 62
7
100
AcDbLine
 10
113.441762
 20
98.845511
 30
0.0
 11
112.624221
 21
98.722801
 31
0.0
  0
LINE
  5
18f
100
AcDbEntity
  8
Layer_1
 62
7
100
AcDbLine
 10
112.624221
 20
98.722801
 30
0.0
 11
112.117209
 21
99.340077
 31
0.0
  0
LINE
  5
190
100
AcDbEntity
  8
Layer_1
 62
7
100
AcDbLine
 10
112.117209
 20
99.340077
 30
0.0
 11
111.637262
 21
99.964438
 31
0.0
  0
LINE
  5
191
100
AcDbEntity
  8
Layer_1
 62
7
100
AcDbLine
 10
111.637262
 20
99.964438
 30
0.0
 11
111.185198
 21
100.595430
 31
0.0
  0
LINE
  5
192
100
AcDbEntity
  8
Layer_1
 62
7
100
AcDbLine
 10
111.185198
 20
100.595430
 30
0.0
 11
110.761921
 21
101.232603
 31
0.0
  0
LINE
  5
193
100
AcDbEntity
  8
Layer_1
 62
7
100
AcDbLine
 10
110.761921
 20
101.232603
 30
0.0
 11
110.368673
 21
101.875534
 31
0.0
  0
LINE
  5
194
100
AcDbEntity
  8
Layer_1
 62
7
100
AcDbLine
 10
110.368673
 20
101.875534
 30
0.0
 11
110.006892
 21
102.523798
 31
0.0
  0
LINE
  5
195
100
AcDbEntity
  8
Layer_1
 62
7
100
AcDbLine
 10
110.006892
 20
102.523798
 30
0.0
 11
109.678611
 21
103.177001
 31
0.0
  0
LINE
  5
196
100
AcDbEntity
  8
Layer_1
 62
7
100
AcDbLine
 10
109.678611
 20
103.177001
 30
0.0
 11
109.386568
 21
103.834890
 31
0.0
  0
LINE
  5
197
100
AcDbEntity
  8
Layer_1
 62
7
100
AcDbLine
 10
109.386568
 20
103.834890
 30
0.0
 11
109.135079
 21
104.497209
 31
0.0
  0
LINE
  5
198
100
AcDbEntity
  8
Layer_1
 62
7
100
AcDbLine
 10
109.135079
 20
104.497209
 30
0.0
 11
108.931823
 21
105.164043
 31
0.0
  0
LINE
  5
199
100
AcDbEntity
  8
Layer_1
 62
7
100
AcDbLine
 10
108.931823
 20
105.164043
 30
0.0
 11
108.799489
 21
105.836522
 31
0.0
  0
LINE
  5
19a
100
AcDbEntity
  8
Layer_1
 62
7
100
AcDbLine
 10
108.799489
 20
105.836522
 30
0.0
 11
108.639130
 21
108.048778
 31
0.0
  0
LINE
  5
19b
100
AcDbEntity
  8
Layer_1
 62
7
100
AcDbLine
 10
108.639130
 20
108.048778
 30
0.0
 11
107.237163
 21
107.972606
 31
0.0
  0
LINE
  5
19c
100
AcDbEntity
  8
Layer_1
 62
7
100
AcDbLine
 10
107.237163
 20
107.972606
 30
0.0
 11
105.833333
 21
107.947206
 31
0.0
  0
LINE
  5
19d
100
AcDbEntity
  8
Layer_1
 62
7
100
AcDbLine
 10
105.833333
 20
107.947206
 30
0.0
 11
104.429504
 21
107.972606
 31
0.0
  0
LINE
  5
19e
100
AcDbEntity
  8
Layer_1
 62
7
100
AcDbLine
 10
104.429504
 20
107.972606
 30
0.0
 11
103.027536
 21
108.048778
 31
0.0
  0
LINE
  5
19f
100
AcDbEntity
  8
Layer_1
 62
7
100
AcDbLine
 10
103.027536
 20
108.048778
 30
0.0
 11
102.867178
 21
105.836522
 31
0.0
  0
LINE
  5
1a0
100
AcDbEntity
  8
Layer_1
 62
7
100
AcDbLine
 10
102.867178
 20
105.836522
 30
0.0
 11
102.734844
 21
105.164043
 31
0.0
  0
LINE
  5
1a1
100
AcDbEntity
  8
Layer_1
 62
7
100
AcDbLine
 10
102.734844
 20
105.164043
 30
0.0
 11
102.531587
 21
104.497209
 31
0.0
  0
LINE
  5
1a2
100
AcDbEntity
  8
Layer_1
 62
7
100
AcDbLine
 10
102.531587
 20
104.497209
 30
0.0
 11
102.280099
 21
103.834890
 31
0.0
  0
LINE
  5
1a3
100
AcDbEntity
  8
Layer_1
 62
7
100
AcDbLine
 10
102.280099
 20
103.834890
 30
0.0
 11
101.988056
 21
103.177001
 31
0.0
  0
LINE
  5
1a4
100
AcDbEntity
  8
Layer_1
 62
7
100
AcDbLine
 10
101.988056
 20
103.177001
 30
0.0
 11
101.659775
 21
102.523798
 31
0.0
  0
LINE
  5
1a5
100
AcDbEntity
  8
Layer_1
 62
7
100
AcDbLine
 10
101.659775
 20
102.523798
 30
0.0
 11
101.297994
 21
101.875534
 31
0.0
  0
LINE
  5
1a6
100
AcDbEntity
  8
Layer_1
 62
7
100
AcDbLine
 10
101.297994
 20
101.875534
 30
0.0
 11
100.904746
 21
101.232603
 31
0.0
  0
LINE
  5
1a7
100
AcDbEntity
  8
Layer_1
 62
7
100
AcDbLine
 10
100.904746
 20
101.232603
 30
0.0
 11
100.481469
 21
100.595430
 31
0.0
  0
LINE
  5
1a8
100
AcDbEntity
  8
Layer_1
 62
7
100
AcDbLine
 10
100.481469
 20
100.595430
 30
0.0
 11
100.029405
 21
99.964438
 31
0.0
  0
LINE
  5
1a9
100
AcDbEntity
  8
Layer_1
 62
7
100
AcDbLine
 10
100.029405
 20
99.964438
 30
0.0
 11
99.549458
 21
99.340077
 31
0.0
  0
LINE
  5
1aa
100
AcDbEntity
  8
Layer_1
 62
7
100
AcDbLine
 10
99.549458
 20
99.340077
 30
0.0
 11
99.042446
 21
98.722801
 31
0.0
  0
LINE
  5
1ab
100
AcDbEntity
  8
Layer_1
 62
7
100
AcDbLine
 10
99.042446
 20
98.722801
 30
0.0
 11
98.224904
 21
98.845511
 31
0.0
  0
LINE
  5
1ac
100
AcDbEntity
  8
Layer_1
 62
7
100
AcDbLine
 10
98.224904
 20
98.845511
 30
0.0
 11
97.409593
 21
98.982107
 31
0.0
  0
LINE
  5
1ad
100
AcDbEntity
  8
Layer_1
 62
7
100
AcDbLine
 10
97.409593
 20
98.982107
 30
0.0
 11
96.596708
 21
99.132588
 31
0.0
  0
LINE
  5
1ae
100
AcDbEntity
  8
Layer_1
 62
7
100
AcDbLine
 10
96.596708
 20
99.132588
 30
0.0
 11
95.786533
 21
99.296897
 31
0.0
  0
LINE
  5
1af
100
AcDbEntity
  8
Layer_1
 62
7
100
AcDbLine
 10
95.786533
 20
99.296897
 30
0.0
 11
95.521216
 21
100.050374
 31
0.0
  0
LINE
  5
1b0
100
AcDbEntity
  8
Layer_1
 62
7
100
AcDbLine
 10
95.521216
 20
100.050374
 30
0.0
 11
95.283754
 21
100.801226
 31
0.0
  0
LINE
  5
1b1
100
AcDbEntity
  8
Layer_1
 62
7
100
AcDbLine
 10
95.283754
 20
100.801226
 30
0.0
 11
95.074740
 21
101.548805
 31
0.0
  0
LINE
  5
1b2
100
AcDbEntity
  8
Layer_1
 62
7
100
AcDbLine
 10
95.074740
 20
101.548805
 30
0.0
 11
94.894936
 21
102.292291
 31
0.0
  0
LINE
  5
1b3
100
AcDbEntity
  8
Layer_1
 62
7
100
AcDbLine
 10
94.894936
 20
102.292291
 30
0.0
 11
94.745274
 21
103.030951
 31
0.0
  0
LINE
  5
1b4
100
AcDbEntity
  8
Layer_1
 62
7
100
AcDbLine
 10
94.745274
 20
103.030951
 30
0.0
 11
94.627051
 21
103.763854
 31
0.0
  0
LINE
  5
1b5
100
AcDbEntity
  8
Layer_1
 62
7
100
AcDbLine
 10
94.627051
 20
103.763854
 30
0.0
 11
94.541961
 21
104.489956
 31
0.0
  0
LINE
  5
1b6
100
AcDbEntity
  8
Layer_1
 62
7
100
AcDbLine
 10
94.541961
 20
104.489956
 30
0.0
 11
94.492544
 21
105.208042
 31
0.0
  0
LINE
  5
1b7
100
AcDbEntity
  8
Layer_1
 62
7
100
AcDbLine
 10
94.492544
 20
105.208042
 30
0.0
 11
94.482751
 21
105.916448
 31
0.0
  0
LINE
  5
1b8
100
AcDbEntity
  8
Layer_1
 62
7
100
AcDbLine
 10
94.482751
 20
105.916448
 30
0.0
 11
94.519835
 21
106.612577
 31
0.0
  0
LINE
  5
1b9
100
AcDbEntity
  8
Layer_1
 62
7
100
AcDbLine
 10
94.519835
 20
106.612577
 30
0.0
 11
94.625470
 21
107.289741
 31
0.0
  0
LINE
  5
1ba
100
AcDbEntity
  8
Layer_1
 62
7
100
AcDbLine
 10
94.625470
 20
107.289741
 30
0.0
 11
95.231430
 21
109.423426
 31
0.0
  0
LINE
  5
1bb
100
AcDbEntity
  8
Layer_1
 62
7
100
AcDbLine
 10
95.231430
 20
109.423426
 30
0.0
 11
93.887939
 21
109.831378
 31
0.0
  0
LINE
  5
1bc
100
AcDbEntity
  8
Layer_1
 62
7
100
AcDbLine
 10
93.887939
 20
109.831378
 30
0.0
 11
92.560112
 21
110.287647
 31
0.0
  0
LINE
  5
1bd
100
AcDbEntity
  8
Layer_1
 62
7
100
AcDbLine
 10
92.560112
 20
110.287647
 30
0.0
 11
91.249613
 21
110.791639
 31
0.0
  0
LINE
  5
1be
100
AcDbEntity
  8
Layer_1
 62
7
100
AcDbLine
 10
91.249613
 20
110.791639
 30
0.0
 11
89.958249
 21
111.342706
 31
0.0
  0
LINE
  5
1bf
100
AcDbEntity
  8
Layer_1
 62
7
100
AcDbLine
 10
89.958249
 20
111.342706
 30
0.0
 11
89.050904
 21
109.318721
 31
0.0
  0
LINE
  5
1c0
100
AcDbEntity
  8
Layer_1
 62
7
100
AcDbLine
 10
89.050904
 20
109.318721
 30
0.0
 11
88.696574
 21
108.732066
 31
0.0
  0
LINE
  5
1c1
100
AcDbEntity
  8
Layer_1
 62
7
100
AcDbLine
 10
88.696574
 20
108.732066
 30
0.0
 11
88.277502
 21
108.174959
 31
0.0
  0
LINE
  5
1c2
100
AcDbEntity
  8
Layer_1
 62
7
100
AcDbLine
 10
88.277502
 20
108.174959
 30
0.0
 11
87.814658
 21
107.638596
 31
0.0
  0
LINE
  5
1c3
100
AcDbEntity
  8
Layer_1
 62
7
100
AcDbLine
 10
87.814658
 20
107.638596
 30
0.0
 11
87.315209
 21
107.120267
 31
0.0
  0
LINE
  5
1c4
100
AcDbEntity
  8
Layer_1
 62
7
100
AcDbLine
 10
87.315209
 20
107.120267
 30
0.0
 11
86.783305
 21
106.618730
 31
0.0
  0
LINE
  5
1c5
100
AcDbEntity
  8
Layer_1
 62
7
100
AcDbLine
 10
86.783305
 20
106.618730
 30
0.0
 11
86.221655
 21
106.133307
 31
0.0
  0
LINE
  5
1c6
100
AcDbEntity
  8
Layer_1
 62
7
100
AcDbLine
 10
86.221655
 20
106.133307
 30
0.0
 11
85.632205
 21
105.663661
 31
0.0
  0
LINE
  5
1c7
100
AcDbEntity
  8
Layer_1
 62
7
100
AcDbLine
 10
85.632205
 20
105.663661
 30
0.0
 11
85.016538
 21
105.209679
 31
0.0
  0
LINE
  5
1c8
100
AcDbEntity
  8
Layer_1
 62
7
100
AcDbLine
 10
85.016538
 20
105.209679
 30
0.0
 11
84.375921
 21
104.771359
 31
0.0
  0
LINE
  5
1c9
100
AcDbEntity
  8
Layer_1
 62
7
100
AcDbLine
 10
84.375921
 20
104.771359
 30
0.0
 11
83.711373
 21
104.348788
 31
0.0
  0
LINE
  5
1ca
100
AcDbEntity
  8
Layer_1
 62
7
100
AcDbLine
 10
83.711373
 20
104.348788
 30
0.0
 11
83.023795
 21
103.942162
 31
0.0
  0
LINE
  5
1cb
100
AcDbEntity
  8
Layer_1
 62
7
100
AcDbLine
 10
83.023795
 20
103.942162
 30
0.0
 11
82.297552
 21
104.337076
 31
0.0
  0
LINE
  5
1cc
100
AcDbEntity
  8
Layer_1
 62
7
100
AcDbLine
 10
82.297552
 20
104.337076
 30
0.0
 11
81.578111
 21
104.744294
 31
0.0
  0
LINE
  5
1cd
100
AcDbEntity
  8
Layer_1
 62
7
100
AcDbLine
 10
81.578111
 20
104.744294
 30
0.0
 11
80.865726
 21
105.163733
 31
0.0
  0
LINE
  5
1ce
100
AcDbEntity
  8
Layer_1
 62
7
100
AcDbLine
 10
80.865726
 20
105.163733
 30
0.0
 11
80.160594
 21
105.595222
 31
0.0
  0
LINE
  5
1cf
100
AcDbEntity
  8
Layer_1
 62
7
100
AcDbLine
 10
80.160594
 20
105.595222
 30
0.0
 11
80.168976
 21
106.393996
 31
0.0
  0
LINE
  5
1d0
100
AcDbEntity
  8
Layer_1
 62
7
100
AcDbLine
 10
80.168976
 20
106.393996
 30
0.0
 11
80.202673
 21
107.180775
 31
0.0
  0
LINE
  5
1d1
100
AcDbEntity
  8
Layer_1
 62
7
100
AcDbLine
 10
80.202673
 20
107.180775
 30
0.0
 11
80.261940
 21
107.954741
 31
0.0
  0
LINE
  5
1d2
100
AcDbEntity
  8
Layer_1
 62
7
100
AcDbLine
 10
80.261940
 20
107.954741
 30
0.0
 11
80.347284
 21
108.714935
 31
0.0
  0
LINE
  5
1d3
100
AcDbEntity
  8
Layer_1
 62
7
100
AcDbLine
 10
80.347284
 20
108.714935
 30
0.0
 11
80.459270
 21
109.460199
 31
0.0
  0
LINE
  5
1d4
100
AcDbEntity
  8
Layer_1
 62
7
100
AcDbLine
 10
80.459270
 20
109.460199
 30
0.0
 11
80.598828
 21
110.189349
 31
0.0
  0
LINE
  5
1d5
100
AcDbEntity
  8
Layer_1
 62
7
100
AcDbLine
 10
80.598828
 20
110.189349
 30
0.0
 11
80.767230
 21
110.900774
 31
0.0
  0
LINE
  5
1d6
100
AcDbEntity
  8
Layer_1
 62
7
100
AcDbLine
 10
80.767230
 20
110.900774
 30
0.0
 11
80.966395
 21
111.592445
 31
0.0
  0
LINE
  5
1d7
100
AcDbEntity
  8
Layer_1
 62
7
100
AcDbLine
 10
80.966395
 20
111.592445
 30
0.0
 11
81.199482
 21
112.261481
 31
0.0
  0
LINE
  5
1d8
100
AcDbEntity
  8
Layer_1
 62
7
100
AcDbLine
 10
81.199482
 20
112.261481
 30
0.0
 11
81.472391
 21
112.902944
 31
0.0
  0
LINE
  5
1d9
100
AcDbEntity
  8
Layer_1
 62
7
100
AcDbLine
 10
81.472391
 20
112.902944
 30
0.0
 11
81.803296
 21
113.503146
 31
0.0
  0
LINE
  5
1da
100
AcDbEntity
  8
Layer_1
 62
7
100
AcDbLine
 10
81.803296
 20
113.503146
 30
0.0
 11
83.102450
 21
115.300901
 31
0.0
  0
LINE
  5
1db
100
AcDbEntity
  8
Layer_1
 62
7
100
AcDbLine
 10
83.102450
 20
115.300901
 30
0.0
 11
81.979516
 21
116.143730
 31
0.0
  0
LINE
  5
1dc
100
AcDbEntity
  8
Layer_1
 62
7
100
AcDbLine
 10
81.979516
 20
116.143730
 30
0.0
 11
80.887824
 21
117.026634
 31
0.0
  0
LINE
  5
1dd
100
AcDbEntity
  8
Layer_1
 62
7
100
AcDbLine
 10
80.887824
 20
117.026634
 30
0.0
 11
79.828757
 21
117.948456
 31
0.0
  0
LINE
  5
1de
100
AcDbEntity
  8
Layer_1
 62
7
100
AcDbLine
 10
79.828757
 20
117.948456
 30
0.0
 11
78.803726
 21
118.907983
 31
0.0
  0
LINE
  5
1df
100
AcDbEntity
  8
Layer_1
 62
7
100
AcDbLine
 10
78.803726
 20
118.907983
 30
0.0
 11
77.258870
 21
117.316363
 31
0.0
  0
LINE
  5
1e0
100
AcDbEntity
  8
Layer_1
 62
7
100
AcDbLine
 10
77.258870
 20
117.316363
 30
0.0
 11
76.725244
 21
116.886284
 31
0.0
  0
LINE
  5
1e1
100
AcDbEntity
  8
Layer_1
 62
7
100
AcDbLine
 10
76.725244
 20
116.886284
 30
0.0
 11
76.140903
 21
116.506103
 31
0.0
  0
LINE
  5
1e2
100
AcDbEntity
  8
Layer_1
 62
7
100
AcDbLine
 10
76.140903
 20
116.506103
 30
0.0
 11
75.522526
 21
116.160381
 31
0.0
  0
LINE
  5
1e3
100
AcDbEntity
  8
Layer_1
 62
7
100
AcDbLine
 10
75.522526
 20
116.160381
 30
0.0
 11
74.875926
 21
115.844151
 31
0.0
  0
LINE
  5
1e4
100
AcDbEntity
  8
Layer_1
 62
7
100
AcDbLine
 10
74.875926
 20
115.844151
 30
0.0
 11
74.204576
 21
115.554760
 31
0.0
  0
LINE
  5
1e5
100
AcDbEntity
  8
Layer_1
 62
7
100
AcDbLine
 10
74.204576
 20
115.554760
 30
0.0
 11
73.510761
 21
115.290713
 31
0.0
  0
LINE
  5
1e6
100
AcDbEntity
  8
Layer_1
 62
7
100
AcDbLine
 10
73.510761
 20
115.290713
 30
0.0
 11
72.796231
 21
115.050993
 31
0.0
  0
LINE
  5
1e7
100
AcDbEntity
  8
Layer_1
 62
7
100
AcDbLine
 10
72.796231
 20
115.050993
 30
0.0
 11
72.062425
 21
114.834952
 31
0.0
  0
LINE
  5
1e8
100
AcDbEntity
  8
Layer_1
 62
7
100
AcDbLine
 10
72.062425
 20
114.834952
 30
0.0
 11
71.310500
 21
114.642194
 31
0.0
  0
LINE
  5
1e9
100
AcDbEntity
  8
Layer_1
 62
7
100
AcDbLine
 10
71.310500
 20
114.642194
 30
0.0
 11
70.541501
 21
114.472410
 31
0.0
  0
LINE
  5
1ea
100
AcDbEntity
  8
Layer_1
 62
7
100
AcDbLine
 10
70.541501
 20
114.472410
 30
0.0
 11
69.756330
 21
114.325428
 31
0.0
  0
LINE
  5
1eb
100
AcDbEntity
  8
Layer_1
 62
7
100
AcDbLine
 10
69.756330
 20
114.325428
 30
0.0
 11
69.208960
 21
114.944934
 31
0.0
  0
LINE
  5
1ec
100
AcDbEntity
  8
Layer_1
 62
7
100
AcDbLine
 10
69.208960
 20
114.944934
 30
0.0
 11
68.672202
 21
115.573641
 31
0.0
  0
LINE
  5
1ed
100
AcDbEntity
  8
Layer_1
 62
7
100
AcDbLine
 10
68.672202
 20
115.573641
 30
0.0
 11
68.146224
 21
116.211435
 31
0.0
  0
LINE
  5
1ee
100
AcDbEntity
  8
Layer_1
 62
7
100
AcDbLine
 10
68.146224
 20
116.211435
 30
0.0
 11
67.631197
 21
116.858090
 31
0.0
  0
LINE
  5
1ef
100
AcDbEntity
  8
Layer_1
 62
7
100
AcDbLine
 10
67.631197
 20
116.858090
 30
0.0
 11
67.912262
 21
117.605810
 31
0.0
  0
LINE
  5
1f0
100
AcDbEntity
  8
Layer_1
 62
7
100
AcDbLine
 10
67.912262
 20
117.605810
 30
0.0
 11
68.212998
 21
118.333633
 31
0.0
  0
LINE
  5
1f1
100
AcDbEntity
  8
Layer_1
 62
7
100
AcDbLine
 10
68.212998
 20
118.333633
 30
0.0
 11
68.533433
 21
119.040656
 31
0.0
  0
LINE
  5
1f2
100
AcDbEntity
  8
Layer_1
 62
7
100
AcDbLine
 10
68.533433
 20
119.040656
 30
0.0
 11
68.873596
 21
119.725807
 31
0.0
  0
LINE
  5
1f3
100
AcDbEntity
  8
Layer_1
 62
7
100
AcDbLine
 10
68.873596
 20
119.725807
 30
0.0
 11
69.233768
 21
120.387844
 31
0.0
  0
LINE
  5
1f4
100
AcDbEntity
  8
Layer_1
 62
7
100
AcDbLine
 10
69.233768
 20
120.387844
 30
0.0
 11
69.614288
 21
121.025271
 31
0.0
  0
LINE
  5
1f5
100
AcDbEntity
  8
Layer_1
 62
7
100
AcDbLine
 10
69.614288
 20
121.025271
 30
0.0
 11
70.015834
 21
121.636169
 31
0.0
  0
LINE
  5
1f6
100
AcDbEntity
  8
Layer_1
 62
7
100
AcDbLine
 10
70.015834
 20
121.636169
 30
0.0
 11
70.439562
 21
122.218027
 31
0.0
  0
LINE
  5
1f7
100
AcDbEntity
  8
Layer_1
 62
7
100
AcDbLine
 10
70.439562
 20
122.218027
 30
0.0
 11
70.887392
 21
122.767005
 31
0.0
  0
LINE
  5
1f8
100
AcDbEntity
  8
Layer_1
 62
7
100
AcDbLine
 10
70.887392
 20
122.767005
 30
0.0
 11
71.363276
 21
123.276445
 31
0.0
  0
LINE
  5
1f9
100
AcDbEntity
  8
Layer_1
 62
7
100
AcDbLine
 10
71.363276
 20
123.276445
 30
0.0
 11
71.879488
 21
123.727266
 31
0.0
  0
LINE
  5
1fa
100
AcDbEntity
  8
Layer_1
 62
7
100
AcDbLine
 10
71.879488
 20
123.727266
 30
0.0
 11
73.715174
 21
124.972262
 31
0.0
  0
LINE
  5
1fb
100
AcDbEntity
  8
Layer_1
 62
7
100
AcDbLine
 10
73.715174
 20
124.972262
 30
0.0
 11
72.948236
 21
126.148338
 31
0.0
  0
LINE
  5
1fc
100
AcDbEntity
  8
Layer_1
 62
7
100
AcDbLine
 10
72.948236
 20
126.148338
 30
0.0
 11
72.224336
 21
127.351395
 31
0.0
  0
LINE
  5
1fd
100
AcDbEntity
  8
Layer_1
 62
7
100
AcDbLine
 10
72.224336
 20
127.351395
 30
0.0
 11
71.544406
 21
128.579824
 31
0.0
  0
LINE
  5
1fe
100
AcDbEntity
  8
Layer_1
 62
7
100
AcDbLine
 10
71.544406
 20
128.579824
 30
0.0
 11
70.909378
 21
129.832072
 31
0.0
  0
LINE
  5
1ff
100
AcDbEntity
  8
Layer_1
 62
7
100
AcDbLine
 10
70.909378
 20
129.832072
 30
0.0
 11
68.913333
 21
128.864812
 31
0.0
  0
LINE
  5
200
100
AcDbEntity
  8
Layer_1
 62
7
100
AcDbLine
 10
68.913333
 20
128.864812
 30
0.0
 11
68.264786
 21
128.643154
 31
0.0
  0
LINE
  5
201
100
AcDbEntity
  8
Layer_1
 62
7
100
AcDbLine
 10
68.264786
 20
128.643154
 30
0.0
 11
67.585675
 21
128.485787
 31
0.0
  0
LINE
  5
202
100
AcDbEntity
  8
Layer_1
 62
7
100
AcDbLine
 10
67.585675
 20
128.485787
 30
0.0
 11
66.886328
 21
128.372418
 31
0.0
  0
LINE
  5
203
100
AcDbEntity
  8
Layer_1
 62
7
100
AcDbLine
 10
66.886328
 20
128.372418
 30
0.0
 11
66.170584
 21
128.296388
 31
0.0
  0
LINE
  5
204
100
AcDbEntity
  8
Layer_1
 62
7
100
AcDbLine
 10
66.170584
 20
128.296388
 30
0.0
 11
65.440729
 21
128.254083
 31
0.0
  0
LINE
  5
205
100
AcDbEntity
  8
Layer_1
 62
7
100
AcDbLine
 10
65.440729
 20
128.254083
 30
0.0
 11
64.698428
 21
128.243245
 31
0.0
  0
LINE
  5
206
100
AcDbEntity
  8
Layer_1
 62
7
100
AcDbLine
 10
64.698428
 20
128.243245
 30
0.0
 11
63.945008
 21
128.262380
 31
0.0
  0
LINE
  5
207
100
AcDbEntity
  8
Layer_1
 62
7
100
AcDbLine
 10
63.945008
 20
128.262380
 30
0.0
 11
63.181569
 21
128.310330
 31
0.0
  0
LINE
  5
208
100
AcDbEntity
  8
Layer_1
 62
7
100
AcDbLine
 10
63.181569
 20
128.310330
 30
0.0
 11
62.409070
 21
128.386360
 31
0.0
  0
LINE
  5
209
100
AcDbEntity
  8
Layer_1
 62
7
100
AcDbLine
 10
62.409070
 20
128.386360
 30
0.0
 11
61.628387
 21
128.489823
 31
0.0
  0
LINE
  5
20a
100
AcDbEntity
  8
Layer_1
 62
7
100
AcDbLine
 10
61.628387
 20
128.489823
 30
0.0
 11
60.840310
 21
128.620266
 31
0.0
  0
LINE
  5
20b
100
AcDbEntity
  8
Layer_1
 62
7
100
AcDbLine
 10
60.840310
 20
128.620266
 30
0.0
 11
60.537796
 21
129.389632
 31
0.0
  0
LINE
  5
20c
100
AcDbEntity
  8
Layer_1
 62
7
100
AcDbLine
 10
60.537796
 20
129.389632
 30
0.0
 11
60.248433
 21
130.164022
 31
0.0
  0
LINE
  5
20d
100
AcDbEntity
  8
Layer_1
 62
7
100
AcDbLine
 10
60.248433
 20
130.164022
 30
0.0
 11
59.972335
 21
130.943209
 31
0.0
  0
LINE
  5
20e
100
AcDbEntity
  8
Layer_1
 62
7
100
AcDbLine
 10
59.972335
 20
130.943209
 30
0.0
 11
59.709530
 21
131.727025
 31
0.0
  0
LINE
  5
20f
100
AcDbEntity
  8
Layer_1
 62
7
100
AcDbLine
 10
59.709530
 20
131.727025
 30
0.0
 11
60.229383
 21
132.333520
 31
0.0
  0
LINE
  5
210
100
AcDbEntity
  8
Layer_1
 62
7
100
AcDbLine
 10
60.229383
 20
132.333520
 30
0.0
 11
60.760920
 21
132.914588
 31
0.0
  0
LINE
  5
211
100
AcDbEntity
  8
Layer_1
 62
7
100
AcDbLine
 10
60.760920
 20
132.914588
 30
0.0
 11
61.303831
 21
133.469380
 31
0.0
  0
LINE
  5
212
100
AcDbEntity
  8
Layer_1
 62
7
100
AcDbLine
 10
61.303831
 20
133.469380
 30
0.0
 11
61.857834
 21
133.996853
 31
0.0
  0
LINE
  5
213
100
AcDbEntity
  8
Layer_1
 62
7
100
AcDbLine
 10
61.857834
 20
133.996853
 30
0.0
 11
62.422701
 21
134.495794
 31
0.0
  0
LINE
  5
214
100
AcDbEntity
  8
Layer_1
 62
7
100
AcDbLine
 10
62.422701
 20
134.495794
 30
0.0
 11
62.998265
 21
134.964622
 31
0.0
  0
LINE
  5
215
100
AcDbEntity
  8
Layer_1
 62
7
100
AcDbLine
 10
62.998265
 20
134.964622
 30
0.0
 11
63.584554
 21
135.401360
 31
0.0
  0
LINE
  5
216
100
AcDbEntity
  8
Layer_1
 62
7
100
AcDbLine
 10
63.584554
 20
135.401360
 30
0.0
 11
64.181736
 21
135.803217
 31
0.0
  0
LINE
  5
217
100
AcDbEntity
  8
Layer_1
 62
7
100
AcDbLine
 10
64.181736
 20
135.803217
 30
0.0
 11
64.790320
 21
136.165900
 31
0.0
  0
LINE
  5
218
100
AcDbEntity
  8
Layer_1
 62
7
100
AcDbLine
 10
64.790320
 20
136.165900
 30
0.0
 11
65.411745
 21
136.481848
 31
0.0
  0
LINE
  5
219
100
AcDbEntity
  8
Layer_1
 62
7
100
AcDbLine
 10
65.411745
 20
136.481848
 30
0.0
 11
66.051007
 21
136.728934
 31
0.0
  0
LINE
  5
21a
100
AcDbEntity
  8
Layer_1
 62
7
100
AcDbLine
 10
66.051007
 20
136.728934
 30
0.0
 11
68.201822
 21
137.271026
 31
0.0
  0
LINE
  5
21b
100
AcDbEntity
  8
Layer_1
 62
7
100
AcDbLine
 10
68.201822
 20
137.271026
 30
0.0
 11
67.883363
 21
138.638478
 31
0.0
  0
LINE
  5
21c
100
AcDbEntity
  8
Layer_1
 62
7
100
AcDbLine
 10
67.883363
 20
138.638478
 30
0.0
 11
67.614574
 21
140.016569
 31
0.0
  0
LINE
  5
21d
100
AcDbEntity
  8
Layer_1
 62
7
100
AcDbLine
 10
67.614574
 20
140.016569
 30
0.0
 11
67.395824
 21
141.403465
 31
0.0
  0
LINE
  5
21e
100
AcDbEntity
  8
Layer_1
 62
7
100
AcDbLine
 10
67.395824
 20
141.403465
 30
0.0
 11
67.227365
 21
142.797361
 31
0.0
  0
LINE
  5
21f
100
AcDbEntity
  8
Layer_1
 62
7
100
AcDbLine
 10
67.227365
 20
142.797361
 30
0.0
 11
65.020867
 21
142.571131
 31
0.0
  0
LINE
  5
220
100
AcDbEntity
  8
Layer_1
 62
7
100
AcDbLine
 10
65.020867
 20
142.571131
 30
0.0
 11
64.335632
 21
142.584678
 31
0.0
  0
LINE
  5
221
100
AcDbEntity
  8
Layer_1
 62
7
100
AcDbLine
 10
64.335632
 20
142.584678
 30
0.0
 11
63.643651
 21
142.669062
 31
0.0
  0
LINE
  5
222
100
AcDbEntity
  8
Layer_1
 62
7
100
AcDbLine
 10
63.643651
 20
142.669062
 30
0.0
 11
62.947719
 21
142.801707
 31
0.0
  0
LINE
  5
223
100
AcDbEntity
  8
Layer_1
 62
7
100
AcDbLine
 10
62.947719
 20
142.801707
 30
0.0
 11
62.249106
 21
142.975076
 31
0.0
  0
LINE
  5
224
100
AcDbEntity
  8
Layer_1
 62
7
100
AcDbLine
 10
62.249106
 20
142.975076
 30
0.0
 11
61.548828
 21
143.184936
 31
0.0
  0
LINE
  5
225
100
AcDbEntity
  8
Layer_1
 62
7
100
AcDbLine
 10
61.548828
 20
143.184936
 30
0.0
 11
60.847591
 21
143.428635
 31
0.0
  0
LINE
  5
226
100
AcDbEntity
  8
Layer_1
 62
7
100
AcDbLine
 10
60.847591
 20
143.428635
 30
0.0
 11
60.146156
 21
143.704282
 31
0.0
  0
LINE
  5
227
100
AcDbEntity
  8
Layer_1
 62
7
100
AcDbLine
 10
60.146156
 20
143.704282
 30
0.0
 11
59.445144
 21
144.010493
 31
0.0
  0
LINE
  5
228
100
AcDbEntity
  8
Layer_1
 62
7
100
AcDbLine
 10
59.445144
 20
144.010493
 30
0.0
 11
58.745233
 21
144.346140
 31
0.0
  0
LINE
  5
229
100
AcDbEntity
  8
Layer_1
 62
7
100
AcDbLine
 10
58.745233
 20
144.346140
 30
0.0
 11
58.047015
 21
144.710376
 31
0.0
  0
LINE
  5
22a
100
AcDbEntity
  8
Layer_1
 62
7
100
AcDbLine
 10
58.047015
 20
144.710376
 30
0.0
 11
57.351083
 21
145.102495
 31
0.0
  0
LINE
  5
22b
100
AcDbEntity
  8
Layer_1
 62
7
100
AcDbLine
 10
57.351083
 20
145.102495
 30
0.0
 11
57.329945
 21
145.928898
 31
0.0
  0
LINE
  5
22c
100
AcDbEntity
  8
Layer_1
 62
7
100
AcDbLine
 10
57.329945
 20
145.928898
 30
0.0
 11
57.322918
 21
146.755556
 31
0.0
  0
LINE
  5
22d
100
AcDbEntity
  8
Layer_1
 62
7
100
AcDbLine
 10
57.322918
 20
146.755556
 30
0.0
 11
57.329945
 21
147.582213
 31
0.0
  0
LINE
  5
22e
100
AcDbEntity
  8
Layer_1
 62
7
100
AcDbLine
 10
57.329945
 20
147.582213
 30
0.0
 11
57.351083
 21
148.408616
 31
0.0
  0
LINE
  5
22f
100
AcDbEntity
  8
Layer_1
 62
7
100
AcDbLine
 10
57.351083
 20
148.408616
 30
0.0
 11
58.047015
 21
148.800735
 31
0.0
  0
LINE
  5
230
100
AcDbEntity
  8
Layer_1
 62
7
100
AcDbLine
 10
58.047015
 20
148.800735
 30
0.0
 11
58.745233
 21
149.164971
 31
0.0
  0
LINE
  5
231
100
AcDbEntity
  8
Layer_1
 62
7
100
AcDbLine
 10
58.745233
 20
149.164971
 30
0.0
 11
59.445144
 21
149.500618
 31
0.0
  0
LINE
  5
232
100
AcDbEntity
  8
Layer_1
 62
7
100
AcDbLine
 10
59.445144
 20
149.500618
 30
0.0
 11
60.146156
 21
149.806829
 31
0.0
  0
LINE
  5
233
100
AcDbEntity
  8
Layer_1
 62
7
100
AcDbLine
 10
60.146156
 20
149.806829
 30
0.0
 11
60.847591
 21
150.082476
 31
0.0
  0
LINE
  5
234
100
AcDbEntity
  8
Layer_1
 62
7
100
AcDbLine
 10
60.847591
 20
150.082476
 30
0.0
 11
61.548828
 21
150.326175
 31
0.0
  0
LINE
  5
235
100
AcDbEntity
  8
Layer_1
 62
7
100
AcDbLine
 10
61.548828
 20
150.326175
 30
0.0
 11
62.249106
 21
150.536035
 31
0.0
  0
LINE
  5
236
100
AcDbEntity
  8
Layer_1
 62
7
100
AcDbLine
 10
62.249106
 20
150.536035
 30
0.0
 11
62.947719
 21
150.709404
 31
0.0
  0
LINE
  5
237
100
AcDbEntity
  8
Layer_1
 62
7
100
AcDbLine
 10
62.947719
 20
150.709404
 30
0.0
 11
63.643651
 21
150.842049
 31
0.0
  0
LINE
  5
238
100
AcDbEntity
  8
Layer_1
 62
7
100
AcDbLine
 10
63.643651
 20
150.842049
 30
0.0
 11
64.335632
 21
150.926433
 31
0.0
  0
LINE
  5
239
100
AcDbEntity
  8
Layer_1
 62
7
100
AcDbLine
 10
64.335632
 20
150.926433
 30
0.0
 11
65.020867
 21
150.939980
 31
0.0
  0
LINE
  5
23a
100
AcDbEntity
  8
Layer_1
 62
7
100
AcDbLine
 10
65.020867
 20
150.939980
 30
0.0
 11
67.227365
 21
150.713750
 31
0.0
  0
LINE
  5
23b
100
AcDbEntity
  8
Layer_1
 62
7
100
AcDbLine
 10
67.227365
 20
150.713750
 30
0.0
 11
67.395824
 21
152.107646
 31
0.0
  0
LINE
  5
23c
100
AcDbEntity
  8
Layer_1
 62
7
100
AcDbLine
 10
67.395824
 20
152.107646
 30
0.0
 11
67.614574
 21
153.494542
 31
0.0
  0
LINE
  5
23d
100
AcDbEntity
  8
Layer_1
 62
7
100
AcDbLine
 10
67.614574
 20
153.494542
 30
0.0
 11
67.883363
 21
154.872634
 31
0.0
  0
LINE
  5
23e
100
AcDbEntity
  8
Layer_1
 62
7
100
AcDbLine
 10
67.883363
 20
154.872634
 30
0.0
 11
68.201822
 21
156.240085
 31
0.0
  0
LINE
  5
23f
100
AcDbEntity
  8
Layer_1
 62
7
100
AcDbLine
 10
68.201822
 20
156.240085
 30
0.0
 11
66.051007
 21
156.782177
 31
0.0
  0
LINE
  5
240
100
AcDbEntity
  8
Layer_1
 62
7
100
AcDbLine
 10
66.051007
 20
156.782177
 30
0.0
 11
65.411745
 21
157.029263
 31
0.0
  0
LINE
  5
241
100
AcDbEntity
  8
Layer_1
 62
7
100
AcDbLine
 10
65.411745
 20
157.029263
 30
0.0
 11
64.790320
 21
157.345211
 31
0.0
  0
LINE
  5
242
100
AcDbEntity
  8
Layer_1
 62
7
100
AcDbLine
 10
64.790320
 20
157.345211
 30
0.0
 11
64.181736
 21
157.707894
 31
0.0
  0
LINE
  5
243
100
AcDbEntity
  8
Layer_1
 62
7
100
AcDbLine
 10
64.181736
 20
157.707894
 30
0.0
 11
63.584554
 21
158.109751
 31
0.0
  0
LINE
  5
244
100
AcDbEntity
  8
Layer_1
 62
7
100
AcDbLine
 10
63.584554
 20
158.109751
 30
0.0
 11
62.998265
 21
158.546490
 31
0.0
  0
LINE
  5
245
100
AcDbEntity
  8
Layer_1
 62
7
100
AcDbLine
 10
62.998265
 20
158.546490
 30
0.0
 11
62.422701
 21
159.015317
 31
0.0
  0
LINE
  5
246
100
AcDbEntity
  8
Layer_1
 62
7
100
AcDbLine
 10
62.422701
 20
159.015317
 30
0.0
 11
61.857834
 21
159.514258
 31
0.0
  0
LINE
  5
247
100
AcDbEntity
  8
Layer_1
 62
7
100
AcDbLine
 10
61.857834
 20
159.514258
 30
0.0
 11
61.303831
 21
160.041731
 31
0.0
  0
LINE
  5
248
100
AcDbEntity
  8
Layer_1
 62
7
100
AcDbLine
 10
61.303831
 20
160.041731
 30
0.0
 11
60.760920
 21
160.596524
 31
0.0
  0
LINE
  5
249
100
AcDbEntity
  8
Layer_1
 62
7
100
AcDbLine
 10
60.760920
 20
160.596524
 30
0.0
 11
60.229383
 21
161.177591
 31
0.0
  0
LINE
  5
24a
100
AcDbEntity
  8
Layer_1
 62
7
100
AcDbLine
 10
60.229383
 20
161.177591
 30
0.0
 11
59.709530
 21
161.784086
 31
0.0
  0
LINE
  5
24b
100
AcDbEntity
  8
Layer_1
 62
7
100
AcDbLine
 10
59.709530
 20
161.784086
 30
0.0
 11
59.972335
 21
162.567902
 31
0.0
  0
LINE
  5
24c
100
AcDbEntity
  8
Layer_1
 62
7
100
AcDbLine
 10
59.972335
 20
162.567902
 30
0.0
 11
60.248433
 21
163.347090
 31
0.0
  0
LINE
  5
24d
100
AcDbEntity
  8
Layer_1
 62
7
100
AcDbLine
 10
60.248433
 20
163.347090
 30
0.0
 11
60.537796
 21
164.121479
 31
0.0
  0
LINE
  5
24e
100
AcDbEntity
  8
Layer_1
 62
7
100
AcDbLine
 10
60.537796
 20
164.121479
 30
0.0
 11
60.840310
 21
164.890845
 31
0.0
  0
LINE
  5
24f
100
AcDbEntity
  8
Layer_1
 62
7
100
AcDbLine
 10
60.840310
 20
164.890845
 30
0.0
 11
61.628387
 21
165.021288
 31
0.0
  0
LINE
  5
250
100
AcDbEntity
  8
Layer_1
 62
7
100
AcDbLine
 10
61.628387
 20
165.021288
 30
0.0
 11
62.409070
 21
165.124751
 31
0.0
  0
LINE
  5
251
100
AcDbEntity
  8
Layer_1
 62
7
100
AcDbLine
 10
62.409070
 20
165.124751
 30
0.0
 11
63.181569
 21
165.200782
 31
0.0
  0
LINE
  5
252
100
AcDbEntity
  8
Layer_1
 62
7
100
AcDbLine
 10
63.181569
 20
165.200782
 30
0.0
 11
63.945008
 21
165.248731
 31
0.0
  0
LINE
  5
253
100
AcDbEntity
  8
Layer_1
 62
7
100
AcDbLine
 10
63.945008
 20
165.248731
 30
0.0
 11
64.698428
 21
165.267866
 31
0.0
  0
LINE
  5
254
100
AcDbEntity
  8
Layer_1
 62
7
100
AcDbLine
 10
64.698428
 20
165.267866
 30
0.0
 11
65.440729
 21
165.257028
 31
0.0
  0
LINE
  5
255
100
AcDbEntity
  8
Layer_1
 62
7
100
AcDbLine
 10
65.440729
 20
165.257028
 30
0.0
 11
66.170584
 21
165.214723
 31
0.0
  0
LINE
  5
256
100
AcDbEntity
  8
Layer_1
 62
7
100
AcDbLine
 10
66.170584
 20
165.214723
 30
0.0
 11
66.886328
 21
165.138693
 31
0.0
  0
LINE
  5
257
100
AcDbEntity
  8
Layer_1
 62
7
100
AcDbLine
 10
66.886328
 20
165.138693
 30
0.0
 11
67.585675
 21
165.025324
 31
0.0
  0
LINE
  5
258
100
AcDbEntity
  8
Layer_1
 62
7
100
AcDbLine
 10
67.585675
 20
165.025324
 30
0.0
 11
68.264786
 21
164.867957
 31
0.0
  0
LINE
  5
259
100
AcDbEntity
  8
Layer_1
 62
7
100
AcDbLine
 10
68.264786
 20
164.867957
 30
0.0
 11
68.913333
 21
164.646300
 31
0.0
  0
LINE
  5
25a
100
AcDbEntity
  8
Layer_1
 62
7
100
AcDbLine
 10
68.913333
 20
164.646300
 30
0.0
 11
70.909378
 21
163.679039
 31
0.0
  0
LINE
  5
25b
100
AcDbEntity
  8
Layer_1
 62
7
100
AcDbLine
 10
70.909378
 20
163.679039
 30
0.0
 11
71.544406
 21
164.931288
 31
0.0
  0
LINE
  5
25c
100
AcDbEntity
  8
Layer_1
 62
7
100
AcDbLine
 10
71.544406
 20
164.931288
 30
0.0
 11
72.224336
 21
166.159716
 31
0.0
  0
LINE
  5
25d
100
AcDbEntity
  8
Layer_1
 62
7
100
AcDbLine
 10
72.224336
 20
166.159716
 30
0.0
 11
72.948236
 21
167.362773
 31
0.0
  0
LINE
  5
25e
100
AcDbEntity
  8
Layer_1
 62
7
100
AcDbLine
 10
72.948236
 20
167.362773
 30
0.0
 11
73.715174
 21
168.538850
 31
0.0
  0
LINE
  5
25f
100
AcDbEntity
  8
Layer_1
 62
7
100
AcDbLine
 10
73.715174
 20
168.538850
 30
0.0
 11
71.879488
 21
169.783845
 31
0.0
  0
LINE
  5
260
100
AcDbEntity
  8
Layer_1
 62
7
100
AcDbLine
 10
71.879488
 20
169.783845
 30
0.0
 11
71.363276
 21
170.234666
 31
0.0
  0
LINE
  5
261
100
AcDbEntity
  8
Layer_1
 62
7
100
AcDbLine
 10
71.363276
 20
170.234666
 30
0.0
 11
70.887392
 21
170.744106
 31
0.0
  0
LINE
  5
262
100
AcDbEntity
  8
Layer_1
 62
7
100
AcDbLine
 10
70.887392
 20
170.744106
 30
0.0
 11
70.439562
 21
171.293084
 31
0.0
  0
LINE
  5
263
100
AcDbEntity
  8
Layer_1
 62
7
100
AcDbLine
 10
70.439562
 20
171.293084
 30
0.0
 11
70.015834
 21
171.874942
 31
0.0
  0
LINE
  5
264
100
AcDbEntity
  8
Layer_1
 62
7
100
AcDbLine
 10
70.015834
 20
171.874942
 30
0.0
 11
69.614288
 21
172.485840
 31
0.0
  0
LINE
  5
265
100
AcDbEntity
  8
Layer_1
 62
7
100
AcDbLine
 10
69.614288
 20
172.485840
 30
0.0
 11
69.233768
 21
173.123267
 31
0.0
  0
LINE
  5
266
100
AcDbEntity
  8
Layer_1
 62
7
100
AcDbLine
 10
69.233768
 20
173.123267
 30
0.0
 11
68.873596
 21
173.785304
 31
0.0
  0
LINE
  5
267
100
AcDbEntity
  8
Layer_1
 62
7
100
AcDbLine
 10
68.873596
 20
173.785304
 30
0.0
 11
68.533433
 21
174.470455
 31
0.0
  0
LINE
  5
268
100
AcDbEntity
  8
Layer_1
 62
7
100
AcDbLine
 10
68.533433
 20
174.470455
 30
0.0
 11
68.212998
 21
175.177478
 31
0.0
  0
LINE
  5
269
100
AcDbEntity
  8
Layer_1
 62
7
100
AcDbLine
 10
68.212998
 20
175.177478
 30
0.0
 11
67.912262
 21
175.905301
 31
0.0
  0
LINE
  5
26a
100
AcDbEntity
  8
Layer_1
 62
7
100
AcDbLine
 10
67.912262
 20
175.905301
 30
0.0
 11
67.631197
 21
176.653021
 31
0.0
  0
LINE
  5
26b
100
AcDbEntity
  8
Layer_1
 62
7
100
AcDbLine
 10
67.631197
 20
176.653021
 30
0.0
 11
68.146224
 21
177.299676
 31
0.0
  0
LINE
  5
26c
100
AcDbEntity
  8
Layer_1
 62
7
100
AcDbLine
 10
68.146224
 20
177.299676
 30
0.0
 11
68.672202
 21
177.937470
 31
0.0
  0
LINE
  5
26d
100
AcDbEntity
  8
Layer_1
 62
7
100
AcDbLine
 10
68.672202
 20
177.937470
 30
0.0
 11
69.208960
 21
178.566177
 31
0.0
  0
LINE
  5
26e
100
AcDbEntity
  8
Layer_1
 62
7
100
AcDbLine
 10
69.208960
 20
178.566177
 30
0.0
 11
69.756330
 21
179.185683
 31
0.0
  0
LINE
  5
26f
100
AcDbEntity
  8
Layer_1
 62
7
100
AcDbLine
 10
69.756330
 20
179.185683
 30
0.0
 11
70.541501
 21
179.038702
 31
0.0
  0
LINE
  5
270
100
AcDbEntity
  8
Layer_1
 62
7
100
AcDbLine
 10
70.541501
 20
179.038702
 30
0.0
 11
71.310500
 21
178.868917
 31
0.0
  0
LINE
  5
271
100
AcDbEntity
  8
Layer_1
 62
7
100
AcDbLine
 10
71.310500
 20
178.868917
 30
0.0
 11
72.062425
 21
178.676159
 31
0.0
  0
LINE
  5
272
100
AcDbEntity
  8
Layer_1
 62
7
100
AcDbLine
 10
72.062425
 20
178.676159
 30
0.0
 11
72.796231
 21
178.460118
 31
0.0
  0
LINE
  5
273
100
AcDbEntity
  8
Layer_1
 62
7
100
AcDbLine
 10
72.796231
 20
178.460118
 30
0.0
 11
73.510761
 21
178.220398
 31
0.0
  0
LINE
  5
274
100
AcDbEntity
  8
Layer_1
 62
7
100
AcDbLine
 10
73.510761
 20
178.220398
 30
0.0
 11
74.204576
 21
177.956351
 31
0.0
  0
LINE
  5
275
100
AcDbEntity
  8
Layer_1
 62
7
100
AcDbLine
 10
74.204576
 20
177.956351
 30
0.0
 11
74.875926
 21
177.666960
 31
0.0
  0
LINE
  5
276
100
AcDbEntity
  8
Layer_1
 62
7
100
AcDbLine
 10
74.875926
 20
177.666960
 30
0.0
 11
75.522526
 21
177.350730
 31
0.0
  0
LINE
  5
277
100
AcDbEntity
  8
Layer_1
 62
7
100
AcDbLine
 10
75.522526
 20
177.350730
 30
0.0
 11
76.140903
 21
177.005008
 31
0.0
  0
LINE
  5
278
100
AcDbEntity
  8
Layer_1
 62
7
100
AcDbLine
 10
76.140903
 20
177.005008
 30
0.0
 11
76.725244
 21
176.624827
 31
0.0
  0
LINE
  5
279
100
AcDbEntity
  8
Layer_1
 62
7
100
AcDbLine
 10
76.725244
 20
176.624827
 30
0.0
 11
77.258870
 21
176.194748
 31
0.0
  0
LINE
  5
27a
100
AcDbEntity
  8
Layer_1
 62
7
100
AcDbLine
 10
77.258870
 20
176.194748
 30
0.0
 11
78.803726
 21
174.603128
 31
0.0
  0
LINE
  5
27b
100
AcDbEntity
  8
Layer_1
 62
7
100
AcDbLine
 10
78.803726
 20
174.603128
 30
0.0
 11
79.828757
 21
175.562655
 31
0.0
  0
LINE
  5
27c
100
AcDbEntity
  8
Layer_1
 62
7
100
AcDbLine
 10
79.828757
 20
175.562655
 30
0.0
 11
80.887824
 21
176.484478
 31
0.0
  0
LINE
  5
27d
100
AcDbEntity
  8
Layer_1
 62
7
100
AcDbLine
 10
80.887824
 20
176.484478
 30
0.0
 11
81.979516
 21
177.367382
 31
0.0
  0
LINE
  5
27e
100
AcDbEntity
  8
Layer_1
 62
7
100
AcDbLine
 10
81.979516
 20
177.367382
 30
0.0
 11
83.102450
 21
178.210210
 31
0.0
  0
LINE
  5
27f
100
AcDbEntity
  8
Layer_1
 62
7
100
AcDbLine
 10
83.102450
 20
178.210210
 30
0.0
 11
81.803296
 21
180.007966
 31
0.0
  0
LINE
  5
280
100
AcDbEntity
  8
Layer_1
 62
7
100
AcDbLine
 10
81.803296
 20
180.007966
 30
0.0
 11
81.472391
 21
180.608168
 31
0.0
  0
LINE
  5
281
100
AcDbEntity
  8
Layer_1
 62
7
100
AcDbLine
 10
81.472391
 20
180.608168
 30
0.0
 11
81.199482
 21
181.249630
 31
0.0
  0
LINE
  5
282
100
AcDbEntity
  8
Layer_1
 62
7
100
AcDbLine
 10
81.199482
 20
181.249630
 30
0.0
 11
80.966395
 21
181.918666
 31
0.0
  0
LINE
  5
283
100
AcDbEntity
  8
Layer_1
 62
7
100
AcDbLine
 10
80.966395
 20
181.918666
 30
0.0
 11
80.767230
 21
182.610337
 31
0.0
  0
LINE
  5
284
100
AcDbEntity
  8
Layer_1
 62
7
100
AcDbLine
 10
80.767230
 20
182.610337
 30
0.0
 11
80.598828
 21
183.321762
 31
0.0
  0
LINE
  5
285
100
AcDbEntity
  8
Layer_1
 62
7
100
AcDbLine
 10
80.598828
 20
183.321762
 30
0.0
 11
80.459270
 21
184.050912
 31
0.0
  0
LINE
  5
286
100
AcDbEntity
  8
Layer_1
 62
7
100
AcDbLine
 10
80.459270
 20
184.050912
 30
0.0
 11
80.347284
 21
184.796176
 31
0.0
  0
LINE
  5
287
100
AcDbEntity
  8
Layer_1
 62
7
100
AcDbLine
 10
80.347284
 20
184.796176
 30
0.0
 11
80.261940
 21
185.556370
 31
0.0
  0
LINE
  5
288
100
AcDbEntity
  8
Layer_1
 62
7
100
AcDbLine
 10
80.261940
 20
185.556370
 30
0.0
 11
80.202673
 21
186.330336
 31
0.0
  0
LINE
  5
289
100
AcDbEntity
  8
Layer_1
 62
7
100
AcDbLine
 10
80.202673
 20
186.330336
 30
0.0
 11
80.168976
 21
187.117115
 31
0.0
  0
LINE
  5
28a
100
AcDbEntity
  8
Layer_1
 62
7
100
AcDbLine
 10
80.168976
 20
187.117115
 30
0.0
 11
80.160594
 21
187.915889
 31
0.0
  0
LINE
  5
28b
100
AcDbEntity
  8
Layer_1
 62
7
100
AcDbLine
 10
80.160594
 20
187.915889
 30
0.0
 11
80.865726
 21
188.347378
 31
0.0
  0
LINE
  5
28c
100
AcDbEntity
  8
Layer_1
 62
7
100
AcDbLine
 10
80.865726
 20
188.347378
 30
0.0
 11
81.578111
 21
188.766817
 31
0.0
  0
LINE
  5
28d
100
AcDbEntity
  8
Layer_1
 62
7
100
AcDbLine
 10
81.578111
 20
188.766817
 30
0.0
 11
82.297552
 21
189.174035
 31
0.0
  0
LINE
  5
28e
100
AcDbEntity
  8
Layer_1
 62
7
100
AcDbLine
 10
82.297552
 20
189.174035
 30
0.0
 11
83.023795
 21
189.568949
 31
0.0
  0
LINE
  5
28f
100
AcDbEntity
  8
Layer_1
 62
7
100
AcDbLine
 10
83.023795
 20
189.568949
 30
0.0
 11
83.711373
 21
189.162323
 31
0.0
  0
LINE
  5
290
100
AcDbEntity
  8
Layer_1
 62
7
100
AcDbLine
 10
83.711373
 20
189.162323
 30
0.0
 11
84.375921
 21
188.739752
 31
0.0
  0
LINE
  5
291
100
AcDbEntity
  8
Layer_1
 62
7
100
AcDbLine
 10
84.375921
 20
188.739752
 30
0.0
 11
85.016538
 21
188.301432
 31
0.0
  0
LINE
  5
292
100
AcDbEntity
  8
Layer_1
 62
7
100
AcDbLine
 10
85.016538
 20
188.301432
 30
0.0
 11
85.632205
 21
187.847450
 31
0.0
  0
LINE
  5
293
100
AcDbEntity
  8
Layer_1
 62
7
100
AcDbLine
 10
85.632205
 20
187.847450
 30
0.0
 11
86.221655
 21
187.377804
 31
0.0
  0
LINE
  5
294
100
AcDbEntity
  8
Layer_1
 62
7
100
AcDbLine
 10
86.221655
 20
187.377804
 30
0.0
 11
86.783305
 21
186.892382
 31
0.0
  0
LINE
  5
295
100
AcDbEntity
  8
Layer_1
 62
7
100
AcDbLine
 10
86.783305
 20
186.892382
 30
0.0
 11
87.315209
 21
186.390844
 31
0.0
  0
LINE
  5
296
100
AcDbEntity
  8
Layer_1
 62
7
100
AcDbLine
 10
87.315209
 20
186.390844
 30
0.0
 11
87.814658
 21
185.872515
 31
0.0
  0
LINE
  5
297
100
AcDbEntity
  8
Layer_1
 62
7
100
AcDbLine
 10
87.814658
 20
185.872515
 30
0.0
 11
88.277502
 21
185.336152
 31
0.0
  0
LINE
  5
298
100
AcDbEntity
  8
Layer_1
 62
7
100
AcDbLine
 10
88.277502
 20
185.336152
 30
0.0
 11
88.696574
 21
184.779045
 31
0.0
  0
LINE
  5
299
100
AcDbEntity
  8
Layer_1
 62
7
100
AcDbLine
 10
88.696574
 20
184.779045
 30
0.0
 11
89.050904
 21
184.192390
 31
0.0
  0
LINE
  5
29a
100
AcDbEntity
  8
Layer_1
 62
7
100
AcDbLine
 10
89.050904
 20
184.192390
 30
0.0
 11
89.958249
 21
182.168405
 31
0.0
  0
LINE
  5
29b
100
AcDbEntity
  8
Layer_1
 62
7
100
AcDbLine
 10
89.958249
 20
182.168405
 30
0.0
 11
91.249613
 21
182.719472
 31
0.0
  0
LINE
  5
29c
100
AcDbEntity
  8
Layer_1
 62
7
100
AcDbLine
 10
91.249613
 20
182.719472
 30
0.0
 11
92.560112
 21
183.223464
 31
0.0
  0
LINE
  5
29d
100
AcDbEntity
  8
Layer_1
 62
7
100
AcDbLine
 10
92.560112
 20
183.223464
 30
0.0
 11
93.887939
 21
183.679733
 31
0.0
  0
LINE
  5
29e
100
AcDbEntity
  8
Layer_1
 62
7
100
AcDbLine
 10
93.887939
 20
183.679733
 30
0.0
 11
95.231430
 21
184.087685
 31
0.0
  0
LINE
  5
29f
100
AcDbEntity
  8
Layer_1
 62
7
100
AcDbLine
 10
95.231430
 20
184.087685
 30
0.0
 11
94.625470
 21
186.221370
 31
0.0
  0
LINE
  5
2a0
100
AcDbEntity
  8
Layer_1
 62
7
100
AcDbLine
 10
94.625470
 20
186.221370
 30
0.0
 11
94.519835
 21
186.898534
 31
0.0
  0
LINE
  5
2a1
100
AcDbEntity
  8
Layer_1
 62
7
100
AcDbLine
 10
94.519835
 20
186.898534
 30
0.0
 11
94.482751
 21
187.594663
 31
0.0
  0
LINE
  5
2a2
100
AcDbEntity
  8
Layer_1
 62
7
100
AcDbLine
 10
94.482751
 20
187.594663
 30
0.0
 11
94.492544
 21
188.303069
 31
0.0
  0
LINE
  5
2a3
100
AcDbEntity
  8
Layer_1
 62
7
100
AcDbLine
 10
94.492544
 20
188.303069
 30
0.0
 11
94.541961
 21
189.021156
 31
0.0
  0
LINE
  5
2a4
100
AcDbEntity
  8
Layer_1
 62
7
100
AcDbLine
 10
94.541961
 20
189.021156
 30
0.0
 11
94.627051
 21
189.747257
 31
0.0
  0
LINE
  5
2a5
100
AcDbEntity
  8
Layer_1
 62
7
100
AcDbLine
 10
94.627051
 20
189.747257
 30
0.0
 11
94.745274
 21
190.480160
 31
0.0
  0
LINE
  5
2a6
100
AcDbEntity
  8
Layer_1
 62
7
100
AcDbLine
 10
94.745274
 20
190.480160
 30
0.0
 11
94.894936
 21
191.218820
 31
0.0
  0
LINE
  5
2a7
100
AcDbEntity
  8
Layer_1
 62
7
100
AcDbLine
 10
94.894936
 20
191.218820
 30
0.0
 11
95.074740
 21
191.962306
 31
0.0
  0
LINE
  5
2a8
100
AcDbEntity
  8
Layer_1
 62
7
100
AcDbLine
 10
95.074740
 20
191.962306
 30
0.0
 11
95.283754
 21
192.709885
 31
0.0
  0
LINE
  5
2a9
100
AcDbEntity
  8
Layer_1
 62
7
100
AcDbLine
 10
95.283754
 20
192.709885
 30
0.0
 11
95.521216
 21
193.460737
 31
0.0
  0
LINE
  5
2aa
100
AcDbEntity
  8
Layer_1
 62
7
100
AcDbLine
 10
95.521216
 20
193.460737
 30
0.0
 11
95.786533
 21
194.214214
 31
0.0
  0
LINE
  5
2ab
100
AcDbEntity
  8
Layer_1
 62
7
100
AcDbLine
 10
95.786533
 20
194.214214
 30
0.0
 11
96.596708
 21
194.378524
 31
0.0
  0
LINE
  5
2ac
100
AcDbEntity
  8
Layer_1
 62
7
100
AcDbLine
 10
96.596708
 20
194.378524
 30
0.0
 11
97.409593
 21
194.529004
 31
0.0
  0
LINE
  5
2ad
100
AcDbEntity
  8
Layer_1
 62
7
100
AcDbLine
 10
97.409593
 20
194.529004
 30
0.0
 11
98.224904
 21
194.665600
 31
0.0
  0
LINE
  5
2ae
100
AcDbEntity
  8
Layer_1
 62
7
100
AcDbLine
 10
98.224904
 20
194.665600
 30
0.0
 11
99.042446
 21
194.788310
 31
0.0
  0
LINE
  5
2af
100
AcDbEntity
  8
Layer_1
 62
7
100
AcDbLine
 10
99.042446
 20
194.788310
 30
0.0
 11
99.549458
 21
194.171034
 31
0.0
  0
LINE
  5
2b0
100
AcDbEntity
  8
Layer_1
 62
7
100
AcDbLine
 10
99.549458
 20
194.171034
 30
0.0
 11
100.029405
 21
193.546674
 31
0.0
  0
LINE
  5
2b1
100
AcDbEntity
  8
Layer_1
 62
7
100
AcDbLine
 10
100.029405
 20
193.546674
 30
0.0
 11
100.481469
 21
192.915681
 31
0.0
  0
LINE
  5
2b2
100
AcDbEntity
  8
Layer_1
 62
7
100
AcDbLine
 10
100.481469
 20
192.915681
 30
0.0
 11
100.904746
 21
192.278508
 31
0.0
  0
LINE
  5
2b3
100
AcDbEntity
  8
Layer_1
 62
7
100
AcDbLine
 10
100.904746
 20
192.278508
 30
0.0
 11
101.297994
 21
191.635578
 31
0.0
  0
LINE
  5
2b4
100
AcDbEntity
  8
Layer_1
 62
7
100
AcDbLine
 10
101.297994
 20
191.635578
 30
0.0
 11
101.659775
 21
190.987313
 31
0.0
  0
LINE
  5
2b5
100
AcDbEntity
  8
Layer_1
 62
7
100
AcDbLine
 10
101.659775
 20
190.987313
 30
0.0
 11
101.988056
 21
190.334110
 31
0.0
  0
LINE
  5
2b6
100
AcDbEntity
  8
Layer_1
 62
7
100
AcDbLine
 10
101.988056
 20
190.334110
 30
0.0
 11
102.280099
 21
189.676222
 31
0.0
  0
LINE
  5
2b7
100
AcDbEntity
  8
Layer_1
 62
7
100
AcDbLine
 10
102.280099
 20
189.676222
 30
0.0
 11
102.531587
 21
189.013902
 31
0.0
  0
LINE
  5
2b8
100
AcDbEntity
  8
Layer_1
 62
7
100
AcDbLine
 10
102.531587
 20
189.013902
 30
0.0
 11
102.734844
 21
188.347068
 31
0.0
  0
LINE
  5
2b9
100
AcDbEntity
  8
Layer_1
 62
7
100
AcDbLine
 10
102.734844
 20
188.347068
 30
0.0
 11
102.867178
 21
187.674589
 31
0.0
  0
LINE
  5
2ba
100
AcDbEntity
  8
Layer_1
 62
7
100
AcDbLine
 10
102.867178
 20
187.674589
 30
0.0
 11
103.027536
 21
185.462333
 31
0.0
  0
LINE
  5
2bb
100
AcDbEntity
  8
Layer_1
 62
7
100
AcDbLine
 10
103.027536
 20
185.462333
 30
0.0
 11
104.429504
 21
185.538505
 31
0.0
  0
LINE
  5
2bc
100
AcDbEntity
  8
Layer_1
 62
7
100
AcDbLine
 10
104.429504
 20
185.538505
 30
0.0
 11
105.833333
 21
185.563905
 31
0.0
  0
LINE
  5
2bd
100
AcDbEntity
  8
Layer_1
 62
7
100
AcDbLine
 10
105.833333
 20
185.563905
 30
0.0
 11
107.237163
 21
185.538505
 31
0.0
  0
LINE
  5
2be
100
AcDbEntity
  8
Layer_1
 62
7
100
AcDbLine
 10
107.237163
 20
185.538505
 30
0.0
 11
108.639130
 21
185.462333
 31
0.0
  0
LINE
  5
2bf
100
AcDbEntity
  8
Layer_1
 62
7
100
AcDbLine
 10
108.639130
 20
185.462333
 30
0.0
 11
108.799489
 21
187.674589
 31
0.0
  0
LINE
  5
2c0
100
AcDbEntity
  8
Layer_1
 62
7
100
AcDbLine
 10
108.799489
 20
187.674589
 30
0.0
 11
108.931823
 21
188.347068
 31
0.0
  0
LINE
  5
2c1
100
AcDbEntity
  8
Layer_1
 62
7
100
AcDbLine
 10
108.931823
 20
188.347068
 30
0.0
 11
109.135079
 21
189.013902
 31
0.0
  0
LINE
  5
2c2
100
AcDbEntity
  8
Layer_1
 62
7
100
AcDbLine
 10
109.135079
 20
189.013902
 30
0.0
 11
109.386568
 21
189.676222
 31
0.0
  0
LINE
  5
2c3
100
AcDbEntity
  8
Layer_1
 62
7
100
AcDbLine
 10
109.386568
 20
189.676222
 30
0.0
 11
109.678611
 21
190.334110
 31
0.0
  0
LINE
  5
2c4
100
AcDbEntity
  8
Layer_1
 62
7
100
AcDbLine
 10
109.678611
 20
190.334110
 30
0.0
 11
110.006892
 21
190.987313
 31
0.0
  0
LINE
  5
2c5
100
AcDbEntity
  8
Layer_1
 62
7
100
AcDbLine
 10
110.006892
 20
190.987313
 30
0.0
 11
110.368673
 21
191.635578
 31
0.0
  0
LINE
  5
2c6
100
AcDbEntity
  8
Layer_1
 62
7
100
AcDbLine
 10
110.368673
 20
191.635578
 30
0.0
 11
110.761921
 21
192.278508
 31
0.0
  0
LINE
  5
2c7
100
AcDbEntity
  8
Layer_1
 62
7
100
AcDbLine
 10
110.761921
 20
192.278508
 30
0.0
 11
111.185198
 21
192.915681
 31
0.0
  0
LINE
  5
2c8
100
AcDbEntity
  8
Layer_1
 62
7
100
AcDbLine
 10
111.185198
 20
192.915681
 30
0.0
 11
111.637262
 21
193.546674
 31
0.0
  0
LINE
  5
2c9
100
AcDbEntity
  8
Layer_1
 62
7
100
AcDbLine
 10
111.637262
 20
193.546674
 30
0.0
 11
112.117209
 21
194.171034
 31
0.0
  0
LINE
  5
2ca
100
AcDbEntity
  8
Layer_1
 62
7
100
AcDbLine
 10
112.117209
 20
194.171034
 30
0.0
 11
112.624221
 21
194.788310
 31
0.0
  0
LINE
  5
2cb
100
AcDbEntity
  8
Layer_1
 62
7
100
AcDbLine
 10
112.624221
 20
194.788310
 30
0.0
 11
113.441762
 21
194.665600
 31
0.0
  0
LINE
  5
2cc
100
AcDbEntity
  8
Layer_1
 62
7
100
AcDbLine
 10
113.441762
 20
194.665600
 30
0.0
 11
114.257074
 21
194.529004
 31
0.0
  0
LINE
  5
2cd
100
AcDbEntity
  8
Layer_1
 62
7
100
AcDbLine
 10
114.257074
 20
194.529004
 30
0.0
 11
115.069959
 21
194.378524
 31
0.0
  0
LINE
  5
2ce
100
AcDbEntity
  8
Layer_1
 62
7
100
AcDbLine
 10
115.069959
 20
194.378524
 30
0.0
 11
115.880134
 21
194.214214
 31
0.0
  0
LINE
  5
2cf
100
AcDbEntity
  8
Layer_1
 62
7
100
AcDbLine
 10
115.880134
 20
194.214214
 30
0.0
 11
116.145451
 21
193.460737
 31
0.0
  0
LINE
  5
2d0
100
AcDbEntity
  8
Layer_1
 62
7
100
AcDbLine
 10
116.145451
 20
193.460737
 30
0.0
 11
116.382913
 21
192.709885
 31
0.0
  0
LINE
  5
2d1
100
AcDbEntity
  8
Layer_1
 62
7
100
AcDbLine
 10
116.382913
 20
192.709885
 30
0.0
 11
116.591927
 21
191.962306
 31
0.0
  0
LINE
  5
2d2
100
AcDbEntity
  8
Layer_1
 62
7
100
AcDbLine
 10
116.591927
 20
191.962306
 30
0.0
 11
116.771730
 21
191.218820
 31
0.0
  0
LINE
  5
2d3
100
AcDbEntity
  8
Layer_1
 62
7
100
AcDbLine
 10
116.771730
 20
191.218820
 30
0.0
 11
116.921393
 21
190.480160
 31
0.0
  0
LINE
  5
2d4
100
AcDbEntity
  8
Layer_1
 62
7
100
AcDbLine
 10
116.921393
 20
190.480160
 30
0.0
 11
117.039616
 21
189.747257
 31
0.0
  0
LINE
  5
2d5
100
AcDbEntity
  8
Layer_1
 62
7
100
AcDbLine
 10
117.039616
 20
189.747257
 30
0.0
 11
117.124706
 21
189.021156
 31
0.0
  0
LINE
  5
2d6
100
AcDbEntity
  8
Layer_1
 62
7
100
AcDbLine
 10
117.124706
 20
189.021156
 30
0.0
 11
117.174123
 21
188.303069
 31
0.0
  0
LINE
  5
2d7
100
AcDbEntity
  8
Layer_1
 62
7
100
AcDbLine
 10
117.174123
 20
188.303069
 30
0.0
 11
117.183916
 21
187.594663
 31
0.0
  0
LINE
  5
2d8
100
AcDbEntity
  8
Layer_1
 62
7
100
AcDbLine
 10
117.183916
 20
187.594663
 30
0.0
 11
117.146832
 21
186.898534
 31
0.0
  0
LINE
  5
2d9
100
AcDbEntity
  8
Layer_1
 62
7
100
AcDbLine
 10
117.146832
 20
186.898534
 30
0.0
 11
117.041196
 21
186.221370
 31
0.0
  0
LINE
  5
2da
100
AcDbEntity
  8
Layer_1
 62
7
100
AcDbLine
 10
117.041196
 20
186.221370
 30
0.0
 11
116.435237
 21
184.087685
 31
0.0
  0
LINE
  5
2db
100
AcDbEntity
  8
Layer_1
 62
7
100
AcDbLine
 10
116.435237
 20
184.087685
 30
0.0
 11
117.778728
 21
183.679733
 31
0.0
  0
LINE
  5
2dc
100
AcDbEntity
  8
Layer_1
 62
7
100
AcDbLine
 10
117.778728
 20
183.679733
 30
0.0
 11
119.106555
 21
183.223464
 31
0.0
  0
LINE
  5
2dd
100
AcDbEntity
  8
Layer_1
 62
7
100
AcDbLine
 10
119.106555
 20
183.223464
 30
0.0
 11
120.417054
 21
182.719472
 31
0.0
  0
LINE
  5
2de
100
AcDbEntity
  8
Layer_1
 62
7
100
AcDbLine
 10
120.417054
 20
182.719472
 30
0.0
 11
121.708418
 21
182.168405
 31
0.0
  0
LINE
  5
2df
100
AcDbEntity
  8
Layer_1
 62
7
100
AcDbLine
 10
121.708418
 20
182.168405
 30
0.0
 11
122.615762
 21
184.192390
 31
0.0
  0
LINE
  5
2e0
100
AcDbEntity
  8
Layer_1
 62
7
100
AcDbLine
 10
122.615762
 20
184.192390
 30
0.0
 11
122.970092
 21
184.779045
 31
0.0
  0
LINE
  5
2e1
100
AcDbEntity
  8
Layer_1
 62
7
100
AcDbLine
 10
122.970092
 20
184.779045
 30
0.0
 11
123.389164
 21
185.336152
 31
0.0
  0
LINE
  5
2e2
100
AcDbEntity
  8
Layer_1
 62
7
100
AcDbLine
 10
123.389164
 20
185.336152
 30
0.0
 11
123.852009
 21
185.872515
 31
0.0
  0
LINE
  5
2e3
100
AcDbEntity
  8
Layer_1
 62
7
100
AcDbLine
 10
123.852009
 20
185.872515
 30
0.0
 11
124.351457
 21
186.390844
 31
0.0
  0
LINE
  5
2e4
100
AcDbEntity
  8
Layer_1
 62
7
100
AcDbLine
 10
124.351457
 20
186.390844
 30
0.0
 11
124.883362
 21
186.892382
 31
0.0
  0
LINE
  5
2e5
100
AcDbEntity
  8
Layer_1
 62
7
100
AcDbLine
 10
124.883362
 20
186.892382
 30
0.0
 11
125.445012
 21
187.377804
 31
0.0
  0
LINE
  5
2e6
100
AcDbEntity
  8
Layer_1
 62
7
100
AcDbLine
 10
125.445012
 20
187.377804
 30
0.0
 11
126.034461
 21
187.847450
 31
0.0
  0
LINE
  5
2e7
100
AcDbEntity
  8
Layer_1
 62
7
100
AcDbLine
 10
126.034461
 20
187.847450
 30
0.0
 11
126.650129
 21
188.301432
 31
0.0
  0
LINE
  5
2e8
100
AcDbEntity
  8
Layer_1
 62
7
100
AcDbLine
 10
126.650129
 20
188.301432
 30
0.0
 11
127.290745
 21
188.739752
 31
0.0
  0
LINE
  5
2e9
100
AcDbEntity
  8
Layer_1
 62
7
100
AcDbLine
 10
127.290745
 20
188.739752
 30
0.0
 11
127.955294
 21
189.162323
 31
0.0
  0
LINE
  5
2ea
100
AcDbEntity
  8
Layer_1
 62
7
100
AcDbLine
 10
127.955294
 20
189.162323
 30
0.0
 11
128.642872
 21
189.568949
 31
0.0
  0
LINE
  5
2eb
100
AcDbEntity
  8
Layer_1
 62
7
100
AcDbLine
 10
128.642872
 20
189.568949
 30
0.0
 11
129.369114
 21
189.174035
 31
0.0
  0
LINE
  5
2ec
100
AcDbEntity
  8
Layer_1
 62
7
100
AcDbLine
 10
129.369114
 20
189.174035
 30
0.0
 11
130.088555
 21
188.766817
 31
0.0
  0
LINE
  5
2ed
100
AcDbEntity
  8
Layer_1
 62
7
100
AcDbLine
 10
130.088555
 20
188.766817
 30
0.0
 11
130.800941
 21
188.347378
 31
0.0
  0
LINE
  5
2ee
100
AcDbEntity
  8
Layer_1
 62
7
100
AcDbLine
 10
130.800941
 20
188.347378
 30
0.0
 11
131.506073
 21
187.915889
 31
0.0
  0
LINE
  5
2ef
100
AcDbEntity
  8
Layer_1
 62
7
100
AcDbLine
 10
131.506073
 20
187.915889
 30
0.0
 11
131.497691
 21
187.117115
 31
0.0
  0
LINE
  5
2f0
100
AcDbEntity
  8
Layer_1
 62
7
100
AcDbLine
 10
131.497691
 20
187.117115
 30
0.0
 11
131.463994
 21
186.330336
 31
0.0
  0
LINE
  5
2f1
100
AcDbEntity
  8
Layer_1
 62
7
100
AcDbLine
 10
131.463994
 20
186.330336
 30
0.0
 11
131.404727
 21
185.556370
 31
0.0
  0
LINE
  5
2f2
100
AcDbEntity
  8
Layer_1
 62
7
100
AcDbLine
 10
131.404727
 20
185.556370
 30
0.0
 11
131.319383
 21
184.796176
 31
0.0
  0
LINE
  5
2f3
100
AcDbEntity
  8
Layer_1
 62
7
100
AcDbLine
 10
131.319383
 20
184.796176
 30
0.0
 11
131.207397
 21
184.050912
 31
0.0
  0
LINE
  5
2f4
100
AcDbEntity
  8
Layer_1
 62
7
100
AcDbLine
 10
131.207397
 20
184.050912
 30
0.0
 11
131.067838
 21
183.321762
 31
0.0
  0
LINE
  5
2f5
100
AcDbEntity
  8
Layer_1
 62
7
100
AcDbLine
 10
131.067838
 20
183.321762
 30
0.0
 11
130.899436
 21
182.610337
 31
0.0
  0
LINE
  5
2f6
100
AcDbEntity
  8
Layer_1
 62
7
100
AcDbLine
 10
130.899436
 20
182.610337
 30
0.0
 11
130.700272
 21
181.918666
 31
0.0
  0
LINE
  5
2f7
100
AcDbEntity
  8
Layer_1
 62
7
100
AcDbLine
 10
130.700272
 20
181.918666
 30
0.0
 11
130.467185
 21
181.249630
 31
0.0
  0
LINE
  5
2f8
100
AcDbEntity
  8
Layer_1
 62
7
100
AcDbLine
 10
130.467185
 20
181.249630
 30
0.0
 11
130.194276
 21
180.608168
 31
0.0
  0
LINE
  5
2f9
100
AcDbEntity
  8
Layer_1
 62
7
100
AcDbLine
 10
130.194276
 20
180.608168
 30
0.0
 11
129.863370
 21
180.007966
 31
0.0
  0
LINE
  5
2fa
100
AcDbEntity
  8
Layer_1
 62
7
100
AcDbLine
 10
129.863370
 20
180.007966
 30
0.0
 11
128.564217
 21
178.210210
 31
0.0
  0
LINE
  5
2fb
100
AcDbEntity
  8
Layer_1
 62
7
100
AcDbLine
 10
128.564217
 20
178.210210
 30
0.0
 11
129.687151
 21
177.367382
 31
0.0
  0
LINE
  5
2fc
100
AcDbEntity
  8
Layer_1
 62
7
100
AcDbLine
 10
129.687151
 20
177.367382
 30
0.0
 11
130.778843
 21
176.484478
 31
0.0
  0
LINE
  5
2fd
100
AcDbEntity
  8
Layer_1
 62
7
100
AcDbLine
 10
130.778843
 20
176.484478
 30
0.0
 11
131.837910
 21
175.562655
 31
0.0
  0
LINE
  5
2fe
100
AcDbEntity
  8
Layer_1
 62
7
100
AcDbLine
 10
131.837910
 20
175.562655
 30
0.0
 11
132.862941
 21
174.603128
 31
0.0
  0
LINE
  5
2ff
100
AcDbEntity
  8
Layer_1
 62
7
100
AcDbLine
 10
132.862941
 20
174.603128
 30
0.0
 11
134.407797
 21
176.194748
 31
0.0
  0
LINE
  5
300
100
AcDbEntity
  8
Layer_1
 62
7
100
AcDbLine
 10
134.407797
 20
176.194748
 30
0.0
 11
134.941423
 21
176.624827
 31
0.0
  0
LINE
  5
301
100
AcDbEntity
  8
Layer_1
 62
7
100
AcDbLine
 10
134.941423
 20
176.624827
 30
0.0
 11
135.525764
 21
177.005008
 31
0.0
  0
LINE
  5
302
100
AcDbEntity
  8
Layer_1
 62
7
100
AcDbLine
 10
135.525764
 20
177.005008
 30
0.0
 11
136.144141
 21
177.350730
 31
0.0
  0
LINE
  5
303
100
AcDbEntity
  8
Layer_1
 62
7
100
AcDbLine
 10
136.144141
 20
177.350730
 30
0.0
 11
136.790740
 21
177.666960
 31
0.0
  0
LINE
  5
304
100
AcDbEntity
  8
Layer_1
 62
7
100
AcDbLine
 10
136.790740
 20
177.666960
 30
0.0
 11
137.462091
 21
177.956351
 31
0.0
  0
LINE
  5
305
100
AcDbEntity
  8
Layer_1
 62
7
100
AcDbLine
 10
137.462091
 20
177.956351
 30
0.0
 11
138.155906
 21
178.220398
 31
0.0
  0
LINE
  5
306
100
AcDbEntity
  8
Layer_1
 62
7
100
AcDbLine
 10
138.155906
 20
178.220398
 30
0.0
 11
138.870436
 21
178.460118
 31
0.0
  0
LINE
  5
307
100
AcDbEntity
  8
Layer_1
 62
7
100
AcDbLine
 10
138.870436
 20
178.460118
 30
0.0
 11
139.604242
 21
178.676159
 31
0.0
  0
LINE
  5
308
100
AcDbEntity
  8
Layer_1
 62
7
100
AcDbLine
 10
139.604242
 20
178.676159
 30
0.0
 11
140.356167
 21
178.868917
 31
0.0
  0
LINE
  5
309
100
AcDbEntity
  8
Layer_1
 62
7
100
AcDbLine
 10
140.356167
 20
178.868917
 30
0.0
 11
141.125166
 21
179.038702
 31
0.0
  0
LINE
  5
30a
100
AcDbEntity
  8
Layer_1
 62
7
100
AcDbLine
 10
141.125166
 20
179.038702
 30
0.0
 11
141.910336
 21
179.185683
 31
0.0
  0
LINE
  5
30b
100
AcDbEntity
  8
Layer_1
 62
7
100
AcDbLine
 10
141.910336
 20
179.185683
 30
0.0
 11
142.457706
 21
178.566177
 31
0.0
  0
LINE
  5
30c
100
AcDbEntity
  8
Layer_1
 62
7
100
AcDbLine
 10
142.457706
 20
178.566177
 30
0.0
 11
142.994465
 21
177.937470
 31
0.0
  0
LINE
  5
30d
100
AcDbEntity
  8
Layer_1
 62
7
100
AcDbLine
 10
142.994465
 20
177.937470
 30
0.0
 11
143.520442
 21
177.299676
 31
0.0
  0
LINE
  5
30e
100
AcDbEntity
  8
Layer_1
 62
7
100
AcDbLine
 10
143.520442
 20
177.299676
 30
0.0
 11
144.035470
 21
176.653021
 31
0.0
  0
LINE
  5
30f
100
AcDbEntity
  8
Layer_1
 62
7
100
AcDbLine
 10
144.035470
 20
176.653021
 30
0.0
 11
143.754404
 21
175.905301
 31
0.0
  0
LINE
  5
310
100
AcDbEntity
  8
Layer_1
 62
7
100
AcDbLine
 10
143.754404
 20
175.905301
 30
0.0
 11
143.453668
 21
175.177478
 31
0.0
  0
LINE
  5
311
100
AcDbEntity
  8
Layer_1
 62
7
100
AcDbLine
 10
143.453668
 20
175.177478
 30
0.0
 11
143.133233
 21
174.470455
 31
0.0
  0
LINE
  5
312
100
AcDbEntity
  8
Layer_1
 62
7
100
AcDbLine
 10
143.133233
 20
174.470455
 30
0.0
 11
142.793071
 21
173.785304
 31
0.0
  0
LINE
  5
313
100
AcDbEntity
  8
Layer_1
 62
7
100
AcDbLine
 10
142.793071
 20
173.785304
 30
0.0
 11
142.432899
 21
173.123267
 31
0.0
  0
LINE
  5
314
100
AcDbEntity
  8
Layer_1
 62
7
100
AcDbLine
 10
142.432899
 20
173.123267
 30
0.0
 11
142.052379
 21
172.485840
 31
0.0
  0
LINE
  5
315
100
AcDbEntity
  8
Layer_1
 62
7
100
AcDbLine
 10
142.052379
 20
172.485840
 30
0.0
 11
141.650833
 21
171.874942
 31
0.0
  0
LINE
  5
316
100
AcDbEntity
  8
Layer_1
 62
7
100
AcDbLine
 10
141.650833
 20
171.874942
 30
0.0
 11
141.227104
 21
171.293084
 31
0.0
  0
LINE
  5
317
100
AcDbEntity
  8
Layer_1
 62
7
100
AcDbLine
 10
141.227104
 20
171.293084
 30
0.0
 11
140.779274
 21
170.744106
 31
0.0
  0
LINE
  5
318
100
AcDbEntity
  8
Layer_1
 62
7
100
AcDbLine
 10
140.779274
 20
170.744106
 30
0.0
 11
140.303391
 21
170.234666
 31
0.0
  0
LINE
  5
319
100
AcDbEntity
  8
Layer_1
 62
7
100
AcDbLine
 10
140.303391
 20
170.234666
 30
0.0
 11
139.787178
 21
169.783845
 31
0.0
  0
LINE
  5
31a
100
AcDbEntity
  8
Layer_1
 62
7
100
AcDbLine
 10
139.787178
 20
169.783845
 30
0.0
 11
137.951492
 21
168.538850
 31
0.0
  0
LINE
  5
31b
100
AcDbEntity
  8
Layer_1
 62
7
100
AcDbLine
 10
137.951492
 20
168.538850
 30
0.0
 11
138.718431
 21
167.362773
 31
0.0
  0
LINE
  5
31c
100
AcDbEntity
  8
Layer_1
 62
7
100
AcDbLine
 10
138.718431
 20
167.362773
 30
0.0
 11
139.442331
 21
166.159716
 31
0.0
  0
LINE
  5
31d
100
AcDbEntity
  8
Layer_1
 62
7
100
AcDbLine
 10
139.442331
 20
166.159716
 30
0.0
 11
140.122261
 21
164.931288
 31
0.0
  0
LINE
  5
31e
100
AcDbEntity
  8
Layer_1
 62
7
100
AcDbLine
 10
140.122261
 20
164.931288
 30
0.0
 11
140.757289
 21
163.679039
 31
0.0
  0
LINE
  5
31f
100
AcDbEntity
  8
Layer_1
 62
7
100
AcDbLine
 10
140.757289
 20
163.679039
 30
0.0
 11
142.753334
 21
164.646300
 31
0.0
  0
LINE
  5
320
100
AcDbEntity
  8
Layer_1
 62
7
100
AcDbLine
 10
142.753334
 20
164.646300
 30
0.0
 11
143.401881
 21
164.867957
 31
0.0
  0
LINE
  5
321
100
AcDbEntity
  8
Layer_1
 62
7
100
AcDbLine
 10
143.401881
 20
164.867957
 30
0.0
 11
144.080992
 21
165.025324
 31
0.0
  0
LINE
  5
322
100
AcDbEntity
  8
Layer_1
 62
7
100
AcDbLine
 10
144.080992
 20
165.025324
 30
0.0
 11
144.780339
 21
165.138693
 31
0.0
  0
LINE
  5
323
100
AcDbEntity
  8
Layer_1
 62
7
100
AcDbLine
 10
144.780339
 20
165.138693
 30
0.0
 11
145.496082
 21
165.214723
 31
0.0
  0
LINE
  5
324
100
AcDbEntity
  8
Layer_1
 62
7
100
AcDbLine
 10
145.496082
 20
165.214723
 30
0.0
 11
146.225937
 21
165.257028
 31
0.0
  0
LINE
  5
325
100
AcDbEntity
  8
Layer_1
 62
7
100
AcDbLine
 10
146.225937
 20
165.257028
 30
0.0
 11
146.968238
 21
165.267866
 31
0.0
  0
LINE
  5
326
100
AcDbEntity
  8
Layer_1
 62
7
100
AcDbLine
 10
146.968238
 20
165.267866
 30
0.0
 11
147.721659
 21
165.248731
 31
0.0
  0
LINE
  5
327
100
AcDbEntity
  8
Layer_1
 62
7
100
AcDbLine
 10
147.721659
 20
165.248731
 30
0.0
 11
148.485098
 21
165.200782
 31
0.0
  0
LINE
  5
328
100
AcDbEntity
  8
Layer_1
 62
7
100
AcDbLine
 10
148.485098
 20
165.200782
 30
0.0
 11
149.257597
 21
165.124751
 31
0.0
  0
LINE
  5
329
100
AcDbEntity
  8
Layer_1
 62
7
100
AcDbLine
 10
149.257597
 20
165.124751
 30
0.0
 11
150.038280
 21
165.021288
 31
0.0
  0
LINE
  5
32a
100
AcDbEntity
  8
Layer_1
 62
7
100
AcDbLine
 10
150.038280
 20
165.021288
 30
0.0
 11
150.826357
 21
164.890845
 31
0.0
  0
LINE
  5
32b
100
AcDbEntity
  8
Layer_1
 62
7
100
AcDbLine
 10
150.826357
 20
164.890845
 30
0.0
 11
151.128871
 21
164.121479
 31
0.0
  0
LINE
  5
32c
100
AcDbEntity
  8
Layer_1
 62
7
100
AcDbLine
 10
151.128871
 20
164.121479
 30
0.0
 11
151.418234
 21
163.347090
 31
0.0
  0
LINE
  5
32d
100
AcDbEntity
  8
Layer_1
 62
7
100
AcDbLine
 10
151.418234
 20
163.347090
 30
0.0
 11
151.694332
 21
162.567902
 31
0.0
  0
LINE
  5
32e
100
AcDbEntity
  8
Layer_1
 62
7
100
AcDbLine
 10
151.694332
 20
162.567902
 30
0.0
 11
151.957137
 21
161.784086
 31
0.0
  0
LINE
  5
32f
100
AcDbEntity
  8
Layer_1
 62
7
100
AcDbLine
 10
151.957137
 20
161.784086
 30
0.0
 11
151.437284
 21
161.177591
 31
0.0
  0
LINE
  5
330
100
AcDbEntity
  8
Layer_1
 62
7
100
AcDbLine
 10
151.437284
 20
161.177591
 30
0.0
 11
150.905746
 21
160.596524
 31
0.0
  0
LINE
  5
331
100
AcDbEntity
  8
Layer_1
 62
7
100
AcDbLine
 10
150.905746
 20
160.596524
 30
0.0
 11
150.362835
 21
160.041731
 31
0.0
  0
LINE
  5
332
100
AcDbEntity
  8
Layer_1
 62
7
100
AcDbLine
 10
150.362835
 20
160.041731
 30
0.0
 11
149.808833
 21
159.514258
 31
0.0
  0
LINE
  5
333
100
AcDbEntity
  8
Layer_1
 62
7
100
AcDbLine
 10
149.808833
 20
159.514258
 30
0.0
 11
149.243965
 21
159.015317
 31
0.0
  0
LINE
  5
334
100
AcDbEntity
  8
Layer_1
 62
7
100
AcDbLine
 10
149.243965
 20
159.015317
 30
0.0
 11
148.668401
 21
158.546490
 31
0.0
  0
LINE
  5
335
100
AcDbEntity
  8
Layer_1
 62
7
100
AcDbLine
 10
148.668401
 20
158.546490
 30
0.0
 11
148.082113
 21
158.109751
 31
0.0
  0
LINE
  5
336
100
AcDbEntity
  8
Layer_1
 62
7
100
AcDbLine
 10
148.082113
 20
158.109751
 30
0.0
 11
147.484931
 21
157.707894
 31
0.0
  0
LINE
  5
337
100
AcDbEntity
  8
Layer_1
 62
7
100
AcDbLine
 10
147.484931
 20
157.707894
 30
0.0
 11
146.876347
 21
157.345211
 31
0.0
  0
LINE
  5
338
100
AcDbEntity
  8
Layer_1
 62
7
100
AcDbLine
 10
146.876347
 20
157.345211
 30
0.0
 11
146.254922
 21
157.029263
 31
0.0
  0
LINE
  5
339
100
AcDbEntity
  8
Layer_1
 62
7
100
AcDbLine
 10
146.254922
 20
157.029263
 30
0.0
 11
145.615660
 21
156.782177
 31
0.0
  0
LINE
  5
33a
100
AcDbEntity
  8
Layer_1
 62
7
100
AcDbLine
 10
145.615660
 20
156.782177
 30
0.0
 11
143.464844
 21
156.240085
 31
0.0
  0
LINE
  5
33b
100
AcDbEntity
  8
Layer_1
 62
7
100
AcDbLine
 10
143.464844
 20
156.240085
 30
0.0
 11
143.783304
 21
154.872634
 31
0.0
  0
LINE
  5
33c
100
AcDbEntity
  8
Layer_1
 62
7
100
AcDbLine
 10
143.783304
 20
154.872634
 30
0.0
 11
144.052092
 21
153.494542
 31
0.0
  0
LINE
  5
33d
100
AcDbEntity
  8
Layer_1
 62
7
100
AcDbLine
 10
144.052092
 20
153.494542
 30
0.0
 11
144.270843
 21
152.107646
 31
0.0
  0
LINE
  5
33e
100
AcDbEntity
  8
Layer_1
 62
7
100
AcDbLine
 10
144.270843
 20
152.107646
 30
0.0
 11
144.439301
 21
150.713750
 31
0.0
  0
LINE
  5
33f
100
AcDbEntity
  8
Layer_1
 62
7
100
AcDbLine
 10
144.439301
 20
150.713750
 30
0.0
 11
146.645799
 21
150.939980
 31
0.0
  0
SPLINE
  5
340
100
AcDbEntity
  8
Layer_1
 62
7
100
AcDbSpline
 70
0
 71
3
 72
25
 73
21
 74
19
 40
0.000000
 40
0.000000
 40
0.000000
 40
0.000000
 40
4.431844
 40
8.800262
 40
13.232106
 40
17.663950
 40
22.032368
 40
26.464212
 40
30.896057
 40
35.264474
 40
39.696318
 40
44.128163
 40
48.496580
 40
52.928425
 40
57.360269
 40
61.728686
 40
66.160531
 40
70.592375
 40
74.960793
 40
79.392637
 40
79.392637
 40
79.392637
 40
79.392637
 10
105.833333
 20
134.055556
 30
0.0
 10
107.318149
 20
134.207295
 30
0.0
 10
110.266531
 20
134.508601
 30
0.0
 10
114.162863
 20
136.846248
 30
0.0
 10
117.059683
 20
140.268959
 30
0.0
 10
118.596060
 20
144.507341
 30
0.0
 10
118.596060
 20
149.004743
 30
0.0
 10
117.059683
 20
153.237189
 30
0.0
 10
114.162863
 20
156.683602
 30
0.0
 10
110.266531
 20
158.933183
 30
0.0
 10
105.833333
 20
159.718624
 30
0.0
 10
101.400136
 20
158.933183
 30
0.0
 10
97.503804
 20
156.683602
 30
0.0
 10
94.606983
 20
153.237189
 30
0.0
 10
93.070606
 20
149.004743
 30
0.0
 10
93.070606
 20
144.507341
 30
0.0
 10
94.606983
 20
140.268959
 30
0.0
 10
97.503804
 20
136.846248
 30
0.0
 10
101.400136
 20
134.508601
 30
0.0
 10
104.348517
 20
134.207295
 30
0.0
 10
105.833333
 20
134.055556
 30
0.0
 11
105.833333
 21
134.055556
 31
0.0
 11
110.197226
 21
134.828653
 31
0.0
 11
113.980387
 21
137.012862
 31
0.0
 11
116.831856
 21
140.405556
 31
0.0
 11
118.344280
 21
144.571347
 31
0.0
 11
118.344280
 21
148.939764
 31
0.0
 11
116.831856
 21
153.105556
 31
0.0
 11
113.980387
 21
156.498249
 31
0.0
 11
110.197226
 21
158.682458
 31
0.0
 11
105.833333
 21
159.455556
 31
0.0
 11
101.469440
 21
158.682458
 31
0.0
 11
97.686280
 21
156.498249
 31
0.0
 11
94.834811
 21
153.105556
 31
0.0
 11
93.322386
 21
148.939764
 31
0.0
 11
93.322386
 21
144.571347
 31
0.0
 11
94.834811
 21
140.405556
 31
0.0
 11
97.686280
 21
137.012862
 31
0.0
 11
101.469440
 21
134.828653
 31
0.0
 11
105.833333
 21
134.055556
 31
0.0
  0
ENDSEC
  0
SECTION
  2
OBJECTS
  0
DICTIONARY
  5
C
330
0
100
AcDbDictionary
  3
ACAD_GROUP
350
D
  3
ACAD_MLINESTYLE
350
17
  0
DICTIONARY
  5
D
330
C
100
AcDbDictionary
  0
DICTIONARY
  5
1A
330
C
100
AcDbDictionary
  0
DICTIONARY
  5
17
330
C
100
AcDbDictionary
  3
STANDARD
350
18
  0
DICTIONARY
  5
19
330
C
100
AcDbDictionary
  0
ENDSEC
  0
EOF
