<?xml version="1.0" encoding="UTF-8" standalone="no"?>
<!-- Created with Inkscape (http://www.inkscape.org/) -->

<svg
   xmlns:dc="http://purl.org/dc/elements/1.1/"
   xmlns:cc="http://creativecommons.org/ns#"
   xmlns:rdf="http://www.w3.org/1999/02/22-rdf-syntax-ns#"
   xmlns:svg="http://www.w3.org/2000/svg"
   xmlns="http://www.w3.org/2000/svg"
   xmlns:sodipodi="http://sodipodi.sourceforge.net/DTD/sodipodi-0.dtd"
   xmlns:inkscape="http://www.inkscape.org/namespaces/inkscape"
   inkscape:version="0.48.4 r9939"
   version="1.1"
   id="svg2"
   height="1052.3622047"
   width="744.09448819"
   sodipodi:docname="New document 1">
  <sodipodi:namedview
     id="base"
     pagecolor="#ffffff"
     bordercolor="#666666"
     borderopacity="1.0"
     inkscape:pageopacity="0.0"
     inkscape:pageshadow="2"
     inkscape:zoom="0.35"
     inkscape:cx="375"
     inkscape:cy="520"
     inkscape:document-units="px"
     inkscape:current-layer="svg2"
     showgrid="false"
     inkscape:window-width="1440"
     inkscape:window-height="838"
     inkscape:window-x="-8"
     inkscape:window-y="102"
     inkscape:window-maximized="1" />
  <defs
     id="defs4" />
  <metadata
     id="metadata7">
    <rdf:RDF>
      <cc:Work
         rdf:about="">
        <dc:format>image/svg+xml</dc:format>
        <dc:type
           rdf:resource="http://purl.org/dc/dcmitype/StillImage" />
        <dc:title></dc:title>
      </cc:Work>
    </rdf:RDF>
  </metadata>
  <g
     id="layer1"
     inkscape:groupmode="layer"
     inkscape:label="Layer 1" />
  <g
     id="g3326"
     transform="translate(375.0,532.3622047)"
     inkscape:transform-center-x="-0.836916180874"
     inkscape:transform-center-y="2.84217094304e-14"
     inkscape:label="Gear23"
     info="N:23; Pitch:72.0000010729; Pressure Angle: 20.0">
    <path
       id="path3328"
       d="M246.8092,-20.5820L250.3584,-20.4764L253.9340,-20.0316L257.5248,-19.3571L261.1259,-18.4899L264.7337,-17.4508L268.3449,-16.2530L271.9569,-14.9060L275.5671,-13.4168L279.1731,-11.7910L282.7725,-10.0328L286.3631,-8.1459L286.4499,-4.0734L286.4789,0.0000L286.4499,4.0734L286.3631,8.1459L282.7725,10.0328L279.1731,11.7910L275.5671,13.4168L271.9569,14.9060L268.3449,16.2530L264.7337,17.4508L261.1259,18.4899L257.5248,19.3571L253.9340,20.0316L250.3584,20.4764L246.8092,20.5820L239.8099,19.9983L239.1906,26.3923L238.4009,32.7675L237.4413,39.1193L236.3125,45.4432L243.2098,46.7696L246.5989,47.8288L249.9219,49.2217L253.1976,50.8401L256.4312,52.6467L259.6248,54.6206L262.7789,56.7483L265.8936,59.0199L268.9682,61.4278L272.0018,63.9663L274.9934,66.6303L277.9417,69.4160L276.9266,73.3609L275.8555,77.2911L274.7286,81.2056L273.5462,85.1037L269.5797,85.9519L265.6395,86.6737L261.7285,87.2664L257.8504,87.7263L254.0089,88.0489L250.2084,88.2280L246.4542,88.2552L242.7526,88.1186L239.1129,87.7994L235.5500,87.2630L232.1039,86.4071L225.5216,83.9567L223.2002,89.9464L220.7198,95.8721L218.0821,101.7295L215.2890,107.5144L221.5727,110.6524L224.5503,112.5868L227.3742,114.8246L230.0918,117.2667L232.7181,119.8787L235.2607,122.6411L237.7239,125.5408L240.1102,128.5685L242.4211,131.7167L244.6573,134.9794L246.8192,138.3518L248.9067,141.8296L246.8649,145.3544L244.7731,148.8498L242.6319,152.3152L240.4417,155.7497L236.3934,155.4963L232.4045,155.1283L228.4787,154.6439L224.6203,154.0404L220.8343,153.3146L217.1264,152.4617L213.5040,151.4750L209.9766,150.3448L206.5580,149.0554L203.2719,147.5777L200.1845,145.8238L194.5074,141.6883L190.6561,146.8297L186.6689,151.8664L182.5487,156.7950L178.2985,161.6118L183.5025,166.3288L185.8478,168.9947L187.9633,171.9114L189.9212,174.9962L191.7454,178.2199L193.4485,181.5658L195.0379,185.0226L196.5189,188.5818L197.8947,192.2367L199.1678,195.9818L200.3396,199.8124L201.4114,203.7244L198.4943,206.5676L195.5371,209.3691L192.5403,212.1282L189.5047,214.8445L185.6749,213.5083L181.9332,212.0777L178.2837,210.5521L174.7312,208.9300L171.2814,207.2096L167.9411,205.3880L164.7192,203.4606L161.6275,201.4206L158.6836,199.2567L155.9180,196.9472L153.4183,194.4254L149.0675,188.9116L143.9719,192.8232L138.7737,196.5975L133.4766,200.2316L128.0843,203.7231L131.8228,209.6692L133.3619,212.8691L134.6119,216.2484L135.6650,219.7470L136.5519,223.3433L137.2890,227.0246L137.8869,230.7820L138.3527,234.6088L138.6914,238.4994L138.9068,242.4491L139.0017,246.4538L138.9783,250.5099L135.4023,252.4606L131.7989,254.3604L128.1689,256.2087L124.5130,258.0052L121.1858,255.6853L117.9688,253.2983L114.8662,250.8446L111.8831,248.3242L109.0253,245.7369L106.3004,243.0816L103.7180,240.3564L101.2913,237.5580L99.0403,234.6801L97.0004,231.7100L95.2738,228.6073L92.5719,222.1242L86.6099,224.5160L80.5862,226.7478L74.5050,228.8181L68.3708,230.7252L70.3663,237.4595L70.9851,240.9559L71.2771,244.5471L71.3472,248.2001L71.2308,251.9024L70.9474,255.6460L70.5094,259.4254L69.9255,263.2360L69.2020,267.0737L68.3438,270.9350L67.3547,274.8168L66.2379,278.7162L62.2681,279.6298L58.2859,280.4869L54.2918,281.2873L50.2867,282.0309L47.7088,278.8993L45.2551,275.7329L42.9296,272.5331L40.7370,269.3014L38.6833,266.0390L36.7759,262.7470L35.0244,259.4261L33.4428,256.0768L32.0517,252.6983L30.8888,249.2880L30.0633,245.8345L29.2107,238.8628L22.8245,239.5574L16.4220,240.0813L10.0078,240.4341L3.5865,240.6155L3.6912,247.6384L3.3436,251.1721L2.6559,254.7090L1.7379,258.2454L0.6270,261.7790L-0.6560,265.3074L-2.0974,268.8285L-3.6878,272.3401L-5.4198,275.8403L-7.2880,279.3269L-9.2877,282.7980L-11.4152,286.2514L-15.4841,286.0601L-19.5500,285.8111L-23.6119,285.5042L-27.6691,285.1396L-29.3065,281.4287L-30.8149,277.7177L-32.1909,274.0091L-33.4302,270.3057L-34.5276,266.6102L-35.4762,262.9256L-36.2667,259.2554L-36.8861,255.6035L-37.3140,251.9750L-37.5138,248.3774L-37.3769,244.8293L-36.3169,237.8861L-42.6537,236.8319L-48.9601,235.6090L-55.2316,234.2182L-61.4638,232.6605L-63.2578,239.4512L-64.5458,242.7601L-66.1623,245.9802L-68.0004,249.1379L-70.0234,252.2407L-72.2107,255.2921L-74.5487,258.2937L-77.0275,261.2461L-79.6397,264.1492L-82.3792,267.0025L-85.2412,269.8053L-88.2215,272.5566L-92.0881,271.2747L-95.9359,269.9379L-99.7644,268.5465L-103.5728,267.1008L-104.1483,263.0857L-104.5996,259.1054L-104.9240,255.1631L-105.1182,251.2627L-105.1778,247.4081L-105.0971,243.6043L-104.8681,239.8569L-104.4792,236.1733L-103.9123,232.5639L-103.1341,229.0458L-102.0450,225.6662L-99.1511,219.2664L-104.9685,216.5417L-110.7111,213.6627L-116.3748,210.6314L-121.9556,207.4501L-125.5151,213.5050L-127.6481,216.3436L-130.0735,219.0083L-132.6953,221.5529L-135.4805,223.9948L-138.4099,226.3430L-141.4710,228.6025L-144.6544,230.7766L-147.9530,232.8673L-151.3608,234.8756L-154.8728,236.8024L-158.4850,238.6476L-161.8622,236.3700L-165.2067,234.0446L-168.5179,231.6719L-171.7949,229.2524L-171.2659,225.2309L-170.6265,221.2764L-169.8753,217.3928L-169.0099,213.5846L-168.0274,209.8569L-166.9235,206.2159L-165.6919,202.6692L-164.3237,199.2272L-162.8040,195.9045L-161.1054,192.7269L-159.1449,189.7665L-154.6317,184.3848L-159.4982,180.1916L-164.2511,175.8700L-168.8870,171.4231L-173.4025,166.8540L-178.4637,171.7240L-181.2834,173.8820L-184.3377,175.7934L-187.5489,177.5363L-190.8896,179.1363L-194.3439,180.6070L-197.9011,181.9569L-201.5530,183.1915L-205.2933,184.3147L-209.1166,185.3292L-213.0183,186.2369L-216.9943,187.0392L-219.6318,183.9349L-222.2249,180.7934L-224.7731,177.6153L-227.2759,174.4014L-225.6814,170.6718L-223.9989,167.0364L-222.2277,163.4995L-220.3670,160.0660L-218.4152,156.7416L-216.3699,153.5334L-214.2271,150.4506L-211.9809,147.5053L-209.6212,144.7159L-207.1283,142.1144L-204.4418,139.7926L-198.6439,135.8282L-202.1987,130.4775L-205.6094,125.0339L-208.8736,119.5011L-211.9890,113.8832L-218.1763,117.2071L-221.4737,118.5243L-224.9305,119.5408L-228.4928,120.3527L-232.1413,120.9920L-235.8643,121.4762L-239.6538,121.8163L-243.5034,122.0199L-247.4080,122.0923L-251.3632,122.0377L-255.3651,121.8591L-259.4101,121.5589L-261.1123,117.8581L-262.7617,114.1335L-264.3580,110.3858L-265.9008,106.6158L-263.3592,103.4547L-260.7583,100.4081L-258.0986,97.4802L-255.3805,94.6760L-252.6042,92.0015L-249.7691,89.4641L-246.8741,87.0737L-243.9166,84.8436L-240.8917,82.7943L-237.7894,80.9619L-234.5761,79.4510L-227.9237,77.1978L-229.9031,71.0865L-231.7186,64.9245L-233.3690,58.7163L-234.8532,52.4662L-241.7079,53.9975L-245.2384,54.3762L-248.8412,54.4224L-252.4904,54.2431L-256.1761,53.8744L-259.8917,53.3361L-263.6324,52.6412L-267.3942,51.7986L-271.1736,50.8149L-274.9673,49.6952L-278.7726,48.4436L-282.5867,47.0632L-283.2273,43.0404L-283.8106,39.0089L-284.3366,34.9695L-284.8051,30.9230L-281.5049,28.5648L-278.1784,26.3329L-274.8274,24.2312L-271.4536,22.2643L-268.0586,20.4380L-264.6441,18.7596L-261.2115,17.2389L-257.7620,15.8895L-254.2965,14.7323L-250.8148,13.8048L-247.3130,13.2169L-240.2994,12.8421L-240.5565,6.4233L-240.6423,0.0000L-240.5565,-6.4233L-240.2994,-12.8421L-247.3130,-13.2169L-250.8148,-13.8048L-254.2965,-14.7323L-257.7620,-15.8895L-261.2115,-17.2389L-264.6441,-18.7596L-268.0586,-20.4380L-271.4536,-22.2643L-274.8274,-24.2312L-278.1784,-26.3329L-281.5049,-28.5648L-284.8051,-30.9230L-284.3366,-34.9695L-283.8106,-39.0089L-283.2273,-43.0404L-282.5867,-47.0632L-278.7726,-48.4436L-274.9673,-49.6952L-271.1736,-50.8149L-267.3942,-51.7986L-263.6324,-52.6412L-259.8917,-53.3361L-256.1761,-53.8744L-252.4904,-54.2431L-248.8412,-54.4224L-245.2384,-54.3762L-241.7079,-53.9975L-234.8532,-52.4662L-233.3690,-58.7163L-231.7186,-64.9245L-229.9031,-71.0865L-227.9237,-77.1978L-234.5761,-79.4510L-237.7894,-80.9619L-240.8917,-82.7943L-243.9166,-84.8436L-246.8741,-87.0737L-249.7691,-89.4641L-252.6042,-92.0015L-255.3805,-94.6760L-258.0986,-97.4802L-260.7583,-100.4081L-263.3592,-103.4547L-265.9008,-106.6158L-264.3580,-110.3858L-262.7617,-114.1335L-261.1123,-117.8581L-259.4101,-121.5589L-255.3651,-121.8591L-251.3632,-122.0377L-247.4080,-122.0923L-243.5034,-122.0199L-239.6538,-121.8163L-235.8643,-121.4762L-232.1413,-120.9920L-228.4928,-120.3527L-224.9305,-119.5408L-221.4737,-118.5243L-218.1763,-117.2071L-211.9890,-113.8832L-208.8736,-119.5011L-205.6094,-125.0339L-202.1987,-130.4775L-198.6439,-135.8282L-204.4418,-139.7926L-207.1283,-142.1144L-209.6212,-144.7159L-211.9809,-147.5053L-214.2271,-150.4506L-216.3699,-153.5334L-218.4152,-156.7416L-220.3670,-160.0660L-222.2277,-163.4995L-223.9989,-167.0364L-225.6814,-170.6718L-227.2759,-174.4014L-224.7731,-177.6153L-222.2249,-180.7934L-219.6318,-183.9349L-216.9943,-187.0392L-213.0183,-186.2369L-209.1166,-185.3292L-205.2933,-184.3147L-201.5530,-183.1915L-197.9011,-181.9569L-194.3439,-180.6070L-190.8896,-179.1363L-187.5489,-177.5363L-184.3377,-175.7934L-181.2834,-173.8820L-178.4637,-171.7240L-173.4025,-166.8540L-168.8870,-171.4231L-164.2511,-175.8700L-159.4982,-180.1916L-154.6317,-184.3848L-159.1449,-189.7665L-161.1054,-192.7269L-162.8040,-195.9045L-164.3237,-199.2272L-165.6919,-202.6692L-166.9235,-206.2159L-168.0274,-209.8569L-169.0099,-213.5846L-169.8753,-217.3928L-170.6265,-221.2764L-171.2659,-225.2309L-171.7949,-229.2524L-168.5179,-231.6719L-165.2067,-234.0446L-161.8622,-236.3700L-158.4850,-238.6476L-154.8728,-236.8024L-151.3608,-234.8756L-147.9530,-232.8673L-144.6544,-230.7766L-141.4710,-228.6025L-138.4099,-226.3430L-135.4805,-223.9948L-132.6953,-221.5529L-130.0735,-219.0083L-127.6481,-216.3436L-125.5151,-213.5050L-121.9556,-207.4501L-116.3748,-210.6314L-110.7111,-213.6627L-104.9685,-216.5417L-99.1511,-219.2664L-102.0450,-225.6662L-103.1341,-229.0458L-103.9123,-232.5639L-104.4792,-236.1733L-104.8681,-239.8569L-105.0971,-243.6043L-105.1778,-247.4081L-105.1182,-251.2627L-104.9240,-255.1631L-104.5996,-259.1054L-104.1483,-263.0857L-103.5728,-267.1008L-99.7644,-268.5465L-95.9359,-269.9379L-92.0881,-271.2747L-88.2215,-272.5566L-85.2412,-269.8053L-82.3792,-267.0025L-79.6397,-264.1492L-77.0275,-261.2461L-74.5487,-258.2937L-72.2107,-255.2921L-70.0234,-252.2407L-68.0004,-249.1379L-66.1623,-245.9802L-64.5458,-242.7601L-63.2578,-239.4512L-61.4638,-232.6605L-55.2316,-234.2182L-48.9601,-235.6090L-42.6537,-236.8319L-36.3169,-237.8861L-37.3769,-244.8293L-37.5138,-248.3774L-37.3140,-251.9750L-36.8861,-255.6035L-36.2667,-259.2554L-35.4762,-262.9256L-34.5276,-266.6102L-33.4302,-270.3057L-32.1909,-274.0091L-30.8149,-277.7177L-29.3065,-281.4287L-27.6691,-285.1396L-23.6119,-285.5042L-19.5500,-285.8111L-15.4841,-286.0601L-11.4152,-286.2514L-9.2877,-282.7980L-7.2880,-279.3269L-5.4198,-275.8403L-3.6878,-272.3401L-2.0974,-268.8285L-0.6560,-265.3074L0.6270,-261.7790L1.7379,-258.2454L2.6559,-254.7090L3.3436,-251.1721L3.6912,-247.6384L3.5865,-240.6155L10.0078,-240.4341L16.4220,-240.0813L22.8245,-239.5574L29.2107,-238.8628L30.0633,-245.8345L30.8888,-249.2880L32.0517,-252.6983L33.4428,-256.0768L35.0244,-259.4261L36.7759,-262.7470L38.6833,-266.0390L40.7370,-269.3014L42.9296,-272.5331L45.2551,-275.7329L47.7088,-278.8993L50.2867,-282.0309L54.2918,-281.2873L58.2859,-280.4869L62.2681,-279.6298L66.2379,-278.7162L67.3547,-274.8168L68.3438,-270.9350L69.2020,-267.0737L69.9255,-263.2360L70.5094,-259.4254L70.9474,-255.6460L71.2308,-251.9024L71.3472,-248.2001L71.2771,-244.5471L70.9851,-240.9559L70.3663,-237.4595L68.3708,-230.7252L74.5050,-228.8181L80.5862,-226.7478L86.6099,-224.5160L92.5719,-222.1242L95.2738,-228.6073L97.0004,-231.7100L99.0403,-234.6801L101.2913,-237.5580L103.7180,-240.3564L106.3004,-243.0816L109.0253,-245.7369L111.8831,-248.3242L114.8662,-250.8446L117.9688,-253.2983L121.1858,-255.6853L124.5130,-258.0052L128.1689,-256.2087L131.7989,-254.3604L135.4023,-252.4606L138.9783,-250.5099L139.0017,-246.4538L138.9068,-242.4491L138.6914,-238.4994L138.3527,-234.6088L137.8869,-230.7820L137.2890,-227.0246L136.5519,-223.3433L135.6650,-219.7470L134.6119,-216.2484L133.3619,-212.8691L131.8228,-209.6692L128.0843,-203.7231L133.4766,-200.2316L138.7737,-196.5975L143.9719,-192.8232L149.0675,-188.9116L153.4183,-194.4254L155.9180,-196.9472L158.6836,-199.2567L161.6275,-201.4206L164.7192,-203.4606L167.9411,-205.3880L171.2814,-207.2096L174.7312,-208.9300L178.2837,-210.5521L181.9332,-212.0777L185.6749,-213.5083L189.5047,-214.8445L192.5403,-212.1282L195.5371,-209.3691L198.4943,-206.5676L201.4114,-203.7244L200.3396,-199.8124L199.1678,-195.9818L197.8947,-192.2367L196.5189,-188.5818L195.0379,-185.0226L193.4485,-181.5658L191.7454,-178.2199L189.9212,-174.9962L187.9633,-171.9114L185.8478,-168.9947L183.5025,-166.3288L178.2985,-161.6118L182.5487,-156.7950L186.6689,-151.8664L190.6561,-146.8297L194.5074,-141.6883L200.1845,-145.8238L203.2719,-147.5777L206.5580,-149.0554L209.9766,-150.3448L213.5040,-151.4750L217.1264,-152.4617L220.8343,-153.3146L224.6203,-154.0404L228.4787,-154.6439L232.4045,-155.1283L236.3934,-155.4963L240.4417,-155.7497L242.6319,-152.3152L244.7731,-148.8498L246.8649,-145.3544L248.9067,-141.8296L246.8192,-138.3518L244.6573,-134.9794L242.4211,-131.7167L240.1102,-128.5685L237.7239,-125.5408L235.2607,-122.6411L232.7181,-119.8787L230.0918,-117.2667L227.3742,-114.8246L224.5503,-112.5868L221.5727,-110.6524L215.2890,-107.5144L218.0821,-101.7295L220.7198,-95.8721L223.2002,-89.9464L225.5216,-83.9567L232.1039,-86.4071L235.5500,-87.2630L239.1129,-87.7994L242.7526,-88.1186L246.4542,-88.2552L250.2084,-88.2280L254.0089,-88.0489L257.8504,-87.7263L261.7285,-87.2664L265.6395,-86.6737L269.5797,-85.9519L273.5462,-85.1037L274.7286,-81.2056L275.8555,-77.2911L276.9266,-73.3609L277.9417,-69.4160L274.9934,-66.6303L272.0018,-63.9663L268.9682,-61.4278L265.8936,-59.0199L262.7789,-56.7483L259.6248,-54.6206L256.4312,-52.6467L253.1976,-50.8401L249.9219,-49.2217L246.5989,-47.8288L243.2098,-46.7696L236.3125,-45.4432L237.4413,-39.1193L238.4009,-32.7675L239.1906,-26.3923L239.8099,-19.9983zM 0.000000,45.000000A  45.000000,45.000000 0 0 0 0.000000,-45.000000A  45.000000,45.000000 0 0 0 0.000000,45.000000"
       style="stroke:#000000;stroke-width:0.6;fill:none" />
    <circle
       d="M 263.56058,0 C 263.56058,145.56049 145.56049,263.56058 0,263.56058 -145.56049,263.56058 -263.56058,145.56049 -263.56058,0 c 0,-145.56049 118.00009,-263.56058 263.56058,-263.56058 145.56049,0 263.56058,118.00009 263.56058,263.56058 z"
       id="circle3330"
       cy="0"
       r="263.560589688"
       cx="0"
       style="stroke:#000000;stroke-width:0.15;fill:none"
       inkscape:label="Pitch circle" />
  </g>
</svg>
