  0
SECTION
  2
HEADER
  9
$ACADVER
  1
AC1014
  9
$HANDSEED
  5
FFFF
  9
$MEASUREMENT
 70
     1
  0
ENDSEC
  0
SECTION
  2
TABLES
  0
TABLE
  2
VPORT
  5
8
330
0
100
AcDbSymbolTable
 70
     4
  0
VPORT
  5
2E
330
8
100
AcDbSymbolTableRecord
100
AcDbViewportTableRecord
  2
*ACTIVE
 70
     0
 10
0.0
 20
0.0
 11
1.0
 21
1.0
 12
210.0
 22
148.5
 13
0.0
 23
0.0
 14
10.0
 24
10.0
 15
10.0
 25
10.0
 16
0.0
 26
0.0
 36
1.0
 17
0.0
 27
0.0
 37
0.0
 40
341.0
 41
1.24
 42
50.0
 43
0.0
 44
0.0
 50
0.0
 51
0.0
 71
     0
 72
   100
 73
     1
 74
     3
 75
     0
 76
     0
 77
     0
 78
     0
  0
ENDTAB
  0
TABLE
  2
LTYPE
  5
5
330
0
100
AcDbSymbolTable
 70
     1
  0
LTYPE
  5
14
330
5
100
AcDbSymbolTableRecord
100
AcDbLinetypeTableRecord
  2
BYBLOCK
 70
     0
  3

 72
    65
 73
     0
 40
0.0
  0
LTYPE
  5
15
330
5
100
AcDbSymbolTableRecord
100
AcDbLinetypeTableRecord
  2
BYLAYER
 70
     0
  3

 72
    65
 73
     0
 40
0.0
  0
LTYPE
  5
16
330
5
100
AcDbSymbolTableRecord
100
AcDbLinetypeTableRecord
  2
CONTINUOUS
 70
     0
  3
Solid line
 72
    65
 73
     0
 40
0.0
  0
ENDTAB
  0
TABLE
  2
LAYER
  5
2
100
AcDbSymbolTable
 70
2
  0
LAYER
  5
50
100
AcDbSymbolTableRecord
100
AcDbLayerTableRecord
  2
0
 70
0
  6
CONTINUOUS
  0
LAYER
  5
51
100
AcDbSymbolTableRecord
100
AcDbLayerTableRecord
  2
Layer_1
 70
0
  6
CONTINUOUS
  0
ENDTAB
  0
TABLE
  2
STYLE
  5
3
330
0
100
AcDbSymbolTable
 70
     1
  0
STYLE
  5
11
330
3
100
AcDbSymbolTableRecord
100
AcDbTextStyleTableRecord
  2
STANDARD
 70
     0
 40
0.0
 41
1.0
 50
0.0
 71
     0
 42
2.5
  3
txt
  4

  0
ENDTAB
  0
TABLE
  2
VIEW
  5
6
330
0
100
AcDbSymbolTable
 70
     0
  0
ENDTAB
  0
TABLE
  2
UCS
  5
7
330
0
100
AcDbSymbolTable
 70
     0
  0
ENDTAB
  0
TABLE
  2
APPID
  5
9
330
0
100
AcDbSymbolTable
 70
     2
  0
APPID
  5
12
330
9
100
AcDbSymbolTableRecord
100
AcDbRegAppTableRecord
  2
ACAD
 70
     0
  0
ENDTAB
  0
TABLE
  2
DIMSTYLE
  5
A
330
0
100
AcDbSymbolTable
 70
     1
  0
DIMSTYLE
105
27
330
A
100
AcDbSymbolTableRecord
100
AcDbDimStyleTableRecord
  2
ISO-25
 70
     0
  3

  4

  5

  6

  7

 40
1.0
 41
2.5
 42
0.625
 43
3.75
 44
1.25
 45
0.0
 46
0.0
 47
0.0
 48
0.0
140
2.5
141
2.5
142
0.0
143
0.03937007874016
144
1.0
145
0.0
146
1.0
147
0.625
 71
     0
 72
     0
 73
     0
 74
     0
 75
     0
 76
     0
 77
     1
 78
     8
170
     0
171
     3
172
     1
173
     0
174
     0
175
     0
176
     0
177
     0
178
     0
270
     2
271
     2
272
     2
273
     2
274
     3
340
11
275
     0
280
     0
281
     0
282
     0
283
     0
284
     8
285
     0
286
     0
287
     3
288
     0
  0
ENDTAB
  0
TABLE
  2
BLOCK_RECORD
  5
1
330
0
100
AcDbSymbolTable
 70
     1
  0
BLOCK_RECORD
  5
1F
330
1
100
AcDbSymbolTableRecord
100
AcDbBlockTableRecord
  2
*MODEL_SPACE
  0
BLOCK_RECORD
  5
1B
330
1
100
AcDbSymbolTableRecord
100
AcDbBlockTableRecord
  2
*PAPER_SPACE
  0
ENDTAB
  0
ENDSEC
  0
SECTION
  2
BLOCKS
  0
BLOCK
  5
20
330
1F
100
AcDbEntity
  8
0
100
AcDbBlockBegin
  2
*MODEL_SPACE
 70
     0
 10
0.0
 20
0.0
 30
0.0
  3
*MODEL_SPACE
  1

  0
ENDBLK
  5
21
330
1F
100
AcDbEntity
  8
0
100
AcDbBlockEnd
  0
BLOCK
  5
1C
330
1B
100
AcDbEntity
 67
     1
  8
0
100
AcDbBlockBegin
  2
*PAPER_SPACE
  1

  0
ENDBLK
  5
1D
330
1B
100
AcDbEntity
 67
     1
  8
0
100
AcDbBlockEnd
  0
ENDSEC
  0
SECTION
  2
ENTITIES
  0
LINE
  5
100
100
AcDbEntity
  8
Layer_1
 62
7
100
AcDbLine
 10
117.073257
 20
147.660672
 30
0.0
 11
117.230850
 21
147.655761
 31
0.0
  0
LINE
  5
101
100
AcDbEntity
  8
Layer_1
 62
7
100
AcDbLine
 10
117.230850
 20
147.655761
 30
0.0
 11
117.389543
 21
147.635977
 31
0.0
  0
LINE
  5
102
100
AcDbEntity
  8
Layer_1
 62
7
100
AcDbLine
 10
117.389543
 20
147.635977
 30
0.0
 11
117.548914
 21
147.606146
 31
0.0
  0
LINE
  5
103
100
AcDbEntity
  8
Layer_1
 62
7
100
AcDbLine
 10
117.548914
 20
147.606146
 30
0.0
 11
117.708680
 21
147.567877
 31
0.0
  0
LINE
  5
104
100
AcDbEntity
  8
Layer_1
 62
7
100
AcDbLine
 10
117.708680
 20
147.567877
 30
0.0
 11
117.868756
 21
147.522072
 31
0.0
  0
LINE
  5
105
100
AcDbEntity
  8
Layer_1
 62
7
100
AcDbLine
 10
117.868756
 20
147.522072
 30
0.0
 11
118.028974
 21
147.469353
 31
0.0
  0
LINE
  5
106
100
AcDbEntity
  8
Layer_1
 62
7
100
AcDbLine
 10
118.028974
 20
147.469353
 30
0.0
 11
118.189220
 21
147.410115
 31
0.0
  0
LINE
  5
107
100
AcDbEntity
  8
Layer_1
 62
7
100
AcDbLine
 10
118.189220
 20
147.410115
 30
0.0
 11
118.349381
 21
147.344668
 31
0.0
  0
LINE
  5
108
100
AcDbEntity
  8
Layer_1
 62
7
100
AcDbLine
 10
118.349381
 20
147.344668
 30
0.0
 11
118.509373
 21
147.273265
 31
0.0
  0
LINE
  5
109
100
AcDbEntity
  8
Layer_1
 62
7
100
AcDbLine
 10
118.509373
 20
147.273265
 30
0.0
 11
118.669082
 21
147.196078
 31
0.0
  0
LINE
  5
10a
100
AcDbEntity
  8
Layer_1
 62
7
100
AcDbLine
 10
118.669082
 20
147.196078
 30
0.0
 11
118.828397
 21
147.113274
 31
0.0
  0
LINE
  5
10b
100
AcDbEntity
  8
Layer_1
 62
7
100
AcDbLine
 10
118.828397
 20
147.113274
 30
0.0
 11
118.832094
 21
146.934429
 31
0.0
  0
LINE
  5
10c
100
AcDbEntity
  8
Layer_1
 62
7
100
AcDbLine
 10
118.832094
 20
146.934429
 30
0.0
 11
118.833223
 21
146.755557
 31
0.0
  0
LINE
  5
10d
100
AcDbEntity
  8
Layer_1
 62
7
100
AcDbLine
 10
118.833223
 20
146.755557
 30
0.0
 11
118.832094
 21
146.576684
 31
0.0
  0
LINE
  5
10e
100
AcDbEntity
  8
Layer_1
 62
7
100
AcDbLine
 10
118.832094
 20
146.576684
 30
0.0
 11
118.828397
 21
146.397840
 31
0.0
  0
LINE
  5
10f
100
AcDbEntity
  8
Layer_1
 62
7
100
AcDbLine
 10
118.828397
 20
146.397840
 30
0.0
 11
118.669082
 21
146.315036
 31
0.0
  0
LINE
  5
110
100
AcDbEntity
  8
Layer_1
 62
7
100
AcDbLine
 10
118.669082
 20
146.315036
 30
0.0
 11
118.509373
 21
146.237848
 31
0.0
  0
LINE
  5
111
100
AcDbEntity
  8
Layer_1
 62
7
100
AcDbLine
 10
118.509373
 20
146.237848
 30
0.0
 11
118.349381
 21
146.166446
 31
0.0
  0
LINE
  5
112
100
AcDbEntity
  8
Layer_1
 62
7
100
AcDbLine
 10
118.349381
 20
146.166446
 30
0.0
 11
118.189220
 21
146.100999
 31
0.0
  0
LINE
  5
113
100
AcDbEntity
  8
Layer_1
 62
7
100
AcDbLine
 10
118.189220
 20
146.100999
 30
0.0
 11
118.028974
 21
146.041760
 31
0.0
  0
LINE
  5
114
100
AcDbEntity
  8
Layer_1
 62
7
100
AcDbLine
 10
118.028974
 20
146.041760
 30
0.0
 11
117.868756
 21
145.989041
 31
0.0
  0
LINE
  5
115
100
AcDbEntity
  8
Layer_1
 62
7
100
AcDbLine
 10
117.868756
 20
145.989041
 30
0.0
 11
117.708680
 21
145.943237
 31
0.0
  0
LINE
  5
116
100
AcDbEntity
  8
Layer_1
 62
7
100
AcDbLine
 10
117.708680
 20
145.943237
 30
0.0
 11
117.548914
 21
145.904967
 31
0.0
  0
LINE
  5
117
100
AcDbEntity
  8
Layer_1
 62
7
100
AcDbLine
 10
117.548914
 20
145.904967
 30
0.0
 11
117.389543
 21
145.875136
 31
0.0
  0
LINE
  5
118
100
AcDbEntity
  8
Layer_1
 62
7
100
AcDbLine
 10
117.389543
 20
145.875136
 30
0.0
 11
117.230850
 21
145.855353
 31
0.0
  0
LINE
  5
119
100
AcDbEntity
  8
Layer_1
 62
7
100
AcDbLine
 10
117.230850
 20
145.855353
 30
0.0
 11
117.073257
 21
145.850442
 31
0.0
  0
LINE
  5
11a
100
AcDbEntity
  8
Layer_1
 62
7
100
AcDbLine
 10
117.073257
 20
145.850442
 30
0.0
 11
116.797836
 21
145.872625
 31
0.0
  0
LINE
  5
11b
100
AcDbEntity
  8
Layer_1
 62
7
100
AcDbLine
 10
116.797836
 20
145.872625
 30
0.0
 11
116.772013
 21
145.595821
 31
0.0
  0
LINE
  5
11c
100
AcDbEntity
  8
Layer_1
 62
7
100
AcDbLine
 10
116.772013
 20
145.595821
 30
0.0
 11
116.739218
 21
145.319780
 31
0.0
  0
LINE
  5
11d
100
AcDbEntity
  8
Layer_1
 62
7
100
AcDbLine
 10
116.739218
 20
145.319780
 30
0.0
 11
116.699453
 21
145.044641
 31
0.0
  0
LINE
  5
11e
100
AcDbEntity
  8
Layer_1
 62
7
100
AcDbLine
 10
116.699453
 20
145.044641
 30
0.0
 11
116.652746
 21
144.770603
 31
0.0
  0
LINE
  5
11f
100
AcDbEntity
  8
Layer_1
 62
7
100
AcDbLine
 10
116.652746
 20
144.770603
 30
0.0
 11
116.924526
 21
144.720735
 31
0.0
  0
LINE
  5
120
100
AcDbEntity
  8
Layer_1
 62
7
100
AcDbLine
 10
116.924526
 20
144.720735
 30
0.0
 11
117.075486
 21
144.675212
 31
0.0
  0
LINE
  5
121
100
AcDbEntity
  8
Layer_1
 62
7
100
AcDbLine
 10
117.075486
 20
144.675212
 30
0.0
 11
117.223653
 21
144.615014
 31
0.0
  0
LINE
  5
122
100
AcDbEntity
  8
Layer_1
 62
7
100
AcDbLine
 10
117.223653
 20
144.615014
 30
0.0
 11
117.369844
 21
144.544938
 31
0.0
  0
LINE
  5
123
100
AcDbEntity
  8
Layer_1
 62
7
100
AcDbLine
 10
117.369844
 20
144.544938
 30
0.0
 11
117.514285
 21
144.466622
 31
0.0
  0
LINE
  5
124
100
AcDbEntity
  8
Layer_1
 62
7
100
AcDbLine
 10
117.514285
 20
144.466622
 30
0.0
 11
117.657033
 21
144.380967
 31
0.0
  0
LINE
  5
125
100
AcDbEntity
  8
Layer_1
 62
7
100
AcDbLine
 10
117.657033
 20
144.380967
 30
0.0
 11
117.798144
 21
144.288568
 31
0.0
  0
LINE
  5
126
100
AcDbEntity
  8
Layer_1
 62
7
100
AcDbLine
 10
117.798144
 20
144.288568
 30
0.0
 11
117.937619
 21
144.189875
 31
0.0
  0
LINE
  5
127
100
AcDbEntity
  8
Layer_1
 62
7
100
AcDbLine
 10
117.937619
 20
144.189875
 30
0.0
 11
118.075371
 21
144.085198
 31
0.0
  0
LINE
  5
128
100
AcDbEntity
  8
Layer_1
 62
7
100
AcDbLine
 10
118.075371
 20
144.085198
 30
0.0
 11
118.211431
 21
143.974821
 31
0.0
  0
LINE
  5
129
100
AcDbEntity
  8
Layer_1
 62
7
100
AcDbLine
 10
118.211431
 20
143.974821
 30
0.0
 11
118.345712
 21
143.858941
 31
0.0
  0
LINE
  5
12a
100
AcDbEntity
  8
Layer_1
 62
7
100
AcDbLine
 10
118.345712
 20
143.858941
 30
0.0
 11
118.478215
 21
143.737726
 31
0.0
  0
LINE
  5
12b
100
AcDbEntity
  8
Layer_1
 62
7
100
AcDbLine
 10
118.478215
 20
143.737726
 30
0.0
 11
118.435487
 21
143.564019
 31
0.0
  0
LINE
  5
12c
100
AcDbEntity
  8
Layer_1
 62
7
100
AcDbLine
 10
118.435487
 20
143.564019
 30
0.0
 11
118.390360
 21
143.390904
 31
0.0
  0
LINE
  5
12d
100
AcDbEntity
  8
Layer_1
 62
7
100
AcDbLine
 10
118.390360
 20
143.390904
 30
0.0
 11
118.342890
 21
143.218438
 31
0.0
  0
LINE
  5
12e
100
AcDbEntity
  8
Layer_1
 62
7
100
AcDbLine
 10
118.342890
 20
143.218438
 30
0.0
 11
118.293021
 21
143.046649
 31
0.0
  0
LINE
  5
12f
100
AcDbEntity
  8
Layer_1
 62
7
100
AcDbLine
 10
118.293021
 20
143.046649
 30
0.0
 11
118.117705
 21
143.007928
 31
0.0
  0
LINE
  5
130
100
AcDbEntity
  8
Layer_1
 62
7
100
AcDbLine
 10
118.117705
 20
143.007928
 30
0.0
 11
117.943461
 21
142.974710
 31
0.0
  0
LINE
  5
131
100
AcDbEntity
  8
Layer_1
 62
7
100
AcDbLine
 10
117.943461
 20
142.974710
 30
0.0
 11
117.770430
 21
142.947137
 31
0.0
  0
LINE
  5
132
100
AcDbEntity
  8
Layer_1
 62
7
100
AcDbLine
 10
117.770430
 20
142.947137
 30
0.0
 11
117.598783
 21
142.925378
 31
0.0
  0
LINE
  5
133
100
AcDbEntity
  8
Layer_1
 62
7
100
AcDbLine
 10
117.598783
 20
142.925378
 30
0.0
 11
117.428659
 21
142.909630
 31
0.0
  0
LINE
  5
134
100
AcDbEntity
  8
Layer_1
 62
7
100
AcDbLine
 10
117.428659
 20
142.909630
 30
0.0
 11
117.260257
 21
142.900176
 31
0.0
  0
LINE
  5
135
100
AcDbEntity
  8
Layer_1
 62
7
100
AcDbLine
 10
117.260257
 20
142.900176
 30
0.0
 11
117.093802
 21
142.897353
 31
0.0
  0
LINE
  5
136
100
AcDbEntity
  8
Layer_1
 62
7
100
AcDbLine
 10
117.093802
 20
142.897353
 30
0.0
 11
116.929549
 21
142.901756
 31
0.0
  0
LINE
  5
137
100
AcDbEntity
  8
Layer_1
 62
7
100
AcDbLine
 10
116.929549
 20
142.901756
 30
0.0
 11
116.767920
 21
142.914174
 31
0.0
  0
LINE
  5
138
100
AcDbEntity
  8
Layer_1
 62
7
100
AcDbLine
 10
116.767920
 20
142.914174
 30
0.0
 11
116.609509
 21
142.936131
 31
0.0
  0
LINE
  5
139
100
AcDbEntity
  8
Layer_1
 62
7
100
AcDbLine
 10
116.609509
 20
142.936131
 30
0.0
 11
116.456008
 21
142.972170
 31
0.0
  0
LINE
  5
13a
100
AcDbEntity
  8
Layer_1
 62
7
100
AcDbLine
 10
116.456008
 20
142.972170
 30
0.0
 11
116.195715
 21
143.064880
 31
0.0
  0
LINE
  5
13b
100
AcDbEntity
  8
Layer_1
 62
7
100
AcDbLine
 10
116.195715
 20
143.064880
 30
0.0
 11
116.099138
 21
142.804192
 31
0.0
  0
LINE
  5
13c
100
AcDbEntity
  8
Layer_1
 62
7
100
AcDbLine
 10
116.099138
 20
142.804192
 30
0.0
 11
115.996014
 21
142.546043
 31
0.0
  0
LINE
  5
13d
100
AcDbEntity
  8
Layer_1
 62
7
100
AcDbLine
 10
115.996014
 20
142.546043
 30
0.0
 11
115.886399
 21
142.290576
 31
0.0
  0
LINE
  5
13e
100
AcDbEntity
  8
Layer_1
 62
7
100
AcDbLine
 10
115.886399
 20
142.290576
 30
0.0
 11
115.770350
 21
142.037958
 31
0.0
  0
LINE
  5
13f
100
AcDbEntity
  8
Layer_1
 62
7
100
AcDbLine
 10
115.770350
 20
142.037958
 30
0.0
 11
116.019947
 21
141.919453
 31
0.0
  0
LINE
  5
140
100
AcDbEntity
  8
Layer_1
 62
7
100
AcDbLine
 10
116.019947
 20
141.919453
 30
0.0
 11
116.153974
 21
141.836395
 31
0.0
  0
LINE
  5
141
100
AcDbEntity
  8
Layer_1
 62
7
100
AcDbLine
 10
116.153974
 20
141.836395
 30
0.0
 11
116.281539
 21
141.739932
 31
0.0
  0
LINE
  5
142
100
AcDbEntity
  8
Layer_1
 62
7
100
AcDbLine
 10
116.281539
 20
141.739932
 30
0.0
 11
116.404616
 21
141.634409
 31
0.0
  0
LINE
  5
143
100
AcDbEntity
  8
Layer_1
 62
7
100
AcDbLine
 10
116.404616
 20
141.634409
 30
0.0
 11
116.523855
 21
141.521351
 31
0.0
  0
LINE
  5
144
100
AcDbEntity
  8
Layer_1
 62
7
100
AcDbLine
 10
116.523855
 20
141.521351
 30
0.0
 11
116.639566
 21
141.401660
 31
0.0
  0
LINE
  5
145
100
AcDbEntity
  8
Layer_1
 62
7
100
AcDbLine
 10
116.639566
 20
141.401660
 30
0.0
 11
116.751947
 21
141.275902
 31
0.0
  0
LINE
  5
146
100
AcDbEntity
  8
Layer_1
 62
7
100
AcDbLine
 10
116.751947
 20
141.275902
 30
0.0
 11
116.861110
 21
141.144471
 31
0.0
  0
LINE
  5
147
100
AcDbEntity
  8
Layer_1
 62
7
100
AcDbLine
 10
116.861110
 20
141.144471
 30
0.0
 11
116.967113
 21
141.007706
 31
0.0
  0
LINE
  5
148
100
AcDbEntity
  8
Layer_1
 62
7
100
AcDbLine
 10
116.967113
 20
141.007706
 30
0.0
 11
117.069955
 21
140.865890
 31
0.0
  0
LINE
  5
149
100
AcDbEntity
  8
Layer_1
 62
7
100
AcDbLine
 10
117.069955
 20
140.865890
 30
0.0
 11
117.169664
 21
140.719190
 31
0.0
  0
LINE
  5
14a
100
AcDbEntity
  8
Layer_1
 62
7
100
AcDbLine
 10
117.169664
 20
140.719190
 30
0.0
 11
117.266268
 21
140.567835
 31
0.0
  0
LINE
  5
14b
100
AcDbEntity
  8
Layer_1
 62
7
100
AcDbLine
 10
117.266268
 20
140.567835
 30
0.0
 11
117.180050
 21
140.411088
 31
0.0
  0
LINE
  5
14c
100
AcDbEntity
  8
Layer_1
 62
7
100
AcDbLine
 10
117.180050
 20
140.411088
 30
0.0
 11
117.091658
 21
140.255556
 31
0.0
  0
LINE
  5
14d
100
AcDbEntity
  8
Layer_1
 62
7
100
AcDbLine
 10
117.091658
 20
140.255556
 30
0.0
 11
117.001149
 21
140.101265
 31
0.0
  0
LINE
  5
14e
100
AcDbEntity
  8
Layer_1
 62
7
100
AcDbLine
 10
117.001149
 20
140.101265
 30
0.0
 11
116.908524
 21
139.948216
 31
0.0
  0
LINE
  5
14f
100
AcDbEntity
  8
Layer_1
 62
7
100
AcDbLine
 10
116.908524
 20
139.948216
 30
0.0
 11
116.729143
 21
139.956174
 31
0.0
  0
LINE
  5
150
100
AcDbEntity
  8
Layer_1
 62
7
100
AcDbLine
 10
116.729143
 20
139.956174
 30
0.0
 11
116.552246
 21
139.969213
 31
0.0
  0
LINE
  5
151
100
AcDbEntity
  8
Layer_1
 62
7
100
AcDbLine
 10
116.552246
 20
139.969213
 30
0.0
 11
116.378002
 21
139.987360
 31
0.0
  0
LINE
  5
152
100
AcDbEntity
  8
Layer_1
 62
7
100
AcDbLine
 10
116.378002
 20
139.987360
 30
0.0
 11
116.206552
 21
140.010756
 31
0.0
  0
LINE
  5
153
100
AcDbEntity
  8
Layer_1
 62
7
100
AcDbLine
 10
116.206552
 20
140.010756
 30
0.0
 11
116.038178
 21
140.039571
 31
0.0
  0
LINE
  5
154
100
AcDbEntity
  8
Layer_1
 62
7
100
AcDbLine
 10
116.038178
 20
140.039571
 30
0.0
 11
115.873050
 21
140.074030
 31
0.0
  0
LINE
  5
155
100
AcDbEntity
  8
Layer_1
 62
7
100
AcDbLine
 10
115.873050
 20
140.074030
 30
0.0
 11
115.711534
 21
140.114388
 31
0.0
  0
LINE
  5
156
100
AcDbEntity
  8
Layer_1
 62
7
100
AcDbLine
 10
115.711534
 20
140.114388
 30
0.0
 11
115.554026
 21
140.161152
 31
0.0
  0
LINE
  5
157
100
AcDbEntity
  8
Layer_1
 62
7
100
AcDbLine
 10
115.554026
 20
140.161152
 30
0.0
 11
115.401090
 21
140.214972
 31
0.0
  0
LINE
  5
158
100
AcDbEntity
  8
Layer_1
 62
7
100
AcDbLine
 10
115.401090
 20
140.214972
 30
0.0
 11
115.253770
 21
140.277202
 31
0.0
  0
LINE
  5
159
100
AcDbEntity
  8
Layer_1
 62
7
100
AcDbLine
 10
115.253770
 20
140.277202
 30
0.0
 11
115.114832
 21
140.351737
 31
0.0
  0
LINE
  5
15a
100
AcDbEntity
  8
Layer_1
 62
7
100
AcDbLine
 10
115.114832
 20
140.351737
 30
0.0
 11
114.887389
 21
140.508653
 31
0.0
  0
LINE
  5
15b
100
AcDbEntity
  8
Layer_1
 62
7
100
AcDbLine
 10
114.887389
 20
140.508653
 30
0.0
 11
114.726664
 21
140.281859
 31
0.0
  0
LINE
  5
15c
100
AcDbEntity
  8
Layer_1
 62
7
100
AcDbLine
 10
114.726664
 20
140.281859
 30
0.0
 11
114.560209
 21
140.059186
 31
0.0
  0
LINE
  5
15d
100
AcDbEntity
  8
Layer_1
 62
7
100
AcDbLine
 10
114.560209
 20
140.059186
 30
0.0
 11
114.388223
 21
139.840802
 31
0.0
  0
LINE
  5
15e
100
AcDbEntity
  8
Layer_1
 62
7
100
AcDbLine
 10
114.388223
 20
139.840802
 30
0.0
 11
114.210761
 21
139.626821
 31
0.0
  0
LINE
  5
15f
100
AcDbEntity
  8
Layer_1
 62
7
100
AcDbLine
 10
114.210761
 20
139.626821
 30
0.0
 11
114.421186
 21
139.447751
 31
0.0
  0
LINE
  5
160
100
AcDbEntity
  8
Layer_1
 62
7
100
AcDbLine
 10
114.421186
 20
139.447751
 30
0.0
 11
114.529136
 21
139.332830
 31
0.0
  0
LINE
  5
161
100
AcDbEntity
  8
Layer_1
 62
7
100
AcDbLine
 10
114.529136
 20
139.332830
 30
0.0
 11
114.627378
 21
139.206620
 31
0.0
  0
LINE
  5
162
100
AcDbEntity
  8
Layer_1
 62
7
100
AcDbLine
 10
114.627378
 20
139.206620
 30
0.0
 11
114.718959
 21
139.072847
 31
0.0
  0
LINE
  5
163
100
AcDbEntity
  8
Layer_1
 62
7
100
AcDbLine
 10
114.718959
 20
139.072847
 30
0.0
 11
114.804867
 21
138.932808
 31
0.0
  0
LINE
  5
164
100
AcDbEntity
  8
Layer_1
 62
7
100
AcDbLine
 10
114.804867
 20
138.932808
 30
0.0
 11
114.885668
 21
138.787238
 31
0.0
  0
LINE
  5
165
100
AcDbEntity
  8
Layer_1
 62
7
100
AcDbLine
 10
114.885668
 20
138.787238
 30
0.0
 11
114.961670
 21
138.636673
 31
0.0
  0
LINE
  5
166
100
AcDbEntity
  8
Layer_1
 62
7
100
AcDbLine
 10
114.961670
 20
138.636673
 30
0.0
 11
115.033100
 21
138.481479
 31
0.0
  0
LINE
  5
167
100
AcDbEntity
  8
Layer_1
 62
7
100
AcDbLine
 10
115.033100
 20
138.481479
 30
0.0
 11
115.100072
 21
138.321938
 31
0.0
  0
LINE
  5
168
100
AcDbEntity
  8
Layer_1
 62
7
100
AcDbLine
 10
115.100072
 20
138.321938
 30
0.0
 11
115.162697
 21
138.158306
 31
0.0
  0
LINE
  5
169
100
AcDbEntity
  8
Layer_1
 62
7
100
AcDbLine
 10
115.162697
 20
138.158306
 30
0.0
 11
115.221060
 21
137.990807
 31
0.0
  0
LINE
  5
16a
100
AcDbEntity
  8
Layer_1
 62
7
100
AcDbLine
 10
115.221060
 20
137.990807
 30
0.0
 11
115.275191
 21
137.819611
 31
0.0
  0
LINE
  5
16b
100
AcDbEntity
  8
Layer_1
 62
7
100
AcDbLine
 10
115.275191
 20
137.819611
 30
0.0
 11
115.151352
 21
137.690523
 31
0.0
  0
LINE
  5
16c
100
AcDbEntity
  8
Layer_1
 62
7
100
AcDbLine
 10
115.151352
 20
137.690523
 30
0.0
 11
115.025734
 21
137.563156
 31
0.0
  0
LINE
  5
16d
100
AcDbEntity
  8
Layer_1
 62
7
100
AcDbLine
 10
115.025734
 20
137.563156
 30
0.0
 11
114.898368
 21
137.437539
 31
0.0
  0
LINE
  5
16e
100
AcDbEntity
  8
Layer_1
 62
7
100
AcDbLine
 10
114.898368
 20
137.437539
 30
0.0
 11
114.769279
 21
137.313700
 31
0.0
  0
LINE
  5
16f
100
AcDbEntity
  8
Layer_1
 62
7
100
AcDbLine
 10
114.769279
 20
137.313700
 30
0.0
 11
114.598083
 21
137.367830
 31
0.0
  0
LINE
  5
170
100
AcDbEntity
  8
Layer_1
 62
7
100
AcDbLine
 10
114.598083
 20
137.367830
 30
0.0
 11
114.430584
 21
137.426193
 31
0.0
  0
LINE
  5
171
100
AcDbEntity
  8
Layer_1
 62
7
100
AcDbLine
 10
114.430584
 20
137.426193
 30
0.0
 11
114.266952
 21
137.488818
 31
0.0
  0
LINE
  5
172
100
AcDbEntity
  8
Layer_1
 62
7
100
AcDbLine
 10
114.266952
 20
137.488818
 30
0.0
 11
114.107412
 21
137.555790
 31
0.0
  0
LINE
  5
173
100
AcDbEntity
  8
Layer_1
 62
7
100
AcDbLine
 10
114.107412
 20
137.555790
 30
0.0
 11
113.952218
 21
137.627220
 31
0.0
  0
LINE
  5
174
100
AcDbEntity
  8
Layer_1
 62
7
100
AcDbLine
 10
113.952218
 20
137.627220
 30
0.0
 11
113.801652
 21
137.703223
 31
0.0
  0
LINE
  5
175
100
AcDbEntity
  8
Layer_1
 62
7
100
AcDbLine
 10
113.801652
 20
137.703223
 30
0.0
 11
113.656082
 21
137.784023
 31
0.0
  0
LINE
  5
176
100
AcDbEntity
  8
Layer_1
 62
7
100
AcDbLine
 10
113.656082
 20
137.784023
 30
0.0
 11
113.516043
 21
137.869931
 31
0.0
  0
LINE
  5
177
100
AcDbEntity
  8
Layer_1
 62
7
100
AcDbLine
 10
113.516043
 20
137.869931
 30
0.0
 11
113.382270
 21
137.961512
 31
0.0
  0
LINE
  5
178
100
AcDbEntity
  8
Layer_1
 62
7
100
AcDbLine
 10
113.382270
 20
137.961512
 30
0.0
 11
113.256060
 21
138.059754
 31
0.0
  0
LINE
  5
179
100
AcDbEntity
  8
Layer_1
 62
7
100
AcDbLine
 10
113.256060
 20
138.059754
 30
0.0
 11
113.141139
 21
138.167704
 31
0.0
  0
LINE
  5
17a
100
AcDbEntity
  8
Layer_1
 62
7
100
AcDbLine
 10
113.141139
 20
138.167704
 30
0.0
 11
112.962069
 21
138.378129
 31
0.0
  0
LINE
  5
17b
100
AcDbEntity
  8
Layer_1
 62
7
100
AcDbLine
 10
112.962069
 20
138.378129
 30
0.0
 11
112.748088
 21
138.200668
 31
0.0
  0
LINE
  5
17c
100
AcDbEntity
  8
Layer_1
 62
7
100
AcDbLine
 10
112.748088
 20
138.200668
 30
0.0
 11
112.529705
 21
138.028681
 31
0.0
  0
LINE
  5
17d
100
AcDbEntity
  8
Layer_1
 62
7
100
AcDbLine
 10
112.529705
 20
138.028681
 30
0.0
 11
112.307031
 21
137.862227
 31
0.0
  0
LINE
  5
17e
100
AcDbEntity
  8
Layer_1
 62
7
100
AcDbLine
 10
112.307031
 20
137.862227
 30
0.0
 11
112.080238
 21
137.701501
 31
0.0
  0
LINE
  5
17f
100
AcDbEntity
  8
Layer_1
 62
7
100
AcDbLine
 10
112.080238
 20
137.701501
 30
0.0
 11
112.237153
 21
137.474058
 31
0.0
  0
LINE
  5
180
100
AcDbEntity
  8
Layer_1
 62
7
100
AcDbLine
 10
112.237153
 20
137.474058
 30
0.0
 11
112.311688
 21
137.335120
 31
0.0
  0
LINE
  5
181
100
AcDbEntity
  8
Layer_1
 62
7
100
AcDbLine
 10
112.311688
 20
137.335120
 30
0.0
 11
112.373918
 21
137.187800
 31
0.0
  0
LINE
  5
182
100
AcDbEntity
  8
Layer_1
 62
7
100
AcDbLine
 10
112.373918
 20
137.187800
 30
0.0
 11
112.427738
 21
137.034864
 31
0.0
  0
LINE
  5
183
100
AcDbEntity
  8
Layer_1
 62
7
100
AcDbLine
 10
112.427738
 20
137.034864
 30
0.0
 11
112.474502
 21
136.877356
 31
0.0
  0
LINE
  5
184
100
AcDbEntity
  8
Layer_1
 62
7
100
AcDbLine
 10
112.474502
 20
136.877356
 30
0.0
 11
112.514860
 21
136.715840
 31
0.0
  0
LINE
  5
185
100
AcDbEntity
  8
Layer_1
 62
7
100
AcDbLine
 10
112.514860
 20
136.715840
 30
0.0
 11
112.549319
 21
136.550712
 31
0.0
  0
LINE
  5
186
100
AcDbEntity
  8
Layer_1
 62
7
100
AcDbLine
 10
112.549319
 20
136.550712
 30
0.0
 11
112.578134
 21
136.382338
 31
0.0
  0
LINE
  5
187
100
AcDbEntity
  8
Layer_1
 62
7
100
AcDbLine
 10
112.578134
 20
136.382338
 30
0.0
 11
112.601530
 21
136.210888
 31
0.0
  0
LINE
  5
188
100
AcDbEntity
  8
Layer_1
 62
7
100
AcDbLine
 10
112.601530
 20
136.210888
 30
0.0
 11
112.619677
 21
136.036644
 31
0.0
  0
LINE
  5
189
100
AcDbEntity
  8
Layer_1
 62
7
100
AcDbLine
 10
112.619677
 20
136.036644
 30
0.0
 11
112.632716
 21
135.859747
 31
0.0
  0
LINE
  5
18a
100
AcDbEntity
  8
Layer_1
 62
7
100
AcDbLine
 10
112.632716
 20
135.859747
 30
0.0
 11
112.640674
 21
135.680367
 31
0.0
  0
LINE
  5
18b
100
AcDbEntity
  8
Layer_1
 62
7
100
AcDbLine
 10
112.640674
 20
135.680367
 30
0.0
 11
112.487625
 21
135.587741
 31
0.0
  0
LINE
  5
18c
100
AcDbEntity
  8
Layer_1
 62
7
100
AcDbLine
 10
112.487625
 20
135.587741
 30
0.0
 11
112.333334
 21
135.497233
 31
0.0
  0
LINE
  5
18d
100
AcDbEntity
  8
Layer_1
 62
7
100
AcDbLine
 10
112.333334
 20
135.497233
 30
0.0
 11
112.177802
 21
135.408841
 31
0.0
  0
LINE
  5
18e
100
AcDbEntity
  8
Layer_1
 62
7
100
AcDbLine
 10
112.177802
 20
135.408841
 30
0.0
 11
112.021056
 21
135.322622
 31
0.0
  0
LINE
  5
18f
100
AcDbEntity
  8
Layer_1
 62
7
100
AcDbLine
 10
112.021056
 20
135.322622
 30
0.0
 11
111.869700
 21
135.419226
 31
0.0
  0
LINE
  5
190
100
AcDbEntity
  8
Layer_1
 62
7
100
AcDbLine
 10
111.869700
 20
135.419226
 30
0.0
 11
111.723001
 21
135.518936
 31
0.0
  0
LINE
  5
191
100
AcDbEntity
  8
Layer_1
 62
7
100
AcDbLine
 10
111.723001
 20
135.518936
 30
0.0
 11
111.581184
 21
135.621777
 31
0.0
  0
LINE
  5
192
100
AcDbEntity
  8
Layer_1
 62
7
100
AcDbLine
 10
111.581184
 20
135.621777
 30
0.0
 11
111.444419
 21
135.727780
 31
0.0
  0
LINE
  5
193
100
AcDbEntity
  8
Layer_1
 62
7
100
AcDbLine
 10
111.444419
 20
135.727780
 30
0.0
 11
111.312988
 21
135.836944
 31
0.0
  0
LINE
  5
194
100
AcDbEntity
  8
Layer_1
 62
7
100
AcDbLine
 10
111.312988
 20
135.836944
 30
0.0
 11
111.187230
 21
135.949324
 31
0.0
  0
LINE
  5
195
100
AcDbEntity
  8
Layer_1
 62
7
100
AcDbLine
 10
111.187230
 20
135.949324
 30
0.0
 11
111.067540
 21
136.065036
 31
0.0
  0
LINE
  5
196
100
AcDbEntity
  8
Layer_1
 62
7
100
AcDbLine
 10
111.067540
 20
136.065036
 30
0.0
 11
110.954481
 21
136.184274
 31
0.0
  0
LINE
  5
197
100
AcDbEntity
  8
Layer_1
 62
7
100
AcDbLine
 10
110.954481
 20
136.184274
 30
0.0
 11
110.848958
 21
136.307352
 31
0.0
  0
LINE
  5
198
100
AcDbEntity
  8
Layer_1
 62
7
100
AcDbLine
 10
110.848958
 20
136.307352
 30
0.0
 11
110.752495
 21
136.434916
 31
0.0
  0
LINE
  5
199
100
AcDbEntity
  8
Layer_1
 62
7
100
AcDbLine
 10
110.752495
 20
136.434916
 30
0.0
 11
110.669437
 21
136.568943
 31
0.0
  0
LINE
  5
19a
100
AcDbEntity
  8
Layer_1
 62
7
100
AcDbLine
 10
110.669437
 20
136.568943
 30
0.0
 11
110.550932
 21
136.818541
 31
0.0
  0
LINE
  5
19b
100
AcDbEntity
  8
Layer_1
 62
7
100
AcDbLine
 10
110.550932
 20
136.818541
 30
0.0
 11
110.298315
 21
136.702491
 31
0.0
  0
LINE
  5
19c
100
AcDbEntity
  8
Layer_1
 62
7
100
AcDbLine
 10
110.298315
 20
136.702491
 30
0.0
 11
110.042847
 21
136.592876
 31
0.0
  0
LINE
  5
19d
100
AcDbEntity
  8
Layer_1
 62
7
100
AcDbLine
 10
110.042847
 20
136.592876
 30
0.0
 11
109.784698
 21
136.489752
 31
0.0
  0
LINE
  5
19e
100
AcDbEntity
  8
Layer_1
 62
7
100
AcDbLine
 10
109.784698
 20
136.489752
 30
0.0
 11
109.524010
 21
136.393175
 31
0.0
  0
LINE
  5
19f
100
AcDbEntity
  8
Layer_1
 62
7
100
AcDbLine
 10
109.524010
 20
136.393175
 30
0.0
 11
109.616720
 21
136.132882
 31
0.0
  0
LINE
  5
1a0
100
AcDbEntity
  8
Layer_1
 62
7
100
AcDbLine
 10
109.616720
 20
136.132882
 30
0.0
 11
109.652760
 21
135.979381
 31
0.0
  0
LINE
  5
1a1
100
AcDbEntity
  8
Layer_1
 62
7
100
AcDbLine
 10
109.652760
 20
135.979381
 30
0.0
 11
109.674716
 21
135.820970
 31
0.0
  0
LINE
  5
1a2
100
AcDbEntity
  8
Layer_1
 62
7
100
AcDbLine
 10
109.674716
 20
135.820970
 30
0.0
 11
109.687134
 21
135.659341
 31
0.0
  0
LINE
  5
1a3
100
AcDbEntity
  8
Layer_1
 62
7
100
AcDbLine
 10
109.687134
 20
135.659341
 30
0.0
 11
109.691537
 21
135.495088
 31
0.0
  0
LINE
  5
1a4
100
AcDbEntity
  8
Layer_1
 62
7
100
AcDbLine
 10
109.691537
 20
135.495088
 30
0.0
 11
109.688715
 21
135.328633
 31
0.0
  0
LINE
  5
1a5
100
AcDbEntity
  8
Layer_1
 62
7
100
AcDbLine
 10
109.688715
 20
135.328633
 30
0.0
 11
109.679260
 21
135.160231
 31
0.0
  0
LINE
  5
1a6
100
AcDbEntity
  8
Layer_1
 62
7
100
AcDbLine
 10
109.679260
 20
135.160231
 30
0.0
 11
109.663512
 21
134.990108
 31
0.0
  0
LINE
  5
1a7
100
AcDbEntity
  8
Layer_1
 62
7
100
AcDbLine
 10
109.663512
 20
134.990108
 30
0.0
 11
109.641753
 21
134.818460
 31
0.0
  0
LINE
  5
1a8
100
AcDbEntity
  8
Layer_1
 62
7
100
AcDbLine
 10
109.641753
 20
134.818460
 30
0.0
 11
109.614180
 21
134.645430
 31
0.0
  0
LINE
  5
1a9
100
AcDbEntity
  8
Layer_1
 62
7
100
AcDbLine
 10
109.614180
 20
134.645430
 30
0.0
 11
109.580962
 21
134.471186
 31
0.0
  0
LINE
  5
1aa
100
AcDbEntity
  8
Layer_1
 62
7
100
AcDbLine
 10
109.580962
 20
134.471186
 30
0.0
 11
109.542241
 21
134.295869
 31
0.0
  0
LINE
  5
1ab
100
AcDbEntity
  8
Layer_1
 62
7
100
AcDbLine
 10
109.542241
 20
134.295869
 30
0.0
 11
109.370453
 21
134.246000
 31
0.0
  0
LINE
  5
1ac
100
AcDbEntity
  8
Layer_1
 62
7
100
AcDbLine
 10
109.370453
 20
134.246000
 30
0.0
 11
109.197987
 21
134.198531
 31
0.0
  0
LINE
  5
1ad
100
AcDbEntity
  8
Layer_1
 62
7
100
AcDbLine
 10
109.197987
 20
134.198531
 30
0.0
 11
109.024872
 21
134.153403
 31
0.0
  0
LINE
  5
1ae
100
AcDbEntity
  8
Layer_1
 62
7
100
AcDbLine
 10
109.024872
 20
134.153403
 30
0.0
 11
108.851164
 21
134.110675
 31
0.0
  0
LINE
  5
1af
100
AcDbEntity
  8
Layer_1
 62
7
100
AcDbLine
 10
108.851164
 20
134.110675
 30
0.0
 11
108.729949
 21
134.243178
 31
0.0
  0
LINE
  5
1b0
100
AcDbEntity
  8
Layer_1
 62
7
100
AcDbLine
 10
108.729949
 20
134.243178
 30
0.0
 11
108.614069
 21
134.377460
 31
0.0
  0
LINE
  5
1b1
100
AcDbEntity
  8
Layer_1
 62
7
100
AcDbLine
 10
108.614069
 20
134.377460
 30
0.0
 11
108.503692
 21
134.513519
 31
0.0
  0
LINE
  5
1b2
100
AcDbEntity
  8
Layer_1
 62
7
100
AcDbLine
 10
108.503692
 20
134.513519
 30
0.0
 11
108.399016
 21
134.651272
 31
0.0
  0
LINE
  5
1b3
100
AcDbEntity
  8
Layer_1
 62
7
100
AcDbLine
 10
108.399016
 20
134.651272
 30
0.0
 11
108.300322
 21
134.790746
 31
0.0
  0
LINE
  5
1b4
100
AcDbEntity
  8
Layer_1
 62
7
100
AcDbLine
 10
108.300322
 20
134.790746
 30
0.0
 11
108.207923
 21
134.931857
 31
0.0
  0
LINE
  5
1b5
100
AcDbEntity
  8
Layer_1
 62
7
100
AcDbLine
 10
108.207923
 20
134.931857
 30
0.0
 11
108.122268
 21
135.074605
 31
0.0
  0
LINE
  5
1b6
100
AcDbEntity
  8
Layer_1
 62
7
100
AcDbLine
 10
108.122268
 20
135.074605
 30
0.0
 11
108.043952
 21
135.219046
 31
0.0
  0
LINE
  5
1b7
100
AcDbEntity
  8
Layer_1
 62
7
100
AcDbLine
 10
108.043952
 20
135.219046
 30
0.0
 11
107.973876
 21
135.365237
 31
0.0
  0
LINE
  5
1b8
100
AcDbEntity
  8
Layer_1
 62
7
100
AcDbLine
 10
107.973876
 20
135.365237
 30
0.0
 11
107.913678
 21
135.513404
 31
0.0
  0
LINE
  5
1b9
100
AcDbEntity
  8
Layer_1
 62
7
100
AcDbLine
 10
107.913678
 20
135.513404
 30
0.0
 11
107.868156
 21
135.664365
 31
0.0
  0
LINE
  5
1ba
100
AcDbEntity
  8
Layer_1
 62
7
100
AcDbLine
 10
107.868156
 20
135.664365
 30
0.0
 11
107.818287
 21
135.936145
 31
0.0
  0
LINE
  5
1bb
100
AcDbEntity
  8
Layer_1
 62
7
100
AcDbLine
 10
107.818287
 20
135.936145
 30
0.0
 11
107.544249
 21
135.889437
 31
0.0
  0
LINE
  5
1bc
100
AcDbEntity
  8
Layer_1
 62
7
100
AcDbLine
 10
107.544249
 20
135.889437
 30
0.0
 11
107.269111
 21
135.849672
 31
0.0
  0
LINE
  5
1bd
100
AcDbEntity
  8
Layer_1
 62
7
100
AcDbLine
 10
107.269111
 20
135.849672
 30
0.0
 11
106.993069
 21
135.816878
 31
0.0
  0
LINE
  5
1be
100
AcDbEntity
  8
Layer_1
 62
7
100
AcDbLine
 10
106.993069
 20
135.816878
 30
0.0
 11
106.716266
 21
135.791054
 31
0.0
  0
LINE
  5
1bf
100
AcDbEntity
  8
Layer_1
 62
7
100
AcDbLine
 10
106.716266
 20
135.791054
 30
0.0
 11
106.738448
 21
135.515634
 31
0.0
  0
LINE
  5
1c0
100
AcDbEntity
  8
Layer_1
 62
7
100
AcDbLine
 10
106.738448
 20
135.515634
 30
0.0
 11
106.733538
 21
135.358041
 31
0.0
  0
LINE
  5
1c1
100
AcDbEntity
  8
Layer_1
 62
7
100
AcDbLine
 10
106.733538
 20
135.358041
 30
0.0
 11
106.713754
 21
135.199347
 31
0.0
  0
LINE
  5
1c2
100
AcDbEntity
  8
Layer_1
 62
7
100
AcDbLine
 10
106.713754
 20
135.199347
 30
0.0
 11
106.683923
 21
135.039976
 31
0.0
  0
LINE
  5
1c3
100
AcDbEntity
  8
Layer_1
 62
7
100
AcDbLine
 10
106.683923
 20
135.039976
 30
0.0
 11
106.645654
 21
134.880210
 31
0.0
  0
LINE
  5
1c4
100
AcDbEntity
  8
Layer_1
 62
7
100
AcDbLine
 10
106.645654
 20
134.880210
 30
0.0
 11
106.599849
 21
134.720134
 31
0.0
  0
LINE
  5
1c5
100
AcDbEntity
  8
Layer_1
 62
7
100
AcDbLine
 10
106.599849
 20
134.720134
 30
0.0
 11
106.547130
 21
134.559916
 31
0.0
  0
LINE
  5
1c6
100
AcDbEntity
  8
Layer_1
 62
7
100
AcDbLine
 10
106.547130
 20
134.559916
 30
0.0
 11
106.487891
 21
134.399670
 31
0.0
  0
LINE
  5
1c7
100
AcDbEntity
  8
Layer_1
 62
7
100
AcDbLine
 10
106.487891
 20
134.399670
 30
0.0
 11
106.422444
 21
134.239509
 31
0.0
  0
LINE
  5
1c8
100
AcDbEntity
  8
Layer_1
 62
7
100
AcDbLine
 10
106.422444
 20
134.239509
 30
0.0
 11
106.351042
 21
134.079518
 31
0.0
  0
LINE
  5
1c9
100
AcDbEntity
  8
Layer_1
 62
7
100
AcDbLine
 10
106.351042
 20
134.079518
 30
0.0
 11
106.273854
 21
133.919808
 31
0.0
  0
LINE
  5
1ca
100
AcDbEntity
  8
Layer_1
 62
7
100
AcDbLine
 10
106.273854
 20
133.919808
 30
0.0
 11
106.191050
 21
133.760494
 31
0.0
  0
LINE
  5
1cb
100
AcDbEntity
  8
Layer_1
 62
7
100
AcDbLine
 10
106.191050
 20
133.760494
 30
0.0
 11
106.012206
 21
133.756796
 31
0.0
  0
LINE
  5
1cc
100
AcDbEntity
  8
Layer_1
 62
7
100
AcDbLine
 10
106.012206
 20
133.756796
 30
0.0
 11
105.833333
 21
133.755668
 31
0.0
  0
LINE
  5
1cd
100
AcDbEntity
  8
Layer_1
 62
7
100
AcDbLine
 10
105.833333
 20
133.755668
 30
0.0
 11
105.654461
 21
133.756796
 31
0.0
  0
LINE
  5
1ce
100
AcDbEntity
  8
Layer_1
 62
7
100
AcDbLine
 10
105.654461
 20
133.756796
 30
0.0
 11
105.475617
 21
133.760494
 31
0.0
  0
LINE
  5
1cf
100
AcDbEntity
  8
Layer_1
 62
7
100
AcDbLine
 10
105.475617
 20
133.760494
 30
0.0
 11
105.392813
 21
133.919808
 31
0.0
  0
LINE
  5
1d0
100
AcDbEntity
  8
Layer_1
 62
7
100
AcDbLine
 10
105.392813
 20
133.919808
 30
0.0
 11
105.315625
 21
134.079518
 31
0.0
  0
LINE
  5
1d1
100
AcDbEntity
  8
Layer_1
 62
7
100
AcDbLine
 10
105.315625
 20
134.079518
 30
0.0
 11
105.244223
 21
134.239509
 31
0.0
  0
LINE
  5
1d2
100
AcDbEntity
  8
Layer_1
 62
7
100
AcDbLine
 10
105.244223
 20
134.239509
 30
0.0
 11
105.178775
 21
134.399670
 31
0.0
  0
LINE
  5
1d3
100
AcDbEntity
  8
Layer_1
 62
7
100
AcDbLine
 10
105.178775
 20
134.399670
 30
0.0
 11
105.119537
 21
134.559916
 31
0.0
  0
LINE
  5
1d4
100
AcDbEntity
  8
Layer_1
 62
7
100
AcDbLine
 10
105.119537
 20
134.559916
 30
0.0
 11
105.066818
 21
134.720134
 31
0.0
  0
LINE
  5
1d5
100
AcDbEntity
  8
Layer_1
 62
7
100
AcDbLine
 10
105.066818
 20
134.720134
 30
0.0
 11
105.021013
 21
134.880210
 31
0.0
  0
LINE
  5
1d6
100
AcDbEntity
  8
Layer_1
 62
7
100
AcDbLine
 10
105.021013
 20
134.880210
 30
0.0
 11
104.982744
 21
135.039976
 31
0.0
  0
LINE
  5
1d7
100
AcDbEntity
  8
Layer_1
 62
7
100
AcDbLine
 10
104.982744
 20
135.039976
 30
0.0
 11
104.952913
 21
135.199347
 31
0.0
  0
LINE
  5
1d8
100
AcDbEntity
  8
Layer_1
 62
7
100
AcDbLine
 10
104.952913
 20
135.199347
 30
0.0
 11
104.933129
 21
135.358041
 31
0.0
  0
LINE
  5
1d9
100
AcDbEntity
  8
Layer_1
 62
7
100
AcDbLine
 10
104.933129
 20
135.358041
 30
0.0
 11
104.928218
 21
135.515634
 31
0.0
  0
LINE
  5
1da
100
AcDbEntity
  8
Layer_1
 62
7
100
AcDbLine
 10
104.928218
 20
135.515634
 30
0.0
 11
104.950401
 21
135.791054
 31
0.0
  0
LINE
  5
1db
100
AcDbEntity
  8
Layer_1
 62
7
100
AcDbLine
 10
104.950401
 20
135.791054
 30
0.0
 11
104.673598
 21
135.816878
 31
0.0
  0
LINE
  5
1dc
100
AcDbEntity
  8
Layer_1
 62
7
100
AcDbLine
 10
104.673598
 20
135.816878
 30
0.0
 11
104.397556
 21
135.849672
 31
0.0
  0
LINE
  5
1dd
100
AcDbEntity
  8
Layer_1
 62
7
100
AcDbLine
 10
104.397556
 20
135.849672
 30
0.0
 11
104.122418
 21
135.889437
 31
0.0
  0
LINE
  5
1de
100
AcDbEntity
  8
Layer_1
 62
7
100
AcDbLine
 10
104.122418
 20
135.889437
 30
0.0
 11
103.848380
 21
135.936145
 31
0.0
  0
LINE
  5
1df
100
AcDbEntity
  8
Layer_1
 62
7
100
AcDbLine
 10
103.848380
 20
135.936145
 30
0.0
 11
103.798511
 21
135.664365
 31
0.0
  0
LINE
  5
1e0
100
AcDbEntity
  8
Layer_1
 62
7
100
AcDbLine
 10
103.798511
 20
135.664365
 30
0.0
 11
103.752989
 21
135.513404
 31
0.0
  0
LINE
  5
1e1
100
AcDbEntity
  8
Layer_1
 62
7
100
AcDbLine
 10
103.752989
 20
135.513404
 30
0.0
 11
103.692791
 21
135.365237
 31
0.0
  0
LINE
  5
1e2
100
AcDbEntity
  8
Layer_1
 62
7
100
AcDbLine
 10
103.692791
 20
135.365237
 30
0.0
 11
103.622715
 21
135.219046
 31
0.0
  0
LINE
  5
1e3
100
AcDbEntity
  8
Layer_1
 62
7
100
AcDbLine
 10
103.622715
 20
135.219046
 30
0.0
 11
103.544398
 21
135.074605
 31
0.0
  0
LINE
  5
1e4
100
AcDbEntity
  8
Layer_1
 62
7
100
AcDbLine
 10
103.544398
 20
135.074605
 30
0.0
 11
103.458744
 21
134.931857
 31
0.0
  0
LINE
  5
1e5
100
AcDbEntity
  8
Layer_1
 62
7
100
AcDbLine
 10
103.458744
 20
134.931857
 30
0.0
 11
103.366344
 21
134.790746
 31
0.0
  0
LINE
  5
1e6
100
AcDbEntity
  8
Layer_1
 62
7
100
AcDbLine
 10
103.366344
 20
134.790746
 30
0.0
 11
103.267651
 21
134.651272
 31
0.0
  0
LINE
  5
1e7
100
AcDbEntity
  8
Layer_1
 62
7
100
AcDbLine
 10
103.267651
 20
134.651272
 30
0.0
 11
103.162975
 21
134.513519
 31
0.0
  0
LINE
  5
1e8
100
AcDbEntity
  8
Layer_1
 62
7
100
AcDbLine
 10
103.162975
 20
134.513519
 30
0.0
 11
103.052598
 21
134.377460
 31
0.0
  0
LINE
  5
1e9
100
AcDbEntity
  8
Layer_1
 62
7
100
AcDbLine
 10
103.052598
 20
134.377460
 30
0.0
 11
102.936717
 21
134.243178
 31
0.0
  0
LINE
  5
1ea
100
AcDbEntity
  8
Layer_1
 62
7
100
AcDbLine
 10
102.936717
 20
134.243178
 30
0.0
 11
102.815503
 21
134.110675
 31
0.0
  0
LINE
  5
1eb
100
AcDbEntity
  8
Layer_1
 62
7
100
AcDbLine
 10
102.815503
 20
134.110675
 30
0.0
 11
102.641795
 21
134.153403
 31
0.0
  0
LINE
  5
1ec
100
AcDbEntity
  8
Layer_1
 62
7
100
AcDbLine
 10
102.641795
 20
134.153403
 30
0.0
 11
102.468680
 21
134.198531
 31
0.0
  0
LINE
  5
1ed
100
AcDbEntity
  8
Layer_1
 62
7
100
AcDbLine
 10
102.468680
 20
134.198531
 30
0.0
 11
102.296214
 21
134.246000
 31
0.0
  0
LINE
  5
1ee
100
AcDbEntity
  8
Layer_1
 62
7
100
AcDbLine
 10
102.296214
 20
134.246000
 30
0.0
 11
102.124425
 21
134.295869
 31
0.0
  0
LINE
  5
1ef
100
AcDbEntity
  8
Layer_1
 62
7
100
AcDbLine
 10
102.124425
 20
134.295869
 30
0.0
 11
102.085704
 21
134.471186
 31
0.0
  0
LINE
  5
1f0
100
AcDbEntity
  8
Layer_1
 62
7
100
AcDbLine
 10
102.085704
 20
134.471186
 30
0.0
 11
102.052487
 21
134.645430
 31
0.0
  0
LINE
  5
1f1
100
AcDbEntity
  8
Layer_1
 62
7
100
AcDbLine
 10
102.052487
 20
134.645430
 30
0.0
 11
102.024914
 21
134.818460
 31
0.0
  0
LINE
  5
1f2
100
AcDbEntity
  8
Layer_1
 62
7
100
AcDbLine
 10
102.024914
 20
134.818460
 30
0.0
 11
102.003154
 21
134.990108
 31
0.0
  0
LINE
  5
1f3
100
AcDbEntity
  8
Layer_1
 62
7
100
AcDbLine
 10
102.003154
 20
134.990108
 30
0.0
 11
101.987406
 21
135.160231
 31
0.0
  0
LINE
  5
1f4
100
AcDbEntity
  8
Layer_1
 62
7
100
AcDbLine
 10
101.987406
 20
135.160231
 30
0.0
 11
101.977952
 21
135.328633
 31
0.0
  0
LINE
  5
1f5
100
AcDbEntity
  8
Layer_1
 62
7
100
AcDbLine
 10
101.977952
 20
135.328633
 30
0.0
 11
101.975130
 21
135.495088
 31
0.0
  0
LINE
  5
1f6
100
AcDbEntity
  8
Layer_1
 62
7
100
AcDbLine
 10
101.975130
 20
135.495088
 30
0.0
 11
101.979532
 21
135.659341
 31
0.0
  0
LINE
  5
1f7
100
AcDbEntity
  8
Layer_1
 62
7
100
AcDbLine
 10
101.979532
 20
135.659341
 30
0.0
 11
101.991950
 21
135.820970
 31
0.0
  0
LINE
  5
1f8
100
AcDbEntity
  8
Layer_1
 62
7
100
AcDbLine
 10
101.991950
 20
135.820970
 30
0.0
 11
102.013907
 21
135.979381
 31
0.0
  0
LINE
  5
1f9
100
AcDbEntity
  8
Layer_1
 62
7
100
AcDbLine
 10
102.013907
 20
135.979381
 30
0.0
 11
102.049947
 21
136.132882
 31
0.0
  0
LINE
  5
1fa
100
AcDbEntity
  8
Layer_1
 62
7
100
AcDbLine
 10
102.049947
 20
136.132882
 30
0.0
 11
102.142657
 21
136.393175
 31
0.0
  0
LINE
  5
1fb
100
AcDbEntity
  8
Layer_1
 62
7
100
AcDbLine
 10
102.142657
 20
136.393175
 30
0.0
 11
101.881968
 21
136.489752
 31
0.0
  0
LINE
  5
1fc
100
AcDbEntity
  8
Layer_1
 62
7
100
AcDbLine
 10
101.881968
 20
136.489752
 30
0.0
 11
101.623820
 21
136.592876
 31
0.0
  0
LINE
  5
1fd
100
AcDbEntity
  8
Layer_1
 62
7
100
AcDbLine
 10
101.623820
 20
136.592876
 30
0.0
 11
101.368352
 21
136.702491
 31
0.0
  0
LINE
  5
1fe
100
AcDbEntity
  8
Layer_1
 62
7
100
AcDbLine
 10
101.368352
 20
136.702491
 30
0.0
 11
101.115735
 21
136.818541
 31
0.0
  0
LINE
  5
1ff
100
AcDbEntity
  8
Layer_1
 62
7
100
AcDbLine
 10
101.115735
 20
136.818541
 30
0.0
 11
100.997230
 21
136.568943
 31
0.0
  0
LINE
  5
200
100
AcDbEntity
  8
Layer_1
 62
7
100
AcDbLine
 10
100.997230
 20
136.568943
 30
0.0
 11
100.914172
 21
136.434916
 31
0.0
  0
LINE
  5
201
100
AcDbEntity
  8
Layer_1
 62
7
100
AcDbLine
 10
100.914172
 20
136.434916
 30
0.0
 11
100.817708
 21
136.307352
 31
0.0
  0
LINE
  5
202
100
AcDbEntity
  8
Layer_1
 62
7
100
AcDbLine
 10
100.817708
 20
136.307352
 30
0.0
 11
100.712185
 21
136.184274
 31
0.0
  0
LINE
  5
203
100
AcDbEntity
  8
Layer_1
 62
7
100
AcDbLine
 10
100.712185
 20
136.184274
 30
0.0
 11
100.599127
 21
136.065036
 31
0.0
  0
LINE
  5
204
100
AcDbEntity
  8
Layer_1
 62
7
100
AcDbLine
 10
100.599127
 20
136.065036
 30
0.0
 11
100.479437
 21
135.949324
 31
0.0
  0
LINE
  5
205
100
AcDbEntity
  8
Layer_1
 62
7
100
AcDbLine
 10
100.479437
 20
135.949324
 30
0.0
 11
100.353678
 21
135.836944
 31
0.0
  0
LINE
  5
206
100
AcDbEntity
  8
Layer_1
 62
7
100
AcDbLine
 10
100.353678
 20
135.836944
 30
0.0
 11
100.222248
 21
135.727780
 31
0.0
  0
LINE
  5
207
100
AcDbEntity
  8
Layer_1
 62
7
100
AcDbLine
 10
100.222248
 20
135.727780
 30
0.0
 11
100.085483
 21
135.621777
 31
0.0
  0
LINE
  5
208
100
AcDbEntity
  8
Layer_1
 62
7
100
AcDbLine
 10
100.085483
 20
135.621777
 30
0.0
 11
99.943666
 21
135.518936
 31
0.0
  0
LINE
  5
209
100
AcDbEntity
  8
Layer_1
 62
7
100
AcDbLine
 10
99.943666
 20
135.518936
 30
0.0
 11
99.796967
 21
135.419226
 31
0.0
  0
LINE
  5
20a
100
AcDbEntity
  8
Layer_1
 62
7
100
AcDbLine
 10
99.796967
 20
135.419226
 30
0.0
 11
99.645611
 21
135.322622
 31
0.0
  0
LINE
  5
20b
100
AcDbEntity
  8
Layer_1
 62
7
100
AcDbLine
 10
99.645611
 20
135.322622
 30
0.0
 11
99.488865
 21
135.408841
 31
0.0
  0
LINE
  5
20c
100
AcDbEntity
  8
Layer_1
 62
7
100
AcDbLine
 10
99.488865
 20
135.408841
 30
0.0
 11
99.333332
 21
135.497233
 31
0.0
  0
LINE
  5
20d
100
AcDbEntity
  8
Layer_1
 62
7
100
AcDbLine
 10
99.333332
 20
135.497233
 30
0.0
 11
99.179041
 21
135.587741
 31
0.0
  0
LINE
  5
20e
100
AcDbEntity
  8
Layer_1
 62
7
100
AcDbLine
 10
99.179041
 20
135.587741
 30
0.0
 11
99.025992
 21
135.680367
 31
0.0
  0
LINE
  5
20f
100
AcDbEntity
  8
Layer_1
 62
7
100
AcDbLine
 10
99.025992
 20
135.680367
 30
0.0
 11
99.033951
 21
135.859747
 31
0.0
  0
LINE
  5
210
100
AcDbEntity
  8
Layer_1
 62
7
100
AcDbLine
 10
99.033951
 20
135.859747
 30
0.0
 11
99.046990
 21
136.036644
 31
0.0
  0
LINE
  5
211
100
AcDbEntity
  8
Layer_1
 62
7
100
AcDbLine
 10
99.046990
 20
136.036644
 30
0.0
 11
99.065136
 21
136.210888
 31
0.0
  0
LINE
  5
212
100
AcDbEntity
  8
Layer_1
 62
7
100
AcDbLine
 10
99.065136
 20
136.210888
 30
0.0
 11
99.088533
 21
136.382338
 31
0.0
  0
LINE
  5
213
100
AcDbEntity
  8
Layer_1
 62
7
100
AcDbLine
 10
99.088533
 20
136.382338
 30
0.0
 11
99.117348
 21
136.550712
 31
0.0
  0
LINE
  5
214
100
AcDbEntity
  8
Layer_1
 62
7
100
AcDbLine
 10
99.117348
 20
136.550712
 30
0.0
 11
99.151807
 21
136.715840
 31
0.0
  0
LINE
  5
215
100
AcDbEntity
  8
Layer_1
 62
7
100
AcDbLine
 10
99.151807
 20
136.715840
 30
0.0
 11
99.192165
 21
136.877356
 31
0.0
  0
LINE
  5
216
100
AcDbEntity
  8
Layer_1
 62
7
100
AcDbLine
 10
99.192165
 20
136.877356
 30
0.0
 11
99.238929
 21
137.034864
 31
0.0
  0
LINE
  5
217
100
AcDbEntity
  8
Layer_1
 62
7
100
AcDbLine
 10
99.238929
 20
137.034864
 30
0.0
 11
99.292749
 21
137.187800
 31
0.0
  0
LINE
  5
218
100
AcDbEntity
  8
Layer_1
 62
7
100
AcDbLine
 10
99.292749
 20
137.187800
 30
0.0
 11
99.354979
 21
137.335120
 31
0.0
  0
LINE
  5
219
100
AcDbEntity
  8
Layer_1
 62
7
100
AcDbLine
 10
99.354979
 20
137.335120
 30
0.0
 11
99.429514
 21
137.474058
 31
0.0
  0
LINE
  5
21a
100
AcDbEntity
  8
Layer_1
 62
7
100
AcDbLine
 10
99.429514
 20
137.474058
 30
0.0
 11
99.586429
 21
137.701501
 31
0.0
  0
LINE
  5
21b
100
AcDbEntity
  8
Layer_1
 62
7
100
AcDbLine
 10
99.586429
 20
137.701501
 30
0.0
 11
99.359635
 21
137.862227
 31
0.0
  0
LINE
  5
21c
100
AcDbEntity
  8
Layer_1
 62
7
100
AcDbLine
 10
99.359635
 20
137.862227
 30
0.0
 11
99.136962
 21
138.028681
 31
0.0
  0
LINE
  5
21d
100
AcDbEntity
  8
Layer_1
 62
7
100
AcDbLine
 10
99.136962
 20
138.028681
 30
0.0
 11
98.918578
 21
138.200668
 31
0.0
  0
LINE
  5
21e
100
AcDbEntity
  8
Layer_1
 62
7
100
AcDbLine
 10
98.918578
 20
138.200668
 30
0.0
 11
98.704598
 21
138.378129
 31
0.0
  0
LINE
  5
21f
100
AcDbEntity
  8
Layer_1
 62
7
100
AcDbLine
 10
98.704598
 20
138.378129
 30
0.0
 11
98.525528
 21
138.167704
 31
0.0
  0
LINE
  5
220
100
AcDbEntity
  8
Layer_1
 62
7
100
AcDbLine
 10
98.525528
 20
138.167704
 30
0.0
 11
98.410607
 21
138.059754
 31
0.0
  0
LINE
  5
221
100
AcDbEntity
  8
Layer_1
 62
7
100
AcDbLine
 10
98.410607
 20
138.059754
 30
0.0
 11
98.284397
 21
137.961512
 31
0.0
  0
LINE
  5
222
100
AcDbEntity
  8
Layer_1
 62
7
100
AcDbLine
 10
98.284397
 20
137.961512
 30
0.0
 11
98.150624
 21
137.869931
 31
0.0
  0
LINE
  5
223
100
AcDbEntity
  8
Layer_1
 62
7
100
AcDbLine
 10
98.150624
 20
137.869931
 30
0.0
 11
98.010585
 21
137.784023
 31
0.0
  0
LINE
  5
224
100
AcDbEntity
  8
Layer_1
 62
7
100
AcDbLine
 10
98.010585
 20
137.784023
 30
0.0
 11
97.865015
 21
137.703223
 31
0.0
  0
LINE
  5
225
100
AcDbEntity
  8
Layer_1
 62
7
100
AcDbLine
 10
97.865015
 20
137.703223
 30
0.0
 11
97.714449
 21
137.627220
 31
0.0
  0
LINE
  5
226
100
AcDbEntity
  8
Layer_1
 62
7
100
AcDbLine
 10
97.714449
 20
137.627220
 30
0.0
 11
97.559255
 21
137.555790
 31
0.0
  0
LINE
  5
227
100
AcDbEntity
  8
Layer_1
 62
7
100
AcDbLine
 10
97.559255
 20
137.555790
 30
0.0
 11
97.399715
 21
137.488818
 31
0.0
  0
LINE
  5
228
100
AcDbEntity
  8
Layer_1
 62
7
100
AcDbLine
 10
97.399715
 20
137.488818
 30
0.0
 11
97.236082
 21
137.426193
 31
0.0
  0
LINE
  5
229
100
AcDbEntity
  8
Layer_1
 62
7
100
AcDbLine
 10
97.236082
 20
137.426193
 30
0.0
 11
97.068584
 21
137.367830
 31
0.0
  0
LINE
  5
22a
100
AcDbEntity
  8
Layer_1
 62
7
100
AcDbLine
 10
97.068584
 20
137.367830
 30
0.0
 11
96.897388
 21
137.313700
 31
0.0
  0
LINE
  5
22b
100
AcDbEntity
  8
Layer_1
 62
7
100
AcDbLine
 10
96.897388
 20
137.313700
 30
0.0
 11
96.768299
 21
137.437539
 31
0.0
  0
LINE
  5
22c
100
AcDbEntity
  8
Layer_1
 62
7
100
AcDbLine
 10
96.768299
 20
137.437539
 30
0.0
 11
96.640932
 21
137.563156
 31
0.0
  0
LINE
  5
22d
100
AcDbEntity
  8
Layer_1
 62
7
100
AcDbLine
 10
96.640932
 20
137.563156
 30
0.0
 11
96.515315
 21
137.690523
 31
0.0
  0
LINE
  5
22e
100
AcDbEntity
  8
Layer_1
 62
7
100
AcDbLine
 10
96.515315
 20
137.690523
 30
0.0
 11
96.391476
 21
137.819611
 31
0.0
  0
LINE
  5
22f
100
AcDbEntity
  8
Layer_1
 62
7
100
AcDbLine
 10
96.391476
 20
137.819611
 30
0.0
 11
96.445606
 21
137.990807
 31
0.0
  0
LINE
  5
230
100
AcDbEntity
  8
Layer_1
 62
7
100
AcDbLine
 10
96.445606
 20
137.990807
 30
0.0
 11
96.503970
 21
138.158306
 31
0.0
  0
LINE
  5
231
100
AcDbEntity
  8
Layer_1
 62
7
100
AcDbLine
 10
96.503970
 20
138.158306
 30
0.0
 11
96.566595
 21
138.321938
 31
0.0
  0
LINE
  5
232
100
AcDbEntity
  8
Layer_1
 62
7
100
AcDbLine
 10
96.566595
 20
138.321938
 30
0.0
 11
96.633566
 21
138.481479
 31
0.0
  0
LINE
  5
233
100
AcDbEntity
  8
Layer_1
 62
7
100
AcDbLine
 10
96.633566
 20
138.481479
 30
0.0
 11
96.704997
 21
138.636673
 31
0.0
  0
LINE
  5
234
100
AcDbEntity
  8
Layer_1
 62
7
100
AcDbLine
 10
96.704997
 20
138.636673
 30
0.0
 11
96.780999
 21
138.787238
 31
0.0
  0
LINE
  5
235
100
AcDbEntity
  8
Layer_1
 62
7
100
AcDbLine
 10
96.780999
 20
138.787238
 30
0.0
 11
96.861799
 21
138.932808
 31
0.0
  0
LINE
  5
236
100
AcDbEntity
  8
Layer_1
 62
7
100
AcDbLine
 10
96.861799
 20
138.932808
 30
0.0
 11
96.947708
 21
139.072847
 31
0.0
  0
LINE
  5
237
100
AcDbEntity
  8
Layer_1
 62
7
100
AcDbLine
 10
96.947708
 20
139.072847
 30
0.0
 11
97.039289
 21
139.206620
 31
0.0
  0
LINE
  5
238
100
AcDbEntity
  8
Layer_1
 62
7
100
AcDbLine
 10
97.039289
 20
139.206620
 30
0.0
 11
97.137530
 21
139.332830
 31
0.0
  0
LINE
  5
239
100
AcDbEntity
  8
Layer_1
 62
7
100
AcDbLine
 10
97.137530
 20
139.332830
 30
0.0
 11
97.245480
 21
139.447751
 31
0.0
  0
LINE
  5
23a
100
AcDbEntity
  8
Layer_1
 62
7
100
AcDbLine
 10
97.245480
 20
139.447751
 30
0.0
 11
97.455905
 21
139.626821
 31
0.0
  0
LINE
  5
23b
100
AcDbEntity
  8
Layer_1
 62
7
100
AcDbLine
 10
97.455905
 20
139.626821
 30
0.0
 11
97.278444
 21
139.840802
 31
0.0
  0
LINE
  5
23c
100
AcDbEntity
  8
Layer_1
 62
7
100
AcDbLine
 10
97.278444
 20
139.840802
 30
0.0
 11
97.106458
 21
140.059186
 31
0.0
  0
LINE
  5
23d
100
AcDbEntity
  8
Layer_1
 62
7
100
AcDbLine
 10
97.106458
 20
140.059186
 30
0.0
 11
96.940003
 21
140.281859
 31
0.0
  0
LINE
  5
23e
100
AcDbEntity
  8
Layer_1
 62
7
100
AcDbLine
 10
96.940003
 20
140.281859
 30
0.0
 11
96.779278
 21
140.508653
 31
0.0
  0
LINE
  5
23f
100
AcDbEntity
  8
Layer_1
 62
7
100
AcDbLine
 10
96.779278
 20
140.508653
 30
0.0
 11
96.551835
 21
140.351737
 31
0.0
  0
LINE
  5
240
100
AcDbEntity
  8
Layer_1
 62
7
100
AcDbLine
 10
96.551835
 20
140.351737
 30
0.0
 11
96.412897
 21
140.277202
 31
0.0
  0
LINE
  5
241
100
AcDbEntity
  8
Layer_1
 62
7
100
AcDbLine
 10
96.412897
 20
140.277202
 30
0.0
 11
96.265577
 21
140.214972
 31
0.0
  0
LINE
  5
242
100
AcDbEntity
  8
Layer_1
 62
7
100
AcDbLine
 10
96.265577
 20
140.214972
 30
0.0
 11
96.112640
 21
140.161152
 31
0.0
  0
LINE
  5
243
100
AcDbEntity
  8
Layer_1
 62
7
100
AcDbLine
 10
96.112640
 20
140.161152
 30
0.0
 11
95.955132
 21
140.114388
 31
0.0
  0
LINE
  5
244
100
AcDbEntity
  8
Layer_1
 62
7
100
AcDbLine
 10
95.955132
 20
140.114388
 30
0.0
 11
95.793616
 21
140.074030
 31
0.0
  0
LINE
  5
245
100
AcDbEntity
  8
Layer_1
 62
7
100
AcDbLine
 10
95.793616
 20
140.074030
 30
0.0
 11
95.628488
 21
140.039571
 31
0.0
  0
LINE
  5
246
100
AcDbEntity
  8
Layer_1
 62
7
100
AcDbLine
 10
95.628488
 20
140.039571
 30
0.0
 11
95.460114
 21
140.010756
 31
0.0
  0
LINE
  5
247
100
AcDbEntity
  8
Layer_1
 62
7
100
AcDbLine
 10
95.460114
 20
140.010756
 30
0.0
 11
95.288664
 21
139.987360
 31
0.0
  0
LINE
  5
248
100
AcDbEntity
  8
Layer_1
 62
7
100
AcDbLine
 10
95.288664
 20
139.987360
 30
0.0
 11
95.114420
 21
139.969213
 31
0.0
  0
LINE
  5
249
100
AcDbEntity
  8
Layer_1
 62
7
100
AcDbLine
 10
95.114420
 20
139.969213
 30
0.0
 11
94.937524
 21
139.956174
 31
0.0
  0
LINE
  5
24a
100
AcDbEntity
  8
Layer_1
 62
7
100
AcDbLine
 10
94.937524
 20
139.956174
 30
0.0
 11
94.758143
 21
139.948216
 31
0.0
  0
LINE
  5
24b
100
AcDbEntity
  8
Layer_1
 62
7
100
AcDbLine
 10
94.758143
 20
139.948216
 30
0.0
 11
94.665518
 21
140.101265
 31
0.0
  0
LINE
  5
24c
100
AcDbEntity
  8
Layer_1
 62
7
100
AcDbLine
 10
94.665518
 20
140.101265
 30
0.0
 11
94.575009
 21
140.255556
 31
0.0
  0
LINE
  5
24d
100
AcDbEntity
  8
Layer_1
 62
7
100
AcDbLine
 10
94.575009
 20
140.255556
 30
0.0
 11
94.486617
 21
140.411088
 31
0.0
  0
LINE
  5
24e
100
AcDbEntity
  8
Layer_1
 62
7
100
AcDbLine
 10
94.486617
 20
140.411088
 30
0.0
 11
94.400398
 21
140.567835
 31
0.0
  0
LINE
  5
24f
100
AcDbEntity
  8
Layer_1
 62
7
100
AcDbLine
 10
94.400398
 20
140.567835
 30
0.0
 11
94.497003
 21
140.719190
 31
0.0
  0
LINE
  5
250
100
AcDbEntity
  8
Layer_1
 62
7
100
AcDbLine
 10
94.497003
 20
140.719190
 30
0.0
 11
94.596712
 21
140.865890
 31
0.0
  0
LINE
  5
251
100
AcDbEntity
  8
Layer_1
 62
7
100
AcDbLine
 10
94.596712
 20
140.865890
 30
0.0
 11
94.699554
 21
141.007706
 31
0.0
  0
LINE
  5
252
100
AcDbEntity
  8
Layer_1
 62
7
100
AcDbLine
 10
94.699554
 20
141.007706
 30
0.0
 11
94.805556
 21
141.144471
 31
0.0
  0
LINE
  5
253
100
AcDbEntity
  8
Layer_1
 62
7
100
AcDbLine
 10
94.805556
 20
141.144471
 30
0.0
 11
94.914720
 21
141.275902
 31
0.0
  0
LINE
  5
254
100
AcDbEntity
  8
Layer_1
 62
7
100
AcDbLine
 10
94.914720
 20
141.275902
 30
0.0
 11
95.027101
 21
141.401660
 31
0.0
  0
LINE
  5
255
100
AcDbEntity
  8
Layer_1
 62
7
100
AcDbLine
 10
95.027101
 20
141.401660
 30
0.0
 11
95.142812
 21
141.521351
 31
0.0
  0
LINE
  5
256
100
AcDbEntity
  8
Layer_1
 62
7
100
AcDbLine
 10
95.142812
 20
141.521351
 30
0.0
 11
95.262051
 21
141.634409
 31
0.0
  0
LINE
  5
257
100
AcDbEntity
  8
Layer_1
 62
7
100
AcDbLine
 10
95.262051
 20
141.634409
 30
0.0
 11
95.385128
 21
141.739932
 31
0.0
  0
LINE
  5
258
100
AcDbEntity
  8
Layer_1
 62
7
100
AcDbLine
 10
95.385128
 20
141.739932
 30
0.0
 11
95.512692
 21
141.836395
 31
0.0
  0
LINE
  5
259
100
AcDbEntity
  8
Layer_1
 62
7
100
AcDbLine
 10
95.512692
 20
141.836395
 30
0.0
 11
95.646720
 21
141.919453
 31
0.0
  0
LINE
  5
25a
100
AcDbEntity
  8
Layer_1
 62
7
100
AcDbLine
 10
95.646720
 20
141.919453
 30
0.0
 11
95.896317
 21
142.037958
 31
0.0
  0
LINE
  5
25b
100
AcDbEntity
  8
Layer_1
 62
7
100
AcDbLine
 10
95.896317
 20
142.037958
 30
0.0
 11
95.780267
 21
142.290576
 31
0.0
  0
LINE
  5
25c
100
AcDbEntity
  8
Layer_1
 62
7
100
AcDbLine
 10
95.780267
 20
142.290576
 30
0.0
 11
95.670652
 21
142.546043
 31
0.0
  0
LINE
  5
25d
100
AcDbEntity
  8
Layer_1
 62
7
100
AcDbLine
 10
95.670652
 20
142.546043
 30
0.0
 11
95.567528
 21
142.804192
 31
0.0
  0
LINE
  5
25e
100
AcDbEntity
  8
Layer_1
 62
7
100
AcDbLine
 10
95.567528
 20
142.804192
 30
0.0
 11
95.470952
 21
143.064880
 31
0.0
  0
LINE
  5
25f
100
AcDbEntity
  8
Layer_1
 62
7
100
AcDbLine
 10
95.470952
 20
143.064880
 30
0.0
 11
95.210658
 21
142.972170
 31
0.0
  0
LINE
  5
260
100
AcDbEntity
  8
Layer_1
 62
7
100
AcDbLine
 10
95.210658
 20
142.972170
 30
0.0
 11
95.057158
 21
142.936131
 31
0.0
  0
LINE
  5
261
100
AcDbEntity
  8
Layer_1
 62
7
100
AcDbLine
 10
95.057158
 20
142.936131
 30
0.0
 11
94.898746
 21
142.914174
 31
0.0
  0
LINE
  5
262
100
AcDbEntity
  8
Layer_1
 62
7
100
AcDbLine
 10
94.898746
 20
142.914174
 30
0.0
 11
94.737118
 21
142.901756
 31
0.0
  0
LINE
  5
263
100
AcDbEntity
  8
Layer_1
 62
7
100
AcDbLine
 10
94.737118
 20
142.901756
 30
0.0
 11
94.572864
 21
142.897353
 31
0.0
  0
LINE
  5
264
100
AcDbEntity
  8
Layer_1
 62
7
100
AcDbLine
 10
94.572864
 20
142.897353
 30
0.0
 11
94.406410
 21
142.900176
 31
0.0
  0
LINE
  5
265
100
AcDbEntity
  8
Layer_1
 62
7
100
AcDbLine
 10
94.406410
 20
142.900176
 30
0.0
 11
94.238008
 21
142.909630
 31
0.0
  0
LINE
  5
266
100
AcDbEntity
  8
Layer_1
 62
7
100
AcDbLine
 10
94.238008
 20
142.909630
 30
0.0
 11
94.067884
 21
142.925378
 31
0.0
  0
LINE
  5
267
100
AcDbEntity
  8
Layer_1
 62
7
100
AcDbLine
 10
94.067884
 20
142.925378
 30
0.0
 11
93.896236
 21
142.947137
 31
0.0
  0
LINE
  5
268
100
AcDbEntity
  8
Layer_1
 62
7
100
AcDbLine
 10
93.896236
 20
142.947137
 30
0.0
 11
93.723206
 21
142.974710
 31
0.0
  0
LINE
  5
269
100
AcDbEntity
  8
Layer_1
 62
7
100
AcDbLine
 10
93.723206
 20
142.974710
 30
0.0
 11
93.548962
 21
143.007928
 31
0.0
  0
LINE
  5
26a
100
AcDbEntity
  8
Layer_1
 62
7
100
AcDbLine
 10
93.548962
 20
143.007928
 30
0.0
 11
93.373646
 21
143.046649
 31
0.0
  0
LINE
  5
26b
100
AcDbEntity
  8
Layer_1
 62
7
100
AcDbLine
 10
93.373646
 20
143.046649
 30
0.0
 11
93.323777
 21
143.218438
 31
0.0
  0
LINE
  5
26c
100
AcDbEntity
  8
Layer_1
 62
7
100
AcDbLine
 10
93.323777
 20
143.218438
 30
0.0
 11
93.276307
 21
143.390904
 31
0.0
  0
LINE
  5
26d
100
AcDbEntity
  8
Layer_1
 62
7
100
AcDbLine
 10
93.276307
 20
143.390904
 30
0.0
 11
93.231180
 21
143.564019
 31
0.0
  0
LINE
  5
26e
100
AcDbEntity
  8
Layer_1
 62
7
100
AcDbLine
 10
93.231180
 20
143.564019
 30
0.0
 11
93.188451
 21
143.737726
 31
0.0
  0
LINE
  5
26f
100
AcDbEntity
  8
Layer_1
 62
7
100
AcDbLine
 10
93.188451
 20
143.737726
 30
0.0
 11
93.320955
 21
143.858941
 31
0.0
  0
LINE
  5
270
100
AcDbEntity
  8
Layer_1
 62
7
100
AcDbLine
 10
93.320955
 20
143.858941
 30
0.0
 11
93.455236
 21
143.974821
 31
0.0
  0
LINE
  5
271
100
AcDbEntity
  8
Layer_1
 62
7
100
AcDbLine
 10
93.455236
 20
143.974821
 30
0.0
 11
93.591295
 21
144.085198
 31
0.0
  0
LINE
  5
272
100
AcDbEntity
  8
Layer_1
 62
7
100
AcDbLine
 10
93.591295
 20
144.085198
 30
0.0
 11
93.729048
 21
144.189875
 31
0.0
  0
LINE
  5
273
100
AcDbEntity
  8
Layer_1
 62
7
100
AcDbLine
 10
93.729048
 20
144.189875
 30
0.0
 11
93.868522
 21
144.288568
 31
0.0
  0
LINE
  5
274
100
AcDbEntity
  8
Layer_1
 62
7
100
AcDbLine
 10
93.868522
 20
144.288568
 30
0.0
 11
94.009633
 21
144.380967
 31
0.0
  0
LINE
  5
275
100
AcDbEntity
  8
Layer_1
 62
7
100
AcDbLine
 10
94.009633
 20
144.380967
 30
0.0
 11
94.152381
 21
144.466622
 31
0.0
  0
LINE
  5
276
100
AcDbEntity
  8
Layer_1
 62
7
100
AcDbLine
 10
94.152381
 20
144.466622
 30
0.0
 11
94.296823
 21
144.544938
 31
0.0
  0
LINE
  5
277
100
AcDbEntity
  8
Layer_1
 62
7
100
AcDbLine
 10
94.296823
 20
144.544938
 30
0.0
 11
94.443014
 21
144.615014
 31
0.0
  0
LINE
  5
278
100
AcDbEntity
  8
Layer_1
 62
7
100
AcDbLine
 10
94.443014
 20
144.615014
 30
0.0
 11
94.591180
 21
144.675212
 31
0.0
  0
LINE
  5
279
100
AcDbEntity
  8
Layer_1
 62
7
100
AcDbLine
 10
94.591180
 20
144.675212
 30
0.0
 11
94.742141
 21
144.720735
 31
0.0
  0
LINE
  5
27a
100
AcDbEntity
  8
Layer_1
 62
7
100
AcDbLine
 10
94.742141
 20
144.720735
 30
0.0
 11
95.013921
 21
144.770603
 31
0.0
  0
LINE
  5
27b
100
AcDbEntity
  8
Layer_1
 62
7
100
AcDbLine
 10
95.013921
 20
144.770603
 30
0.0
 11
94.967213
 21
145.044641
 31
0.0
  0
LINE
  5
27c
100
AcDbEntity
  8
Layer_1
 62
7
100
AcDbLine
 10
94.967213
 20
145.044641
 30
0.0
 11
94.927448
 21
145.319780
 31
0.0
  0
LINE
  5
27d
100
AcDbEntity
  8
Layer_1
 62
7
100
AcDbLine
 10
94.927448
 20
145.319780
 30
0.0
 11
94.894654
 21
145.595821
 31
0.0
  0
LINE
  5
27e
100
AcDbEntity
  8
Layer_1
 62
7
100
AcDbLine
 10
94.894654
 20
145.595821
 30
0.0
 11
94.868831
 21
145.872625
 31
0.0
  0
LINE
  5
27f
100
AcDbEntity
  8
Layer_1
 62
7
100
AcDbLine
 10
94.868831
 20
145.872625
 30
0.0
 11
94.593410
 21
145.850442
 31
0.0
  0
LINE
  5
280
100
AcDbEntity
  8
Layer_1
 62
7
100
AcDbLine
 10
94.593410
 20
145.850442
 30
0.0
 11
94.435817
 21
145.855353
 31
0.0
  0
LINE
  5
281
100
AcDbEntity
  8
Layer_1
 62
7
100
AcDbLine
 10
94.435817
 20
145.855353
 30
0.0
 11
94.277124
 21
145.875136
 31
0.0
  0
LINE
  5
282
100
AcDbEntity
  8
Layer_1
 62
7
100
AcDbLine
 10
94.277124
 20
145.875136
 30
0.0
 11
94.117753
 21
145.904967
 31
0.0
  0
LINE
  5
283
100
AcDbEntity
  8
Layer_1
 62
7
100
AcDbLine
 10
94.117753
 20
145.904967
 30
0.0
 11
93.957987
 21
145.943237
 31
0.0
  0
LINE
  5
284
100
AcDbEntity
  8
Layer_1
 62
7
100
AcDbLine
 10
93.957987
 20
145.943237
 30
0.0
 11
93.797910
 21
145.989041
 31
0.0
  0
LINE
  5
285
100
AcDbEntity
  8
Layer_1
 62
7
100
AcDbLine
 10
93.797910
 20
145.989041
 30
0.0
 11
93.637693
 21
146.041760
 31
0.0
  0
LINE
  5
286
100
AcDbEntity
  8
Layer_1
 62
7
100
AcDbLine
 10
93.637693
 20
146.041760
 30
0.0
 11
93.477447
 21
146.100999
 31
0.0
  0
LINE
  5
287
100
AcDbEntity
  8
Layer_1
 62
7
100
AcDbLine
 10
93.477447
 20
146.100999
 30
0.0
 11
93.317286
 21
146.166446
 31
0.0
  0
LINE
  5
288
100
AcDbEntity
  8
Layer_1
 62
7
100
AcDbLine
 10
93.317286
 20
146.166446
 30
0.0
 11
93.157294
 21
146.237848
 31
0.0
  0
LINE
  5
289
100
AcDbEntity
  8
Layer_1
 62
7
100
AcDbLine
 10
93.157294
 20
146.237848
 30
0.0
 11
92.997584
 21
146.315036
 31
0.0
  0
LINE
  5
28a
100
AcDbEntity
  8
Layer_1
 62
7
100
AcDbLine
 10
92.997584
 20
146.315036
 30
0.0
 11
92.838270
 21
146.397840
 31
0.0
  0
LINE
  5
28b
100
AcDbEntity
  8
Layer_1
 62
7
100
AcDbLine
 10
92.838270
 20
146.397840
 30
0.0
 11
92.834573
 21
146.576684
 31
0.0
  0
LINE
  5
28c
100
AcDbEntity
  8
Layer_1
 62
7
100
AcDbLine
 10
92.834573
 20
146.576684
 30
0.0
 11
92.833444
 21
146.755557
 31
0.0
  0
LINE
  5
28d
100
AcDbEntity
  8
Layer_1
 62
7
100
AcDbLine
 10
92.833444
 20
146.755557
 30
0.0
 11
92.834573
 21
146.934429
 31
0.0
  0
LINE
  5
28e
100
AcDbEntity
  8
Layer_1
 62
7
100
AcDbLine
 10
92.834573
 20
146.934429
 30
0.0
 11
92.838270
 21
147.113274
 31
0.0
  0
LINE
  5
28f
100
AcDbEntity
  8
Layer_1
 62
7
100
AcDbLine
 10
92.838270
 20
147.113274
 30
0.0
 11
92.997584
 21
147.196078
 31
0.0
  0
LINE
  5
290
100
AcDbEntity
  8
Layer_1
 62
7
100
AcDbLine
 10
92.997584
 20
147.196078
 30
0.0
 11
93.157294
 21
147.273265
 31
0.0
  0
LINE
  5
291
100
AcDbEntity
  8
Layer_1
 62
7
100
AcDbLine
 10
93.157294
 20
147.273265
 30
0.0
 11
93.317286
 21
147.344668
 31
0.0
  0
LINE
  5
292
100
AcDbEntity
  8
Layer_1
 62
7
100
AcDbLine
 10
93.317286
 20
147.344668
 30
0.0
 11
93.477447
 21
147.410115
 31
0.0
  0
LINE
  5
293
100
AcDbEntity
  8
Layer_1
 62
7
100
AcDbLine
 10
93.477447
 20
147.410115
 30
0.0
 11
93.637693
 21
147.469353
 31
0.0
  0
LINE
  5
294
100
AcDbEntity
  8
Layer_1
 62
7
100
AcDbLine
 10
93.637693
 20
147.469353
 30
0.0
 11
93.797910
 21
147.522072
 31
0.0
  0
LINE
  5
295
100
AcDbEntity
  8
Layer_1
 62
7
100
AcDbLine
 10
93.797910
 20
147.522072
 30
0.0
 11
93.957987
 21
147.567877
 31
0.0
  0
LINE
  5
296
100
AcDbEntity
  8
Layer_1
 62
7
100
AcDbLine
 10
93.957987
 20
147.567877
 30
0.0
 11
94.117753
 21
147.606146
 31
0.0
  0
LINE
  5
297
100
AcDbEntity
  8
Layer_1
 62
7
100
AcDbLine
 10
94.117753
 20
147.606146
 30
0.0
 11
94.277124
 21
147.635977
 31
0.0
  0
LINE
  5
298
100
AcDbEntity
  8
Layer_1
 62
7
100
AcDbLine
 10
94.277124
 20
147.635977
 30
0.0
 11
94.435817
 21
147.655761
 31
0.0
  0
LINE
  5
299
100
AcDbEntity
  8
Layer_1
 62
7
100
AcDbLine
 10
94.435817
 20
147.655761
 30
0.0
 11
94.593410
 21
147.660672
 31
0.0
  0
LINE
  5
29a
100
AcDbEntity
  8
Layer_1
 62
7
100
AcDbLine
 10
94.593410
 20
147.660672
 30
0.0
 11
94.868831
 21
147.638489
 31
0.0
  0
LINE
  5
29b
100
AcDbEntity
  8
Layer_1
 62
7
100
AcDbLine
 10
94.868831
 20
147.638489
 30
0.0
 11
94.894654
 21
147.915293
 31
0.0
  0
LINE
  5
29c
100
AcDbEntity
  8
Layer_1
 62
7
100
AcDbLine
 10
94.894654
 20
147.915293
 30
0.0
 11
94.927448
 21
148.191334
 31
0.0
  0
LINE
  5
29d
100
AcDbEntity
  8
Layer_1
 62
7
100
AcDbLine
 10
94.927448
 20
148.191334
 30
0.0
 11
94.967213
 21
148.466473
 31
0.0
  0
LINE
  5
29e
100
AcDbEntity
  8
Layer_1
 62
7
100
AcDbLine
 10
94.967213
 20
148.466473
 30
0.0
 11
95.013921
 21
148.740510
 31
0.0
  0
LINE
  5
29f
100
AcDbEntity
  8
Layer_1
 62
7
100
AcDbLine
 10
95.013921
 20
148.740510
 30
0.0
 11
94.742141
 21
148.790379
 31
0.0
  0
LINE
  5
2a0
100
AcDbEntity
  8
Layer_1
 62
7
100
AcDbLine
 10
94.742141
 20
148.790379
 30
0.0
 11
94.591180
 21
148.835902
 31
0.0
  0
LINE
  5
2a1
100
AcDbEntity
  8
Layer_1
 62
7
100
AcDbLine
 10
94.591180
 20
148.835902
 30
0.0
 11
94.443014
 21
148.896100
 31
0.0
  0
LINE
  5
2a2
100
AcDbEntity
  8
Layer_1
 62
7
100
AcDbLine
 10
94.443014
 20
148.896100
 30
0.0
 11
94.296823
 21
148.966175
 31
0.0
  0
LINE
  5
2a3
100
AcDbEntity
  8
Layer_1
 62
7
100
AcDbLine
 10
94.296823
 20
148.966175
 30
0.0
 11
94.152381
 21
149.044492
 31
0.0
  0
LINE
  5
2a4
100
AcDbEntity
  8
Layer_1
 62
7
100
AcDbLine
 10
94.152381
 20
149.044492
 30
0.0
 11
94.009633
 21
149.130146
 31
0.0
  0
LINE
  5
2a5
100
AcDbEntity
  8
Layer_1
 62
7
100
AcDbLine
 10
94.009633
 20
149.130146
 30
0.0
 11
93.868522
 21
149.222546
 31
0.0
  0
LINE
  5
2a6
100
AcDbEntity
  8
Layer_1
 62
7
100
AcDbLine
 10
93.868522
 20
149.222546
 30
0.0
 11
93.729048
 21
149.321239
 31
0.0
  0
LINE
  5
2a7
100
AcDbEntity
  8
Layer_1
 62
7
100
AcDbLine
 10
93.729048
 20
149.321239
 30
0.0
 11
93.591295
 21
149.425915
 31
0.0
  0
LINE
  5
2a8
100
AcDbEntity
  8
Layer_1
 62
7
100
AcDbLine
 10
93.591295
 20
149.425915
 30
0.0
 11
93.455236
 21
149.536292
 31
0.0
  0
LINE
  5
2a9
100
AcDbEntity
  8
Layer_1
 62
7
100
AcDbLine
 10
93.455236
 20
149.536292
 30
0.0
 11
93.320955
 21
149.652173
 31
0.0
  0
LINE
  5
2aa
100
AcDbEntity
  8
Layer_1
 62
7
100
AcDbLine
 10
93.320955
 20
149.652173
 30
0.0
 11
93.188451
 21
149.773387
 31
0.0
  0
LINE
  5
2ab
100
AcDbEntity
  8
Layer_1
 62
7
100
AcDbLine
 10
93.188451
 20
149.773387
 30
0.0
 11
93.231180
 21
149.947095
 31
0.0
  0
LINE
  5
2ac
100
AcDbEntity
  8
Layer_1
 62
7
100
AcDbLine
 10
93.231180
 20
149.947095
 30
0.0
 11
93.276307
 21
150.120210
 31
0.0
  0
LINE
  5
2ad
100
AcDbEntity
  8
Layer_1
 62
7
100
AcDbLine
 10
93.276307
 20
150.120210
 30
0.0
 11
93.323777
 21
150.292676
 31
0.0
  0
LINE
  5
2ae
100
AcDbEntity
  8
Layer_1
 62
7
100
AcDbLine
 10
93.323777
 20
150.292676
 30
0.0
 11
93.373646
 21
150.464465
 31
0.0
  0
LINE
  5
2af
100
AcDbEntity
  8
Layer_1
 62
7
100
AcDbLine
 10
93.373646
 20
150.464465
 30
0.0
 11
93.548962
 21
150.503186
 31
0.0
  0
LINE
  5
2b0
100
AcDbEntity
  8
Layer_1
 62
7
100
AcDbLine
 10
93.548962
 20
150.503186
 30
0.0
 11
93.723206
 21
150.536403
 31
0.0
  0
LINE
  5
2b1
100
AcDbEntity
  8
Layer_1
 62
7
100
AcDbLine
 10
93.723206
 20
150.536403
 30
0.0
 11
93.896236
 21
150.563976
 31
0.0
  0
LINE
  5
2b2
100
AcDbEntity
  8
Layer_1
 62
7
100
AcDbLine
 10
93.896236
 20
150.563976
 30
0.0
 11
94.067884
 21
150.585736
 31
0.0
  0
LINE
  5
2b3
100
AcDbEntity
  8
Layer_1
 62
7
100
AcDbLine
 10
94.067884
 20
150.585736
 30
0.0
 11
94.238008
 21
150.601484
 31
0.0
  0
LINE
  5
2b4
100
AcDbEntity
  8
Layer_1
 62
7
100
AcDbLine
 10
94.238008
 20
150.601484
 30
0.0
 11
94.406410
 21
150.610938
 31
0.0
  0
LINE
  5
2b5
100
AcDbEntity
  8
Layer_1
 62
7
100
AcDbLine
 10
94.406410
 20
150.610938
 30
0.0
 11
94.572864
 21
150.613760
 31
0.0
  0
LINE
  5
2b6
100
AcDbEntity
  8
Layer_1
 62
7
100
AcDbLine
 10
94.572864
 20
150.613760
 30
0.0
 11
94.737118
 21
150.609358
 31
0.0
  0
LINE
  5
2b7
100
AcDbEntity
  8
Layer_1
 62
7
100
AcDbLine
 10
94.737118
 20
150.609358
 30
0.0
 11
94.898746
 21
150.596940
 31
0.0
  0
LINE
  5
2b8
100
AcDbEntity
  8
Layer_1
 62
7
100
AcDbLine
 10
94.898746
 20
150.596940
 30
0.0
 11
95.057158
 21
150.574983
 31
0.0
  0
LINE
  5
2b9
100
AcDbEntity
  8
Layer_1
 62
7
100
AcDbLine
 10
95.057158
 20
150.574983
 30
0.0
 11
95.210658
 21
150.538943
 31
0.0
  0
LINE
  5
2ba
100
AcDbEntity
  8
Layer_1
 62
7
100
AcDbLine
 10
95.210658
 20
150.538943
 30
0.0
 11
95.470952
 21
150.446233
 31
0.0
  0
LINE
  5
2bb
100
AcDbEntity
  8
Layer_1
 62
7
100
AcDbLine
 10
95.470952
 20
150.446233
 30
0.0
 11
95.567528
 21
150.706922
 31
0.0
  0
LINE
  5
2bc
100
AcDbEntity
  8
Layer_1
 62
7
100
AcDbLine
 10
95.567528
 20
150.706922
 30
0.0
 11
95.670652
 21
150.965071
 31
0.0
  0
LINE
  5
2bd
100
AcDbEntity
  8
Layer_1
 62
7
100
AcDbLine
 10
95.670652
 20
150.965071
 30
0.0
 11
95.780267
 21
151.220538
 31
0.0
  0
LINE
  5
2be
100
AcDbEntity
  8
Layer_1
 62
7
100
AcDbLine
 10
95.780267
 20
151.220538
 30
0.0
 11
95.896317
 21
151.473155
 31
0.0
  0
LINE
  5
2bf
100
AcDbEntity
  8
Layer_1
 62
7
100
AcDbLine
 10
95.896317
 20
151.473155
 30
0.0
 11
95.646720
 21
151.591660
 31
0.0
  0
LINE
  5
2c0
100
AcDbEntity
  8
Layer_1
 62
7
100
AcDbLine
 10
95.646720
 20
151.591660
 30
0.0
 11
95.512692
 21
151.674718
 31
0.0
  0
LINE
  5
2c1
100
AcDbEntity
  8
Layer_1
 62
7
100
AcDbLine
 10
95.512692
 20
151.674718
 30
0.0
 11
95.385128
 21
151.771182
 31
0.0
  0
LINE
  5
2c2
100
AcDbEntity
  8
Layer_1
 62
7
100
AcDbLine
 10
95.385128
 20
151.771182
 30
0.0
 11
95.262051
 21
151.876705
 31
0.0
  0
LINE
  5
2c3
100
AcDbEntity
  8
Layer_1
 62
7
100
AcDbLine
 10
95.262051
 20
151.876705
 30
0.0
 11
95.142812
 21
151.989763
 31
0.0
  0
LINE
  5
2c4
100
AcDbEntity
  8
Layer_1
 62
7
100
AcDbLine
 10
95.142812
 20
151.989763
 30
0.0
 11
95.027101
 21
152.109454
 31
0.0
  0
LINE
  5
2c5
100
AcDbEntity
  8
Layer_1
 62
7
100
AcDbLine
 10
95.027101
 20
152.109454
 30
0.0
 11
94.914720
 21
152.235212
 31
0.0
  0
LINE
  5
2c6
100
AcDbEntity
  8
Layer_1
 62
7
100
AcDbLine
 10
94.914720
 20
152.235212
 30
0.0
 11
94.805556
 21
152.366643
 31
0.0
  0
LINE
  5
2c7
100
AcDbEntity
  8
Layer_1
 62
7
100
AcDbLine
 10
94.805556
 20
152.366643
 30
0.0
 11
94.699554
 21
152.503408
 31
0.0
  0
LINE
  5
2c8
100
AcDbEntity
  8
Layer_1
 62
7
100
AcDbLine
 10
94.699554
 20
152.503408
 30
0.0
 11
94.596712
 21
152.645224
 31
0.0
  0
LINE
  5
2c9
100
AcDbEntity
  8
Layer_1
 62
7
100
AcDbLine
 10
94.596712
 20
152.645224
 30
0.0
 11
94.497003
 21
152.791923
 31
0.0
  0
LINE
  5
2ca
100
AcDbEntity
  8
Layer_1
 62
7
100
AcDbLine
 10
94.497003
 20
152.791923
 30
0.0
 11
94.400398
 21
152.943279
 31
0.0
  0
LINE
  5
2cb
100
AcDbEntity
  8
Layer_1
 62
7
100
AcDbLine
 10
94.400398
 20
152.943279
 30
0.0
 11
94.486617
 21
153.100025
 31
0.0
  0
LINE
  5
2cc
100
AcDbEntity
  8
Layer_1
 62
7
100
AcDbLine
 10
94.486617
 20
153.100025
 30
0.0
 11
94.575009
 21
153.255558
 31
0.0
  0
LINE
  5
2cd
100
AcDbEntity
  8
Layer_1
 62
7
100
AcDbLine
 10
94.575009
 20
153.255558
 30
0.0
 11
94.665518
 21
153.409849
 31
0.0
  0
LINE
  5
2ce
100
AcDbEntity
  8
Layer_1
 62
7
100
AcDbLine
 10
94.665518
 20
153.409849
 30
0.0
 11
94.758143
 21
153.562898
 31
0.0
  0
LINE
  5
2cf
100
AcDbEntity
  8
Layer_1
 62
7
100
AcDbLine
 10
94.758143
 20
153.562898
 30
0.0
 11
94.937524
 21
153.554939
 31
0.0
  0
LINE
  5
2d0
100
AcDbEntity
  8
Layer_1
 62
7
100
AcDbLine
 10
94.937524
 20
153.554939
 30
0.0
 11
95.114420
 21
153.541901
 31
0.0
  0
LINE
  5
2d1
100
AcDbEntity
  8
Layer_1
 62
7
100
AcDbLine
 10
95.114420
 20
153.541901
 30
0.0
 11
95.288664
 21
153.523754
 31
0.0
  0
LINE
  5
2d2
100
AcDbEntity
  8
Layer_1
 62
7
100
AcDbLine
 10
95.288664
 20
153.523754
 30
0.0
 11
95.460114
 21
153.500358
 31
0.0
  0
LINE
  5
2d3
100
AcDbEntity
  8
Layer_1
 62
7
100
AcDbLine
 10
95.460114
 20
153.500358
 30
0.0
 11
95.628488
 21
153.471543
 31
0.0
  0
LINE
  5
2d4
100
AcDbEntity
  8
Layer_1
 62
7
100
AcDbLine
 10
95.628488
 20
153.471543
 30
0.0
 11
95.793616
 21
153.437083
 31
0.0
  0
LINE
  5
2d5
100
AcDbEntity
  8
Layer_1
 62
7
100
AcDbLine
 10
95.793616
 20
153.437083
 30
0.0
 11
95.955132
 21
153.396726
 31
0.0
  0
LINE
  5
2d6
100
AcDbEntity
  8
Layer_1
 62
7
100
AcDbLine
 10
95.955132
 20
153.396726
 30
0.0
 11
96.112640
 21
153.349961
 31
0.0
  0
LINE
  5
2d7
100
AcDbEntity
  8
Layer_1
 62
7
100
AcDbLine
 10
96.112640
 20
153.349961
 30
0.0
 11
96.265577
 21
153.296142
 31
0.0
  0
LINE
  5
2d8
100
AcDbEntity
  8
Layer_1
 62
7
100
AcDbLine
 10
96.265577
 20
153.296142
 30
0.0
 11
96.412897
 21
153.233912
 31
0.0
  0
LINE
  5
2d9
100
AcDbEntity
  8
Layer_1
 62
7
100
AcDbLine
 10
96.412897
 20
153.233912
 30
0.0
 11
96.551835
 21
153.159377
 31
0.0
  0
LINE
  5
2da
100
AcDbEntity
  8
Layer_1
 62
7
100
AcDbLine
 10
96.551835
 20
153.159377
 30
0.0
 11
96.779278
 21
153.002461
 31
0.0
  0
LINE
  5
2db
100
AcDbEntity
  8
Layer_1
 62
7
100
AcDbLine
 10
96.779278
 20
153.002461
 30
0.0
 11
96.940003
 21
153.229255
 31
0.0
  0
LINE
  5
2dc
100
AcDbEntity
  8
Layer_1
 62
7
100
AcDbLine
 10
96.940003
 20
153.229255
 30
0.0
 11
97.106458
 21
153.451928
 31
0.0
  0
LINE
  5
2dd
100
AcDbEntity
  8
Layer_1
 62
7
100
AcDbLine
 10
97.106458
 20
153.451928
 30
0.0
 11
97.278444
 21
153.670312
 31
0.0
  0
LINE
  5
2de
100
AcDbEntity
  8
Layer_1
 62
7
100
AcDbLine
 10
97.278444
 20
153.670312
 30
0.0
 11
97.455905
 21
153.884293
 31
0.0
  0
LINE
  5
2df
100
AcDbEntity
  8
Layer_1
 62
7
100
AcDbLine
 10
97.455905
 20
153.884293
 30
0.0
 11
97.245480
 21
154.063363
 31
0.0
  0
LINE
  5
2e0
100
AcDbEntity
  8
Layer_1
 62
7
100
AcDbLine
 10
97.245480
 20
154.063363
 30
0.0
 11
97.137530
 21
154.178284
 31
0.0
  0
LINE
  5
2e1
100
AcDbEntity
  8
Layer_1
 62
7
100
AcDbLine
 10
97.137530
 20
154.178284
 30
0.0
 11
97.039289
 21
154.304493
 31
0.0
  0
LINE
  5
2e2
100
AcDbEntity
  8
Layer_1
 62
7
100
AcDbLine
 10
97.039289
 20
154.304493
 30
0.0
 11
96.947708
 21
154.438267
 31
0.0
  0
LINE
  5
2e3
100
AcDbEntity
  8
Layer_1
 62
7
100
AcDbLine
 10
96.947708
 20
154.438267
 30
0.0
 11
96.861799
 21
154.578305
 31
0.0
  0
LINE
  5
2e4
100
AcDbEntity
  8
Layer_1
 62
7
100
AcDbLine
 10
96.861799
 20
154.578305
 30
0.0
 11
96.780999
 21
154.723876
 31
0.0
  0
LINE
  5
2e5
100
AcDbEntity
  8
Layer_1
 62
7
100
AcDbLine
 10
96.780999
 20
154.723876
 30
0.0
 11
96.704997
 21
154.874441
 31
0.0
  0
LINE
  5
2e6
100
AcDbEntity
  8
Layer_1
 62
7
100
AcDbLine
 10
96.704997
 20
154.874441
 30
0.0
 11
96.633566
 21
155.029635
 31
0.0
  0
LINE
  5
2e7
100
AcDbEntity
  8
Layer_1
 62
7
100
AcDbLine
 10
96.633566
 20
155.029635
 30
0.0
 11
96.566595
 21
155.189175
 31
0.0
  0
LINE
  5
2e8
100
AcDbEntity
  8
Layer_1
 62
7
100
AcDbLine
 10
96.566595
 20
155.189175
 30
0.0
 11
96.503970
 21
155.352808
 31
0.0
  0
LINE
  5
2e9
100
AcDbEntity
  8
Layer_1
 62
7
100
AcDbLine
 10
96.503970
 20
155.352808
 30
0.0
 11
96.445606
 21
155.520307
 31
0.0
  0
LINE
  5
2ea
100
AcDbEntity
  8
Layer_1
 62
7
100
AcDbLine
 10
96.445606
 20
155.520307
 30
0.0
 11
96.391476
 21
155.691503
 31
0.0
  0
LINE
  5
2eb
100
AcDbEntity
  8
Layer_1
 62
7
100
AcDbLine
 10
96.391476
 20
155.691503
 30
0.0
 11
96.515315
 21
155.820591
 31
0.0
  0
LINE
  5
2ec
100
AcDbEntity
  8
Layer_1
 62
7
100
AcDbLine
 10
96.515315
 20
155.820591
 30
0.0
 11
96.640932
 21
155.947958
 31
0.0
  0
LINE
  5
2ed
100
AcDbEntity
  8
Layer_1
 62
7
100
AcDbLine
 10
96.640932
 20
155.947958
 30
0.0
 11
96.768299
 21
156.073575
 31
0.0
  0
LINE
  5
2ee
100
AcDbEntity
  8
Layer_1
 62
7
100
AcDbLine
 10
96.768299
 20
156.073575
 30
0.0
 11
96.897388
 21
156.197414
 31
0.0
  0
LINE
  5
2ef
100
AcDbEntity
  8
Layer_1
 62
7
100
AcDbLine
 10
96.897388
 20
156.197414
 30
0.0
 11
97.068584
 21
156.143284
 31
0.0
  0
LINE
  5
2f0
100
AcDbEntity
  8
Layer_1
 62
7
100
AcDbLine
 10
97.068584
 20
156.143284
 30
0.0
 11
97.236082
 21
156.084920
 31
0.0
  0
LINE
  5
2f1
100
AcDbEntity
  8
Layer_1
 62
7
100
AcDbLine
 10
97.236082
 20
156.084920
 30
0.0
 11
97.399715
 21
156.022295
 31
0.0
  0
LINE
  5
2f2
100
AcDbEntity
  8
Layer_1
 62
7
100
AcDbLine
 10
97.399715
 20
156.022295
 30
0.0
 11
97.559255
 21
155.955324
 31
0.0
  0
LINE
  5
2f3
100
AcDbEntity
  8
Layer_1
 62
7
100
AcDbLine
 10
97.559255
 20
155.955324
 30
0.0
 11
97.714449
 21
155.883894
 31
0.0
  0
LINE
  5
2f4
100
AcDbEntity
  8
Layer_1
 62
7
100
AcDbLine
 10
97.714449
 20
155.883894
 30
0.0
 11
97.865015
 21
155.807891
 31
0.0
  0
LINE
  5
2f5
100
AcDbEntity
  8
Layer_1
 62
7
100
AcDbLine
 10
97.865015
 20
155.807891
 30
0.0
 11
98.010585
 21
155.727091
 31
0.0
  0
LINE
  5
2f6
100
AcDbEntity
  8
Layer_1
 62
7
100
AcDbLine
 10
98.010585
 20
155.727091
 30
0.0
 11
98.150624
 21
155.641182
 31
0.0
  0
LINE
  5
2f7
100
AcDbEntity
  8
Layer_1
 62
7
100
AcDbLine
 10
98.150624
 20
155.641182
 30
0.0
 11
98.284397
 21
155.549601
 31
0.0
  0
LINE
  5
2f8
100
AcDbEntity
  8
Layer_1
 62
7
100
AcDbLine
 10
98.284397
 20
155.549601
 30
0.0
 11
98.410607
 21
155.451360
 31
0.0
  0
LINE
  5
2f9
100
AcDbEntity
  8
Layer_1
 62
7
100
AcDbLine
 10
98.410607
 20
155.451360
 30
0.0
 11
98.525528
 21
155.343410
 31
0.0
  0
LINE
  5
2fa
100
AcDbEntity
  8
Layer_1
 62
7
100
AcDbLine
 10
98.525528
 20
155.343410
 30
0.0
 11
98.704598
 21
155.132985
 31
0.0
  0
LINE
  5
2fb
100
AcDbEntity
  8
Layer_1
 62
7
100
AcDbLine
 10
98.704598
 20
155.132985
 30
0.0
 11
98.918578
 21
155.310446
 31
0.0
  0
LINE
  5
2fc
100
AcDbEntity
  8
Layer_1
 62
7
100
AcDbLine
 10
98.918578
 20
155.310446
 30
0.0
 11
99.136962
 21
155.482432
 31
0.0
  0
LINE
  5
2fd
100
AcDbEntity
  8
Layer_1
 62
7
100
AcDbLine
 10
99.136962
 20
155.482432
 30
0.0
 11
99.359635
 21
155.648887
 31
0.0
  0
LINE
  5
2fe
100
AcDbEntity
  8
Layer_1
 62
7
100
AcDbLine
 10
99.359635
 20
155.648887
 30
0.0
 11
99.586429
 21
155.809613
 31
0.0
  0
LINE
  5
2ff
100
AcDbEntity
  8
Layer_1
 62
7
100
AcDbLine
 10
99.586429
 20
155.809613
 30
0.0
 11
99.429514
 21
156.037056
 31
0.0
  0
LINE
  5
300
100
AcDbEntity
  8
Layer_1
 62
7
100
AcDbLine
 10
99.429514
 20
156.037056
 30
0.0
 11
99.354979
 21
156.175994
 31
0.0
  0
LINE
  5
301
100
AcDbEntity
  8
Layer_1
 62
7
100
AcDbLine
 10
99.354979
 20
156.175994
 30
0.0
 11
99.292749
 21
156.323314
 31
0.0
  0
LINE
  5
302
100
AcDbEntity
  8
Layer_1
 62
7
100
AcDbLine
 10
99.292749
 20
156.323314
 30
0.0
 11
99.238929
 21
156.476250
 31
0.0
  0
LINE
  5
303
100
AcDbEntity
  8
Layer_1
 62
7
100
AcDbLine
 10
99.238929
 20
156.476250
 30
0.0
 11
99.192165
 21
156.633758
 31
0.0
  0
LINE
  5
304
100
AcDbEntity
  8
Layer_1
 62
7
100
AcDbLine
 10
99.192165
 20
156.633758
 30
0.0
 11
99.151807
 21
156.795274
 31
0.0
  0
LINE
  5
305
100
AcDbEntity
  8
Layer_1
 62
7
100
AcDbLine
 10
99.151807
 20
156.795274
 30
0.0
 11
99.117348
 21
156.960402
 31
0.0
  0
LINE
  5
306
100
AcDbEntity
  8
Layer_1
 62
7
100
AcDbLine
 10
99.117348
 20
156.960402
 30
0.0
 11
99.088533
 21
157.128776
 31
0.0
  0
LINE
  5
307
100
AcDbEntity
  8
Layer_1
 62
7
100
AcDbLine
 10
99.088533
 20
157.128776
 30
0.0
 11
99.065136
 21
157.300226
 31
0.0
  0
LINE
  5
308
100
AcDbEntity
  8
Layer_1
 62
7
100
AcDbLine
 10
99.065136
 20
157.300226
 30
0.0
 11
99.046990
 21
157.474470
 31
0.0
  0
LINE
  5
309
100
AcDbEntity
  8
Layer_1
 62
7
100
AcDbLine
 10
99.046990
 20
157.474470
 30
0.0
 11
99.033951
 21
157.651367
 31
0.0
  0
LINE
  5
30a
100
AcDbEntity
  8
Layer_1
 62
7
100
AcDbLine
 10
99.033951
 20
157.651367
 30
0.0
 11
99.025992
 21
157.830747
 31
0.0
  0
LINE
  5
30b
100
AcDbEntity
  8
Layer_1
 62
7
100
AcDbLine
 10
99.025992
 20
157.830747
 30
0.0
 11
99.179041
 21
157.923372
 31
0.0
  0
LINE
  5
30c
100
AcDbEntity
  8
Layer_1
 62
7
100
AcDbLine
 10
99.179041
 20
157.923372
 30
0.0
 11
99.333332
 21
158.013881
 31
0.0
  0
LINE
  5
30d
100
AcDbEntity
  8
Layer_1
 62
7
100
AcDbLine
 10
99.333332
 20
158.013881
 30
0.0
 11
99.488865
 21
158.102273
 31
0.0
  0
LINE
  5
30e
100
AcDbEntity
  8
Layer_1
 62
7
100
AcDbLine
 10
99.488865
 20
158.102273
 30
0.0
 11
99.645611
 21
158.188492
 31
0.0
  0
LINE
  5
30f
100
AcDbEntity
  8
Layer_1
 62
7
100
AcDbLine
 10
99.645611
 20
158.188492
 30
0.0
 11
99.796967
 21
158.091887
 31
0.0
  0
LINE
  5
310
100
AcDbEntity
  8
Layer_1
 62
7
100
AcDbLine
 10
99.796967
 20
158.091887
 30
0.0
 11
99.943666
 21
157.992178
 31
0.0
  0
LINE
  5
311
100
AcDbEntity
  8
Layer_1
 62
7
100
AcDbLine
 10
99.943666
 20
157.992178
 30
0.0
 11
100.085483
 21
157.889336
 31
0.0
  0
LINE
  5
312
100
AcDbEntity
  8
Layer_1
 62
7
100
AcDbLine
 10
100.085483
 20
157.889336
 30
0.0
 11
100.222248
 21
157.783334
 31
0.0
  0
LINE
  5
313
100
AcDbEntity
  8
Layer_1
 62
7
100
AcDbLine
 10
100.222248
 20
157.783334
 30
0.0
 11
100.353678
 21
157.674170
 31
0.0
  0
LINE
  5
314
100
AcDbEntity
  8
Layer_1
 62
7
100
AcDbLine
 10
100.353678
 20
157.674170
 30
0.0
 11
100.479437
 21
157.561789
 31
0.0
  0
LINE
  5
315
100
AcDbEntity
  8
Layer_1
 62
7
100
AcDbLine
 10
100.479437
 20
157.561789
 30
0.0
 11
100.599127
 21
157.446078
 31
0.0
  0
LINE
  5
316
100
AcDbEntity
  8
Layer_1
 62
7
100
AcDbLine
 10
100.599127
 20
157.446078
 30
0.0
 11
100.712185
 21
157.326839
 31
0.0
  0
LINE
  5
317
100
AcDbEntity
  8
Layer_1
 62
7
100
AcDbLine
 10
100.712185
 20
157.326839
 30
0.0
 11
100.817708
 21
157.203762
 31
0.0
  0
LINE
  5
318
100
AcDbEntity
  8
Layer_1
 62
7
100
AcDbLine
 10
100.817708
 20
157.203762
 30
0.0
 11
100.914172
 21
157.076198
 31
0.0
  0
LINE
  5
319
100
AcDbEntity
  8
Layer_1
 62
7
100
AcDbLine
 10
100.914172
 20
157.076198
 30
0.0
 11
100.997230
 21
156.942170
 31
0.0
  0
LINE
  5
31a
100
AcDbEntity
  8
Layer_1
 62
7
100
AcDbLine
 10
100.997230
 20
156.942170
 30
0.0
 11
101.115735
 21
156.692573
 31
0.0
  0
LINE
  5
31b
100
AcDbEntity
  8
Layer_1
 62
7
100
AcDbLine
 10
101.115735
 20
156.692573
 30
0.0
 11
101.368352
 21
156.808623
 31
0.0
  0
LINE
  5
31c
100
AcDbEntity
  8
Layer_1
 62
7
100
AcDbLine
 10
101.368352
 20
156.808623
 30
0.0
 11
101.623820
 21
156.918238
 31
0.0
  0
LINE
  5
31d
100
AcDbEntity
  8
Layer_1
 62
7
100
AcDbLine
 10
101.623820
 20
156.918238
 30
0.0
 11
101.881968
 21
157.021362
 31
0.0
  0
LINE
  5
31e
100
AcDbEntity
  8
Layer_1
 62
7
100
AcDbLine
 10
101.881968
 20
157.021362
 30
0.0
 11
102.142657
 21
157.117938
 31
0.0
  0
LINE
  5
31f
100
AcDbEntity
  8
Layer_1
 62
7
100
AcDbLine
 10
102.142657
 20
157.117938
 30
0.0
 11
102.049947
 21
157.378232
 31
0.0
  0
LINE
  5
320
100
AcDbEntity
  8
Layer_1
 62
7
100
AcDbLine
 10
102.049947
 20
157.378232
 30
0.0
 11
102.013907
 21
157.531733
 31
0.0
  0
LINE
  5
321
100
AcDbEntity
  8
Layer_1
 62
7
100
AcDbLine
 10
102.013907
 20
157.531733
 30
0.0
 11
101.991950
 21
157.690144
 31
0.0
  0
LINE
  5
322
100
AcDbEntity
  8
Layer_1
 62
7
100
AcDbLine
 10
101.991950
 20
157.690144
 30
0.0
 11
101.979532
 21
157.851773
 31
0.0
  0
LINE
  5
323
100
AcDbEntity
  8
Layer_1
 62
7
100
AcDbLine
 10
101.979532
 20
157.851773
 30
0.0
 11
101.975130
 21
158.016026
 31
0.0
  0
LINE
  5
324
100
AcDbEntity
  8
Layer_1
 62
7
100
AcDbLine
 10
101.975130
 20
158.016026
 30
0.0
 11
101.977952
 21
158.182481
 31
0.0
  0
LINE
  5
325
100
AcDbEntity
  8
Layer_1
 62
7
100
AcDbLine
 10
101.977952
 20
158.182481
 30
0.0
 11
101.987406
 21
158.350883
 31
0.0
  0
LINE
  5
326
100
AcDbEntity
  8
Layer_1
 62
7
100
AcDbLine
 10
101.987406
 20
158.350883
 30
0.0
 11
102.003154
 21
158.521006
 31
0.0
  0
LINE
  5
327
100
AcDbEntity
  8
Layer_1
 62
7
100
AcDbLine
 10
102.003154
 20
158.521006
 30
0.0
 11
102.024914
 21
158.692654
 31
0.0
  0
LINE
  5
328
100
AcDbEntity
  8
Layer_1
 62
7
100
AcDbLine
 10
102.024914
 20
158.692654
 30
0.0
 11
102.052487
 21
158.865684
 31
0.0
  0
LINE
  5
329
100
AcDbEntity
  8
Layer_1
 62
7
100
AcDbLine
 10
102.052487
 20
158.865684
 30
0.0
 11
102.085704
 21
159.039928
 31
0.0
  0
LINE
  5
32a
100
AcDbEntity
  8
Layer_1
 62
7
100
AcDbLine
 10
102.085704
 20
159.039928
 30
0.0
 11
102.124425
 21
159.215245
 31
0.0
  0
LINE
  5
32b
100
AcDbEntity
  8
Layer_1
 62
7
100
AcDbLine
 10
102.124425
 20
159.215245
 30
0.0
 11
102.296214
 21
159.265113
 31
0.0
  0
LINE
  5
32c
100
AcDbEntity
  8
Layer_1
 62
7
100
AcDbLine
 10
102.296214
 20
159.265113
 30
0.0
 11
102.468680
 21
159.312583
 31
0.0
  0
LINE
  5
32d
100
AcDbEntity
  8
Layer_1
 62
7
100
AcDbLine
 10
102.468680
 20
159.312583
 30
0.0
 11
102.641795
 21
159.357710
 31
0.0
  0
LINE
  5
32e
100
AcDbEntity
  8
Layer_1
 62
7
100
AcDbLine
 10
102.641795
 20
159.357710
 30
0.0
 11
102.815503
 21
159.400439
 31
0.0
  0
LINE
  5
32f
100
AcDbEntity
  8
Layer_1
 62
7
100
AcDbLine
 10
102.815503
 20
159.400439
 30
0.0
 11
102.936717
 21
159.267936
 31
0.0
  0
LINE
  5
330
100
AcDbEntity
  8
Layer_1
 62
7
100
AcDbLine
 10
102.936717
 20
159.267936
 30
0.0
 11
103.052598
 21
159.133654
 31
0.0
  0
LINE
  5
331
100
AcDbEntity
  8
Layer_1
 62
7
100
AcDbLine
 10
103.052598
 20
159.133654
 30
0.0
 11
103.162975
 21
158.997595
 31
0.0
  0
LINE
  5
332
100
AcDbEntity
  8
Layer_1
 62
7
100
AcDbLine
 10
103.162975
 20
158.997595
 30
0.0
 11
103.267651
 21
158.859842
 31
0.0
  0
LINE
  5
333
100
AcDbEntity
  8
Layer_1
 62
7
100
AcDbLine
 10
103.267651
 20
158.859842
 30
0.0
 11
103.366344
 21
158.720368
 31
0.0
  0
LINE
  5
334
100
AcDbEntity
  8
Layer_1
 62
7
100
AcDbLine
 10
103.366344
 20
158.720368
 30
0.0
 11
103.458744
 21
158.579257
 31
0.0
  0
LINE
  5
335
100
AcDbEntity
  8
Layer_1
 62
7
100
AcDbLine
 10
103.458744
 20
158.579257
 30
0.0
 11
103.544398
 21
158.436509
 31
0.0
  0
LINE
  5
336
100
AcDbEntity
  8
Layer_1
 62
7
100
AcDbLine
 10
103.544398
 20
158.436509
 30
0.0
 11
103.622715
 21
158.292068
 31
0.0
  0
LINE
  5
337
100
AcDbEntity
  8
Layer_1
 62
7
100
AcDbLine
 10
103.622715
 20
158.292068
 30
0.0
 11
103.692791
 21
158.145876
 31
0.0
  0
LINE
  5
338
100
AcDbEntity
  8
Layer_1
 62
7
100
AcDbLine
 10
103.692791
 20
158.145876
 30
0.0
 11
103.752989
 21
157.997710
 31
0.0
  0
LINE
  5
339
100
AcDbEntity
  8
Layer_1
 62
7
100
AcDbLine
 10
103.752989
 20
157.997710
 30
0.0
 11
103.798511
 21
157.846749
 31
0.0
  0
LINE
  5
33a
100
AcDbEntity
  8
Layer_1
 62
7
100
AcDbLine
 10
103.798511
 20
157.846749
 30
0.0
 11
103.848380
 21
157.574969
 31
0.0
  0
LINE
  5
33b
100
AcDbEntity
  8
Layer_1
 62
7
100
AcDbLine
 10
103.848380
 20
157.574969
 30
0.0
 11
104.122418
 21
157.621677
 31
0.0
  0
LINE
  5
33c
100
AcDbEntity
  8
Layer_1
 62
7
100
AcDbLine
 10
104.122418
 20
157.621677
 30
0.0
 11
104.397556
 21
157.661442
 31
0.0
  0
LINE
  5
33d
100
AcDbEntity
  8
Layer_1
 62
7
100
AcDbLine
 10
104.397556
 20
157.661442
 30
0.0
 11
104.673598
 21
157.694236
 31
0.0
  0
LINE
  5
33e
100
AcDbEntity
  8
Layer_1
 62
7
100
AcDbLine
 10
104.673598
 20
157.694236
 30
0.0
 11
104.950401
 21
157.720060
 31
0.0
  0
LINE
  5
33f
100
AcDbEntity
  8
Layer_1
 62
7
100
AcDbLine
 10
104.950401
 20
157.720060
 30
0.0
 11
104.928218
 21
157.995480
 31
0.0
  0
LINE
  5
340
100
AcDbEntity
  8
Layer_1
 62
7
100
AcDbLine
 10
104.928218
 20
157.995480
 30
0.0
 11
104.933129
 21
158.153073
 31
0.0
  0
LINE
  5
341
100
AcDbEntity
  8
Layer_1
 62
7
100
AcDbLine
 10
104.933129
 20
158.153073
 30
0.0
 11
104.952913
 21
158.311767
 31
0.0
  0
LINE
  5
342
100
AcDbEntity
  8
Layer_1
 62
7
100
AcDbLine
 10
104.952913
 20
158.311767
 30
0.0
 11
104.982744
 21
158.471138
 31
0.0
  0
LINE
  5
343
100
AcDbEntity
  8
Layer_1
 62
7
100
AcDbLine
 10
104.982744
 20
158.471138
 30
0.0
 11
105.021013
 21
158.630904
 31
0.0
  0
LINE
  5
344
100
AcDbEntity
  8
Layer_1
 62
7
100
AcDbLine
 10
105.021013
 20
158.630904
 30
0.0
 11
105.066818
 21
158.790980
 31
0.0
  0
LINE
  5
345
100
AcDbEntity
  8
Layer_1
 62
7
100
AcDbLine
 10
105.066818
 20
158.790980
 30
0.0
 11
105.119537
 21
158.951198
 31
0.0
  0
LINE
  5
346
100
AcDbEntity
  8
Layer_1
 62
7
100
AcDbLine
 10
105.119537
 20
158.951198
 30
0.0
 11
105.178775
 21
159.111443
 31
0.0
  0
LINE
  5
347
100
AcDbEntity
  8
Layer_1
 62
7
100
AcDbLine
 10
105.178775
 20
159.111443
 30
0.0
 11
105.244223
 21
159.271604
 31
0.0
  0
LINE
  5
348
100
AcDbEntity
  8
Layer_1
 62
7
100
AcDbLine
 10
105.244223
 20
159.271604
 30
0.0
 11
105.315625
 21
159.431596
 31
0.0
  0
LINE
  5
349
100
AcDbEntity
  8
Layer_1
 62
7
100
AcDbLine
 10
105.315625
 20
159.431596
 30
0.0
 11
105.392813
 21
159.591306
 31
0.0
  0
LINE
  5
34a
100
AcDbEntity
  8
Layer_1
 62
7
100
AcDbLine
 10
105.392813
 20
159.591306
 30
0.0
 11
105.475617
 21
159.750620
 31
0.0
  0
LINE
  5
34b
100
AcDbEntity
  8
Layer_1
 62
7
100
AcDbLine
 10
105.475617
 20
159.750620
 30
0.0
 11
105.654461
 21
159.754317
 31
0.0
  0
LINE
  5
34c
100
AcDbEntity
  8
Layer_1
 62
7
100
AcDbLine
 10
105.654461
 20
159.754317
 30
0.0
 11
105.833333
 21
159.755446
 31
0.0
  0
LINE
  5
34d
100
AcDbEntity
  8
Layer_1
 62
7
100
AcDbLine
 10
105.833333
 20
159.755446
 30
0.0
 11
106.012206
 21
159.754317
 31
0.0
  0
LINE
  5
34e
100
AcDbEntity
  8
Layer_1
 62
7
100
AcDbLine
 10
106.012206
 20
159.754317
 30
0.0
 11
106.191050
 21
159.750620
 31
0.0
  0
LINE
  5
34f
100
AcDbEntity
  8
Layer_1
 62
7
100
AcDbLine
 10
106.191050
 20
159.750620
 30
0.0
 11
106.273854
 21
159.591306
 31
0.0
  0
LINE
  5
350
100
AcDbEntity
  8
Layer_1
 62
7
100
AcDbLine
 10
106.273854
 20
159.591306
 30
0.0
 11
106.351042
 21
159.431596
 31
0.0
  0
LINE
  5
351
100
AcDbEntity
  8
Layer_1
 62
7
100
AcDbLine
 10
106.351042
 20
159.431596
 30
0.0
 11
106.422444
 21
159.271604
 31
0.0
  0
LINE
  5
352
100
AcDbEntity
  8
Layer_1
 62
7
100
AcDbLine
 10
106.422444
 20
159.271604
 30
0.0
 11
106.487891
 21
159.111443
 31
0.0
  0
LINE
  5
353
100
AcDbEntity
  8
Layer_1
 62
7
100
AcDbLine
 10
106.487891
 20
159.111443
 30
0.0
 11
106.547130
 21
158.951198
 31
0.0
  0
LINE
  5
354
100
AcDbEntity
  8
Layer_1
 62
7
100
AcDbLine
 10
106.547130
 20
158.951198
 30
0.0
 11
106.599849
 21
158.790980
 31
0.0
  0
LINE
  5
355
100
AcDbEntity
  8
Layer_1
 62
7
100
AcDbLine
 10
106.599849
 20
158.790980
 30
0.0
 11
106.645654
 21
158.630904
 31
0.0
  0
LINE
  5
356
100
AcDbEntity
  8
Layer_1
 62
7
100
AcDbLine
 10
106.645654
 20
158.630904
 30
0.0
 11
106.683923
 21
158.471138
 31
0.0
  0
LINE
  5
357
100
AcDbEntity
  8
Layer_1
 62
7
100
AcDbLine
 10
106.683923
 20
158.471138
 30
0.0
 11
106.713754
 21
158.311767
 31
0.0
  0
LINE
  5
358
100
AcDbEntity
  8
Layer_1
 62
7
100
AcDbLine
 10
106.713754
 20
158.311767
 30
0.0
 11
106.733538
 21
158.153073
 31
0.0
  0
LINE
  5
359
100
AcDbEntity
  8
Layer_1
 62
7
100
AcDbLine
 10
106.733538
 20
158.153073
 30
0.0
 11
106.738448
 21
157.995480
 31
0.0
  0
LINE
  5
35a
100
AcDbEntity
  8
Layer_1
 62
7
100
AcDbLine
 10
106.738448
 20
157.995480
 30
0.0
 11
106.716266
 21
157.720060
 31
0.0
  0
LINE
  5
35b
100
AcDbEntity
  8
Layer_1
 62
7
100
AcDbLine
 10
106.716266
 20
157.720060
 30
0.0
 11
106.993069
 21
157.694236
 31
0.0
  0
LINE
  5
35c
100
AcDbEntity
  8
Layer_1
 62
7
100
AcDbLine
 10
106.993069
 20
157.694236
 30
0.0
 11
107.269111
 21
157.661442
 31
0.0
  0
LINE
  5
35d
100
AcDbEntity
  8
Layer_1
 62
7
100
AcDbLine
 10
107.269111
 20
157.661442
 30
0.0
 11
107.544249
 21
157.621677
 31
0.0
  0
LINE
  5
35e
100
AcDbEntity
  8
Layer_1
 62
7
100
AcDbLine
 10
107.544249
 20
157.621677
 30
0.0
 11
107.818287
 21
157.574969
 31
0.0
  0
LINE
  5
35f
100
AcDbEntity
  8
Layer_1
 62
7
100
AcDbLine
 10
107.818287
 20
157.574969
 30
0.0
 11
107.868156
 21
157.846749
 31
0.0
  0
LINE
  5
360
100
AcDbEntity
  8
Layer_1
 62
7
100
AcDbLine
 10
107.868156
 20
157.846749
 30
0.0
 11
107.913678
 21
157.997710
 31
0.0
  0
LINE
  5
361
100
AcDbEntity
  8
Layer_1
 62
7
100
AcDbLine
 10
107.913678
 20
157.997710
 30
0.0
 11
107.973876
 21
158.145876
 31
0.0
  0
LINE
  5
362
100
AcDbEntity
  8
Layer_1
 62
7
100
AcDbLine
 10
107.973876
 20
158.145876
 30
0.0
 11
108.043952
 21
158.292068
 31
0.0
  0
LINE
  5
363
100
AcDbEntity
  8
Layer_1
 62
7
100
AcDbLine
 10
108.043952
 20
158.292068
 30
0.0
 11
108.122268
 21
158.436509
 31
0.0
  0
LINE
  5
364
100
AcDbEntity
  8
Layer_1
 62
7
100
AcDbLine
 10
108.122268
 20
158.436509
 30
0.0
 11
108.207923
 21
158.579257
 31
0.0
  0
LINE
  5
365
100
AcDbEntity
  8
Layer_1
 62
7
100
AcDbLine
 10
108.207923
 20
158.579257
 30
0.0
 11
108.300322
 21
158.720368
 31
0.0
  0
LINE
  5
366
100
AcDbEntity
  8
Layer_1
 62
7
100
AcDbLine
 10
108.300322
 20
158.720368
 30
0.0
 11
108.399016
 21
158.859842
 31
0.0
  0
LINE
  5
367
100
AcDbEntity
  8
Layer_1
 62
7
100
AcDbLine
 10
108.399016
 20
158.859842
 30
0.0
 11
108.503692
 21
158.997595
 31
0.0
  0
LINE
  5
368
100
AcDbEntity
  8
Layer_1
 62
7
100
AcDbLine
 10
108.503692
 20
158.997595
 30
0.0
 11
108.614069
 21
159.133654
 31
0.0
  0
LINE
  5
369
100
AcDbEntity
  8
Layer_1
 62
7
100
AcDbLine
 10
108.614069
 20
159.133654
 30
0.0
 11
108.729949
 21
159.267936
 31
0.0
  0
LINE
  5
36a
100
AcDbEntity
  8
Layer_1
 62
7
100
AcDbLine
 10
108.729949
 20
159.267936
 30
0.0
 11
108.851164
 21
159.400439
 31
0.0
  0
LINE
  5
36b
100
AcDbEntity
  8
Layer_1
 62
7
100
AcDbLine
 10
108.851164
 20
159.400439
 30
0.0
 11
109.024872
 21
159.357710
 31
0.0
  0
LINE
  5
36c
100
AcDbEntity
  8
Layer_1
 62
7
100
AcDbLine
 10
109.024872
 20
159.357710
 30
0.0
 11
109.197987
 21
159.312583
 31
0.0
  0
LINE
  5
36d
100
AcDbEntity
  8
Layer_1
 62
7
100
AcDbLine
 10
109.197987
 20
159.312583
 30
0.0
 11
109.370453
 21
159.265113
 31
0.0
  0
LINE
  5
36e
100
AcDbEntity
  8
Layer_1
 62
7
100
AcDbLine
 10
109.370453
 20
159.265113
 30
0.0
 11
109.542241
 21
159.215245
 31
0.0
  0
LINE
  5
36f
100
AcDbEntity
  8
Layer_1
 62
7
100
AcDbLine
 10
109.542241
 20
159.215245
 30
0.0
 11
109.580962
 21
159.039928
 31
0.0
  0
LINE
  5
370
100
AcDbEntity
  8
Layer_1
 62
7
100
AcDbLine
 10
109.580962
 20
159.039928
 30
0.0
 11
109.614180
 21
158.865684
 31
0.0
  0
LINE
  5
371
100
AcDbEntity
  8
Layer_1
 62
7
100
AcDbLine
 10
109.614180
 20
158.865684
 30
0.0
 11
109.641753
 21
158.692654
 31
0.0
  0
LINE
  5
372
100
AcDbEntity
  8
Layer_1
 62
7
100
AcDbLine
 10
109.641753
 20
158.692654
 30
0.0
 11
109.663512
 21
158.521006
 31
0.0
  0
LINE
  5
373
100
AcDbEntity
  8
Layer_1
 62
7
100
AcDbLine
 10
109.663512
 20
158.521006
 30
0.0
 11
109.679260
 21
158.350883
 31
0.0
  0
LINE
  5
374
100
AcDbEntity
  8
Layer_1
 62
7
100
AcDbLine
 10
109.679260
 20
158.350883
 30
0.0
 11
109.688715
 21
158.182481
 31
0.0
  0
LINE
  5
375
100
AcDbEntity
  8
Layer_1
 62
7
100
AcDbLine
 10
109.688715
 20
158.182481
 30
0.0
 11
109.691537
 21
158.016026
 31
0.0
  0
LINE
  5
376
100
AcDbEntity
  8
Layer_1
 62
7
100
AcDbLine
 10
109.691537
 20
158.016026
 30
0.0
 11
109.687134
 21
157.851773
 31
0.0
  0
LINE
  5
377
100
AcDbEntity
  8
Layer_1
 62
7
100
AcDbLine
 10
109.687134
 20
157.851773
 30
0.0
 11
109.674716
 21
157.690144
 31
0.0
  0
LINE
  5
378
100
AcDbEntity
  8
Layer_1
 62
7
100
AcDbLine
 10
109.674716
 20
157.690144
 30
0.0
 11
109.652760
 21
157.531733
 31
0.0
  0
LINE
  5
379
100
AcDbEntity
  8
Layer_1
 62
7
100
AcDbLine
 10
109.652760
 20
157.531733
 30
0.0
 11
109.616720
 21
157.378232
 31
0.0
  0
LINE
  5
37a
100
AcDbEntity
  8
Layer_1
 62
7
100
AcDbLine
 10
109.616720
 20
157.378232
 30
0.0
 11
109.524010
 21
157.117938
 31
0.0
  0
LINE
  5
37b
100
AcDbEntity
  8
Layer_1
 62
7
100
AcDbLine
 10
109.524010
 20
157.117938
 30
0.0
 11
109.784698
 21
157.021362
 31
0.0
  0
LINE
  5
37c
100
AcDbEntity
  8
Layer_1
 62
7
100
AcDbLine
 10
109.784698
 20
157.021362
 30
0.0
 11
110.042847
 21
156.918238
 31
0.0
  0
LINE
  5
37d
100
AcDbEntity
  8
Layer_1
 62
7
100
AcDbLine
 10
110.042847
 20
156.918238
 30
0.0
 11
110.298315
 21
156.808623
 31
0.0
  0
LINE
  5
37e
100
AcDbEntity
  8
Layer_1
 62
7
100
AcDbLine
 10
110.298315
 20
156.808623
 30
0.0
 11
110.550932
 21
156.692573
 31
0.0
  0
LINE
  5
37f
100
AcDbEntity
  8
Layer_1
 62
7
100
AcDbLine
 10
110.550932
 20
156.692573
 30
0.0
 11
110.669437
 21
156.942170
 31
0.0
  0
LINE
  5
380
100
AcDbEntity
  8
Layer_1
 62
7
100
AcDbLine
 10
110.669437
 20
156.942170
 30
0.0
 11
110.752495
 21
157.076198
 31
0.0
  0
LINE
  5
381
100
AcDbEntity
  8
Layer_1
 62
7
100
AcDbLine
 10
110.752495
 20
157.076198
 30
0.0
 11
110.848958
 21
157.203762
 31
0.0
  0
LINE
  5
382
100
AcDbEntity
  8
Layer_1
 62
7
100
AcDbLine
 10
110.848958
 20
157.203762
 30
0.0
 11
110.954481
 21
157.326839
 31
0.0
  0
LINE
  5
383
100
AcDbEntity
  8
Layer_1
 62
7
100
AcDbLine
 10
110.954481
 20
157.326839
 30
0.0
 11
111.067540
 21
157.446078
 31
0.0
  0
LINE
  5
384
100
AcDbEntity
  8
Layer_1
 62
7
100
AcDbLine
 10
111.067540
 20
157.446078
 30
0.0
 11
111.187230
 21
157.561789
 31
0.0
  0
LINE
  5
385
100
AcDbEntity
  8
Layer_1
 62
7
100
AcDbLine
 10
111.187230
 20
157.561789
 30
0.0
 11
111.312988
 21
157.674170
 31
0.0
  0
LINE
  5
386
100
AcDbEntity
  8
Layer_1
 62
7
100
AcDbLine
 10
111.312988
 20
157.674170
 30
0.0
 11
111.444419
 21
157.783334
 31
0.0
  0
LINE
  5
387
100
AcDbEntity
  8
Layer_1
 62
7
100
AcDbLine
 10
111.444419
 20
157.783334
 30
0.0
 11
111.581184
 21
157.889336
 31
0.0
  0
LINE
  5
388
100
AcDbEntity
  8
Layer_1
 62
7
100
AcDbLine
 10
111.581184
 20
157.889336
 30
0.0
 11
111.723001
 21
157.992178
 31
0.0
  0
LINE
  5
389
100
AcDbEntity
  8
Layer_1
 62
7
100
AcDbLine
 10
111.723001
 20
157.992178
 30
0.0
 11
111.869700
 21
158.091887
 31
0.0
  0
LINE
  5
38a
100
AcDbEntity
  8
Layer_1
 62
7
100
AcDbLine
 10
111.869700
 20
158.091887
 30
0.0
 11
112.021056
 21
158.188492
 31
0.0
  0
LINE
  5
38b
100
AcDbEntity
  8
Layer_1
 62
7
100
AcDbLine
 10
112.021056
 20
158.188492
 30
0.0
 11
112.177802
 21
158.102273
 31
0.0
  0
LINE
  5
38c
100
AcDbEntity
  8
Layer_1
 62
7
100
AcDbLine
 10
112.177802
 20
158.102273
 30
0.0
 11
112.333334
 21
158.013881
 31
0.0
  0
LINE
  5
38d
100
AcDbEntity
  8
Layer_1
 62
7
100
AcDbLine
 10
112.333334
 20
158.013881
 30
0.0
 11
112.487625
 21
157.923372
 31
0.0
  0
LINE
  5
38e
100
AcDbEntity
  8
Layer_1
 62
7
100
AcDbLine
 10
112.487625
 20
157.923372
 30
0.0
 11
112.640674
 21
157.830747
 31
0.0
  0
LINE
  5
38f
100
AcDbEntity
  8
Layer_1
 62
7
100
AcDbLine
 10
112.640674
 20
157.830747
 30
0.0
 11
112.632716
 21
157.651367
 31
0.0
  0
LINE
  5
390
100
AcDbEntity
  8
Layer_1
 62
7
100
AcDbLine
 10
112.632716
 20
157.651367
 30
0.0
 11
112.619677
 21
157.474470
 31
0.0
  0
LINE
  5
391
100
AcDbEntity
  8
Layer_1
 62
7
100
AcDbLine
 10
112.619677
 20
157.474470
 30
0.0
 11
112.601530
 21
157.300226
 31
0.0
  0
LINE
  5
392
100
AcDbEntity
  8
Layer_1
 62
7
100
AcDbLine
 10
112.601530
 20
157.300226
 30
0.0
 11
112.578134
 21
157.128776
 31
0.0
  0
LINE
  5
393
100
AcDbEntity
  8
Layer_1
 62
7
100
AcDbLine
 10
112.578134
 20
157.128776
 30
0.0
 11
112.549319
 21
156.960402
 31
0.0
  0
LINE
  5
394
100
AcDbEntity
  8
Layer_1
 62
7
100
AcDbLine
 10
112.549319
 20
156.960402
 30
0.0
 11
112.514860
 21
156.795274
 31
0.0
  0
LINE
  5
395
100
AcDbEntity
  8
Layer_1
 62
7
100
AcDbLine
 10
112.514860
 20
156.795274
 30
0.0
 11
112.474502
 21
156.633758
 31
0.0
  0
LINE
  5
396
100
AcDbEntity
  8
Layer_1
 62
7
100
AcDbLine
 10
112.474502
 20
156.633758
 30
0.0
 11
112.427738
 21
156.476250
 31
0.0
  0
LINE
  5
397
100
AcDbEntity
  8
Layer_1
 62
7
100
AcDbLine
 10
112.427738
 20
156.476250
 30
0.0
 11
112.373918
 21
156.323314
 31
0.0
  0
LINE
  5
398
100
AcDbEntity
  8
Layer_1
 62
7
100
AcDbLine
 10
112.373918
 20
156.323314
 30
0.0
 11
112.311688
 21
156.175994
 31
0.0
  0
LINE
  5
399
100
AcDbEntity
  8
Layer_1
 62
7
100
AcDbLine
 10
112.311688
 20
156.175994
 30
0.0
 11
112.237153
 21
156.037056
 31
0.0
  0
LINE
  5
39a
100
AcDbEntity
  8
Layer_1
 62
7
100
AcDbLine
 10
112.237153
 20
156.037056
 30
0.0
 11
112.080238
 21
155.809613
 31
0.0
  0
LINE
  5
39b
100
AcDbEntity
  8
Layer_1
 62
7
100
AcDbLine
 10
112.080238
 20
155.809613
 30
0.0
 11
112.307031
 21
155.648887
 31
0.0
  0
LINE
  5
39c
100
AcDbEntity
  8
Layer_1
 62
7
100
AcDbLine
 10
112.307031
 20
155.648887
 30
0.0
 11
112.529705
 21
155.482432
 31
0.0
  0
LINE
  5
39d
100
AcDbEntity
  8
Layer_1
 62
7
100
AcDbLine
 10
112.529705
 20
155.482432
 30
0.0
 11
112.748088
 21
155.310446
 31
0.0
  0
LINE
  5
39e
100
AcDbEntity
  8
Layer_1
 62
7
100
AcDbLine
 10
112.748088
 20
155.310446
 30
0.0
 11
112.962069
 21
155.132985
 31
0.0
  0
LINE
  5
39f
100
AcDbEntity
  8
Layer_1
 62
7
100
AcDbLine
 10
112.962069
 20
155.132985
 30
0.0
 11
113.141139
 21
155.343410
 31
0.0
  0
LINE
  5
3a0
100
AcDbEntity
  8
Layer_1
 62
7
100
AcDbLine
 10
113.141139
 20
155.343410
 30
0.0
 11
113.256060
 21
155.451360
 31
0.0
  0
LINE
  5
3a1
100
AcDbEntity
  8
Layer_1
 62
7
100
AcDbLine
 10
113.256060
 20
155.451360
 30
0.0
 11
113.382270
 21
155.549601
 31
0.0
  0
LINE
  5
3a2
100
AcDbEntity
  8
Layer_1
 62
7
100
AcDbLine
 10
113.382270
 20
155.549601
 30
0.0
 11
113.516043
 21
155.641182
 31
0.0
  0
LINE
  5
3a3
100
AcDbEntity
  8
Layer_1
 62
7
100
AcDbLine
 10
113.516043
 20
155.641182
 30
0.0
 11
113.656082
 21
155.727091
 31
0.0
  0
LINE
  5
3a4
100
AcDbEntity
  8
Layer_1
 62
7
100
AcDbLine
 10
113.656082
 20
155.727091
 30
0.0
 11
113.801652
 21
155.807891
 31
0.0
  0
LINE
  5
3a5
100
AcDbEntity
  8
Layer_1
 62
7
100
AcDbLine
 10
113.801652
 20
155.807891
 30
0.0
 11
113.952218
 21
155.883894
 31
0.0
  0
LINE
  5
3a6
100
AcDbEntity
  8
Layer_1
 62
7
100
AcDbLine
 10
113.952218
 20
155.883894
 30
0.0
 11
114.107412
 21
155.955324
 31
0.0
  0
LINE
  5
3a7
100
AcDbEntity
  8
Layer_1
 62
7
100
AcDbLine
 10
114.107412
 20
155.955324
 30
0.0
 11
114.266952
 21
156.022295
 31
0.0
  0
LINE
  5
3a8
100
AcDbEntity
  8
Layer_1
 62
7
100
AcDbLine
 10
114.266952
 20
156.022295
 30
0.0
 11
114.430584
 21
156.084920
 31
0.0
  0
LINE
  5
3a9
100
AcDbEntity
  8
Layer_1
 62
7
100
AcDbLine
 10
114.430584
 20
156.084920
 30
0.0
 11
114.598083
 21
156.143284
 31
0.0
  0
LINE
  5
3aa
100
AcDbEntity
  8
Layer_1
 62
7
100
AcDbLine
 10
114.598083
 20
156.143284
 30
0.0
 11
114.769279
 21
156.197414
 31
0.0
  0
LINE
  5
3ab
100
AcDbEntity
  8
Layer_1
 62
7
100
AcDbLine
 10
114.769279
 20
156.197414
 30
0.0
 11
114.898368
 21
156.073575
 31
0.0
  0
LINE
  5
3ac
100
AcDbEntity
  8
Layer_1
 62
7
100
AcDbLine
 10
114.898368
 20
156.073575
 30
0.0
 11
115.025734
 21
155.947958
 31
0.0
  0
LINE
  5
3ad
100
AcDbEntity
  8
Layer_1
 62
7
100
AcDbLine
 10
115.025734
 20
155.947958
 30
0.0
 11
115.151352
 21
155.820591
 31
0.0
  0
LINE
  5
3ae
100
AcDbEntity
  8
Layer_1
 62
7
100
AcDbLine
 10
115.151352
 20
155.820591
 30
0.0
 11
115.275191
 21
155.691503
 31
0.0
  0
LINE
  5
3af
100
AcDbEntity
  8
Layer_1
 62
7
100
AcDbLine
 10
115.275191
 20
155.691503
 30
0.0
 11
115.221060
 21
155.520307
 31
0.0
  0
LINE
  5
3b0
100
AcDbEntity
  8
Layer_1
 62
7
100
AcDbLine
 10
115.221060
 20
155.520307
 30
0.0
 11
115.162697
 21
155.352808
 31
0.0
  0
LINE
  5
3b1
100
AcDbEntity
  8
Layer_1
 62
7
100
AcDbLine
 10
115.162697
 20
155.352808
 30
0.0
 11
115.100072
 21
155.189175
 31
0.0
  0
LINE
  5
3b2
100
AcDbEntity
  8
Layer_1
 62
7
100
AcDbLine
 10
115.100072
 20
155.189175
 30
0.0
 11
115.033100
 21
155.029635
 31
0.0
  0
LINE
  5
3b3
100
AcDbEntity
  8
Layer_1
 62
7
100
AcDbLine
 10
115.033100
 20
155.029635
 30
0.0
 11
114.961670
 21
154.874441
 31
0.0
  0
LINE
  5
3b4
100
AcDbEntity
  8
Layer_1
 62
7
100
AcDbLine
 10
114.961670
 20
154.874441
 30
0.0
 11
114.885668
 21
154.723876
 31
0.0
  0
LINE
  5
3b5
100
AcDbEntity
  8
Layer_1
 62
7
100
AcDbLine
 10
114.885668
 20
154.723876
 30
0.0
 11
114.804867
 21
154.578305
 31
0.0
  0
LINE
  5
3b6
100
AcDbEntity
  8
Layer_1
 62
7
100
AcDbLine
 10
114.804867
 20
154.578305
 30
0.0
 11
114.718959
 21
154.438267
 31
0.0
  0
LINE
  5
3b7
100
AcDbEntity
  8
Layer_1
 62
7
100
AcDbLine
 10
114.718959
 20
154.438267
 30
0.0
 11
114.627378
 21
154.304493
 31
0.0
  0
LINE
  5
3b8
100
AcDbEntity
  8
Layer_1
 62
7
100
AcDbLine
 10
114.627378
 20
154.304493
 30
0.0
 11
114.529136
 21
154.178284
 31
0.0
  0
LINE
  5
3b9
100
AcDbEntity
  8
Layer_1
 62
7
100
AcDbLine
 10
114.529136
 20
154.178284
 30
0.0
 11
114.421186
 21
154.063363
 31
0.0
  0
LINE
  5
3ba
100
AcDbEntity
  8
Layer_1
 62
7
100
AcDbLine
 10
114.421186
 20
154.063363
 30
0.0
 11
114.210761
 21
153.884293
 31
0.0
  0
LINE
  5
3bb
100
AcDbEntity
  8
Layer_1
 62
7
100
AcDbLine
 10
114.210761
 20
153.884293
 30
0.0
 11
114.388223
 21
153.670312
 31
0.0
  0
LINE
  5
3bc
100
AcDbEntity
  8
Layer_1
 62
7
100
AcDbLine
 10
114.388223
 20
153.670312
 30
0.0
 11
114.560209
 21
153.451928
 31
0.0
  0
LINE
  5
3bd
100
AcDbEntity
  8
Layer_1
 62
7
100
AcDbLine
 10
114.560209
 20
153.451928
 30
0.0
 11
114.726664
 21
153.229255
 31
0.0
  0
LINE
  5
3be
100
AcDbEntity
  8
Layer_1
 62
7
100
AcDbLine
 10
114.726664
 20
153.229255
 30
0.0
 11
114.887389
 21
153.002461
 31
0.0
  0
LINE
  5
3bf
100
AcDbEntity
  8
Layer_1
 62
7
100
AcDbLine
 10
114.887389
 20
153.002461
 30
0.0
 11
115.114832
 21
153.159377
 31
0.0
  0
LINE
  5
3c0
100
AcDbEntity
  8
Layer_1
 62
7
100
AcDbLine
 10
115.114832
 20
153.159377
 30
0.0
 11
115.253770
 21
153.233912
 31
0.0
  0
LINE
  5
3c1
100
AcDbEntity
  8
Layer_1
 62
7
100
AcDbLine
 10
115.253770
 20
153.233912
 30
0.0
 11
115.401090
 21
153.296142
 31
0.0
  0
LINE
  5
3c2
100
AcDbEntity
  8
Layer_1
 62
7
100
AcDbLine
 10
115.401090
 20
153.296142
 30
0.0
 11
115.554026
 21
153.349961
 31
0.0
  0
LINE
  5
3c3
100
AcDbEntity
  8
Layer_1
 62
7
100
AcDbLine
 10
115.554026
 20
153.349961
 30
0.0
 11
115.711534
 21
153.396726
 31
0.0
  0
LINE
  5
3c4
100
AcDbEntity
  8
Layer_1
 62
7
100
AcDbLine
 10
115.711534
 20
153.396726
 30
0.0
 11
115.873050
 21
153.437083
 31
0.0
  0
LINE
  5
3c5
100
AcDbEntity
  8
Layer_1
 62
7
100
AcDbLine
 10
115.873050
 20
153.437083
 30
0.0
 11
116.038178
 21
153.471543
 31
0.0
  0
LINE
  5
3c6
100
AcDbEntity
  8
Layer_1
 62
7
100
AcDbLine
 10
116.038178
 20
153.471543
 30
0.0
 11
116.206552
 21
153.500358
 31
0.0
  0
LINE
  5
3c7
100
AcDbEntity
  8
Layer_1
 62
7
100
AcDbLine
 10
116.206552
 20
153.500358
 30
0.0
 11
116.378002
 21
153.523754
 31
0.0
  0
LINE
  5
3c8
100
AcDbEntity
  8
Layer_1
 62
7
100
AcDbLine
 10
116.378002
 20
153.523754
 30
0.0
 11
116.552246
 21
153.541901
 31
0.0
  0
LINE
  5
3c9
100
AcDbEntity
  8
Layer_1
 62
7
100
AcDbLine
 10
116.552246
 20
153.541901
 30
0.0
 11
116.729143
 21
153.554939
 31
0.0
  0
LINE
  5
3ca
100
AcDbEntity
  8
Layer_1
 62
7
100
AcDbLine
 10
116.729143
 20
153.554939
 30
0.0
 11
116.908524
 21
153.562898
 31
0.0
  0
LINE
  5
3cb
100
AcDbEntity
  8
Layer_1
 62
7
100
AcDbLine
 10
116.908524
 20
153.562898
 30
0.0
 11
117.001149
 21
153.409849
 31
0.0
  0
LINE
  5
3cc
100
AcDbEntity
  8
Layer_1
 62
7
100
AcDbLine
 10
117.001149
 20
153.409849
 30
0.0
 11
117.091658
 21
153.255558
 31
0.0
  0
LINE
  5
3cd
100
AcDbEntity
  8
Layer_1
 62
7
100
AcDbLine
 10
117.091658
 20
153.255558
 30
0.0
 11
117.180050
 21
153.100025
 31
0.0
  0
LINE
  5
3ce
100
AcDbEntity
  8
Layer_1
 62
7
100
AcDbLine
 10
117.180050
 20
153.100025
 30
0.0
 11
117.266268
 21
152.943279
 31
0.0
  0
LINE
  5
3cf
100
AcDbEntity
  8
Layer_1
 62
7
100
AcDbLine
 10
117.266268
 20
152.943279
 30
0.0
 11
117.169664
 21
152.791923
 31
0.0
  0
LINE
  5
3d0
100
AcDbEntity
  8
Layer_1
 62
7
100
AcDbLine
 10
117.169664
 20
152.791923
 30
0.0
 11
117.069955
 21
152.645224
 31
0.0
  0
LINE
  5
3d1
100
AcDbEntity
  8
Layer_1
 62
7
100
AcDbLine
 10
117.069955
 20
152.645224
 30
0.0
 11
116.967113
 21
152.503408
 31
0.0
  0
LINE
  5
3d2
100
AcDbEntity
  8
Layer_1
 62
7
100
AcDbLine
 10
116.967113
 20
152.503408
 30
0.0
 11
116.861110
 21
152.366643
 31
0.0
  0
LINE
  5
3d3
100
AcDbEntity
  8
Layer_1
 62
7
100
AcDbLine
 10
116.861110
 20
152.366643
 30
0.0
 11
116.751947
 21
152.235212
 31
0.0
  0
LINE
  5
3d4
100
AcDbEntity
  8
Layer_1
 62
7
100
AcDbLine
 10
116.751947
 20
152.235212
 30
0.0
 11
116.639566
 21
152.109454
 31
0.0
  0
LINE
  5
3d5
100
AcDbEntity
  8
Layer_1
 62
7
100
AcDbLine
 10
116.639566
 20
152.109454
 30
0.0
 11
116.523855
 21
151.989763
 31
0.0
  0
LINE
  5
3d6
100
AcDbEntity
  8
Layer_1
 62
7
100
AcDbLine
 10
116.523855
 20
151.989763
 30
0.0
 11
116.404616
 21
151.876705
 31
0.0
  0
LINE
  5
3d7
100
AcDbEntity
  8
Layer_1
 62
7
100
AcDbLine
 10
116.404616
 20
151.876705
 30
0.0
 11
116.281539
 21
151.771182
 31
0.0
  0
LINE
  5
3d8
100
AcDbEntity
  8
Layer_1
 62
7
100
AcDbLine
 10
116.281539
 20
151.771182
 30
0.0
 11
116.153974
 21
151.674718
 31
0.0
  0
LINE
  5
3d9
100
AcDbEntity
  8
Layer_1
 62
7
100
AcDbLine
 10
116.153974
 20
151.674718
 30
0.0
 11
116.019947
 21
151.591660
 31
0.0
  0
LINE
  5
3da
100
AcDbEntity
  8
Layer_1
 62
7
100
AcDbLine
 10
116.019947
 20
151.591660
 30
0.0
 11
115.770350
 21
151.473155
 31
0.0
  0
LINE
  5
3db
100
AcDbEntity
  8
Layer_1
 62
7
100
AcDbLine
 10
115.770350
 20
151.473155
 30
0.0
 11
115.886399
 21
151.220538
 31
0.0
  0
LINE
  5
3dc
100
AcDbEntity
  8
Layer_1
 62
7
100
AcDbLine
 10
115.886399
 20
151.220538
 30
0.0
 11
115.996014
 21
150.965071
 31
0.0
  0
LINE
  5
3dd
100
AcDbEntity
  8
Layer_1
 62
7
100
AcDbLine
 10
115.996014
 20
150.965071
 30
0.0
 11
116.099138
 21
150.706922
 31
0.0
  0
LINE
  5
3de
100
AcDbEntity
  8
Layer_1
 62
7
100
AcDbLine
 10
116.099138
 20
150.706922
 30
0.0
 11
116.195715
 21
150.446233
 31
0.0
  0
LINE
  5
3df
100
AcDbEntity
  8
Layer_1
 62
7
100
AcDbLine
 10
116.195715
 20
150.446233
 30
0.0
 11
116.456008
 21
150.538943
 31
0.0
  0
LINE
  5
3e0
100
AcDbEntity
  8
Layer_1
 62
7
100
AcDbLine
 10
116.456008
 20
150.538943
 30
0.0
 11
116.609509
 21
150.574983
 31
0.0
  0
LINE
  5
3e1
100
AcDbEntity
  8
Layer_1
 62
7
100
AcDbLine
 10
116.609509
 20
150.574983
 30
0.0
 11
116.767920
 21
150.596940
 31
0.0
  0
LINE
  5
3e2
100
AcDbEntity
  8
Layer_1
 62
7
100
AcDbLine
 10
116.767920
 20
150.596940
 30
0.0
 11
116.929549
 21
150.609358
 31
0.0
  0
LINE
  5
3e3
100
AcDbEntity
  8
Layer_1
 62
7
100
AcDbLine
 10
116.929549
 20
150.609358
 30
0.0
 11
117.093802
 21
150.613760
 31
0.0
  0
LINE
  5
3e4
100
AcDbEntity
  8
Layer_1
 62
7
100
AcDbLine
 10
117.093802
 20
150.613760
 30
0.0
 11
117.260257
 21
150.610938
 31
0.0
  0
LINE
  5
3e5
100
AcDbEntity
  8
Layer_1
 62
7
100
AcDbLine
 10
117.260257
 20
150.610938
 30
0.0
 11
117.428659
 21
150.601484
 31
0.0
  0
LINE
  5
3e6
100
AcDbEntity
  8
Layer_1
 62
7
100
AcDbLine
 10
117.428659
 20
150.601484
 30
0.0
 11
117.598783
 21
150.585736
 31
0.0
  0
LINE
  5
3e7
100
AcDbEntity
  8
Layer_1
 62
7
100
AcDbLine
 10
117.598783
 20
150.585736
 30
0.0
 11
117.770430
 21
150.563976
 31
0.0
  0
LINE
  5
3e8
100
AcDbEntity
  8
Layer_1
 62
7
100
AcDbLine
 10
117.770430
 20
150.563976
 30
0.0
 11
117.943461
 21
150.536403
 31
0.0
  0
LINE
  5
3e9
100
AcDbEntity
  8
Layer_1
 62
7
100
AcDbLine
 10
117.943461
 20
150.536403
 30
0.0
 11
118.117705
 21
150.503186
 31
0.0
  0
LINE
  5
3ea
100
AcDbEntity
  8
Layer_1
 62
7
100
AcDbLine
 10
118.117705
 20
150.503186
 30
0.0
 11
118.293021
 21
150.464465
 31
0.0
  0
LINE
  5
3eb
100
AcDbEntity
  8
Layer_1
 62
7
100
AcDbLine
 10
118.293021
 20
150.464465
 30
0.0
 11
118.342890
 21
150.292676
 31
0.0
  0
LINE
  5
3ec
100
AcDbEntity
  8
Layer_1
 62
7
100
AcDbLine
 10
118.342890
 20
150.292676
 30
0.0
 11
118.390360
 21
150.120210
 31
0.0
  0
LINE
  5
3ed
100
AcDbEntity
  8
Layer_1
 62
7
100
AcDbLine
 10
118.390360
 20
150.120210
 30
0.0
 11
118.435487
 21
149.947095
 31
0.0
  0
LINE
  5
3ee
100
AcDbEntity
  8
Layer_1
 62
7
100
AcDbLine
 10
118.435487
 20
149.947095
 30
0.0
 11
118.478215
 21
149.773387
 31
0.0
  0
LINE
  5
3ef
100
AcDbEntity
  8
Layer_1
 62
7
100
AcDbLine
 10
118.478215
 20
149.773387
 30
0.0
 11
118.345712
 21
149.652173
 31
0.0
  0
LINE
  5
3f0
100
AcDbEntity
  8
Layer_1
 62
7
100
AcDbLine
 10
118.345712
 20
149.652173
 30
0.0
 11
118.211431
 21
149.536292
 31
0.0
  0
LINE
  5
3f1
100
AcDbEntity
  8
Layer_1
 62
7
100
AcDbLine
 10
118.211431
 20
149.536292
 30
0.0
 11
118.075371
 21
149.425915
 31
0.0
  0
LINE
  5
3f2
100
AcDbEntity
  8
Layer_1
 62
7
100
AcDbLine
 10
118.075371
 20
149.425915
 30
0.0
 11
117.937619
 21
149.321239
 31
0.0
  0
LINE
  5
3f3
100
AcDbEntity
  8
Layer_1
 62
7
100
AcDbLine
 10
117.937619
 20
149.321239
 30
0.0
 11
117.798144
 21
149.222546
 31
0.0
  0
LINE
  5
3f4
100
AcDbEntity
  8
Layer_1
 62
7
100
AcDbLine
 10
117.798144
 20
149.222546
 30
0.0
 11
117.657033
 21
149.130146
 31
0.0
  0
LINE
  5
3f5
100
AcDbEntity
  8
Layer_1
 62
7
100
AcDbLine
 10
117.657033
 20
149.130146
 30
0.0
 11
117.514285
 21
149.044492
 31
0.0
  0
LINE
  5
3f6
100
AcDbEntity
  8
Layer_1
 62
7
100
AcDbLine
 10
117.514285
 20
149.044492
 30
0.0
 11
117.369844
 21
148.966175
 31
0.0
  0
LINE
  5
3f7
100
AcDbEntity
  8
Layer_1
 62
7
100
AcDbLine
 10
117.369844
 20
148.966175
 30
0.0
 11
117.223653
 21
148.896100
 31
0.0
  0
LINE
  5
3f8
100
AcDbEntity
  8
Layer_1
 62
7
100
AcDbLine
 10
117.223653
 20
148.896100
 30
0.0
 11
117.075486
 21
148.835902
 31
0.0
  0
LINE
  5
3f9
100
AcDbEntity
  8
Layer_1
 62
7
100
AcDbLine
 10
117.075486
 20
148.835902
 30
0.0
 11
116.924526
 21
148.790379
 31
0.0
  0
LINE
  5
3fa
100
AcDbEntity
  8
Layer_1
 62
7
100
AcDbLine
 10
116.924526
 20
148.790379
 30
0.0
 11
116.652746
 21
148.740510
 31
0.0
  0
LINE
  5
3fb
100
AcDbEntity
  8
Layer_1
 62
7
100
AcDbLine
 10
116.652746
 20
148.740510
 30
0.0
 11
116.699453
 21
148.466473
 31
0.0
  0
LINE
  5
3fc
100
AcDbEntity
  8
Layer_1
 62
7
100
AcDbLine
 10
116.699453
 20
148.466473
 30
0.0
 11
116.739218
 21
148.191334
 31
0.0
  0
LINE
  5
3fd
100
AcDbEntity
  8
Layer_1
 62
7
100
AcDbLine
 10
116.739218
 20
148.191334
 30
0.0
 11
116.772013
 21
147.915293
 31
0.0
  0
LINE
  5
3fe
100
AcDbEntity
  8
Layer_1
 62
7
100
AcDbLine
 10
116.772013
 20
147.915293
 30
0.0
 11
116.797836
 21
147.638489
 31
0.0
  0
LINE
  5
3ff
100
AcDbEntity
  8
Layer_1
 62
7
100
AcDbLine
 10
116.797836
 20
147.638489
 30
0.0
 11
117.073257
 21
147.660672
 31
0.0
  0
LINE
  5
400
100
AcDbEntity
  8
Layer_1
 62
7
100
AcDbLine
 10
29.868519
 20
255.582321
 30
0.0
 11
105.833333
 21
146.755557
 31
0.0
  0
SPLINE
  5
401
100
AcDbEntity
  8
Layer_1
 62
7
100
AcDbSpline
 70
0
 71
3
 72
10
 73
6
 74
4
 40
0.000000
 40
0.000000
 40
0.000000
 40
0.000000
 40
29.492763
 40
58.985527
 40
117.971053
 40
117.971053
 40
117.971053
 40
117.971053
 10
29.868519
 20
255.582321
 30
0.0
 10
35.006235
 20
248.222056
 30
0.0
 10
45.281669
 20
233.501528
 30
0.0
 10
77.575890
 20
187.237010
 30
0.0
 10
48.951467
 20
228.244196
 30
0.0
 10
29.868519
 20
255.582321
 30
0.0
 11
29.868519
 21
255.582321
 31
0.0
 11
46.749588
 21
231.398595
 31
0.0
 11
63.630658
 21
207.214870
 31
0.0
 11
29.868519
 21
255.582321
 31
0.0
  0
LINE
  5
402
100
AcDbEntity
  8
Layer_1
 62
7
100
AcDbLine
 10
103.910694
 20
145.393750
 30
0.0
 11
107.755972
 21
145.393750
 31
0.0
  0
SPLINE
  5
403
100
AcDbEntity
  8
Layer_1
 62
7
100
AcDbSpline
 70
0
 71
3
 72
13
 73
9
 74
7
 40
0.000000
 40
0.000000
 40
0.000000
 40
0.000000
 40
0.470236
 40
0.949177
 40
1.442642
 40
1.937752
 40
2.416394
 40
2.888551
 40
2.888551
 40
2.888551
 40
2.888551
 10
103.901875
 20
148.110139
 30
0.0
 10
103.819335
 20
147.976238
 30
0.0
 10
103.652726
 20
147.705959
 30
0.0
 10
103.512296
 20
147.240796
 30
0.0
 10
103.461255
 20
146.751427
 30
0.0
 10
103.512851
 20
146.261974
 30
0.0
 10
103.657804
 20
145.796954
 30
0.0
 10
103.826782
 20
145.527539
 30
0.0
 10
103.910694
 20
145.393750
 30
0.0
 11
103.901875
 21
148.110139
 31
0.0
 11
103.672468
 21
147.699658
 31
0.0
 11
103.528468
 21
147.242878
 31
0.0
 11
103.478542
 21
146.751944
 31
0.0
 11
103.529814
 21
146.259497
 31
0.0
 11
103.677121
 21
145.804086
 31
0.0
 11
103.910694
 21
145.393750
 31
0.0
  0
LINE
  5
404
100
AcDbEntity
  8
Layer_1
 62
7
100
AcDbLine
 10
107.764792
 20
148.110139
 30
0.0
 11
103.901875
 21
148.110139
 31
0.0
  0
LINE
  5
405
100
AcDbEntity
  8
Layer_1
 62
7
100
AcDbLine
 10
103.901875
 20
148.110139
 30
0.0
 11
103.901875
 21
148.110139
 31
0.0
  0
SPLINE
  5
406
100
AcDbEntity
  8
Layer_1
 62
7
100
AcDbSpline
 70
0
 71
3
 72
13
 73
9
 74
7
 40
0.000000
 40
0.000000
 40
0.000000
 40
0.000000
 40
0.472157
 40
0.950799
 40
1.445909
 40
1.939374
 40
2.418315
 40
2.888551
 40
2.888551
 40
2.888551
 40
2.888551
 10
107.755972
 20
145.393750
 30
0.0
 10
107.839885
 20
145.527539
 30
0.0
 10
108.008863
 20
145.796954
 30
0.0
 10
108.153816
 20
146.261974
 30
0.0
 10
108.205412
 20
146.751427
 30
0.0
 10
108.154370
 20
147.240796
 30
0.0
 10
108.013941
 20
147.705959
 30
0.0
 10
107.847332
 20
147.976238
 30
0.0
 10
107.764792
 20
148.110139
 30
0.0
 11
107.755972
 21
145.393750
 31
0.0
 11
107.989546
 21
145.804086
 31
0.0
 11
108.136852
 21
146.259497
 31
0.0
 11
108.188125
 21
146.751944
 31
0.0
 11
108.138199
 21
147.242878
 31
0.0
 11
107.994198
 21
147.699658
 31
0.0
 11
107.764792
 21
148.110139
 31
0.0
  0
ENDSEC
  0
SECTION
  2
OBJECTS
  0
DICTIONARY
  5
C
330
0
100
AcDbDictionary
  3
ACAD_GROUP
350
D
  3
ACAD_MLINESTYLE
350
17
  0
DICTIONARY
  5
D
330
C
100
AcDbDictionary
  0
DICTIONARY
  5
1A
330
C
100
AcDbDictionary
  0
DICTIONARY
  5
17
330
C
100
AcDbDictionary
  3
STANDARD
350
18
  0
DICTIONARY
  5
19
330
C
100
AcDbDictionary
  0
ENDSEC
  0
EOF
