<?xml version="1.0" encoding="UTF-8" standalone="no"?>
<!-- Created with Inkscape (http://www.inkscape.org/) -->

<svg
   xmlns:dc="http://purl.org/dc/elements/1.1/"
   xmlns:cc="http://creativecommons.org/ns#"
   xmlns:rdf="http://www.w3.org/1999/02/22-rdf-syntax-ns#"
   xmlns:svg="http://www.w3.org/2000/svg"
   xmlns="http://www.w3.org/2000/svg"
   xmlns:sodipodi="http://sodipodi.sourceforge.net/DTD/sodipodi-0.dtd"
   xmlns:inkscape="http://www.inkscape.org/namespaces/inkscape"
   width="744.09448819"
   height="1052.3622047"
   id="svg2"
   version="1.1"
   inkscape:version="0.48.4 r9939"
   sodipodi:docname="drawing.dxf">
  <sodipodi:namedview
     id="base"
     pagecolor="#ffffff"
     bordercolor="#666666"
     borderopacity="1.0"
     inkscape:pageopacity="0.0"
     inkscape:pageshadow="2"
     inkscape:zoom="7.0207452"
     inkscape:cx="357.97901"
     inkscape:cy="519.99998"
     inkscape:document-units="px"
     inkscape:current-layer="layer1"
     showgrid="false"
     inkscape:window-width="1440"
     inkscape:window-height="838"
     inkscape:window-x="-8"
     inkscape:window-y="102"
     inkscape:window-maximized="1" />
  <defs
     id="defs4" />
  <metadata
     id="metadata7">
    <rdf:RDF>
      <cc:Work
         rdf:about="">
        <dc:format>image/svg+xml</dc:format>
        <dc:type
           rdf:resource="http://purl.org/dc/dcmitype/StillImage" />
        <dc:title></dc:title>
      </cc:Work>
    </rdf:RDF>
  </metadata>
  <g
     id="layer1"
     inkscape:groupmode="layer"
     inkscape:label="Layer 1">
    <path
       inkscape:connector-curvature="0"
       style="fill:none;stroke:#000000;stroke-width:0.60000002"
       d="m 414.8265,529.1551 0.5584,0.0174 0.5623,0.0701 0.5647,0.1057 0.5661,0.1356 0.5672,0.1623 0.5677,0.1868 0.5678,0.2099 0.5675,0.2319 0.5669,0.253 0.5659,0.2735 0.5645,0.2934 0.0131,0.6337 0.004,0.6338 -0.004,0.6338 -0.0131,0.6337 -0.5645,0.2934 -0.5659,0.2735 -0.5669,0.253 -0.5675,0.2319 -0.5678,0.2099 -0.5677,0.1868 -0.5672,0.1623 -0.5661,0.1356 -0.5647,0.1057 -0.5623,0.0701 -0.5584,0.0174 -0.9759,-0.0786 -0.0915,0.9808 -0.1162,0.9781 -0.1409,0.9749 -0.1655,0.971 0.963,0.1767 0.5349,0.1613 0.525,0.2133 0.518,0.2483 0.5118,0.2775 0.5058,0.3035 0.5,0.3274 0.4942,0.3497 0.4881,0.3709 0.4821,0.3911 0.4758,0.4106 0.4695,0.4295 -0.1514,0.6155 -0.1599,0.6134 -0.1682,0.6111 -0.1767,0.6087 -0.6212,0.1372 -0.6174,0.1177 -0.6131,0.0977 -0.6082,0.0771 -0.6028,0.0558 -0.5967,0.0335 -0.5898,0.01 -0.582,-0.0156 -0.5727,-0.044 -0.5613,-0.0778 -0.5439,-0.1277 -0.9223,-0.3285 -0.3422,0.9237 -0.3654,0.9147 -0.3884,0.9052 -0.4112,0.8951 0.8844,0.4199 0.4749,0.2943 0.452,0.3418 0.4361,0.3739 0.4225,0.4006 0.41,0.4241 0.3982,0.4456 0.3868,0.4657 0.3756,0.4846 0.3644,0.5025 0.3533,0.5198 0.3423,0.5363 -0.3055,0.5554 -0.3132,0.5511 -0.3207,0.5467 -0.3282,0.5423 -0.6356,-0.0282 -0.6268,-0.0462 -0.6174,-0.0643 -0.6075,-0.0829 -0.5966,-0.1021 -0.5851,-0.1221 -0.5723,-0.143 -0.5581,-0.1657 -0.5419,-0.1907 -0.522,-0.2205 -0.4923,-0.2641 -0.8059,-0.556 -0.5695,0.8036 -0.5898,0.789 -0.6094,0.7738 -0.6288,0.7582 0.7456,0.6345 0.3825,0.4072 0.3481,0.4472 0.3245,0.474 0.3044,0.4962 0.2863,0.5158 0.2693,0.5335 0.2531,0.5499 0.2373,0.5653 0.2219,0.5798 0.2068,0.5935 0.1918,0.6066 -0.4388,0.4574 -0.4451,0.4513 -0.4513,0.4451 -0.4574,0.4388 -0.6066,-0.1918 -0.5935,-0.2068 -0.5798,-0.2219 -0.5653,-0.2373 -0.5499,-0.2531 -0.5335,-0.2693 -0.5158,-0.2863 -0.4962,-0.3044 -0.474,-0.3245 -0.4472,-0.3481 -0.4072,-0.3825 -0.6345,-0.7456 -0.7582,0.6288 -0.7738,0.6094 -0.789,0.5898 -0.8036,0.5695 0.556,0.8059 0.2641,0.4923 0.2205,0.522 0.1907,0.5419 0.1657,0.5581 0.143,0.5723 0.1221,0.5851 0.1021,0.5966 0.0829,0.6075 0.0643,0.6174 0.0462,0.6268 0.0282,0.6356 -0.5423,0.3282 -0.5467,0.3207 -0.5511,0.3132 -0.5554,0.3055 -0.5363,-0.3423 -0.5198,-0.3533 -0.5025,-0.3644 -0.4846,-0.3756 -0.4657,-0.3868 -0.4456,-0.3982 -0.4241,-0.41 -0.4006,-0.4225 -0.3739,-0.4361 -0.3418,-0.452 -0.2943,-0.4749 -0.4199,-0.8844 -0.8951,0.4112 -0.9052,0.3884 -0.9147,0.3654 -0.9237,0.3422 0.3285,0.9223 0.1277,0.5439 0.0778,0.5613 0.044,0.5727 0.0156,0.582 -0.01,0.5898 -0.0335,0.5967 -0.0558,0.6028 -0.0771,0.6082 -0.0977,0.6131 -0.1177,0.6174 -0.1372,0.6212 -0.6087,0.1767 -0.6111,0.1682 -0.6134,0.1599 -0.6155,0.1514 -0.4295,-0.4695 -0.4106,-0.4758 -0.3911,-0.4821 -0.3709,-0.4881 -0.3497,-0.4942 -0.3274,-0.5 -0.3035,-0.5058 -0.2775,-0.5118 -0.2483,-0.518 -0.2133,-0.525 -0.1613,-0.5349 -0.1767,-0.963 -0.971,0.1655 -0.9749,0.1409 -0.9781,0.1162 -0.9808,0.0915 0.0786,0.9759 -0.0174,0.5584 -0.0701,0.5623 -0.1057,0.5647 -0.1356,0.5661 -0.1623,0.5672 -0.1868,0.5677 -0.2099,0.5678 -0.2319,0.5675 -0.253,0.5669 -0.2735,0.5659 -0.2934,0.5645 -0.6337,0.0131 -0.6338,0.004 -0.6338,-0.004 -0.6337,-0.0131 -0.2934,-0.5645 -0.2735,-0.5659 -0.253,-0.5669 -0.2319,-0.5675 -0.2099,-0.5678 -0.1868,-0.5677 -0.1623,-0.5672 -0.1356,-0.5661 -0.1057,-0.5647 -0.0701,-0.5623 -0.0174,-0.5584 0.0786,-0.9759 -0.9808,-0.0915 -0.9781,-0.1162 -0.9749,-0.1409 -0.971,-0.1655 -0.1767,0.963 -0.1613,0.5349 -0.2133,0.525 -0.2483,0.518 -0.2775,0.5118 -0.3035,0.5058 -0.3274,0.5 -0.3497,0.4942 -0.3709,0.4881 -0.3911,0.4821 -0.4106,0.4758 -0.4295,0.4695 -0.6155,-0.1514 -0.6134,-0.1599 -0.6111,-0.1682 -0.6087,-0.1767 -0.1372,-0.6212 -0.1177,-0.6174 -0.0977,-0.6131 -0.0771,-0.6082 -0.0558,-0.6028 -0.0335,-0.5967 -0.01,-0.5898 0.0156,-0.582 0.044,-0.5727 0.0778,-0.5613 0.1277,-0.5439 0.3285,-0.9223 -0.9237,-0.3422 -0.9147,-0.3654 -0.9052,-0.3884 -0.8951,-0.4112 -0.4199,0.8844 -0.2943,0.4749 -0.3418,0.452 -0.3739,0.4361 -0.4006,0.4225 -0.4241,0.41 -0.4456,0.3982 -0.4657,0.3868 -0.4846,0.3756 -0.5025,0.3644 -0.5198,0.3533 -0.5363,0.3423 -0.5554,-0.3055 -0.5511,-0.3132 -0.5467,-0.3207 -0.5423,-0.3282 0.0282,-0.6356 0.0462,-0.6268 0.0643,-0.6174 0.0829,-0.6075 0.1021,-0.5966 0.1221,-0.5851 0.143,-0.5723 0.1657,-0.5581 0.1907,-0.5419 0.2205,-0.522 0.2641,-0.4923 0.556,-0.8059 -0.8036,-0.5695 -0.789,-0.5898 -0.7738,-0.6094 -0.7582,-0.6288 -0.6345,0.7456 -0.4072,0.3825 -0.4472,0.3481 -0.474,0.3245 -0.4962,0.3044 -0.5158,0.2863 -0.5335,0.2693 -0.5499,0.2531 -0.5653,0.2373 -0.5798,0.2219 -0.5935,0.2068 -0.6066,0.1918 -0.4574,-0.4388 -0.4513,-0.4451 -0.4451,-0.4513 -0.4388,-0.4574 0.1918,-0.6066 0.2068,-0.5935 0.2219,-0.5798 0.2373,-0.5653 0.2531,-0.5499 0.2693,-0.5335 0.2863,-0.5158 0.3044,-0.4962 0.3245,-0.474 0.3481,-0.4472 0.3825,-0.4072 0.7456,-0.6345 -0.6288,-0.7582 -0.6094,-0.7738 -0.5898,-0.789 -0.5695,-0.8036 -0.8059,0.556 -0.4923,0.2641 -0.522,0.2205 -0.5419,0.1907 -0.5581,0.1657 -0.5723,0.143 -0.5851,0.1221 -0.5966,0.1021 -0.6075,0.0829 -0.6174,0.0643 -0.6268,0.0462 -0.6356,0.0282 -0.3282,-0.5423 -0.3207,-0.5467 -0.3132,-0.5511 -0.3055,-0.5554 0.3423,-0.5363 0.3533,-0.5198 0.3644,-0.5025 0.3756,-0.4846 0.3868,-0.4657 0.3982,-0.4456 0.41,-0.4241 0.4225,-0.4006 0.4361,-0.3739 0.452,-0.3418 0.4749,-0.2943 0.8844,-0.4199 -0.4112,-0.8951 -0.3884,-0.9052 -0.3654,-0.9147 -0.3422,-0.9237 -0.9223,0.3285 -0.5439,0.1277 -0.5613,0.0778 -0.5727,0.044 -0.582,0.0156 -0.5898,-0.01 -0.5967,-0.0335 -0.6028,-0.0558 -0.6082,-0.0771 -0.6131,-0.0977 -0.6174,-0.1177 -0.6212,-0.1372 -0.1767,-0.6087 -0.1682,-0.6111 -0.1599,-0.6134 -0.1514,-0.6155 0.4695,-0.4295 0.4758,-0.4106 0.4821,-0.3911 0.4881,-0.3709 0.4942,-0.3497 0.5,-0.3274 0.5058,-0.3035 0.5118,-0.2775 0.518,-0.2483 0.525,-0.2133 0.5349,-0.1613 0.963,-0.1767 -0.1655,-0.971 -0.1409,-0.9749 -0.1162,-0.9781 -0.0915,-0.9808 -0.9759,0.0786 -0.5584,-0.0174 -0.5623,-0.0701 -0.5647,-0.1057 -0.5661,-0.1356 -0.5672,-0.1623 -0.5677,-0.1868 -0.5678,-0.2099 -0.5675,-0.2319 -0.5669,-0.253 -0.5659,-0.2735 -0.5645,-0.2934 -0.0131,-0.6337 -0.004,-0.6338 0.004,-0.6338 0.0131,-0.6337 0.5645,-0.2934 0.5659,-0.2735 0.5669,-0.253 0.5675,-0.2319 0.5678,-0.2099 0.5677,-0.1868 0.5672,-0.1623 0.5661,-0.1356 0.5647,-0.1057 0.5623,-0.0701 0.5584,-0.0174 0.9759,0.0786 0.0915,-0.9808 0.1162,-0.9781 0.1409,-0.9749 0.1655,-0.971 -0.963,-0.1767 -0.5349,-0.1613 -0.525,-0.2133 -0.518,-0.2483 -0.5118,-0.2775 -0.5058,-0.3035 -0.5,-0.3274 -0.4942,-0.3497 -0.4881,-0.3709 -0.4821,-0.3911 -0.4758,-0.4106 -0.4695,-0.4295 0.1514,-0.6155 0.1599,-0.6134 0.1682,-0.6111 0.1767,-0.6087 0.6212,-0.1372 0.6174,-0.1177 0.6131,-0.0977 0.6082,-0.0771 0.6028,-0.0558 0.5967,-0.0335 0.5898,-0.01 0.582,0.0156 0.5727,0.044 0.5613,0.0778 0.5439,0.1277 0.9223,0.3285 0.3422,-0.9237 0.3654,-0.9147 0.3884,-0.9052 0.4112,-0.8951 -0.8844,-0.4199 -0.4749,-0.2943 -0.452,-0.3418 -0.4361,-0.3739 -0.4225,-0.4006 -0.41,-0.4241 -0.3982,-0.4456 -0.3868,-0.4657 -0.3756,-0.4846 -0.3644,-0.5025 -0.3533,-0.5198 -0.3423,-0.5363 0.3055,-0.5554 0.3132,-0.5511 0.3207,-0.5467 0.3282,-0.5423 0.6356,0.0282 0.6268,0.0462 0.6174,0.0643 0.6075,0.0829 0.5966,0.1021 0.5851,0.1221 0.5723,0.143 0.5581,0.1657 0.5419,0.1907 0.522,0.2205 0.4923,0.2641 0.8059,0.556 0.5695,-0.8036 0.5898,-0.789 0.6094,-0.7738 0.6288,-0.7582 -0.7456,-0.6345 -0.3825,-0.4072 -0.3481,-0.4472 -0.3245,-0.474 -0.3044,-0.4962 -0.2863,-0.5158 -0.2693,-0.5335 -0.2531,-0.5499 -0.2373,-0.5653 -0.2219,-0.5798 -0.2068,-0.5935 -0.1918,-0.6066 0.4388,-0.4574 0.4451,-0.4513 0.4513,-0.4451 0.4574,-0.4388 0.6066,0.1918 0.5935,0.2068 0.5798,0.2219 0.5653,0.2373 0.5499,0.2531 0.5335,0.2693 0.5158,0.2863 0.4962,0.3044 0.474,0.3245 0.4472,0.3481 0.4072,0.3825 0.6345,0.7456 0.7582,-0.6288 0.7738,-0.6094 0.789,-0.5898 0.8036,-0.5695 -0.556,-0.8059 -0.2641,-0.4923 -0.2205,-0.522 -0.1907,-0.5419 -0.1657,-0.5581 -0.143,-0.5723 -0.1221,-0.5851 -0.1021,-0.5966 -0.0829,-0.6075 -0.0643,-0.6174 -0.0462,-0.6268 -0.0282,-0.6356 0.5423,-0.3282 0.5467,-0.3207 0.5511,-0.3132 0.5554,-0.3055 0.5363,0.3423 0.5198,0.3533 0.5025,0.3644 0.4846,0.3756 0.4657,0.3868 0.4456,0.3982 0.4241,0.41 0.4006,0.4225 0.3739,0.4361 0.3418,0.452 0.2943,0.4749 0.4199,0.8844 0.8951,-0.4112 0.9052,-0.3884 0.9147,-0.3654 0.9237,-0.3422 -0.3285,-0.9223 -0.1277,-0.5439 -0.0778,-0.5613 -0.044,-0.5727 -0.0156,-0.582 0.01,-0.5898 0.0335,-0.5967 0.0558,-0.6028 0.0771,-0.6082 0.0977,-0.6131 0.1177,-0.6174 0.1372,-0.6212 0.6087,-0.1767 0.6111,-0.1682 0.6134,-0.1599 0.6155,-0.1514 0.4295,0.4695 0.4106,0.4758 0.3911,0.4821 0.3709,0.4881 0.3497,0.4942 0.3274,0.5 0.3035,0.5058 0.2775,0.5118 0.2483,0.518 0.2133,0.525 0.1613,0.5349 0.1767,0.963 0.971,-0.1655 0.9749,-0.1409 0.9781,-0.1162 0.9808,-0.0915 -0.0786,-0.9759 0.0174,-0.5584 0.0701,-0.5623 0.1057,-0.5647 0.1356,-0.5661 0.1623,-0.5672 0.1868,-0.5677 0.2099,-0.5678 0.2319,-0.5675 0.253,-0.5669 0.2735,-0.5659 0.2934,-0.5645 0.6337,-0.0131 0.6338,-0.004 0.6338,0.004 0.6337,0.0131 0.2934,0.5645 0.2735,0.5659 0.253,0.5669 0.2319,0.5675 0.2099,0.5678 0.1868,0.5677 0.1623,0.5672 0.1356,0.5661 0.1057,0.5647 0.0701,0.5623 0.0174,0.5584 -0.0786,0.9759 0.9808,0.0915 0.9781,0.1162 0.9749,0.1409 0.971,0.1655 0.1767,-0.963 0.1613,-0.5349 0.2133,-0.525 0.2483,-0.518 0.2775,-0.5118 0.3035,-0.5058 0.3274,-0.5 0.3497,-0.4942 0.3709,-0.4881 0.3911,-0.4821 0.4106,-0.4758 0.4295,-0.4695 0.6155,0.1514 0.6134,0.1599 0.6111,0.1682 0.6087,0.1767 0.1372,0.6212 0.1177,0.6174 0.0977,0.6131 0.0771,0.6082 0.0558,0.6028 0.0335,0.5967 0.01,0.5898 -0.0156,0.582 -0.044,0.5727 -0.0778,0.5613 -0.1277,0.5439 -0.3285,0.9223 0.9237,0.3422 0.9147,0.3654 0.9052,0.3884 0.8951,0.4112 0.4199,-0.8844 0.2943,-0.4749 0.3418,-0.452 0.3739,-0.4361 0.4006,-0.4225 0.4241,-0.41 0.4456,-0.3982 0.4657,-0.3868 0.4846,-0.3756 0.5025,-0.3644 0.5198,-0.3533 0.5363,-0.3423 0.5554,0.3055 0.5511,0.3132 0.5467,0.3207 0.5423,0.3282 -0.0282,0.6356 -0.0462,0.6268 -0.0643,0.6174 -0.0829,0.6075 -0.1021,0.5966 -0.1221,0.5851 -0.143,0.5723 -0.1657,0.5581 -0.1907,0.5419 -0.2205,0.522 -0.2641,0.4923 -0.556,0.8059 0.8036,0.5695 0.789,0.5898 0.7738,0.6094 0.7582,0.6288 0.6345,-0.7456 0.4072,-0.3825 0.4472,-0.3481 0.474,-0.3245 0.4962,-0.3044 0.5158,-0.2863 0.5335,-0.2693 0.5499,-0.2531 0.5653,-0.2373 0.5798,-0.2219 0.5935,-0.2068 0.6066,-0.1918 0.4574,0.4388 0.4513,0.4451 0.4451,0.4513 0.4388,0.4574 -0.1918,0.6066 -0.2068,0.5935 -0.2219,0.5798 -0.2373,0.5653 -0.2531,0.5499 -0.2693,0.5335 -0.2863,0.5158 -0.3044,0.4962 -0.3245,0.474 -0.3481,0.4472 -0.3825,0.4072 -0.7456,0.6345 0.6288,0.7582 0.6094,0.7738 0.5898,0.789 0.5695,0.8036 0.8059,-0.556 0.4923,-0.2641 0.522,-0.2205 0.5419,-0.1907 0.5581,-0.1657 0.5723,-0.143 0.5851,-0.1221 0.5966,-0.1021 0.6075,-0.0829 0.6174,-0.0643 0.6268,-0.0462 0.6356,-0.0282 0.3282,0.5423 0.3207,0.5467 0.3132,0.5511 0.3055,0.5554 -0.3423,0.5363 -0.3533,0.5198 -0.3644,0.5025 -0.3756,0.4846 -0.3868,0.4657 -0.3982,0.4456 -0.41,0.4241 -0.4225,0.4006 -0.4361,0.3739 -0.452,0.3418 -0.4749,0.2943 -0.8844,0.4199 0.4112,0.8951 0.3884,0.9052 0.3654,0.9147 0.3422,0.9237 0.9223,-0.3285 0.5439,-0.1277 0.5613,-0.0778 0.5727,-0.044 0.582,-0.0156 0.5898,0.01 0.5967,0.0335 0.6028,0.0558 0.6082,0.0771 0.6131,0.0977 0.6174,0.1177 0.6212,0.1372 0.1767,0.6087 0.1682,0.6111 0.1599,0.6134 0.1514,0.6155 -0.4695,0.4295 -0.4758,0.4106 -0.4821,0.3911 -0.4881,0.3709 -0.4942,0.3497 -0.5,0.3274 -0.5058,0.3035 -0.5118,0.2775 -0.518,0.2483 -0.525,0.2133 -0.5349,0.1613 -0.963,0.1767 0.1655,0.971 0.1409,0.9749 0.1162,0.9781 0.0915,0.9808 z M 375,532.3622 a 0,0 0 0 0 0,0 0,0 0 0 0 0,0"
       id="path3156" />
    <circle
       sodipodi:ry="42.519684"
       sodipodi:rx="42.519684"
       sodipodi:cy="0"
       sodipodi:cx="0"
       inkscape:label="Pitch circle"
       style="fill:none;stroke:#000000;stroke-width:0.15000001"
       cx="0"
       r="42.519684"
       cy="0"
       id="circle3158"
       d="M 42.519684,0 C 42.519684,23.482973 23.482973,42.519684 0,42.519684 -23.482973,42.519684 -42.519684,23.482973 -42.519684,0 c 0,-23.482973 19.036711,-42.519684 42.519684,-42.519684 23.482973,0 42.519684,19.036711 42.519684,42.519684 z"
       transform="translate(375,532.3622)" />
    <path
       style="fill:#000000;stroke:#000000;stroke-width:0.99999994;stroke-miterlimit:4;stroke-opacity:1;stroke-dasharray:none"
       d="M 368.15625 527.5625 C 367.20232 528.92059 366.65625 530.58931 366.65625 532.375 C 366.65625 534.17601 367.21858 535.82291 368.1875 537.1875 L 381.8125 537.1875 C 382.78142 535.82291 383.34375 534.17601 383.34375 532.375 C 383.34375 530.58931 382.79768 528.92059 381.84375 527.5625 L 368.15625 527.5625 z "
       id="path3180" />
  </g>
</svg>
