<?xml version="1.0" encoding="UTF-8" standalone="no"?>
<!-- Created with Inkscape (http://www.inkscape.org/) -->

<svg
   xmlns:dc="http://purl.org/dc/elements/1.1/"
   xmlns:cc="http://creativecommons.org/ns#"
   xmlns:rdf="http://www.w3.org/1999/02/22-rdf-syntax-ns#"
   xmlns:svg="http://www.w3.org/2000/svg"
   xmlns="http://www.w3.org/2000/svg"
   xmlns:sodipodi="http://sodipodi.sourceforge.net/DTD/sodipodi-0.dtd"
   xmlns:inkscape="http://www.inkscape.org/namespaces/inkscape"
   width="210mm"
   height="297mm"
   viewBox="0 0 744.09448819 1052.3622047"
   id="svg2"
   version="1.1"
   inkscape:version="0.91 r13725"
   sodipodi:docname="outline.svg">
  <defs
     id="defs4">
    <inkscape:path-effect
       effect="gears"
       id="path-effect4146"
       is_visible="true"
       teeth="10"
       phi="5" />
  </defs>
  <sodipodi:namedview
     id="base"
     pagecolor="#ffffff"
     bordercolor="#666666"
     borderopacity="1.0"
     inkscape:pageopacity="0.0"
     inkscape:pageshadow="2"
     inkscape:zoom="0.98994949"
     inkscape:cx="258.45062"
     inkscape:cy="745.52997"
     inkscape:document-units="px"
     inkscape:current-layer="layer1"
     showgrid="false"
     inkscape:window-width="1920"
     inkscape:window-height="1018"
     inkscape:window-x="-8"
     inkscape:window-y="32"
     inkscape:window-maximized="1" />
  <metadata
     id="metadata7">
    <rdf:RDF>
      <cc:Work
         rdf:about="">
        <dc:format>image/svg+xml</dc:format>
        <dc:type
           rdf:resource="http://purl.org/dc/dcmitype/StillImage" />
        <dc:title></dc:title>
      </cc:Work>
    </rdf:RDF>
  </metadata>
  <g
     inkscape:label="Layer 1"
     inkscape:groupmode="layer"
     id="layer1">
    <path
       style="fill:none;fill-opacity:1;stroke:#000000;stroke-width:2.40093875;stroke-opacity:1"
       d="m 292.506,614.37224 -21.99561,0 -21.99562,0 c -63.2802,2.00178 -65.98683,-16.3984 -65.98683,-65.98683 l 0,-21.99561 0,-21.99564 0.0733,-65.91348 0.0733,-65.91348 0,-21.99561 0,-21.99562 c -2.00178,-63.2802 16.3984,-65.98683 65.98683,-65.98683 l 21.99561,0 21.99562,0 65.91349,0.0734 65.91349,0.0733 21.99561,0 21.99562,0 c 63.2802,-2.00178 65.98683,16.3984 65.98683,65.98683 l 0,21.99561 0,21.99563 -0.0734,65.91348 -0.0733,65.91348 0,21.99561 0,21.99562 c 2.00178,63.2802 -16.3984,65.98683 -65.98683,65.98683 l -21.99561,0 -21.99563,0 -65.91348,-0.0733 z"
       id="rect4138-6-7"
       inkscape:connector-curvature="0"
       sodipodi:nodetypes="ccccccccccccccccccccccccccccc" />
  </g>
</svg>
