0
SECTION
2
HEADER
9
$INSUNITS
70
4
9
$ACADVER
1
AC1014
9
$HANDSEED
5
FFFF
0
ENDSEC
0
SECTION
2
TABLES
0
TABLE
2
VPORT
5
8
100
AcDbSymbolTable
0
ENDTAB
0
TABLE
2
LTYPE
5
5
100
AcDbSymbolTable
0
LTYPE
5
14
100
AcDbSymbolTableRecord
100
AcDbLinetypeTableRecord
2
BYBLOCK
70
0
0
LTYPE
5
15
100
AcDbSymbolTableRecord
100
AcDbLinetypeTableRecord
2
BYLAYER
70
0
0
ENDTAB
0
TABLE
2
LAYER
5
2
100
AcDbSymbolTable
70
2
0
LAYER
5
50
100
AcDbSymbolTableRecord
100
AcDbLayerTableRecord
2
0
70
0
6
CONTINUOUS
0
ENDTAB
0
TABLE
2
STYLE
5
3
100
AcDbSymbolTable
70
1
0
STYLE
5
11
100
AcDbSymbolTableRecord
100
AcDbTextStyleTableRecord
2
STANDARD
70
0
0
ENDTAB
0
TABLE
2
VIEW
5
6
100
AcDbSymbolTable
70
0
0
ENDTAB
0
TABLE
2
UCS
5
7
100
AcDbSymbolTable
70
0
0
ENDTAB
0
TABLE
2
APPID
5
9
100
AcDbSymbolTable
70
2
0
APPID
5
12
100
AcDbSymbolTableRecord
100
AcDbRegAppTableRecord
2
ACAD
70
0
0
ENDTAB
0
TABLE
2
DIMSTYLE
5
A
100
AcDbSymbolTable
70
1
0
ENDTAB
0
TABLE
2
BLOCK_RECORD
5
1
100
AcDbSymbolTable
70
1
0
BLOCK_RECORD
5
1F
100
AcDbSymbolTableRecord
100
AcDbBlockTableRecord
2
*MODEL_SPACE
0
BLOCK_RECORD
5
1B
100
AcDbSymbolTableRecord
100
AcDbBlockTableRecord
2
*PAPER_SPACE
0
ENDTAB
0
ENDSEC
0
SECTION
2
BLOCKS
0
BLOCK
5
20
100
AcDbEntity
100
AcDbBlockBegin
2
*MODEL_SPACE
0
ENDBLK
5
21
100
AcDbEntity
100
AcDbBlockEnd
0
BLOCK
5
1C
100
AcDbEntity
100
AcDbBlockBegin
2
*PAPER_SPACE
0
ENDBLK
5
1D
100
AcDbEntity
100
AcDbBlockEnd
0
ENDSEC
0
SECTION
2
ENTITIES
0
LWPOLYLINE
5
100
100
AcDbEntity
8
0
100
AcDbPolyline
90
32
70
1
43
0.0
10
4.9999719050203213
20
53.238028975251567
10
4.9999719050203817
20
47.138028975251302
10
0.99997190502037647
20
47.138028975251309
10
0.99997190502007616
20
48.188028975251463
10
-1.4000280949799238
20
48.188028975251463
10
-1.4000280949799082
20
47.138028975251189
10
-8.0000280949796139
20
47.138028975251189
10
-8.0000280949796192
20
43.738028975251176
10
-1.400028094979918
20
43.738028975251453
10
-1.4000280949799198
20
42.688028975251456
10
0.99997190505313815
20
42.688028975251449
10
0.99997190505315747
20
43.738028975251623
10
4.9999719050203781
20
43.738028975251744
10
4.9999719050203577
20
21.738028975251407
10
0.99997190505314404
20
21.738028975251567
10
0.99997190505312805
20
22.788028975251709
10
-1.40002809497993
20
22.788028975251706
10
-1.4000280949799315
20
21.738028975251712
10
-8.000028094979637
20
21.738028975252011
10
-8.0000280949796441
20
18.338028975251998
10
-1.4000280949799595
20
18.338028975251998
10
-1.4000280949799437
20
17.288028975251695
10
0.99997190502005628
20
17.288028975251706
10
0.99997190502032429
20
18.338028975252016
10
4.999971905020332
20
18.338028975252012
10
4.9999719050203577
20
12.238028975251536
10
-15.000028094979657
20
12.238028975251575
10
-15.0000280949798
20
31.238028975251602
10
-5.0000280949797959
20
31.238028975251595
10
-5.0000280949797915
20
34.238028975251581
10
-15.000028094979751
20
34.238028975251609
10
-15.000028094979985
20
53.238028975251609
0
ENDSEC
0
SECTION
2
OBJECTS
0
DICTIONARY
5
C
100
AcDbDictionary
3
ACAD_GROUP
350
D
3
ACAD_MLINESTYLE
350
17
0
DICTIONARY
5
D
100
AcDbDictionary
0
DICTIONARY
5
1A
330
C
100
AcDbDictionary
0
DICTIONARY
5
17
100
AcDbDictionary
0
ENDSEC
0
EOF
