0
SECTION
2
HEADER
9
$INSUNITS
70
4
9
$ACADVER
1
AC1014
9
$HANDSEED
5
FFFF
0
ENDSEC
0
SECTION
2
TABLES
0
TABLE
2
VPORT
5
8
100
AcDbSymbolTable
0
ENDTAB
0
TABLE
2
LTYPE
5
5
100
AcDbSymbolTable
0
LTYPE
5
14
100
AcDbSymbolTableRecord
100
AcDbLinetypeTableRecord
2
BYBLOCK
70
0
0
LTYPE
5
15
100
AcDbSymbolTableRecord
100
AcDbLinetypeTableRecord
2
BYLAYER
70
0
0
ENDTAB
0
TABLE
2
LAYER
5
2
100
AcDbSymbolTable
70
2
0
LAYER
5
50
100
AcDbSymbolTableRecord
100
AcDbLayerTableRecord
2
0
70
0
6
CONTINUOUS
0
ENDTAB
0
TABLE
2
STYLE
5
3
100
AcDbSymbolTable
70
1
0
STYLE
5
11
100
AcDbSymbolTableRecord
100
AcDbTextStyleTableRecord
2
STANDARD
70
0
0
ENDTAB
0
TABLE
2
VIEW
5
6
100
AcDbSymbolTable
70
0
0
ENDTAB
0
TABLE
2
UCS
5
7
100
AcDbSymbolTable
70
0
0
ENDTAB
0
TABLE
2
APPID
5
9
100
AcDbSymbolTable
70
2
0
APPID
5
12
100
AcDbSymbolTableRecord
100
AcDbRegAppTableRecord
2
ACAD
70
0
0
ENDTAB
0
TABLE
2
DIMSTYLE
5
A
100
AcDbSymbolTable
70
1
0
ENDTAB
0
TABLE
2
BLOCK_RECORD
5
1
100
AcDbSymbolTable
70
1
0
BLOCK_RECORD
5
1F
100
AcDbSymbolTableRecord
100
AcDbBlockTableRecord
2
*MODEL_SPACE
0
BLOCK_RECORD
5
1B
100
AcDbSymbolTableRecord
100
AcDbBlockTableRecord
2
*PAPER_SPACE
0
ENDTAB
0
ENDSEC
0
SECTION
2
BLOCKS
0
BLOCK
5
20
100
AcDbEntity
100
AcDbBlockBegin
2
*MODEL_SPACE
0
ENDBLK
5
21
100
AcDbEntity
100
AcDbBlockEnd
0
BLOCK
5
1C
100
AcDbEntity
100
AcDbBlockBegin
2
*PAPER_SPACE
0
ENDBLK
5
1D
100
AcDbEntity
100
AcDbBlockEnd
0
ENDSEC
0
SECTION
2
ENTITIES
0
LWPOLYLINE
5
100
100
AcDbEntity
8
0
100
AcDbPolyline
90
60
70
1
43
0.0
10
-186.84204055109421
20
38.23802732420333
10
-186.84204055109436
20
31.238027324203411
10
-117.44204055109448
20
31.238027324202285
10
-117.44204055109442
20
34.238027324202271
10
-127.44204055109441
20
34.238027324202427
10
-127.44204055109434
20
38.238027324202427
10
-107.44204055109435
20
38.238027324202051
10
-107.44204055109451
20
31.238027324202129
10
-38.042040551094622
20
31.238027324201013
10
-38.042040551094573
20
34.238027324200992
10
-48.042040551094551
20
34.238027324201148
10
-48.042040551094487
20
38.238027324201155
10
-28.042040551094509
20
38.238027324200772
10
-28.042040551094651
20
31.238027324200857
10
-16.542040551094665
20
31.238027324200658
10
4.7167884305625254
20
28.238027324200324
10
4.7167884305605963
20
21.438028855933627
10
0.60438042136271863
20
21.438028855933915
10
0.60438042136266001
20
22.488027795503047
10
-1.7956182825508824
20
22.488027795503012
10
-1.795618529985199
20
21.438028855933553
10
-8.3956049211262975
20
21.438028855932593
10
-8.3956049211267292
20
18.038028855932598
10
-1.7956193312023603
20
18.038027300635814
10
-1.795619578636872
20
16.988027795503097
10
0.60438042136310832
20
16.988027795503061
10
0.60438042136302605
20
18.038026735072194
10
4.6043804213630048
20
18.038025792466012
10
4.6043788189328438
20
11.238027324200397
10
-395.28845992112224
20
11.238027324206868
10
-395.28845992112201
20
17.327670719816673
10
-391.28845992112201
20
17.327670719816609
10
-391.28845992112213
20
16.277670719816641
10
-388.88845992111908
20
16.277670719816605
10
-388.88845992111908
20
17.327670719816027
10
-382.28845992112201
20
17.327670719815934
10
-382.2884599211219
20
20.727670719815926
10
-388.88845992111902
20
20.727670719815986
10
-388.88845992111908
20
21.777670719816541
10
-391.28845992111906
20
21.777670719816587
10
-391.28845992111906
20
20.727670719816629
10
-395.28845992112116
20
20.727670719816693
10
-395.28845992112105
20
27.52766918808339
10
-374.14204055109406
20
31.238027324206481
10
-355.64204055109406
20
31.23802732420614
10
-355.64204055109394
20
34.238027324206122
10
-365.64204055109394
20
34.238027324206286
10
-365.64204055109394
20
38.238027324206271
10
-345.64204055109394
20
38.238027324205902
10
-345.64204055109417
20
31.238027324205987
10
-276.24204055109425
20
31.238027324204857
10
-276.24204055109419
20
34.238027324204829
10
-286.24204055109419
20
34.238027324204992
10
-286.24204055109419
20
38.238027324204992
10
-266.24204055109414
20
38.238027324204616
10
-266.24204055109425
20
31.238027324204694
10
-196.84204055109433
20
31.238027324203578
10
-196.8420405510943
20
34.238027324203564
10
-206.8420405510943
20
34.238027324203728
10
-206.84204055109419
20
38.238027324203713
0
ENDSEC
0
SECTION
2
OBJECTS
0
DICTIONARY
5
C
100
AcDbDictionary
3
ACAD_GROUP
350
D
3
ACAD_MLINESTYLE
350
17
0
DICTIONARY
5
D
100
AcDbDictionary
0
DICTIONARY
5
1A
330
C
100
AcDbDictionary
0
DICTIONARY
5
17
100
AcDbDictionary
0
ENDSEC
0
EOF
