  0
SECTION
  2
HEADER
  9
$ACADVER
  1
AC1014
  9
$HANDSEED
  5
FFFF
  9
$MEASUREMENT
 70
     1
  0
ENDSEC
  0
SECTION
  2
TABLES
  0
TABLE
  2
VPORT
  5
8
330
0
100
AcDbSymbolTable
 70
     4
  0
VPORT
  5
2E
330
8
100
AcDbSymbolTableRecord
100
AcDbViewportTableRecord
  2
*ACTIVE
 70
     0
 10
0.0
 20
0.0
 11
1.0
 21
1.0
 12
210.0
 22
148.5
 13
0.0
 23
0.0
 14
10.0
 24
10.0
 15
10.0
 25
10.0
 16
0.0
 26
0.0
 36
1.0
 17
0.0
 27
0.0
 37
0.0
 40
341.0
 41
1.24
 42
50.0
 43
0.0
 44
0.0
 50
0.0
 51
0.0
 71
     0
 72
   100
 73
     1
 74
     3
 75
     0
 76
     0
 77
     0
 78
     0
  0
ENDTAB
  0
TABLE
  2
LTYPE
  5
5
330
0
100
AcDbSymbolTable
 70
     1
  0
LTYPE
  5
14
330
5
100
AcDbSymbolTableRecord
100
AcDbLinetypeTableRecord
  2
BYBLOCK
 70
     0
  3

 72
    65
 73
     0
 40
0.0
  0
LTYPE
  5
15
330
5
100
AcDbSymbolTableRecord
100
AcDbLinetypeTableRecord
  2
BYLAYER
 70
     0
  3

 72
    65
 73
     0
 40
0.0
  0
LTYPE
  5
16
330
5
100
AcDbSymbolTableRecord
100
AcDbLinetypeTableRecord
  2
CONTINUOUS
 70
     0
  3
Solid line
 72
    65
 73
     0
 40
0.0
  0
ENDTAB
  0
TABLE
  2
LAYER
  5
2
100
AcDbSymbolTable
 70
2
  0
LAYER
  5
50
100
AcDbSymbolTableRecord
100
AcDbLayerTableRecord
  2
0
 70
0
  6
CONTINUOUS
  0
LAYER
  5
51
100
AcDbSymbolTableRecord
100
AcDbLayerTableRecord
  2
Layer_1
 70
0
  6
CONTINUOUS
  0
ENDTAB
  0
TABLE
  2
STYLE
  5
3
330
0
100
AcDbSymbolTable
 70
     1
  0
STYLE
  5
11
330
3
100
AcDbSymbolTableRecord
100
AcDbTextStyleTableRecord
  2
STANDARD
 70
     0
 40
0.0
 41
1.0
 50
0.0
 71
     0
 42
2.5
  3
txt
  4

  0
ENDTAB
  0
TABLE
  2
VIEW
  5
6
330
0
100
AcDbSymbolTable
 70
     0
  0
ENDTAB
  0
TABLE
  2
UCS
  5
7
330
0
100
AcDbSymbolTable
 70
     0
  0
ENDTAB
  0
TABLE
  2
APPID
  5
9
330
0
100
AcDbSymbolTable
 70
     2
  0
APPID
  5
12
330
9
100
AcDbSymbolTableRecord
100
AcDbRegAppTableRecord
  2
ACAD
 70
     0
  0
ENDTAB
  0
TABLE
  2
DIMSTYLE
  5
A
330
0
100
AcDbSymbolTable
 70
     1
  0
DIMSTYLE
105
27
330
A
100
AcDbSymbolTableRecord
100
AcDbDimStyleTableRecord
  2
ISO-25
 70
     0
  3

  4

  5

  6

  7

 40
1.0
 41
2.5
 42
0.625
 43
3.75
 44
1.25
 45
0.0
 46
0.0
 47
0.0
 48
0.0
140
2.5
141
2.5
142
0.0
143
0.03937007874016
144
1.0
145
0.0
146
1.0
147
0.625
 71
     0
 72
     0
 73
     0
 74
     0
 75
     0
 76
     0
 77
     1
 78
     8
170
     0
171
     3
172
     1
173
     0
174
     0
175
     0
176
     0
177
     0
178
     0
270
     2
271
     2
272
     2
273
     2
274
     3
340
11
275
     0
280
     0
281
     0
282
     0
283
     0
284
     8
285
     0
286
     0
287
     3
288
     0
  0
ENDTAB
  0
TABLE
  2
BLOCK_RECORD
  5
1
330
0
100
AcDbSymbolTable
 70
     1
  0
BLOCK_RECORD
  5
1F
330
1
100
AcDbSymbolTableRecord
100
AcDbBlockTableRecord
  2
*MODEL_SPACE
  0
BLOCK_RECORD
  5
1B
330
1
100
AcDbSymbolTableRecord
100
AcDbBlockTableRecord
  2
*PAPER_SPACE
  0
ENDTAB
  0
ENDSEC
  0
SECTION
  2
BLOCKS
  0
BLOCK
  5
20
330
1F
100
AcDbEntity
  8
0
100
AcDbBlockBegin
  2
*MODEL_SPACE
 70
     0
 10
0.0
 20
0.0
 30
0.0
  3
*MODEL_SPACE
  1

  0
ENDBLK
  5
21
330
1F
100
AcDbEntity
  8
0
100
AcDbBlockEnd
  0
BLOCK
  5
1C
330
1B
100
AcDbEntity
 67
     1
  8
0
100
AcDbBlockBegin
  2
*PAPER_SPACE
  1

  0
ENDBLK
  5
1D
330
1B
100
AcDbEntity
 67
     1
  8
0
100
AcDbBlockEnd
  0
ENDSEC
  0
SECTION
  2
ENTITIES
  0
SPLINE
  5
100
100
AcDbEntity
  8
Layer_1
 62
7
100
AcDbSpline
 70
8
 71
3
 72
8
 73
4
 74
0
 40
0
 40
0
 40
0
 40
0
 40
1
 40
1
 40
1
 40
1
 10
99.848187
 20
138.872373
 30
0.0
 10
99.848187
 20
136.159774
 30
0.0
 10
97.649191
 20
133.960779
 30
0.0
 10
94.936592
 20
133.960778
 30
0.0
  0
SPLINE
  5
101
100
AcDbEntity
  8
Layer_1
 62
7
100
AcDbSpline
 70
8
 71
3
 72
8
 73
4
 74
0
 40
0
 40
0
 40
0
 40
0
 40
1
 40
1
 40
1
 40
1
 10
94.936592
 20
133.960778
 30
0.0
 10
93.633956
 20
133.960778
 30
0.0
 10
92.384672
 20
134.478247
 30
0.0
 10
91.463568
 20
135.399350
 30
0.0
  0
SPLINE
  5
102
100
AcDbEntity
  8
Layer_1
 62
7
100
AcDbSpline
 70
8
 71
3
 72
8
 73
4
 74
0
 40
0
 40
0
 40
0
 40
0
 40
1
 40
1
 40
1
 40
1
 10
91.463568
 20
135.399350
 30
0.0
 10
90.542465
 20
136.320453
 30
0.0
 10
90.024994
 20
137.569737
 30
0.0
 10
90.024994
 20
138.872373
 30
0.0
  0
SPLINE
  5
103
100
AcDbEntity
  8
Layer_1
 62
7
100
AcDbSpline
 70
8
 71
3
 72
8
 73
4
 74
0
 40
0
 40
0
 40
0
 40
0
 40
1
 40
1
 40
1
 40
1
 10
90.024994
 20
138.872373
 30
0.0
 10
90.024994
 20
140.175010
 30
0.0
 10
90.542465
 20
141.424294
 30
0.0
 10
91.463568
 20
142.345396
 30
0.0
  0
SPLINE
  5
104
100
AcDbEntity
  8
Layer_1
 62
7
100
AcDbSpline
 70
8
 71
3
 72
8
 73
4
 74
0
 40
0
 40
0
 40
0
 40
0
 40
1
 40
1
 40
1
 40
1
 10
91.463568
 20
142.345396
 30
0.0
 10
92.384672
 20
143.266499
 30
0.0
 10
93.633956
 20
143.783969
 30
0.0
 10
94.936592
 20
143.783969
 30
0.0
  0
SPLINE
  5
105
100
AcDbEntity
  8
Layer_1
 62
7
100
AcDbSpline
 70
8
 71
3
 72
8
 73
4
 74
0
 40
0
 40
0
 40
0
 40
0
 40
1
 40
1
 40
1
 40
1
 10
94.936592
 20
143.783969
 30
0.0
 10
97.649191
 20
143.783968
 30
0.0
 10
99.848187
 20
141.584972
 30
0.0
 10
99.848187
 20
138.872373
 30
0.0
  0
LWPOLYLINE
  5
106
100
AcDbEntity
  8
Layer_1
 62
7
100
AcDbPolyline
 90
2
 70
1
 10
99.848187
 20
138.872373
 30
0.0
 10
99.848187
 20
138.872373
 30
0.0
  0
LWPOLYLINE
  5
107
100
AcDbEntity
  8
Layer_1
 62
7
100
AcDbPolyline
 90
201
 70
1
 10
122.745856
 20
141.038525
 30
0.0
 10
123.341113
 20
141.084891
 30
0.0
 10
125.195784
 20
140.776120
 30
0.0
 10
127.669499
 20
139.745239
 30
0.0
 10
127.669499
 20
137.999508
 30
0.0
 10
125.195784
 20
136.968626
 30
0.0
 10
123.341113
 20
136.659856
 30
0.0
 10
122.745856
 20
136.706222
 30
0.0
 10
122.410875
 20
134.054592
 30
0.0
 10
122.998964
 20
133.951465
 30
0.0
 10
124.718580
 20
133.191155
 30
0.0
 10
126.858206
 20
131.577474
 30
0.0
 10
126.424061
 20
129.886590
 30
0.0
 10
123.771694
 20
129.503281
 30
0.0
 10
121.898500
 20
129.665449
 30
0.0
 10
121.333474
 20
129.858393
 30
0.0
 10
120.349586
 20
127.373373
 30
0.0
 10
120.893552
 20
127.127238
 30
0.0
 10
122.370063
 20
125.963162
 30
0.0
 10
124.041162
 20
123.868074
 30
0.0
 10
123.200152
 20
122.338280
 30
0.0
 10
120.535787
 20
122.626632
 30
0.0
 10
118.761775
 20
123.249547
 30
0.0
 10
118.262485
 20
123.576948
 30
0.0
 10
116.691506
 20
121.414682
 30
0.0
 10
117.157170
 20
121.041000
 30
0.0
 10
118.297799
 20
119.546304
 30
0.0
 10
119.395373
 20
117.101449
 30
0.0
 10
118.200337
 20
115.828867
 30
0.0
 10
115.691392
 20
116.770761
 30
0.0
 10
114.128025
 20
117.815285
 30
0.0
 10
113.725839
 20
118.256568
 30
0.0
 10
111.666486
 20
116.552922
 30
0.0
 10
112.024589
 20
116.075173
 30
0.0
 10
112.757667
 20
114.343774
 30
0.0
 10
113.212747
 20
111.702772
 30
0.0
 10
111.738777
 20
110.767364
 30
0.0
 10
109.542893
 20
112.303615
 30
0.0
 10
108.288404
 20
113.704120
 30
0.0
 10
108.008598
 20
114.231557
 30
0.0
 10
105.590261
 20
113.093575
 30
0.0
 10
105.818305
 20
112.541777
 30
0.0
 10
106.097770
 20
110.682463
 30
0.0
 10
105.881763
 20
108.011263
 30
0.0
 10
104.221475
 20
107.471801
 30
0.0
 10
102.476627
 20
109.505884
 30
0.0
 10
101.609844
 20
111.174365
 30
0.0
 10
101.469994
 20
111.754817
 30
0.0
 10
98.844631
 20
111.254002
 30
0.0
 10
98.928281
 20
110.662831
 30
0.0
 10
98.736576
 20
108.792429
 30
0.0
 10
97.863053
 20
106.258869
 30
0.0
 10
96.120768
 20
106.149254
 30
0.0
 10
94.936595
 20
108.553356
 30
0.0
 10
94.511978
 20
110.384981
 30
0.0
 10
94.520868
 20
110.981974
 30
0.0
 10
91.853436
 20
111.149795
 30
0.0
 10
91.787441
 20
110.556394
 30
0.0
 10
91.136605
 20
108.792429
 30
0.0
 10
89.660456
 20
106.555702
 30
0.0
 10
87.945649
 20
106.882818
 30
0.0
 10
87.396554
 20
109.505884
 30
0.0
 10
87.440781
 20
111.385563
 30
0.0
 10
87.597866
 20
111.961590
 30
0.0
 10
85.055972
 20
112.787499
 30
0.0
 10
84.844478
 20
112.229153
 30
0.0
 10
83.775412
 20
110.682463
 30
0.0
 10
81.789386
 20
108.883110
 30
0.0
 10
80.209802
 20
109.626404
 30
0.0
 10
80.330288
 20
112.303615
 30
0.0
 10
80.840586
 20
114.113241
 30
0.0
 10
81.135988
 20
114.632106
 30
0.0
 10
78.879347
 20
116.064212
 30
0.0
 10
78.535640
 20
115.576004
 30
0.0
 10
77.115515
 20
114.343774
 30
0.0
 10
74.744402
 20
113.094853
 30
0.0
 10
73.399294
 20
114.207624
 30
0.0
 10
74.181789
 20
116.770761
 30
0.0
 10
75.126091
 20
118.396629
 30
0.0
 10
75.541248
 20
118.825728
 30
0.0
 10
73.711655
 20
120.774046
 30
0.0
 10
73.257334
 20
120.386651
 30
0.0
 10
71.575382
 20
119.546304
 30
0.0
 10
68.968168
 20
118.926292
 30
0.0
 10
67.942054
 20
120.338617
 30
0.0
 10
69.337394
 20
122.626632
 30
0.0
 10
70.656363
 20
123.966581
 30
0.0
 10
71.165189
 20
124.278956
 30
0.0
 10
69.877604
 20
126.621064
 30
0.0
 10
69.341215
 20
126.358826
 30
0.0
 10
67.503119
 20
125.963162
 30
0.0
 10
64.823625
 20
126.011018
 30
0.0
 10
64.180980
 20
127.634157
 30
0.0
 10
66.101488
 20
129.503281
 30
0.0
 10
67.712251
 20
130.473121
 30
0.0
 10
68.282778
 20
130.649140
 30
0.0
 10
67.618102
 20
133.237877
 30
0.0
 10
67.033349
 20
133.117270
 30
0.0
 10
65.154601
 20
133.191155
 30
0.0
 10
62.571190
 20
133.903871
 30
0.0
 10
62.352394
 20
135.635835
 30
0.0
 10
64.677397
 20
136.968626
 30
0.0
 10
66.478745
 20
137.507417
 30
0.0
 10
67.075121
 20
137.536020
 30
0.0
 10
67.075121
 20
140.208727
 30
0.0
 10
66.478745
 20
140.237330
 30
0.0
 10
64.677397
 20
140.776120
 30
0.0
 10
62.352394
 20
142.108912
 30
0.0
 10
62.571190
 20
143.840876
 30
0.0
 10
65.154601
 20
144.553591
 30
0.0
 10
67.033349
 20
144.627477
 30
0.0
 10
67.618102
 20
144.506869
 30
0.0
 10
68.282778
 20
147.095606
 30
0.0
 10
67.712251
 20
147.271626
 30
0.0
 10
66.101488
 20
148.241465
 30
0.0
 10
64.180980
 20
150.110589
 30
0.0
 10
64.823625
 20
151.733728
 30
0.0
 10
67.503119
 20
151.781585
 30
0.0
 10
69.341215
 20
151.385920
 30
0.0
 10
69.877604
 20
151.123682
 30
0.0
 10
71.165189
 20
153.465791
 30
0.0
 10
70.656363
 20
153.778166
 30
0.0
 10
69.337394
 20
155.118115
 30
0.0
 10
67.942054
 20
157.406130
 30
0.0
 10
68.968168
 20
158.818454
 30
0.0
 10
71.575382
 20
158.198443
 30
0.0
 10
73.257334
 20
157.358095
 30
0.0
 10
73.711655
 20
156.970700
 30
0.0
 10
75.541248
 20
158.919019
 30
0.0
 10
75.126091
 20
159.348118
 30
0.0
 10
74.181789
 20
160.973986
 30
0.0
 10
73.399294
 20
163.537122
 30
0.0
 10
74.744402
 20
164.649894
 30
0.0
 10
77.115515
 20
163.400973
 30
0.0
 10
78.535640
 20
162.168743
 30
0.0
 10
78.879347
 20
161.680535
 30
0.0
 10
81.135988
 20
163.112640
 30
0.0
 10
80.840586
 20
163.631506
 30
0.0
 10
80.330288
 20
165.441132
 30
0.0
 10
80.209802
 20
168.118343
 30
0.0
 10
81.789386
 20
168.861637
 30
0.0
 10
83.775412
 20
167.062284
 30
0.0
 10
84.844478
 20
165.515593
 30
0.0
 10
85.055972
 20
164.957248
 30
0.0
 10
87.597866
 20
165.783157
 30
0.0
 10
87.440781
 20
166.359184
 30
0.0
 10
87.396554
 20
168.238863
 30
0.0
 10
87.945649
 20
170.861929
 30
0.0
 10
89.660456
 20
171.189045
 30
0.0
 10
91.136605
 20
168.952318
 30
0.0
 10
91.787441
 20
167.188353
 30
0.0
 10
91.853436
 20
166.594952
 30
0.0
 10
94.520868
 20
166.762773
 30
0.0
 10
94.511978
 20
167.359766
 30
0.0
 10
94.936595
 20
169.191391
 30
0.0
 10
96.120768
 20
171.595493
 30
0.0
 10
97.863053
 20
171.485877
 30
0.0
 10
98.736576
 20
168.952318
 30
0.0
 10
98.928281
 20
167.081915
 30
0.0
 10
98.844631
 20
166.490744
 30
0.0
 10
101.469994
 20
165.989930
 30
0.0
 10
101.609844
 20
166.570382
 30
0.0
 10
102.476627
 20
168.238863
 30
0.0
 10
104.221475
 20
170.272946
 30
0.0
 10
105.881763
 20
169.733483
 30
0.0
 10
106.097770
 20
167.062284
 30
0.0
 10
105.818305
 20
165.202970
 30
0.0
 10
105.590261
 20
164.651172
 30
0.0
 10
108.008598
 20
163.513190
 30
0.0
 10
108.288404
 20
164.040627
 30
0.0
 10
109.542893
 20
165.441132
 30
0.0
 10
111.738777
 20
166.977383
 30
0.0
 10
113.212747
 20
166.041974
 30
0.0
 10
112.757667
 20
163.400973
 30
0.0
 10
112.024589
 20
161.669573
 30
0.0
 10
111.666486
 20
161.191825
 30
0.0
 10
113.725839
 20
159.488179
 30
0.0
 10
114.128025
 20
159.929462
 30
0.0
 10
115.691392
 20
160.973986
 30
0.0
 10
118.200337
 20
161.915880
 30
0.0
 10
119.395373
 20
160.643298
 30
0.0
 10
118.297799
 20
158.198443
 30
0.0
 10
117.157170
 20
156.703746
 30
0.0
 10
116.691506
 20
156.330064
 30
0.0
 10
118.262485
 20
154.167799
 30
0.0
 10
118.761775
 20
154.495199
 30
0.0
 10
120.535787
 20
155.118115
 30
0.0
 10
123.200152
 20
155.406467
 30
0.0
 10
124.041162
 20
153.876673
 30
0.0
 10
122.370063
 20
151.781585
 30
0.0
 10
120.893552
 20
150.617508
 30
0.0
 10
120.349586
 20
150.371374
 30
0.0
 10
121.333474
 20
147.886354
 30
0.0
 10
121.898500
 20
148.079298
 30
0.0
 10
123.771694
 20
148.241465
 30
0.0
 10
126.424061
 20
147.858157
 30
0.0
 10
126.858206
 20
146.167273
 30
0.0
 10
124.718580
 20
144.553591
 30
0.0
 10
122.998964
 20
143.793282
 30
0.0
 10
122.410875
 20
143.690155
 30
0.0
 10
122.745856
 20
141.038525
 30
0.0
  0
ENDSEC
  0
SECTION
  2
OBJECTS
  0
DICTIONARY
  5
C
330
0
100
AcDbDictionary
  3
ACAD_GROUP
350
D
  3
ACAD_MLINESTYLE
350
17
  0
DICTIONARY
  5
D
330
C
100
AcDbDictionary
  0
DICTIONARY
  5
1A
330
C
100
AcDbDictionary
  0
DICTIONARY
  5
17
330
C
100
AcDbDictionary
  3
STANDARD
350
18
  0
DICTIONARY
  5
19
330
C
100
AcDbDictionary
  0
ENDSEC
  0
EOF
