<?xml version="1.0" encoding="UTF-8" standalone="no"?>
<!-- Created with Inkscape (http://www.inkscape.org/) -->

<svg
   xmlns:dc="http://purl.org/dc/elements/1.1/"
   xmlns:cc="http://creativecommons.org/ns#"
   xmlns:rdf="http://www.w3.org/1999/02/22-rdf-syntax-ns#"
   xmlns:svg="http://www.w3.org/2000/svg"
   xmlns="http://www.w3.org/2000/svg"
   xmlns:sodipodi="http://sodipodi.sourceforge.net/DTD/sodipodi-0.dtd"
   xmlns:inkscape="http://www.inkscape.org/namespaces/inkscape"
   sodipodi:docname="big gear.svg"
   inkscape:version="0.91 r13725"
   version="1.1"
   id="svg2"
   viewBox="0 0 744.09448819 1052.3622047"
   height="297mm"
   width="210mm">
  <sodipodi:namedview
     inkscape:window-maximized="1"
     inkscape:window-y="-8"
     inkscape:window-x="1912"
     inkscape:window-height="1058"
     inkscape:window-width="1920"
     showgrid="false"
     inkscape:current-layer="svg2"
     inkscape:document-units="px"
     inkscape:cy="330.44305"
     inkscape:cx="336.38951"
     inkscape:zoom="0.98994949"
     inkscape:pageshadow="2"
     inkscape:pageopacity="0.0"
     borderopacity="1.0"
     bordercolor="#666666"
     pagecolor="#ffffff"
     id="base" />
  <defs
     id="defs4" />
  <metadata
     id="metadata7">
    <rdf:RDF>
      <cc:Work
         rdf:about="">
        <dc:format>image/svg+xml</dc:format>
        <dc:type
           rdf:resource="http://purl.org/dc/dcmitype/StillImage" />
        <dc:title></dc:title>
      </cc:Work>
    </rdf:RDF>
  </metadata>
  <g
     inkscape:label="Layer 1"
     inkscape:groupmode="layer"
     id="layer1" />
  <path
     id="path4170"
     d="m 353.79279,560.29474 a 17.403292,17.403292 0 0 1 -17.40329,17.40329 17.403292,17.403292 0 0 1 -17.4033,-17.40329 17.403292,17.403292 0 0 1 17.4033,-17.40329 17.403292,17.403292 0 0 1 17.40329,17.40329 z"
     style="fill:none;fill-opacity:1;stroke:#000000;stroke-width:0.62648654;stroke-linejoin:miter;stroke-miterlimit:4;stroke-dasharray:none;stroke-opacity:1" />
  <path
     inkscape:connector-curvature="0"
     style="fill:none;stroke:#000000;stroke-width:1"
     d="m 434.92626,552.6194 2.10918,-0.16429 6.57167,1.09407 8.76513,3.65273 0,6.18566 -8.76513,3.65273 -6.57167,1.09407 -2.10918,-0.16429 -1.18694,9.39554 2.08378,0.36541 6.09313,2.69401 7.58135,5.71777 -1.53831,5.99132 -9.39815,1.35818 -6.6373,-0.57461 -2.00206,-0.68366 -3.48622,8.80519 1.92744,0.87213 5.23173,4.12468 5.92122,7.42354 -2.97996,5.42053 -9.44066,-1.02172 -6.28587,-2.20718 -1.76914,-1.16008 -5.56646,7.66157 1.64999,1.32407 4.0416,5.29617 3.88904,8.66287 -4.23438,4.50915 -8.88996,-3.33742 -5.53949,-3.70107 -1.42507,-1.5636 -7.29692,6.03654 1.26887,1.69281 2.59752,6.13488 1.61249,9.35788 -5.22273,3.31444 -7.78069,-5.44341 -4.44504,-4.96242 -0.99144,-1.86887 -8.56891,4.03222 0.80803,1.95519 0.99023,6.58812 -0.76538,9.46488 -5.88291,1.91148 -6.18253,-7.20738 -3.07128,-5.91194 -0.49553,-2.05672 -9.30247,1.77454 0.2964,2.0947 -0.67927,6.62741 -3.09516,8.97718 -6.17345,0.3884 -4.19589,-8.51847 -1.50455,-6.49001 0.0315,-2.11533 -9.45153,-0.59464 -0.23384,2.1026 -2.30611,6.25027 -5.23045,7.92541 -6.07609,-1.15907 -1.94561,-9.29433 0.15671,-6.66028 0.5566,-2.04104 -9.00671,-2.92645 -0.74939,1.97839 -3.78803,5.4804 -7.0371,6.37566 -5.59695,-2.63372 0.42692,-9.48618 1.80814,-6.41206 1.0467,-1.8385 -7.99597,-5.07439 -1.21786,1.72987 -5.03194,4.36617 -8.40158,4.42531 -4.76613,-3.94289 2.77262,-9.08198 3.34595,-5.76095 1.47103,-1.52043 -6.48281,-6.90349 -1.6098,1.37266 -5.95967,2.97761 -9.23816,2.19689 -3.63584,-5.0043 4.94412,-8.10714 4.67351,-4.74785 1.80293,-1.10684 -4.56231,-8.29881 -1.90059,0.92919 -6.51294,1.40196 -9.49427,-0.16957 -2.27709,-5.75128 6.80495,-6.62288 5.70743,-3.43644 2.02155,-0.62369 -2.35515,-9.17269 -2.07196,0.42735 -6.65698,-0.2618 -9.15382,-2.52537 -0.77526,-6.13688 8.2382,-4.72249 6.38273,-1.9091 2.11314,-0.10135 0,-9.47022 -2.11314,-0.10135 -6.38273,-1.9091 -8.2382,-4.72249 0.77526,-6.13688 9.15382,-2.52537 6.65698,-0.2618 2.07196,0.42735 2.35515,-9.17269 -2.02155,-0.62369 -5.70743,-3.43644 -6.80495,-6.62288 2.27709,-5.75128 9.49427,-0.16957 6.51294,1.40196 1.90059,0.92919 4.56231,-8.29881 -1.80293,-1.10684 -4.67351,-4.74785 -4.94412,-8.10714 3.63584,-5.0043 9.23816,2.19689 5.95967,2.97761 1.6098,1.37266 6.48281,-6.90349 -1.47103,-1.52043 -3.34595,-5.76095 -2.77262,-9.08198 4.76613,-3.94289 8.40158,4.42531 5.03194,4.36617 1.21786,1.72987 7.99597,-5.07439 -1.0467,-1.8385 -1.80814,-6.41206 -0.42692,-9.48618 5.59695,-2.63372 7.0371,6.37566 3.78803,5.4804 0.74939,1.97839 9.00671,-2.92645 -0.5566,-2.04104 -0.15671,-6.66028 1.94561,-9.29433 6.07609,-1.15907 5.23045,7.92541 2.30611,6.25027 0.23384,2.1026 9.45153,-0.59464 -0.0315,-2.11533 1.50455,-6.49001 4.19589,-8.51847 6.17345,0.3884 3.09516,8.97718 0.67927,6.62741 -0.2964,2.0947 9.30247,1.77454 0.49553,-2.05672 3.07128,-5.91194 6.18253,-7.20738 5.88291,1.91148 0.76538,9.46488 -0.99023,6.58812 -0.80803,1.95519 8.56891,4.03222 0.99144,-1.86887 4.44504,-4.96242 7.78069,-5.44341 5.22273,3.31444 -1.61249,9.35788 -2.59752,6.13488 -1.26887,1.69281 7.29692,6.03654 1.42507,-1.5636 5.53949,-3.70107 8.88996,-3.33742 4.23438,4.50915 -3.88904,8.66287 -4.0416,5.29617 -1.64999,1.32407 5.56646,7.66157 1.76914,-1.16008 6.28587,-2.20718 9.44066,-1.02172 2.97996,5.42053 -5.92122,7.42354 -5.23173,4.12468 -1.92744,0.87213 3.48622,8.80519 2.00206,-0.68366 6.6373,-0.57461 9.39815,1.35818 1.53831,5.99132 -7.58135,5.71777 -6.09313,2.69401 -2.08378,0.36541 z"
     id="path4323" />
</svg>
