  0
SECTION
  2
HEADER
  9
$ACADVER
  1
AC1014
  9
$HANDSEED
  5
FFFF
  9
$MEASUREMENT
 70
     1
  0
ENDSEC
  0
SECTION
  2
TABLES
  0
TABLE
  2
VPORT
  5
8
330
0
100
AcDbSymbolTable
 70
     4
  0
VPORT
  5
2E
330
8
100
AcDbSymbolTableRecord
100
AcDbViewportTableRecord
  2
*ACTIVE
 70
     0
 10
0.0
 20
0.0
 11
1.0
 21
1.0
 12
210.0
 22
148.5
 13
0.0
 23
0.0
 14
10.0
 24
10.0
 15
10.0
 25
10.0
 16
0.0
 26
0.0
 36
1.0
 17
0.0
 27
0.0
 37
0.0
 40
341.0
 41
1.24
 42
50.0
 43
0.0
 44
0.0
 50
0.0
 51
0.0
 71
     0
 72
   100
 73
     1
 74
     3
 75
     0
 76
     0
 77
     0
 78
     0
  0
ENDTAB
  0
TABLE
  2
LTYPE
  5
5
330
0
100
AcDbSymbolTable
 70
     1
  0
LTYPE
  5
14
330
5
100
AcDbSymbolTableRecord
100
AcDbLinetypeTableRecord
  2
BYBLOCK
 70
     0
  3

 72
    65
 73
     0
 40
0.0
  0
LTYPE
  5
15
330
5
100
AcDbSymbolTableRecord
100
AcDbLinetypeTableRecord
  2
BYLAYER
 70
     0
  3

 72
    65
 73
     0
 40
0.0
  0
LTYPE
  5
16
330
5
100
AcDbSymbolTableRecord
100
AcDbLinetypeTableRecord
  2
CONTINUOUS
 70
     0
  3
Solid line
 72
    65
 73
     0
 40
0.0
  0
ENDTAB
  0
TABLE
  2
LAYER
  5
2
100
AcDbSymbolTable
 70
2
  0
LAYER
  5
50
100
AcDbSymbolTableRecord
100
AcDbLayerTableRecord
  2
0
 70
0
  6
CONTINUOUS
  0
LAYER
  5
51
100
AcDbSymbolTableRecord
100
AcDbLayerTableRecord
  2
Layer_1
 70
0
  6
CONTINUOUS
  0
ENDTAB
  0
TABLE
  2
STYLE
  5
3
330
0
100
AcDbSymbolTable
 70
     1
  0
STYLE
  5
11
330
3
100
AcDbSymbolTableRecord
100
AcDbTextStyleTableRecord
  2
STANDARD
 70
     0
 40
0.0
 41
1.0
 50
0.0
 71
     0
 42
2.5
  3
txt
  4

  0
ENDTAB
  0
TABLE
  2
VIEW
  5
6
330
0
100
AcDbSymbolTable
 70
     0
  0
ENDTAB
  0
TABLE
  2
UCS
  5
7
330
0
100
AcDbSymbolTable
 70
     0
  0
ENDTAB
  0
TABLE
  2
APPID
  5
9
330
0
100
AcDbSymbolTable
 70
     2
  0
APPID
  5
12
330
9
100
AcDbSymbolTableRecord
100
AcDbRegAppTableRecord
  2
ACAD
 70
     0
  0
ENDTAB
  0
TABLE
  2
DIMSTYLE
  5
A
330
0
100
AcDbSymbolTable
 70
     1
  0
DIMSTYLE
105
27
330
A
100
AcDbSymbolTableRecord
100
AcDbDimStyleTableRecord
  2
ISO-25
 70
     0
  3

  4

  5

  6

  7

 40
1.0
 41
2.5
 42
0.625
 43
3.75
 44
1.25
 45
0.0
 46
0.0
 47
0.0
 48
0.0
140
2.5
141
2.5
142
0.0
143
0.03937007874016
144
1.0
145
0.0
146
1.0
147
0.625
 71
     0
 72
     0
 73
     0
 74
     0
 75
     0
 76
     0
 77
     1
 78
     8
170
     0
171
     3
172
     1
173
     0
174
     0
175
     0
176
     0
177
     0
178
     0
270
     2
271
     2
272
     2
273
     2
274
     3
340
11
275
     0
280
     0
281
     0
282
     0
283
     0
284
     8
285
     0
286
     0
287
     3
288
     0
  0
ENDTAB
  0
TABLE
  2
BLOCK_RECORD
  5
1
330
0
100
AcDbSymbolTable
 70
     1
  0
BLOCK_RECORD
  5
1F
330
1
100
AcDbSymbolTableRecord
100
AcDbBlockTableRecord
  2
*MODEL_SPACE
  0
BLOCK_RECORD
  5
1B
330
1
100
AcDbSymbolTableRecord
100
AcDbBlockTableRecord
  2
*PAPER_SPACE
  0
ENDTAB
  0
ENDSEC
  0
SECTION
  2
BLOCKS
  0
BLOCK
  5
20
330
1F
100
AcDbEntity
  8
0
100
AcDbBlockBegin
  2
*MODEL_SPACE
 70
     0
 10
0.0
 20
0.0
 30
0.0
  3
*MODEL_SPACE
  1

  0
ENDBLK
  5
21
330
1F
100
AcDbEntity
  8
0
100
AcDbBlockEnd
  0
BLOCK
  5
1C
330
1B
100
AcDbEntity
 67
     1
  8
0
100
AcDbBlockBegin
  2
*PAPER_SPACE
  1

  0
ENDBLK
  5
1D
330
1B
100
AcDbEntity
 67
     1
  8
0
100
AcDbBlockEnd
  0
ENDSEC
  0
SECTION
  2
ENTITIES
  0
SPLINE
  5
100
100
AcDbEntity
  8
Layer_1
 62
7
100
AcDbSpline
 70
8
 71
3
 72
8
 73
4
 74
0
 40
0
 40
0
 40
0
 40
0
 40
1
 40
1
 40
1
 40
1
 10
99.848187
 20
93.258379
 30
0.0
 10
99.848187
 20
90.545780
 30
0.0
 10
97.649191
 20
88.346784
 30
0.0
 10
94.936592
 20
88.346784
 30
0.0
  0
SPLINE
  5
101
100
AcDbEntity
  8
Layer_1
 62
7
100
AcDbSpline
 70
8
 71
3
 72
8
 73
4
 74
0
 40
0
 40
0
 40
0
 40
0
 40
1
 40
1
 40
1
 40
1
 10
94.936592
 20
88.346784
 30
0.0
 10
93.633956
 20
88.346783
 30
0.0
 10
92.384672
 20
88.864253
 30
0.0
 10
91.463568
 20
89.785356
 30
0.0
  0
SPLINE
  5
102
100
AcDbEntity
  8
Layer_1
 62
7
100
AcDbSpline
 70
8
 71
3
 72
8
 73
4
 74
0
 40
0
 40
0
 40
0
 40
0
 40
1
 40
1
 40
1
 40
1
 10
91.463568
 20
89.785356
 30
0.0
 10
90.542465
 20
90.706459
 30
0.0
 10
90.024994
 20
91.955742
 30
0.0
 10
90.024994
 20
93.258379
 30
0.0
  0
SPLINE
  5
103
100
AcDbEntity
  8
Layer_1
 62
7
100
AcDbSpline
 70
8
 71
3
 72
8
 73
4
 74
0
 40
0
 40
0
 40
0
 40
0
 40
1
 40
1
 40
1
 40
1
 10
90.024994
 20
93.258379
 30
0.0
 10
90.024994
 20
94.561015
 30
0.0
 10
90.542465
 20
95.810299
 30
0.0
 10
91.463568
 20
96.731402
 30
0.0
  0
SPLINE
  5
104
100
AcDbEntity
  8
Layer_1
 62
7
100
AcDbSpline
 70
8
 71
3
 72
8
 73
4
 74
0
 40
0
 40
0
 40
0
 40
0
 40
1
 40
1
 40
1
 40
1
 10
91.463568
 20
96.731402
 30
0.0
 10
92.384672
 20
97.652505
 30
0.0
 10
93.633956
 20
98.169975
 30
0.0
 10
94.936592
 20
98.169974
 30
0.0
  0
SPLINE
  5
105
100
AcDbEntity
  8
Layer_1
 62
7
100
AcDbSpline
 70
8
 71
3
 72
8
 73
4
 74
0
 40
0
 40
0
 40
0
 40
0
 40
1
 40
1
 40
1
 40
1
 10
94.936592
 20
98.169974
 30
0.0
 10
97.649191
 20
98.169974
 30
0.0
 10
99.848187
 20
95.970978
 30
0.0
 10
99.848187
 20
93.258379
 30
0.0
  0
LWPOLYLINE
  5
106
100
AcDbEntity
  8
Layer_1
 62
7
100
AcDbPolyline
 90
2
 70
1
 10
99.848187
 20
93.258379
 30
0.0
 10
99.848187
 20
93.258379
 30
0.0
  0
LWPOLYLINE
  5
107
100
AcDbEntity
  8
Layer_1
 62
7
100
AcDbPolyline
 90
113
 70
1
 10
109.372327
 20
95.103157
 30
0.0
 10
110.762604
 20
95.280824
 30
0.0
 10
111.808486
 20
95.159378
 30
0.0
 10
114.324954
 20
94.041578
 30
0.0
 10
114.324954
 20
92.475166
 30
0.0
 10
111.808486
 20
91.357365
 30
0.0
 10
110.762604
 20
91.235919
 30
0.0
 10
109.372327
 20
91.413587
 30
0.0
 10
108.743160
 20
88.657038
 30
0.0
 10
110.072845
 20
88.213892
 30
0.0
 10
110.962460
 20
87.650678
 30
0.0
 10
112.744724
 20
85.551724
 30
0.0
 10
112.065082
 20
84.140432
 30
0.0
 10
109.312829
 20
84.225186
 30
0.0
 10
108.317826
 20
84.569557
 30
0.0
 10
107.142317
 20
85.332849
 30
0.0
 10
105.379438
 20
83.122268
 30
0.0
 10
106.385168
 20
82.146081
 30
0.0
 10
106.942314
 20
81.252653
 30
0.0
 10
107.637374
 20
78.588263
 30
0.0
 10
106.412702
 20
77.611622
 30
0.0
 10
103.969780
 20
78.882138
 30
0.0
 10
103.222733
 20
79.624120
 30
0.0
 10
102.494814
 20
80.821857
 30
0.0
 10
99.947380
 20
79.595080
 30
0.0
 10
100.429960
 20
78.279193
 30
0.0
 10
100.544289
 20
77.232507
 30
0.0
 10
100.014481
 20
74.530399
 30
0.0
 10
98.487340
 20
74.181840
 30
0.0
 10
96.837602
 20
76.386481
 30
0.0
 10
96.486466
 20
77.379116
 30
0.0
 10
96.350314
 20
78.774073
 30
0.0
 10
93.522876
 20
78.774073
 30
0.0
 10
93.386724
 20
77.379116
 30
0.0
 10
93.035588
 20
76.386481
 30
0.0
 10
91.385850
 20
74.181840
 30
0.0
 10
89.858709
 20
74.530399
 30
0.0
 10
89.328902
 20
77.232507
 30
0.0
 10
89.443230
 20
78.279193
 30
0.0
 10
89.925810
 20
79.595080
 30
0.0
 10
87.378376
 20
80.821857
 30
0.0
 10
86.650457
 20
79.624120
 30
0.0
 10
85.903410
 20
78.882138
 30
0.0
 10
83.460488
 20
77.611622
 30
0.0
 10
82.235816
 20
78.588263
 30
0.0
 10
82.930876
 20
81.252653
 30
0.0
 10
83.488022
 20
82.146081
 30
0.0
 10
84.493752
 20
83.122268
 30
0.0
 10
82.730873
 20
85.332849
 30
0.0
 10
81.555364
 20
84.569557
 30
0.0
 10
80.560362
 20
84.225186
 30
0.0
 10
77.808108
 20
84.140432
 30
0.0
 10
77.128466
 20
85.551724
 30
0.0
 10
78.910730
 20
87.650678
 30
0.0
 10
79.800346
 20
88.213892
 30
0.0
 10
81.130030
 20
88.657038
 30
0.0
 10
80.500863
 20
91.413587
 30
0.0
 10
79.110586
 20
91.235919
 30
0.0
 10
78.064704
 20
91.357365
 30
0.0
 10
75.548236
 20
92.475166
 30
0.0
 10
75.548236
 20
94.041578
 30
0.0
 10
78.064704
 20
95.159378
 30
0.0
 10
79.110586
 20
95.280824
 30
0.0
 10
80.500863
 20
95.103157
 30
0.0
 10
81.130030
 20
97.859706
 30
0.0
 10
79.800346
 20
98.302851
 30
0.0
 10
78.910730
 20
98.866065
 30
0.0
 10
77.128466
 20
100.965020
 30
0.0
 10
77.808108
 20
102.376311
 30
0.0
 10
80.560362
 20
102.291557
 30
0.0
 10
81.555364
 20
101.947187
 30
0.0
 10
82.730873
 20
101.183894
 30
0.0
 10
84.493752
 20
103.394476
 30
0.0
 10
83.488022
 20
104.370663
 30
0.0
 10
82.930876
 20
105.264091
 30
0.0
 10
82.235816
 20
107.928481
 30
0.0
 10
83.460488
 20
108.905122
 30
0.0
 10
85.903410
 20
107.634605
 30
0.0
 10
86.650457
 20
106.892623
 30
0.0
 10
87.378376
 20
105.694886
 30
0.0
 10
89.925810
 20
106.921664
 30
0.0
 10
89.443230
 20
108.237551
 30
0.0
 10
89.328902
 20
109.284237
 30
0.0
 10
89.858709
 20
111.986345
 30
0.0
 10
91.385850
 20
112.334904
 30
0.0
 10
93.035588
 20
110.130263
 30
0.0
 10
93.386724
 20
109.137628
 30
0.0
 10
93.522876
 20
107.742671
 30
0.0
 10
96.350314
 20
107.742671
 30
0.0
 10
96.486466
 20
109.137628
 30
0.0
 10
96.837602
 20
110.130263
 30
0.0
 10
98.487340
 20
112.334904
 30
0.0
 10
100.014481
 20
111.986345
 30
0.0
 10
100.544289
 20
109.284237
 30
0.0
 10
100.429960
 20
108.237551
 30
0.0
 10
99.947380
 20
106.921664
 30
0.0
 10
102.494814
 20
105.694886
 30
0.0
 10
103.222733
 20
106.892623
 30
0.0
 10
103.969780
 20
107.634605
 30
0.0
 10
106.412702
 20
108.905122
 30
0.0
 10
107.637374
 20
107.928481
 30
0.0
 10
106.942314
 20
105.264091
 30
0.0
 10
106.385168
 20
104.370663
 30
0.0
 10
105.379438
 20
103.394476
 30
0.0
 10
107.142317
 20
101.183894
 30
0.0
 10
108.317826
 20
101.947187
 30
0.0
 10
109.312829
 20
102.291557
 30
0.0
 10
112.065082
 20
102.376311
 30
0.0
 10
112.744724
 20
100.965020
 30
0.0
 10
110.962460
 20
98.866065
 30
0.0
 10
110.072845
 20
98.302851
 30
0.0
 10
108.743160
 20
97.859706
 30
0.0
 10
109.372327
 20
95.103157
 30
0.0
  0
ENDSEC
  0
SECTION
  2
OBJECTS
  0
DICTIONARY
  5
C
330
0
100
AcDbDictionary
  3
ACAD_GROUP
350
D
  3
ACAD_MLINESTYLE
350
17
  0
DICTIONARY
  5
D
330
C
100
AcDbDictionary
  0
DICTIONARY
  5
1A
330
C
100
AcDbDictionary
  0
DICTIONARY
  5
17
330
C
100
AcDbDictionary
  3
STANDARD
350
18
  0
DICTIONARY
  5
19
330
C
100
AcDbDictionary
  0
ENDSEC
  0
EOF
