0
SECTION
2
HEADER
9
$INSUNITS
70
4
9
$ACADVER
1
AC1014
9
$HANDSEED
5
FFFF
0
ENDSEC
0
SECTION
2
TABLES
0
TABLE
2
VPORT
5
8
100
AcDbSymbolTable
0
ENDTAB
0
TABLE
2
LTYPE
5
5
100
AcDbSymbolTable
0
LTYPE
5
14
100
AcDbSymbolTableRecord
100
AcDbLinetypeTableRecord
2
BYBLOCK
70
0
0
LTYPE
5
15
100
AcDbSymbolTableRecord
100
AcDbLinetypeTableRecord
2
BYLAYER
70
0
0
ENDTAB
0
TABLE
2
LAYER
5
2
100
AcDbSymbolTable
70
2
0
LAYER
5
50
100
AcDbSymbolTableRecord
100
AcDbLayerTableRecord
2
0
70
0
6
CONTINUOUS
0
ENDTAB
0
TABLE
2
STYLE
5
3
100
AcDbSymbolTable
70
1
0
STYLE
5
11
100
AcDbSymbolTableRecord
100
AcDbTextStyleTableRecord
2
STANDARD
70
0
0
ENDTAB
0
TABLE
2
VIEW
5
6
100
AcDbSymbolTable
70
0
0
ENDTAB
0
TABLE
2
UCS
5
7
100
AcDbSymbolTable
70
0
0
ENDTAB
0
TABLE
2
APPID
5
9
100
AcDbSymbolTable
70
2
0
APPID
5
12
100
AcDbSymbolTableRecord
100
AcDbRegAppTableRecord
2
ACAD
70
0
0
ENDTAB
0
TABLE
2
DIMSTYLE
5
A
100
AcDbSymbolTable
70
1
0
ENDTAB
0
TABLE
2
BLOCK_RECORD
5
1
100
AcDbSymbolTable
70
1
0
BLOCK_RECORD
5
1F
100
AcDbSymbolTableRecord
100
AcDbBlockTableRecord
2
*MODEL_SPACE
0
BLOCK_RECORD
5
1B
100
AcDbSymbolTableRecord
100
AcDbBlockTableRecord
2
*PAPER_SPACE
0
ENDTAB
0
ENDSEC
0
SECTION
2
BLOCKS
0
BLOCK
5
20
100
AcDbEntity
100
AcDbBlockBegin
2
*MODEL_SPACE
0
ENDBLK
5
21
100
AcDbEntity
100
AcDbBlockEnd
0
BLOCK
5
1C
100
AcDbEntity
100
AcDbBlockBegin
2
*PAPER_SPACE
0
ENDBLK
5
1D
100
AcDbEntity
100
AcDbBlockEnd
0
ENDSEC
0
SECTION
2
ENTITIES
0
ARC
5
100
100
AcDbEntity
8
0
100
AcDbCircle
10
170.2536057342507
20
51.452722501377423
30
0
40
5.5750000000000099
100
AcDbArc
50
180
51
360
0
ARC
5
101
100
AcDbEntity
8
0
100
AcDbCircle
10
145.50717716282213
20
51.45272250137743
30
4.4408920985006262e-015
40
5.5750000000000099
100
AcDbArc
50
-180
51
0
0
ARC
5
102
100
AcDbEntity
8
0
100
AcDbCircle
10
120.76074859139355
20
51.452722501377444
30
8.8817841970012523e-015
40
5.5750000000000099
100
AcDbArc
50
-180
51
0
0
ARC
5
103
100
AcDbEntity
8
0
100
AcDbCircle
10
96.014320019964984
20
51.452722501377465
30
8.8817841970012523e-015
40
5.5750000000000099
100
AcDbArc
50
180
51
360
0
ARC
5
104
100
AcDbEntity
8
0
100
AcDbCircle
10
71.267891448536432
20
51.45272250137748
30
0
40
5.5750000000000099
100
AcDbArc
50
180
51
360
0
ARC
5
105
100
AcDbEntity
8
0
100
AcDbCircle
10
46.521462877107858
20
51.452722501377494
30
4.4408920985006262e-015
40
5.5750000000000099
100
AcDbArc
50
-180
51
0
0
ARC
5
106
100
AcDbEntity
8
0
100
AcDbCircle
10
21.775034305679274
20
51.452722501377508
30
1.5407439555097887e-032
40
5.5750000000000055
100
AcDbArc
50
180
51
360
0
LINE
5
107
100
AcDbEntity
8
0
100
AcDbLine
10
16.200034305679267
20
51.452722501377515
30
4.4408920985006262e-015
11
16.200034305679281
21
71.452722501377522
31
4.4408920985006262e-015
0
LINE
5
108
100
AcDbEntity
8
0
100
AcDbLine
10
-4.9999656943202453
20
71.452722501377522
30
-4.4408920985006262e-015
11
-4.999965694320248
21
67.35272250135273
31
-4.3021142204224816e-015
0
LINE
5
109
100
AcDbEntity
8
0
100
AcDbLine
10
-4.999965694320248
20
67.35272250135273
30
-4.3021142204224816e-015
11
-0.99996569432033056
21
67.352722501352915
31
0
0
LINE
5
110
100
AcDbEntity
8
0
100
AcDbLine
10
-0.99996569432033056
20
67.352722501352915
30
0
11
-0.999965694320472
21
68.40272250136556
31
4.4408920985006262e-015
0
LINE
5
111
100
AcDbEntity
8
0
100
AcDbLine
10
-0.999965694320472
20
68.40272250136556
30
4.4408920985006262e-015
11
1.4000343056794051
21
68.402722501365702
31
-4.4408920985006262e-015
0
LINE
5
112
100
AcDbEntity
8
0
100
AcDbLine
10
1.4000343056794051
20
68.402722501365702
30
-4.4408920985006262e-015
11
1.4000343056797599
21
67.352722501383255
31
0
0
LINE
5
113
100
AcDbEntity
8
0
100
AcDbLine
10
1.4000343056797599
20
67.352722501383255
30
0
11
8.0000343056803658
21
67.352722501382601
31
4.4408920985006577e-015
0
LINE
5
114
100
AcDbEntity
8
0
100
AcDbLine
10
8.0000343056803658
20
67.352722501382601
30
4.4408920985006577e-015
11
8.0000343056773087
21
63.952722501382567
31
1.3877787807814457e-016
0
LINE
5
115
100
AcDbEntity
8
0
100
AcDbLine
10
8.0000343056773087
20
63.952722501382567
30
1.3877787807814457e-016
11
1.4000343056817499
21
63.952722501382304
31
4.4408920985006341e-015
0
LINE
5
116
100
AcDbEntity
8
0
100
AcDbLine
10
1.4000343056817499
20
63.952722501382304
30
4.4408920985006341e-015
11
1.4000343056821758
21
62.902722501365858
31
-4.4408920985006262e-015
0
LINE
5
117
100
AcDbEntity
8
0
100
AcDbLine
10
1.4000343056821758
20
62.902722501365858
30
-4.4408920985006262e-015
11
-0.99996569429986693
21
62.902722501365716
31
4.4408920985006262e-015
0
LINE
5
118
100
AcDbEntity
8
0
100
AcDbLine
10
-0.99996569429986693
20
62.902722501365716
30
4.4408920985006262e-015
11
-0.99996569430000837
21
63.952722501378361
31
4.4408920985006262e-015
0
LINE
5
119
100
AcDbEntity
8
0
100
AcDbLine
10
-0.99996569430000837
20
63.952722501378361
30
4.4408920985006262e-015
11
-4.9999656943207427
21
63.952722501378119
31
0
0
LINE
5
120
100
AcDbEntity
8
0
100
AcDbLine
10
-4.9999656943207427
20
63.952722501378119
30
0
11
-4.9999656943206725
21
61.952722501378119
31
-4.4408920985006262e-015
0
LINE
5
121
100
AcDbEntity
8
0
100
AcDbLine
10
-4.9999656943206725
20
61.952722501378119
30
-4.4408920985006262e-015
11
-21.999965694320558
21
61.952722501377067
31
-3.1554436208840472e-029
0
LINE
5
122
100
AcDbEntity
8
0
100
AcDbLine
10
-21.999965694320558
20
61.952722501377067
30
-3.1554436208840472e-029
11
-21.999965694320281
21
47.952722501377075
31
3.3306690738754696e-015
0
LINE
5
123
100
AcDbEntity
8
0
100
AcDbLine
10
-21.999965694320281
20
47.952722501377075
30
3.3306690738754696e-015
11
5.0000343056797547
21
47.952722501376897
31
0
0
LINE
5
124
100
AcDbEntity
8
0
100
AcDbLine
10
5.0000343056797547
20
47.952722501376897
30
0
11
5.000034305679824
21
44.95272250137883
31
-4.5796699765787707e-015
0
LINE
5
125
100
AcDbEntity
8
0
100
AcDbLine
10
5.000034305679824
20
44.95272250137883
30
-4.5796699765787707e-015
11
-21.999965694320132
21
44.952722501377025
31
4.4408920985006262e-015
0
LINE
5
126
100
AcDbEntity
8
0
100
AcDbLine
10
-21.999965694320132
20
44.952722501377025
30
4.4408920985006262e-015
11
-21.999965694319641
21
30.952722501377011
31
-1.1102230246251565e-015
0
LINE
5
127
100
AcDbEntity
8
0
100
AcDbLine
10
-21.999965694319641
20
30.952722501377011
30
-1.1102230246251565e-015
11
-4.9999656943196769
21
30.952722501376996
31
4.4408920985006262e-015
0
LINE
5
128
100
AcDbEntity
8
0
100
AcDbLine
10
-4.9999656943196769
20
30.952722501376996
30
4.4408920985006262e-015
11
-4.9999656943196777
21
28.952722501376982
31
4.4408920985006262e-015
0
LINE
5
129
100
AcDbEntity
8
0
100
AcDbLine
10
-4.9999656943196777
20
28.952722501376982
30
4.4408920985006262e-015
11
-0.99996569429887217
21
28.952722501376993
31
-6.1629758220391547e-032
0
LINE
5
130
100
AcDbEntity
8
0
100
AcDbLine
10
-0.99996569429887217
20
28.952722501376993
30
-6.1629758220391547e-032
11
-0.99996569429993731
21
30.002722501389634
31
0
0
LINE
5
131
100
AcDbEntity
8
0
100
AcDbLine
10
-0.99996569429993731
20
30.002722501389634
30
0
11
1.4000343056832421
21
30.002722501389634
31
-4.4408920985006262e-015
0
LINE
5
132
100
AcDbEntity
8
0
100
AcDbLine
10
1.4000343056832421
20
30.002722501389634
30
-4.4408920985006262e-015
11
1.4000343056828863
21
28.952722501373188
31
-4.4408920985006262e-015
0
LINE
5
133
100
AcDbEntity
8
0
100
AcDbLine
10
1.4000343056828863
20
28.952722501373188
30
-4.4408920985006262e-015
11
8.0000343056784473
21
28.952722501373316
31
-4.4408920985006262e-015
0
LINE
5
134
100
AcDbEntity
8
0
100
AcDbLine
10
8.0000343056784473
20
28.952722501373316
30
-4.4408920985006262e-015
11
8.000034305681714
21
25.552722501373317
31
0
0
LINE
5
135
100
AcDbEntity
8
0
100
AcDbLine
10
8.000034305681714
20
25.552722501373317
30
0
11
1.4000343056811815
21
25.552722501372234
31
-4.4408920985006262e-015
0
LINE
5
136
100
AcDbEntity
8
0
100
AcDbLine
10
1.4000343056811815
20
25.552722501372234
30
-4.4408920985006262e-015
11
1.4000343056807547
21
24.502722501389805
31
0
0
LINE
5
137
100
AcDbEntity
8
0
100
AcDbLine
10
1.4000343056807547
20
24.502722501389805
30
0
11
-0.99996569431919369
21
24.502722501389794
31
4.4408920985006254e-015
0
LINE
5
138
100
AcDbEntity
8
0
100
AcDbLine
10
-0.99996569431919369
20
24.502722501389794
30
4.4408920985006254e-015
11
-0.99996569431897986
21
25.552722501402442
31
0
0
LINE
5
139
100
AcDbEntity
8
0
100
AcDbLine
10
-0.99996569431897986
20
25.552722501402442
30
0
11
-4.9999656943189663
21
25.552722501402378
31
0
0
LINE
5
140
100
AcDbEntity
8
0
100
AcDbLine
10
-4.9999656943189663
20
25.552722501402378
30
0
11
-4.9999656943186812
21
21.452722501377579
31
0
0
LINE
5
141
100
AcDbEntity
8
0
100
AcDbLine
10
27.70003392744151
20
21.452722501592074
30
0
11
95.600033927441515
21
21.452722502460976
31
-3.2311742677852644e-026
0
LINE
5
142
100
AcDbEntity
8
0
100
AcDbLine
10
395.00003430568137
20
21.452722501377291
30
4.4408920985006262e-015
11
395.00003430568154
21
25.552722501402116
31
0
0
LINE
5
143
100
AcDbEntity
8
0
100
AcDbLine
10
395.00003430568154
20
25.552722501402116
30
0
11
391.0000343056816
21
25.552722501402183
31
0
0
LINE
5
144
100
AcDbEntity
8
0
100
AcDbLine
10
391.0000343056816
20
25.552722501402183
30
0
11
391.00003430568171
21
24.502722501389513
31
0
0
LINE
5
145
100
AcDbEntity
8
0
100
AcDbLine
10
391.00003430568171
20
24.502722501389513
30
0
11
388.60003430568185
21
24.502722501389528
31
-4.4408920985006262e-015
0
LINE
5
146
100
AcDbEntity
8
0
100
AcDbLine
10
388.60003430568185
20
24.502722501389528
30
-4.4408920985006262e-015
11
388.6000343056815
21
25.552722501371981
31
-4.40619762898109e-015
0
LINE
5
147
100
AcDbEntity
8
0
100
AcDbLine
10
388.6000343056815
20
25.552722501371981
30
-4.40619762898109e-015
11
382.00003430568086
21
25.552722501373069
31
4.4408920985006262e-015
0
LINE
5
148
100
AcDbEntity
8
0
100
AcDbLine
10
382.00003430568086
20
25.552722501373069
30
4.4408920985006262e-015
11
382.00003430568415
21
28.952722501373071
31
0
0
LINE
5
149
100
AcDbEntity
8
0
100
AcDbLine
10
382.00003430568415
20
28.952722501373071
30
0
11
388.60003430567974
21
28.952722501372932
31
-3.944304526105059e-030
0
LINE
5
150
100
AcDbEntity
8
0
100
AcDbLine
10
388.60003430567974
20
28.952722501372932
30
-3.944304526105059e-030
11
388.60003430567934
21
30.002722501389357
31
0
0
LINE
5
151
100
AcDbEntity
8
0
100
AcDbLine
10
388.60003430567934
20
30.002722501389357
30
0
11
391.00003430566244
21
30.002722501389346
31
0
0
LINE
5
152
100
AcDbEntity
8
0
100
AcDbLine
10
391.00003430566244
20
30.002722501389346
30
0
11
391.00003430566142
21
28.952722501376734
31
0
0
LINE
5
153
100
AcDbEntity
8
0
100
AcDbLine
10
391.00003430566142
20
28.952722501376734
30
0
11
395.00003430568222
21
28.952722501376726
31
0
0
LINE
5
154
100
AcDbEntity
8
0
100
AcDbLine
10
395.00003430568222
20
28.952722501376726
30
0
11
395.00003430568233
21
30.952722501376726
31
-4.4408920985006262e-015
0
LINE
5
155
100
AcDbEntity
8
0
100
AcDbLine
10
395.00003430568233
20
30.952722501376726
30
-4.4408920985006262e-015
11
412.00003430568216
21
30.952722501376726
31
-4.4408920985006262e-015
0
LINE
5
156
100
AcDbEntity
8
0
100
AcDbLine
10
412.00003430568216
20
30.952722501376726
30
-4.4408920985006262e-015
11
412.00003430568273
21
44.952722501376734
31
-3.3306690738754696e-015
0
LINE
5
157
100
AcDbEntity
8
0
100
AcDbLine
10
412.00003430568273
20
44.952722501376734
30
-3.3306690738754696e-015
11
385.00003430568268
21
44.952722501378574
31
6.3108872417680944e-029
0
LINE
5
158
100
AcDbEntity
8
0
100
AcDbLine
10
385.00003430568268
20
44.952722501378574
30
6.3108872417680944e-029
11
385.00003430568285
21
47.952722501376648
31
-4.3021142204224816e-015
0
LINE
5
159
100
AcDbEntity
8
0
100
AcDbLine
10
385.00003430568285
20
47.952722501376648
30
-4.3021142204224816e-015
11
412.0000343056829
21
47.952722501376776
31
-4.4408920985006262e-015
0
LINE
5
160
100
AcDbEntity
8
0
100
AcDbLine
10
412.0000343056829
20
47.952722501376776
30
-4.4408920985006262e-015
11
412.00003430568324
21
61.952722501376776
31
1.1102230246251565e-015
0
LINE
5
161
100
AcDbEntity
8
0
100
AcDbLine
10
412.00003430568324
20
61.952722501376776
30
1.1102230246251565e-015
11
395.00003430568324
21
61.952722501377863
31
-4.4408920985006262e-015
0
LINE
5
162
100
AcDbEntity
8
0
100
AcDbLine
10
395.00003430568324
20
61.952722501377863
30
-4.4408920985006262e-015
11
395.00003430568336
21
63.952722501377863
31
4.4408920985006262e-015
0
LINE
5
163
100
AcDbEntity
8
0
100
AcDbLine
10
395.00003430568336
20
63.952722501377863
30
4.4408920985006262e-015
11
391.00003430566255
21
63.952722501378112
31
7.8886090522101181e-030
0
LINE
5
164
100
AcDbEntity
8
0
100
AcDbLine
10
391.00003430566255
20
63.952722501378112
30
7.8886090522101181e-030
11
391.00003430566244
21
62.902722501365432
31
0
0
LINE
5
165
100
AcDbEntity
8
0
100
AcDbLine
10
391.00003430566244
20
62.902722501365432
30
0
11
388.60003430568042
21
62.902722501365574
31
-4.4408920985006183e-015
0
LINE
5
166
100
AcDbEntity
8
0
100
AcDbLine
10
388.60003430568042
20
62.902722501365574
30
-4.4408920985006183e-015
11
388.60003430568088
21
63.952722501382063
31
3.4694469519536142e-017
0
LINE
5
167
100
AcDbEntity
8
0
100
AcDbLine
10
388.60003430568088
20
63.952722501382063
30
3.4694469519536142e-017
11
382.00003430568529
21
63.952722501382333
31
-8.8817841970012444e-015
0
LINE
5
168
100
AcDbEntity
8
0
100
AcDbLine
10
382.00003430568529
20
63.952722501382333
30
-8.8817841970012444e-015
11
382.00003430568222
21
67.352722501382345
31
-1.3877787807814457e-016
0
LINE
5
169
100
AcDbEntity
8
0
100
AcDbLine
10
382.00003430568222
20
67.352722501382345
30
-1.3877787807814457e-016
11
388.6000343056827
21
67.352722501383028
31
4.4408920985006262e-015
0
LINE
5
170
100
AcDbEntity
8
0
100
AcDbLine
10
388.6000343056827
20
67.352722501383028
30
4.4408920985006262e-015
11
388.60003430568327
21
68.402722501365417
31
0
0
LINE
5
171
100
AcDbEntity
8
0
100
AcDbLine
10
388.60003430568327
20
68.402722501365417
30
0
11
391.0000343056829
21
68.402722501365261
31
-4.4408920985006262e-015
0
LINE
5
172
100
AcDbEntity
8
0
100
AcDbLine
10
391.0000343056829
20
68.402722501365261
30
-4.4408920985006262e-015
11
391.0000343056829
21
67.352722501352659
31
-4.4755865680201623e-015
0
LINE
5
173
100
AcDbEntity
8
0
100
AcDbLine
10
391.0000343056829
20
67.352722501352659
30
-4.4755865680201623e-015
11
395.00003430568285
21
67.352722501352474
31
7.8886090522101181e-030
0
LINE
5
174
100
AcDbEntity
8
0
100
AcDbLine
10
395.00003430568285
20
67.352722501352474
30
7.8886090522101181e-030
11
395.00003430568285
21
71.452722501377252
31
4.4408920985006262e-015
0
LINE
5
175
100
AcDbEntity
8
0
100
AcDbLine
10
395.00003430568285
20
71.452722501377252
30
4.4408920985006262e-015
11
373.80003430567922
21
71.452722501377295
31
-4.4408920985006277e-015
0
ARC
5
176
100
AcDbEntity
8
0
100
AcDbCircle
10
195.00003430567926
20
51.452722501377401
30
8.8817841970012523e-015
40
5.5750000000000099
100
AcDbArc
50
180
51
360
0
CIRCLE
5
177
100
AcDbEntity
8
0
100
AcDbCircle
10
405.00003430568245
20
37.952722501376741
30
-4.4408920985006262e-015
40
3.000000000000008
0
CIRCLE
5
178
100
AcDbEntity
8
0
100
AcDbCircle
10
405.00003430568302
20
54.952722501377195
30
4.4408920985006262e-015
40
3.000000000000008
0
CIRCLE
5
179
100
AcDbEntity
8
0
100
AcDbCircle
10
-14.999965694320458
20
54.952722501377494
30
-4.4408920985006262e-015
40
3.000000000000008
0
CIRCLE
5
180
100
AcDbEntity
8
0
100
AcDbCircle
10
-14.999965694319854
20
37.952722501377011
30
0
40
3.000000000000008
0
LINE
5
181
100
AcDbEntity
8
0
100
AcDbLine
10
16.200034305679281
20
71.452722501377522
30
4.4408920985006262e-015
11
-4.9999656943202453
21
71.452722501377522
31
-4.4408920985006262e-015
0
LINE
5
182
100
AcDbEntity
8
0
100
AcDbLine
10
200.57503430567925
20
71.452722501377409
30
4.4408920985006262e-015
11
200.57503430567925
21
51.452722501377401
31
5.5511151231257827e-015
0
LINE
5
183
100
AcDbEntity
8
0
100
AcDbLine
10
189.42503430567925
20
51.452722501377401
30
8.881784197001235e-015
11
189.42503430567925
21
71.452722501377423
31
3.3306690738754696e-015
0
LINE
5
184
100
AcDbEntity
8
0
100
AcDbLine
10
189.42503430567925
20
71.452722501377423
30
3.3306690738754696e-015
11
175.82860573425069
21
71.452722501377423
31
4.4408920985005946e-015
0
LINE
5
185
100
AcDbEntity
8
0
100
AcDbLine
10
175.82860573425069
20
71.452722501377423
30
4.4408920985005946e-015
11
175.82860573425069
21
51.452722501377423
31
9.9920072216264089e-015
0
LINE
5
186
100
AcDbEntity
8
0
100
AcDbLine
10
164.67860573425068
20
51.452722501377423
30
-1.7563173399299345e-029
11
164.67860573425068
21
71.452722501377423
31
-5.5511151231257827e-015
0
LINE
5
187
100
AcDbEntity
8
0
100
AcDbLine
10
164.67860573425068
20
71.452722501377423
30
-5.5511151231257827e-015
11
151.08217716282215
21
71.452722501377437
31
0
0
LINE
5
188
100
AcDbEntity
8
0
100
AcDbLine
10
151.08217716282215
20
71.452722501377437
30
0
11
151.08217716282215
21
51.452722501377437
31
1.1102230246251565e-015
0
LINE
5
189
100
AcDbEntity
8
0
100
AcDbLine
10
139.93217716282211
20
51.45272250137743
30
4.4408920985006088e-015
11
139.93217716282214
21
71.452722501377437
31
-1.1102230246251565e-015
0
LINE
5
190
100
AcDbEntity
8
0
100
AcDbLine
10
139.93217716282214
20
71.452722501377437
30
-1.1102230246251565e-015
11
126.3357485913936
21
71.452722501377451
31
-3.1554436208840472e-029
0
LINE
5
191
100
AcDbEntity
8
0
100
AcDbLine
10
126.3357485913936
20
71.452722501377451
30
-3.1554436208840472e-029
11
126.33574859139357
21
51.452722501377451
31
1.1102230246251565e-015
0
LINE
5
192
100
AcDbEntity
8
0
100
AcDbLine
10
115.18574859139355
20
51.452722501377444
30
8.881784197001235e-015
11
115.18574859139356
21
71.452722501377451
31
-9.9920072216264089e-015
0
LINE
5
193
100
AcDbEntity
8
0
100
AcDbLine
10
115.18574859139356
20
71.452722501377451
30
-9.9920072216264089e-015
11
101.58932001996502
21
71.45272250137748
31
-3.1554436208840472e-029
0
LINE
5
194
100
AcDbEntity
8
0
100
AcDbLine
10
101.58932001996502
20
71.45272250137748
30
-3.1554436208840472e-029
11
101.58932001996499
21
51.452722501377451
31
9.9920072216264089e-015
0
LINE
5
195
100
AcDbEntity
8
0
100
AcDbLine
10
90.439320019964967
20
51.452722501377465
30
8.881784197001235e-015
11
90.439320019964981
21
71.45272250137748
31
3.3306690738754696e-015
0
LINE
5
196
100
AcDbEntity
8
0
100
AcDbLine
10
90.439320019964981
20
71.45272250137748
30
3.3306690738754696e-015
11
76.842891448536449
21
71.45272250137748
31
4.4408920985006262e-015
0
LINE
5
197
100
AcDbEntity
8
0
100
AcDbLine
10
76.842891448536449
20
71.45272250137748
30
4.4408920985006262e-015
11
76.842891448536434
21
51.452722501377472
31
9.9920072216264089e-015
0
LINE
5
198
100
AcDbEntity
8
0
100
AcDbLine
10
65.692891448536429
20
51.45272250137748
30
-1.7563173399299345e-029
11
65.692891448536429
21
71.452722501377494
31
-5.5511151231257827e-015
0
LINE
5
199
100
AcDbEntity
8
0
100
AcDbLine
10
65.692891448536429
20
71.452722501377494
30
-5.5511151231257827e-015
11
52.096462877107868
21
71.452722501377508
31
-3.1554436208840472e-029
0
LINE
5
200
100
AcDbEntity
8
0
100
AcDbLine
10
52.096462877107868
20
71.452722501377508
30
-3.1554436208840472e-029
11
52.096462877107861
21
51.452722501377494
31
1.1102230246251565e-015
0
LINE
5
201
100
AcDbEntity
8
0
100
AcDbLine
10
40.946462877107848
20
51.452722501377494
30
4.4408920985006088e-015
11
40.946462877107841
21
71.452722501377508
31
7.7715611723760958e-015
0
LINE
5
202
100
AcDbEntity
8
0
100
AcDbLine
10
40.946462877107841
20
71.452722501377508
30
7.7715611723760958e-015
11
27.350034305679294
21
71.452722501377522
31
0
0
LINE
5
203
100
AcDbEntity
8
0
100
AcDbLine
10
27.350034305679294
20
71.452722501377522
30
0
11
27.350034305679284
21
51.452722501377508
31
5.5511151231257827e-015
0
LINE
5
204
100
AcDbEntity
8
0
100
AcDbLine
10
275.90003392744154
20
28.452722503942809
30
0
11
275.90003392744154
21
25.452722503942805
31
-4.5796699765787707e-015
0
LINE
5
205
100
AcDbEntity
8
0
100
AcDbLine
10
275.90003392744154
20
25.452722503942805
30
-4.5796699765787707e-015
11
269.90003392744148
21
25.452722503942773
31
1.5777218104420236e-029
0
LINE
5
206
100
AcDbEntity
8
0
100
AcDbLine
10
269.90003392744148
20
25.452722503942773
30
1.5777218104420236e-029
11
265.90003392744154
21
24.202722503942773
31
3.4694469519536142e-017
0
LINE
5
207
100
AcDbEntity
8
0
100
AcDbLine
10
265.90003392744154
20
24.202722503942773
30
3.4694469519536142e-017
11
265.90003392744154
21
21.452722504157329
31
0
0
LINE
5
208
100
AcDbEntity
8
0
100
AcDbLine
10
254.40003392744148
20
21.452722504171149
30
-3.2311742677852644e-026
11
255.90003392744151
21
28.452722503942688
31
4.163336342344337e-015
0
LINE
5
209
100
AcDbEntity
8
0
100
AcDbLine
10
255.90003392744151
20
28.452722503942688
30
4.163336342344337e-015
11
275.90003392744154
21
28.452722503942809
31
0
0
LINE
5
210
100
AcDbEntity
8
0
100
AcDbLine
10
117.10003392744149
20
28.452722501377497
30
0
11
117.10003392744149
21
25.452722501377494
31
-1.3877787807814457e-016
0
LINE
5
211
100
AcDbEntity
8
0
100
AcDbLine
10
117.10003392744149
20
25.452722501377494
30
-1.3877787807814457e-016
11
111.10003392744146
21
25.452722501377462
31
-4.4408920985006104e-015
0
LINE
5
212
100
AcDbEntity
8
0
100
AcDbLine
10
111.10003392744146
20
25.452722501377462
30
-4.4408920985006104e-015
11
107.10003392744147
21
24.202722501377465
31
3.4694469519536142e-017
0
LINE
5
213
100
AcDbEntity
8
0
100
AcDbLine
10
107.10003392744147
20
24.202722501377465
30
3.4694469519536142e-017
11
107.10003392744149
21
21.452722501592021
31
0
0
LINE
5
214
100
AcDbEntity
8
0
100
AcDbLine
10
95.600033927441515
20
21.452722501605834
30
-4.4408920985006262e-015
11
97.100033927441501
21
28.452722501377377
31
2.7755575615628914e-016
0
LINE
5
215
100
AcDbEntity
8
0
100
AcDbLine
10
97.100033927441501
20
28.452722501377377
30
2.7755575615628914e-016
11
117.10003392744149
21
28.452722501377497
31
0
0
LINE
5
216
100
AcDbEntity
8
0
100
AcDbLine
10
196.50003392744145
20
28.452722503087724
30
4.4408920985006262e-015
11
196.50003392744151
21
25.452722503087728
31
-1.3877787807814457e-016
0
LINE
5
217
100
AcDbEntity
8
0
100
AcDbLine
10
196.50003392744151
20
25.452722503087728
30
-1.3877787807814457e-016
11
190.50003392744148
21
25.452722503087692
31
-4.4408920985006104e-015
0
LINE
5
218
100
AcDbEntity
8
0
100
AcDbLine
10
190.50003392744148
20
25.452722503087692
30
-4.4408920985006104e-015
11
186.50003392744151
21
24.202722503087692
31
3.4694469519536142e-017
0
LINE
5
219
100
AcDbEntity
8
0
100
AcDbLine
10
186.50003392744151
20
24.202722503087692
30
3.4694469519536142e-017
11
186.50003392744151
21
21.452722503302255
31
0
0
LINE
5
220
100
AcDbEntity
8
0
100
AcDbLine
10
175.00003392744151
20
21.452722503316064
30
-3.2311742677852644e-026
11
176.50003392744145
21
28.452722503087603
31
-2.7755575615628914e-016
0
LINE
5
221
100
AcDbEntity
8
0
100
AcDbLine
10
176.50003392744145
20
28.452722503087603
30
-2.7755575615628914e-016
11
196.50003392744145
21
28.452722503087724
31
4.4408920985006262e-015
0
LINE
5
222
100
AcDbEntity
8
0
100
AcDbLine
10
355.30003392744158
20
28.452722504797894
30
-4.4408920985006262e-015
11
355.30003392744158
21
25.452722504797897
31
4.3021142204224816e-015
0
LINE
5
223
100
AcDbEntity
8
0
100
AcDbLine
10
355.30003392744158
20
25.452722504797897
30
4.3021142204224816e-015
11
349.30003392744146
21
25.452722504797862
31
1.5777218104420236e-029
0
LINE
5
224
100
AcDbEntity
8
0
100
AcDbLine
10
349.30003392744146
20
25.452722504797862
30
1.5777218104420236e-029
11
345.30003392744152
21
24.202722504797865
31
0
0
LINE
5
225
100
AcDbEntity
8
0
100
AcDbLine
10
345.30003392744152
20
24.202722504797865
30
0
11
345.30003392744152
21
21.452722505012424
31
0
0
LINE
5
226
100
AcDbEntity
8
0
100
AcDbLine
10
333.80003392744152
20
21.45272250502623
30
-3.2311742677852644e-026
11
335.30003392744158
21
28.452722504797773
31
-2.7755575615628914e-016
0
LINE
5
227
100
AcDbEntity
8
0
100
AcDbLine
10
335.30003392744158
20
28.452722504797773
30
-2.7755575615628914e-016
11
355.30003392744158
21
28.452722504797894
31
-4.4408920985006262e-015
0
LINE
5
228
100
AcDbEntity
8
0
100
AcDbLine
10
107.10003392744149
20
21.452722501592021
30
0
11
175.00003392744151
21
21.452722503316064
31
-3.2311742677852644e-026
0
LINE
5
229
100
AcDbEntity
8
0
100
AcDbLine
10
186.50003392744151
20
21.452722503302255
30
0
11
254.40003392744148
21
21.452722504171149
31
-3.2311742677852644e-026
0
LINE
5
230
100
AcDbEntity
8
0
100
AcDbLine
10
265.90003392744154
20
21.452722504157329
30
0
11
333.80003392744152
21
21.45272250502623
31
-3.2311742677852644e-026
0
LINE
5
231
100
AcDbEntity
8
0
100
AcDbLine
10
27.700033927441506
20
24.202722501377515
30
0
11
27.70003392744151
21
21.452722501592074
31
0
0
LINE
5
232
100
AcDbEntity
8
0
100
AcDbLine
10
345.30003392744152
20
21.452722505012424
30
0
11
395.00003430568137
21
21.452722501377291
31
4.4408920985006262e-015
0
LINE
5
233
100
AcDbEntity
8
0
100
AcDbLine
10
-4.9999656943186812
20
21.452722501377579
30
0
11
16.200033927441524
21
21.452722501605884
31
0
0
LINE
5
234
100
AcDbEntity
8
0
100
AcDbLine
10
16.200033927441524
20
21.452722501605884
30
0
11
17.700033927441513
21
28.452722501377426
31
-2.7755575615628914e-016
0
LINE
5
235
100
AcDbEntity
8
0
100
AcDbLine
10
17.700033927441513
20
28.452722501377426
30
-2.7755575615628914e-016
11
37.700033927441517
21
28.452722501377554
31
0
0
LINE
5
236
100
AcDbEntity
8
0
100
AcDbLine
10
37.700033927441517
20
28.452722501377554
30
0
11
37.70003392744151
21
25.452722501377547
31
-1.3877787807814457e-016
0
LINE
5
237
100
AcDbEntity
8
0
100
AcDbLine
10
37.70003392744151
20
25.452722501377547
30
-1.3877787807814457e-016
11
31.700033927441496
21
25.452722501377515
31
1.5777218104420236e-029
0
LINE
5
238
100
AcDbEntity
8
0
100
AcDbLine
10
31.700033927441496
20
25.452722501377515
30
1.5777218104420236e-029
11
27.700033927441506
21
24.202722501377515
31
0
0
LINE
5
239
100
AcDbEntity
8
0
100
AcDbLine
10
373.80003430567922
20
71.452722501377295
30
-4.4408920985006277e-015
11
373.80003430567933
21
51.452722501377295
31
9.9920072216264089e-015
0
ARC
5
240
100
AcDbEntity
8
0
100
AcDbCircle
10
368.22503430567929
20
51.452722501377288
30
0
40
5.5749999999999744
100
AcDbArc
50
-180
51
0
0
LINE
5
241
100
AcDbEntity
8
0
100
AcDbLine
10
362.6500343056793
20
51.452722501377288
30
-1.7563173399299345e-029
11
362.65003430567924
21
71.452722501377295
31
3.3306690738754696e-015
0
LINE
5
242
100
AcDbEntity
8
0
100
AcDbLine
10
362.65003430567924
20
71.452722501377295
30
3.3306690738754696e-015
11
349.05360573425077
21
71.452722501377309
31
3.1554436208840472e-029
0
LINE
5
243
100
AcDbEntity
8
0
100
AcDbLine
10
349.05360573425077
20
71.452722501377309
30
3.1554436208840472e-029
11
349.05360573425077
21
51.452722501377295
31
1.1102230246251565e-015
0
ARC
5
244
100
AcDbEntity
8
0
100
AcDbCircle
10
343.47860573425072
20
51.452722501377295
30
4.4408920985006262e-015
40
5.5749999999999744
100
AcDbArc
50
180
51
360
0
LINE
5
245
100
AcDbEntity
8
0
100
AcDbLine
10
337.90360573425073
20
51.452722501377295
30
4.4408920985006088e-015
11
337.90360573425068
21
71.452722501377309
31
-1.1102230246251565e-015
0
LINE
5
246
100
AcDbEntity
8
0
100
AcDbLine
10
337.90360573425068
20
71.452722501377309
30
-1.1102230246251565e-015
11
324.3071771628222
21
71.452722501377323
31
-3.1554436208840472e-029
0
LINE
5
247
100
AcDbEntity
8
0
100
AcDbLine
10
324.3071771628222
20
71.452722501377323
30
-3.1554436208840472e-029
11
324.3071771628222
21
51.452722501377309
31
1.1102230246251565e-015
0
ARC
5
248
100
AcDbEntity
8
0
100
AcDbCircle
10
318.73217716282215
20
51.452722501377323
30
0
40
5.5750000000000099
100
AcDbArc
50
180
51
360
0
LINE
5
249
100
AcDbEntity
8
0
100
AcDbLine
10
313.15717716282211
20
51.452722501377323
30
-1.7563173399299345e-029
11
313.15717716282211
21
71.452722501377337
31
-1.1102230246251565e-015
0
LINE
5
250
100
AcDbEntity
8
0
100
AcDbLine
10
313.15717716282211
20
71.452722501377337
30
-1.1102230246251565e-015
11
299.56074859139358
21
71.452722501377337
31
3.1554436208840472e-029
0
LINE
5
251
100
AcDbEntity
8
0
100
AcDbLine
10
299.56074859139358
20
71.452722501377337
30
3.1554436208840472e-029
11
299.56074859139358
21
51.45272250137733
31
9.9920072216264089e-015
0
ARC
5
252
100
AcDbEntity
8
0
100
AcDbCircle
10
293.98574859139359
20
51.452722501377337
30
0
40
5.5750000000000099
100
AcDbArc
50
180
51
360
0
LINE
5
253
100
AcDbEntity
8
0
100
AcDbLine
10
288.4107485913936
20
51.452722501377337
30
-1.7563173399299345e-029
11
288.41074859139354
21
71.452722501377352
31
3.3306690738754696e-015
0
LINE
5
254
100
AcDbEntity
8
0
100
AcDbLine
10
288.41074859139354
20
71.452722501377352
30
3.3306690738754696e-015
11
274.81432001996501
21
71.452722501377352
31
8.8817841970012208e-015
0
LINE
5
255
100
AcDbEntity
8
0
100
AcDbLine
10
274.81432001996501
20
71.452722501377352
30
8.8817841970012208e-015
11
274.81432001996501
21
51.452722501377352
31
9.9920072216264089e-015
0
ARC
5
256
100
AcDbEntity
8
0
100
AcDbCircle
10
269.23932001996496
20
51.452722501377359
30
0
40
5.5750000000000099
100
AcDbArc
50
180
51
360
0
LINE
5
257
100
AcDbEntity
8
0
100
AcDbLine
10
263.66432001996498
20
51.452722501377359
30
-1.7563173399299345e-029
11
263.66432001996498
21
71.452722501377366
31
-5.5511151231257827e-015
0
LINE
5
258
100
AcDbEntity
8
0
100
AcDbLine
10
263.66432001996498
20
71.452722501377366
30
-5.5511151231257827e-015
11
250.06789144853641
21
71.45272250137738
31
-3.1554436208840472e-029
0
LINE
5
259
100
AcDbEntity
8
0
100
AcDbLine
10
250.06789144853641
20
71.45272250137738
30
-3.1554436208840472e-029
11
250.06789144853641
21
51.452722501377366
31
1.1102230246251565e-015
0
ARC
5
260
100
AcDbEntity
8
0
100
AcDbCircle
10
244.4928914485364
20
51.452722501377366
30
4.4408920985006262e-015
40
5.5750000000000099
100
AcDbArc
50
180
51
360
0
LINE
5
261
100
AcDbEntity
8
0
100
AcDbLine
10
238.91789144853641
20
51.452722501377366
30
4.4408920985006088e-015
11
238.91789144853641
21
71.45272250137738
31
-1.1102230246251565e-015
0
LINE
5
262
100
AcDbEntity
8
0
100
AcDbLine
10
238.91789144853641
20
71.45272250137738
30
-1.1102230246251565e-015
11
225.32146287710785
21
71.45272250137738
31
-3.1554436208840472e-029
0
LINE
5
263
100
AcDbEntity
8
0
100
AcDbLine
10
225.32146287710785
20
71.45272250137738
30
-3.1554436208840472e-029
11
225.32146287710785
21
51.45272250137738
31
5.5511151231257827e-015
0
ARC
5
264
100
AcDbEntity
8
0
100
AcDbCircle
10
219.74646287710783
20
51.45272250137738
30
0
40
5.5750000000000099
100
AcDbArc
50
-180
51
0
0
LINE
5
265
100
AcDbEntity
8
0
100
AcDbLine
10
214.17146287710781
20
51.45272250137738
30
-1.7563173399299345e-029
11
214.17146287710781
21
71.45272250137738
31
-9.9920072216264089e-015
0
LINE
5
266
100
AcDbEntity
8
0
100
AcDbLine
10
214.17146287710781
20
71.45272250137738
30
-9.9920072216264089e-015
11
200.57503430567925
21
71.452722501377409
31
4.4408920985006262e-015
0
ENDSEC
0
SECTION
2
OBJECTS
0
DICTIONARY
5
C
100
AcDbDictionary
3
ACAD_GROUP
350
D
3
ACAD_MLINESTYLE
350
17
0
DICTIONARY
5
D
100
AcDbDictionary
0
DICTIONARY
5
1A
330
C
100
AcDbDictionary
0
DICTIONARY
5
17
100
AcDbDictionary
0
ENDSEC
0
EOF
