<?xml version="1.0" encoding="UTF-8" standalone="no"?>
<!-- Created with Inkscape (http://www.inkscape.org/) -->

<svg
   xmlns:dc="http://purl.org/dc/elements/1.1/"
   xmlns:cc="http://creativecommons.org/ns#"
   xmlns:rdf="http://www.w3.org/1999/02/22-rdf-syntax-ns#"
   xmlns:svg="http://www.w3.org/2000/svg"
   xmlns="http://www.w3.org/2000/svg"
   xmlns:sodipodi="http://sodipodi.sourceforge.net/DTD/sodipodi-0.dtd"
   xmlns:inkscape="http://www.inkscape.org/namespaces/inkscape"
   width="210mm"
   height="297mm"
   viewBox="0 0 744.09448819 1052.3622047"
   id="svg2"
   version="1.1"
   inkscape:version="0.91 r13725"
   sodipodi:docname="large gear.svg">
  <sodipodi:namedview
     id="base"
     pagecolor="#ffffff"
     bordercolor="#666666"
     borderopacity="1.0"
     inkscape:pageopacity="0.0"
     inkscape:pageshadow="2"
     inkscape:zoom="0.7"
     inkscape:cx="364.24263"
     inkscape:cy="618.38074"
     inkscape:document-units="px"
     inkscape:current-layer="layer1"
     showgrid="false"
     inkscape:window-width="1224"
     inkscape:window-height="777"
     inkscape:window-x="2180"
     inkscape:window-y="98"
     inkscape:window-maximized="0" />
  <defs
     id="defs4" />
  <metadata
     id="metadata7">
    <rdf:RDF>
      <cc:Work
         rdf:about="">
        <dc:format>image/svg+xml</dc:format>
        <dc:type
           rdf:resource="http://purl.org/dc/dcmitype/StillImage" />
        <dc:title></dc:title>
      </cc:Work>
    </rdf:RDF>
  </metadata>
  <g
     id="layer1"
     inkscape:groupmode="layer"
     inkscape:label="Layer 1">
    <path
       inkscape:connector-curvature="0"
       style="fill:none;stroke:#000000;stroke-width:1"
       d="m 589.0552,381.2069 7.97117,2.09822 7.96251,3.11712 0,6.16564 -7.96251,3.11712 -7.97117,2.09822 -0.41676,7.28826 7.68004,2.99319 7.55528,4.00447 -0.70283,6.12544 -8.26593,2.18915 -8.1584,1.1759 -1.24484,7.19325 7.28878,3.84913 7.04956,4.8396 -1.3965,6.00541 -8.4616,1.23263 -8.23925,0.23825 -2.0567,7.00445 6.8025,4.65491 6.45194,5.61164 -2.07196,5.80707 -8.54695,0.26005 -8.21271,-0.70251 -2.84174,6.72436 6.22754,5.39998 5.7702,6.31054 -2.72041,5.53303 -8.52088,-0.71592 -8.0791,-1.63412 -3.58973,6.35659 5.57139,6.07468 5.01325,6.92715 -3.3334,5.18686 -8.38373,-1.68256 -7.84016,-2.54441 -4.29093,5.90596 4.84262,6.67017 4.19093,7.45347 -3.90293,4.77307 -8.13729,-2.62727 -7.49901,-3.42153 -4.93619,5.37833 4.05071,7.17871 3.31398,7.88261 -4.42157,4.29706 -7.78477,-3.53772 -7.06011,-4.25406 -5.51709,4.78059 3.20599,7.59367 2.39383,8.20899 -4.88258,3.76504 -7.33075,-4.40207 -6.52916,-5.03111 -6.02608,4.12053 2.31948,7.90962 1.44247,8.42836 -5.27993,3.18392 -6.78117,-5.20901 -5.9131,-5.74259 -6.45651,3.40674 1.40274,8.12247 0.47231,8.53786 -5.60846,2.56129 -6.14318,-5.94805 -5.21996,-6.3792 -6.80276,2.64855 0.4677,8.22943 -0.50401,8.53604 -5.86387,1.90528 -5.42511,-6.60955 -4.45875,-6.93265 -7.06034,1.85584 -0.47342,8.22909 -1.47377,8.42295 -6.04283,1.22444 -4.63632,-7.18489 -3.63943,-7.39572 -7.22586,1.03892 -1.40839,8.12149 -2.4243,8.20005 -6.14301,0.52762 -3.78709,-7.66655 -2.77265,-7.76238 -7.29719,0.20847 -2.32499,7.908 -3.34323,7.87025 -6.16312,-0.17606 -2.88848,-8.04828 -1.86974,-8.02784 -7.27339,-0.62471 -3.21127,7.59143 -4.21859,7.43785 -6.10287,-0.87746 -1.95222,-8.32508 -0.94245,-8.18864 -7.15476,-1.44975 -4.05571,7.17589 -5.03893,6.90849 -5.96308,-1.56742 -0.9905,-8.49335 -0.003,-8.2427 -6.94287,-2.25587 -4.84725,6.6668 -5.7936,6.28905 -5.74554,-2.23693 -0.0159,-8.5509 0.93675,-8.1893 -6.64046,-3.0326 -5.57562,6.0708 -6.47273,5.58765 -5.45309,-2.8773 0.95895,-8.49697 1.86415,-8.02914 -6.25149,-3.76979 -6.23129,5.39566 -7.06749,4.81338 -5.08956,-3.48015 1.92129,-8.33227 2.76725,-7.7643 -5.78102,-4.45783 -6.80573,4.65017 -7.57011,3.97638 -4.65967,-4.03764 2.85857,-8.05894 3.63428,-7.39825 -5.23518,-5.08776 -7.29146,3.84406 -7.97403,3.08753 -4.16905,-4.54247 3.75859,-7.68057 4.45393,-6.93575 -4.6211,-5.65136 -7.68212,2.98784 -8.274,2.15844 -3.62407,-4.98811 4.6096,-7.20205 5.21551,-6.38283 -3.94676,-6.14129 -7.97263,2.09267 -8.46612,1.2012 -3.03185,-5.3687 5.40053,-6.62965 5.90911,-5.74671 -3.22099,-6.55116 -8.15921,1.17022 -8.54786,0.22831 -2.4001,-5.67931 6.12105,-5.97083 6.52567,-5.03566 -2.45322,-6.87562 -8.23942,0.23252 -8.51817,-0.74757 -1.73706,-5.91588 6.76178,-5.23416 7.05714,-4.25896 -1.65346,-7.11045 -8.21222,-0.70823 -8.37743,-1.71369 -1.05138,-6.07533 7.31435,-4.42926 7.49664,-3.42675 -0.83216,-7.25258 -8.07796,-1.63973 -8.12747,-2.65747 -0.35199,-6.15558 7.77157,-3.56662 7.83839,-2.54986 0,-7.30016 -7.83839,-2.54986 -7.77157,-3.56662 0.35199,-6.15558 8.12747,-2.65747 8.07796,-1.63973 0.83216,-7.25258 -7.49664,-3.42675 -7.31435,-4.42926 1.05138,-6.07533 8.37743,-1.71369 8.21222,-0.70823 1.65346,-7.11045 -7.05714,-4.25896 -6.76178,-5.23416 1.73706,-5.91588 8.51817,-0.74757 8.23942,0.23252 2.45322,-6.87562 -6.52567,-5.03566 -6.12105,-5.97083 2.4001,-5.67931 8.54786,0.22831 8.15921,1.17022 3.22099,-6.55116 -5.90911,-5.74671 -5.40053,-6.62965 3.03185,-5.3687 8.46612,1.2012 7.97263,2.09267 3.94676,-6.14129 -5.21551,-6.38283 -4.6096,-7.20205 3.62407,-4.98811 8.274,2.15844 7.68212,2.98784 4.6211,-5.65136 -4.45393,-6.93575 -3.75859,-7.68057 4.16905,-4.54247 7.97403,3.08753 7.29146,3.84406 5.23518,-5.08776 -3.63428,-7.39825 -2.85857,-8.05894 4.65967,-4.03764 7.57011,3.97638 6.80573,4.65017 5.78102,-4.45783 -2.76725,-7.7643 -1.92129,-8.33227 5.08956,-3.48015 7.06749,4.81338 6.23129,5.39566 6.25149,-3.76979 -1.86415,-8.02914 -0.95895,-8.49697 5.45309,-2.8773 6.47273,5.58765 5.57562,6.0708 6.64046,-3.0326 -0.93675,-8.1893 0.0159,-8.5509 5.74554,-2.23693 5.7936,6.28905 4.84725,6.6668 6.94287,-2.25587 0.003,-8.2427 0.9905,-8.49335 5.96308,-1.56742 5.03893,6.90849 4.05571,7.17589 7.15476,-1.44975 0.94245,-8.18864 1.95222,-8.32508 6.10287,-0.87746 4.21859,7.43785 3.21127,7.59143 7.27339,-0.62471 1.86974,-8.02784 2.88848,-8.04828 6.16312,-0.17606 3.34323,7.87025 2.32499,7.908 7.29719,0.20847 2.77265,-7.76238 3.78709,-7.66655 6.14301,0.52762 2.4243,8.20005 1.40839,8.12149 7.22586,1.03892 3.63943,-7.39572 4.63632,-7.18489 6.04283,1.22444 1.47377,8.42295 0.47342,8.22909 7.06034,1.85584 4.45875,-6.93265 5.42511,-6.60955 5.86387,1.90528 0.50401,8.53604 -0.4677,8.22943 6.80276,2.64855 5.21996,-6.3792 6.14318,-5.94805 5.60846,2.56129 -0.47231,8.53786 -1.40274,8.12247 6.45651,3.40674 5.9131,-5.74259 6.78117,-5.20901 5.27993,3.18392 -1.44247,8.42836 -2.31948,7.90962 6.02608,4.12053 6.52916,-5.03111 7.33075,-4.40207 4.88258,3.76504 -2.39383,8.20899 -3.20599,7.59367 5.51709,4.78059 7.06011,-4.25406 7.78477,-3.53772 4.42157,4.29706 -3.31398,7.88261 -4.05071,7.17871 4.93619,5.37833 7.49901,-3.42153 8.13729,-2.62727 3.90293,4.77307 -4.19093,7.45347 -4.84262,6.67017 4.29093,5.90596 7.84016,-2.54441 8.38373,-1.68256 3.3334,5.18686 -5.01325,6.92715 -5.57139,6.07468 3.58973,6.35659 8.0791,-1.63412 8.52088,-0.71592 2.72041,5.53303 -5.7702,6.31054 -6.22754,5.39998 2.84174,6.72436 8.21271,-0.70251 8.54695,0.26005 2.07196,5.80707 -6.45194,5.61164 -6.8025,4.65491 2.0567,7.00445 8.23925,0.23825 8.4616,1.23263 1.3965,6.00541 -7.04956,4.8396 -7.28878,3.84913 1.24484,7.19325 8.1584,1.1759 8.26593,2.18915 0.70283,6.12544 -7.55528,4.00447 -7.68004,2.99319 z"
       id="path4473" />
    <circle
       r="186.02362"
       cy="389.50507"
       cx="380"
       style="fill:none;stroke:#000000;stroke-width:1"
       id="path4475" />
    <rect
       style="fill:none;fill-opacity:1;stroke:#000000;stroke-width:1.53959608;stroke-linejoin:miter;stroke-miterlimit:4;stroke-dasharray:none;stroke-opacity:1"
       id="rect4486"
       width="50.888977"
       height="286.60327"
       x="350.26981"
       y="135.48914" />
    <ellipse
       style="fill:none;fill-opacity:1;stroke:#000000;stroke-width:1;stroke-linejoin:miter;stroke-miterlimit:4;stroke-dasharray:none;stroke-opacity:1"
       id="path4490"
       cx="375.71429"
       cy="389.50507"
       r="32.857143" />
  </g>
</svg>
