  0
SECTION
  2
HEADER
  9
$ACADVER
  1
AC1014
  9
$HANDSEED
  5
FFFF
  9
$MEASUREMENT
 70
     1
  0
ENDSEC
  0
SECTION
  2
TABLES
  0
TABLE
  2
VPORT
  5
8
330
0
100
AcDbSymbolTable
 70
     4
  0
VPORT
  5
2E
330
8
100
AcDbSymbolTableRecord
100
AcDbViewportTableRecord
  2
*ACTIVE
 70
     0
 10
0.0
 20
0.0
 11
1.0
 21
1.0
 12
210.0
 22
148.5
 13
0.0
 23
0.0
 14
10.0
 24
10.0
 15
10.0
 25
10.0
 16
0.0
 26
0.0
 36
1.0
 17
0.0
 27
0.0
 37
0.0
 40
341.0
 41
1.24
 42
50.0
 43
0.0
 44
0.0
 50
0.0
 51
0.0
 71
     0
 72
   100
 73
     1
 74
     3
 75
     0
 76
     0
 77
     0
 78
     0
  0
ENDTAB
  0
TABLE
  2
LTYPE
  5
5
330
0
100
AcDbSymbolTable
 70
     1
  0
LTYPE
  5
14
330
5
100
AcDbSymbolTableRecord
100
AcDbLinetypeTableRecord
  2
BYBLOCK
 70
     0
  3

 72
    65
 73
     0
 40
0.0
  0
LTYPE
  5
15
330
5
100
AcDbSymbolTableRecord
100
AcDbLinetypeTableRecord
  2
BYLAYER
 70
     0
  3

 72
    65
 73
     0
 40
0.0
  0
LTYPE
  5
16
330
5
100
AcDbSymbolTableRecord
100
AcDbLinetypeTableRecord
  2
CONTINUOUS
 70
     0
  3
Solid line
 72
    65
 73
     0
 40
0.0
  0
ENDTAB
  0
TABLE
  2
LAYER
  5
2
100
AcDbSymbolTable
 70
2
  0
LAYER
  5
50
100
AcDbSymbolTableRecord
100
AcDbLayerTableRecord
  2
0
 70
0
  6
CONTINUOUS
  0
LAYER
  5
51
100
AcDbSymbolTableRecord
100
AcDbLayerTableRecord
  2
Layer_1
 70
0
  6
CONTINUOUS
  0
ENDTAB
  0
TABLE
  2
STYLE
  5
3
330
0
100
AcDbSymbolTable
 70
     1
  0
STYLE
  5
11
330
3
100
AcDbSymbolTableRecord
100
AcDbTextStyleTableRecord
  2
STANDARD
 70
     0
 40
0.0
 41
1.0
 50
0.0
 71
     0
 42
2.5
  3
txt
  4

  0
ENDTAB
  0
TABLE
  2
VIEW
  5
6
330
0
100
AcDbSymbolTable
 70
     0
  0
ENDTAB
  0
TABLE
  2
UCS
  5
7
330
0
100
AcDbSymbolTable
 70
     0
  0
ENDTAB
  0
TABLE
  2
APPID
  5
9
330
0
100
AcDbSymbolTable
 70
     2
  0
APPID
  5
12
330
9
100
AcDbSymbolTableRecord
100
AcDbRegAppTableRecord
  2
ACAD
 70
     0
  0
ENDTAB
  0
TABLE
  2
DIMSTYLE
  5
A
330
0
100
AcDbSymbolTable
 70
     1
  0
DIMSTYLE
105
27
330
A
100
AcDbSymbolTableRecord
100
AcDbDimStyleTableRecord
  2
ISO-25
 70
     0
  3

  4

  5

  6

  7

 40
1.0
 41
2.5
 42
0.625
 43
3.75
 44
1.25
 45
0.0
 46
0.0
 47
0.0
 48
0.0
140
2.5
141
2.5
142
0.0
143
0.03937007874016
144
1.0
145
0.0
146
1.0
147
0.625
 71
     0
 72
     0
 73
     0
 74
     0
 75
     0
 76
     0
 77
     1
 78
     8
170
     0
171
     3
172
     1
173
     0
174
     0
175
     0
176
     0
177
     0
178
     0
270
     2
271
     2
272
     2
273
     2
274
     3
340
11
275
     0
280
     0
281
     0
282
     0
283
     0
284
     8
285
     0
286
     0
287
     3
288
     0
  0
ENDTAB
  0
TABLE
  2
BLOCK_RECORD
  5
1
330
0
100
AcDbSymbolTable
 70
     1
  0
BLOCK_RECORD
  5
1F
330
1
100
AcDbSymbolTableRecord
100
AcDbBlockTableRecord
  2
*MODEL_SPACE
  0
BLOCK_RECORD
  5
1B
330
1
100
AcDbSymbolTableRecord
100
AcDbBlockTableRecord
  2
*PAPER_SPACE
  0
ENDTAB
  0
ENDSEC
  0
SECTION
  2
BLOCKS
  0
BLOCK
  5
20
330
1F
100
AcDbEntity
  8
0
100
AcDbBlockBegin
  2
*MODEL_SPACE
 70
     0
 10
0.0
 20
0.0
 30
0.0
  3
*MODEL_SPACE
  1

  0
ENDBLK
  5
21
330
1F
100
AcDbEntity
  8
0
100
AcDbBlockEnd
  0
BLOCK
  5
1C
330
1B
100
AcDbEntity
 67
     1
  8
0
100
AcDbBlockBegin
  2
*PAPER_SPACE
  1

  0
ENDBLK
  5
1D
330
1B
100
AcDbEntity
 67
     1
  8
0
100
AcDbBlockEnd
  0
ENDSEC
  0
SECTION
  2
ENTITIES
  0
LWPOLYLINE
  5
100
100
AcDbEntity
  8
Layer_1
 62
7
100
AcDbPolyline
 90
5
 70
1
 10
77.722746
 20
231.210433
 30
0.0
 10
92.583813
 20
231.210433
 30
0.0
 10
92.583813
 20
150.228736
 30
0.0
 10
77.722746
 20
150.228736
 30
0.0
 10
77.722746
 20
231.210433
 30
0.0
  0
LWPOLYLINE
  5
101
100
AcDbEntity
  8
Layer_1
 62
7
100
AcDbPolyline
 90
5
 70
1
 10
85.791023
 20
225.994015
 30
0.0
 10
89.637350
 20
240.348703
 30
0.0
 10
167.859663
 20
219.389097
 30
0.0
 10
164.013336
 20
205.034409
 30
0.0
 10
85.791023
 20
225.994015
 30
0.0
  0
LWPOLYLINE
  5
102
100
AcDbEntity
  8
Layer_1
 62
7
100
AcDbPolyline
 90
403
 70
1
 10
136.850607
 20
235.562076
 30
0.0
 10
138.455539
 20
235.109146
 30
0.0
 10
140.058133
 20
234.488819
 30
0.0
 10
140.058133
 20
233.229702
 30
0.0
 10
138.455539
 20
232.609374
 30
0.0
 10
136.850607
 20
232.156444
 30
0.0
 10
136.782901
 20
230.713580
 30
0.0
 10
138.338369
 20
230.112351
 30
0.0
 10
139.875831
 20
229.344679
 30
0.0
 10
139.757927
 20
228.091098
 30
0.0
 10
138.104288
 20
227.623563
 30
0.0
 10
136.463993
 20
227.322912
 30
0.0
 10
136.261473
 20
225.892728
 30
0.0
 10
137.753808
 20
225.148486
 30
0.0
 10
139.212629
 20
224.240216
 30
0.0
 10
138.977854
 20
223.003185
 30
0.0
 10
137.287701
 20
222.692554
 30
0.0
 10
135.626459
 20
222.546823
 30
0.0
 10
135.290905
 20
221.141887
 30
0.0
 10
136.706989
 20
220.261170
 30
0.0
 10
138.074350
 20
219.220287
 30
0.0
 10
137.724770
 20
218.010674
 30
0.0
 10
136.012954
 20
217.859676
 30
0.0
 10
134.345368
 20
217.870147
 30
0.0
 10
133.879727
 20
216.502805
 30
0.0
 10
135.207116
 20
215.493353
 30
0.0
 10
136.470998
 20
214.329003
 30
0.0
 10
136.009683
 20
213.157439
 30
0.0
 10
134.291252
 20
213.167402
 30
0.0
 10
132.631971
 20
213.333980
 30
0.0
 10
132.040338
 20
212.016251
 30
0.0
 10
133.267369
 20
210.886936
 30
0.0
 10
134.416666
 20
209.609350
 30
0.0
 10
133.847669
 20
208.486131
 30
0.0
 10
132.137721
 20
208.656968
 30
0.0
 10
130.501332
 20
208.978194
 30
0.0
 10
129.788904
 20
207.721656
 30
0.0
 10
130.904791
 20
206.482401
 30
0.0
 10
131.929402
 20
205.102808
 30
0.0
 10
131.257730
 20
204.037806
 30
0.0
 10
129.571291
 20
204.368015
 30
0.0
 10
127.972172
 20
204.841064
 30
0.0
 10
127.145210
 20
203.656758
 30
0.0
 10
128.140151
 20
202.318458
 30
0.0
 10
129.031070
 20
200.848977
 30
0.0
 10
128.262621
 20
199.851556
 30
0.0
 10
126.614514
 20
200.338234
 30
0.0
 10
125.066717
 20
200.958945
 30
0.0
 10
124.132491
 20
199.857282
 30
0.0
 10
124.997736
 20
198.431693
 30
0.0
 10
125.747140
 20
196.885245
 30
0.0
 10
124.888666
 20
195.964162
 30
0.0
 10
123.293373
 20
196.603034
 30
0.0
 10
121.810505
 20
197.365957
 30
0.0
 10
120.777218
 20
196.356618
 30
0.0
 10
121.505171
 20
194.856271
 30
0.0
 10
122.106468
 20
193.246441
 30
0.0
 10
121.165514
 20
192.409793
 30
0.0
 10
119.637058
 20
193.195243
 30
0.0
 10
118.232144
 20
194.093672
 30
0.0
 10
117.108883
 20
193.185526
 30
0.0
 10
117.693142
 20
191.623604
 30
0.0
 10
118.141051
 20
189.964544
 30
0.0
 10
117.125887
 20
189.219686
 30
0.0
 10
115.677697
 20
190.144811
 30
0.0
 10
114.363086
 20
191.170849
 30
0.0
 10
113.159722
 20
190.371878
 30
0.0
 10
113.595151
 20
188.762108
 30
0.0
 10
113.885736
 20
187.068394
 30
0.0
 10
112.805282
 20
186.421870
 30
0.0
 10
111.450084
 20
187.478542
 30
0.0
 10
110.237333
 20
188.623176
 30
0.0
 10
108.964438
 20
187.940398
 30
0.0
 10
109.247213
 20
186.296928
 30
0.0
 10
109.377919
 20
184.583444
 30
0.0
 10
108.241672
 20
184.040937
 30
0.0
 10
106.991377
 20
185.219866
 30
0.0
 10
105.891139
 20
186.473035
 30
0.0
 10
104.559900
 20
185.912457
 30
0.0
 10
104.687538
 20
184.249727
 30
0.0
 10
104.657213
 20
182.531533
 30
0.0
 10
103.475159
 20
182.097811
 30
0.0
 10
102.340755
 20
183.388639
 30
0.0
 10
101.362700
 20
184.739329
 30
0.0
 10
99.984818
 20
184.305870
 30
0.0
 10
99.956192
 20
182.638495
 30
0.0
 10
99.765108
 20
180.930692
 30
0.0
 10
98.547632
 20
180.609563
 30
0.0
 10
97.539089
 20
182.000947
 30
0.0
 10
96.691812
 20
183.437289
 30
0.0
 10
95.279395
 20
183.134763
 30
0.0
 10
95.094759
 20
181.477394
 30
0.0
 10
94.744595
 20
179.794988
 30
0.0
 10
93.502396
 20
179.589276
 30
0.0
 10
92.628577
 20
181.068990
 30
0.0
 10
91.919522
 20
182.578359
 30
0.0
 10
90.484984
 20
182.409424
 30
0.0
 10
90.145961
 20
180.776627
 30
0.0
 10
89.639790
 20
179.134402
 30
0.0
 10
88.383788
 20
179.045916
 30
0.0
 10
87.652370
 20
180.600952
 30
0.0
 10
87.087773
 20
182.170088
 30
0.0
 10
85.643715
 20
182.136227
 30
0.0
 10
85.153287
 20
180.542352
 30
0.0
 10
84.495559
 20
178.954742
 30
0.0
 10
83.236792
 20
178.984259
 30
0.0
 10
82.654203
 20
180.600952
 30
0.0
 10
82.239020
 20
182.216062
 30
0.0
 10
80.798141
 20
182.317575
 30
0.0
 10
80.160612
 20
180.776627
 30
0.0
 10
79.357108
 20
179.257583
 30
0.0
 10
78.106635
 20
179.404844
 30
0.0
 10
77.677996
 20
181.068990
 30
0.0
 10
77.415879
 20
182.715881
 30
0.0
 10
75.990835
 20
182.951872
 30
0.0
 10
75.211814
 20
181.477394
 30
0.0
 10
74.269595
 20
180.040267
 30
0.0
 10
73.038407
 20
180.303976
 30
0.0
 10
72.767485
 20
182.000947
 30
0.0
 10
72.660737
 20
183.665146
 30
0.0
 10
71.264053
 20
184.033545
 30
0.0
 10
70.350381
 20
182.638495
 30
0.0
 10
69.277728
 20
181.295913
 30
0.0
 10
68.076644
 20
181.673755
 30
0.0
 10
67.965818
 20
183.388639
 30
0.0
 10
68.015379
 20
185.055523
 30
0.0
 10
66.659327
 20
185.553089
 30
0.0
 10
65.619036
 20
184.249727
 30
0.0
 10
64.425377
 20
183.013490
 30
0.0
 10
63.264950
 20
183.502140
 30
0.0
 10
63.315196
 20
185.219866
 30
0.0
 10
63.520629
 20
186.874786
 30
0.0
 10
62.217129
 20
187.497148
 30
0.0
 10
61.059360
 20
186.296928
 30
0.0
 10
59.755180
 20
185.177900
 30
0.0
 10
58.645612
 20
185.773067
 30
0.0
 10
58.856489
 20
187.478542
 30
0.0
 10
59.215986
 20
189.106950
 30
0.0
 10
57.976495
 20
189.848641
 30
0.0
 10
56.711422
 20
188.762108
 30
0.0
 10
55.308185
 20
187.770122
 30
0.0
 10
54.259224
 20
188.466576
 30
0.0
 10
54.628876
 20
190.144811
 30
0.0
 10
55.139284
 20
191.732401
 30
0.0
 10
53.974691
 20
192.586899
 30
0.0
 10
52.613431
 20
191.623604
 30
0.0
 10
51.123470
 20
190.767379
 30
0.0
 10
50.144337
 20
191.559001
 30
0.0
 10
50.669516
 20
193.195243
 30
0.0
 10
51.326343
 20
194.728063
 30
0.0
 10
50.246882
 20
195.687861
 30
0.0
 10
48.801402
 20
194.856271
 30
0.0
 10
47.237812
 20
194.143327
 30
0.0
 10
46.337105
 20
195.023157
 30
0.0
 10
47.013200
 20
196.603034
 30
0.0
 10
47.810675
 20
198.067612
 30
0.0
 10
46.825835
 20
199.124275
 30
0.0
 10
45.308837
 20
198.431693
 30
0.0
 10
43.685354
 20
197.868301
 30
0.0
 10
42.870996
 20
198.828611
 30
0.0
 10
43.692059
 20
200.338234
 30
0.0
 10
44.623176
 20
201.721699
 30
0.0
 10
43.741612
 20
202.865941
 30
0.0
 10
42.166423
 20
202.318458
 30
0.0
 10
40.497318
 20
201.909566
 30
0.0
 10
39.776463
 20
202.941912
 30
0.0
 10
40.735282
 20
204.368015
 30
0.0
 10
41.791857
 20
205.658211
 30
0.0
 10
41.021314
 20
206.879976
 30
0.0
 10
39.401782
 20
206.482401
 30
0.0
 10
37.701721
 20
206.231604
 30
0.0
 10
37.080702
 20
207.326917
 30
0.0
 10
38.168852
 20
208.656968
 30
0.0
 10
39.341601
 20
209.842556
 30
0.0
 10
38.688852
 20
211.131106
 30
0.0
 10
37.039204
 20
210.886936
 30
0.0
 10
35.323129
 20
210.796436
 30
0.0
 10
34.807408
 20
211.945089
 30
0.0
 10
36.015322
 20
213.167402
 30
0.0
 10
37.293938
 20
214.237961
 30
0.0
 10
36.764720
 20
215.581974
 30
0.0
 10
35.099457
 20
215.493350
 30
0.0
 10
33.382445
 20
215.563945
 30
0.0
 10
32.976553
 20
216.755843
 30
0.0
 10
34.293619
 20
217.859673
 30
0.0
 10
35.666865
 20
218.805798
 30
0.0
 10
35.265827
 20
220.193462
 30
0.0
 10
33.599584
 20
220.261167
 30
0.0
 10
31.896728
 20
220.492234
 30
0.0
 10
31.604228
 20
221.716903
 30
0.0
 10
33.018872
 20
222.692551
 30
0.0
 10
34.474682
 20
223.505924
 30
0.0
 10
34.205349
 20
224.925045
 30
0.0
 10
32.552765
 20
225.148483
 30
0.0
 10
30.879029
 20
225.537992
 30
0.0
 10
30.702497
 20
226.784669
 30
0.0
 10
32.202285
 20
227.623560
 30
0.0
 10
33.727862
 20
228.297039
 30
0.0
 10
33.592602
 20
229.735144
 30
0.0
 10
31.968204
 20
230.112348
 30
0.0
 10
30.338295
 20
230.656879
 30
0.0
 10
30.279279
 20
231.914608
 30
0.0
 10
31.851034
 20
232.609372
 30
0.0
 10
33.432971
 20
233.137031
 30
0.0
 10
33.432971
 20
234.581484
 30
0.0
 10
31.851034
 20
235.109144
 30
0.0
 10
30.279279
 20
235.803907
 30
0.0
 10
30.338295
 20
237.061636
 30
0.0
 10
31.968204
 20
237.606167
 30
0.0
 10
33.592602
 20
237.983371
 30
0.0
 10
33.727862
 20
239.421477
 30
0.0
 10
32.202285
 20
240.094955
 30
0.0
 10
30.702497
 20
240.933846
 30
0.0
 10
30.879029
 20
242.180523
 30
0.0
 10
32.552765
 20
242.570032
 30
0.0
 10
34.205349
 20
242.793471
 30
0.0
 10
34.474682
 20
244.212591
 30
0.0
 10
33.018872
 20
245.025964
 30
0.0
 10
31.604228
 20
246.001612
 30
0.0
 10
31.896728
 20
247.226281
 30
0.0
 10
33.599584
 20
247.457348
 30
0.0
 10
35.265827
 20
247.525053
 30
0.0
 10
35.666865
 20
248.912717
 30
0.0
 10
34.293619
 20
249.858842
 30
0.0
 10
32.976553
 20
250.962672
 30
0.0
 10
33.382445
 20
252.154570
 30
0.0
 10
35.099457
 20
252.225165
 30
0.0
 10
36.764720
 20
252.136542
 30
0.0
 10
37.293938
 20
253.480554
 30
0.0
 10
36.015322
 20
254.551114
 30
0.0
 10
34.807408
 20
255.773427
 30
0.0
 10
35.323129
 20
256.922079
 30
0.0
 10
37.039204
 20
256.831579
 30
0.0
 10
38.688852
 20
256.587409
 30
0.0
 10
39.341601
 20
257.875959
 30
0.0
 10
38.168852
 20
259.061547
 30
0.0
 10
37.080702
 20
260.391598
 30
0.0
 10
37.701721
 20
261.486911
 30
0.0
 10
39.401782
 20
261.236114
 30
0.0
 10
41.021314
 20
260.838539
 30
0.0
 10
41.791857
 20
262.060305
 30
0.0
 10
40.735282
 20
263.350501
 30
0.0
 10
39.776463
 20
264.776603
 30
0.0
 10
40.497318
 20
265.808950
 30
0.0
 10
42.166423
 20
265.400058
 30
0.0
 10
43.741612
 20
264.852575
 30
0.0
 10
44.623176
 20
265.996816
 30
0.0
 10
43.692059
 20
267.380281
 30
0.0
 10
42.870996
 20
268.889905
 30
0.0
 10
43.685354
 20
269.850214
 30
0.0
 10
45.308837
 20
269.286822
 30
0.0
 10
46.825835
 20
268.594240
 30
0.0
 10
47.810675
 20
269.650903
 30
0.0
 10
47.013200
 20
271.115481
 30
0.0
 10
46.337105
 20
272.695358
 30
0.0
 10
47.237812
 20
273.575189
 30
0.0
 10
48.801402
 20
272.862245
 30
0.0
 10
50.246882
 20
272.030654
 30
0.0
 10
51.326343
 20
272.990452
 30
0.0
 10
50.669516
 20
274.523272
 30
0.0
 10
50.144337
 20
276.159514
 30
0.0
 10
51.123470
 20
276.951137
 30
0.0
 10
52.613431
 20
276.094911
 30
0.0
 10
53.974691
 20
275.131616
 30
0.0
 10
55.139284
 20
275.986114
 30
0.0
 10
54.628876
 20
277.573705
 30
0.0
 10
54.259224
 20
279.251939
 30
0.0
 10
55.308185
 20
279.948393
 30
0.0
 10
56.711422
 20
278.956407
 30
0.0
 10
57.976495
 20
277.869874
 30
0.0
 10
59.215986
 20
278.611566
 30
0.0
 10
58.856489
 20
280.239974
 30
0.0
 10
58.645612
 20
281.945448
 30
0.0
 10
59.755180
 20
282.540615
 30
0.0
 10
61.059360
 20
281.421587
 30
0.0
 10
62.217129
 20
280.221367
 30
0.0
 10
63.520629
 20
280.843729
 30
0.0
 10
63.315196
 20
282.498649
 30
0.0
 10
63.264950
 20
284.216375
 30
0.0
 10
64.425377
 20
284.705026
 30
0.0
 10
65.619036
 20
283.468788
 30
0.0
 10
66.659327
 20
282.165426
 30
0.0
 10
68.015379
 20
282.662993
 30
0.0
 10
67.965818
 20
284.329876
 30
0.0
 10
68.076644
 20
286.044760
 30
0.0
 10
69.277728
 20
286.422602
 30
0.0
 10
70.350381
 20
285.080020
 30
0.0
 10
71.264053
 20
283.684970
 30
0.0
 10
72.660737
 20
284.053369
 30
0.0
 10
72.767485
 20
285.717568
 30
0.0
 10
73.038407
 20
287.414540
 30
0.0
 10
74.269595
 20
287.678248
 30
0.0
 10
75.211814
 20
286.241122
 30
0.0
 10
75.990835
 20
284.766643
 30
0.0
 10
77.415879
 20
285.002635
 30
0.0
 10
77.677996
 20
286.649525
 30
0.0
 10
78.106635
 20
288.313671
 30
0.0
 10
79.357108
 20
288.460932
 30
0.0
 10
80.160612
 20
286.941888
 30
0.0
 10
80.798141
 20
285.400940
 30
0.0
 10
82.239020
 20
285.502453
 30
0.0
 10
82.654203
 20
287.117563
 30
0.0
 10
83.236792
 20
288.734256
 30
0.0
 10
84.495559
 20
288.763773
 30
0.0
 10
85.153287
 20
287.176163
 30
0.0
 10
85.643715
 20
285.582288
 30
0.0
 10
87.087773
 20
285.548427
 30
0.0
 10
87.652370
 20
287.117563
 30
0.0
 10
88.383788
 20
288.672599
 30
0.0
 10
89.639790
 20
288.584114
 30
0.0
 10
90.145961
 20
286.941888
 30
0.0
 10
90.484984
 20
285.309091
 30
0.0
 10
91.919522
 20
285.140156
 30
0.0
 10
92.628577
 20
286.649525
 30
0.0
 10
93.502396
 20
288.129239
 30
0.0
 10
94.744595
 20
287.923527
 30
0.0
 10
95.094759
 20
286.241122
 30
0.0
 10
95.279395
 20
284.583752
 30
0.0
 10
96.691812
 20
284.281227
 30
0.0
 10
97.539089
 20
285.717568
 30
0.0
 10
98.547632
 20
287.108952
 30
0.0
 10
99.765108
 20
286.787823
 30
0.0
 10
99.956192
 20
285.080020
 30
0.0
 10
99.984818
 20
283.412645
 30
0.0
 10
101.362700
 20
282.979186
 30
0.0
 10
102.340755
 20
284.329876
 30
0.0
 10
103.475159
 20
285.620704
 30
0.0
 10
104.657213
 20
285.186982
 30
0.0
 10
104.687538
 20
283.468788
 30
0.0
 10
104.559900
 20
281.806059
 30
0.0
 10
105.891139
 20
281.245481
 30
0.0
 10
106.991377
 20
282.498649
 30
0.0
 10
108.241672
 20
283.677579
 30
0.0
 10
109.377919
 20
283.135071
 30
0.0
 10
109.247213
 20
281.421587
 30
0.0
 10
108.964438
 20
279.778117
 30
0.0
 10
110.237333
 20
279.095340
 30
0.0
 10
111.450084
 20
280.239974
 30
0.0
 10
112.805282
 20
281.296645
 30
0.0
 10
113.885736
 20
280.650122
 30
0.0
 10
113.595151
 20
278.956407
 30
0.0
 10
113.159722
 20
277.346637
 30
0.0
 10
114.363086
 20
276.547666
 30
0.0
 10
115.677697
 20
277.573705
 30
0.0
 10
117.125887
 20
278.498829
 30
0.0
 10
118.141051
 20
277.753971
 30
0.0
 10
117.693142
 20
276.094911
 30
0.0
 10
117.108883
 20
274.532989
 30
0.0
 10
118.232144
 20
273.624843
 30
0.0
 10
119.637058
 20
274.523272
 30
0.0
 10
121.165514
 20
275.308722
 30
0.0
 10
122.106468
 20
274.472074
 30
0.0
 10
121.505171
 20
272.862245
 30
0.0
 10
120.777218
 20
271.361898
 30
0.0
 10
121.810505
 20
270.352558
 30
0.0
 10
123.293373
 20
271.115481
 30
0.0
 10
124.888666
 20
271.754353
 30
0.0
 10
125.747140
 20
270.833270
 30
0.0
 10
124.997736
 20
269.286822
 30
0.0
 10
124.132491
 20
267.861233
 30
0.0
 10
125.066717
 20
266.759570
 30
0.0
 10
126.614514
 20
267.380281
 30
0.0
 10
128.262621
 20
267.866959
 30
0.0
 10
129.031070
 20
266.869538
 30
0.0
 10
128.140151
 20
265.400058
 30
0.0
 10
127.145210
 20
264.061757
 30
0.0
 10
127.972172
 20
262.877451
 30
0.0
 10
129.571291
 20
263.350501
 30
0.0
 10
131.257730
 20
263.680709
 30
0.0
 10
131.929402
 20
262.615707
 30
0.0
 10
130.904791
 20
261.236114
 30
0.0
 10
129.788904
 20
259.996859
 30
0.0
 10
130.501332
 20
258.740321
 30
0.0
 10
132.137721
 20
259.061547
 30
0.0
 10
133.847669
 20
259.232384
 30
0.0
 10
134.416666
 20
258.109165
 30
0.0
 10
133.267369
 20
256.831579
 30
0.0
 10
132.040338
 20
255.702264
 30
0.0
 10
132.631971
 20
254.384535
 30
0.0
 10
134.291252
 20
254.551114
 30
0.0
 10
136.009683
 20
254.561076
 30
0.0
 10
136.470998
 20
253.389512
 30
0.0
 10
135.207116
 20
252.225162
 30
0.0
 10
133.879727
 20
251.215710
 30
0.0
 10
134.345368
 20
249.848369
 30
0.0
 10
136.012954
 20
249.858839
 30
0.0
 10
137.724770
 20
249.707842
 30
0.0
 10
138.074350
 20
248.498229
 30
0.0
 10
136.706989
 20
247.457345
 30
0.0
 10
135.290905
 20
246.576628
 30
0.0
 10
135.626459
 20
245.171692
 30
0.0
 10
137.287701
 20
245.025961
 30
0.0
 10
138.977854
 20
244.715330
 30
0.0
 10
139.212629
 20
243.478300
 30
0.0
 10
137.753808
 20
242.570030
 30
0.0
 10
136.261473
 20
241.825787
 30
0.0
 10
136.463993
 20
240.395603
 30
0.0
 10
138.104288
 20
240.094952
 30
0.0
 10
139.757927
 20
239.627417
 30
0.0
 10
139.875831
 20
238.373837
 30
0.0
 10
138.338369
 20
237.606164
 30
0.0
 10
136.782901
 20
237.004935
 30
0.0
 10
136.850607
 20
235.562076
 30
0.0
  0
LWPOLYLINE
  5
103
100
AcDbEntity
  8
Layer_1
 62
7
100
AcDbPolyline
 90
5
 70
1
 10
56.399289
 20
218.578869
 30
0.0
 10
106.004473
 20
218.578869
 30
0.0
 10
106.004473
 20
168.973685
 30
0.0
 10
56.399289
 20
168.973685
 30
0.0
 10
56.399289
 20
218.578869
 30
0.0
  0
LWPOLYLINE
  5
104
100
AcDbEntity
  8
Layer_1
 62
7
100
AcDbPolyline
 90
5
 70
1
 10
18.914681
 20
231.386108
 30
0.0
 10
68.519865
 20
231.386108
 30
0.0
 10
68.519865
 20
181.780924
 30
0.0
 10
18.914681
 20
181.780924
 30
0.0
 10
18.914681
 20
231.386108
 30
0.0
  0
LWPOLYLINE
  5
105
100
AcDbEntity
  8
Layer_1
 62
7
100
AcDbPolyline
 90
5
 70
1
 10
21.101281
 20
268.245975
 30
0.0
 10
70.706465
 20
268.245975
 30
0.0
 10
70.706465
 20
218.640791
 30
0.0
 10
21.101281
 20
218.640791
 30
0.0
 10
21.101281
 20
268.245975
 30
0.0
  0
LWPOLYLINE
  5
106
100
AcDbEntity
  8
Layer_1
 62
7
100
AcDbPolyline
 90
88
 70
1
 10
196.065456
 20
72.799136
 30
0.0
 10
195.567966
 20
71.443058
 30
0.0
 10
196.871387
 20
70.402841
 30
0.0
 10
198.107692
 20
69.209252
 30
0.0
 10
197.619106
 20
68.048797
 30
0.0
 10
195.901381
 20
68.098942
 30
0.0
 10
194.246449
 20
68.304279
 30
0.0
 10
193.624160
 20
67.000745
 30
0.0
 10
194.824449
 20
65.843044
 30
0.0
 10
195.943553
 20
64.538932
 30
0.0
 10
195.348445
 20
63.429327
 30
0.0
 10
193.642959
 20
63.640105
 30
0.0
 10
192.014529
 20
63.999509
 30
0.0
 10
191.272914
 20
62.759975
 30
0.0
 10
192.359514
 20
61.494965
 30
0.0
 10
193.351582
 20
60.091787
 30
0.0
 10
192.655190
 20
59.042784
 30
0.0
 10
190.976933
 20
59.412340
 30
0.0
 10
189.389314
 20
59.922657
 30
0.0
 10
188.534884
 20
58.758013
 30
0.0
 10
189.498255
 20
57.396810
 30
0.0
 10
190.354565
 20
55.906900
 30
0.0
 10
189.563002
 20
54.927721
 30
0.0
 10
187.926726
 20
55.452807
 30
0.0
 10
186.393870
 20
56.109544
 30
0.0
 10
185.434137
 20
55.030030
 30
0.0
 10
186.265806
 20
53.584598
 30
0.0
 10
186.978840
 20
52.021047
 30
0.0
 10
186.099061
 20
51.120290
 30
0.0
 10
184.519147
 20
51.796294
 30
0.0
 10
183.054523
 20
52.593687
 30
0.0
 10
181.997917
 20
51.608785
 30
0.0
 10
182.690584
 20
50.091827
 30
0.0
 10
183.254071
 20
48.468374
 30
0.0
 10
182.293808
 20
47.653960
 30
0.0
 10
180.784139
 20
48.474939
 30
0.0
 10
179.400618
 20
49.405976
 30
0.0
 10
178.256427
 20
48.524348
 30
0.0
 10
178.804000
 20
46.949189
 30
0.0
 10
179.212991
 20
45.280107
 30
0.0
 10
178.180684
 20
44.559193
 30
0.0
 10
176.754525
 20
45.517933
 30
0.0
 10
175.464267
 20
46.574432
 30
0.0
 10
174.242549
 20
45.803821
 30
0.0
 10
174.640215
 20
44.184309
 30
0.0
 10
174.891110
 20
42.484261
 30
0.0
 10
173.795834
 20
41.863181
 30
0.0
 10
172.465718
 20
42.951255
 30
0.0
 10
171.280066
 20
44.123939
 30
0.0
 10
169.991552
 20
43.471114
 30
0.0
 10
170.235815
 20
41.821480
 30
0.0
 10
170.326414
 20
40.105408
 30
0.0
 10
169.177792
 20
39.589621
 30
0.0
 10
167.955409
 20
40.797467
 30
0.0
 10
166.884779
 20
42.076021
 30
0.0
 10
165.540794
 20
41.546728
 30
0.0
 10
165.629514
 20
39.881470
 30
0.0
 10
165.559015
 20
38.164452
 30
0.0
 10
164.367142
 20
37.758493
 30
0.0
 10
163.263236
 20
39.075497
 30
0.0
 10
162.317035
 20
40.448689
 30
0.0
 10
160.929393
 20
40.047569
 30
0.0
 10
160.861781
 20
38.381320
 30
0.0
 10
160.630814
 20
36.678454
 30
0.0
 10
159.406161
 20
36.385882
 30
0.0
 10
158.430431
 20
37.800470
 30
0.0
 10
157.616977
 20
39.256235
 30
0.0
 10
156.197870
 20
38.986823
 30
0.0
 10
155.974525
 20
37.334222
 30
0.0
 10
155.585115
 20
35.660467
 30
0.0
 10
154.338443
 20
35.483861
 30
0.0
 10
153.499467
 20
36.983604
 30
0.0
 10
152.825873
 20
38.509229
 30
0.0
 10
151.387807
 20
38.373799
 30
0.0
 10
151.010693
 20
36.749376
 30
0.0
 10
150.466213
 20
35.119438
 30
0.0
 10
149.208530
 20
35.060349
 30
0.0
 10
148.513676
 20
36.632065
 30
0.0
 10
147.985929
 20
38.213974
 30
0.0
 10
146.541473
 20
38.213892
 30
0.0
 10
146.013907
 20
36.631921
 30
0.0
 10
145.319231
 20
35.060127
 30
0.0
 10
144.061462
 20
35.119176
 30
0.0
 10
143.516878
 20
36.748947
 30
0.0
 10
143.139578
 20
38.373325
 30
0.0
 10
141.701520
 20
38.508383
 30
0.0
 10
147.260451
 20
89.934069
 30
0.0
 10
196.065456
 20
72.799136
 30
0.0
  0
LWPOLYLINE
  5
107
100
AcDbEntity
  8
Layer_1
 62
7
100
AcDbPolyline
 90
6
 70
1
 10
147.260452
 20
89.934069
 30
0.0
 10
152.825874
 20
38.509229
 30
0.0
 10
150.466214
 20
35.119176
 30
0.0
 10
144.061463
 20
35.119176
 30
0.0
 10
141.701521
 20
38.508383
 30
0.0
 10
147.260452
 20
89.934069
 30
0.0
  0
LWPOLYLINE
  5
108
100
AcDbEntity
  8
Layer_1
 62
7
100
AcDbPolyline
 90
6
 70
1
 10
147.262348
 20
89.931897
 30
0.0
 10
196.064660
 20
72.790646
 30
0.0
 10
198.106733
 20
69.200326
 30
0.0
 10
195.346390
 20
63.420936
 30
0.0
 10
191.271010
 20
62.752112
 30
0.0
 10
147.262348
 20
89.931897
 30
0.0
  0
LWPOLYLINE
  5
109
100
AcDbEntity
  8
Layer_1
 62
7
100
AcDbPolyline
 90
5
 70
0
 10
46.969053
 20
21.814041
 30
0.0
 10
45.685826
 20
21.814041
 30
0.0
 10
46.943145
 20
21.755062
 30
0.0
 10
46.969053
 20
21.814041
 30
0.0
 10
46.969053
 20
21.814041
 30
0.0
  0
LWPOLYLINE
  5
10a
100
AcDbEntity
  8
Layer_1
 62
7
100
AcDbPolyline
 90
5
 70
0
 10
52.078819
 20
21.814041
 30
0.0
 10
50.806615
 20
21.814041
 30
0.0
 10
50.832520
 20
21.755062
 30
0.0
 10
52.078819
 20
21.814041
 30
0.0
 10
52.078819
 20
21.814041
 30
0.0
  0
SPLINE
  5
10b
100
AcDbEntity
  8
Layer_1
 62
7
100
AcDbSpline
 70
8
 71
3
 72
8
 73
4
 74
0
 40
0
 40
0
 40
0
 40
0
 40
1
 40
1
 40
1
 40
1
 10
97.689678
 20
59.494015
 30
0.0
 10
97.689678
 20
59.494015
 30
0.0
 10
93.650373
 20
60.912292
 30
0.0
 10
93.650373
 20
60.912292
 30
0.0
  0
SPLINE
  5
10c
100
AcDbEntity
  8
Layer_1
 62
7
100
AcDbSpline
 70
8
 71
3
 72
8
 73
4
 74
0
 40
0
 40
0
 40
0
 40
0
 40
1
 40
1
 40
1
 40
1
 10
93.650373
 20
60.912292
 30
0.0
 10
93.649455
 20
60.909903
 30
0.0
 10
93.648537
 20
60.907515
 30
0.0
 10
93.647618
 20
60.905126
 30
0.0
  0
LWPOLYLINE
  5
10d
100
AcDbEntity
  8
Layer_1
 62
7
100
AcDbPolyline
 90
2
 70
0
 10
97.686924
 20
59.486299
 30
0.0
 10
97.689678
 20
59.494015
 30
0.0
  0
LWPOLYLINE
  5
10e
100
AcDbEntity
  8
Layer_1
 62
7
100
AcDbPolyline
 90
3
 70
0
 10
93.647618
 20
60.905126
 30
0.0
 10
97.686924
 20
59.486299
 30
0.0
 10
97.686924
 20
59.486299
 30
0.0
  0
LWPOLYLINE
  5
10f
100
AcDbEntity
  8
Layer_1
 62
7
100
AcDbPolyline
 90
5
 70
0
 10
99.729174
 20
55.897886
 30
0.0
 10
99.731932
 20
55.904501
 30
0.0
 10
99.717600
 20
55.918282
 30
0.0
 10
99.729174
 20
55.897886
 30
0.0
 10
99.729174
 20
55.897886
 30
0.0
  0
LWPOLYLINE
  5
110
100
AcDbEntity
  8
Layer_1
 62
7
100
AcDbPolyline
 90
5
 70
0
 10
99.181818
 20
54.745296
 30
0.0
 10
99.243004
 20
54.743642
 30
0.0
 10
99.706577
 20
55.844969
 30
0.0
 10
99.181818
 20
54.745296
 30
0.0
 10
99.181818
 20
54.745296
 30
0.0
  0
SPLINE
  5
111
100
AcDbEntity
  8
Layer_1
 62
7
100
AcDbSpline
 70
8
 71
3
 72
8
 73
4
 74
0
 40
0
 40
0
 40
0
 40
0
 40
1
 40
1
 40
1
 40
1
 10
89.220257
 20
51.716368
 30
0.0
 10
81.532777
 20
39.265232
 30
0.0
 10
68.535499
 20
31.052304
 30
0.0
 10
53.989882
 20
29.454437
 30
0.0
  0
LWPOLYLINE
  5
112
100
AcDbEntity
  8
Layer_1
 62
7
100
AcDbPolyline
 90
5
 70
0
 10
96.988534
 20
50.154223
 30
0.0
 10
97.567860
 20
51.234053
 30
0.0
 10
97.527070
 20
51.281458
 30
0.0
 10
96.988534
 20
50.154223
 30
0.0
 10
96.988534
 20
50.154223
 30
0.0
  0
SPLINE
  5
113
100
AcDbEntity
  8
Layer_1
 62
7
100
AcDbSpline
 70
8
 71
3
 72
8
 73
4
 74
0
 40
0
 40
0
 40
0
 40
0
 40
1
 40
1
 40
1
 40
1
 10
93.647618
 20
60.905126
 30
0.0
 10
92.505915
 20
57.692177
 30
0.0
 10
91.021572
 20
54.611501
 30
0.0
 10
89.220257
 20
51.716368
 30
0.0
  0
LWPOLYLINE
  5
114
100
AcDbEntity
  8
Layer_1
 62
7
100
AcDbPolyline
 90
84
 70
0
 10
53.989882
 20
29.454437
 30
0.0
 10
54.450147
 20
25.204015
 30
0.0
 10
55.123732
 20
23.678801
 30
0.0
 10
55.962683
 20
22.178945
 30
0.0
 10
57.209532
 20
22.355334
 30
0.0
 10
57.598688
 20
24.029375
 30
0.0
 10
57.821932
 20
25.681919
 30
0.0
 10
59.241312
 20
25.951464
 30
0.0
 10
60.054355
 20
24.495702
 30
0.0
 10
61.030556
 20
23.080733
 30
0.0
 10
62.254805
 20
23.373428
 30
0.0
 10
62.485764
 20
25.076132
 30
0.0
 10
62.553562
 20
26.742456
 30
0.0
 10
63.940972
 20
27.143742
 30
0.0
 10
64.887410
 20
25.770664
 30
0.0
 10
65.991492
 20
24.453259
 30
0.0
 10
67.183220
 20
24.859506
 30
0.0
 10
67.253776
 20
26.576541
 30
0.0
 10
67.165031
 20
28.241762
 30
0.0
 10
68.508894
 20
28.770928
 30
0.0
 10
69.579355
 20
27.492659
 30
0.0
 10
70.801950
 20
26.284395
 30
0.0
 10
71.950682
 20
26.800334
 30
0.0
 10
71.859730
 20
28.516268
 30
0.0
 10
71.615543
 20
30.166055
 30
0.0
 10
72.904285
 20
30.818693
 30
0.0
 10
74.089949
 20
29.646258
 30
0.0
 10
75.420031
 20
28.558158
 30
0.0
 10
76.515296
 20
29.179380
 30
0.0
 10
76.264493
 20
30.879326
 30
0.0
 10
75.866515
 20
32.498799
 30
0.0
 10
77.088560
 20
33.269395
 30
0.0
 10
78.378953
 20
32.212716
 30
0.0
 10
79.804949
 20
31.254154
 30
0.0
 10
80.837374
 20
31.975144
 30
0.0
 10
80.428372
 20
33.644223
 30
0.0
 10
79.880466
 20
35.219596
 30
0.0
 10
81.024786
 20
36.100990
 30
0.0
 10
82.408339
 20
35.169987
 30
0.0
 10
83.918117
 20
34.348675
 30
0.0
 10
84.878333
 20
35.163372
 30
0.0
 10
84.314992
 20
36.786703
 30
0.0
 10
83.622114
 20
38.303647
 30
0.0
 10
84.678794
 20
39.288668
 30
0.0
 10
86.143372
 20
38.491060
 30
0.0
 10
87.723156
 20
37.815270
 30
0.0
 10
88.602896
 20
38.715954
 30
0.0
 10
87.890175
 20
40.279753
 30
0.0
 10
87.058390
 20
41.725039
 30
0.0
 10
88.018056
 20
42.804318
 30
0.0
 10
89.550985
 20
42.147822
 30
0.0
 10
91.186993
 20
41.622513
 30
0.0
 10
91.978536
 20
42.602022
 30
0.0
 10
91.122500
 20
44.091957
 30
0.0
 10
90.158976
 20
45.452909
 30
0.0
 10
91.013359
 20
46.617626
 30
0.0
 10
92.600859
 20
46.107202
 30
0.0
 10
94.279311
 20
45.737886
 30
0.0
 10
94.975494
 20
46.786849
 30
0.0
 10
93.983858
 20
48.189691
 30
0.0
 10
92.902374
 20
49.448117
 30
0.0
 10
92.895208
 20
49.447014
 30
0.0
 10
89.220257
 20
51.716368
 30
0.0
 10
89.220257
 20
51.716368
 30
0.0
 10
92.895208
 20
49.447014
 30
0.0
 10
92.902374
 20
49.448117
 30
0.0
 10
92.896862
 20
49.454730
 30
0.0
 10
93.638799
 20
50.694414
 30
0.0
 10
95.267089
 20
50.335020
 30
0.0
 10
96.972549
 20
50.124457
 30
0.0
 10
96.988534
 20
50.154223
 30
0.0
 10
97.527070
 20
51.281458
 30
0.0
 10
96.448894
 20
52.538231
 30
0.0
 10
95.248346
 20
53.695782
 30
0.0
 10
95.870669
 20
54.999406
 30
0.0
 10
97.525417
 20
54.793801
 30
0.0
 10
99.181818
 20
54.745296
 30
0.0
 10
99.706577
 20
55.844969
 30
0.0
 10
99.729174
 20
55.897886
 30
0.0
 10
99.717600
 20
55.918282
 30
0.0
 10
98.495556
 20
57.097881
 30
0.0
 10
97.191932
 20
58.138025
 30
0.0
 10
97.686924
 20
59.486299
 30
0.0
 10
93.647618
 20
60.905126
 30
0.0
  0
LWPOLYLINE
  5
115
100
AcDbEntity
  8
Layer_1
 62
7
100
AcDbPolyline
 90
2
 70
0
 10
89.220257
 20
51.716368
 30
0.0
 10
89.220257
 20
51.716368
 30
0.0
  0
SPLINE
  5
116
100
AcDbEntity
  8
Layer_1
 62
7
100
AcDbSpline
 70
8
 71
3
 72
8
 73
4
 74
0
 40
0
 40
0
 40
0
 40
0
 40
1
 40
1
 40
1
 40
1
 10
54.450147
 20
25.204015
 30
0.0
 10
54.450147
 20
25.204015
 30
0.0
 10
53.989882
 20
29.454437
 30
0.0
 10
53.989882
 20
29.454437
 30
0.0
  0
SPLINE
  5
117
100
AcDbEntity
  8
Layer_1
 62
7
100
AcDbSpline
 70
8
 71
3
 72
8
 73
4
 74
0
 40
0
 40
0
 40
0
 40
0
 40
1
 40
1
 40
1
 40
1
 10
53.989882
 20
29.454437
 30
0.0
 10
52.295366
 20
29.254238
 30
0.0
 10
50.591295
 20
29.145491
 30
0.0
 10
48.885077
 20
29.128668
 30
0.0
  0
SPLINE
  5
118
100
AcDbEntity
  8
Layer_1
 62
7
100
AcDbSpline
 70
8
 71
3
 72
8
 73
4
 74
0
 40
0
 40
0
 40
0
 40
0
 40
1
 40
1
 40
1
 40
1
 10
48.885077
 20
29.128668
 30
0.0
 10
47.179833
 20
29.134367
 30
0.0
 10
45.476132
 20
29.231890
 30
0.0
 10
43.781376
 20
29.420813
 30
0.0
  0
LWPOLYLINE
  5
119
100
AcDbEntity
  8
Layer_1
 62
7
100
AcDbPolyline
 90
16
 70
0
 10
43.781376
 20
29.420813
 30
0.0
 10
43.325519
 20
25.203465
 30
0.0
 10
44.763642
 20
25.068416
 30
0.0
 10
45.141224
 20
23.443984
 30
0.0
 10
45.685826
 20
21.814041
 30
0.0
 10
46.969053
 20
21.814041
 30
0.0
 10
47.638231
 20
23.327127
 30
0.0
 10
48.165743
 20
24.909115
 30
0.0
 10
49.609925
 20
24.909115
 30
0.0
 10
50.137991
 20
23.327127
 30
0.0
 10
50.806615
 20
21.814041
 30
0.0
 10
52.078819
 20
21.814041
 30
0.0
 10
52.090396
 20
21.814591
 30
0.0
 10
52.634995
 20
23.444534
 30
0.0
 10
53.012027
 20
25.068966
 30
0.0
 10
54.450147
 20
25.204015
 30
0.0
  0
SPLINE
  5
11a
100
AcDbEntity
  8
Layer_1
 62
7
100
AcDbSpline
 70
8
 71
3
 72
8
 73
4
 74
0
 40
0
 40
0
 40
0
 40
0
 40
1
 40
1
 40
1
 40
1
 10
47.646342
 20
27.154145
 30
0.0
 10
47.646342
 20
26.899167
 30
0.0
 10
47.545052
 20
26.654632
 30
0.0
 10
47.364755
 20
26.474336
 30
0.0
  0
SPLINE
  5
11b
100
AcDbEntity
  8
Layer_1
 62
7
100
AcDbSpline
 70
8
 71
3
 72
8
 73
4
 74
0
 40
0
 40
0
 40
0
 40
0
 40
1
 40
1
 40
1
 40
1
 10
47.364755
 20
26.474336
 30
0.0
 10
47.184459
 20
26.294039
 30
0.0
 10
46.939924
 20
26.192749
 30
0.0
 10
46.684946
 20
26.192749
 30
0.0
  0
SPLINE
  5
11c
100
AcDbEntity
  8
Layer_1
 62
7
100
AcDbSpline
 70
8
 71
3
 72
8
 73
4
 74
0
 40
0
 40
0
 40
0
 40
0
 40
1
 40
1
 40
1
 40
1
 10
46.684946
 20
26.192749
 30
0.0
 10
46.429968
 20
26.192749
 30
0.0
 10
46.185433
 20
26.294039
 30
0.0
 10
46.005137
 20
26.474336
 30
0.0
  0
SPLINE
  5
11d
100
AcDbEntity
  8
Layer_1
 62
7
100
AcDbSpline
 70
8
 71
3
 72
8
 73
4
 74
0
 40
0
 40
0
 40
0
 40
0
 40
1
 40
1
 40
1
 40
1
 10
46.005137
 20
26.474336
 30
0.0
 10
45.824840
 20
26.654632
 30
0.0
 10
45.723550
 20
26.899167
 30
0.0
 10
45.723550
 20
27.154145
 30
0.0
  0
SPLINE
  5
11e
100
AcDbEntity
  8
Layer_1
 62
7
100
AcDbSpline
 70
8
 71
3
 72
8
 73
4
 74
0
 40
0
 40
0
 40
0
 40
0
 40
1
 40
1
 40
1
 40
1
 10
45.723550
 20
27.154145
 30
0.0
 10
45.723550
 20
27.409123
 30
0.0
 10
45.824840
 20
27.653658
 30
0.0
 10
46.005137
 20
27.833955
 30
0.0
  0
SPLINE
  5
11f
100
AcDbEntity
  8
Layer_1
 62
7
100
AcDbSpline
 70
8
 71
3
 72
8
 73
4
 74
0
 40
0
 40
0
 40
0
 40
0
 40
1
 40
1
 40
1
 40
1
 10
46.005137
 20
27.833955
 30
0.0
 10
46.185433
 20
28.014251
 30
0.0
 10
46.429968
 20
28.115541
 30
0.0
 10
46.684946
 20
28.115541
 30
0.0
  0
SPLINE
  5
120
100
AcDbEntity
  8
Layer_1
 62
7
100
AcDbSpline
 70
8
 71
3
 72
8
 73
4
 74
0
 40
0
 40
0
 40
0
 40
0
 40
1
 40
1
 40
1
 40
1
 10
46.684946
 20
28.115541
 30
0.0
 10
46.939924
 20
28.115541
 30
0.0
 10
47.184459
 20
28.014251
 30
0.0
 10
47.364755
 20
27.833955
 30
0.0
  0
SPLINE
  5
121
100
AcDbEntity
  8
Layer_1
 62
7
100
AcDbSpline
 70
8
 71
3
 72
8
 73
4
 74
0
 40
0
 40
0
 40
0
 40
0
 40
1
 40
1
 40
1
 40
1
 10
47.364755
 20
27.833955
 30
0.0
 10
47.545052
 20
27.653658
 30
0.0
 10
47.646342
 20
27.409123
 30
0.0
 10
47.646342
 20
27.154145
 30
0.0
  0
LWPOLYLINE
  5
122
100
AcDbEntity
  8
Layer_1
 62
7
100
AcDbPolyline
 90
2
 70
0
 10
43.781376
 20
29.420813
 30
0.0
 10
43.781376
 20
29.420813
 30
0.0
  0
SPLINE
  5
123
100
AcDbEntity
  8
Layer_1
 62
7
100
AcDbSpline
 70
8
 71
3
 72
8
 73
4
 74
0
 40
0
 40
0
 40
0
 40
0
 40
1
 40
1
 40
1
 40
1
 10
52.046245
 20
27.154145
 30
0.0
 10
52.046245
 20
26.899167
 30
0.0
 10
51.944956
 20
26.654632
 30
0.0
 10
51.764659
 20
26.474336
 30
0.0
  0
SPLINE
  5
124
100
AcDbEntity
  8
Layer_1
 62
7
100
AcDbSpline
 70
8
 71
3
 72
8
 73
4
 74
0
 40
0
 40
0
 40
0
 40
0
 40
1
 40
1
 40
1
 40
1
 10
51.764659
 20
26.474336
 30
0.0
 10
51.584362
 20
26.294039
 30
0.0
 10
51.339828
 20
26.192749
 30
0.0
 10
51.084850
 20
26.192749
 30
0.0
  0
SPLINE
  5
125
100
AcDbEntity
  8
Layer_1
 62
7
100
AcDbSpline
 70
8
 71
3
 72
8
 73
4
 74
0
 40
0
 40
0
 40
0
 40
0
 40
1
 40
1
 40
1
 40
1
 10
51.084850
 20
26.192749
 30
0.0
 10
50.829872
 20
26.192749
 30
0.0
 10
50.585337
 20
26.294039
 30
0.0
 10
50.405040
 20
26.474336
 30
0.0
  0
SPLINE
  5
126
100
AcDbEntity
  8
Layer_1
 62
7
100
AcDbSpline
 70
8
 71
3
 72
8
 73
4
 74
0
 40
0
 40
0
 40
0
 40
0
 40
1
 40
1
 40
1
 40
1
 10
50.405040
 20
26.474336
 30
0.0
 10
50.224744
 20
26.654632
 30
0.0
 10
50.123454
 20
26.899167
 30
0.0
 10
50.123454
 20
27.154145
 30
0.0
  0
SPLINE
  5
127
100
AcDbEntity
  8
Layer_1
 62
7
100
AcDbSpline
 70
8
 71
3
 72
8
 73
4
 74
0
 40
0
 40
0
 40
0
 40
0
 40
1
 40
1
 40
1
 40
1
 10
50.123454
 20
27.154145
 30
0.0
 10
50.123454
 20
27.409123
 30
0.0
 10
50.224744
 20
27.653658
 30
0.0
 10
50.405040
 20
27.833955
 30
0.0
  0
SPLINE
  5
128
100
AcDbEntity
  8
Layer_1
 62
7
100
AcDbSpline
 70
8
 71
3
 72
8
 73
4
 74
0
 40
0
 40
0
 40
0
 40
0
 40
1
 40
1
 40
1
 40
1
 10
50.405040
 20
27.833955
 30
0.0
 10
50.585337
 20
28.014251
 30
0.0
 10
50.829872
 20
28.115541
 30
0.0
 10
51.084850
 20
28.115541
 30
0.0
  0
SPLINE
  5
129
100
AcDbEntity
  8
Layer_1
 62
7
100
AcDbSpline
 70
8
 71
3
 72
8
 73
4
 74
0
 40
0
 40
0
 40
0
 40
0
 40
1
 40
1
 40
1
 40
1
 10
51.084850
 20
28.115541
 30
0.0
 10
51.339828
 20
28.115541
 30
0.0
 10
51.584362
 20
28.014251
 30
0.0
 10
51.764659
 20
27.833955
 30
0.0
  0
SPLINE
  5
12a
100
AcDbEntity
  8
Layer_1
 62
7
100
AcDbSpline
 70
8
 71
3
 72
8
 73
4
 74
0
 40
0
 40
0
 40
0
 40
0
 40
1
 40
1
 40
1
 40
1
 10
51.764659
 20
27.833955
 30
0.0
 10
51.944956
 20
27.653658
 30
0.0
 10
52.046245
 20
27.409123
 30
0.0
 10
52.046245
 20
27.154145
 30
0.0
  0
LWPOLYLINE
  5
12b
100
AcDbEntity
  8
Layer_1
 62
7
100
AcDbPolyline
 90
2
 70
1
 10
47.646342
 20
27.154145
 30
0.0
 10
47.646342
 20
27.154145
 30
0.0
  0
SPLINE
  5
12c
100
AcDbEntity
  8
Layer_1
 62
7
100
AcDbSpline
 70
8
 71
3
 72
8
 73
4
 74
0
 40
0
 40
0
 40
0
 40
0
 40
1
 40
1
 40
1
 40
1
 10
92.997009
 20
54.186643
 30
0.0
 10
93.227091
 20
54.076751
 30
0.0
 10
93.404095
 20
53.879961
 30
0.0
 10
93.489083
 20
53.639564
 30
0.0
  0
SPLINE
  5
12d
100
AcDbEntity
  8
Layer_1
 62
7
100
AcDbSpline
 70
8
 71
3
 72
8
 73
4
 74
0
 40
0
 40
0
 40
0
 40
0
 40
1
 40
1
 40
1
 40
1
 10
93.489083
 20
53.639564
 30
0.0
 10
93.574070
 20
53.399166
 30
0.0
 10
93.560079
 20
53.134854
 30
0.0
 10
93.450188
 20
52.904772
 30
0.0
  0
SPLINE
  5
12e
100
AcDbEntity
  8
Layer_1
 62
7
100
AcDbSpline
 70
8
 71
3
 72
8
 73
4
 74
0
 40
0
 40
0
 40
0
 40
0
 40
1
 40
1
 40
1
 40
1
 10
93.450188
 20
52.904772
 30
0.0
 10
93.340297
 20
52.674690
 30
0.0
 10
93.143506
 20
52.497686
 30
0.0
 10
92.903109
 20
52.412698
 30
0.0
  0
SPLINE
  5
12f
100
AcDbEntity
  8
Layer_1
 62
7
100
AcDbSpline
 70
8
 71
3
 72
8
 73
4
 74
0
 40
0
 40
0
 40
0
 40
0
 40
1
 40
1
 40
1
 40
1
 10
92.903109
 20
52.412698
 30
0.0
 10
92.662712
 20
52.327711
 30
0.0
 10
92.398399
 20
52.341702
 30
0.0
 10
92.168317
 20
52.451593
 30
0.0
  0
SPLINE
  5
130
100
AcDbEntity
  8
Layer_1
 62
7
100
AcDbSpline
 70
8
 71
3
 72
8
 73
4
 74
0
 40
0
 40
0
 40
0
 40
0
 40
1
 40
1
 40
1
 40
1
 10
92.168317
 20
52.451593
 30
0.0
 10
91.938235
 20
52.561484
 30
0.0
 10
91.761231
 20
52.758275
 30
0.0
 10
91.676244
 20
52.998672
 30
0.0
  0
SPLINE
  5
131
100
AcDbEntity
  8
Layer_1
 62
7
100
AcDbSpline
 70
8
 71
3
 72
8
 73
4
 74
0
 40
0
 40
0
 40
0
 40
0
 40
1
 40
1
 40
1
 40
1
 10
91.676244
 20
52.998672
 30
0.0
 10
91.591256
 20
53.239069
 30
0.0
 10
91.605247
 20
53.503382
 30
0.0
 10
91.715138
 20
53.733464
 30
0.0
  0
SPLINE
  5
132
100
AcDbEntity
  8
Layer_1
 62
7
100
AcDbSpline
 70
8
 71
3
 72
8
 73
4
 74
0
 40
0
 40
0
 40
0
 40
0
 40
1
 40
1
 40
1
 40
1
 10
91.715138
 20
53.733464
 30
0.0
 10
91.825030
 20
53.963546
 30
0.0
 10
92.021820
 20
54.140550
 30
0.0
 10
92.262217
 20
54.225537
 30
0.0
  0
SPLINE
  5
133
100
AcDbEntity
  8
Layer_1
 62
7
100
AcDbSpline
 70
8
 71
3
 72
8
 73
4
 74
0
 40
0
 40
0
 40
0
 40
0
 40
1
 40
1
 40
1
 40
1
 10
92.262217
 20
54.225537
 30
0.0
 10
92.502615
 20
54.310525
 30
0.0
 10
92.766927
 20
54.296534
 30
0.0
 10
92.997009
 20
54.186643
 30
0.0
  0
LWPOLYLINE
  5
134
100
AcDbEntity
  8
Layer_1
 62
7
100
AcDbPolyline
 90
2
 70
1
 10
52.046245
 20
27.154145
 30
0.0
 10
52.046245
 20
27.154145
 30
0.0
  0
SPLINE
  5
135
100
AcDbEntity
  8
Layer_1
 62
7
100
AcDbSpline
 70
8
 71
3
 72
8
 73
4
 74
0
 40
0
 40
0
 40
0
 40
0
 40
1
 40
1
 40
1
 40
1
 10
94.893295
 20
58.156939
 30
0.0
 10
95.123377
 20
58.047047
 30
0.0
 10
95.300382
 20
57.850257
 30
0.0
 10
95.385369
 20
57.609860
 30
0.0
  0
SPLINE
  5
136
100
AcDbEntity
  8
Layer_1
 62
7
100
AcDbSpline
 70
8
 71
3
 72
8
 73
4
 74
0
 40
0
 40
0
 40
0
 40
0
 40
1
 40
1
 40
1
 40
1
 10
95.385369
 20
57.609860
 30
0.0
 10
95.470357
 20
57.369462
 30
0.0
 10
95.456366
 20
57.105150
 30
0.0
 10
95.346474
 20
56.875068
 30
0.0
  0
SPLINE
  5
137
100
AcDbEntity
  8
Layer_1
 62
7
100
AcDbSpline
 70
8
 71
3
 72
8
 73
4
 74
0
 40
0
 40
0
 40
0
 40
0
 40
1
 40
1
 40
1
 40
1
 10
95.346474
 20
56.875068
 30
0.0
 10
95.236583
 20
56.644986
 30
0.0
 10
95.039793
 20
56.467982
 30
0.0
 10
94.799396
 20
56.382994
 30
0.0
  0
SPLINE
  5
138
100
AcDbEntity
  8
Layer_1
 62
7
100
AcDbSpline
 70
8
 71
3
 72
8
 73
4
 74
0
 40
0
 40
0
 40
0
 40
0
 40
1
 40
1
 40
1
 40
1
 10
94.799396
 20
56.382994
 30
0.0
 10
94.558998
 20
56.298007
 30
0.0
 10
94.294686
 20
56.311998
 30
0.0
 10
94.064604
 20
56.421889
 30
0.0
  0
SPLINE
  5
139
100
AcDbEntity
  8
Layer_1
 62
7
100
AcDbSpline
 70
8
 71
3
 72
8
 73
4
 74
0
 40
0
 40
0
 40
0
 40
0
 40
1
 40
1
 40
1
 40
1
 10
94.064604
 20
56.421889
 30
0.0
 10
93.834522
 20
56.531780
 30
0.0
 10
93.657518
 20
56.728571
 30
0.0
 10
93.572530
 20
56.968968
 30
0.0
  0
SPLINE
  5
13a
100
AcDbEntity
  8
Layer_1
 62
7
100
AcDbSpline
 70
8
 71
3
 72
8
 73
4
 74
0
 40
0
 40
0
 40
0
 40
0
 40
1
 40
1
 40
1
 40
1
 10
93.572530
 20
56.968968
 30
0.0
 10
93.487543
 20
57.209365
 30
0.0
 10
93.501533
 20
57.473678
 30
0.0
 10
93.611425
 20
57.703760
 30
0.0
  0
SPLINE
  5
13b
100
AcDbEntity
  8
Layer_1
 62
7
100
AcDbSpline
 70
8
 71
3
 72
8
 73
4
 74
0
 40
0
 40
0
 40
0
 40
0
 40
1
 40
1
 40
1
 40
1
 10
93.611425
 20
57.703760
 30
0.0
 10
93.721316
 20
57.933842
 30
0.0
 10
93.918106
 20
58.110846
 30
0.0
 10
94.158504
 20
58.195833
 30
0.0
  0
SPLINE
  5
13c
100
AcDbEntity
  8
Layer_1
 62
7
100
AcDbSpline
 70
8
 71
3
 72
8
 73
4
 74
0
 40
0
 40
0
 40
0
 40
0
 40
1
 40
1
 40
1
 40
1
 10
94.158504
 20
58.195833
 30
0.0
 10
94.398901
 20
58.280821
 30
0.0
 10
94.663214
 20
58.266830
 30
0.0
 10
94.893295
 20
58.156939
 30
0.0
  0
LWPOLYLINE
  5
13d
100
AcDbEntity
  8
Layer_1
 62
7
100
AcDbPolyline
 90
2
 70
1
 10
92.997009
 20
54.186643
 30
0.0
 10
92.997009
 20
54.186643
 30
0.0
  0
LWPOLYLINE
  5
13e
100
AcDbEntity
  8
Layer_1
 62
7
100
AcDbPolyline
 90
2
 70
1
 10
94.893295
 20
58.156939
 30
0.0
 10
94.893295
 20
58.156939
 30
0.0
  0
ENDSEC
  0
SECTION
  2
OBJECTS
  0
DICTIONARY
  5
C
330
0
100
AcDbDictionary
  3
ACAD_GROUP
350
D
  3
ACAD_MLINESTYLE
350
17
  0
DICTIONARY
  5
D
330
C
100
AcDbDictionary
  0
DICTIONARY
  5
1A
330
C
100
AcDbDictionary
  0
DICTIONARY
  5
17
330
C
100
AcDbDictionary
  3
STANDARD
350
18
  0
DICTIONARY
  5
19
330
C
100
AcDbDictionary
  0
ENDSEC
  0
EOF
